<svg width="8" height="28" viewBox="0 0 8 28" fill="none" xmlns="http://www.w3.org/2000/svg">
<path d="M7 24.1111C7 22.5156 5.6569 21.2222 4 21.2222C2.3431 21.2222 1 22.5156 1 24.1111C1 25.7066 2.3431 27 4 27" stroke="white" stroke-width="2" stroke-linecap="round"/>
<path d="M7 14C7 12.4045 5.65685 11.1111 4 11.1111C2.34315 11.1111 1 12.4045 1 14C1 15.5955 2.34315 16.8889 4 16.8889C5.65685 16.8889 7 15.5955 7 14Z" stroke="white" stroke-width="2"/>
<path d="M4 1.00005C5.6569 1.00005 7 2.29341 7 3.88894C7 5.48448 5.6569 6.77783 4 6.77783C2.3431 6.77783 1 5.48448 1 3.88894" stroke="white" stroke-width="2" stroke-linecap="round"/>
</svg>
