<svg width="30" height="30" viewBox="0 0 30 30" fill="none" xmlns="http://www.w3.org/2000/svg">
<circle cx="15" cy="15" r="15" fill="#143A62"/>
<path d="M16.9338 12.94H15.94V11.9485C15.94 11.3536 15.5425 10.957 14.9462 10.957C14.3499 10.957 13.9524 11.3536 13.9524 11.9485V12.94H12.9586C12.3624 12.94 11.9648 13.3366 11.9648 13.9315C11.9648 14.5264 12.3624 14.923 12.9586 14.923H13.9524V15.9144C13.9524 16.5093 14.3499 16.9059 14.9462 16.9059C15.5425 16.9059 15.94 16.5093 15.94 15.9144V14.923H16.9338C17.5301 14.923 17.9276 14.5264 17.9276 13.9315C17.9276 13.3366 17.5301 12.94 16.9338 12.94Z" fill="white"/>
<path d="M21.9068 6H20.913H8.98758H7.99379C7.39752 6 7 6.39659 7 6.99148C7 7.58637 7.39752 7.98296 7.99379 7.98296V21.9629C7.99379 22.6569 8.3913 23.3509 9.08696 23.7475C9.38509 23.9458 9.68323 23.9458 9.98137 23.9458C10.3789 23.9458 10.7764 23.8467 11.0745 23.6484L14.9503 21.0705L18.8261 23.6484C19.4224 24.045 20.2174 24.1441 20.913 23.7475C21.6087 23.4501 22.0062 22.756 22.0062 21.9629V7.98296C22.6025 7.98296 23 7.58637 23 6.99148C23 6.39659 22.5031 6 21.9068 6ZM19.9193 21.9629L16.0435 19.385C15.7453 19.1867 15.3478 19.0876 14.9503 19.0876C14.5528 19.0876 14.1553 19.1867 13.8571 19.385L9.98137 21.9629V7.98296H19.9193V21.9629Z" fill="white"/>
</svg>
