<svg width="23" height="23" viewBox="0 0 23 23" fill="none" xmlns="http://www.w3.org/2000/svg">
<path d="M15.2985 7.9384V19.8667C15.2985 21.3892 14.2066 22.0297 12.8732 21.2947L8.74701 18.9951C8.30604 18.7536 7.59208 18.7536 7.15111 18.9951L3.02493 21.2947C1.69153 22.0297 0.599609 21.3892 0.599609 19.8667V7.9384C0.599609 6.14287 2.06949 4.67285 3.86485 4.67285H12.0333C13.8286 4.67285 15.2985 6.14287 15.2985 7.9384Z" stroke="#143A62" stroke-width="1.2" stroke-linecap="round" stroke-linejoin="round"/>
<path d="M21.5993 3.86516V15.7934C21.5993 17.3159 20.5074 17.9564 19.174 17.2214L15.2998 15.0584V7.93924C15.2998 6.14371 13.8299 4.67369 12.0345 4.67369H6.90039V3.86516C6.90039 2.06963 8.37027 0.599609 10.1656 0.599609H18.334C20.1294 0.599609 21.5993 2.06963 21.5993 3.86516Z" stroke="#143A62" stroke-width="1.2" stroke-linecap="round" stroke-linejoin="round"/>
<path d="M5.84961 11.1006H10.0493" stroke="#143A62" stroke-width="1.2" stroke-linecap="round" stroke-linejoin="round"/>
<path d="M7.94922 13.2001V9" stroke="#143A62" stroke-width="1.2" stroke-linecap="round" stroke-linejoin="round"/>
</svg>
