<svg width="18" height="18" viewBox="0 0 18 18" fill="none" xmlns="http://www.w3.org/2000/svg">
<path d="M11.7992 6.19109V15.279C11.7992 16.439 10.9672 16.927 9.95123 16.367L6.80736 14.615C6.47138 14.431 5.92738 14.431 5.5914 14.615L2.44753 16.367C1.43158 16.927 0.599609 16.439 0.599609 15.279V6.19109C0.599609 4.8231 1.71956 3.70312 3.0875 3.70312H9.31125C10.6792 3.70312 11.7992 4.8231 11.7992 6.19109Z" stroke="white" stroke-width="1.2" stroke-linecap="round" stroke-linejoin="round"/>
<path d="M16.5999 3.08757V12.1755C16.5999 13.3355 15.768 13.8234 14.752 13.2635L11.8001 11.6155V6.19153C11.8001 4.82355 10.6802 3.70357 9.31223 3.70357H5.40039V3.08757C5.40039 1.71959 6.52034 0.599609 7.88829 0.599609H14.112C15.48 0.599609 16.5999 1.71959 16.5999 3.08757Z" stroke="white" stroke-width="1.2" stroke-linecap="round" stroke-linejoin="round"/>
<path d="M4.59961 8.59961H7.79948" stroke="white" stroke-width="1.2" stroke-linecap="round" stroke-linejoin="round"/>
<path d="M6.19922 10.2V7" stroke="white" stroke-width="1.2" stroke-linecap="round" stroke-linejoin="round"/>
</svg>
