<svg width="41" height="41" viewBox="0 0 41 41" fill="none" xmlns="http://www.w3.org/2000/svg">
<g filter="url(#filter0_d_1626_3460)">
<path d="M3.5 17.75C3.5 12.0931 3.5 9.26472 5.25736 7.50735C7.01473 5.75 9.84314 5.75 15.5 5.75H21.5C27.1568 5.75 29.9853 5.75 31.7426 7.50735C33.5 9.26472 33.5 12.0931 33.5 17.75V20.75C33.5 26.4068 33.5 29.2353 31.7426 30.9926C29.9853 32.75 27.1568 32.75 21.5 32.75H15.5C9.84314 32.75 7.01473 32.75 5.25736 30.9926C3.5 29.2353 3.5 26.4068 3.5 20.75V17.75Z" stroke="white" stroke-width="3"/>
<path d="M27.5 23.75H24.5M24.5 23.75H21.5M24.5 23.75V20.75M24.5 23.75V26.75" stroke="white" stroke-width="3" stroke-linecap="round"/>
<path d="M11 5.75V3.5" stroke="white" stroke-width="3" stroke-linecap="round"/>
<path d="M26 5.75V3.5" stroke="white" stroke-width="3" stroke-linecap="round"/>
<path d="M4.25 13.25H32.75" stroke="white" stroke-width="3" stroke-linecap="round"/>
</g>
<defs>
<filter id="filter0_d_1626_3460" x="0" y="0" width="41" height="40.25" filterUnits="userSpaceOnUse" color-interpolation-filters="sRGB">
<feFlood flood-opacity="0" result="BackgroundImageFix"/>
<feColorMatrix in="SourceAlpha" type="matrix" values="0 0 0 0 0 0 0 0 0 0 0 0 0 0 0 0 0 0 127 0" result="hardAlpha"/>
<feOffset dx="2" dy="2"/>
<feGaussianBlur stdDeviation="2"/>
<feComposite in2="hardAlpha" operator="out"/>
<feColorMatrix type="matrix" values="0 0 0 0 0 0 0 0 0 0 0 0 0 0 0 0 0 0 0.25 0"/>
<feBlend mode="normal" in2="BackgroundImageFix" result="effect1_dropShadow_1626_3460"/>
<feBlend mode="normal" in="SourceGraphic" in2="effect1_dropShadow_1626_3460" result="shape"/>
</filter>
</defs>
</svg>
