<svg width="241" height="240" viewBox="0 0 241 240" fill="none" xmlns="http://www.w3.org/2000/svg">
<g filter="url(#filter0_d_2710_3699)">
<g clip-path="url(#clip0_2710_3699)">
<rect x="10" y="10" width="221" height="220" rx="20" fill="white"/>
<path d="M115.957 47.16C113.973 47.16 112.437 46.9573 111.349 46.552C110.282 46.1467 109.535 45.5173 109.109 44.664C108.682 43.7893 108.437 42.6907 108.373 41.368L107.701 23.576H112.181L112.853 39.224C112.895 40.2053 113.002 40.9413 113.173 41.432C113.343 41.9227 113.663 42.2533 114.133 42.424C114.623 42.5947 115.338 42.68 116.277 42.68C117.087 42.68 117.663 42.8933 118.005 43.32C118.367 43.7253 118.549 44.2373 118.549 44.856C118.549 45.5173 118.325 46.072 117.877 46.52C117.429 46.9467 116.789 47.16 115.957 47.16ZM129.024 47.256C128.064 47.256 127.072 47.1387 126.048 46.904C125.045 46.6693 124.075 46.3173 123.136 45.848C122.197 45.3787 121.355 44.792 120.608 44.088C119.861 43.384 119.264 42.5733 118.816 41.656C118.389 40.7173 118.176 39.6613 118.176 38.488C118.176 37.528 118.379 36.6427 118.784 35.832C119.189 35.0213 119.787 34.3707 120.576 33.88C121.387 33.368 122.368 33.112 123.52 33.112C124.608 33.112 125.547 33.3787 126.336 33.912C127.147 34.424 127.776 35.096 128.224 35.928C128.672 36.7387 128.896 37.592 128.896 38.488C128.896 39.9173 128.544 41.176 127.84 42.264C127.136 43.3307 126.165 44.2267 124.928 44.952C123.712 45.6773 122.336 46.232 120.8 46.616C119.264 46.9787 117.664 47.16 116 47.16L116.32 42.68C117.536 42.68 118.592 42.648 119.488 42.584C120.405 42.52 121.195 42.3813 121.856 42.168C122.517 41.9547 123.093 41.6347 123.584 41.208C124.075 40.7813 124.448 40.312 124.704 39.8C124.981 39.2667 125.12 38.744 125.12 38.232C125.12 37.8907 125.067 37.5707 124.96 37.272C124.875 36.9733 124.725 36.728 124.512 36.536C124.32 36.3227 124.064 36.216 123.744 36.216C123.403 36.216 123.115 36.3227 122.88 36.536C122.667 36.728 122.496 36.984 122.368 37.304C122.261 37.624 122.208 37.9653 122.208 38.328C122.208 39.0747 122.4 39.7467 122.784 40.344C123.189 40.9413 123.723 41.4427 124.384 41.848C125.045 42.2533 125.771 42.5627 126.56 42.776C127.371 42.9893 128.192 43.096 129.024 43.096C129.685 43.096 130.155 42.9893 130.432 42.776C130.709 42.5627 130.848 42.2747 130.848 41.912C130.848 41.656 130.784 41.3893 130.656 41.112C130.549 40.8133 130.304 40.4507 129.92 40.024C129.536 39.5973 128.949 39.0747 128.16 38.456C127.371 37.816 126.315 37.0267 124.992 36.088C123.669 35.1493 122.005 34.008 120 32.664L122.464 29.176C124.725 30.776 126.613 32.1733 128.128 33.368C129.664 34.5627 130.901 35.608 131.84 36.504C132.779 37.4 133.493 38.1893 133.984 38.872C134.496 39.5333 134.837 40.1413 135.008 40.696C135.179 41.2507 135.264 41.8053 135.264 42.36C135.264 43.384 135.019 44.2587 134.528 44.984C134.037 45.7093 133.323 46.2747 132.384 46.68C131.467 47.064 130.347 47.256 129.024 47.256ZM144.738 46.104C144.738 45.6133 144.781 45.0373 144.866 44.376C144.952 43.7147 145.112 42.968 145.346 42.136C145.581 41.2827 145.933 40.3333 146.402 39.288L150.338 40.664C150.104 41.3253 149.901 41.9333 149.73 42.488C149.56 43.0213 149.432 43.5227 149.346 43.992C149.261 44.44 149.218 44.888 149.218 45.336C149.218 46.04 149.368 46.6693 149.666 47.224C149.986 47.8 150.445 48.28 151.042 48.664C151.64 49.0693 152.365 49.3787 153.218 49.592C154.093 49.8053 155.096 49.912 156.226 49.912C157.4 49.912 158.445 49.8587 159.362 49.752C160.301 49.6453 161.09 49.4853 161.73 49.272C162.392 49.0587 162.893 48.7813 163.234 48.44C163.576 48.12 163.746 47.7467 163.746 47.32C163.746 47.128 163.672 46.9467 163.522 46.776C163.394 46.6053 163.17 46.424 162.85 46.232C162.552 46.04 162.146 45.8373 161.634 45.624C161.144 45.4107 160.546 45.176 159.842 44.92L160.898 40.408C161.816 40.792 162.68 41.1333 163.49 41.432C164.322 41.7093 165.112 41.944 165.858 42.136C166.605 42.3067 167.309 42.4453 167.97 42.552C168.632 42.6373 169.25 42.68 169.826 42.68C170.637 42.68 171.213 42.8933 171.554 43.32C171.896 43.7253 172.066 44.2373 172.066 44.856C172.066 45.5173 171.842 46.072 171.394 46.52C170.946 46.9467 170.317 47.16 169.506 47.16C169.336 47.16 169.165 47.16 168.994 47.16C168.845 47.16 168.685 47.16 168.514 47.16C168.365 47.16 168.205 47.16 168.034 47.16C168.077 47.3733 168.098 47.5547 168.098 47.704C168.098 47.8747 168.098 48.0347 168.098 48.184C168.098 48.888 167.853 49.6027 167.362 50.328C166.893 51.0533 166.157 51.7253 165.154 52.344C164.152 52.9627 162.872 53.4533 161.314 53.816C159.778 54.2 157.944 54.392 155.81 54.392C153.506 54.392 151.522 54.0933 149.858 53.496C148.216 52.92 146.946 52.0133 146.05 50.776C145.176 49.56 144.738 48.0027 144.738 46.104ZM180.252 54.04C178.737 54.04 177.34 53.7093 176.06 53.048C174.78 52.408 173.756 51.3947 172.988 50.008C172.22 48.6427 171.836 46.8827 171.836 44.728C171.836 42.8293 172.06 41.0907 172.508 39.512C172.956 37.912 173.564 36.536 174.332 35.384C175.121 34.2107 176.007 33.304 176.988 32.664C177.969 32.024 179.004 31.704 180.092 31.704C180.903 31.704 181.671 31.9387 182.396 32.408C183.121 32.856 183.719 33.5173 184.188 34.392C184.657 35.2667 184.892 36.3333 184.892 37.592C184.892 38.2747 184.753 39.0427 184.476 39.896C184.199 40.7493 183.708 41.56 183.004 42.328C182.321 43.0747 181.361 43.672 180.124 44.12L180.892 41.592C181.575 41.848 182.311 42.0613 183.1 42.232C183.889 42.3813 184.711 42.4987 185.564 42.584C186.417 42.648 187.249 42.68 188.06 42.68C188.871 42.68 189.447 42.8933 189.788 43.32C190.151 43.7253 190.332 44.2373 190.332 44.856C190.332 45.5173 190.108 46.072 189.66 46.52C189.212 46.9467 188.572 47.16 187.74 47.16C187.143 47.16 186.46 47.128 185.692 47.064C184.945 47 184.209 46.9147 183.484 46.808C182.78 46.7013 182.183 46.584 181.692 46.456L185.18 45.656C185.671 46.2533 186.001 46.9147 186.172 47.64C186.364 48.3867 186.385 49.1333 186.236 49.88C186.108 50.6267 185.799 51.3093 185.308 51.928C184.839 52.568 184.177 53.08 183.324 53.464C182.492 53.848 181.468 54.04 180.252 54.04ZM169.5 47.16L169.82 42.68C170.183 42.68 170.663 42.68 171.26 42.68C171.879 42.68 172.423 42.68 172.892 42.68L173.244 46.744C172.625 46.872 171.953 46.968 171.228 47.032C170.524 47.1173 169.948 47.16 169.5 47.16ZM180.124 49.624C180.551 49.624 180.903 49.5493 181.18 49.4C181.457 49.272 181.66 49.08 181.788 48.824C181.937 48.5893 182.012 48.3227 182.012 48.024C182.012 47.768 181.927 47.48 181.756 47.16C181.585 46.84 181.265 46.5627 180.796 46.328C180.327 46.072 179.655 45.944 178.78 45.944C178.46 45.944 178.108 45.9653 177.724 46.008C177.361 46.0507 176.967 46.1147 176.54 46.2C176.113 46.264 175.676 46.3493 175.228 46.456L175.388 42.616C176.199 42.552 176.924 42.424 177.564 42.232C178.204 42.0187 178.737 41.7413 179.164 41.4C179.612 41.0373 179.953 40.6 180.188 40.088C180.423 39.576 180.54 38.9787 180.54 38.296C180.54 37.9547 180.508 37.624 180.444 37.304C180.38 36.9627 180.284 36.6853 180.156 36.472C180.028 36.2373 179.868 36.12 179.676 36.12C179.335 36.12 178.972 36.312 178.588 36.696C178.204 37.08 177.841 37.6347 177.5 38.36C177.159 39.064 176.871 39.9173 176.636 40.92C176.423 41.9013 176.316 43 176.316 44.216C176.316 45.24 176.423 46.104 176.636 46.808C176.849 47.4907 177.137 48.0347 177.5 48.44C177.863 48.8667 178.268 49.1653 178.716 49.336C179.185 49.528 179.655 49.624 180.124 49.624ZM187.877 28.28L186.309 25.656C187.355 25.0373 188.432 24.4187 189.541 23.8C190.651 23.16 191.888 22.4773 193.253 21.752C194.64 21.0053 196.261 20.1627 198.117 19.224L199.589 22.04C197.691 22.9573 196.048 23.7787 194.661 24.504C193.296 25.2293 192.069 25.9013 190.981 26.52C189.915 27.1173 188.88 27.704 187.877 28.28ZM187.781 47.16L188.101 42.68H192.677C193.125 42.68 193.52 42.6587 193.861 42.616C194.203 42.552 194.48 42.456 194.693 42.328C194.928 42.2 195.099 42.04 195.205 41.848C195.312 41.656 195.365 41.432 195.365 41.176C195.365 40.92 195.227 40.5147 194.949 39.96C194.693 39.384 194.128 38.6907 193.253 37.88C192.784 37.4533 192.272 37.0053 191.717 36.536C191.184 36.0453 190.672 35.5867 190.181 35.16C189.691 34.712 189.285 34.3173 188.965 33.976C188.645 33.6347 188.485 33.3893 188.485 33.24C188.485 32.92 188.507 32.568 188.549 32.184C188.592 31.8 188.656 31.448 188.741 31.128C188.848 30.808 188.987 30.5733 189.157 30.424C189.52 30.0827 190.053 29.688 190.757 29.24C191.483 28.7707 192.347 28.2693 193.349 27.736C194.352 27.1813 195.472 26.6053 196.709 26.008C197.968 25.3893 199.312 24.7707 200.741 24.152L202.565 28.056C201.392 28.568 200.283 29.0693 199.237 29.56C198.192 30.0293 197.211 30.4987 196.293 30.968C195.397 31.416 194.565 31.864 193.797 32.312C193.051 32.7387 192.389 33.1653 191.813 33.592L192.229 31.224C194.043 32.6107 195.483 33.8587 196.549 34.968C197.637 36.0773 198.448 37.0693 198.981 37.944C199.515 38.7973 199.867 39.5653 200.037 40.248C200.208 40.9093 200.293 41.496 200.293 42.008C200.293 42.52 200.165 43.0747 199.909 43.672C199.675 44.248 199.237 44.8027 198.597 45.336C197.979 45.8693 197.104 46.3067 195.973 46.648C194.843 46.9893 193.392 47.16 191.621 47.16H187.781ZM204.809 47L204.201 25.816H208.681L209.289 47H204.809ZM208.457 22.712C207.817 22.712 207.241 22.6053 206.729 22.392C206.217 22.1573 205.747 21.9333 205.321 21.72C204.894 21.5067 204.499 21.4 204.137 21.4C203.753 21.4 203.401 21.496 203.081 21.688C202.782 21.88 202.462 22.1467 202.12 22.488L200.616 21.08C201.192 20.3547 201.768 19.8107 202.345 19.448C202.942 19.0853 203.539 18.904 204.137 18.904C204.67 18.904 205.161 19.0107 205.609 19.224C206.057 19.4373 206.505 19.6507 206.953 19.864C207.422 20.0773 207.923 20.184 208.457 20.184C208.798 20.184 209.118 20.1307 209.417 20.024C209.715 19.896 210.078 19.704 210.505 19.448L211.625 21.208C210.857 21.8693 210.217 22.2853 209.705 22.456C209.214 22.6267 208.798 22.712 208.457 22.712Z" fill="#143A62"/>
<path d="M97.7668 85L25 238H181L116.208 85H97.7668Z" fill="#F2F2F2"/>
<path d="M106.761 129.154C99.5587 129.154 92.5184 127.019 86.5302 123.017C80.5419 119.016 75.8746 113.329 73.1185 106.675C70.3625 100.021 69.6413 92.6998 71.0464 85.6362C72.4514 78.5725 75.9195 72.0842 81.0121 66.9916C86.1047 61.899 92.5931 58.4309 99.6567 57.0259C106.72 55.6208 114.042 56.3419 120.696 59.098C127.35 61.8541 133.037 66.5214 137.038 72.5097C141.039 78.4979 143.175 85.5382 143.175 92.7402C143.175 97.5221 142.233 102.257 140.403 106.675C138.573 111.093 135.891 115.107 132.509 118.489C129.128 121.87 125.114 124.552 120.696 126.382C116.278 128.212 111.543 129.154 106.761 129.154ZM106.761 56.8996C99.672 56.8996 92.7426 59.0016 86.8486 62.9399C80.9546 66.8781 76.3608 72.4757 73.6482 79.0248C70.9355 85.5739 70.2258 92.7803 71.6088 99.7327C72.9918 106.685 76.4054 113.071 81.4179 118.084C86.4304 123.096 92.8167 126.509 99.7692 127.892C106.722 129.275 113.928 128.565 120.477 125.852C127.026 123.139 132.623 118.545 136.562 112.651C140.5 106.757 142.602 99.8278 142.601 92.7391C142.601 83.2336 138.825 74.1174 132.104 67.396C125.382 60.6746 116.266 56.8985 106.761 56.8985V56.8996Z" fill="#090814"/>
<path d="M113.322 106.639H100.199C99.8782 106.642 99.5595 106.581 99.2617 106.461C98.964 106.34 98.6931 106.162 98.4648 105.936C98.2365 105.71 98.0552 105.441 97.9315 105.144C97.8078 104.848 97.7441 104.53 97.7441 104.209C97.7441 103.887 97.8078 103.569 97.9315 103.273C98.0552 102.976 98.2365 102.707 98.4648 102.481C98.6931 102.255 98.964 102.077 99.2617 101.956C99.5595 101.836 99.8782 101.775 100.199 101.778H113.322C113.962 101.785 114.574 102.044 115.024 102.499C115.474 102.954 115.727 103.568 115.727 104.209C115.727 104.849 115.474 105.463 115.024 105.918C114.574 106.373 113.962 106.632 113.322 106.639H113.322Z" fill="#D6D6E3"/>
<path d="M113.501 140.257H100.378C99.7338 140.257 99.1157 140.001 98.66 139.545C98.2043 139.089 97.9482 138.471 97.9482 137.827C97.9482 137.182 98.2043 136.564 98.66 136.108C99.1157 135.653 99.7338 135.396 100.378 135.396H113.501C114.145 135.396 114.763 135.653 115.219 136.108C115.675 136.564 115.931 137.182 115.931 137.827C115.931 138.471 115.675 139.089 115.219 139.545C114.763 140.001 114.145 140.257 113.501 140.257Z" fill="#6C63FF"/>
<path d="M144.651 132.195H69.1214C67.7202 132.195 66.5856 131.329 66.583 130.262V113.108C66.5846 112.041 67.7202 111.176 69.1214 111.175H144.651C146.052 111.175 147.186 112.041 147.189 113.108V130.262C147.188 131.329 146.052 132.194 144.651 132.195Z" fill="#D6D6E3"/>
<path d="M137.311 130.891H70.8323C69.4312 130.891 68.2965 130.024 68.2939 128.957V114.413C68.2955 113.346 69.4312 112.481 70.8323 112.479H142.938C144.339 112.479 145.474 113.346 145.476 114.413V124.671C145.471 128.104 141.818 130.887 137.311 130.891Z" fill="white"/>
<path d="M114.381 119.676H84.0238C83.8502 119.676 83.6836 119.607 83.5609 119.485C83.4381 119.362 83.3691 119.195 83.3691 119.022C83.3691 118.848 83.4381 118.682 83.5609 118.559C83.6836 118.436 83.8502 118.367 84.0238 118.367H114.381C114.555 118.367 114.721 118.436 114.844 118.559C114.967 118.682 115.036 118.848 115.036 119.022C115.036 119.195 114.967 119.362 114.844 119.485C114.721 119.607 114.555 119.676 114.381 119.676Z" fill="#6C63FF"/>
<path d="M129.749 122.355H84.0238C83.8502 122.355 83.6836 122.286 83.5609 122.163C83.4381 122.041 83.3691 121.874 83.3691 121.701C83.3691 121.527 83.4381 121.36 83.5609 121.238C83.6836 121.115 83.8502 121.046 84.0238 121.046H129.749C129.922 121.046 130.089 121.115 130.212 121.238C130.334 121.36 130.403 121.527 130.403 121.701C130.403 121.874 130.334 122.041 130.212 122.163C130.089 122.286 129.922 122.355 129.749 122.355Z" fill="#E6E6E6"/>
<path d="M129.749 125.428H84.0238C83.8502 125.428 83.6836 125.359 83.5609 125.237C83.4381 125.114 83.3691 124.947 83.3691 124.774C83.3691 124.6 83.4381 124.434 83.5609 124.311C83.6836 124.188 83.8502 124.119 84.0238 124.119H129.749C129.922 124.119 130.089 124.188 130.212 124.311C130.334 124.434 130.403 124.6 130.403 124.774C130.403 124.947 130.334 125.114 130.212 125.237C130.089 125.359 129.922 125.428 129.749 125.428Z" fill="#E6E6E6"/>
<path d="M117.871 86.582C117.869 89.1491 116.977 91.636 115.347 93.6193C113.717 95.6025 111.45 96.9594 108.932 97.4588C106.414 97.9581 103.801 97.5692 101.537 96.3581C99.2736 95.147 97.5 93.1887 96.5183 90.8167C95.5367 88.4448 95.4076 85.8058 96.1532 83.3494C96.8988 80.893 98.4729 78.771 100.607 77.3448C102.742 75.9187 105.305 75.2766 107.859 75.5279C110.414 75.7793 112.803 76.9085 114.618 78.7232C115.65 79.7554 116.468 80.9806 117.026 82.3291C117.585 83.6775 117.872 85.1227 117.871 86.582Z" fill="#6C63FF"/>
<path d="M107.008 88.1919C109.155 88.1919 110.895 86.4515 110.895 84.3045C110.895 82.1575 109.155 80.417 107.008 80.417C104.861 80.417 103.12 82.1575 103.12 84.3045C103.12 86.4515 104.861 88.1919 107.008 88.1919Z" fill="white"/>
<path d="M111.174 89.5803H102.842C102.327 89.581 101.833 89.7859 101.468 90.1503C101.104 90.5147 100.899 91.0088 100.898 91.5241C101.017 93.1889 101.277 94.8406 101.676 96.4613C103.347 97.3221 105.209 97.7446 107.087 97.6892C108.966 97.6338 110.8 97.1023 112.417 96.1446C112.773 94.6255 113.007 93.0803 113.115 91.5238C113.115 91.0085 112.91 90.5144 112.545 90.15C112.181 89.7856 111.687 89.5806 111.172 89.5801L111.174 89.5803Z" fill="white"/>
<path d="M3.99831 227.661C3.99817 227.706 4.0069 227.751 4.02401 227.792C4.04111 227.834 4.06625 227.871 4.09797 227.903C4.12969 227.935 4.16736 227.96 4.20883 227.977C4.2503 227.994 4.29474 228.003 4.3396 228.003H209.431C209.476 228.004 209.522 227.996 209.564 227.98C209.607 227.963 209.645 227.938 209.678 227.906C209.711 227.874 209.737 227.836 209.754 227.794C209.772 227.752 209.781 227.707 209.781 227.662C209.781 227.616 209.772 227.571 209.754 227.529C209.737 227.487 209.711 227.449 209.678 227.417C209.645 227.385 209.607 227.36 209.564 227.344C209.522 227.327 209.476 227.319 209.431 227.32H4.33934C4.29448 227.32 4.25004 227.329 4.20857 227.346C4.1671 227.363 4.12942 227.388 4.09771 227.42C4.06599 227.452 4.04085 227.489 4.02375 227.531C4.00665 227.572 3.99791 227.617 3.99805 227.662L3.99831 227.661Z" fill="#F2F2F2"/>
<path d="M165.605 119.513C165.605 119.513 161.321 118.774 154.967 113.012C149.941 108.455 143.161 109.351 140.547 109.926C140.458 109.945 140.377 109.991 140.315 110.058C140.253 110.124 140.213 110.208 140.2 110.299C140.187 110.389 140.202 110.481 140.243 110.562C140.283 110.643 140.348 110.71 140.428 110.754C141.485 111.332 143.123 112.177 143.89 112.273C143.89 112.273 142.307 113.911 143.99 114.788C144.191 114.887 144.416 114.928 144.64 114.906C144.863 114.885 145.076 114.802 145.255 114.666C146.065 114.075 148.313 115.416 151.573 116.115C151.573 116.115 164.277 129.264 167.233 127.034L165.605 119.513Z" fill="#ED9DA0"/>
<path d="M187.479 101.636C187.479 101.636 188.661 106.659 187.479 110.205L192.798 110.943L197.526 108.579V105.477C197.526 105.477 195.31 100.749 195.901 95.2822L187.479 101.636Z" fill="#ED9DA0"/>
<path d="M200.792 213.63C200.792 213.63 204.647 221.164 204.042 226.187C203.437 231.209 209.066 226.778 208.475 223.823C208.349 227.4 210.128 211.297 210.96 207.526C211.051 207.119 210.986 206.692 210.78 206.33C210.573 205.967 210.239 205.694 209.843 205.564C208.067 204.98 205.093 204.263 203.599 205.359C201.393 206.981 200.792 213.63 200.792 213.63Z" fill="#090814"/>
<path d="M187.923 218.789C187.923 218.789 182.899 225.289 181.57 225.437C180.24 225.585 179.353 227.653 181.57 228.097C185.994 228.867 190.545 228.423 194.738 226.812C195.158 226.648 195.51 226.349 195.739 225.961C195.968 225.573 196.06 225.119 196 224.673L195.153 218.346L187.923 218.789Z" fill="#090814"/>
<path d="M179.65 152.419L174.832 150.438C175.494 156.065 175.474 161.752 174.775 167.374V187.608C174.775 187.608 174.681 189.391 178.382 191.983C182.262 194.68 186.001 197.574 189.586 200.654L202.991 214.891C202.991 214.891 207.246 208.971 206.507 205.13C206.507 205.13 198.707 199.12 197.525 194.54C196.847 191.919 193.411 189.722 190.597 188.341C188.828 187.482 187.406 186.044 186.568 184.266C185.73 182.487 185.525 180.475 185.988 178.564C186.152 177.9 186.406 177.262 186.743 176.666C189.107 172.529 192.504 163.222 192.504 163.222L186.004 150.831L179.65 152.419Z" fill="#090814"/>
<path d="M186.741 219.241C186.741 219.241 195.458 220.719 195.753 221.605C196.049 222.492 195.753 220.423 195.753 220.423C195.753 220.423 200.777 205.206 199.609 191.765C198.441 178.324 201.086 169.456 201.086 169.456C201.086 169.456 204.189 159.409 202.416 153.648C200.643 147.886 182.026 150.397 182.026 150.397C182.026 150.397 188.527 165.615 188.379 172.854C188.379 172.854 189.118 194.719 190.448 197.231C190.435 197.219 188.367 218.641 186.741 219.241Z" fill="#090814"/>
<path d="M187.765 105.478C187.765 105.478 188.652 110.937 197.516 108.58L191.619 153.49C191.619 153.49 174.481 154.081 174.629 152.012L178.162 124.831L187.765 105.478Z" fill="#6C63FF"/>
<path d="M187.998 105.33C186.863 106.285 185.478 106.893 184.008 107.083C182.713 107.191 181.46 107.588 180.34 108.246C179.012 109.04 177.532 110.194 177.083 111.599C176.179 114.356 167.951 120.333 165.367 119.368L167.055 127.186C167.055 127.186 176.179 125.797 177.47 122.764L175.277 152.279H177.215C177.215 152.279 178.248 144.283 179.023 142.63C179.798 140.976 181.348 131.877 181.477 129.672C181.606 127.466 183.544 114.784 185.223 112.591L188 106.181L187.998 105.33Z" fill="#6C63FF"/>
<path d="M189.105 103.857C193.511 103.857 197.083 100.285 197.083 95.8785C197.083 91.4723 193.511 87.9004 189.105 87.9004C184.699 87.9004 181.127 91.4723 181.127 95.8785C181.127 100.285 184.699 103.857 189.105 103.857Z" fill="#ED9DA0"/>
<path d="M181.086 89.0847C181.039 87.8427 181.493 86.3264 181.833 86.6266C182.071 85.3587 183.511 85.5466 183.929 85.8796C183.885 85.0992 186.357 83.8774 186.405 84.4528C186.407 84.5479 186.446 84.6383 186.514 84.7048C186.588 84.7523 186.675 84.7751 186.763 84.77C187.531 84.7997 188.3 84.7829 189.066 84.7199C190.008 84.6139 190.955 84.5634 191.903 84.5687C194.867 84.6932 197.847 86.7179 198.511 89.6082C198.648 90.3095 198.721 91.022 198.727 91.7367L198.872 95.385C198.957 96.4496 198.913 97.5205 198.743 98.5747C198.537 99.5478 198.12 100.464 197.521 101.257C196.921 102.05 196.153 102.701 195.273 103.164C194.204 101.614 194.109 99.6216 193.738 97.7749C193.679 97.3489 193.521 96.9428 193.275 96.5898C193.149 96.4151 192.971 96.2842 192.766 96.2152C192.562 96.1462 192.341 96.1424 192.134 96.2045C191.734 96.3647 191.562 96.9751 191.894 97.248C191.597 97.5979 191.043 97.3371 190.709 97.0258C189.773 96.1384 189.129 94.9878 188.862 93.7264C188.729 93.092 188.595 92.31 187.973 92.093C187.758 92.0341 187.534 92.0189 187.314 92.0485C186.016 92.1375 183.985 92.6741 182.728 92.2617C181.573 91.8834 181.086 90.1787 181.086 89.0847Z" fill="#090814"/>
<path d="M197.009 103.939L206.538 112.139C206.538 112.139 212.153 117.901 209.789 127.209C209.789 127.209 208.754 140.801 207.572 141.392C207.572 141.392 203.436 149.666 203.14 157.496L194.63 154.291L189.211 152.912L189.987 120.715C189.987 120.715 198.192 106.438 197.009 103.939Z" fill="#6C63FF"/>
<path d="M201.367 138.572C201.367 138.572 203.731 136.947 207.572 141.379L198.117 158.517L194.94 153.722C194.94 153.722 201.663 140.493 201.367 138.572Z" fill="#ED9DA0"/>
<path d="M34.9443 162.837C34.9443 162.837 35.2993 167.275 37.9619 167.986C38.9607 168.253 39.7098 167.745 40.2557 167.006C40.7654 166.298 41.0511 165.454 41.0759 164.582C41.1007 163.711 40.8635 162.851 40.3949 162.116L39.7372 161.063L34.9443 162.837Z" fill="#ED9DA0"/>
<path d="M22.377 107.94L22.5079 116.909L31.1186 116.938C31.1186 116.938 28.9334 109.917 29.912 108.448C30.8906 106.98 22.377 107.94 22.377 107.94Z" fill="#ED9DA0"/>
<path d="M40.4786 178.75L39.952 197.186L34.3327 218.783C34.3327 218.783 35.5618 222.47 34.6838 223.349C33.8059 224.228 29.7676 225.807 29.7676 225.807L33.1034 179.804L40.4786 178.75Z" fill="#090814"/>
<path d="M28.2799 223.257C28.2799 223.257 26.2767 227.665 29.082 228.065C31.8874 228.466 44.8441 229.534 44.0427 227.263C43.2414 224.992 33.4906 222.855 33.4906 222.855L28.2799 223.257Z" fill="#090814"/>
<path d="M20.8135 162.42C20.8135 162.42 22.9207 173.833 24.3255 175.765C25.7303 177.697 23.622 191.743 23.622 191.743C23.622 191.743 20.4613 211.935 21.8661 215.095C23.2708 218.256 22.9197 217.202 22.7438 218.958C22.5678 220.714 22.2172 222.119 22.7438 223.701C23.2703 225.283 23.2703 225.106 23.4463 225.983C23.6222 226.861 23.4463 231.602 23.4463 231.602C23.4463 231.602 30.9964 234.236 32.2257 230.373C32.2257 230.373 30.4698 227.915 30.9966 225.984C31.5457 224.04 31.8407 222.034 31.8743 220.015V216.327L39.952 186.125L41.8833 175.238C41.8833 175.238 41.3567 164.177 39.4252 163.123C37.4936 162.07 20.8135 162.42 20.8135 162.42Z" fill="#090814"/>
<path d="M26.5504 111.861C30.8115 111.861 34.2658 108.406 34.2658 104.145C34.2658 99.884 30.8115 96.4297 26.5504 96.4297C22.2893 96.4297 18.835 99.884 18.835 104.145C18.835 108.406 22.2893 111.861 26.5504 111.861Z" fill="#ED9DA0"/>
<path d="M35.2122 121.861C35.2122 121.861 29.0669 113.959 24.3256 117.295C19.5842 120.631 17.8291 128.533 17.8291 128.533L18.8827 150.657C18.8827 150.657 21.5166 153.818 19.9364 155.925C18.3562 158.032 17.4782 157.505 18.7073 159.086C19.9364 160.667 21.3411 161.895 20.8146 162.422C20.288 162.948 21.3411 163.3 21.3411 163.3L39.9536 163.826C39.9536 163.826 39.427 163.124 41.0072 161.017C42.5874 158.91 40.6561 156.1 41.0072 155.048C41.3583 153.995 41.7097 155.223 41.8849 152.765C42.0601 150.307 35.2122 121.861 35.2122 121.861Z" fill="#E6E6E6"/>
<path d="M17.2113 112.993C17.2113 112.993 17.0359 116.505 17.2113 117.031C17.3868 117.557 17.5624 118.085 17.2113 118.611C16.8602 119.138 17.0359 120.894 17.3868 121.069C17.7376 121.245 16.6845 122.825 17.0356 123.879C17.2512 124.5 17.5462 125.09 17.9133 125.635C18.0887 125.986 18.3716 126.616 18.3716 126.616C18.3716 126.616 23.5321 115.627 27.7464 118.261C30.091 119.771 32.6313 120.952 35.2964 121.773C35.2964 121.773 33.0163 109.482 17.2113 112.993Z" fill="#D6D6E3"/>
<path d="M24.8508 121.157C24.8508 121.157 19.2321 121.684 19.5832 129.059C19.9343 136.433 19.0566 148.023 19.0566 148.023C19.0566 148.023 28.714 162.771 30.2944 163.825C31.8749 164.88 32.0503 164.703 31.8746 165.581C31.6989 166.46 31.5235 167.162 32.2258 167.864C32.6404 168.282 33.1136 168.636 33.6305 168.918C33.6305 168.918 39.2493 166.986 38.7222 165.231C38.1951 163.475 35.7375 160.665 35.7375 160.665C35.7375 160.665 31.5232 153.817 31.3481 152.764C31.1729 151.71 31.1726 151.886 30.6456 151.359C30.1185 150.832 28.7143 148.725 28.7143 147.672V144.334L30.186 126.506C30.2528 125.78 30.1651 125.048 29.9287 124.358C29.6923 123.668 29.3127 123.036 28.8146 122.504C28.3139 121.973 27.6909 121.573 27 121.338C26.3091 121.103 25.5712 121.041 24.8508 121.157Z" fill="#E6E6E6"/>
<path opacity="0.1" d="M29.3705 136.368L29.2773 148.448L35.0012 157.036L30.3178 147.409L29.3705 136.368Z" fill="black"/>
<path d="M22.3295 110.007C24.421 109.939 24.6109 109.386 26.7024 109.318C27.3684 109.296 28.1543 109.205 28.4761 108.621C28.5699 108.403 28.6117 108.165 28.5983 107.928C28.5848 107.691 28.5164 107.46 28.3985 107.253C28.1599 106.843 27.9448 106.42 27.7542 105.985C27.6394 105.644 27.6093 105.281 27.6665 104.926C27.7237 104.571 27.8664 104.236 28.0824 103.948C28.2983 103.661 28.581 103.43 28.906 103.277C29.231 103.123 29.5885 103.051 29.9477 103.067C30.5842 103.094 31.1819 103.393 31.8166 103.448C32.687 103.523 34.6111 100.649 34.2111 99.8727C33.8209 99.1168 33.0358 98.5468 32.9124 97.7054C32.8317 97.155 32.5331 96.9107 32.5641 96.3552C32.6102 95.5316 31.0486 97.0859 31.4308 96.3552C32.3685 94.5626 23.5317 92.3399 22.0767 94.5856C21.5333 95.4247 20.5641 95.3676 19.7004 95.8716C19.1342 96.202 17.7049 97.3416 17.3799 98.0518C17.0812 98.7767 16.9401 99.5567 16.9659 100.34C16.9527 103.984 17.508 107.336 20.4471 109.49" fill="#090814"/>
</g>
</g>
<defs>
<filter id="filter0_d_2710_3699" x="0" y="0" width="241" height="240" filterUnits="userSpaceOnUse" color-interpolation-filters="sRGB">
<feFlood flood-opacity="0" result="BackgroundImageFix"/>
<feColorMatrix in="SourceAlpha" type="matrix" values="0 0 0 0 0 0 0 0 0 0 0 0 0 0 0 0 0 0 127 0" result="hardAlpha"/>
<feOffset/>
<feGaussianBlur stdDeviation="5"/>
<feComposite in2="hardAlpha" operator="out"/>
<feColorMatrix type="matrix" values="0 0 0 0 0 0 0 0 0 0 0 0 0 0 0 0 0 0 0.1 0"/>
<feBlend mode="normal" in2="BackgroundImageFix" result="effect1_dropShadow_2710_3699"/>
<feBlend mode="normal" in="SourceGraphic" in2="effect1_dropShadow_2710_3699" result="shape"/>
</filter>
<clipPath id="clip0_2710_3699">
<rect x="10" y="10" width="221" height="220" rx="20" fill="white"/>
</clipPath>
</defs>
</svg>
