<svg width="30" height="33" viewBox="0 0 30 33" fill="none" xmlns="http://www.w3.org/2000/svg">
<path d="M9.99805 21.2848C9.99805 21.016 10.1034 20.7582 10.2909 20.5682C10.4785 20.3781 10.7328 20.2713 10.9981 20.2713H14.9981C15.2634 20.2713 15.5177 20.3781 15.7053 20.5682C15.8928 20.7582 15.9982 21.016 15.9982 21.2848C15.9982 21.5536 15.8928 21.8114 15.7053 22.0015C15.5177 22.1915 15.2634 22.2983 14.9981 22.2983H10.9981C10.7328 22.2983 10.4785 22.1915 10.2909 22.0015C10.1034 21.8114 9.99805 21.5536 9.99805 21.2848ZM9.99805 17.2308C9.99805 16.962 10.1034 16.7042 10.2909 16.5142C10.4785 16.3241 10.7328 16.2173 10.9981 16.2173H20.9982C21.2635 16.2173 21.5178 16.3241 21.7054 16.5142C21.8929 16.7042 21.9983 16.962 21.9983 17.2308C21.9983 17.4996 21.8929 17.7574 21.7054 17.9475C21.5178 18.1375 21.2635 18.2443 20.9982 18.2443H10.9981C10.7328 18.2443 10.4785 18.1375 10.2909 17.9475C10.1034 17.7574 9.99805 17.4996 9.99805 17.2308ZM9.99805 13.1768C9.99805 12.9081 10.1034 12.6503 10.2909 12.4602C10.4785 12.2701 10.7328 12.1634 10.9981 12.1634H20.9982C21.2635 12.1634 21.5178 12.2701 21.7054 12.4602C21.8929 12.6503 21.9983 12.9081 21.9983 13.1768C21.9983 13.4456 21.8929 13.7034 21.7054 13.8935C21.5178 14.0836 21.2635 14.1903 20.9982 14.1903H10.9981C10.7328 14.1903 10.4785 14.0836 10.2909 13.8935C10.1034 13.7034 9.99805 13.4456 9.99805 13.1768ZM9.99805 9.12287C9.99805 8.85407 10.1034 8.59629 10.2909 8.40622C10.4785 8.21615 10.7328 8.10937 10.9981 8.10938H20.9982C21.2635 8.10937 21.5178 8.21615 21.7054 8.40622C21.8929 8.59629 21.9983 8.85407 21.9983 9.12287C21.9983 9.39167 21.8929 9.64945 21.7054 9.83952C21.5178 10.0296 21.2635 10.1364 20.9982 10.1364H10.9981C10.7328 10.1364 10.4785 10.0296 10.2909 9.83952C10.1034 9.64945 9.99805 9.39167 9.99805 9.12287Z" fill="white"/>
<path d="M6.00007 0H26.0004C27.0613 0 28.0787 0.427114 28.8289 1.18738C29.579 1.94765 30.0005 2.9788 30.0005 4.05398V28.3778C30.0005 29.453 29.579 30.4842 28.8289 31.2444C28.0787 32.0047 27.0613 32.4318 26.0004 32.4318H6.00007C4.93918 32.4318 3.92175 32.0047 3.17159 31.2444C2.42143 30.4842 2 29.453 2 28.3778V26.3509H4.00003V28.3778C4.00003 28.9154 4.21075 29.431 4.58583 29.8111C4.96091 30.1913 5.46963 30.4048 6.00007 30.4048H26.0004C26.5309 30.4048 27.0396 30.1913 27.4147 29.8111C27.7897 29.431 28.0005 28.9154 28.0005 28.3778V4.05398C28.0005 3.51639 27.7897 3.00081 27.4147 2.62068C27.0396 2.24055 26.5309 2.02699 26.0004 2.02699H6.00007C5.46963 2.02699 4.96091 2.24055 4.58583 2.62068C4.21075 3.00081 4.00003 3.51639 4.00003 4.05398V6.08097H2V4.05398C2 2.9788 2.42143 1.94765 3.17159 1.18738C3.92175 0.427114 4.93918 0 6.00007 0Z" fill="white"/>
<path d="M2.00003 10.1364V9.12287C2.00003 8.85407 2.10539 8.59629 2.29293 8.40622C2.48047 8.21615 2.73483 8.10937 3.00005 8.10938C3.26527 8.10937 3.51963 8.21615 3.70717 8.40622C3.89471 8.59629 4.00007 8.85407 4.00007 9.12287V10.1364H5.00009C5.26531 10.1364 5.51967 10.2431 5.70721 10.4332C5.89474 10.6233 6.0001 10.8811 6.0001 11.1499C6.0001 11.4187 5.89474 11.6764 5.70721 11.8665C5.51967 12.0566 5.26531 12.1634 5.00009 12.1634H1.00002C0.734796 12.1634 0.480438 12.0566 0.292898 11.8665C0.105359 11.6764 0 11.4187 0 11.1499C0 10.8811 0.105359 10.6233 0.292898 10.4332C0.480438 10.2431 0.734796 10.1364 1.00002 10.1364H2.00003ZM2.00003 16.2173V15.2038C2.00003 14.935 2.10539 14.6773 2.29293 14.4872C2.48047 14.2971 2.73483 14.1903 3.00005 14.1903C3.26527 14.1903 3.51963 14.2971 3.70717 14.4872C3.89471 14.6773 4.00007 14.935 4.00007 15.2038V16.2173H5.00009C5.26531 16.2173 5.51967 16.3241 5.70721 16.5142C5.89474 16.7042 6.0001 16.962 6.0001 17.2308C6.0001 17.4996 5.89474 17.7574 5.70721 17.9475C5.51967 18.1375 5.26531 18.2443 5.00009 18.2443H1.00002C0.734796 18.2443 0.480438 18.1375 0.292898 17.9475C0.105359 17.7574 0 17.4996 0 17.2308C0 16.962 0.105359 16.7042 0.292898 16.5142C0.480438 16.3241 0.734796 16.2173 1.00002 16.2173H2.00003ZM2.00003 22.2983V21.2848C2.00003 21.016 2.10539 20.7582 2.29293 20.5682C2.48047 20.3781 2.73483 20.2713 3.00005 20.2713C3.26527 20.2713 3.51963 20.3781 3.70717 20.5682C3.89471 20.7582 4.00007 21.016 4.00007 21.2848V22.2983H5.00009C5.26531 22.2983 5.51967 22.4051 5.70721 22.5951C5.89474 22.7852 6.0001 23.043 6.0001 23.3118C6.0001 23.5806 5.89474 23.8384 5.70721 24.0284C5.51967 24.2185 5.26531 24.3253 5.00009 24.3253H1.00002C0.734796 24.3253 0.480438 24.2185 0.292898 24.0284C0.105359 23.8384 0 23.5806 0 23.3118C0 23.043 0.105359 22.7852 0.292898 22.5951C0.480438 22.4051 0.734796 22.2983 1.00002 22.2983H2.00003Z" fill="white"/>
</svg>
