<svg width="60" height="60" viewBox="0 0 60 60" fill="none" xmlns="http://www.w3.org/2000/svg">
<path d="M30 4.50001C24.9566 4.50001 20.0264 5.99556 15.833 8.79753C11.6395 11.5995 8.37112 15.5821 6.44108 20.2416C4.51105 24.9011 4.00606 30.0283 4.98999 34.9748C5.97391 39.9213 8.40255 44.465 11.9688 48.0312C15.535 51.5975 20.0787 54.0261 25.0252 55.01C29.9717 55.994 35.0989 55.489 39.7584 53.5589C44.418 51.6289 48.4005 48.3605 51.2025 44.167C54.0045 39.9736 55.5 35.0434 55.5 30C55.5028 26.6505 54.8451 23.3334 53.5646 20.2383C52.284 17.1433 50.4058 14.3311 48.0374 11.9626C45.669 9.59418 42.8568 7.71597 39.7617 6.43546C36.6667 5.15494 33.3495 4.49725 30 4.50001ZM30 49.5C26.1433 49.5 22.3732 48.3564 19.1664 46.2137C15.9596 44.071 13.4603 41.0255 11.9844 37.4623C10.5085 33.8992 10.1223 29.9784 10.8747 26.1957C11.6271 22.4131 13.4843 18.9386 16.2114 16.2114C18.9386 13.4843 22.4131 11.6271 26.1958 10.8747C29.9784 10.1223 33.8992 10.5084 37.4623 11.9844C41.0255 13.4603 44.071 15.9596 46.2137 19.1664C48.3564 22.3731 49.5 26.1433 49.5 30C49.5052 32.5622 49.0043 35.1002 48.0261 37.4684C47.048 39.8366 45.6118 41.9883 43.8001 43.8001C41.9883 45.6118 39.8366 47.048 37.4684 48.0261C35.1002 49.0043 32.5622 49.5051 30 49.5ZM34.95 17.25C34.6791 16.9657 34.3533 16.7394 33.9923 16.5848C33.6313 16.4302 33.2427 16.3505 32.85 16.3505C32.4573 16.3505 32.0687 16.4302 31.7077 16.5848C31.3468 16.7394 31.0209 16.9657 30.75 17.25L22.2 25.8C21.6302 26.3566 21.1773 27.0216 20.8682 27.7557C20.559 28.4899 20.3998 29.2784 20.3998 30.075C20.3998 30.8716 20.559 31.6602 20.8682 32.3943C21.1773 33.1285 21.6302 33.7934 22.2 34.35L30.75 42.9C31.3089 43.4477 32.0613 43.7527 32.8438 43.7488C33.6263 43.7448 34.3756 43.4322 34.9289 42.8789C35.4822 42.3256 35.7948 41.5763 35.7988 40.7938C35.8027 40.0113 35.4977 39.2589 34.95 38.7L26.55 30L35.1 21.45C36.15 20.4 36.15 18.45 34.95 17.25Z" fill="#143A62"/>
</svg>
