<svg width="25" height="25" viewBox="0 0 25 25" fill="none" xmlns="http://www.w3.org/2000/svg">
<g filter="url(#filter0_d_2617_2047)">
<path d="M12.5 3C10.8189 3 9.17547 3.49852 7.77766 4.43251C6.37984 5.3665 5.29037 6.69402 4.64703 8.24719C4.00368 9.80036 3.83535 11.5094 4.16333 13.1583C4.4913 14.8071 5.30085 16.3217 6.4896 17.5104C7.67834 18.6992 9.1929 19.5087 10.8417 19.8367C12.4906 20.1646 14.1996 19.9963 15.7528 19.353C17.306 18.7096 18.6335 17.6202 19.5675 16.2223C20.5015 14.8245 21 13.1811 21 11.5C21.0009 10.3835 20.7817 9.27779 20.3548 8.2461C19.928 7.21442 19.3019 6.27702 18.5125 5.48754C17.723 4.69806 16.7856 4.07199 15.7539 3.64515C14.7222 3.21831 13.6165 2.99908 12.5 3ZM12.5 18C11.2144 18 9.95771 17.6188 8.8888 16.9046C7.81988 16.1903 6.98676 15.1752 6.49479 13.9874C6.00282 12.7997 5.8741 11.4928 6.1249 10.2319C6.3757 8.97104 6.99477 7.81285 7.90381 6.90381C8.81285 5.99477 9.97104 5.3757 11.2319 5.1249C12.4928 4.87409 13.7997 5.00282 14.9874 5.49479C16.1752 5.98675 17.1903 6.81988 17.9046 7.88879C18.6188 8.95771 19 10.2144 19 11.5C19.0017 12.3541 18.8348 13.2001 18.5087 13.9895C18.1827 14.7789 17.7039 15.4961 17.1 16.1C16.4961 16.7039 15.7789 17.1827 14.9895 17.5087C14.2001 17.8348 13.3541 18.0017 12.5 18ZM14.15 7.25C14.0597 7.15525 13.9511 7.07981 13.8308 7.02827C13.7104 6.97673 13.5809 6.95015 13.45 6.95015C13.3191 6.95015 13.1896 6.97673 13.0692 7.02827C12.9489 7.07981 12.8403 7.15525 12.75 7.25L9.9 10.1C9.71005 10.2855 9.55911 10.5072 9.45606 10.7519C9.35301 10.9966 9.29992 11.2595 9.29992 11.525C9.29992 11.7905 9.35301 12.0534 9.45606 12.2981C9.55911 12.5428 9.71005 12.7645 9.9 12.95L12.75 15.8C12.9363 15.9826 13.1871 16.0842 13.4479 16.0829C13.7088 16.0816 13.9585 15.9774 14.143 15.793C14.3274 15.6085 14.4316 15.3588 14.4329 15.0979C14.4342 14.8371 14.3326 14.5863 14.15 14.4L11.35 11.5L14.2 8.65C14.55 8.3 14.55 7.65 14.15 7.25Z" fill="#CE3030"/>
</g>
<defs>
<filter id="filter0_d_2617_2047" x="0" y="0" width="25" height="25" filterUnits="userSpaceOnUse" color-interpolation-filters="sRGB">
<feFlood flood-opacity="0" result="BackgroundImageFix"/>
<feColorMatrix in="SourceAlpha" type="matrix" values="0 0 0 0 0 0 0 0 0 0 0 0 0 0 0 0 0 0 127 0" result="hardAlpha"/>
<feOffset dy="1"/>
<feGaussianBlur stdDeviation="2"/>
<feComposite in2="hardAlpha" operator="out"/>
<feColorMatrix type="matrix" values="0 0 0 0 0 0 0 0 0 0 0 0 0 0 0 0 0 0 0.25 0"/>
<feBlend mode="normal" in2="BackgroundImageFix" result="effect1_dropShadow_2617_2047"/>
<feBlend mode="normal" in="SourceGraphic" in2="effect1_dropShadow_2617_2047" result="shape"/>
</filter>
</defs>
</svg>
