<svg width="38" height="38" viewBox="0 0 38 38" fill="none" xmlns="http://www.w3.org/2000/svg">
<g filter="url(#filter0_d_2842_3107)">
<path d="M19 3.00001C16.0333 3.00001 13.1332 3.87974 10.6665 5.52796C8.19971 7.17618 6.27713 9.51886 5.14181 12.2598C4.0065 15.0006 3.70945 18.0166 4.28823 20.9264C4.86701 23.8361 6.29562 26.5088 8.3934 28.6066C10.4912 30.7044 13.1639 32.133 16.0736 32.7118C18.9834 33.2906 21.9994 32.9935 24.7402 31.8582C27.4811 30.7229 29.8238 28.8003 31.472 26.3335C33.1203 23.8668 34 20.9667 34 18C34.0016 16.0297 33.6147 14.0784 32.8615 12.2578C32.1083 10.4372 31.0034 8.78298 29.6102 7.38978C28.217 5.99658 26.5628 4.89175 24.7422 4.1385C22.9216 3.38526 20.9703 2.99838 19 3.00001ZM19 29.4706C16.7313 29.4706 14.5136 28.7978 12.6273 27.5374C10.741 26.277 9.27074 24.4856 8.40256 22.3896C7.53438 20.2936 7.30723 17.9873 7.74982 15.7622C8.19242 13.5371 9.28488 11.4933 10.8891 9.88907C12.4933 8.28488 14.5371 7.19241 16.7622 6.74982C18.9873 6.30722 21.2936 6.53438 23.3896 7.40256C25.4856 8.27074 27.277 9.74096 28.5374 11.6273C29.7978 13.5136 30.4706 15.7313 30.4706 18C30.4736 19.5072 30.179 21.0001 29.6036 22.3932C29.0282 23.7862 28.1834 25.0519 27.1177 26.1177C26.0519 27.1834 24.7862 28.0282 23.3932 28.6036C22.0001 29.179 20.5072 29.4736 19 29.4706ZM21.9118 10.5C21.7524 10.3328 21.5607 10.1997 21.3484 10.1087C21.1361 10.0178 20.9075 9.97086 20.6765 9.97086C20.4455 9.97086 20.2169 10.0178 20.0045 10.1087C19.7922 10.1997 19.6005 10.3328 19.4412 10.5L14.4118 15.5294C14.0766 15.8568 13.8102 16.248 13.6283 16.6798C13.4465 17.1117 13.3528 17.5755 13.3528 18.0441C13.3528 18.5127 13.4465 18.9766 13.6283 19.4084C13.8102 19.8403 14.0766 20.2314 14.4118 20.5588L19.4412 25.5882C19.7699 25.9104 20.2125 26.0898 20.6728 26.0875C21.1331 26.0852 21.5739 25.9013 21.8993 25.5758C22.2248 25.2503 22.4087 24.8096 22.411 24.3493C22.4134 23.889 22.2339 23.4464 21.9118 23.1176L16.9706 18L22 12.9706C22.6176 12.3529 22.6176 11.2059 21.9118 10.5Z" fill="#143A62"/>
</g>
<defs>
<filter id="filter0_d_2842_3107" x="0" y="0" width="38" height="38" filterUnits="userSpaceOnUse" color-interpolation-filters="sRGB">
<feFlood flood-opacity="0" result="BackgroundImageFix"/>
<feColorMatrix in="SourceAlpha" type="matrix" values="0 0 0 0 0 0 0 0 0 0 0 0 0 0 0 0 0 0 127 0" result="hardAlpha"/>
<feOffset dy="1"/>
<feGaussianBlur stdDeviation="2"/>
<feComposite in2="hardAlpha" operator="out"/>
<feColorMatrix type="matrix" values="0 0 0 0 0 0 0 0 0 0 0 0 0 0 0 0 0 0 0.25 0"/>
<feBlend mode="normal" in2="BackgroundImageFix" result="effect1_dropShadow_2842_3107"/>
<feBlend mode="normal" in="SourceGraphic" in2="effect1_dropShadow_2842_3107" result="shape"/>
</filter>
</defs>
</svg>
