<svg width="54" height="48" viewBox="0 0 54 48" fill="none" xmlns="http://www.w3.org/2000/svg">
<path d="M34.6176 8.7253C32.1961 9.84536 31.9147 12.7603 31.3974 15.0481C31.261 15.8293 29.8371 17.4422 30.1952 17.2882C30.3174 17.2434 38.5511 13.9532 39.8102 13.4408C39.9694 13.3428 40.5406 13.2812 39.8102 13.0655C39.4334 12.8486 39.1109 12.551 38.8666 12.1947C37.4654 10.579 37.2977 7.82644 34.6176 8.7253ZM31.7555 14.0736C31.9459 11.8335 33.8047 7.15721 36.5872 9.55694C37.4398 10.4866 37.8946 12.9563 39.1679 13.3092C38.3976 13.5696 31.6447 16.1653 30.8148 16.5629C31.3084 15.8104 31.6294 14.9609 31.7555 14.0736ZM40.1228 16.7226C38.7984 17.2826 30.2094 20.7884 29.7831 20.99C29.6608 22.8661 29.7063 29.5641 29.9195 29.4353C30.613 29.1721 39.057 24.717 39.1252 24.5826C39.1167 24.2522 40.4184 16.5041 40.1228 16.7226ZM39.3071 17.2014C39.1934 17.8622 38.3039 24.5462 38.3039 24.5462C38.3039 24.5462 37.8093 24.801 37.0391 25.1818C37.1215 23.3365 37.4569 18.5231 37.4881 17.9518L39.3071 17.2014ZM37.4114 17.9826C37.2977 18.9627 36.9481 24.843 36.9481 25.235C36.3314 25.5487 35.5526 25.9407 34.717 26.3551C34.717 25.5459 34.754 19.6347 34.717 19.0747C35.6066 18.7023 36.5076 18.341 37.4114 17.9742V17.9826ZM34.6346 19.1027C34.6034 19.5955 34.5636 26.0471 34.5579 26.4223L32.486 27.45C32.4632 25.5683 32.3581 20.6232 32.3268 20.0379L34.6346 19.1027ZM29.8427 21.0348C30.4908 20.808 32.0824 20.1331 32.2415 20.0659C32.2188 21.102 32.3495 27.1083 32.3552 27.506C31.4656 27.9484 30.613 28.3628 29.9195 28.6932C29.8427 26.7555 29.8598 21.0404 29.8427 21.0348ZM51.861 29.4045C52.7363 29.6005 52.4862 30.4545 52.6312 30.7317C52.8898 30.5609 52.8813 29.4633 53.5208 29.4717C53.8561 29.1721 52.5857 29.6677 52.7989 27.9792C52.8443 27.7692 52.6226 27.6992 52.6681 28.0548C52.6761 28.371 52.5923 28.6828 52.4265 28.9536C52.1906 29.3681 51.6478 29.2029 51.861 29.4045ZM52.6766 28.7968C52.6792 28.9393 52.7289 29.0771 52.8182 29.1893C52.9074 29.3015 53.0313 29.3819 53.1712 29.4185C52.887 29.5333 52.7534 29.9981 52.7136 30.1325C52.706 29.9736 52.6574 29.8192 52.5723 29.684C52.4873 29.5488 52.3686 29.4371 52.2276 29.3597C52.3483 29.3165 52.4544 29.2409 52.5337 29.1414C52.6131 29.042 52.6626 28.9226 52.6766 28.7968ZM44.9659 15.9329C46.1596 16.1205 45.9009 16.9998 45.9919 17.179C46.296 17.2238 45.9606 16.0589 47.1799 15.9413C47.2936 15.9413 47.3334 15.9189 47.2879 15.8293C47.1884 15.7313 46.0374 15.9021 46.1738 14.5384C46.1738 14.4936 46.0999 14.4544 46.0544 14.5384C46.043 16.1877 44.622 15.6025 44.9659 15.9329ZM46.0828 15.2945C46.1434 15.4355 46.2337 15.5621 46.3479 15.666C46.4621 15.7698 46.5975 15.8484 46.7451 15.8965C46.5964 15.939 46.4596 16.0144 46.3448 16.1167C46.2301 16.2191 46.1405 16.3458 46.0828 16.4873C46.0334 16.3433 45.9495 16.2132 45.8381 16.1079C45.7268 16.0026 45.5914 15.9253 45.4434 15.8825C45.5895 15.8411 45.7236 15.7663 45.8347 15.6641C45.9459 15.5619 46.0309 15.4352 46.0828 15.2945ZM25.8637 1.56809C27.3701 1.47848 26.8244 2.96817 27.1569 2.62095C27.1569 2.50614 27.2052 1.54569 28.1261 1.50089C28.3535 1.10326 27.12 1.89851 27.0205 0C26.9523 0 26.9523 0.0224014 26.9437 0.226813C26.8301 1.7501 25.5056 1.26847 25.8637 1.56809ZM26.9665 0.781244C26.9967 0.951655 27.0772 1.1095 27.1981 1.23502C27.3189 1.36053 27.4746 1.44815 27.6458 1.48688C27.402 1.60456 27.2079 1.80274 27.0972 2.04692C27.0453 1.89719 26.9536 1.76392 26.8316 1.66099C26.7096 1.55806 26.5619 1.48924 26.4037 1.46168C26.5441 1.39942 26.6675 1.30531 26.7638 1.18704C26.8601 1.06877 26.9267 0.929714 26.958 0.781244H26.9665ZM8.69424 14.2976C9.66341 14.3816 9.56962 14.9052 9.79131 15.3421C10.0045 14.7624 10.1807 14.4096 10.8344 14.3424C10.9935 14.0204 9.7771 14.5524 9.851 13.0599C9.6691 12.8135 9.75436 13.27 9.7231 13.5108C9.71332 13.6103 9.68307 13.7068 9.63421 13.7944C9.58534 13.882 9.51889 13.9589 9.43888 14.0204C9.15183 14.2752 8.42139 14.0568 8.69424 14.2976ZM9.79984 13.7376C9.84985 13.8712 9.9309 13.9914 10.0365 14.0887C10.1421 14.1859 10.2694 14.2575 10.4081 14.2976C10.1408 14.4085 9.92566 14.6144 9.80552 14.8744C9.75867 14.7321 9.67956 14.6022 9.57418 14.4945C9.4688 14.3868 9.33992 14.3042 9.1973 14.2528C9.33159 14.2211 9.45628 14.1583 9.56106 14.0697C9.66583 13.9811 9.74768 13.8692 9.79984 13.7432V13.7376ZM53.9698 42.204C54.3279 40.4259 49.1069 40.3755 49.4707 42.1004C49.0387 44.1893 54.4502 44.2117 53.9698 42.204ZM49.6554 41.6132C50.2239 40.5323 54.4445 40.9159 53.7425 42.0556C52.9978 42.9348 49.2433 42.6576 49.6554 41.6244V41.6132ZM53.8277 42.6912C53.4526 44.0913 49.0387 43.8393 49.5645 41.994C50.3034 42.9852 53.3247 42.8564 53.8817 42.0696C53.8951 42.282 53.8769 42.4952 53.8277 42.7024V42.6912ZM35.8113 46.0262C35.1718 44.9062 32.4007 45.0518 31.6617 45.6202C31.2041 45.9002 31.2439 47.0203 31.5992 47.3927C32.6281 48.2327 34.6005 48.1039 35.4446 47.5943C35.996 47.2275 35.8596 46.6339 35.8113 46.0262ZM31.548 45.9506C32.1165 44.8726 36.3371 45.2534 35.6379 46.393C34.8762 47.2639 31.1246 46.9867 31.548 45.9506ZM35.7289 47.0315C35.3167 48.4316 30.9398 48.1795 31.4656 46.3342C32.2046 47.3227 35.2258 47.1967 35.7829 46.4014C35.7806 46.6131 35.7577 46.8241 35.7146 47.0315H35.7289Z" fill="white"/>
<path d="M50.2721 39.5016C50.8406 39.4176 51.0168 38.1351 50.94 37.7375C51.9007 37.519 53.5662 37.0486 53.0717 35.7493C52.975 35.2089 52.7221 34.8561 52.0826 34.8337C52.6766 34.7609 52.7675 34.1812 52.8215 33.6184C52.9892 31.9383 50.832 32.3135 49.8827 31.7003C50.8036 31.3559 50.3858 30.3506 50.1044 29.659C49.7833 29.1858 49.0528 29.099 48.5043 29.1494C48.1462 28.0461 47.6147 27.6485 46.4409 27.9117C46.5546 26.548 44.5906 26.254 43.5646 26.562C43.3993 26.3143 43.1727 26.1121 42.9062 25.9745C42.6397 25.8368 42.3421 25.7682 42.0412 25.7752C41.8963 24.9575 40.839 24.7531 40.3899 24.6943C40.4354 24.4143 41.6689 15.4314 41.7826 14.6585C42.3141 11.92 40.4724 11.6568 39.398 10.5255C38.4317 9.26543 37.633 7.67494 36.8571 7.51814C36.8173 7.50134 36.7349 7.45653 36.6042 7.39773C32.0141 5.1968 24.9286 3.08548 20.4181 2.27344C19.7727 2.37531 19.1347 2.51842 18.5082 2.70186C14.4723 4.27835 15.8593 7.48173 13.8641 8.75581C12.2213 9.77506 12.5538 10.9007 12.6306 12.1524C12.8977 15.2998 13.8783 22.3114 13.9408 22.625C12.8039 22.8406 12.73 23.7255 13.0882 24.5151C12.1133 24.2351 10.6439 24.5151 10.2773 25.5652C10.246 25.6464 10.2773 25.6828 10.1408 25.6688C9.14324 25.7304 7.62837 26.1728 8.03196 27.4021C6.69046 27.3797 4.35421 28.7377 5.45128 30.1238C4.39968 30.3114 3.21166 31.0255 3.74598 32.1735C2.89334 32.5096 1.85026 33.9432 2.43006 34.6461C0.625292 34.5509 -0.761681 35.5617 0.466131 37.183C-0.409254 38.1799 0.616766 39.7704 1.927 39.5604C2.31638 41.9825 4.94253 41.8481 6.27266 40.5292C7.32426 41.1593 9.15177 41.3973 9.92199 40.574C10.5075 41.2097 11.7467 41.3833 12.3947 40.7224C13.5969 41.3833 15.8053 41.0612 16.4391 40.0028C16.7887 41.106 18.8663 41.1228 19.6365 40.7756C18.8521 41.5625 19.4063 42.4417 20.2049 42.9654C21.0576 43.4246 22.2683 43.0718 23.0982 42.5901C23.1154 42.7349 23.1759 42.8713 23.2721 42.982C23.3683 43.0927 23.4958 43.1727 23.6383 43.2118C23.0698 43.5058 23.0158 43.8362 23.0698 44.511C22.9931 46.5664 28.5353 46.4375 27.7139 44.077C28.5893 45.2755 32.8298 44.9899 32.2273 43.0998C32.8398 43.4395 33.552 43.5621 34.2452 43.447C34.1997 44.3094 35.4787 44.4578 36.1409 44.3458C35.3508 46.6644 38.7386 46.768 40.0944 46.1071C40.6173 45.8271 40.5576 45.3511 40.5576 44.8023C40.6571 43.8502 38.966 43.7018 38.3635 43.6486C38.966 43.2874 38.5312 42.4473 38.4942 41.8117C39.0797 43.139 41.5098 42.9318 42.4164 42.1785C43.1838 43.5422 46.1595 43.1306 46.8615 42.0217C47.1656 41.6605 46.8217 40.3108 46.5404 40.0168C46.8195 39.815 47.0577 39.5633 47.2424 39.2747C47.6977 39.5343 48.2065 39.6895 48.731 39.7288C49.2555 39.7681 49.7823 39.6904 50.2721 39.5016ZM50.8406 37.7823C51.0168 38.9975 48.0695 38.6671 47.5834 38.3591C47.9785 36.9814 47.0576 35.9229 45.7417 35.9454C46.6995 35.2089 45.6423 34.6993 46.6398 34.6853C46.259 36.1778 47.4243 36.8078 48.7089 36.8526C48.8397 37.8803 50.0192 37.9167 50.8349 37.7599C50.8394 37.7664 50.8414 37.7744 50.8406 37.7823ZM45.2529 39.874C43.2833 40.1904 43.6243 37.9615 44.386 36.987C44.8891 36.3038 46.2903 35.4637 46.745 36.6118C47.1486 37.8719 46.5546 39.4792 45.2529 39.874ZM42.1634 40.9632C41.9332 41.8173 39.5885 41.8033 39.0371 41.5793C38.5198 41.4813 38.1844 41.0192 38.4686 40.5516C39.2673 39.3811 42.0157 39.0507 42.7319 40.0616C42.4136 40.2212 42.0782 40.574 42.1634 40.9632ZM38.2953 39.8432C38.507 39.9022 38.724 39.9406 38.9433 39.958C38.7396 40.0784 38.5588 40.2328 38.409 40.4144C38.4059 40.2143 38.3674 40.0163 38.2953 39.8292V39.8432ZM38.1901 42.5285C37.6416 43.041 36.8628 43.2258 36.0727 43.2958C34.9898 43.489 33.4693 42.8897 34.6175 41.9601C35.4787 41.2489 39.3156 40.8344 38.1901 42.5145V42.5285ZM36.1551 41.2909C33.4465 41.8761 34.734 42.5677 33.1112 42.3185C31.7327 42.2905 31.3149 41.4785 32.5172 40.8792C33.4068 40.3472 36.2688 40.1764 36.1551 41.2769V41.2909ZM27.4695 42.8085C27.4695 44.1442 27.8446 43.4582 26.7447 43.1222C27.5292 42.2009 26.776 41.3077 27.8276 40.9156C28.8536 41.1424 28.9645 41.008 29.7915 40.5432C30.0587 40.5936 30.4083 41.6297 30.0757 41.6829C29.2743 41.6241 27.3331 41.8845 27.4695 42.7945V42.8085ZM25.696 42.9346C26.3895 42.3941 26.8755 41.2405 26.2644 40.4284C27.3586 40.8652 27.2847 42.2289 26.6367 43.0914C26.3295 43.0044 26.0145 42.9472 25.696 42.9205V42.9346ZM23.7065 39.9636C24.3451 39.5449 24.8061 38.9104 25.0025 38.1799C25.0622 38.8099 25.7699 39.2131 26.4236 39.0507C26.8442 38.9807 26.9039 38.6447 27.316 38.8995C27.177 39.2304 27.1544 39.5977 27.2517 39.9427C27.3491 40.2878 27.5608 40.5908 27.8532 40.8036C27.5683 40.9044 27.33 41.1033 27.1824 41.3637C27.1597 40.8764 26.7874 40.546 26.3014 40.322C25.9811 40.0667 25.5778 39.9343 25.1661 39.9492C24.7544 39.9642 24.3621 40.1254 24.0617 40.4032C23.9494 40.2482 23.8259 40.1012 23.6923 39.9636H23.7065ZM21.356 40.1904C21.1485 39.9636 20.8586 39.7844 20.6 39.4988C22.3365 40.1904 24.508 38.5607 24.4909 36.7238C25.9774 38.4739 23.229 40.9408 21.3418 40.1764L21.356 40.1904ZM17.2349 30.9639C18.3717 30.5522 18.8435 30.0174 18.4314 28.8413C18.7106 29.0642 19.0614 29.1814 19.4205 29.1718C19.8553 29.2838 19.3608 29.7626 19.2301 30.0482C18.9459 30.6418 19.2528 31.0087 19.5882 31.5099C18.6076 32.1567 17.3855 31.7115 17.2207 30.9499L17.2349 30.9639ZM13.9721 34.1813C13.5514 35.5477 9.51841 34.7973 10.0954 33.26C10.7974 34.3801 13.3837 34.5509 14.0744 33.6716C14.063 33.778 14.0175 33.9796 13.9721 34.1813ZM18.4939 34.6629C18.6844 36.1694 16.7261 37.2642 15.3676 36.6734C15.3676 36.5306 15.0834 36.4774 15.0038 36.2758C16.4249 36.987 18.6275 35.2313 18.0563 33.9264C18.1898 34.1 18.3177 34.4221 18.4939 34.6629ZM15.6092 39.5828C14.7565 40.1428 11.8547 40.28 12.0451 39.1543C12.335 37.7907 17.9284 38.0203 15.6092 39.5828ZM11.9826 39.8628C12.244 40.4228 11.0162 40.3136 10.6752 40.1988C9.92199 39.8992 10.0414 40.0056 10.0186 39.2019C9.77704 38.5635 8.90734 38.7007 9.37914 37.8747C10.1948 37.1102 11.6529 38.0707 12.082 38.7903C11.8234 39.0815 11.9143 39.4624 11.9826 39.8684V39.8628ZM9.21145 39.9888C8.24228 40.2996 5.3518 39.5464 5.96855 38.5243C6.68478 37.3706 11.8859 39.1627 9.21145 39.9944V39.9888ZM5.77813 38.5719C5.65023 38.9247 5.70423 39.4119 5.58202 39.8096C4.66684 40.4928 2.26238 40.9296 2.03216 39.6976C1.90426 38.3983 6.14476 37.295 5.77813 38.5775V38.5719ZM5.30633 36.6034C5.24664 36.2058 5.45128 35.5253 5.02211 35.1865C5.17712 35.1063 5.32454 35.0126 5.46265 34.9065C5.53086 35.9034 6.09361 36.5642 7.0912 36.5866C7.06601 36.8451 6.96325 37.0904 6.79602 37.2912C6.62879 37.4919 6.40467 37.6391 6.15223 37.7139C5.89979 37.7887 5.63045 37.7877 5.37857 37.7111C5.12668 37.6345 4.90365 37.4858 4.7379 37.2838C5.00222 37.1382 5.30064 36.9114 5.30633 36.6034ZM3.41061 35.2761C3.20501 35.1529 3.00668 35.0183 2.8166 34.8729C4.01315 35.0437 5.44275 34.3689 5.90034 33.2068C6.32666 33.246 6.55404 32.8988 6.81267 33.4168C6.27266 33.666 5.46549 34.0692 5.45128 34.7833C4.89706 35.1361 4.05862 35.5785 3.41061 35.2761ZM4.07283 32.6076C3.92915 32.3845 3.81906 32.1421 3.74598 31.8879C4.72084 32.9604 7.32426 32.2687 7.92396 31.3279C8.43555 31.7927 8.39007 31.6807 8.0007 32.1679C7.04289 33.2432 4.99369 33.4252 4.05862 32.6076H4.07283ZM12.0764 30.163C11.542 30.7231 10.5984 30.9863 9.80262 31.0395C7.16794 31.1599 7.07699 29.5778 9.34504 28.917C10.3028 28.5053 13.523 28.7965 12.0764 30.163ZM7.85006 30.7231C9.21998 31.6611 11.8689 31.0227 12.5311 29.7262C13.4463 32.0895 7.67385 32.5852 7.85006 30.7231ZM15.5239 27.8865C15.0123 27.4973 15.9502 27.3265 16.1776 27.0464C16.4902 27.7213 17.3969 27.8865 18.096 27.7745C18.0248 27.9633 18.0248 28.1709 18.096 28.3597C17.3827 27.8221 16.4078 27.8529 15.5324 27.8809L15.5239 27.8865ZM14.0147 27.2789C13.9262 27.1728 13.8239 27.0787 13.7106 26.9988C15.8365 27.4721 15.8649 26.0916 16.5528 26.3688C16.4474 26.5922 16.2983 26.7929 16.1139 26.9594C15.9296 27.1258 15.7138 27.2548 15.4787 27.3388C15.2437 27.4228 14.9941 27.4603 14.7443 27.4491C14.4946 27.4378 14.2495 27.3781 14.0232 27.2733L14.0147 27.2789ZM12.1048 27.4973C11.1526 27.4441 10.3313 27.3321 10.3455 26.1924C10.7889 26.898 11.7666 26.9204 12.5453 26.8364C13.2246 26.7636 13.0342 26.5284 13.6282 27.0548C13.1739 27.3357 12.6495 27.4869 12.1133 27.4917L12.1048 27.4973ZM12.9944 23.8739C14.2591 24.9939 15.4102 23.6331 15.882 24.3163C15.143 25.0527 12.9574 25.2627 13.0029 23.8683L12.9944 23.8739ZM13.6424 24.9183C14.1924 25.0235 14.7605 24.9897 15.2937 24.8203C14.8986 25.428 15.5296 26.0216 16.1008 26.254C14.7565 27.7241 11.8319 26.8252 13.6424 24.9183ZM19.6649 26.7272C20.0145 26.968 20.3726 27.2005 20.7222 27.4329C20.0685 27.6653 19.3011 28.2505 19.4574 29.0458C18.7583 29.0962 17.9511 28.5557 18.187 27.7605C18.4897 27.6932 18.7759 27.5672 19.0287 27.3898C19.2814 27.2124 19.4958 26.9872 19.6592 26.7272H19.6649ZM28.1374 32.3751C28.6149 32.4424 29.3624 31.8347 29.8711 31.6695C30.3514 33.7164 27.5974 34.4893 26.9636 32.6216C27.2116 32.4574 27.4084 32.2287 27.532 31.9607C27.7281 32.1035 27.9328 32.2407 28.1374 32.3751ZM38.7557 26.548C39.7078 26.8532 40.9811 27.0408 41.8394 26.3744C41.6803 28.0321 39.1991 27.3853 38.2697 26.8756C38.4402 26.772 38.5994 26.66 38.7585 26.548H38.7557ZM43.3998 27.8753C43.2179 28.9954 41.0038 28.7517 40.3644 28.2561C40.4155 28.0993 40.4923 27.8585 40.569 27.6261C41.4529 27.9929 42.783 28.1077 43.4623 27.3937C43.4566 27.5141 43.4339 27.6933 43.4026 27.8753H43.3998ZM44.6503 29.4574C46.8303 29.8298 46.1652 30.8575 44.4286 30.9947C43.6129 31.1375 40.6742 30.6194 42.2743 29.6674C43.0288 29.3676 43.8566 29.2945 44.6532 29.4574H44.6503ZM46.3556 31.0171C46.3821 31.3316 46.4568 31.6403 46.5773 31.9327C46.2192 32.1735 46.2647 32.644 46.2789 33.0864C45.5882 33.036 44.963 32.5628 44.5139 32.0531C44.5139 32.2407 44.8265 32.4872 44.9942 32.6524C44.872 32.8008 43.9199 33.1844 43.8574 32.826C43.8176 32.5628 43.8574 32.3583 43.8034 32.0587C44.6248 32.0811 46.1169 32.0083 46.1624 31.0031C46.2242 31.0141 46.2871 31.0188 46.3499 31.0171H46.3556ZM50.6729 32.6972C50.7553 33.7696 50.1556 34.03 49.212 34.1448C48.0467 34.2485 46.1425 34.1896 46.3698 32.63C47.0889 33.6268 50.1101 33.4924 50.6672 32.7056L50.6729 32.6972ZM50.6274 34.9373C49.9794 35.0269 49.3797 35.4609 48.8084 35.7773C47.8478 35.8893 46.0203 34.9373 47.1315 34.0272C47.4139 34.13 47.7078 34.1986 48.0069 34.2317C48.9875 34.4585 50.2124 33.736 50.6217 34.9401L50.6274 34.9373ZM48.6862 36.7294C47.4527 36.6846 46.4125 36.1134 46.6967 34.7945C46.9411 35.5897 47.9927 35.8977 48.7771 35.9145C48.5412 36.2198 48.6009 36.3822 48.6805 36.7322L48.6862 36.7294ZM46.0743 35.0269C46.1425 36.4522 41.9617 37.6898 41.811 35.7997C42.8598 36.4746 45.6394 35.3489 45.8895 34.3997C45.9755 34.6015 46.0357 34.8132 46.0686 35.0297L46.0743 35.0269ZM43.6755 38.4403C43.6158 38.5383 43.7522 38.8743 43.6158 38.9583C43.448 38.978 43.2782 38.946 43.1296 38.8668C42.981 38.7876 42.861 38.665 42.7859 38.5159C43.1198 38.3588 43.4011 38.1107 43.5965 37.8011C43.7919 37.4914 43.8933 37.1332 43.8886 36.7686C44.131 36.7111 44.37 36.641 44.6049 36.5586C44.0764 37.0578 43.745 37.7256 43.6698 38.4431L43.6755 38.4403ZM42.7006 38.4403C41.7343 38.8239 41.0181 38.4851 40.3729 37.7207C40.5922 37.9118 40.8565 38.046 41.1418 38.111C41.4271 38.1761 41.7243 38.17 42.0066 38.0932C42.2889 38.0165 42.5472 37.8715 42.7582 37.6715C42.9693 37.4715 43.1263 37.2227 43.215 36.9478C43.2605 36.7518 43.5874 36.8722 43.7835 36.791C43.7838 37.1406 43.6811 37.4828 43.4879 37.7761C43.2947 38.0694 43.0192 38.3011 42.6949 38.4431L42.7006 38.4403ZM36.1835 38.8211C35.2627 39.6836 34.1656 39.6864 33.0998 39.1011C34.2196 39.3419 35.3735 38.5075 36.0016 37.6086C36.2859 36.9646 36.3683 37.3286 36.968 37.3594C36.8669 37.9171 36.5905 38.4294 36.1779 38.8239L36.1835 38.8211ZM31.7071 41.5989C31.7071 41.5989 31.6929 41.5989 31.7071 41.6437C31.3945 41.3805 31.3405 40.938 31.3405 40.4788C31.8462 40.6574 32.3922 40.6943 32.9179 40.5852C32.4546 40.7392 31.764 40.994 31.7015 41.6017L31.7071 41.5989ZM30.755 41.2377C31.0193 42.0609 31.5366 41.8201 30.3003 41.6801C30.36 41.4001 30.2321 40.5264 29.7972 40.4564C30.738 39.5996 29.9677 39.7116 30.8261 40.2408C30.68 40.5543 30.6527 40.9089 30.7493 41.2405L30.755 41.2377ZM27.4979 40.3304C27.3669 40.1187 27.2859 39.8807 27.2608 39.634C27.2357 39.3873 27.2672 39.1382 27.353 38.9051C28.4557 39.2187 29.783 39.0843 30.7095 38.3451C30.7891 39.8376 28.6461 41.9965 27.4922 40.3332L27.4979 40.3304ZM25.0536 37.8775C25.0309 37.113 24.7694 36.8638 25.2299 36.1526C25.6185 36.1679 26.0062 36.1045 26.3689 35.9663C26.7317 35.828 27.0617 35.6179 27.3387 35.3489C28.2909 37.0066 25.9177 35.8753 26.5458 37.9531C26.631 38.2079 26.56 38.5383 26.8812 38.6951C26.1223 39.2831 24.9343 38.8435 25.048 37.8803L25.0536 37.8775ZM24.8547 35.9426C24.6144 35.8109 24.4044 35.6317 24.2379 35.4161C25.4572 36.0854 27.5064 34.7581 27.3075 33.5036C28.6177 34.9037 26.2104 36.4522 24.8405 35.9958C24.8575 35.9818 24.8661 35.9594 24.849 35.9454L24.8547 35.9426ZM20.5119 34.9233C20.4327 34.7146 20.3663 34.5014 20.3129 34.2849C21.1656 35.1473 24.1584 34.6909 24.4625 33.8116C25.048 35.6233 21.0974 35.8389 20.5119 34.9233ZM21.3645 33.0024C22.2996 32.56 25.5425 32.77 24.0362 34.1504C21.1286 35.4357 18.8208 33.8032 21.3645 33.0052V33.0024ZM22.6662 31.7955C22.9498 31.9108 23.255 31.9657 23.5616 31.9565C23.8683 31.9473 24.1695 31.8743 24.4454 31.7423C24.4713 31.9204 24.5404 32.0897 24.6467 32.2359C24.7531 32.3821 24.8937 32.501 25.0565 32.5824C24.9013 32.6041 24.7533 32.6606 24.6237 32.7475C24.4941 32.8344 24.3865 32.9493 24.309 33.0836C23.7406 32.6412 22.8623 32.6272 22.1404 32.7084C22.2949 32.6085 22.4231 32.4739 22.5145 32.3157C22.6059 32.1575 22.6579 31.9802 22.6662 31.7983V31.7955ZM26.9124 32.658C26.9693 32.8721 27.0732 33.0714 27.2169 33.2417C27.3605 33.4119 27.5403 33.549 27.7436 33.6433C27.9469 33.7376 28.1688 33.7867 28.3935 33.7873C28.6182 33.7878 28.8403 33.7397 29.044 33.6464C29.6324 33.2712 29.5329 33.302 29.9962 33.6912C31.4826 35.2901 29.0753 35.9314 27.9725 35.0717C27.4382 34.8701 27.8816 34.5621 27.8191 34.1504C27.5064 33.6632 27.1426 32.8596 26.3667 32.868C26.5591 32.8295 26.7436 32.7595 26.9124 32.6608V32.658ZM29.9194 32.7392C30.5589 33.4896 30.8488 32.672 31.2069 33.834C31.3342 34.1238 31.5497 34.3674 31.8237 34.5313C32.2273 35.6513 30.2491 35.6793 30.3003 35.1781C30.9113 34.5257 30.2264 33.6464 29.5784 33.2796C29.7264 33.1239 29.8422 32.9413 29.9194 32.742V32.7392ZM31.9317 31.8991C32.2898 32.2155 32.9747 32.0419 33.2476 32.2295C33.8956 33.3328 36.1182 33.19 36.9424 32.8904C36.9311 33.0089 36.9572 33.1279 37.0173 33.2312C37.0773 33.3344 37.1683 33.4169 37.2778 33.4672C37.1537 33.5168 37.0477 33.6021 36.9737 33.7121C36.8996 33.822 36.861 33.9513 36.8628 34.0832C36.7804 34.044 36.6809 34.1561 36.6724 33.932C36.05 32.798 33.0344 32.9184 32.4092 33.652C32.3097 33.8256 32.2557 33.8396 32.0283 33.8032C30.0502 33.6268 31.5963 31.5183 31.9317 31.8935V31.8991ZM34.2765 30.5438C34.8449 30.2274 38.4402 30.5046 37.3346 31.6219C35.7061 32.7196 31.4371 31.4371 34.2765 30.5382V30.5438ZM36.1864 28.7433C35.618 28.9982 35.4787 29.7262 35.618 30.3114C35.3551 30.2881 35.0907 30.2881 34.8278 30.3114C34.7767 29.323 35.3821 28.7993 36.1864 28.7377V28.7433ZM37.5165 29.127C37.5165 29.0206 37.5165 28.7209 37.8292 28.8946C38.295 29.0455 38.7878 29.0989 39.2758 29.0514C39.0257 29.4714 39.4435 30.0202 39.7618 30.3282C37.8007 30.9415 38.2128 29.7878 37.5165 29.127ZM46.0743 30.4906C46.1652 31.5351 45.5627 31.8347 44.6134 31.9383C43.4254 32.0531 41.5439 31.9551 41.7712 30.4234C42.4988 31.4063 45.52 31.2831 46.0686 30.4906H46.0743ZM45.0539 32.7056C45.2364 32.8469 45.4396 32.9601 45.6565 33.0416C45.3951 33.2706 45.0854 33.4396 44.7497 33.5364C44.414 33.6333 44.0607 33.6555 43.7153 33.6016C43.8309 33.4146 43.8789 33.1945 43.8517 32.9772C44.0581 33.0358 44.2763 33.0416 44.4857 32.994C44.695 32.9465 44.8886 32.8472 45.0482 32.7056H45.0539ZM45.2074 33.8536C47.4811 34.5649 42.5272 36.5614 41.8707 35.6821C41.271 34.5117 44.585 33.694 45.1903 33.8536H45.2074ZM41.8195 36.0266C41.9474 36.6118 42.4875 36.9198 43.1269 36.8666C43.0438 37.1546 42.8829 37.415 42.6614 37.62C42.4399 37.8251 42.1661 37.967 41.8692 38.0308C41.5722 38.0946 41.2633 38.0779 40.9753 37.9823C40.6872 37.8867 40.4309 37.716 40.2336 37.4882C40.8447 37.2558 40.8021 36.4774 40.8958 35.8977C41.1778 36.0346 41.5023 36.0596 41.8025 35.9678C41.8045 35.9877 41.8083 36.0073 41.8139 36.0266H41.8195ZM40.3985 36.3206C40.1476 36.5225 39.8517 36.6631 39.535 36.7308C39.2183 36.7984 38.8899 36.7912 38.5766 36.7098C39.5288 34.9485 38.1048 34.5061 36.9708 33.9936C36.9742 33.9177 36.9949 33.8434 37.0312 33.7763C37.0675 33.7092 37.1186 33.651 37.1807 33.6059C37.2429 33.5608 37.3145 33.5299 37.3903 33.5156C37.4661 33.5013 37.5442 33.5039 37.6188 33.5232C37.5961 34.7749 39.8499 34.8281 40.6344 34.7217C40.7895 34.9749 40.85 35.2735 40.8054 35.566C40.7608 35.8584 40.6138 36.1263 40.3899 36.3234L40.3985 36.3206ZM33.2533 39.2523C34.0207 40.3724 30.9795 39.8992 30.6641 39.1935C30.7658 38.9097 30.8121 38.6095 30.8005 38.3087C31.7185 38.3003 32.4944 38.7063 33.2533 39.2523ZM30.9994 37.8523C30.431 36.7126 32.4603 35.1613 33.2362 36.091C32.6507 36.7434 32.0425 37.7711 32.4831 38.6335C30.8119 37.8803 30.6527 38.6615 31.0023 37.8495L30.9994 37.8523ZM30.1468 37.5722C29.1947 38.1323 26.8897 38.1967 26.5913 37.4014C26.2587 35.7269 32.5626 35.8921 30.1411 37.5638L30.1468 37.5722ZM30.7778 36.8386C30.5163 35.7857 28.2198 36.1722 27.6201 36.2982C27.6632 36.0809 27.6496 35.8564 27.5803 35.6457C28.1743 36.1106 29.189 36.3346 29.8541 35.8557C30.2292 36.1358 31.0193 36.2898 31.3632 35.7969C31.4058 35.8619 31.4644 35.9152 31.5334 35.9519C31.6025 35.9886 31.6798 36.0075 31.7583 36.007C31.344 36.2557 31.0213 36.6286 30.8374 37.071C30.8119 37.0038 30.8062 36.9562 30.7721 36.8302L30.7778 36.8386ZM27.569 35.0437C27.5917 35.0073 27.6144 34.9625 27.6372 34.9177C28.2681 35.5029 29.3965 35.8165 30.1951 35.2761C29.6551 36.651 26.8527 35.7633 27.569 35.0437ZM32.2358 34.7441C32.2358 35.3685 32.9975 35.6681 33.5688 35.7801C33.4534 35.8741 33.3434 35.9741 33.2391 36.0798C33.1339 35.4721 32.2358 35.6961 31.818 35.9538C30.8289 35.7941 32.25 35.1865 31.9317 34.5537C32.0226 34.6433 32.2727 34.5201 32.2358 34.7441ZM31.4059 35.6233C31.0847 36.0882 30.4168 36.133 29.8967 35.8025C30.0206 35.6545 30.1282 35.494 30.2179 35.3237C30.4082 35.4601 30.6318 35.5443 30.8659 35.5679C31.1001 35.5915 31.3364 35.5536 31.5508 35.4581C31.5064 35.5164 31.458 35.5716 31.4059 35.6233ZM32.827 38.8491C31.8606 37.9699 32.8866 36.4914 33.6398 35.8109C33.8757 35.8333 34.2423 35.8922 34.555 35.8922C34.7454 36.553 35.4844 36.9198 36.1153 37.1606C35.6009 38.2835 33.9013 39.4848 32.8298 38.8435L32.827 38.8491ZM33.0629 35.5393C32.3239 35.1949 32.3097 35.0661 32.3012 34.2345C33.0401 35.2257 36.0613 35.0969 36.6184 34.3017C36.9026 36.1106 34.1059 35.9229 33.0657 35.5393H33.0629ZM36.1523 33.5372C38.0423 34.9765 32.6962 35.1809 32.3836 34.1364C32.2358 32.84 35.6379 33.1844 36.1551 33.5372H36.1523ZM36.7207 34.1673C37.6416 34.1532 39.0428 35.0073 38.7529 35.9145C38.1674 36.7546 36.2546 36.3738 35.7004 35.7661C36.6639 35.5029 36.7491 35.1277 36.7122 34.1673H36.7207ZM40.6429 34.6097C39.506 34.7329 37.4597 34.7077 37.6899 33.1088C38.4288 34.1 41.4501 33.9712 42.0071 33.176C42.1009 34.1448 41.5154 34.5145 40.6429 34.6097ZM40.5832 32.1483C42.7603 32.5348 42.0981 33.5484 40.3615 33.6884C39.5458 33.8368 36.607 33.3132 38.2072 32.3583C38.9593 32.0568 39.7857 31.9837 40.5804 32.1483H40.5832ZM42.0583 33.8284C42.0877 33.6771 42.101 33.5232 42.0981 33.3692C42.7148 33.5204 43.4993 33.2964 43.7494 32.6496C43.9995 33.7696 42.9109 34.1729 42.0071 34.0496C42.0439 33.9795 42.0634 33.9018 42.064 33.8228L42.0583 33.8284ZM43.7181 32.3051C43.7948 33.0024 42.5301 33.6324 42.0981 33.19C42.1947 32.3051 41.0919 32.1315 40.3928 32.0055C40.4837 31.7815 40.2933 31.5323 40.3075 31.2915C40.515 30.6839 41.2142 31.1571 41.7087 31.1123C41.7718 31.2703 41.8695 31.4127 41.9947 31.5293C42.12 31.6459 42.2698 31.7339 42.4335 31.7871C43.0076 32.1231 43.738 31.8431 43.7153 32.2995L43.7181 32.3051ZM38.1304 30.345C38.6562 30.7651 39.3724 30.4794 39.9125 30.457C40.1333 30.6381 40.3792 30.7871 40.6429 30.8995C40.5438 30.9185 40.4522 30.9646 40.3783 31.0324C40.3045 31.1002 40.2514 31.1871 40.2251 31.2831C39.7902 30.6811 38.9063 30.653 38.2072 30.9303C38.199 30.7323 38.1724 30.5354 38.1276 30.3422L38.1304 30.345ZM41.6916 31.0031C40.1455 31.0787 38.318 29.043 39.8641 28.9254C40.0546 29.6758 40.8902 30.177 41.6746 30.359C41.6654 30.5738 41.6711 30.789 41.6916 31.0031ZM38.0849 30.8659C38.2924 31.9019 37.255 32.6524 37.8263 32.2659C37.9744 32.0871 38.084 31.8804 38.1485 31.6585C38.213 31.4366 38.231 31.2041 38.2015 30.9751C39.0229 30.6671 40.407 30.8631 40.2791 31.9803C39.2588 31.8907 37.3403 31.9439 37.5904 33.4224C37.5136 33.4258 37.437 33.4138 37.365 33.3872C37.2931 33.3606 37.2274 33.3199 37.1718 33.2676C37.1163 33.2152 37.0721 33.1523 37.042 33.0827C37.0118 33.013 36.9963 32.9381 36.9964 32.8624C37.1783 32.7907 37.3422 32.6808 37.4767 32.5404C37.7609 32.1203 37.6757 31.6695 37.6359 31.1403C37.4085 30.6222 36.6866 30.4878 36.121 30.3674C35.2456 30.4486 35.672 29.1606 36.121 28.8665C37.2891 28.3177 38.0849 29.9754 38.0849 30.8659ZM33.5034 31.7059C34.6601 32.3219 36.8287 32.3443 37.5847 31.5183C38.0707 33.68 32.6422 33.386 33.3044 31.5183C33.3667 31.5889 33.4373 31.6519 33.5148 31.7059H33.5034ZM32.2472 33.9124C32.2222 34.0916 32.2089 34.2721 32.2074 34.4529C32.2074 34.5061 32.2386 34.5285 32.1022 34.5117C31.5679 34.4669 31.3775 34.0244 31.1501 33.568C31.4642 33.8128 31.8587 33.9353 32.2585 33.9124H32.2472ZM24.5421 33.6716C24.6017 33.5008 24.3147 33.2292 24.3886 33.0584C24.4799 32.9394 24.5975 32.8423 24.7323 32.7744C24.8672 32.7065 25.0159 32.6696 25.1673 32.6664C25.4317 32.6664 25.7358 32.9212 26.0484 32.8848C25.4642 32.9974 24.9373 33.305 24.5563 33.7556C24.5479 33.7284 24.5469 33.6994 24.5534 33.6716H24.5421ZM24.5421 34.6853C24.5799 34.4065 24.5799 34.124 24.5421 33.8452C25.0451 33.344 25.7841 32.84 26.5827 33.0052C27.9612 33.4028 26.7362 34.9933 25.9063 35.3013C25.5112 35.5813 23.9168 35.6541 24.1385 35.0913C24.3149 34.9949 24.4628 34.855 24.5676 34.6853H24.5421ZM26.7163 38.4347C26.6824 38.1589 26.6292 37.8857 26.5572 37.617C27.4865 38.5187 30.2946 38.1435 30.738 37.0318C31.6418 39.0059 27.5462 39.4035 26.7163 38.4347ZM30.3799 39.7704C30.4814 39.6085 30.5679 39.4379 30.6385 39.2607C30.9822 39.6288 31.4338 39.8821 31.9305 39.9855C32.4271 40.0889 32.9442 40.0372 33.4096 39.8376C33.4068 41.0668 30.8119 40.4536 30.3855 39.7704H30.3799ZM33.3044 40.392C33.5887 40.154 33.5403 39.7396 33.4181 39.3363C33.6274 39.4573 33.8614 39.5309 34.1031 39.552C34.1235 39.7098 34.1773 39.8616 34.261 39.9976C34.3448 40.1336 34.4565 40.2508 34.5891 40.3416C34.072 40.321 33.5551 40.3863 33.06 40.5348C33.1488 40.4971 33.2328 40.4492 33.3101 40.392H33.3044ZM36.715 37.2138C35.9306 37.0486 35.0097 36.6538 34.6147 35.8837C34.9188 35.9454 35.3451 35.7213 35.6663 35.8389C36.3257 36.5922 38.0139 36.735 38.7244 36.0938C38.3692 37.3258 37.8832 37.3622 36.7264 37.2138H36.715ZM38.5283 36.777C39.3184 37.0178 40.3558 36.777 40.7736 35.9818C40.8106 37.6926 39.2588 38.0007 38.0622 37.281C38.173 37.2343 38.2727 37.1654 38.3549 37.0786C38.4371 36.9918 38.5 36.8891 38.5397 36.777H38.5283ZM46.1027 34.7609C45.8583 32.9072 42.8967 34.002 42.0839 34.7301C41.1545 35.4413 42.0839 35.8501 41.5581 35.937C40.4013 36.0574 41.2142 35.2845 40.7424 34.6993C41.8252 34.5873 41.7258 34.0552 42.1634 34.1392C43.3287 34.2513 43.3202 33.5792 43.9966 33.7192C44.3175 33.7413 44.6395 33.6961 44.9413 33.5865C45.243 33.4769 45.5178 33.3055 45.7474 33.0836C45.8696 33.1956 46.3158 33.0528 46.2959 33.344C46.3594 33.5002 46.4574 33.6406 46.5827 33.7549C46.7081 33.8692 46.8577 33.9546 47.0207 34.0048C46.7365 34.0664 46.7763 34.5145 46.5944 34.5985C46.4205 34.5989 46.2516 34.656 46.114 34.7609H46.1027ZM41.6717 30.2582C41.2596 30.2582 39.5941 29.239 40.0205 28.8581C40.2876 28.7769 40.2109 28.6033 40.3331 28.2981C40.9015 28.8133 41.794 28.7097 42.4647 28.7993C42.6487 29.0466 42.919 29.2181 43.2236 29.281C42.6125 29.379 41.6718 29.6366 41.6831 30.2582H41.6717ZM38.2015 26.9204C38.841 27.3797 39.6709 27.4805 40.4468 27.5673C39.8783 28.5725 37.9116 28.0461 37.1811 27.5673L38.2015 26.9204ZM37.1101 27.6261C37.8945 28.2421 39.668 28.5193 40.37 27.9061C40.2393 29.617 37.2096 28.9478 36.6099 27.9369C36.7804 27.8361 36.9481 27.7325 37.1215 27.6261H37.1101ZM36.5417 27.9789C36.7708 28.3528 37.1228 28.6384 37.5393 28.7881C37.5044 28.8258 37.4776 28.87 37.4605 28.9181C37.4434 28.9663 37.4363 29.0173 37.4398 29.0682C36.7776 28.4073 35.3991 28.4773 34.8989 29.3762C34.5692 29.8186 35.0126 30.3898 34.3305 30.3898C34.3311 30.2229 34.2924 30.0582 34.2175 29.9085C34.1425 29.7589 34.0333 29.6284 33.8984 29.5274C34.8079 29.043 35.6919 28.5193 36.5587 27.9789H36.5417ZM33.8473 29.5694C35.0723 30.9415 33.0486 30.163 33.1765 31.4511C32.9085 31.4302 32.6496 31.3457 32.4219 31.2048C32.1942 31.0638 32.0046 30.8707 31.8691 30.6418C32.5257 30.3114 33.2021 29.9446 33.8643 29.5694H33.8473ZM33.1936 32.0363C32.7896 32.0902 32.3786 32.0205 32.0162 31.8367C31.6538 31.6529 31.3574 31.3639 31.1671 31.0087C31.3803 30.9051 31.5935 30.7931 31.8066 30.6783C31.9392 30.9283 32.1348 31.1406 32.3748 31.2945C32.6147 31.4485 32.8908 31.5391 33.1765 31.5575C33.1765 31.5575 33.1453 32.0027 33.2106 32.0363H33.1936ZM31.1131 31.0395C31.2511 31.3314 31.4612 31.5846 31.7242 31.7759C31.4914 31.911 31.2962 32.101 31.1563 32.3287C31.0165 32.5565 30.9362 32.8149 30.9227 33.0808C30.7408 33.1032 29.8569 32.9212 29.9564 32.5684C30.1553 32.2183 29.82 31.7759 30.0473 31.5715C30.4111 31.4063 30.7579 31.2355 31.1302 31.0395H31.1131ZM26.5316 32.7196C26.2136 32.8315 25.8661 32.8315 25.5482 32.7196C25.8798 32.7213 26.2042 32.6251 26.4798 32.4434C26.7554 32.2617 26.9694 32.0029 27.0943 31.7003C27.8191 31.9551 26.9465 32.5824 26.5486 32.728L26.5316 32.7196ZM25.7017 32.6076C25.4225 32.626 25.1459 32.5452 24.9221 32.3797C24.6984 32.2142 24.5423 31.9752 24.4824 31.7059C24.7054 31.5846 24.8991 31.4172 25.0502 31.2151C25.2013 31.0131 25.3062 30.7812 25.3578 30.5354C25.7926 30.9275 26.7362 31.2635 26.9636 31.7059C26.855 31.9516 26.6829 32.165 26.4645 32.3247C26.246 32.4844 25.9889 32.5848 25.7187 32.616L25.7017 32.6076ZM24.4454 31.6079C24.0951 31.8137 23.6861 31.901 23.2807 31.8565C22.8754 31.812 22.4959 31.6382 22.2001 31.3615C23.1267 31.8571 24.8178 31.1655 24.8718 30.2134C25.696 30.499 24.9258 31.3391 24.4625 31.6163L24.4454 31.6079ZM19.8013 31.6471C19.7081 31.5016 19.6066 31.3613 19.4972 31.2271C20.1509 31.5631 21.2309 31.6163 21.788 31.0087C21.9017 31.1431 21.9926 31.2551 22.1916 31.4595C21.8693 31.738 21.4649 31.9073 21.0378 31.9426C20.6106 31.9778 20.1832 31.8772 19.8184 31.6555L19.8013 31.6471ZM19.6251 29.6198C20.0003 31.2271 21.6146 30.3562 21.734 30.9191C20.5971 31.9159 18.2467 31.1123 19.6109 29.575C19.6165 29.5951 19.6273 29.6134 19.6422 29.6282L19.6251 29.6198ZM24.8035 30.163C24.5989 31.3727 22.2456 31.9327 21.7681 30.7231C22.1774 30.6877 22.5712 30.5525 22.9141 30.3295C23.257 30.1066 23.5381 29.803 23.732 29.4462C24.9712 30.2722 24.8035 30.1406 24.8035 30.163ZM23.4734 29.6674C22.6208 30.8379 19.9406 31.1907 19.6649 29.407C20.617 30.1938 22.1632 29.687 23.0471 28.9786C23.2602 29.1802 23.8543 29.3006 23.4734 29.673V29.6674ZM20.6852 29.6674C18.7185 29.5442 19.6365 27.7465 20.8444 27.5057C21.555 27.9789 22.2229 28.4297 22.9391 28.9058C22.3086 29.4243 21.5061 29.6955 20.6852 29.6674ZM18.4314 29.855C17.7465 31.4007 14.1682 31.3699 14.063 29.6674C15.0436 30.7315 18.1273 30.4318 18.403 29.0906C18.4453 29.3432 18.4549 29.6 18.4314 29.855ZM14.0175 31.8151C13.4491 31.7983 11.7012 31.1767 12.7613 30.7483C13.033 30.8669 13.3316 30.9128 13.627 30.8814C13.9225 30.8499 14.2042 30.7422 14.4439 30.569C14.7502 30.7989 15.1078 30.9534 15.4869 31.0199C15.3477 31.6387 14.6258 31.9103 14.0175 31.8207V31.8151ZM15.8507 27.9957C18.8066 27.7157 19.1789 29.8186 16.3538 30.1938C13.6054 30.4234 13.0967 28.2673 15.8507 28.0013V27.9957ZM13.955 29.729C14.003 30.0335 14.1531 30.3135 14.3813 30.5242C14.1301 30.6722 13.8477 30.7612 13.556 30.7845C13.2642 30.8078 12.9709 30.7648 12.6988 30.6586C12.8125 30.4402 12.6988 30.1406 12.6476 29.8186C12.8604 29.8902 13.0855 29.9197 13.3098 29.9052C13.5342 29.8908 13.7535 29.8328 13.955 29.7346V29.729ZM13.0342 34.1028C12.082 34.1701 9.41041 33.7416 10.3483 32.4508C11.6529 31.4007 16.081 33.26 13.0342 34.1084V34.1028ZM12.2213 32.0895C10.5444 31.9691 9.96747 31.9859 9.96747 33.7024C9.82652 33.5283 9.63524 33.4004 9.41893 33.3356C8.8505 32.6888 9.09208 32.1735 9.86799 31.9607C10.3711 32.0363 10.948 31.8263 11.4653 31.7507C11.9505 31.8234 12.4178 31.9838 12.8437 32.2239C12.6394 32.1658 12.4315 32.1209 12.2213 32.0895ZM14.9924 36.4102C15.0436 36.4858 15.2283 36.567 15.3193 36.7322C14.4439 37.603 11.6557 37.7823 11.7467 36.147C12.8892 37.0178 14.0175 36.6286 14.9924 36.4102ZM14.4666 38.1351C13.7191 38.1799 12.8125 38.2107 12.173 38.7119C12.1048 38.5243 11.7637 38.3311 11.7097 38.1043C11.7484 37.9343 11.8369 37.7792 11.9642 37.6582C12.0915 37.5373 12.2521 37.4558 12.4259 37.4238C12.9944 37.393 13.5969 37.6114 14.1994 37.4238C14.205 37.6837 14.2991 37.9342 14.4666 38.1351ZM10.1721 37.505C9.60367 37.4154 8.98408 37.9027 9.21145 38.5243C8.6095 38.2619 7.96643 38.1028 7.31005 38.0539C7.40079 37.7741 7.56619 37.5236 7.78893 37.3284C8.01167 37.1333 8.28356 37.0007 8.57615 36.9446C8.86873 36.8885 9.17125 36.9109 9.45202 37.0095C9.73279 37.1081 9.9815 37.2793 10.1721 37.505ZM10.3398 37.519C9.77136 37.071 9.89926 36.665 10.6581 36.4326C10.9423 36.6958 11.5648 36.4914 11.7467 36.7126C11.8007 37.029 12.136 37.1998 12.4572 37.3202C12.2537 37.3503 12.0648 37.4423 11.917 37.5834C11.7691 37.7245 11.6699 37.9076 11.633 38.1071C11.2603 37.8049 10.8149 37.6024 10.3398 37.519ZM11.6529 35.7437C11.6275 35.9996 11.6447 36.2578 11.704 36.5082C11.3646 36.5454 11.0215 36.486 10.7153 36.3372C10.4091 36.1883 10.1525 35.9561 9.976 35.6681C10.3966 35.2201 10.3199 34.7385 10.1522 34.1308C10.4708 34.4329 10.8502 34.6657 11.2658 34.8143C11.6815 34.9629 12.1241 35.0238 12.5652 34.9933C12.3625 35.0354 12.1733 35.1258 12.0142 35.2566C11.8552 35.3875 11.7311 35.5547 11.6529 35.7437ZM6.75583 36.441C6.44313 36.3905 6.15725 36.2365 5.94539 36.0043C5.73353 35.7722 5.60836 35.4758 5.59054 35.1641C6.54267 36.343 9.76283 35.7241 10.138 34.4977C10.516 36.1862 7.9808 36.6678 6.75299 36.441H6.75583ZM6.87804 33.386C6.83257 33.3272 6.77288 33.246 6.65067 33.106C7.35837 32.91 8.1428 32.476 8.4327 31.7395C8.80159 31.8562 9.1832 31.9295 9.56957 31.9579C9.43235 32.001 9.30962 32.08 9.21455 32.1866C9.11949 32.2932 9.05567 32.4233 9.02996 32.5629C9.00425 32.7025 9.01762 32.8463 9.06862 32.979C9.11962 33.1117 9.20634 33.2282 9.31946 33.316C8.51851 33.0779 7.66076 33.1025 6.8752 33.386H6.87804ZM7.26742 33.386C8.09449 33.204 9.30809 33.0556 9.87084 33.8284C10.661 35.3069 7.7449 35.7717 6.89225 35.6373C4.45368 35.2845 5.85202 33.68 7.26458 33.372L7.26742 33.386ZM4.67821 37.3062C4.81996 37.4939 5.00779 37.643 5.22408 37.7396C5.44036 37.8361 5.678 37.8769 5.91469 37.8582C6.15138 37.8394 6.37934 37.7617 6.57718 37.6324C6.77503 37.503 6.93625 37.3262 7.04573 37.1186C7.23615 36.9142 7.04573 36.5334 7.39532 36.5922C8.3247 36.5558 9.29103 36.427 9.93052 35.7157C10.0677 35.9807 10.2761 36.2035 10.5331 36.3598C10.3658 36.4091 10.2152 36.502 10.0972 36.6287C9.97912 36.7553 9.89797 36.9111 9.86231 37.0794C8.46112 36.3066 7.73922 37.1634 7.12247 38.0399C6.91781 38.0035 6.7077 38.0097 6.50558 38.0579C6.30347 38.1061 6.11378 38.1953 5.94866 38.3199C5.34043 37.5834 4.64695 38.2303 4.556 37.6282C4.54747 37.5274 4.38547 37.3706 4.67537 37.3034L4.67821 37.3062ZM4.46505 37.6142C4.49576 37.725 4.53666 37.8328 4.58726 37.9363C4.46217 37.9492 4.33788 37.9689 4.21494 37.9951C4.32877 37.8897 4.41381 37.7578 4.46221 37.6114L4.46505 37.6142ZM16.2344 38.8127C16.0525 38.1743 15.1459 38.1743 14.5604 38.1379C13.7845 37.0738 15.0095 37.4322 15.413 36.7798C15.7291 36.9051 16.0696 36.9588 16.4096 36.937C16.7495 36.9152 17.0801 36.8184 17.377 36.6538C17.377 36.7966 17.7493 37.1634 17.5219 37.3062C17.2041 37.4424 16.9224 37.6489 16.6986 37.9097C16.4748 38.1704 16.315 38.4785 16.2316 38.8099L16.2344 38.8127ZM18.0364 34.0832C18.2865 35.951 14.8077 37.323 14.5121 35.3601C14.4439 33.8284 17.6413 32.5768 18.0364 34.0832ZM14.8389 36.259C14.4379 36.4577 13.997 36.5661 13.5482 36.5763C13.0994 36.5865 12.6539 36.4982 12.244 36.3178C10.4847 35.4413 13.7589 34.6853 14.4496 34.9401C14.2449 35.5645 14.5291 35.8613 14.8389 36.245V36.259ZM14.2108 33.3048C13.9891 32.42 12.0707 31.7367 11.4909 31.6835C11.8059 31.547 12.0944 31.3575 12.3435 31.1235C12.7386 31.8375 14.1085 32.0083 14.711 31.8823C14.8286 32.2112 15.0434 32.4979 15.3278 32.7056C15.1885 33.1256 14.6627 33.5064 14.2108 33.3048ZM14.7593 31.8795C14.9608 31.83 15.1446 31.7271 15.2909 31.582C15.4372 31.4369 15.5404 31.2551 15.5893 31.0563C16.1136 31.1492 16.6527 31.1204 17.1638 30.9723C17.1866 31.3643 17.5617 31.6695 17.9483 31.8123C18.1842 31.8879 17.9483 32.3079 17.8488 32.4956C17.0245 33.5232 15.2425 32.9884 14.7565 31.8795H14.7593ZM19.645 31.5995C20.1168 32.1595 21.1315 32.1903 21.7852 31.8991C22.1888 31.7619 22.203 31.4035 22.5781 31.7479C22.5554 32.5292 21.9898 32.784 21.2224 32.9268C20.7734 33.0752 20.4749 33.3244 19.9434 33.2628C18.9572 33.1704 18.7071 31.9159 19.6422 31.5883L19.645 31.5995ZM19.5058 33.2432C19.7905 33.3747 20.1117 33.4082 20.4181 33.3384C19.9633 33.7752 20.2049 34.5033 20.4891 35.0185C19.0681 35.3181 18.6304 34.2233 19.3523 33.1368C19.4006 33.176 19.4518 33.2152 19.5058 33.2432ZM20.1083 35.1781C20.2959 35.2229 20.5119 34.9961 20.6767 35.2145C21.7027 35.7997 23.0272 35.6121 24.0333 35.1389C24.0861 35.3239 24.1797 35.4951 24.3075 35.6403C24.4352 35.7855 24.5939 35.9012 24.7723 35.979C24.8007 36.0854 25.0224 36.1134 25.1901 36.1442C24.9517 36.3936 24.823 36.7257 24.832 37.0682C23.9338 35.1697 22.0069 35.5449 20.7961 36.6538C20.6824 36.7602 20.6995 36.8358 20.5119 36.7462C19.7417 36.6034 19.267 34.9765 20.1083 35.1809V35.1781ZM21.7596 36.1386C25.1474 34.8785 25.0025 38.1547 22.6492 39.2187C19.3267 40.5236 19.4006 37.2418 21.7596 36.1414V36.1386ZM27.569 42.6573C27.7622 41.3945 32.1903 41.5625 32.0709 42.7693C31.7697 43.993 27.3871 43.8838 27.569 42.6573ZM31.3775 41.9153C30.8488 41.7249 30.63 40.7952 30.8659 40.2716C31.5963 40.476 30.9568 41.3077 31.6958 41.7585C31.6958 41.8257 31.7185 41.9293 31.7412 42.0721C31.625 42.0157 31.5054 41.9661 31.3831 41.9237L31.3775 41.9153ZM34.8335 40.364C34.6616 40.3062 34.51 40.2012 34.3967 40.0612C34.2834 39.9213 34.213 39.7524 34.194 39.5744C34.4457 39.6307 34.7079 39.623 34.9557 39.552C34.8847 40.0112 35.8425 40.5432 34.8392 40.364H34.8335ZM35.3735 40.1764C35.2751 40.1013 35.1933 40.0072 35.1332 39.8998C35.0731 39.7924 35.0359 39.674 35.0239 39.552C35.6651 39.3897 36.2246 39.0037 36.5985 38.4655C36.6395 38.7295 36.7649 38.9738 36.9566 39.1627C36.6346 39.2082 36.3265 39.3225 36.054 39.4976C35.7815 39.6727 35.5512 39.9043 35.3792 40.1764H35.3735ZM36.661 38.3759C36.8654 38.0678 36.9975 37.7186 37.0476 37.3538C37.3147 37.4462 37.7638 37.2194 38.0622 37.3538C38.3573 37.5652 38.7052 37.6935 39.0687 37.7251C39.4322 37.7567 39.7975 37.6903 40.1256 37.533C40.2137 39.2691 37.0703 40.4004 36.6639 38.3759H36.661ZM40.245 37.701C40.3967 37.9079 40.5733 38.0959 40.7708 38.2611C39.6339 39.1851 41.038 39.0647 39.0285 39.9048C38.5794 39.8378 38.1396 39.7194 37.7183 39.552C38.7614 39.7424 40.1256 38.8687 40.2507 37.701H40.245ZM40.245 39.2467C40.2534 39.3098 40.2686 39.3717 40.2905 39.4316C39.8329 39.5044 40.029 39.5744 40.2592 39.2467H40.245ZM42.7489 40.0252C41.7059 38.5691 39.8556 40.2044 40.4042 38.7119C40.4894 38.5999 40.7253 38.1519 40.9243 38.3675C41.183 38.5368 41.4796 38.6415 41.7886 38.6728C42.0975 38.704 42.4096 38.6607 42.6978 38.5467C42.7783 38.7247 42.9177 38.8707 43.0931 38.9607C43.2686 39.0507 43.4699 39.0795 43.6641 39.0423C43.701 39.2837 43.8064 39.5099 43.9682 39.6948C43.5439 39.6978 43.1281 39.8119 42.7631 40.0252H42.7489ZM53.0063 35.9678C53.4326 37.5582 48.726 38.6391 48.743 36.6734C49.7236 37.4238 52.5942 36.4858 52.9153 35.5701C52.9438 35.6597 52.9807 35.7885 53.0205 35.9678H53.0063ZM52.7533 35.6149C52.0996 36.7938 47.9728 37.4014 48.834 36.0126C49.4536 35.0073 53.1882 34.3633 52.7675 35.6149H52.7533ZM52.6624 33.89C52.6396 34.9541 51.5653 34.8813 50.6729 34.8057C50.5967 34.6342 50.4792 34.4837 50.3306 34.3671C50.1821 34.2504 50.0069 34.1713 49.8202 34.1364C49.9709 34.1364 50.1698 33.8984 50.3744 33.9936C51.1504 34.2205 52.0797 34.2205 52.7107 33.6436C52.7079 33.7248 52.6908 33.8032 52.6766 33.89H52.6624ZM52.4265 32.8092C53.4241 33.988 51.1162 34.1084 50.3716 33.8816C50.8519 33.5232 50.8519 32.7112 50.6132 32.1483C51.2754 32.2015 51.9689 32.3303 52.4407 32.8092H52.4265ZM50.545 32.2491C50.9343 33.568 46.8985 33.33 46.4949 32.6608C45.8014 31.2411 50.2551 31.4287 50.5592 32.2547L50.545 32.2491ZM50.2863 30.6811C50.5535 31.3251 49.8828 31.8375 49.1836 31.5435C48.3177 31.3622 47.4149 31.4789 46.6256 31.8739C46.5352 31.6363 46.4686 31.3906 46.4267 31.1403C47.5152 31.7843 49.7918 31.4455 50.1726 30.2022C50.2181 30.3282 50.2551 30.485 50.3062 30.6867L50.2863 30.6811ZM49.7378 29.4882C51.2584 30.9723 47.2395 31.8711 46.4182 31.0087C47.285 30.9639 48.6919 30.1854 48.5185 29.239C48.9408 29.2049 49.3641 29.2914 49.7378 29.4882ZM48.3906 29.1802C48.7999 30.1294 46.8985 31.0311 46.151 30.9051C46.1789 30.6244 46.1635 30.3412 46.1055 30.065C46.9127 30.065 47.9558 29.6142 48.2286 28.7965C48.2684 28.8862 48.3167 29.0122 48.3991 29.1802H48.3906ZM46.8672 27.9789C49.4109 28.1805 47.4356 29.967 46.0373 29.9586C45.8241 29.6786 45.3836 29.5386 45.0084 29.4266C47.2708 28.9702 45.8327 27.8977 46.8757 27.9789H46.8672ZM46.3272 27.7997C46.7763 29.9138 42.9166 29.4798 42.4818 28.7377C42.766 28.7377 42.9848 28.4213 43.3117 28.5641C44.4173 28.7825 45.9009 28.7433 46.3272 27.7997ZM43.8602 26.6208C47.8392 26.5172 46.2647 29.2082 43.252 28.4073C43.5788 28.1805 43.6471 27.0856 43.5788 26.6432C43.676 26.6539 43.7744 26.6463 43.8687 26.6208H43.8602ZM42.3766 25.9628C43.161 26.0748 43.991 26.8868 43.1838 27.4945C42.4221 27.9285 41.4472 27.8305 40.6088 27.5309C41.8423 27.5001 41.7911 26.8924 42.0299 25.918C42.1549 25.946 42.2629 25.946 42.3766 25.9628ZM41.4614 25.1675C43.1667 26.758 39.8243 26.9008 38.8665 26.4808C39.4606 25.9936 40.4354 25.7472 40.3672 24.8455C40.753 24.8686 41.1279 24.9808 41.4614 25.1731V25.1675ZM40.191 25.3776C35.8368 28.6033 28.5381 32.1595 28.2369 32.2939C28.2369 32.4732 28.001 20.1945 27.9868 20.2113C27.9725 20.2281 40.6429 15.1458 41.6149 14.7621C41.433 16.1202 40.191 25.2039 40.191 25.3832V25.3776ZM37.2835 7.94376C37.6785 8.29382 38.0126 8.7053 38.2725 9.16183C39.5288 11.402 40.1597 11.1219 41.1147 12.1384C41.3923 12.4791 41.5835 12.8801 41.6725 13.3081C41.7615 13.7362 41.7456 14.1789 41.6263 14.5997C41.595 14.5997 29.1009 19.6036 28.0123 20.1357C27.1597 17.1115 29.3169 16.5122 29.8484 14.6809C30.3202 13.3845 30.4566 12.0488 31.0591 10.7607C32.4006 8.04177 34.4811 6.58008 37.2835 7.94376ZM35.8283 7.27732C33.5204 6.9553 32.0141 8.711 31.1018 10.4275C30.3628 11.808 30.2491 13.2921 29.7148 14.7173C29.4476 15.5742 28.8167 16.1958 28.2937 16.9295C28.0122 17.3915 27.8316 17.9064 27.7636 18.4411C27.6956 18.9758 27.7416 19.5186 27.8987 20.0348C27.0233 19.458 25.9347 18.9708 25.0281 18.4528C24.4966 15.5126 26.7874 14.8125 27.586 12.8132C28.7911 10.0299 29.0781 5.98085 33.06 6.16006C33.6739 6.33927 35.851 7.29972 35.8283 7.27732ZM32.6848 6.00325C28.99 5.93325 28.5268 10.2539 27.4013 12.8272C26.2133 15.1766 24.3715 15.7534 24.9258 18.4276C24.4 18.1643 22.2541 17.0275 22.1717 16.9967C22.689 16.6663 23.0073 15.1654 21.5152 14.7089C22.0324 13.3341 23.5928 12.5024 24.1584 11.0687C25.4146 7.88776 26.4946 5.00919 29.5585 4.89439C29.891 4.99799 31.8322 5.67843 32.6848 6.00325ZM26.2587 28.0629C26.2587 28.0629 24.4937 26.9204 24.2408 26.7636C24.2408 24.9855 24.2266 20.3737 24.2038 19.8472C24.5762 20.0432 25.9774 20.7489 26.3042 20.8973C26.29 21.0121 26.2587 27.9565 26.2587 28.0629ZM24.1186 26.688C23.6184 26.3352 22.2143 25.6492 22.2001 25.4812C22.1177 23.6443 22.0324 19.7212 22.0097 18.5592C22.527 18.912 23.9679 19.7212 24.1413 19.8192C24.0958 20.7797 24.1186 26.3352 24.1186 26.688ZM21.4015 17.0023C20.6398 16.4254 21.1428 14.7621 22.1092 15.1934C22.9078 15.6862 22.3536 17.4559 21.4015 17.0023ZM17.4566 19.2144C17.1923 19.4239 16.9884 19.6982 16.8654 20.0096C16.7381 20.2812 16.663 20.5736 16.6437 20.8721C16.536 20.9551 16.4241 21.0327 16.3083 21.1045C16.2401 20.3233 15.7598 15.3054 15.7399 15.0954C15.8792 15.1794 16.7545 15.703 17.0587 15.8766C17.0956 16.4366 17.2775 19.1556 17.3429 19.2676C17.5475 19.206 17.1439 16.4674 17.1382 15.9074C17.4026 16.0586 17.6612 16.2098 17.9369 16.3442C17.9596 16.8679 17.9909 17.3943 18.0193 17.9179C17.7013 18.2787 17.5047 18.7277 17.4566 19.2032V19.2144ZM17.3059 14.8714C17.2125 14.7799 17.1419 14.6683 17.0996 14.5455C17.0573 14.4226 17.0444 14.2918 17.0621 14.1632C17.0797 14.0346 17.1273 13.9118 17.2012 13.8044C17.275 13.697 17.3731 13.6079 17.4878 13.5441C17.9767 13.3201 18.7753 13.6477 19.5427 13.9865C20.4721 14.3925 21.3645 14.863 21.7141 14.9918C20.9155 15.1794 20.671 16.2602 21.1457 16.8903C19.8153 16.3105 18.5317 15.6319 17.3059 14.8602V14.8714ZM25.696 3.67072C26.8897 4.00674 28.0777 4.37356 29.2515 4.77118C24.5904 5.44042 25.1787 10.9539 22.4303 13.1269C22.0182 13.5861 21.4867 14.0873 21.4924 14.6949C21.4697 14.6809 18.9828 13.5189 18.3035 13.3313C18.0193 13.3537 18.3717 12.6116 18.5025 12.354C19.1249 11.3208 20.1452 10.6739 20.7563 9.64066C22.2456 6.64169 22.0552 4.34556 25.696 3.67072ZM25.4601 3.60071C21.9585 4.28395 21.8647 6.99171 20.8615 9.20103C19.9179 11.0295 18.2353 11.6568 18.0676 13.3033C17.8135 13.2734 17.5573 13.3397 17.351 13.489C17.1446 13.6382 17.0036 13.8591 16.9563 14.1069C16.8341 13.9417 15.1061 13.2361 15.2198 13.012C15.1288 9.97387 16.7943 10.4079 17.7777 8.55699C19.034 5.72043 19.4518 3.64272 22.6094 3.02108C23.3057 2.85867 24.5307 3.4131 25.4601 3.60071ZM12.73 10.3743C12.9631 9.12543 14.5121 8.86781 14.9384 7.69735C15.4699 6.45128 15.6092 5.03439 16.6664 4.05714C17.6782 2.95388 19.3466 2.54225 20.725 2.44425C21.0434 2.46665 22.527 2.84187 22.6719 2.88107C18.7526 3.65952 18.8208 6.40647 17.556 8.6774C15.7825 10.9875 15.1118 10.1783 15.1118 13.0428C14.64 12.7628 13.0256 11.8668 12.6988 11.6848C12.6526 11.2484 12.6631 10.808 12.73 10.3743ZM12.73 11.7996C13.5202 12.2728 16.8171 14.1545 16.962 14.2217C16.962 14.989 17.6839 15.1682 17.8971 15.3026C17.9056 15.6022 17.9056 15.9102 17.9056 16.2182C17.2974 15.9718 14.0772 13.8241 14.2819 14.3421C14.3501 15.1318 15.0805 21.0261 15.1885 21.6785C15.4329 21.8129 15.9332 22.135 16.0412 22.1826V21.7373C16.0412 21.7373 15.5694 21.5665 15.5694 21.4573C15.4614 20.6621 14.8446 15.2102 14.7935 14.5577C14.9384 14.6305 15.5068 14.961 15.6461 15.0506C15.6461 15.0506 16.1577 20.6845 16.2145 21.1185C16.1769 21.1414 16.1409 21.1667 16.1065 21.1941C16.0838 21.2165 16.1065 21.2473 16.1463 21.2557C16.6266 21.3593 20.4238 23.1962 20.4323 23.2158C20.4408 23.2354 21.3844 22.737 21.5692 22.6166C21.5294 22.5942 20.9439 22.2498 20.9439 22.2414C20.509 23.185 19.5228 22.6922 19.807 21.7009C19.7075 21.7009 17.6981 20.7405 17.5333 20.6369C17.5098 20.8273 17.4747 21.0162 17.4281 21.2025C17.053 21.7625 16.4447 21.1661 16.6522 20.9617C16.6646 21.0317 16.6957 21.0971 16.7423 21.1513C16.7889 21.2056 16.8492 21.2466 16.9172 21.2703C16.9852 21.2939 17.0583 21.2993 17.1291 21.2859C17.1999 21.2726 17.2659 21.2409 17.3201 21.1941C17.4281 20.8945 17.4509 20.4073 17.8147 20.2869C17.718 20.9617 19.8042 21.4937 19.8042 20.8721C18.5025 21.4321 17.323 20.1525 17.6044 18.9288C17.7493 17.9627 19.051 16.9043 19.8781 17.5287C19.9332 17.6028 19.9659 17.6908 19.9724 17.7825C19.979 17.8741 19.9591 17.9657 19.915 18.0467C19.7244 18.0757 19.5422 18.1445 19.3807 18.2483C18.5678 18.632 18.1785 19.6736 18.9629 20.1553C19.0851 20.2281 19.4063 20.3037 19.3807 20.1553C19.2535 20.1434 19.1301 20.1059 19.0182 20.0453C18.9062 19.9846 18.8081 19.9019 18.7298 19.8024C19.0313 19.8699 19.3066 20.0219 19.5224 20.24C19.7382 20.4581 19.8855 20.733 19.9463 21.0317C20.114 21.5917 19.7189 22.1798 20.0998 22.555C20.6682 22.9162 20.9979 22.1042 20.9752 21.6113C21.0434 20.3569 20.0316 19.038 18.8435 18.856C19.139 18.5289 19.5254 18.2942 19.9548 18.1811C20.5232 16.9211 18.5536 17.1395 18.0591 17.8367C18.0364 17.3355 17.9454 15.6778 17.9141 15.3614C18.9451 15.9971 20.0212 16.5586 21.1343 17.0415C21.1059 17.7247 21.2253 21.939 21.2253 22.3058C21.2565 22.3282 21.2963 22.345 21.3247 22.3674C21.3247 20.9673 21.2253 17.4531 21.211 17.0723C21.248 17.0723 21.5606 17.3327 21.8591 17.1843C21.8591 17.8059 21.9045 20.6873 21.9358 22.2918C21.8846 22.8826 22.1689 23.8011 21.6004 23.5098C21.5038 23.7115 21.9898 23.6807 21.9585 23.605C21.9585 23.6975 22.0438 25.2123 22.058 25.5204C21.7226 25.3327 21.3873 25.1451 21.0604 24.9603C21.0377 25.0723 20.7933 25.2403 20.7762 25.372C20.8529 25.4336 21.1627 25.6268 21.6061 25.8984C23.1494 26.7832 26.4378 28.9786 26.3241 28.6117C26.3241 28.1777 26.3724 21.4881 26.3639 20.9309C26.4463 20.8189 26.0598 20.6985 25.7471 20.5277C24.4454 19.8668 22.419 18.7272 22.0012 18.4808C21.9415 18.3968 21.8022 16.9799 22.0694 17.0555C22.382 17.2431 27.4524 19.934 27.856 20.1889C27.856 20.1889 28.0607 31.8319 28.0777 32.2295C27.0119 31.5155 20.3328 27.0688 19.267 26.3632C19.213 26.3632 19.0766 26.1756 19.0908 26.3408C19.2357 26.5144 19.6592 26.6208 19.4716 26.7468C18.7952 27.8333 16.8625 28.1189 16.206 26.9792C16.388 26.8053 16.5304 26.5954 16.6238 26.3632C16.8228 26.3632 17.4935 26.3044 17.4765 26.0552C16.9734 26.2372 16.3879 26.3856 15.8934 26.0944C15.8109 26.1392 17.3542 26.2876 17.286 25.8676C16.6778 26.0328 15.8166 26.2064 15.3534 25.6072C14.927 24.9239 15.5665 24.7139 15.9218 24.3695C16.0213 24.4059 16.4902 24.8847 16.4419 24.6159C14.495 23.1906 14.0687 22.9582 14.0403 22.7818C13.9635 21.5889 12.7897 12.564 12.7158 11.7996H12.73ZM13.1564 23.1626C13.3745 22.9451 13.6519 22.7943 13.955 22.7286C14.0772 23.199 15.0151 23.619 15.4017 23.9579C14.7025 24.3779 12.4572 24.3331 13.1564 23.1626ZM10.3625 25.7276C10.6467 24.4619 12.6363 24.2267 13.5685 24.8875C13.0882 25.2627 12.7158 26.0356 13.1024 26.5676C12.1957 26.87 10.4165 26.884 10.3625 25.736V25.7276ZM8.19396 26.5984C8.64302 25.9768 9.50136 25.848 10.2488 25.7584C10.3028 26.2904 10.2176 27.094 10.9111 27.3405C10.2034 27.8529 7.46921 27.8305 8.19396 26.6068V26.5984ZM11.056 27.4161C11.3508 27.5129 11.6579 27.5685 11.9683 27.5813C11.2294 28.5417 7.96375 29.0514 8.11722 27.3629C8.59755 27.8445 10.0527 28.0237 11.056 27.4245V27.4161ZM5.80939 28.4353C6.42639 27.8839 7.21724 27.5586 8.04901 27.5141C8.04901 27.6261 8.07743 27.8137 8.11722 28.0097C8.74818 28.8189 10.4535 28.6313 11.2436 28.2421C11.2123 28.2785 11.0077 28.5221 11.1214 28.5697C11.8518 27.3097 13.6793 27.6121 14.6911 28.1357C14.0914 27.4693 12.7727 27.4469 11.9655 27.7745C12.3549 27.3769 13.2303 27.5729 13.7248 27.0996C14.0687 27.4833 14.8133 27.6177 15.3477 27.4749C15.3065 27.5498 15.2945 27.6369 15.3139 27.7198C15.3333 27.8028 15.3826 27.876 15.4528 27.9257C14.8133 28.0685 13.847 28.4129 13.901 29.253C13.8555 29.3874 14.0687 29.575 13.847 29.659C13.5116 29.7934 12.6363 29.981 12.5993 29.561C12.2554 28.0909 9.26546 28.6229 8.4867 29.1186C7.57437 29.5246 7.9609 29.9586 7.34984 30.079C6.0595 30.3646 4.44515 29.6394 5.80939 28.4437V28.4353ZM5.31485 29.7262C5.88329 30.2862 6.86099 30.3786 7.62269 30.1322C7.52321 30.2666 7.85859 30.597 7.62269 30.6923C7.18547 30.8339 6.71103 30.8149 6.28688 30.6389C5.86273 30.4629 5.5175 30.1417 5.31485 29.7346V29.7262ZM3.72325 31.4063C3.95062 30.7091 4.82885 30.4178 5.51949 30.2218C5.79749 30.5163 6.15675 30.7243 6.55312 30.8203C6.94949 30.9163 7.3657 30.8961 7.75059 30.7623C8.43554 32.2631 3.56408 32.9632 3.72325 31.4063ZM2.72565 33.2432C2.98121 32.8385 3.33855 32.5057 3.76304 32.2771C4.02736 33.0192 4.99369 33.2432 5.75255 33.2292C5.08748 34.9233 1.25057 35.6793 2.72565 33.2432ZM0.275707 35.4833C0.738979 34.9233 1.55468 34.7721 2.28511 34.7581C2.89334 34.7805 3.16902 35.5981 3.92788 35.4917C4.26856 35.4657 4.60169 35.3794 4.91127 35.2369C5.55928 35.7633 4.79758 36.4158 4.24052 36.595C3.23724 37.0542 -0.616731 36.9198 0.284233 35.4637L0.275707 35.4833ZM0.312655 36.8414C0.238205 36.6452 0.174637 36.4452 0.12223 36.2422C1.17951 37.3958 4.62989 37.1354 5.20117 36.0238C5.71844 38.0231 0.761716 37.9027 0.312655 36.8218V36.8414ZM0.503079 37.2558C1.63994 37.8775 3.17471 37.7795 4.40252 37.4266C4.37694 38.8015 -0.935053 39.1935 0.503079 37.2362V37.2558ZM1.70531 39.4932C0.989089 39.4568 0.244443 38.9835 0.244443 38.1491C0.775927 38.8099 1.93269 38.7875 2.72565 38.6139C1.96395 39.0199 2.12595 39.5464 1.70531 39.4932ZM4.54747 41.3161C3.3765 41.5345 2.8706 41.2545 2.25385 40.2968C3.25145 40.9268 4.86579 40.5208 5.62749 39.9216C5.75394 40.1521 5.94031 40.3454 6.1675 40.4816C5.71696 40.903 5.15585 41.1921 4.54747 41.3161ZM5.74118 39.9636C5.61044 39.6836 5.79518 39.3867 5.77244 39.0031C6.4034 40.1456 9.18303 40.5796 9.9362 39.65C9.9215 39.9216 9.88827 40.192 9.83673 40.4592C9.47862 41.106 7.04573 41.3777 5.74118 39.9636ZM10.0044 39.9412C10.2881 40.1683 10.6284 40.3161 10.9899 40.3693C11.3513 40.4225 11.7207 40.3791 12.0593 40.2436C12.0593 40.3343 12.0831 40.4235 12.1285 40.5025C12.1738 40.5815 12.239 40.6476 12.3179 40.6944C12.3179 41.0976 9.56104 41.4001 10.0044 39.9636V39.9412ZM12.2781 40.5488C12.0934 40.3108 12.1616 39.9888 12.0422 39.6332C12.9688 40.5348 15.7797 40.1596 16.2202 39.0507C16.243 39.3055 16.4106 39.6108 16.3339 39.9272C15.9928 40.6888 13.8243 41.4813 12.2668 40.5572L12.2781 40.5488ZM17.4935 40.7364C16.6608 40.4564 16.5329 40.28 16.4106 39.44C17.2633 40.4368 19.699 39.958 20.3243 39.2971C17.7664 40.4172 15.521 39.7704 16.692 38.1127C17.5901 36.9114 19.1675 36.9338 20.2703 37.1886C19.445 36.8794 18.5319 36.8874 17.7124 37.211C17.6555 37.0014 17.5653 36.802 17.4452 36.6202C19.0368 35.7801 18.9146 34.2261 17.5503 33.3552C16.9609 33.237 16.3485 33.3095 15.8041 33.5617C15.2598 33.814 14.8126 34.2326 14.5291 34.7553C14.37 34.9429 13.8584 34.6657 13.5543 34.7861C14.1568 34.6209 14.1227 33.946 14.225 33.386C14.3439 33.4223 14.4689 33.4348 14.5927 33.4226C14.7165 33.4104 14.8366 33.3738 14.9458 33.3151C15.055 33.2563 15.1511 33.1766 15.2285 33.0805C15.3058 32.9845 15.3628 32.8741 15.396 32.756C16.3254 33.4532 18.1216 33.1984 18.1529 31.8627C18.4749 31.9332 18.8094 31.9255 19.1277 31.8403C19.0042 32.0358 18.9546 32.2681 18.9879 32.4961C19.0212 32.724 19.1351 32.9331 19.3096 33.0864C18.8009 33.7388 18.7156 34.8953 19.699 35.1333C19.6311 35.3061 19.6007 35.491 19.6099 35.6761C19.619 35.8612 19.6675 36.0423 19.7521 36.2078C19.8368 36.3732 19.9557 36.5194 20.1013 36.6367C20.2468 36.7541 20.4158 36.84 20.5971 36.889C19.5228 38.2555 19.7814 38.8099 20.8103 39.8068C20.409 40.266 19.88 40.5995 19.2886 40.7662C18.6972 40.9329 18.0693 40.9255 17.4821 40.7448L17.4935 40.7364ZM19.9207 40.6552C20.3023 40.4744 20.6324 40.2031 20.8814 39.8656C21.5265 40.6468 22.7686 40.4452 23.6041 40.0028C23.9623 40.714 23.1267 41.3077 22.6094 41.7417C20.9439 43.0438 18.1131 42.3269 19.9093 40.6636L19.9207 40.6552ZM21.3986 43.055C20.5943 43.1502 19.9974 42.9738 19.5768 42.2681C21.1855 43.2566 24.0305 41.3525 23.8116 40.1904C25.0878 41.5345 22.5753 43.0102 21.3873 43.0634L21.3986 43.055ZM23.6724 43.1222C23.1693 42.9486 22.9334 42.5621 23.5217 42.2821C24.0077 41.8341 24.616 41.0892 24.0902 40.4676C26.452 38.9163 27.2648 42.0217 25.4089 42.9121C24.8121 42.8673 24.2635 43.0438 23.6695 43.1306L23.6724 43.1222ZM23.3881 43.5058C24.525 42.5145 28.8309 43.0914 27.2705 44.441C26.4321 45.0963 22.1006 44.9087 23.3739 43.5142L23.3881 43.5058ZM27.1398 45.4463C25.9262 46.0847 22.9306 46.0399 23.1437 44.3066C23.9964 45.1999 27.2251 45.0963 27.6286 44.2478C27.6826 44.6623 27.569 45.2167 27.1256 45.4547L27.1398 45.4463ZM31.9914 44.021C31.0023 44.8779 27.9782 44.9983 27.6286 43.741C27.6969 43.5674 27.5661 43.3518 27.5746 43.0662C28.4273 44.1386 31.5935 43.8614 32.1221 43.0298C32.0596 43.3042 32.2358 43.7466 31.9771 44.0294L31.9914 44.021ZM34.2054 43.3686C33.523 43.4569 32.8295 43.3398 32.2159 43.0326C32.3097 42.6489 32.0482 42.3269 31.8521 42.0049C32.4205 42.5005 33.3897 42.4333 34.1258 42.4249C34.1348 42.7424 34.1738 43.0583 34.2423 43.3686H34.2054ZM40.3956 45.4911C40.0205 46.8912 35.6066 46.6392 36.1324 44.7939C36.8713 45.7851 39.8926 45.6563 40.4496 44.8639C40.4539 45.0777 40.431 45.2913 40.3814 45.4995L40.3956 45.4911ZM39.9835 44.091C41.9105 45.4911 36.5274 45.7347 36.2148 44.6903C36.0414 43.4162 39.4549 43.741 39.9693 44.1134L39.9835 44.091ZM38.5823 43.2286C38.3635 43.8446 37.4455 43.5646 36.9083 43.8222C36.1693 44.1582 35.834 44.4354 35.0524 44.1722C34.1997 43.979 34.3958 43.5142 34.2594 42.9654C35.203 43.895 38.1503 43.2874 38.4686 42.2149C38.4797 42.562 38.5129 42.908 38.5681 43.251L38.5823 43.2286ZM38.2043 41.4421C37.6359 41.162 36.931 41.162 36.2603 41.2321C36.3768 40.7448 35.7828 40.4536 35.3337 40.392C35.7373 39.6584 36.7946 38.7931 37.6473 39.552C37.9514 39.7536 38.2867 39.6416 38.3237 40.098C38.4232 40.8036 38.0139 40.8792 38.4459 41.7193C38.3784 41.6187 38.2915 41.5321 38.1901 41.4645L38.2043 41.4421ZM38.409 41.3609C39.452 42.1169 41.1346 41.9209 42.2004 41.2713C42.2356 41.5287 42.2859 41.784 42.351 42.0357C41.146 42.957 38.7187 42.9906 38.3947 41.3833L38.409 41.3609ZM46.8132 41.2769C47.0605 42.985 43.5391 43.237 42.6637 42.3969C42.3795 42.0973 42.3965 41.6549 42.2771 41.204C43.036 42.4641 46.4409 41.9853 46.7223 40.7168C46.7308 40.8652 46.7706 41.106 46.799 41.2993L46.8132 41.2769ZM46.5773 40.3332C46.7677 41.8565 43.9597 41.9545 43.09 41.6521C41.2795 40.8736 42.9166 39.7928 44.0421 39.7172C45.7105 40.9772 46.3812 39.6836 46.5631 40.3556L46.5773 40.3332ZM46.637 39.7564C46.3718 39.9684 46.0525 40.1043 45.7141 40.1492C45.3757 40.1942 45.0312 40.1464 44.7185 40.0112C46.4864 40.07 47.5834 37.6562 46.691 36.2366C48.0638 36.9058 47.5721 38.9247 46.6114 39.7788L46.637 39.7564ZM48.9107 39.6136C48.3292 39.6024 47.7581 39.4586 47.2424 39.1935C47.3867 38.9525 47.4949 38.6922 47.5635 38.4207C48.5839 38.8491 50.0675 38.9219 50.8605 38.2415C50.6757 39.5968 49.9879 39.552 48.9079 39.636L48.9107 39.6136Z" fill="white"/>
<path d="M19.3267 26.2436C20.8103 25.7647 21.535 24.205 21.6174 22.7266C21.4441 22.833 20.5516 23.2866 20.5147 23.2866C20.7079 24.3283 20.2987 25.6835 19.3267 26.2436Z" fill="white"/>
<path d="M18.548 26.3073C20.0003 26.3745 20.6171 24.3192 20.3812 23.2999C19.9549 23.1179 16.7432 21.5582 16.2004 21.3174C15.9162 23.1795 16.4363 26.2093 18.548 26.3073ZM17.6016 24.9268C17.6726 24.6944 17.9909 24.0251 17.9682 23.9663C17.5419 23.5911 17.4822 22.6167 18.2268 22.9975C18.6304 23.2075 18.9033 24.1623 18.349 24.1539C18.3718 24.2603 18.7441 25.4504 18.6162 25.4672C18.548 25.4672 17.5646 25.0472 17.6016 24.9268Z" fill="white"/>
</svg>
