<svg width="517" height="257" viewBox="0 0 517 257" fill="none" xmlns="http://www.w3.org/2000/svg">
<g filter="url(#filter0_d_1959_3493)">
<g clip-path="url(#clip0_1959_3493)">
<rect x="5" y="5" width="505" height="245" rx="20" fill="#143A62" fill-opacity="0.05"/>
<path d="M409.085 9.26221C409.085 9.26221 381.485 71.1635 308.496 56.983C235.506 42.8025 191.53 142.568 260.535 178.945C329.541 215.321 281.718 257.11 327.74 278.455C380.048 302.715 399.553 221.593 438.088 229.128C523.136 245.756 575.745 217.238 552.483 178.86C511.649 111.492 482 113.972 494.049 70.4681C506.098 26.9638 438.053 -39.8225 409.085 9.26221Z" fill="#DEE9FF"/>
<path d="M77.0854 145.262C77.0854 145.262 49.4852 207.164 -23.5043 192.983C-96.4939 178.803 -140.47 278.568 -71.4645 314.945C-2.45911 351.321 -50.2816 393.11 -4.25974 414.455C48.0475 438.715 67.5528 357.593 106.088 365.128C191.136 381.756 243.745 353.238 220.483 314.86C179.649 247.492 150 249.972 162.049 206.468C174.098 162.964 106.053 96.1775 77.0854 145.262Z" fill="#DEE9FF"/>
<g filter="url(#filter1_d_1959_3493)">
<path d="M412.184 203.522C418.124 236.284 419.888 237.226 417.376 236.974C402.711 235.509 403.034 236.289 402.719 234.413C401.951 229.841 397.584 203.649 396.327 199.19C395.847 197.485 396.194 198.262 410.288 199.141C411.634 199.225 411.459 199.528 412.184 203.522Z" fill="#FF8832"/>
<path d="M400.639 234.271C400.949 235.976 401.226 235.439 387.68 234.216C387.056 234.16 386.65 234.007 386.538 233.285C385.427 226.094 383.843 218.996 382.431 211.862C379.471 196.924 378.579 196.722 380.589 196.906C384.986 197.302 389.386 197.655 393.789 197.964C395.337 198.075 394.023 197.917 400.639 234.271Z" fill="#FF8832"/>
<path d="M432.915 188.134C429.766 189.546 426.611 188.044 417.376 188.231C414.7 188.285 422.165 185.509 426.719 182.422C427.116 182.153 427.548 182.19 427.958 182.189C452.566 182.153 449.688 180.614 432.915 188.134Z" fill="#FF8832"/>
<path d="M412.925 189.884C414.312 189.143 427.65 190.347 427.674 190.349C411.258 197.559 411.836 197.439 411.188 197.395C407.607 197.151 404.028 196.876 400.45 196.608C400.296 196.057 400.43 196.568 412.925 189.884Z" fill="#FF8832"/>
<path fill-rule="evenodd" clip-rule="evenodd" d="M420.127 236.639C420.728 237.186 423.211 235.646 436.679 229.644C437.33 229.353 437.794 229.162 438.075 228.82C439.332 227.292 436.976 222.765 431.663 193.082C431.615 192.817 431.578 192.57 431.544 192.344C431.354 191.059 431.264 190.452 429.886 191.143C428.675 191.752 427.426 192.284 426.178 192.815C425.772 192.988 425.364 193.161 424.958 193.337C414.914 197.686 413.036 198.143 412.873 198.949C412.838 199.131 412.888 199.331 412.951 199.598C413.042 199.974 418.158 225.158 419.879 235.822C419.941 236.209 419.971 236.496 420.127 236.639ZM424.09 232.05L431.024 228.81C432.178 228.272 432.035 227.588 431.179 223.505C430.971 222.519 430.724 221.335 430.442 219.907C430.252 218.944 429.213 218.414 428.327 218.828L421.392 222.068C420.239 222.606 420.382 223.29 421.238 227.373C421.446 228.359 421.693 229.543 421.975 230.971C422.165 231.934 423.204 232.464 424.09 232.05Z" fill="#FF8832"/>
<path fill-rule="evenodd" clip-rule="evenodd" d="M440.295 227.677C441.007 228.241 443.512 226.52 455.63 221.36L455.632 221.361C457.502 220.565 457.414 220.157 455.68 212.074C454.634 207.195 452.986 199.519 450.808 187.273C450.707 186.721 450.597 186.171 450.479 185.622C450.332 184.929 450.195 184.279 450.102 183.621C450.05 183.255 450.027 182.99 449.883 182.859C449.319 182.344 446.9 183.881 433.651 189.501C433.566 189.538 433.491 189.568 433.428 189.616C432.741 190.138 433.586 192.693 439.92 226.537C440.027 227.113 440.076 227.504 440.295 227.677ZM444.46 199.698L449.614 196.813C450.475 196.332 450.298 195.477 449.469 191.469C449.268 190.499 449.028 189.343 448.757 187.965C448.567 187.001 447.746 186.428 447.087 186.797L441.933 189.682C441.072 190.164 441.249 191.019 442.078 195.026C442.279 195.997 442.519 197.152 442.791 198.531C442.981 199.494 443.801 200.067 444.46 199.698Z" fill="#FF8832"/>
<path fill-rule="evenodd" clip-rule="evenodd" d="M401.359 186.892C393.164 190.507 383.193 195.027 382.554 195.465C395.466 196.671 396.595 196.489 399.446 194.894C404.217 192.225 409.014 189.712 413.021 187.63C412.895 187.623 412.768 187.61 412.643 187.591C412.324 187.558 412.012 187.478 411.716 187.354C411.174 187.893 410.191 188.198 409.513 188.233C408.371 189.991 406.305 190.386 404.622 189.197L401.359 186.892ZM415.545 186.322C416.003 185.582 416.283 184.598 416.524 183.547C416.7 182.784 416.766 182.367 416.822 182.135L417.056 182.141C418.772 182.177 420.795 182.218 422.965 182.146C423.067 182.408 420.062 183.979 415.545 186.322Z" fill="#FF8832"/>
<path fill-rule="evenodd" clip-rule="evenodd" d="M345.447 70.6323C381.851 37.6005 440.359 51.851 452.852 93.6734L452.85 93.6739L452.899 93.8275C453.277 94.9741 453.398 95.3379 441.04 124.374C438.932 129.339 436.851 134.317 434.799 139.306C434.291 138.774 433.659 138.378 432.961 138.153C437.912 126.261 442.846 114.363 447.764 102.458C441.641 105.679 434.258 106.154 429.388 101.189C426.694 118.049 422.959 137.594 419.57 155.259C418.143 162.695 417.093 168.3 416.302 172.522L416.301 172.523C414.232 183.569 413.936 185.149 413.312 185.294C413.208 185.317 413.095 185.301 412.962 185.283L412.961 185.282L412.91 185.276C412.791 185.269 412.675 185.238 412.568 185.185C411.996 184.84 412.349 182.95 414.898 169.289C415.512 166.004 416.252 162.039 417.137 157.251C421.852 131.74 424.462 118.515 425.832 111.574C427.21 104.594 427.333 103.968 427.082 103.593C427.056 103.554 427.027 103.516 426.996 103.48C421.123 112.055 409.986 112.434 402.718 106.824C402.586 107.273 402.59 107.307 403.267 112.449L403.267 112.451C404.056 118.445 405.757 131.377 409.219 159.994C409.834 165.073 410.317 168.856 410.677 171.675C411.546 178.469 411.701 179.681 411.255 179.977C411.158 180.04 411.033 180.062 410.88 180.087L410.87 180.089C409.686 180.288 405.721 146.482 403.249 125.407C402.229 116.7 401.463 110.166 401.253 109.101C395.282 118.293 387.275 120.864 376.975 116.813C387.685 138.875 395.007 153.86 399.983 164.043C409.481 183.484 410.428 185.421 410.076 185.7C410.037 185.731 409.982 185.742 409.92 185.754C409.862 185.762 409.806 185.778 409.753 185.802C409.06 186.128 408.827 185.599 408.613 185.117C408.579 185.039 408.544 184.962 408.507 184.886C378.828 124.752 375 116.578 374.473 115.455C374.391 115.281 374.391 115.276 374.383 115.274C369.634 125.466 361.35 128.044 350.802 126.336C362.725 138.489 374.667 150.624 386.627 162.741C403.977 180.327 405.477 181.847 405.173 182.456C405.14 182.515 405.098 182.57 405.05 182.618L405.048 182.619C405.001 182.676 404.96 182.738 404.928 182.804C404.901 182.87 404.858 182.928 404.803 182.973C404.34 183.273 402.44 181.331 383.99 162.469C375.705 154.001 364.088 142.124 347.766 125.509C345.322 131.248 341.151 134.652 334.52 135.16C349.817 145.882 365.123 156.59 380.437 167.285L380.44 167.286C405.757 184.972 407.809 186.406 407.604 186.905C407.581 186.95 407.55 186.99 407.513 187.024C407.486 187.052 407.457 187.081 407.433 187.114C407.045 187.64 406.502 187.675 405.959 187.291C382.43 170.677 366.318 159.479 355.233 151.774C333.951 136.981 331.197 135.065 330.06 132.443C329.889 132.03 329.737 131.609 329.604 131.182L329.434 130.667C323.262 112.413 327.469 94.4451 336.428 81.1082C337.196 81.9445 337.973 82.7732 338.757 83.594C338.131 84.3928 337.74 84.9157 337.638 85.0757C327.976 100.285 327.245 118.199 333.033 131.729C333.343 132.456 333.69 132.665 334.463 132.625C338.577 132.416 341.552 130.303 343.875 127.068C344.349 126.403 344.809 125.727 345.253 125.041C346.708 122.825 347.235 122.022 349.356 122.84C359.363 126.699 369.034 121.292 371.633 113.652C372.5 111.106 373.764 110.955 374.961 111.974C383.692 119.406 396.108 115.128 399.075 105.388C400.119 101.962 401.328 102.943 403.098 104.378C403.799 104.947 404.588 105.587 405.49 106.053C411.775 109.301 420.518 108.866 425.577 100.604C427.86 96.8765 428.253 96.3927 429.887 98.3452C434.082 103.359 441.26 102.577 445.418 99.9141C450.494 96.664 449.767 94.723 448.208 90.7964C440.34 70.9865 418.199 54.4021 388.451 55.9053C387.51 55.9529 385.301 56.259 384.785 56.3761L384.957 56.6319C411.067 73.6219 419.146 98.2866 415.675 93.3325L414.558 91.7365C405.4 78.6492 399.22 69.8162 383.524 58.2368C381.887 57.0294 380.451 56.6602 378.593 57.2376C377.038 57.7202 375.909 57.9592 375.112 58.1288C373.604 58.4467 373.288 58.5145 373.524 59.5043C373.996 61.4746 374.45 63.3543 374.884 65.1471C374.099 64.3691 373.252 64.0497 372.376 64.2085C371.96 62.2773 371.648 60.725 371.551 60.014C371.422 59.0554 371.323 59.0954 367.867 60.5029C367.07 60.8285 366.092 61.2259 364.895 61.7005C364.065 62.0305 363.559 62.6085 363.161 63.4561C351.237 88.8094 352.042 105.355 352.369 112.137C352.476 114.316 352.533 115.485 352.103 115.616C350.406 116.133 347.301 100.688 354.582 77.9358C356.545 71.8023 358.651 67.8905 359.856 65.6533C360.185 65.0424 360.447 64.5571 360.62 64.1838C359.555 63.8088 351.441 68.8652 347.502 73.2444C346.82 74.0029 346.157 74.7493 345.522 75.4761C344.799 74.9564 344.231 74.5112 343.759 74.1433C343.332 73.8106 342.986 73.5396 342.676 73.3304C343.568 72.3987 344.492 71.4988 345.447 70.6323ZM429.307 146.922L426.936 152.607C416.993 176.444 416.041 178.727 416.67 179.321C416.744 179.385 416.826 179.437 416.914 179.477L416.919 179.48C418.077 180.084 423.717 166.32 430.809 149.017L431.507 147.317C430.919 147.328 430.104 147.265 429.307 146.922ZM376.801 78.0184C377.175 77.7362 377.528 77.4704 377.858 77.2185C379.763 84.8146 381.187 90.2275 382.264 94.3229C383.749 99.9657 384.577 103.113 385.099 106.032C385.826 110.106 381.024 101.524 375.84 79.3838L375.656 78.6019C376.071 78.4811 376.459 78.2832 376.801 78.0184Z" fill="#191919"/>
<path d="M472.948 92.9318C471.322 97.6046 460.872 94.6376 462.531 87.9058C462.882 86.4805 459.889 86.846 459.688 81.4904C459.673 81.1031 459.635 80.8744 459.272 80.6651C456.184 78.884 456.078 75.4007 456.901 72.8313C458.715 67.1736 461.581 69.0039 460.098 70.0686C458.027 71.5559 457.395 76.4939 459.001 78.427C459.575 79.1181 460.053 79.4871 460.461 78.2628C461.299 75.7501 464.329 74.3655 465.769 75.8579C467.209 77.3502 465.245 80.6539 462.188 81.0393C459.948 81.3217 461.552 84.2967 462.454 85.3306C463.76 86.8283 463.904 82.8037 467.346 82.8774C470.34 82.9423 469.05 86.996 465.297 87.6583C464.007 87.8864 463.738 88.2085 464.002 89.5281C464.655 92.8058 469.936 95.2376 472.224 92.5926C473.208 91.4553 472.994 92.8033 472.949 92.9327L472.948 92.9318ZM464.927 77.0851C464.683 76.3653 463.471 76.6638 462.862 77.1059C462.076 77.6765 461.225 79.4291 461.624 79.5754C462.836 80.0224 464.607 78.4935 464.927 77.0851ZM467.341 84.877C467.955 83.8442 466.758 83.4943 464.943 85.5941C464.002 86.6822 466.417 86.4295 467.341 84.877Z" fill="#FF8832"/>
<path d="M362.195 26.4278C359.044 28.7506 357.749 34.8621 359.682 35.0204C360.072 35.0525 360.876 31.598 363.848 31.116C367.32 30.5526 367.083 35.517 362.155 36.7533C361.792 36.8447 361.139 36.7276 361.215 37.3737C361.313 38.2167 361.744 38.9197 362.537 39.3166C363.135 39.6164 363.283 39.0405 363.499 38.7349C364.393 37.4747 365.655 36.7808 367.074 36.3493C368.835 35.8126 369.964 37.1892 368.943 38.7454C366.023 43.1963 363.28 39.6591 363.582 42.8087C363.845 45.5722 366.864 47.1703 369.647 46.0198C370.081 45.8404 370.475 45.5769 370.986 45.6219C369.563 49.4169 361.583 48.5522 362.135 41.9095C362.323 39.6564 352.607 34.5172 360.563 26.6716C360.896 26.344 361.38 26.2356 362.197 26.4274L362.195 26.4278ZM361.695 35.0897C362.642 34.7675 363.571 34.4359 364.199 33.6332C364.399 33.3774 364.89 33.0672 364.501 32.6673C363.909 32.0598 362.095 33.4053 361.695 35.0897ZM367.929 37.5346C366.215 37.593 364.474 39.2329 364.718 39.6879C364.989 40.1924 367.227 39.414 367.929 37.5346Z" fill="#FF8832"/>
<path d="M440.153 44.7506C437.15 44.7041 431.503 44.4083 432.974 41.7781C437.768 33.2053 435.624 30.5047 438.807 31.4078C444.723 33.0855 443.226 32.4731 441.827 43.241C441.691 44.2907 441.022 44.5622 440.153 44.7506ZM438.613 33.6384C437.791 33.7019 438.08 35.4627 435.66 40.9295C435.195 41.9802 435.746 41.6964 438.829 42.4691C440.186 42.8099 439.893 42.1357 440.875 35.713C441.071 34.4281 439.916 33.3646 438.613 33.6384Z" fill="#FF8832"/>
<path d="M376.105 77.0865C375.279 77.708 374.492 77.6905 373.668 76.9823C364.037 68.7012 364.357 71.2839 371.649 65.809C372.571 65.1172 373.288 65.1832 374.106 66.0143C381.983 74.0241 382.676 72.1428 376.105 77.0865ZM378.082 72.7961C377.309 71.9345 376.32 70.9884 375.477 70.1968C372.062 66.988 373.523 67.1541 369.57 69.7391C368.489 70.446 368.603 70.1584 374.586 75.1946C375.003 75.5459 375.287 75.2078 375.581 74.9561C376.409 74.2472 377.413 73.7334 378.082 72.7961Z" fill="#FF8832"/>
<path d="M337.056 80.0738C335.195 78.0592 336.896 78.2454 339.753 74.8835C340.663 73.8122 341.458 73.6766 342.488 74.6219C345.318 77.223 351.754 80.075 349.415 82.1454C343.433 87.4421 344.323 87.9354 337.056 80.0738ZM341.159 76.1441C338.84 78.4886 338.094 78.7671 339.208 79.6932C344.368 83.9792 343.52 84.9882 347.339 81.4633C348.84 80.0776 344.264 78.5591 341.782 76.3994C341.631 76.2673 341.396 76.2389 341.16 76.1451L341.159 76.1441Z" fill="#FF8832"/>
<path d="M339.537 51.7939C339.698 53.4206 339.272 54.0028 337.691 54.333C329.283 56.0868 332.988 54.4413 331.877 44.9236C331.493 41.6351 332.378 42.6033 336.727 41.7876C337.695 41.6057 337.836 41.8521 338.155 43.5653C339.887 52.8723 339.415 50.5654 339.536 51.7953L339.537 51.7939ZM337.048 52.6892C337.426 52.633 337.726 52.4589 337.667 51.8179C337.444 49.3815 337.035 46.9621 336.652 44.5434C336.514 43.6748 335.881 43.4427 335.104 43.731C334.434 43.9802 333.3 43.4913 333.446 45.0384C333.635 47.0388 334.026 49.0251 333.89 51.0638C333.794 52.5112 333.798 52.9687 334.572 52.9935C334.906 53.0046 335.201 52.9602 337.048 52.6892Z" fill="#FF8832"/>
<path d="M352.343 162.412C353.872 162.781 353.443 163.247 353.565 172.693C353.589 174.506 352.052 174.01 346.266 173.423C344.746 173.269 345.269 173.036 346.773 162.075C347.047 160.078 349.948 161.833 352.343 162.412ZM351.979 164.31C351.552 163.406 350.284 163.776 349.482 163.255C347.758 162.137 348.233 164.464 347.191 170.683C346.94 172.182 347.585 171.585 350.802 172.062C352.157 172.262 351.818 171.835 351.979 164.31Z" fill="#FF8832"/>
<path d="M391.172 39.1659C391.522 39.6668 391.629 40.3065 390.951 40.7551C388.504 42.3747 386.496 44.8136 385.008 42.7329C381.577 37.9296 380.471 36.2501 382.764 34.8906C385.352 33.355 385.301 30.7581 391.172 39.1659ZM386.936 41.6642C390.007 39.614 390.339 40.2566 387.047 36.496C385.554 34.791 385.157 34.8042 383.566 36.4681C382.887 37.1784 383.128 37.0935 386.029 41.29C386.247 41.6058 386.503 41.7851 386.935 41.6633L386.936 41.6642Z" fill="#FF8832"/>
<path d="M451.976 128.013C451.493 127.774 451.621 127.221 451.783 126.736C453.821 120.641 453.744 120.479 453.965 120.264C455.354 118.911 456.682 120.349 458.04 120.406C459.716 120.478 458.984 122.456 458.066 128.446C457.768 130.39 453.135 128.587 451.976 128.013ZM455.839 127.576C456.788 127.661 456.368 127.313 457.21 122.693C457.401 121.644 456.527 121.928 456.074 121.731C455.576 121.514 455.109 121.481 454.904 122.218C453.369 127.722 452.588 126.7 455.839 127.576Z" fill="#FF8832"/>
<path d="M432.076 146.122C427.329 147.002 425.704 140.202 430.427 139.2C435.408 138.143 436.888 145.229 432.076 146.122ZM433.177 142.338C432.71 140.013 428.855 140.667 429.345 142.946C429.52 143.762 430.863 144.536 431.806 144.365C432.635 144.215 433.344 143.169 433.177 142.338Z" fill="#FF8832"/>
<path d="M395.907 21.5187C395.09 17.1353 401.652 16.7085 402.388 21.0232C403.055 24.9283 396.794 26.2843 395.907 21.5187ZM400.556 21.3807C400.213 19.3036 397.191 19.292 397.495 21.2813C397.741 22.8874 400.503 23.3696 400.556 21.3807Z" fill="#FF8832"/>
<path d="M329.308 147.407C325.23 148.197 323.957 142.166 327.896 141.351C331.907 140.521 333.329 146.628 329.308 147.407ZM328.263 143.116C326.336 143.471 327.203 145.708 328.793 145.562C330.216 145.431 329.955 143.005 328.263 143.116Z" fill="#FF8832"/>
<path d="M426.58 86.1097C427.419 90.2442 421.257 91.1714 420.449 87.2658C419.654 83.4292 425.728 81.9064 426.58 86.1097ZM425.006 86.4684C424.676 84.5796 421.642 85.2051 422.002 86.872C422.361 88.5389 425.295 88.1279 425.006 86.4684Z" fill="#FF8832"/>
<path d="M363.052 105.273C362.017 105.462 361.399 105.101 361.186 104.044C360.975 102.997 361.437 102.363 362.398 102.112C364.327 101.609 365.366 104.851 363.052 105.273Z" fill="#FF8832"/>
<path d="M349.613 53.6339C349.97 55.3956 347.018 55.9726 346.738 54.0189C346.452 52.0188 349.225 51.7138 349.613 53.6339Z" fill="#FF8832"/>
<path d="M351.173 143.555C349.173 143.938 349.028 140.922 350.709 140.635C352.39 140.348 353.107 143.186 351.173 143.555Z" fill="#FF8832"/>
<path d="M410.992 44.8485C411.161 46.7239 408.644 47.1869 408.214 45.3298C407.785 43.4727 410.548 42.8392 410.992 44.8485Z" fill="#FF8832"/>
<path d="M458.586 95.7084C456.928 96.0026 456.282 93.3509 458.183 93.0036C460.083 92.6563 460.502 95.3676 458.586 95.7084Z" fill="#FF8832"/>
<path d="M413.893 29.7236C411.856 30.1397 411.597 27.4649 413.292 27.1443C415.101 26.8021 415.378 29.4196 413.893 29.7236Z" fill="#FF8832"/>
<path d="M347.941 32.3818C347.246 32.4104 346.576 32.354 346.425 31.4379C346.279 30.5447 346.583 29.8947 347.511 29.7279C349.081 29.4464 349.89 31.9056 347.941 32.3818Z" fill="#FF8832"/>
<path d="M444.296 57.982C444.012 56.0482 446.431 55.5118 446.852 57.4205C447.204 59.0149 444.982 59.8905 444.296 57.982Z" fill="#FF8832"/>
<path d="M359.238 174.542C359.11 173.533 359.307 172.897 360.204 172.838C360.956 172.788 361.574 173.076 361.703 173.924C361.961 175.611 359.679 176.014 359.238 174.542Z" fill="#FF8832"/>
<path d="M390.018 154.64C390.093 155.815 388.362 156.372 388.058 155.046C387.736 153.645 389.715 153.095 390.018 154.64Z" fill="#FF8832"/>
</g>
<g filter="url(#filter2_d_1959_3493)">
<path d="M42.4734 78.3516C41.5039 78.3516 40.6729 78.0107 39.9805 77.3288C39.288 76.647 38.9471 75.8161 38.9577 74.8359C38.9471 73.8771 39.288 73.0568 39.9805 72.375C40.6729 71.6932 41.5039 71.3523 42.4734 71.3523C43.4109 71.3523 44.2259 71.6932 44.9183 72.375C45.6214 73.0568 45.9783 73.8771 45.989 74.8359C45.9783 75.4858 45.8079 76.0771 45.4776 76.6097C45.158 77.1424 44.7319 77.5685 44.1992 77.8881C43.6772 78.1971 43.1019 78.3516 42.4734 78.3516ZM65.6765 78.3516C64.707 78.3516 63.8761 78.0107 63.1836 77.3288C62.4911 76.647 62.1502 75.8161 62.1609 74.8359C62.1502 73.8771 62.4911 73.0568 63.1836 72.375C63.8761 71.6932 64.707 71.3523 65.6765 71.3523C66.614 71.3523 67.429 71.6932 68.1214 72.375C68.8246 73.0568 69.1815 73.8771 69.1921 74.8359C69.1815 75.4858 69.011 76.0771 68.6808 76.6097C68.3612 77.1424 67.935 77.5685 67.4023 77.8881C66.8803 78.1971 66.305 78.3516 65.6765 78.3516ZM88.8796 78.3516C87.9102 78.3516 87.0792 78.0107 86.3867 77.3288C85.6942 76.647 85.3533 75.8161 85.364 74.8359C85.3533 73.8771 85.6942 73.0568 86.3867 72.375C87.0792 71.6932 87.9102 71.3523 88.8796 71.3523C89.8171 71.3523 90.6321 71.6932 91.3246 72.375C92.0277 73.0568 92.3846 73.8771 92.3952 74.8359C92.3846 75.4858 92.2141 76.0771 91.8839 76.6097C91.5643 77.1424 91.1381 77.5685 90.6055 77.8881C90.0835 78.1971 89.5082 78.3516 88.8796 78.3516ZM121.792 95.73C119.932 95.73 118.072 95.505 116.212 95.055C114.382 94.635 112.702 93.93 111.172 92.94C109.672 91.95 108.457 90.66 107.527 89.07C106.627 87.48 106.177 85.53 106.177 83.22C106.177 80.88 106.642 78.72 107.572 76.74C108.532 74.73 109.867 72.945 111.577 71.385C113.317 69.795 115.372 68.475 117.742 67.425C120.112 66.375 122.707 65.625 125.527 65.175L126.787 70.17C124.327 70.62 122.137 71.235 120.217 72.015C118.327 72.795 116.722 73.725 115.402 74.805C114.112 75.885 113.137 77.07 112.477 78.36C111.817 79.68 111.487 81.09 111.487 82.59C111.487 83.79 111.697 84.825 112.117 85.695C112.567 86.595 113.152 87.345 113.872 87.945C114.592 88.545 115.402 89.025 116.302 89.385C117.202 89.745 118.132 90 119.092 90.15C120.052 90.33 120.952 90.42 121.792 90.42C123.682 90.42 125.497 90.24 127.237 89.88C128.977 89.55 130.522 89.1 131.872 88.53L133.402 93.3C132.682 93.66 131.692 94.02 130.432 94.38C129.172 94.77 127.792 95.085 126.292 95.325C124.792 95.595 123.292 95.73 121.792 95.73ZM113.422 71.205C112.312 70.845 111.292 70.275 110.362 69.495C109.462 68.715 108.742 67.755 108.202 66.615C107.662 65.475 107.392 64.215 107.392 62.835C107.392 60.945 107.872 59.34 108.832 58.02C109.792 56.67 111.037 55.65 112.567 54.96C114.127 54.24 115.807 53.88 117.607 53.88C118.477 53.88 119.317 53.94 120.127 54.06C120.937 54.18 121.747 54.36 122.557 54.6L121.657 59.64C121.027 59.49 120.382 59.37 119.722 59.28C119.062 59.19 118.477 59.145 117.967 59.145C116.917 59.145 115.987 59.31 115.177 59.64C114.397 59.97 113.782 60.435 113.332 61.035C112.912 61.635 112.702 62.34 112.702 63.15C112.702 63.84 112.897 64.485 113.287 65.085C113.707 65.655 114.232 66.15 114.862 66.57C115.522 66.99 116.212 67.32 116.932 67.56C117.682 67.8 118.372 67.935 119.002 67.965L113.422 71.205ZM132.677 88.35L131.597 83.04C133.577 82.77 135.347 82.44 136.907 82.05C138.467 81.66 139.787 81.105 140.867 80.385C141.977 79.665 142.802 78.705 143.342 77.505C143.912 76.275 144.197 74.715 144.197 72.825C144.197 70.965 143.882 69.45 143.252 68.28C142.652 67.11 141.842 66.525 140.822 66.525C140.192 66.525 139.637 66.75 139.157 67.2C138.707 67.65 138.362 68.22 138.122 68.91C137.882 69.57 137.762 70.215 137.762 70.845C137.762 71.235 137.852 71.595 138.032 71.925C138.212 72.225 138.542 72.48 139.022 72.69C139.532 72.87 140.252 72.99 141.182 73.05C142.142 73.11 143.402 73.065 144.962 72.915H153.242C154.172 72.915 154.847 73.17 155.267 73.68C155.687 74.16 155.897 74.76 155.897 75.48C155.897 76.23 155.612 76.875 155.042 77.415C154.502 77.955 153.752 78.225 152.792 78.225H141.002C139.322 78.225 137.837 78.015 136.547 77.595C135.287 77.175 134.297 76.5 133.577 75.57C132.857 74.61 132.497 73.35 132.497 71.79C132.497 70.47 132.722 69.18 133.172 67.92C133.622 66.63 134.222 65.46 134.972 64.41C135.752 63.36 136.667 62.535 137.717 61.935C138.767 61.305 139.907 60.99 141.137 60.99C142.787 60.99 144.227 61.485 145.457 62.475C146.717 63.465 147.707 64.845 148.427 66.615C149.147 68.355 149.507 70.38 149.507 72.69C149.507 75.84 148.847 78.525 147.527 80.745C146.207 82.995 144.287 84.75 141.767 86.01C139.247 87.3 136.217 88.08 132.677 88.35ZM152.788 78.225L153.238 72.915C154.438 72.915 155.383 72.81 156.073 72.6C156.763 72.36 157.303 71.925 157.693 71.295C158.083 70.635 158.413 69.69 158.683 68.46C158.983 67.2 159.298 65.55 159.628 63.51L164.623 64.365C164.533 64.845 164.428 65.4 164.308 66.03C164.188 66.66 164.083 67.29 163.993 67.92C163.903 68.55 163.858 69.12 163.858 69.63C163.858 70.29 164.008 70.875 164.308 71.385C164.608 71.865 165.178 72.24 166.018 72.51C166.888 72.78 168.163 72.915 169.843 72.915C170.773 72.915 171.433 73.17 171.823 73.68C172.243 74.16 172.453 74.76 172.453 75.48C172.453 76.23 172.183 76.875 171.643 77.415C171.103 77.955 170.353 78.225 169.393 78.225C167.353 78.225 165.718 78.045 164.488 77.685C163.288 77.295 162.388 76.68 161.788 75.84C161.218 75 160.843 73.875 160.663 72.465L162.508 72.51C161.998 73.77 161.413 74.79 160.753 75.57C160.093 76.32 159.358 76.89 158.548 77.28C157.738 77.64 156.853 77.88 155.893 78C154.933 78.15 153.898 78.225 152.788 78.225ZM161.158 58.92C160.348 58.92 159.658 58.65 159.088 58.11C158.518 57.54 158.233 56.85 158.233 56.04C158.233 55.23 158.518 54.54 159.088 53.97C159.658 53.37 160.348 53.07 161.158 53.07C161.938 53.07 162.613 53.37 163.183 53.97C163.753 54.54 164.038 55.23 164.038 56.04C164.038 56.85 163.753 57.54 163.183 58.11C162.613 58.65 161.938 58.92 161.158 58.92ZM169.399 78.225L169.849 72.915C171.079 72.915 172.099 72.81 172.909 72.6C173.719 72.36 174.364 71.925 174.844 71.295C175.354 70.635 175.774 69.69 176.104 68.46C176.464 67.2 176.809 65.55 177.139 63.51L182.134 64.365C182.044 64.845 181.939 65.4 181.819 66.03C181.699 66.66 181.594 67.29 181.504 67.92C181.414 68.55 181.369 69.12 181.369 69.63C181.369 70.14 181.444 70.605 181.594 71.025C181.744 71.415 182.029 71.745 182.449 72.015C182.899 72.285 183.544 72.51 184.384 72.69C185.224 72.84 186.304 72.915 187.624 72.915C188.584 72.915 189.259 73.17 189.649 73.68C190.069 74.16 190.279 74.76 190.279 75.48C190.279 76.23 190.009 76.875 189.469 77.415C188.929 77.955 188.164 78.225 187.174 78.225C185.644 78.225 184.339 78.12 183.259 77.91C182.179 77.7 181.279 77.37 180.559 76.92C179.869 76.47 179.329 75.885 178.939 75.165C178.549 74.415 178.294 73.515 178.174 72.465L180.019 72.51C179.509 73.77 178.879 74.79 178.129 75.57C177.409 76.32 176.599 76.89 175.699 77.28C174.799 77.64 173.809 77.88 172.729 78C171.679 78.15 170.569 78.225 169.399 78.225ZM182.944 59.235C182.164 59.235 181.489 58.965 180.919 58.425C180.379 57.855 180.109 57.195 180.109 56.445C180.109 55.695 180.379 55.035 180.919 54.465C181.489 53.895 182.164 53.61 182.944 53.61C183.694 53.61 184.324 53.895 184.834 54.465C185.374 55.035 185.644 55.695 185.644 56.445C185.644 57.195 185.374 57.855 184.834 58.425C184.324 58.965 183.694 59.235 182.944 59.235ZM175.744 59.19C174.964 59.19 174.304 58.92 173.764 58.38C173.224 57.84 172.954 57.195 172.954 56.445C172.954 55.665 173.224 55.005 173.764 54.465C174.304 53.895 174.964 53.61 175.744 53.61C176.494 53.61 177.139 53.895 177.679 54.465C178.219 55.005 178.489 55.665 178.489 56.445C178.489 57.195 178.219 57.84 177.679 58.38C177.139 58.92 176.494 59.19 175.744 59.19ZM187.153 78.225L187.603 72.915C188.353 72.915 188.983 72.735 189.493 72.375C190.033 72.015 190.573 71.43 191.113 70.62C191.653 69.78 192.268 68.655 192.958 67.245C193.828 65.415 194.728 63.99 195.658 62.97C196.588 61.95 197.533 61.245 198.493 60.855C199.483 60.435 200.458 60.225 201.418 60.225C202.618 60.225 203.743 60.51 204.793 61.08C205.843 61.62 206.743 62.355 207.493 63.285C208.273 64.215 208.873 65.265 209.293 66.435C209.743 67.605 209.968 68.79 209.968 69.99C209.968 71.67 209.638 73.11 208.978 74.31C208.318 75.51 207.433 76.425 206.323 77.055C205.213 77.685 203.983 78 202.633 78C201.493 78 200.113 77.79 198.493 77.37C196.873 76.95 195.058 76.02 193.048 74.58L195.118 70.125C196.528 71.055 197.818 71.715 198.988 72.105C200.188 72.495 201.178 72.69 201.958 72.69C202.648 72.69 203.203 72.6 203.623 72.42C204.073 72.24 204.403 71.985 204.613 71.655C204.823 71.295 204.928 70.86 204.928 70.35C204.928 69.63 204.748 68.91 204.388 68.19C204.058 67.44 203.608 66.81 203.038 66.3C202.498 65.79 201.883 65.535 201.193 65.535C200.593 65.535 200.068 65.745 199.618 66.165C199.168 66.555 198.703 67.17 198.223 68.01C197.773 68.85 197.248 69.915 196.648 71.205C195.928 72.675 195.238 73.875 194.578 74.805C193.948 75.735 193.273 76.455 192.553 76.965C191.863 77.445 191.068 77.775 190.168 77.955C189.298 78.135 188.293 78.225 187.153 78.225Z" fill="#143A62"/>
<path d="M224.035 88.395L222.145 83.625C223.945 83.025 225.535 82.32 226.915 81.51C228.295 80.73 229.45 79.86 230.38 78.9C231.34 77.97 232.045 76.98 232.495 75.93C232.975 74.88 233.215 73.785 233.215 72.645C233.215 71.325 232.915 69.915 232.315 68.415C231.745 66.885 231.055 65.385 230.245 63.915L235.15 61.53C235.69 62.49 236.17 63.495 236.59 64.545C237.01 65.595 237.37 66.555 237.67 67.425C237.97 68.265 238.195 68.925 238.345 69.405C238.765 70.785 239.32 71.715 240.01 72.195C240.73 72.675 241.825 72.915 243.295 72.915C244.255 72.915 244.93 73.17 245.32 73.68C245.74 74.16 245.95 74.76 245.95 75.48C245.95 76.23 245.68 76.875 245.14 77.415C244.6 77.955 243.835 78.225 242.845 78.225C241.585 78.225 240.505 78.03 239.605 77.64C238.735 77.22 238.045 76.65 237.535 75.93C237.025 75.21 236.695 74.415 236.545 73.545L238.12 74.4C238 76.14 237.505 77.76 236.635 79.26C235.795 80.79 234.685 82.155 233.305 83.355C231.955 84.555 230.47 85.575 228.85 86.415C227.23 87.285 225.625 87.945 224.035 88.395ZM232.495 56.715C231.685 56.715 230.995 56.445 230.425 55.905C229.855 55.335 229.57 54.645 229.57 53.835C229.57 53.025 229.855 52.335 230.425 51.765C230.995 51.165 231.685 50.865 232.495 50.865C233.275 50.865 233.95 51.165 234.52 51.765C235.09 52.335 235.375 53.025 235.375 53.835C235.375 54.645 235.09 55.335 234.52 55.905C233.95 56.445 233.275 56.715 232.495 56.715ZM242.876 78.225L243.326 72.915C245.126 72.915 246.506 72.84 247.466 72.69C248.426 72.51 249.101 72.165 249.491 71.655C249.911 71.115 250.121 70.335 250.121 69.315C250.121 68.505 250.001 67.545 249.761 66.435C249.521 65.325 249.221 64.155 248.861 62.925C248.501 61.695 248.111 60.54 247.691 59.46L252.956 57.885C253.346 58.875 253.706 60.03 254.036 61.35C254.396 62.64 254.696 63.96 254.936 65.31C255.176 66.63 255.296 67.875 255.296 69.045C255.296 70.875 255.011 72.39 254.441 73.59C253.901 74.79 253.091 75.735 252.011 76.425C250.961 77.085 249.656 77.55 248.096 77.82C246.566 78.09 244.826 78.225 242.876 78.225ZM252.956 87.945C252.176 87.945 251.501 87.66 250.931 87.09C250.391 86.55 250.121 85.905 250.121 85.155C250.121 84.405 250.391 83.745 250.931 83.175C251.471 82.605 252.146 82.32 252.956 82.32C253.706 82.32 254.336 82.605 254.846 83.175C255.386 83.745 255.656 84.405 255.656 85.155C255.656 85.905 255.386 86.55 254.846 87.09C254.306 87.66 253.676 87.945 252.956 87.945ZM245.756 87.945C244.976 87.945 244.316 87.66 243.776 87.09C243.236 86.55 242.966 85.905 242.966 85.155C242.966 84.405 243.236 83.745 243.776 83.175C244.316 82.605 244.976 82.32 245.756 82.32C246.506 82.32 247.151 82.605 247.691 83.175C248.231 83.745 248.501 84.405 248.501 85.155C248.501 85.905 248.231 86.55 247.691 87.09C247.151 87.66 246.506 87.945 245.756 87.945ZM261.818 78L260.873 45.375H266.183L267.083 78H261.818ZM272.248 88.35L271.168 83.04C273.148 82.77 274.918 82.44 276.478 82.05C278.038 81.66 279.358 81.105 280.438 80.385C281.548 79.665 282.373 78.705 282.913 77.505C283.483 76.275 283.768 74.715 283.768 72.825C283.768 70.965 283.453 69.45 282.823 68.28C282.223 67.11 281.413 66.525 280.393 66.525C279.763 66.525 279.208 66.75 278.728 67.2C278.278 67.65 277.933 68.22 277.693 68.91C277.453 69.57 277.333 70.215 277.333 70.845C277.333 71.235 277.423 71.595 277.603 71.925C277.783 72.225 278.113 72.48 278.593 72.69C279.103 72.87 279.823 72.99 280.753 73.05C281.713 73.11 282.973 73.065 284.533 72.915H292.813C293.743 72.915 294.418 73.17 294.838 73.68C295.258 74.16 295.468 74.76 295.468 75.48C295.468 76.23 295.183 76.875 294.613 77.415C294.073 77.955 293.323 78.225 292.363 78.225H280.573C278.893 78.225 277.408 78.015 276.118 77.595C274.858 77.175 273.868 76.5 273.148 75.57C272.428 74.61 272.068 73.35 272.068 71.79C272.068 70.47 272.293 69.18 272.743 67.92C273.193 66.63 273.793 65.46 274.543 64.41C275.323 63.36 276.238 62.535 277.288 61.935C278.338 61.305 279.478 60.99 280.708 60.99C282.358 60.99 283.798 61.485 285.028 62.475C286.288 63.465 287.278 64.845 287.998 66.615C288.718 68.355 289.078 70.38 289.078 72.69C289.078 75.84 288.418 78.525 287.098 80.745C285.778 82.995 283.858 84.75 281.338 86.01C278.818 87.3 275.788 88.08 272.248 88.35ZM292.358 78.225L292.808 72.915C294.398 72.915 295.973 72.81 297.533 72.6C299.093 72.39 300.608 72.09 302.078 71.7C303.548 71.31 304.958 70.815 306.308 70.215C307.658 69.615 308.933 68.91 310.133 68.1C309.293 67.5 308.348 66.99 307.298 66.57C306.278 66.12 305.168 65.79 303.968 65.58C302.768 65.34 301.493 65.22 300.143 65.22C299.663 65.22 299.183 65.235 298.703 65.265C298.223 65.295 297.728 65.355 297.218 65.445C296.738 65.505 296.228 65.595 295.688 65.715L294.878 60.585C295.718 60.345 296.588 60.165 297.488 60.045C298.418 59.925 299.258 59.865 300.008 59.865C301.598 59.865 303.053 60.045 304.373 60.405C305.693 60.765 306.908 61.215 308.018 61.755C309.128 62.295 310.163 62.835 311.123 63.375C312.113 63.915 313.058 64.38 313.958 64.77C314.858 65.13 315.758 65.31 316.658 65.31H318.053L318.593 70.26C317.303 70.29 316.103 70.515 314.993 70.935C313.883 71.325 312.788 71.835 311.708 72.465C310.658 73.065 309.533 73.695 308.333 74.355C307.133 75.015 305.783 75.645 304.283 76.245C302.783 76.815 301.058 77.295 299.108 77.685C297.158 78.045 294.908 78.225 292.358 78.225ZM305.498 87.72C304.718 87.72 304.058 87.45 303.518 86.91C302.978 86.37 302.708 85.725 302.708 84.975C302.708 84.195 302.978 83.52 303.518 82.95C304.058 82.38 304.718 82.095 305.498 82.095C306.278 82.095 306.938 82.38 307.478 82.95C308.048 83.52 308.333 84.195 308.333 84.975C308.333 85.725 308.048 86.37 307.478 86.91C306.938 87.45 306.278 87.72 305.498 87.72Z" fill="#143A62"/>
<path d="M224.035 88.395L222.145 83.625C223.945 83.025 225.535 82.32 226.915 81.51C228.295 80.73 229.45 79.86 230.38 78.9C231.34 77.97 232.045 76.98 232.495 75.93C232.975 74.88 233.215 73.785 233.215 72.645C233.215 71.325 232.915 69.915 232.315 68.415C231.745 66.885 231.055 65.385 230.245 63.915L235.15 61.53C235.69 62.49 236.17 63.495 236.59 64.545C237.01 65.595 237.37 66.555 237.67 67.425C237.97 68.265 238.195 68.925 238.345 69.405C238.765 70.785 239.32 71.715 240.01 72.195C240.73 72.675 241.825 72.915 243.295 72.915C244.255 72.915 244.93 73.17 245.32 73.68C245.74 74.16 245.95 74.76 245.95 75.48C245.95 76.23 245.68 76.875 245.14 77.415C244.6 77.955 243.835 78.225 242.845 78.225C241.585 78.225 240.505 78.03 239.605 77.64C238.735 77.22 238.045 76.65 237.535 75.93C237.025 75.21 236.695 74.415 236.545 73.545L238.12 74.4C238 76.14 237.505 77.76 236.635 79.26C235.795 80.79 234.685 82.155 233.305 83.355C231.955 84.555 230.47 85.575 228.85 86.415C227.23 87.285 225.625 87.945 224.035 88.395ZM232.495 56.715C231.685 56.715 230.995 56.445 230.425 55.905C229.855 55.335 229.57 54.645 229.57 53.835C229.57 53.025 229.855 52.335 230.425 51.765C230.995 51.165 231.685 50.865 232.495 50.865C233.275 50.865 233.95 51.165 234.52 51.765C235.09 52.335 235.375 53.025 235.375 53.835C235.375 54.645 235.09 55.335 234.52 55.905C233.95 56.445 233.275 56.715 232.495 56.715ZM242.876 78.225L243.326 72.915C245.126 72.915 246.506 72.84 247.466 72.69C248.426 72.51 249.101 72.165 249.491 71.655C249.911 71.115 250.121 70.335 250.121 69.315C250.121 68.505 250.001 67.545 249.761 66.435C249.521 65.325 249.221 64.155 248.861 62.925C248.501 61.695 248.111 60.54 247.691 59.46L252.956 57.885C253.346 58.875 253.706 60.03 254.036 61.35C254.396 62.64 254.696 63.96 254.936 65.31C255.176 66.63 255.296 67.875 255.296 69.045C255.296 70.875 255.011 72.39 254.441 73.59C253.901 74.79 253.091 75.735 252.011 76.425C250.961 77.085 249.656 77.55 248.096 77.82C246.566 78.09 244.826 78.225 242.876 78.225ZM252.956 87.945C252.176 87.945 251.501 87.66 250.931 87.09C250.391 86.55 250.121 85.905 250.121 85.155C250.121 84.405 250.391 83.745 250.931 83.175C251.471 82.605 252.146 82.32 252.956 82.32C253.706 82.32 254.336 82.605 254.846 83.175C255.386 83.745 255.656 84.405 255.656 85.155C255.656 85.905 255.386 86.55 254.846 87.09C254.306 87.66 253.676 87.945 252.956 87.945ZM245.756 87.945C244.976 87.945 244.316 87.66 243.776 87.09C243.236 86.55 242.966 85.905 242.966 85.155C242.966 84.405 243.236 83.745 243.776 83.175C244.316 82.605 244.976 82.32 245.756 82.32C246.506 82.32 247.151 82.605 247.691 83.175C248.231 83.745 248.501 84.405 248.501 85.155C248.501 85.905 248.231 86.55 247.691 87.09C247.151 87.66 246.506 87.945 245.756 87.945ZM261.818 78L260.873 45.375H266.183L267.083 78H261.818ZM272.248 88.35L271.168 83.04C273.148 82.77 274.918 82.44 276.478 82.05C278.038 81.66 279.358 81.105 280.438 80.385C281.548 79.665 282.373 78.705 282.913 77.505C283.483 76.275 283.768 74.715 283.768 72.825C283.768 70.965 283.453 69.45 282.823 68.28C282.223 67.11 281.413 66.525 280.393 66.525C279.763 66.525 279.208 66.75 278.728 67.2C278.278 67.65 277.933 68.22 277.693 68.91C277.453 69.57 277.333 70.215 277.333 70.845C277.333 71.235 277.423 71.595 277.603 71.925C277.783 72.225 278.113 72.48 278.593 72.69C279.103 72.87 279.823 72.99 280.753 73.05C281.713 73.11 282.973 73.065 284.533 72.915H292.813C293.743 72.915 294.418 73.17 294.838 73.68C295.258 74.16 295.468 74.76 295.468 75.48C295.468 76.23 295.183 76.875 294.613 77.415C294.073 77.955 293.323 78.225 292.363 78.225H280.573C278.893 78.225 277.408 78.015 276.118 77.595C274.858 77.175 273.868 76.5 273.148 75.57C272.428 74.61 272.068 73.35 272.068 71.79C272.068 70.47 272.293 69.18 272.743 67.92C273.193 66.63 273.793 65.46 274.543 64.41C275.323 63.36 276.238 62.535 277.288 61.935C278.338 61.305 279.478 60.99 280.708 60.99C282.358 60.99 283.798 61.485 285.028 62.475C286.288 63.465 287.278 64.845 287.998 66.615C288.718 68.355 289.078 70.38 289.078 72.69C289.078 75.84 288.418 78.525 287.098 80.745C285.778 82.995 283.858 84.75 281.338 86.01C278.818 87.3 275.788 88.08 272.248 88.35ZM292.358 78.225L292.808 72.915C294.398 72.915 295.973 72.81 297.533 72.6C299.093 72.39 300.608 72.09 302.078 71.7C303.548 71.31 304.958 70.815 306.308 70.215C307.658 69.615 308.933 68.91 310.133 68.1C309.293 67.5 308.348 66.99 307.298 66.57C306.278 66.12 305.168 65.79 303.968 65.58C302.768 65.34 301.493 65.22 300.143 65.22C299.663 65.22 299.183 65.235 298.703 65.265C298.223 65.295 297.728 65.355 297.218 65.445C296.738 65.505 296.228 65.595 295.688 65.715L294.878 60.585C295.718 60.345 296.588 60.165 297.488 60.045C298.418 59.925 299.258 59.865 300.008 59.865C301.598 59.865 303.053 60.045 304.373 60.405C305.693 60.765 306.908 61.215 308.018 61.755C309.128 62.295 310.163 62.835 311.123 63.375C312.113 63.915 313.058 64.38 313.958 64.77C314.858 65.13 315.758 65.31 316.658 65.31H318.053L318.593 70.26C317.303 70.29 316.103 70.515 314.993 70.935C313.883 71.325 312.788 71.835 311.708 72.465C310.658 73.065 309.533 73.695 308.333 74.355C307.133 75.015 305.783 75.645 304.283 76.245C302.783 76.815 301.058 77.295 299.108 77.685C297.158 78.045 294.908 78.225 292.358 78.225ZM305.498 87.72C304.718 87.72 304.058 87.45 303.518 86.91C302.978 86.37 302.708 85.725 302.708 84.975C302.708 84.195 302.978 83.52 303.518 82.95C304.058 82.38 304.718 82.095 305.498 82.095C306.278 82.095 306.938 82.38 307.478 82.95C308.048 83.52 308.333 84.195 308.333 84.975C308.333 85.725 308.048 86.37 307.478 86.91C306.938 87.45 306.278 87.72 305.498 87.72Z" fill="black" fill-opacity="0.2"/>
</g>
</g>
</g>
<defs>
<filter id="filter0_d_1959_3493" x="0" y="0" width="517" height="257" filterUnits="userSpaceOnUse" color-interpolation-filters="sRGB">
<feFlood flood-opacity="0" result="BackgroundImageFix"/>
<feColorMatrix in="SourceAlpha" type="matrix" values="0 0 0 0 0 0 0 0 0 0 0 0 0 0 0 0 0 0 127 0" result="hardAlpha"/>
<feOffset dx="1" dy="1"/>
<feGaussianBlur stdDeviation="3"/>
<feComposite in2="hardAlpha" operator="out"/>
<feColorMatrix type="matrix" values="0 0 0 0 0 0 0 0 0 0 0 0 0 0 0 0 0 0 0.2 0"/>
<feBlend mode="normal" in2="BackgroundImageFix" result="effect1_dropShadow_1959_3493"/>
<feBlend mode="normal" in="SourceGraphic" in2="effect1_dropShadow_1959_3493" result="shape"/>
</filter>
<filter id="filter1_d_1959_3493" x="322.513" y="17" width="155.487" height="227" filterUnits="userSpaceOnUse" color-interpolation-filters="sRGB">
<feFlood flood-opacity="0" result="BackgroundImageFix"/>
<feColorMatrix in="SourceAlpha" type="matrix" values="0 0 0 0 0 0 0 0 0 0 0 0 0 0 0 0 0 0 127 0" result="hardAlpha"/>
<feOffset dx="1" dy="3"/>
<feGaussianBlur stdDeviation="2"/>
<feComposite in2="hardAlpha" operator="out"/>
<feColorMatrix type="matrix" values="0 0 0 0 0 0 0 0 0 0 0 0 0 0 0 0 0 0 0.25 0"/>
<feBlend mode="normal" in2="BackgroundImageFix" result="effect1_dropShadow_1959_3493"/>
<feBlend mode="normal" in="SourceGraphic" in2="effect1_dropShadow_1959_3493" result="shape"/>
</filter>
<filter id="filter2_d_1959_3493" x="36.9414" y="44.375" width="287.652" height="58.3555" filterUnits="userSpaceOnUse" color-interpolation-filters="sRGB">
<feFlood flood-opacity="0" result="BackgroundImageFix"/>
<feColorMatrix in="SourceAlpha" type="matrix" values="0 0 0 0 0 0 0 0 0 0 0 0 0 0 0 0 0 0 127 0" result="hardAlpha"/>
<feOffset dx="2" dy="3"/>
<feGaussianBlur stdDeviation="2"/>
<feComposite in2="hardAlpha" operator="out"/>
<feColorMatrix type="matrix" values="0 0 0 0 0 0 0 0 0 0 0 0 0 0 0 0 0 0 0.25 0"/>
<feBlend mode="normal" in2="BackgroundImageFix" result="effect1_dropShadow_1959_3493"/>
<feBlend mode="normal" in="SourceGraphic" in2="effect1_dropShadow_1959_3493" result="shape"/>
</filter>
<clipPath id="clip0_1959_3493">
<rect x="5" y="5" width="505" height="245" rx="20" fill="white"/>
</clipPath>
</defs>
</svg>
