<svg width="239" height="270" viewBox="0 0 239 270" fill="none" xmlns="http://www.w3.org/2000/svg">
<rect width="239" height="270" rx="30" fill="#143A62"/>
<path d="M30.2209 153.406C29.3082 157.228 29.6807 161.238 31.2827 164.834C31.3621 165.036 31.4866 165.217 31.6468 165.365C31.8071 165.513 31.9991 165.623 32.2086 165.689C32.2086 166.472 33.7245 174.284 34.2409 177.883C32.8929 179.209 31.4258 183.428 31.9266 186.901C33.5586 198.241 50.8361 199.582 62.5093 199.762C63.1075 201.903 65.904 213.912 66.7605 217.911C69.4024 230.312 70.713 239.366 71.3787 242.243C71.8175 243.534 71.8415 244.926 71.4472 246.23C71.3438 246.539 71.1743 246.822 70.9502 247.061C70.7262 247.3 70.4527 247.489 70.1481 247.615C69.8436 247.741 69.5151 247.802 69.1847 247.793C68.8543 247.784 68.5298 247.706 68.2328 247.563C66.5925 246.624 64.9625 238.608 64.8568 238.08C62.3195 225.408 60.7984 215.835 58.9466 204.127C59.7336 204.227 60.5337 204.131 61.2733 203.848C61.3268 203.815 61.3694 203.767 61.3962 203.711C61.423 203.654 61.4329 203.591 61.4246 203.529C61.4163 203.468 61.3903 203.409 61.3495 203.362C61.3087 203.314 61.255 203.279 61.1945 203.26C60.6696 203.165 60.13 203.184 59.6133 203.315C56.7173 203.63 46.5144 203.832 40.7753 203.716C36.7677 203.634 32.1557 202.696 31.0857 198.917C30.7269 197.651 21 169.042 21 162.768C20.9927 156.241 25.528 152.455 30.2209 153.406ZM27.0584 173.841C29.3634 182.656 29.6154 184.476 30.3899 185.713C30.4149 185.751 30.4516 185.78 30.4948 185.796C30.5379 185.812 30.5851 185.814 30.6294 185.802C30.6737 185.789 30.7127 185.763 30.7408 185.727C30.7688 185.691 30.7843 185.647 30.785 185.602C30.737 184.439 30.5276 183.288 30.1628 182.181C29.9067 181.213 28.4001 175.206 27.8589 173.174C26.0267 166.326 24.5098 162.371 26.6053 155.472C26.6186 155.428 26.6148 155.38 26.5947 155.338C26.5746 155.297 26.5396 155.264 26.4964 155.246C26.4532 155.228 26.4048 155.226 26.3604 155.241C26.316 155.256 26.2788 155.287 26.2559 155.327C22.8591 160.478 25.9448 169.585 27.0574 173.841H27.0584Z" fill="#00B6FF"/>
<path d="M33.0313 202.705C34.3099 203.458 35.7322 203.944 37.21 204.133C36.1295 209.818 31.4729 233.853 29.6211 240.093C28.7034 243.181 27.7682 248.324 24.7871 246.967C21.9533 245.677 23.6683 241.68 24.109 239.537C26.5913 227.45 29.3701 214.541 33.0313 202.705Z" fill="#00B6FF"/>
<path d="M76.0051 247.995C79.6818 247.726 76.144 247.934 131.118 247.318C132.028 238.077 131.551 234.861 132.051 185.426C118.319 185.36 83.0589 185.163 79.1707 185.094C79.0642 185.094 78.9622 185.052 78.8869 184.978C78.8117 184.904 78.7694 184.804 78.7694 184.699C78.7694 184.594 78.8117 184.494 78.8869 184.42C78.9622 184.346 79.0642 184.305 79.1707 184.305C93.1177 184.067 128.795 184.203 132.68 184.193C132.846 184.197 133.005 184.263 133.123 184.379C133.241 184.495 133.309 184.651 133.312 184.815C133.312 184.967 133.209 238.849 132.183 247.874C132.18 248.021 132.12 248.161 132.014 248.264C131.909 248.368 131.767 248.427 131.618 248.43C117.219 248.503 80.1184 249.11 75.9968 248.885C75.8767 248.884 75.7621 248.836 75.678 248.752C75.5938 248.667 75.5472 248.554 75.5483 248.436C75.5494 248.318 75.5982 248.205 75.6838 248.122C75.7695 248.04 75.885 247.994 76.0051 247.995Z" fill="white"/>
<path d="M78.1724 185.611C78.2408 185.266 78.7738 185.355 78.7831 185.688C78.8433 188.076 78.2875 191.835 77.5513 208.988C77.2175 216.773 76.4802 243.655 76.2418 245.96C76.2418 246.056 76.2031 246.147 76.1342 246.215C76.0654 246.283 75.972 246.321 75.8747 246.321C75.7773 246.321 75.684 246.283 75.6152 246.215C75.5463 246.147 75.5076 246.056 75.5076 245.96C75.4527 243.944 76.5694 193.781 78.1724 185.611Z" fill="white"/>
<path d="M132.145 183.451C130.051 182.306 128.042 181.018 126.131 179.597C124.155 178.253 112.321 170.21 111.336 169.535C109.225 168.086 109.934 168.369 102.64 168.369C101.982 168.417 101.32 168.383 100.67 168.267C100.59 168.242 100.519 168.193 100.469 168.126C100.418 168.059 100.391 167.978 100.391 167.895C100.391 167.812 100.418 167.73 100.469 167.663C100.519 167.597 100.59 167.547 100.67 167.523C101.21 167.392 101.129 167.421 107.785 167.421C110.451 167.421 110.676 167.93 113.67 169.986C130.766 181.758 131.132 181.896 132.451 183.103C132.63 183.269 132.37 183.553 132.145 183.451Z" fill="white"/>
<path d="M98.456 169.476C97.8608 171.38 97.9697 170.615 93.058 170.743C92.674 170.788 92.2853 170.773 91.906 170.699C91.1802 170.483 90.9728 169.699 90.7094 169.088C89.5679 166.428 88.7746 163.637 88.3485 160.781C88.3297 160.707 88.328 160.63 88.3434 160.556C88.3588 160.481 88.3909 160.411 88.4374 160.35C88.4839 160.29 88.5437 160.24 88.6122 160.205C88.6808 160.17 88.7565 160.15 88.8337 160.148C90.3818 160.148 91.9444 160.136 93.4997 160.125C93.2397 157.683 93.115 155.229 93.1264 152.774C93.1318 152.681 93.1662 152.592 93.2248 152.519C93.2834 152.446 93.3635 152.393 93.4541 152.366C93.5664 152.336 93.6859 152.351 93.7872 152.407C93.8884 152.463 93.9635 152.556 93.9963 152.666C94.1365 153.915 94.1895 155.173 94.155 156.43C94.2149 157.667 94.1958 158.905 94.098 160.14H95.4532C96.4817 154.575 96.2339 153.806 96.7296 150.344C96.7721 150.044 97.2366 150.134 97.248 150.411C97.3167 153.683 96.9983 156.951 96.2993 160.151C96.5066 160.151 96.6943 160.151 96.8975 160.162C96.8975 160.066 97.95 156.593 98.0495 156.264C98.3677 155.024 98.7909 153.813 99.3145 152.643C99.3413 152.601 99.3811 152.568 99.4282 152.549C99.4753 152.531 99.5271 152.527 99.5763 152.54C99.6254 152.552 99.6693 152.58 99.7014 152.618C99.7336 152.657 99.7524 152.705 99.7552 152.754C99.3317 155.278 98.6857 157.76 97.8245 160.173C98.2869 160.184 98.7504 160.193 99.2015 160.207C99.3308 160.213 99.4528 160.267 99.5422 160.359C99.6316 160.451 99.6815 160.574 99.6815 160.701C99.6815 160.828 99.6316 160.95 99.5422 161.042C99.4528 161.134 99.3308 161.189 99.2015 161.195C95.9488 161.261 92.6971 161.195 89.4445 161.15C89.8644 163.938 90.654 166.66 91.793 169.247C91.906 169.502 91.9724 169.785 92.2897 169.859C92.5188 169.911 92.2202 169.825 94.5262 169.825C97.9863 169.825 97.3019 170.296 97.6316 169.248C97.9012 168.392 99.8817 162.055 100.328 161.085C100.486 160.741 100.963 161.007 100.903 161.329C100.761 162.11 98.6924 168.721 98.456 169.476Z" fill="white"/>
<path d="M74.2875 167.455C75.4727 167.336 76.6655 167.306 77.8554 167.366C87.6197 167.495 88.2957 167.511 89.4093 167.711C89.6582 167.755 89.6685 168.174 89.4093 168.21C86.9457 168.56 76.8102 168.133 74.8744 168.312C77.3494 178.611 78.8145 181.903 78.8498 183.294C78.8473 183.357 78.8244 183.417 78.7844 183.467C78.7443 183.516 78.6893 183.551 78.6273 183.567C78.5654 183.584 78.4997 183.58 78.4401 183.557C78.3805 183.533 78.33 183.492 78.2961 183.439C77.3173 181.994 74.3207 170.285 73.824 168.042C73.8086 167.973 73.8089 167.901 73.8248 167.832C73.8407 167.763 73.8719 167.698 73.9161 167.642C73.9603 167.586 74.0165 167.54 74.0807 167.508C74.1448 167.476 74.2154 167.457 74.2875 167.455Z" fill="white"/>
<path d="M114.346 174.498C114.11 174.275 114.404 173.927 114.684 174.065C116.892 175.143 120.956 178.815 122.772 180.462C122.831 180.523 122.87 180.6 122.885 180.683C122.9 180.766 122.89 180.852 122.857 180.929C122.823 181.007 122.767 181.073 122.696 181.12C122.625 181.167 122.541 181.193 122.455 181.194C120.703 181.264 106.354 181.676 103.37 181.55C103.267 181.544 103.17 181.501 103.099 181.427C103.028 181.354 102.989 181.257 102.989 181.156C102.989 181.054 103.028 180.957 103.099 180.884C103.17 180.81 103.267 180.767 103.37 180.761C106.531 180.558 109.739 180.61 112.909 180.539C115.732 180.476 118.544 180.362 121.368 180.328C118.105 177.3 116.073 176.136 114.346 174.498Z" fill="white"/>
<path d="M102.42 181.292C101.147 180.352 99.9462 179.32 98.8285 178.205C97.6243 177.122 96.4233 176.037 95.2253 174.95C95.1656 174.888 95.1253 174.81 95.1092 174.725C95.0932 174.641 95.102 174.554 95.1348 174.474C95.1675 174.395 95.2227 174.326 95.2939 174.277C95.3651 174.227 95.4493 174.199 95.5364 174.195C97.9772 173.991 112.454 172.986 114.194 173.574C114.251 173.59 114.302 173.624 114.338 173.671C114.374 173.718 114.393 173.775 114.393 173.834C114.393 173.893 114.374 173.95 114.338 173.997C114.302 174.044 114.251 174.078 114.194 174.095C113.469 174.236 112.729 174.281 111.992 174.228C106.015 174.318 102.47 174.573 96.6096 174.995C101.55 179.498 101.849 179.457 102.877 180.714C103.125 181.01 102.792 181.537 102.42 181.292Z" fill="white"/>
<path d="M109.421 175.206C110.289 175.79 111.009 176.406 112.855 177.904C113.183 178.17 113.544 178.371 113.657 178.793C113.668 178.833 113.669 178.875 113.661 178.915C113.654 178.956 113.637 178.994 113.612 179.027C113.587 179.06 113.555 179.087 113.517 179.106C113.48 179.125 113.439 179.136 113.397 179.137C112.916 179.112 112.679 178.839 111.262 177.683C110.469 177.07 109.732 176.389 109.059 175.649C108.862 175.421 109.126 175.007 109.421 175.206Z" fill="white"/>
<path d="M109.196 178.838C108.623 178.714 108.34 178.388 106.123 176.186C105.966 176.03 106.17 175.74 106.372 175.864C106.981 176.248 107.57 176.663 108.135 177.108C108.717 177.453 109.187 177.954 109.49 178.552C109.557 178.716 109.365 178.874 109.196 178.838Z" fill="white"/>
<path d="M103.21 175.761C103.957 176.338 104.671 176.913 105.357 177.55C105.875 178.036 106.835 178.672 106.971 179.394C106.981 179.432 106.981 179.472 106.97 179.51C106.959 179.549 106.939 179.583 106.91 179.611C106.882 179.639 106.847 179.659 106.808 179.67C106.769 179.68 106.728 179.681 106.689 179.671C105.946 179.548 105.257 178.636 104.746 178.142C104.072 177.484 103.46 176.808 102.848 176.109C102.825 176.086 102.807 176.058 102.794 176.028C102.782 175.998 102.776 175.965 102.776 175.932C102.777 175.9 102.784 175.867 102.797 175.837C102.81 175.807 102.829 175.78 102.852 175.757C102.876 175.735 102.904 175.717 102.935 175.704C102.966 175.692 102.999 175.686 103.032 175.687C103.065 175.687 103.098 175.694 103.129 175.707C103.159 175.719 103.187 175.738 103.21 175.761Z" fill="white"/>
<path d="M173.445 138.385C173.377 138.31 173.327 138.221 173.298 138.124C173.269 138.028 173.261 137.926 173.276 137.827C173.292 137.727 173.329 137.632 173.385 137.548C173.441 137.464 173.516 137.394 173.603 137.341C173.699 137.275 173.811 137.238 173.928 137.234C174.044 137.23 174.16 137.258 174.26 137.317C174.36 137.376 174.441 137.461 174.493 137.564C174.545 137.667 174.566 137.782 174.553 137.896C174.571 138.029 174.545 138.164 174.479 138.281C174.413 138.399 174.31 138.492 174.185 138.547C174.06 138.602 173.921 138.616 173.788 138.587C173.654 138.558 173.534 138.487 173.445 138.385Z" fill="white"/>
<path d="M163.148 152.005C163.572 151.732 164.076 151.603 164.582 151.639C166.364 151.532 168.151 151.7 169.88 152.138C170.152 152.224 170.116 152.671 169.812 152.648C164.927 152.302 163.89 152.841 163.205 152.492C163.164 152.467 163.13 152.433 163.105 152.393C163.08 152.353 163.064 152.308 163.058 152.262C163.053 152.215 163.058 152.168 163.073 152.123C163.089 152.079 163.114 152.038 163.148 152.005Z" fill="white"/>
<path d="M165.74 153.527C166.828 153.462 167.918 153.64 168.926 154.049C168.98 154.081 169.022 154.13 169.046 154.188C169.069 154.246 169.073 154.31 169.056 154.37C169.04 154.43 169.003 154.483 168.953 154.522C168.903 154.56 168.842 154.581 168.779 154.582C167.672 154.551 166.564 154.48 165.469 154.449C163.815 154.403 163.46 154.463 163.131 154.041C163.099 153.99 163.086 153.931 163.094 153.872C163.103 153.813 163.132 153.759 163.177 153.719C163.449 153.398 163.712 153.402 165.74 153.527Z" fill="white"/>
<path d="M73.8012 183.547C72.6202 182.359 71.163 181.471 69.5551 180.959C66.5928 179.899 59.317 177.911 58.2158 177.384C57.5865 177.016 57.1187 176.432 56.9036 175.744C56.6885 175.056 56.7416 174.314 57.0525 173.663C57.068 173.615 57.1003 173.573 57.1439 173.546C57.1874 173.518 57.2394 173.507 57.2906 173.514C57.3418 173.52 57.389 173.544 57.424 173.582C57.4589 173.619 57.4794 173.667 57.4817 173.718C57.3787 174.509 57.4679 175.313 57.742 176.063C58.2034 176.853 59.3678 176.986 60.1807 177.23C62.1124 177.809 64.0348 178.378 65.9634 178.951C68.7972 179.793 73.3802 180.794 74.2978 183.282C74.4005 183.553 74.0023 183.704 73.8012 183.547Z" fill="white"/>
<path d="M51.066 136.701C50.9986 136.629 50.9535 136.54 50.9361 136.444C50.9187 136.348 50.9296 136.249 50.9677 136.159C51.0057 136.069 51.0693 135.992 51.1507 135.936C51.2322 135.88 51.3283 135.848 51.4275 135.845C51.4944 135.844 51.5607 135.857 51.6226 135.882C51.6845 135.907 51.7407 135.944 51.788 135.991C51.8354 136.037 51.8729 136.092 51.8983 136.153C51.9238 136.214 51.9368 136.279 51.9365 136.345C51.9354 136.443 51.9049 136.54 51.8488 136.621C51.7926 136.703 51.7133 136.767 51.6207 136.805C51.528 136.843 51.4261 136.853 51.3275 136.835C51.229 136.816 51.138 136.77 51.066 136.701Z" fill="white"/>
<path d="M47.5767 136.324C47.6981 136.324 47.8144 136.372 47.9002 136.456C47.986 136.54 48.0342 136.655 48.0342 136.774C48.0342 136.893 47.986 137.007 47.9002 137.092C47.8144 137.176 47.6981 137.223 47.5767 137.223C47.4554 137.223 47.3391 137.176 47.2533 137.092C47.1675 137.007 47.1193 136.893 47.1193 136.774C47.1193 136.655 47.1675 136.54 47.2533 136.456C47.3391 136.372 47.4554 136.324 47.5767 136.324Z" fill="white"/>
<path d="M49.9043 140.144C49.8382 140.143 49.7738 140.123 49.7192 140.086C49.6646 140.049 49.622 139.998 49.5968 139.937C49.5716 139.877 49.5648 139.811 49.5772 139.747C49.5897 139.683 49.6208 139.624 49.6669 139.577C49.8815 139.366 50.594 139.21 50.5369 138.864C49.7805 137.936 49.3417 136.797 49.2832 135.609C49.2858 135.548 49.3103 135.49 49.3525 135.444C49.3947 135.399 49.4517 135.37 49.5137 135.362C49.5756 135.354 49.6384 135.367 49.6911 135.4C49.7438 135.433 49.783 135.484 49.8017 135.542C50.0936 136.659 50.6239 137.702 51.3572 138.601C51.8332 139.368 50.6261 140.225 49.9043 140.144Z" fill="white"/>
<path d="M48.3557 140.178C49.2963 141.342 50.5065 141.197 51.3268 141.522C51.529 141.602 51.586 141.921 51.3268 141.977C50.8074 142.055 50.2772 142.026 49.7697 141.892C49.2622 141.758 48.7885 141.522 48.3785 141.199C48.2958 141.885 48.3892 142.58 48.6503 143.222C48.8577 143.689 49.2403 144.213 49.7682 143.776C50.0461 143.489 50.2614 143.149 50.4007 142.777C50.5677 142.442 51.0582 142.632 51.0779 142.954C51.0543 143.267 50.9587 143.571 50.7983 143.842C50.6379 144.114 50.4168 144.346 50.1518 144.521C49.9089 144.704 49.6063 144.794 49.3009 144.773C48.9954 144.753 48.7081 144.623 48.4926 144.41C47.4214 143.408 47.5531 141.647 47.747 140.33C47.764 140.27 47.7969 140.215 47.8424 140.171C47.888 140.127 47.9445 140.096 48.0063 140.08C48.0681 140.065 48.1329 140.066 48.1943 140.083C48.2556 140.1 48.3114 140.132 48.3557 140.178Z" fill="white"/>
<path d="M58.8951 160.917C57.8259 161.246 56.7023 161.371 55.5854 161.283C55.5082 161.261 55.4404 161.215 55.3922 161.152C55.3439 161.089 55.3178 161.012 55.3178 160.933C55.3178 160.854 55.3439 160.777 55.3922 160.714C55.4404 160.651 55.5082 160.605 55.5854 160.583C56.4993 160.521 57.4083 160.402 58.3072 160.228C57.3035 155.945 55.6631 149.603 51.272 148.656C50.9661 148.59 51.0459 148.146 51.3394 148.134C53.8911 148.052 55.6434 150.609 56.6699 152.598C57.8417 155.093 58.6879 157.724 59.1885 160.427C59.2139 160.531 59.1975 160.639 59.1427 160.731C59.0879 160.822 58.9991 160.889 58.8951 160.917Z" fill="white"/>
<path d="M53.9804 157.225C53.9991 157.166 54.0383 157.116 54.091 157.083C54.1437 157.05 54.2066 157.036 54.2685 157.044C54.3305 157.052 54.3876 157.082 54.4298 157.127C54.472 157.172 54.4966 157.231 54.4992 157.292C54.4992 158.813 55.183 160.201 55.4144 161.69C55.6002 162.889 55.622 164.7 54.8043 165.699C54.7572 165.743 54.698 165.773 54.6339 165.785C54.5698 165.797 54.5036 165.79 54.4434 165.765C54.3833 165.74 54.3319 165.698 54.2955 165.645C54.2591 165.592 54.2394 165.53 54.2387 165.465C54.3259 164.289 55.0212 163.49 54.4764 161.134C54.0137 159.884 53.8442 158.548 53.9804 157.225Z" fill="white"/>
<path d="M71.1368 163.57C70.6763 164.017 69.939 164.782 69.2836 164.87C69.2301 164.881 69.1742 164.878 69.1227 164.859C69.0711 164.841 69.0261 164.808 68.9928 164.765C68.9595 164.722 68.9394 164.671 68.9349 164.617C68.9304 164.563 68.9417 164.509 68.9673 164.462C69.2494 163.883 70.051 163.505 70.5229 163.085C71.0642 162.606 71.4354 161.993 71.9353 161.496C72.1261 161.307 72.3864 161.507 72.3501 161.741C72.1475 162.459 71.7236 163.098 71.1368 163.57Z" fill="white"/>
<path d="M69.1807 162.7C68.9085 163.024 68.5948 163.312 68.2474 163.556C68.2196 163.57 68.1885 163.578 68.1571 163.577C68.1257 163.576 68.095 163.568 68.0679 163.552C68.0408 163.536 68.0182 163.514 68.0022 163.488C67.9863 163.461 67.9775 163.431 67.9767 163.4C67.9767 162.294 69.0562 162.302 71.0598 159.569C71.2163 159.356 71.6509 159.481 71.5347 159.773C70.9838 160.91 70.1792 161.911 69.1807 162.7Z" fill="white"/>
<path d="M68.119 161.091C67.6462 161.591 66.8549 162.634 66.0637 162.568C66.0051 162.565 65.9486 162.546 65.9007 162.512C65.8528 162.479 65.8155 162.433 65.793 162.38C65.7706 162.326 65.764 162.268 65.7739 162.211C65.7838 162.154 65.8098 162.101 65.849 162.058C66.1052 161.766 66.5023 161.599 66.7979 161.325C67.978 160.228 68.7589 159.272 69.5874 158.403C69.6295 158.364 69.6848 158.34 69.7432 158.336C69.8017 158.333 69.8594 158.35 69.9059 158.385C69.9524 158.42 69.9847 158.47 69.9969 158.527C70.009 158.583 70.0003 158.642 69.9722 158.692C69.4409 159.553 68.8199 160.357 68.119 161.091Z" fill="white"/>
<path d="M62.3826 165.288C62.3583 165.371 62.3079 165.443 62.2389 165.495C62.1699 165.547 62.0858 165.575 61.9989 165.577C60.2947 165.502 58.5895 165.701 56.9504 166.166C48.9135 168.114 45.6183 171.334 43.9521 171.852C43.781 171.905 43.5902 171.697 43.7032 171.541C44.1944 170.955 44.7966 170.468 45.4763 170.108C51.3181 166.421 58.403 164.612 61.7169 164.789C62.5734 162.597 63.9159 160.62 65.6467 159.002C65.8364 158.812 66.1973 159.067 66.0303 159.291C64.4855 161.078 63.2529 163.105 62.3826 165.288Z" fill="white"/>
<path d="M57.0074 161.768C57.1515 162.525 57.1398 163.303 56.9731 164.056C56.9572 164.104 56.9262 164.146 56.8845 164.176C56.8428 164.206 56.7927 164.222 56.7412 164.222C56.6896 164.222 56.6395 164.206 56.5978 164.176C56.5561 164.146 56.5251 164.104 56.5092 164.056C56.4022 163.298 56.391 162.529 56.476 161.768C56.476 161.699 56.504 161.632 56.5538 161.583C56.6036 161.534 56.6712 161.507 56.7417 161.507C56.8121 161.507 56.8797 161.534 56.9295 161.583C56.9794 161.632 57.0074 161.699 57.0074 161.768Z" fill="white"/>
<path d="M29.3899 148.742C30.3759 148.159 30.6497 146.941 30.9027 145.92C32.1096 141.045 30.8405 137.967 30.3718 134.004C29.8699 129.751 31.2189 123.382 36.593 123.109C37.4586 123.071 38.3212 123.233 39.1115 123.582C39.9019 123.931 40.598 124.457 41.1439 125.119C40.5257 125.298 39.998 125.698 39.6643 126.24C39.0328 127.381 39.6228 128.189 40.105 128.028C40.4057 127.926 40.3061 127.576 40.8961 126.906C45.2354 121.979 54.8307 126.688 52.2686 132.693C52.2109 132.778 52.1468 132.86 52.0767 132.936C53.2533 135.938 53.7429 139.157 53.5108 142.366C53.1997 144.49 52.1213 146.774 50.0103 146.819C49.6992 147.834 50.1678 148.098 49.9066 148.518C49.7116 148.833 49.0408 148.739 49.0926 147.619C49.1061 147.325 49.171 147.036 49.2844 146.763C48.5651 146.614 47.8918 146.3 47.3196 145.846C46.2496 144.942 45.3008 143.909 44.4961 142.77C44.5978 143.756 44.3064 144.743 43.6832 145.523C43.6376 145.596 43.5688 145.653 43.4873 145.685C43.4057 145.717 43.3159 145.722 43.2311 145.7C43.1719 145.684 43.1172 145.655 43.0713 145.615C43.0254 145.575 42.9896 145.525 42.9666 145.469C42.9437 145.413 42.9343 145.353 42.9392 145.293C42.9441 145.233 42.9631 145.175 42.9947 145.123C43.5749 144.402 43.8929 143.511 43.8979 142.591C43.8966 142.55 43.9052 142.509 43.9231 142.472C43.941 142.435 43.9676 142.403 44.0007 142.378C44.0339 142.353 44.0725 142.336 44.1136 142.328C44.1547 142.321 44.1969 142.323 44.2369 142.335C44.1658 142.209 44.1017 142.08 44.0451 141.947C42.9595 142.543 41.5514 141.458 41.6727 139.781C40.3619 139.441 39.2073 138.674 38.3983 137.604C38.2054 140.491 37.7502 144.151 36.1275 146.544C38.04 145.588 40.1737 145.14 42.3166 145.245C42.3963 145.246 42.4745 145.267 42.5437 145.305C42.6129 145.344 42.6707 145.4 42.7117 145.467C43.3263 147.004 44.4019 148.32 45.7953 149.24C46.4578 149.645 47.2411 149.815 48.0154 149.723C48.7897 149.63 49.5085 149.28 50.0528 148.73C50.3244 148.442 50.8335 148.82 50.6065 149.152C50.0653 149.848 49.2957 150.338 48.4287 150.538C47.5618 150.738 46.651 150.637 45.8513 150.252C44.1189 149.384 42.7605 147.934 42.0232 146.165C40.0366 146.086 38.0677 146.559 36.3421 147.53C32.4891 150.062 29.9301 156.328 32.8976 163.824C36.4173 163.079 40.018 162.769 43.6158 162.901C42.6412 160.438 42.2544 160.037 41.8645 158.882C41.7194 158.447 42.3156 158.282 42.5541 158.592C43.4506 160.085 44.2066 161.655 44.8124 163.282C44.8318 163.354 44.8344 163.429 44.8197 163.502C44.8051 163.575 44.7737 163.644 44.728 163.703C44.6822 163.762 44.6234 163.81 44.5559 163.843C44.4884 163.876 44.414 163.894 44.3385 163.894C43.9653 163.882 43.6044 163.873 43.2311 163.862C43.536 164.695 43.7496 165.574 44.1125 166.393C44.8787 168.117 45.3961 168.394 45.3889 169.071C45.3881 169.103 45.3801 169.135 45.3653 169.164C45.3505 169.193 45.3294 169.219 45.3034 169.239C45.2775 169.259 45.2473 169.273 45.2151 169.28C45.1829 169.288 45.1495 169.288 45.1172 169.281C44.6944 169.071 44.3649 168.715 44.1913 168.282C43.38 166.911 42.8074 165.418 42.497 163.862C39.8327 163.848 37.1723 164.063 34.5463 164.506C35.5968 167.667 37.1854 170.63 39.2444 173.268C40.7997 175.139 42.8662 177.062 49.161 175.601C54.3309 174.4 58.3385 171.204 62.2838 167.749C62.9298 167.185 66.535 168.656 69.094 167.428C69.889 167.018 70.6009 166.468 71.1947 165.806C72.2212 164.729 72.3125 164.295 72.9118 164.073C72.9584 164.061 73.007 164.06 73.0541 164.07C73.1011 164.079 73.1453 164.099 73.1834 164.128C73.2214 164.157 73.2523 164.194 73.2737 164.236C73.2951 164.279 73.3064 164.325 73.3068 164.372C73.2424 164.788 73.0396 165.171 72.7303 165.461C71.8722 166.654 70.734 167.625 69.4123 168.293C67.3859 169.059 65.1446 169.071 63.1102 168.326C60.2737 171.009 57.0644 173.282 53.5781 175.079C54.0893 175.12 53.772 175.845 53.7026 176.977C55.0018 176.711 55.7763 178.507 56.0874 179.787C59.5319 180.371 67.4371 181.91 70.8111 183.119C74.2784 184.36 75.842 185.82 76.9888 187.539C76.3148 193.198 75.7269 206.434 75.5206 212.316C73.8854 217.211 71.8583 221.961 69.6104 228.098C69.4724 228.475 68.8327 228.564 68.7404 228.098C68.4584 226.665 68.1556 224.75 67.7035 223.3C65.581 227.109 63.3798 230.881 61.1992 234.662C61.1487 234.746 61.072 234.812 60.9802 234.85C60.8885 234.888 60.7868 234.896 60.6901 234.873L59.6605 234.471C59.5154 235.168 59.3072 235.85 59.0383 236.51C59.2992 236.587 59.539 236.72 59.7396 236.901C59.9403 237.082 60.0965 237.305 60.1965 237.554C60.6906 238.634 61.3084 239.655 62.038 240.597C64.5587 243.71 66.5329 243.86 68.2717 245.194C70.0106 246.529 69.6643 248.643 68.9602 248.627C67.5594 248.593 66.1482 248.5 64.7484 248.438C59.927 248.222 59.9892 248.565 58.3675 246.061C57.7557 245.118 57.1471 244.184 56.583 243.218C56.5602 244.661 56.526 246.094 56.5146 247.538C56.5119 247.645 56.4674 247.747 56.3902 247.823C56.313 247.899 56.209 247.943 56.0998 247.945C55.063 247.886 54.0261 247.769 52.9892 247.64C52.9003 247.616 52.8221 247.563 52.7669 247.491C52.7117 247.418 52.6827 247.329 52.6844 247.239C52.6418 244.277 52.7661 241.316 53.0566 238.368C53.1385 237.58 53.0473 235.894 54.0624 235.592C55.1532 235.265 53.9151 236.657 55.6571 232.918C55.5638 232.868 55.4886 232.79 55.4417 232.696C55.3948 232.602 55.3784 232.496 55.3947 232.393C57.6106 220.07 59.4313 210.298 63.809 199.164C63.7297 199.124 63.6634 199.062 63.6172 198.987C52.1784 198.846 34.4301 197.772 32.8862 186.87C32.5078 184.192 33.612 179.386 35.271 178.34C34.6956 174.154 33.779 170.032 33.1817 165.858C33.1685 165.796 33.1797 165.732 33.2131 165.678C33.2464 165.624 33.2994 165.584 33.3613 165.567C33.4231 165.55 33.4892 165.557 33.5462 165.586C33.6032 165.615 33.6467 165.665 33.668 165.724C34.8823 169.772 35.7153 173.921 36.1565 178.118C36.4168 178.141 36.675 178.199 36.9363 178.229C40.2719 178.62 51.0907 178.449 53.0079 177.285C53.0079 174.214 54.9541 175.229 49.8682 176.508C47.4329 177.181 44.8631 177.231 42.4027 176.653C39.9992 176.003 38.4978 173.93 37.1965 171.963C35.6292 169.786 34.5864 167.287 34.1471 164.655C33.696 164.732 33.2439 164.82 32.7919 164.922C32.6647 164.953 32.5303 164.934 32.4168 164.87C32.3032 164.806 32.2192 164.701 32.1822 164.577C30.0224 159.306 29.9798 153.534 33.4264 149.063C32.2247 149.65 30.8634 149.845 29.5412 149.618C29.449 149.594 29.3657 149.545 29.3014 149.476C29.237 149.406 29.1943 149.32 29.1783 149.228C29.1624 149.135 29.1738 149.04 29.2113 148.954C29.2488 148.868 29.3108 148.794 29.3899 148.742ZM43.7931 141.035C44.0783 140.581 44.7979 140.958 44.5946 141.401C45.2738 142.115 46.4973 144.19 48.1522 145.31C49.8641 146.47 51.4463 146.067 52.2997 143.679C52.82 141.923 52.9089 140.071 52.5589 138.275C52.3359 136.547 52.0244 134.83 51.6257 133.133C51.4691 133.114 48.5037 130.825 45.7528 133.133C44.1623 134.468 44.0316 136.628 44.2846 138.537C44.3333 138.903 44.071 139.251 43.6625 139.149C42.8631 138.938 42.4452 139.264 42.4887 139.982C42.5105 140.445 43.255 141.892 43.7931 141.035ZM37.8757 137.092C37.916 137.162 37.9806 137.215 38.0576 137.242C38.1346 137.268 38.2189 137.267 38.2947 137.237C38.3705 137.207 38.4328 137.151 38.4702 137.08C38.5075 137.009 38.5173 136.926 38.4978 136.849C37.9994 135.476 37.7806 134.021 37.8539 132.566C37.9624 131.069 38.3936 129.612 39.1189 128.291C39.1501 128.233 39.1577 128.167 39.1399 128.104C39.1221 128.041 39.0804 127.988 39.0235 127.955C38.9665 127.922 38.8988 127.912 38.8345 127.927C38.7701 127.941 38.7141 127.98 38.6782 128.035C36.6791 130.941 36.6698 135.069 37.8757 137.091V137.092ZM55.1915 236.023C55.6312 236.656 55.739 236.882 56.0086 237.067C56.1924 237.22 56.4214 237.31 56.6615 237.324C56.9016 237.338 57.14 237.275 57.341 237.145C57.6263 236.848 57.9791 236.621 58.3706 236.484C58.4822 235.703 58.7067 234.941 59.0373 234.222C55.7245 232.931 56.8868 233.389 56.3031 233.158C55.6094 234.917 55.5897 235.573 55.1957 236.022L55.1915 236.023ZM48.148 183.381C48.0466 183.387 47.9511 183.43 47.8811 183.502C47.8112 183.575 47.7722 183.671 47.7722 183.77C47.7722 183.87 47.8112 183.966 47.8811 184.039C47.9511 184.111 48.0466 184.154 48.148 184.159C56.2989 184.5 69.4393 185.485 73.48 192.455C76.3832 197.461 74.0233 204.858 72.3394 210.192C70.247 216.819 68.9063 219.062 67.7989 222.23C67.7098 222.485 68.0944 222.62 68.2282 222.408C70.2916 219.145 72.7293 212.109 73.819 208.426C75.0011 204.437 76.2567 200.252 75.6481 196.053C74.5666 188.586 66.7382 185.383 59.2053 183.92C55.5647 183.232 51.8441 183.051 48.1522 183.38L48.148 183.381Z" fill="white"/>
<path d="M182.55 134.925C182.278 134.869 182.312 134.493 182.55 134.416C184.052 133.919 184.482 136.16 184.142 137.148C183.935 137.718 183.537 138.202 183.014 138.521C182.491 138.84 181.873 138.974 181.262 138.903C181.183 139.48 181.107 140.047 181.048 140.624C181.025 141.276 180.954 141.926 180.833 142.568C180.704 143.055 180.04 142.901 179.986 142.456C180.035 141.049 180.183 139.646 180.426 138.259C180.459 138.143 180.537 138.045 180.642 137.985C180.747 137.925 180.872 137.907 180.99 137.936C183.41 138.597 184.239 135.274 182.55 134.925Z" fill="white"/>
<path d="M171.989 129.071C172.136 128.701 172.933 126.693 173.152 126.35C172.212 125.291 171.471 124.076 170.961 122.763C170.731 122.15 170.707 121.481 170.892 120.853C171.077 120.226 171.462 119.673 171.989 119.276C173.188 118.524 174.735 118.983 175.874 119.631C177.175 120.371 178.269 121.428 179.613 122.096C181.194 122.882 182.876 122.563 184.558 122.796C185.262 122.852 185.937 123.093 186.513 123.494C187.089 123.894 187.545 124.439 187.834 125.073C189.301 128.416 187.044 132.124 184.863 134.591C184.649 134.879 184.189 134.514 184.378 134.213C185.841 131.867 187.8 129.42 187.281 126.463C187.215 125.825 186.944 125.225 186.507 124.748C186.071 124.272 185.491 123.944 184.853 123.812C183.453 123.506 181.985 123.79 180.584 123.469C177.96 122.865 176.208 120.398 174.052 119.937C173.758 119.849 173.447 119.838 173.147 119.905C172.848 119.972 172.572 120.115 172.346 120.319C172.12 120.523 171.953 120.781 171.859 121.069C171.766 121.356 171.751 121.663 171.815 121.958C171.927 122.619 172.177 123.251 172.549 123.812C173.561 125.515 173.94 126.076 175.622 126.578C178.102 127.315 180.652 127.799 183.233 128.021C183.515 128.046 183.862 128.327 183.719 128.655C182.993 130.286 182.419 131.971 183.211 133.708C183.383 134.085 182.907 134.54 182.588 134.185C181.25 132.692 181.82 130.654 182.51 128.955C180.203 128.716 175.16 127.819 173.644 126.767C173.236 128.688 170.976 132.885 170.595 136.429C170.422 137.219 170.489 138.042 170.787 138.795C171.499 140.066 173.631 140.271 175.914 140.76C176.39 140.797 176.851 140.934 177.269 141.16C177.322 141.193 177.363 141.24 177.389 141.296C177.416 141.351 177.425 141.413 177.417 141.474C177.409 141.534 177.383 141.591 177.343 141.638C177.303 141.685 177.25 141.719 177.19 141.737C175.742 141.576 174.308 141.311 172.899 140.945C172.419 141.93 172.269 143.043 171.747 142.748C171.246 142.465 171.986 141.366 172.405 140.804C169.356 139.878 168.442 138.004 171.989 129.071Z" fill="white"/>
<path d="M179.556 133.849C179.403 133.985 179.22 134.084 179.021 134.139C178.823 134.195 178.614 134.204 178.411 134.168C178.208 134.131 178.016 134.049 177.85 133.929C177.685 133.808 177.549 133.651 177.455 133.471C177.296 133.127 177.221 132.508 177.545 132.238C177.579 132.205 177.62 132.181 177.665 132.166C177.71 132.152 177.758 132.148 177.805 132.154C177.852 132.161 177.897 132.178 177.936 132.204C177.975 132.23 178.008 132.265 178.031 132.305C178.294 132.699 177.861 133.452 178.63 133.471C179.195 133.485 179.362 132.899 179.816 132.727C180.061 132.633 180.338 133.205 179.556 133.849Z" fill="white"/>
<path d="M173.865 131.917C174.125 131.902 174.33 131.597 174.531 131.472C174.576 131.447 174.627 131.435 174.679 131.438C174.731 131.442 174.78 131.46 174.821 131.491C174.862 131.522 174.893 131.564 174.91 131.612C174.927 131.66 174.929 131.712 174.916 131.761C174.834 132.027 174.664 132.258 174.432 132.417C174.201 132.576 173.921 132.654 173.639 132.639C173.355 132.571 173.109 132.398 172.953 132.155C172.797 131.913 172.744 131.62 172.803 131.339C172.855 130.851 173.633 130.85 173.582 131.339C173.559 131.553 173.548 131.934 173.865 131.917Z" fill="white"/>
<path d="M176.846 129.964C177.028 129.831 177.207 130.074 177.128 130.241C176.652 131.251 175.929 132.161 175.355 133.118C174.151 135.129 174.437 134.878 175.062 134.917C175.389 134.937 175.717 134.932 176.045 134.951C176.153 134.951 176.256 134.993 176.332 135.068C176.408 135.143 176.451 135.244 176.451 135.35C176.451 135.456 176.408 135.558 176.332 135.633C176.256 135.708 176.153 135.75 176.045 135.75C175.573 135.77 175.101 135.755 174.632 135.706C174.356 135.723 174.08 135.657 173.842 135.518C173.324 135.07 173.795 134.216 174.034 133.74C174.669 132.288 175.63 130.997 176.846 129.964Z" fill="white"/>
<path d="M168.702 147.894C169.808 147.45 170.938 147.05 172.09 146.707C172.09 146.695 172.079 146.695 172.079 146.684C171.895 146.343 170.42 142.656 170.306 142.342C170.158 141.92 170.857 141.621 171.05 142.036C171.601 143.203 172.051 144.422 172.53 145.623C172.668 145.966 172.737 146.438 173.208 146.378C173.498 146.301 173.778 146.193 174.044 146.056C176.898 145.032 179.622 143.689 182.164 142.052C182.594 141.809 183.906 144.12 184.366 144.828C184.762 145.44 183.811 145.253 175.004 151.07C174.831 150.859 174.638 150.666 174.427 150.492C177.387 148.515 180.413 146.627 183.53 144.885C183.124 144.207 182.719 143.54 182.367 142.845C182.198 142.509 182.952 142.743 179.035 144.777C177.159 145.705 175.232 146.531 173.264 147.252C173.16 147.252 173.189 147.139 173.998 150.185C173.687 149.967 173.354 149.781 173.005 149.629C172.813 148.915 172.62 148.196 172.428 147.488C168.357 148.674 169.635 148.732 167.843 148.732C168.022 146.824 168.299 144.926 168.673 143.045C168.76 142.623 169.502 142.712 169.452 143.147C169.249 144.703 168.961 146.296 168.702 147.894Z" fill="white"/>
<path d="M133.353 248.106C133.654 248.106 145.429 247.945 148.587 247.928C149.658 247.922 149.277 248.245 150.101 245.874C150.128 245.791 150.181 245.719 150.252 245.668C150.323 245.617 150.408 245.59 150.496 245.59C150.584 245.59 150.67 245.617 150.741 245.668C150.812 245.719 150.865 245.791 150.891 245.874C151.087 246.587 151.286 247.295 151.479 248.006C152.53 247.917 153.569 247.828 154.619 247.75C153.645 242.575 153.012 241.48 152.823 239.531C152.824 239.477 152.844 239.425 152.878 239.382C152.912 239.34 152.96 239.309 153.013 239.295C153.067 239.282 153.123 239.285 153.174 239.306C153.225 239.326 153.268 239.363 153.297 239.409C154.224 241.232 155.153 245.983 155.545 248.017C155.56 248.079 155.562 248.143 155.549 248.206C155.536 248.268 155.509 248.327 155.47 248.378C155.431 248.429 155.381 248.471 155.324 248.501C155.267 248.531 155.203 248.547 155.138 248.55C153.818 248.68 152.507 248.782 151.185 248.872C151.092 248.872 151.002 248.842 150.929 248.787C150.856 248.732 150.803 248.654 150.778 248.566C150.675 248.179 150.571 247.801 150.473 247.412C150.404 247.737 150.29 248.051 150.134 248.345C149.755 248.936 148.746 248.753 148.158 248.767C146.171 248.826 133.307 249 133.274 249C133.285 248.903 133.353 248.215 133.353 248.106Z" fill="white"/>
<path d="M144.558 241.076C145.1 240.381 145.847 239.869 146.697 239.608C146.587 238.638 146.282 235.87 146.171 234.843C143.649 234.987 140.826 235.149 138.775 235.257C138.659 235.255 138.548 235.208 138.465 235.128C138.383 235.047 138.336 234.938 138.334 234.823C138.334 215.777 138.661 206.572 137.081 197.93C136.065 199.363 135.06 200.795 134.043 202.212C134.111 196.471 134.172 190.596 134.179 184.799C134.177 184.463 134.062 184.136 133.852 183.87C133.641 183.605 133.347 183.416 133.015 183.333C134.872 180.101 137.957 174.84 141.654 174.525C142.307 174.483 142.961 174.558 143.586 174.748C143.204 174.311 142.878 173.83 142.615 173.315C140.825 169.867 141.658 165.955 142.57 162.209C144.686 153.512 147.978 148.648 153.926 142.975C155.16 141.779 156.459 140.65 157.817 139.593C159.639 138.219 161.654 137.363 163.847 138.032C165.098 138.414 169.584 141.193 168.489 141.864C168.482 141.896 167.431 146.471 166.919 148.715C166.484 148.744 166.061 148.862 165.675 149.06C165.376 149.2 165.144 149.448 165.028 149.752C164.912 150.056 164.921 150.393 165.053 150.691C164.942 150.691 164.184 150.719 163.979 150.747C162.84 150.462 161.662 150.359 160.489 150.441C160.128 150.461 159.817 150.441 159.563 150.747C159.52 150.791 159.496 150.851 159.496 150.913C159.496 150.975 159.52 151.034 159.563 151.079C160.042 151.476 160.121 151.1 162.579 151.283C162.445 151.39 162.335 151.525 162.258 151.677C162.18 151.829 162.136 151.995 162.129 152.165C162.122 152.335 162.151 152.504 162.215 152.662C162.279 152.82 162.376 152.963 162.5 153.082C162.449 153.125 162.407 153.178 162.375 153.236C162.186 153.05 161.65 153.094 161.325 153.082C160.325 153.045 160.272 153.713 161.325 153.693C161.621 153.713 161.917 153.691 162.206 153.627C162.142 153.954 162.203 154.293 162.378 154.578C162.554 154.863 162.831 155.074 163.155 155.17C163.094 155.274 163.048 155.387 163.019 155.504C162.566 155.38 162.106 155.284 161.641 155.215C161.584 155.2 161.524 155.199 161.467 155.21C161.409 155.222 161.355 155.247 161.308 155.282C161.261 155.317 161.223 155.363 161.197 155.415C161.17 155.467 161.157 155.524 161.156 155.582C161.26 157.248 158.334 158.181 158.762 158.879C157.644 158.18 156.481 157.547 155.317 156.903C156.041 156.226 156.48 155.307 156.548 154.326C156.782 152.233 155.983 151.064 156.469 150.206C157.134 149.039 158.965 149.092 160.128 149.107C160.832 149.111 161.533 149.193 162.218 149.351C162.784 149.577 163.391 149.687 164.002 149.673C164.047 149.66 164.088 149.637 164.123 149.606C164.157 149.574 164.184 149.536 164.201 149.493C164.219 149.451 164.226 149.405 164.223 149.359C164.22 149.313 164.206 149.268 164.183 149.228C163.664 148.346 161.353 148.128 160.32 148.107C159.021 148.08 157.396 148.085 156.333 148.94C155.104 149.929 155.476 151.228 155.634 152.583C155.794 153.271 155.789 153.986 155.619 154.672C155.449 155.358 155.118 155.996 154.654 156.534C154.496 156.445 154.327 156.357 154.169 156.257C154.106 156.219 154.034 156.199 153.961 156.199C153.888 156.199 153.816 156.219 153.754 156.257C150.962 157.954 148.455 160.067 146.322 162.52C145.586 163.243 144.992 164.094 144.572 165.031C144.469 165.33 144.855 165.464 145.057 165.308C146.422 164.253 147.948 160.91 153.98 157.101C155.933 158.189 157.875 159.377 159.92 160.277C160.024 160.311 155.586 169.521 151.981 173.36C151.472 174.001 150.833 174.531 150.103 174.913C149.373 175.296 148.57 175.523 147.745 175.581C147.406 175.646 147.497 176.069 147.745 176.169C149.259 176.781 151.063 175.482 152.115 174.515C154.611 171.93 156.657 168.958 158.17 165.719C159.021 164.077 159.761 162.381 160.383 160.643C160.379 160.359 160.308 160.08 160.175 159.827C159.799 159.566 159.419 159.318 159.035 159.072C159.464 159.128 159.771 158.785 160.085 158.54C160.996 157.966 161.651 157.072 161.915 156.04C163.33 156.215 162.925 156.006 163.056 156.263C163.499 157.134 163.963 156.936 165.189 157.162C165.155 157.264 164.098 163.982 163.654 172.655C164.873 171.356 166.142 170.104 167.46 168.901C167.406 168.576 167.11 164.591 167.076 162.016C167.076 161.635 167.497 161.557 167.788 161.427C167.735 161.325 167.166 159.975 167.02 159.55C166.652 158.558 166.676 157.467 167.087 156.491C166.094 156.37 165.089 156.266 164.095 156.114C163.722 156.058 163.846 155.532 164.173 155.502C165.388 155.426 166.608 155.482 167.81 155.669C168.127 155.71 168.418 156.034 168.206 156.346C167.059 158.023 168.118 159.782 168.691 161.066C170.747 160.308 172.969 159.668 173.073 159.645C172.339 156.618 174.652 154.284 173.412 152.492C172.441 151.092 169.632 150.737 167.923 150.694C167.286 150.784 166.638 150.75 166.015 150.592C165.967 150.564 165.927 150.526 165.897 150.481C165.866 150.436 165.847 150.384 165.841 150.33C165.834 150.277 165.84 150.222 165.858 150.171C165.877 150.12 165.907 150.074 165.946 150.036C166.548 149.696 167.244 149.553 167.934 149.628C169.918 149.562 172.624 149.994 174.044 151.405C174.512 151.967 174.82 152.64 174.937 153.356C175.054 154.073 174.976 154.807 174.71 155.484C174.056 157.936 174.068 157.523 174.157 159.659C174.239 159.697 174.315 159.745 174.383 159.803C174.547 159.599 182.486 148.716 184.265 146.165C187.227 141.917 186.101 143.436 186.59 142.769C186.892 142.356 187.62 142.518 188.104 142.565C193.013 143.057 197.087 146.847 197.185 154.859C197.304 164.608 195.118 179.141 187.292 185.067C185.338 186.594 183.102 187.733 180.707 188.421C180.575 188.711 180.438 189.004 180.302 189.296C177.917 188.844 174.587 188.742 168.758 188.61C160.53 188.423 151.183 187.638 147.813 195.051C145.616 193.877 143.547 192.486 141.638 190.898C141.589 190.852 141.53 190.817 141.466 190.797C141.401 190.776 141.333 190.77 141.266 190.778C141.199 190.787 141.135 190.81 141.078 190.846C141.021 190.882 140.973 190.93 140.937 190.986C139.726 192.554 138.621 194.197 137.628 195.906C137.446 196.272 137.947 196.729 138.238 196.373C139.381 194.927 140.444 193.422 141.423 191.864C143.224 193.473 145.313 194.737 147.585 195.591C146.08 199.44 146.548 204.462 147.634 209.656C147.738 210.155 148.729 214.669 149.374 214.819C150.135 215 150.909 215.125 151.689 215.195C152.969 221.645 154.329 228.043 154.648 233.933C154.645 234.05 154.596 234.161 154.512 234.244C154.428 234.326 154.315 234.374 154.196 234.377C153.339 234.439 152.479 234.479 151.609 234.521C151.667 234.899 151.946 237.031 152.039 237.72C152.161 238.325 152.233 238.939 152.253 239.555C153.465 239.688 150.926 243.19 148.935 241.81C147.552 240.851 147.348 239.806 145.604 241.521C144.163 243.112 142.23 244.192 140.103 244.597C137.831 245.209 134.236 245.86 133.588 246.019C133.632 245.685 133.655 245.341 133.666 245.008C138.032 244.005 142.056 243.659 144.558 241.076ZM185.587 158.704C183.565 152.428 183.633 152.931 183.69 152.829C186.139 152.181 188.63 151.695 191.145 151.374C191.382 151.342 191.629 151.141 191.529 150.874C190.658 148.428 189.589 146.055 188.333 143.777C188.174 143.501 187.676 143.69 187.802 144C188.713 146.243 189.722 148.42 190.592 150.663C188.378 150.988 187.274 151.183 184.945 151.673C183.817 151.912 182.613 151.949 182.889 153.051C182.954 153.311 184.662 158.535 184.696 158.637C182.517 159.862 180.423 161.227 178.428 162.724C178.234 162.945 178.418 163.393 178.739 163.269C179.873 162.668 180.96 161.986 181.992 161.229C185.374 159.1 185.711 159.19 185.587 158.704ZM180.817 174.175C181.669 176.657 181.739 177.801 182.172 178.661C182.319 178.951 182.715 178.783 182.738 178.517C182.841 177.354 181.78 174.125 181.371 173.052C182.073 172.592 182.83 170.779 183.121 170.088C183.644 169.137 183.864 168.054 183.754 166.978C183.694 166.712 183.301 166.788 183.29 167.044C183.218 168.896 181.313 171.73 181.043 172.231C179.431 168.28 177.485 164.468 175.227 160.836C175.178 160.753 175.097 160.694 175.003 160.67C174.909 160.646 174.808 160.66 174.725 160.708C174.641 160.757 174.58 160.836 174.556 160.929C174.531 161.022 174.545 161.12 174.595 161.203C175.57 163.423 178.754 168.142 180.821 174.174L180.817 174.175ZM167.988 173.852C168.692 177.618 170.181 182.341 172.573 185.347C174.165 187.346 176.789 189.033 179.451 188.134C179.508 188.117 179.558 188.08 179.59 188.03C179.622 187.98 179.636 187.921 179.628 187.862C179.619 187.803 179.59 187.75 179.546 187.71C179.501 187.67 179.443 187.648 179.383 187.646C176.341 187.578 174.069 186.806 171.839 182.57C170.485 179.855 169.516 176.97 168.959 173.996C168.529 171.753 168.665 171.575 168.372 170.937C168.334 170.877 168.279 170.828 168.214 170.797C168.148 170.767 168.075 170.755 168.004 170.765C167.932 170.774 167.865 170.804 167.81 170.85C167.755 170.897 167.715 170.958 167.695 171.026C167.614 171.978 167.715 172.937 167.992 173.852H167.988ZM147.433 177.106C150.649 178.431 153.767 179.975 156.765 181.726C161.968 184.955 163.608 187.181 164.986 188.034C165.048 188.068 165.119 188.08 165.188 188.071C165.258 188.061 165.322 188.029 165.372 187.98C165.422 187.932 165.454 187.868 165.464 187.8C165.474 187.731 165.461 187.662 165.427 187.601C164.212 185.677 155.696 178.694 147.651 176.606C147.358 176.53 147.143 176.976 147.437 177.106H147.433ZM147.632 239.609C148.382 239.779 148.745 240.199 149.681 241.06C150.337 241.383 151.166 240.571 151.657 240.026C151.42 239.397 151.294 238.732 151.284 238.061C151.187 237.294 150.912 234.973 150.869 234.573C149.942 234.622 148.566 234.7 147.022 234.789C147.13 236.408 147.335 238.019 147.636 239.614L147.632 239.609Z" fill="white"/>
<path d="M154.733 189.399C158.636 188.23 163.183 188.495 168.76 188.621C174.588 188.754 177.915 188.855 180.303 189.307C180.439 189.016 180.576 188.723 180.709 188.432C183.103 187.745 185.339 186.607 187.293 185.082C195.142 179.141 197.305 164.563 197.187 154.873C197.088 146.858 193.014 143.071 188.106 142.58C186.481 142.417 186.952 142.288 185.268 144.734C185.17 144.428 185.023 144.139 184.831 143.879C184.363 143.099 183.85 142.346 183.295 141.624C183.146 141.412 182.931 141.254 182.682 141.174C182.434 141.094 182.165 141.096 181.918 141.181C181.942 140.825 181.942 140.659 182.064 139.753C182.558 139.698 183.035 139.54 183.463 139.29C183.891 139.04 184.259 138.702 184.543 138.301C184.828 137.899 185.022 137.443 185.113 136.962C185.204 136.48 185.19 135.986 185.071 135.51C185.269 135.444 185.445 135.325 185.58 135.167C188.818 131.332 189.997 127.681 188.697 124.716C188.345 123.945 187.791 123.279 187.091 122.788C186.392 122.297 185.572 121.997 184.716 121.92C183.072 121.688 181.37 121.959 180.05 121.298C178.834 120.686 177.599 119.564 176.358 118.851C172.21 116.459 169.053 119.442 170.123 123.016C170.605 124.26 171.268 125.428 172.093 126.483C170.792 129.39 168.898 134.152 168.818 137.311C168.742 138.019 168.867 138.733 169.18 139.375C169.493 140.016 169.982 140.559 170.591 140.943C170.324 140.971 170.072 141.075 169.865 141.243C169.658 141.41 169.506 141.634 169.427 141.886C169.109 141.797 168.768 141.824 168.467 141.963L168.49 141.861C169.585 141.188 165.1 138.411 163.848 138.029C160.165 136.907 156.901 140.141 153.927 142.972C154.231 140.695 154.666 138.436 155.232 136.208C157.244 128.362 162.075 117.838 169.552 114.551C182.469 108.875 210.691 119.472 216.499 135.069C219.571 143.319 217.35 156.158 214.985 164.633C212.17 174.404 208.273 183.841 203.364 192.775C196.942 204.672 189.276 215.02 175.457 215.615C175.503 219.157 175.401 231.284 175.353 232.839C177.338 231.956 178.995 231.298 183.361 229.497C184.338 229.042 185.36 228.689 186.411 228.442C188.014 228.141 189.978 228.498 190.837 230.019C191.014 230.361 191.117 230.735 191.141 231.118C191.164 231.5 191.108 231.884 190.974 232.244C190.841 232.605 190.634 232.934 190.365 233.213C190.097 233.491 189.773 233.712 189.414 233.862C189.046 233.99 188.655 234.04 188.266 234.01C187.877 233.979 187.499 233.869 187.156 233.686C186.813 233.502 186.513 233.25 186.276 232.946C186.039 232.641 185.869 232.291 185.778 231.918C182.604 232.962 179.419 233.995 176.2 234.874C179.163 236.286 182 237.939 184.682 239.817C185.991 240.885 186.99 242.606 186.263 244.282C185.68 245.626 183.71 246.933 182.299 245.892C181.254 245.118 180.64 242.884 181.972 241.96C179.387 239.619 176.644 237.452 173.762 235.475C168.716 236.635 163.739 237.23 159.52 239.044C160.836 241.258 159.978 242.874 158.458 243.286C156.592 243.796 155.055 242.22 154.855 240.499C154.625 238.511 156.203 236.809 157.905 235.99C160.172 235.092 162.562 234.527 164.997 234.313C166.94 234.016 168.905 233.779 170.858 233.599C168.611 232.189 166.285 230.9 163.902 229.712C163.815 229.918 163.682 230.103 163.513 230.251C163.343 230.4 163.142 230.509 162.924 230.571C162.706 230.633 162.476 230.646 162.253 230.608C162.029 230.571 161.816 230.485 161.631 230.355C161.386 230.135 161.2 229.858 161.091 229.549C160.982 229.241 160.952 228.911 161.005 228.588C161.057 228.265 161.191 227.961 161.393 227.701C161.595 227.442 161.859 227.236 162.162 227.102C163.731 226.286 165.48 227.07 166.872 227.869C168.78 228.941 170.59 230.175 172.282 231.556C172.271 229.101 172.293 220.005 172.248 215.763C168.488 215.946 153.296 215.744 149.378 214.83C148.733 214.68 147.744 210.166 147.639 209.666C145.745 200.634 145.737 192.092 154.733 189.399ZM180.883 189.429C183.981 190.101 187.223 189.62 189.982 188.078C197.148 184.445 202.291 174.258 205.205 166.854C207.349 161.409 208.835 155.736 209.632 149.95C210.408 144.309 210.822 138.477 208.469 133.137C206.322 128.415 202.841 124.398 198.44 121.564C198.39 121.536 198.332 121.527 198.276 121.538C198.219 121.549 198.169 121.579 198.133 121.623C198.098 121.668 198.079 121.723 198.082 121.78C198.084 121.836 198.107 121.89 198.146 121.931C200.284 123.807 202.276 125.838 204.106 128.006C207.655 132.314 209.431 137.775 209.083 143.31C208.576 158.212 201.88 174.51 195.203 182.26C189.106 189.334 183.871 188.394 181.198 188.745C181.121 188.753 181.048 188.78 180.985 188.824C180.922 188.869 180.872 188.928 180.84 188.997C180.808 189.066 180.794 189.142 180.801 189.218C180.808 189.294 180.835 189.366 180.88 189.429H180.883Z" fill="#00B6FF"/>
</svg>
