<svg width="281" height="301" viewBox="0 0 281 301" fill="none" xmlns="http://www.w3.org/2000/svg">
<rect width="225.919" height="254.54" rx="30" transform="matrix(0.971194 -0.238289 -0.239024 -0.971014 60.8413 300.996)" fill="#143A62"/>
<path d="M147.343 252.004C191.336 252.004 227 216.505 227 172.715C227 128.925 191.336 93.4258 147.343 93.4258C103.35 93.4258 67.686 128.925 67.686 172.715C67.686 216.505 103.35 252.004 147.343 252.004Z" fill="#00B6FF"/>
<path d="M179.56 227.184L152.68 183.209M145.101 240.158L179.56 227.184L145.101 240.158ZM68.6519 149.148L97.8322 224.249L68.6519 149.148ZM143.737 96.6289L106.361 117.167L143.737 96.6289ZM68.6519 149.148L106.361 117.167L68.6519 149.148ZM175.026 108.721L143.737 96.6289L175.026 108.721ZM191.991 127.048L175.026 108.721L191.991 127.048ZM215.581 135.11L191.991 127.048L215.581 135.11ZM205.357 167.64L179.56 227.184L205.357 167.64ZM216.664 210.54L179.56 227.184L216.664 210.54ZM106.361 117.167L175.026 108.721L106.361 117.167ZM105.965 192.987L97.8322 224.249L105.965 192.987ZM68.6519 149.148L105.965 192.987L68.6519 149.148ZM145.101 240.158L105.965 192.987L145.101 240.158ZM106.772 152.357L145.101 144.87L106.772 152.357ZM175.026 108.721L152.68 183.209L175.026 108.721ZM205.357 167.64L191.991 127.048L205.357 167.64ZM152.68 183.209L145.101 144.87L175.026 108.721L152.68 183.209Z" stroke="#020064" stroke-width="1.50648" stroke-linecap="round" stroke-linejoin="round"/>
<path d="M152.629 182.888L145.1 240.158L97.8313 224.249" stroke="#020064" stroke-width="1.50648" stroke-linecap="round" stroke-linejoin="round"/>
<path d="M145.099 150.495C148.221 150.495 150.751 147.977 150.751 144.87C150.751 141.763 148.221 139.244 145.099 139.244C141.978 139.244 139.448 141.763 139.448 144.87C139.448 147.977 141.978 150.495 145.099 150.495Z" fill="white" stroke="#020064" stroke-width="1.50648" stroke-linecap="round" stroke-linejoin="round"/>
<path d="M152.68 183.209L191.991 127.049L152.68 183.209Z" fill="white"/>
<path d="M152.68 183.209L191.991 127.049" stroke="#020064" stroke-width="1.50648" stroke-linecap="round" stroke-linejoin="round"/>
<path d="M191.991 132.673C195.112 132.673 197.642 130.154 197.642 127.047C197.642 123.941 195.112 121.422 191.991 121.422C188.869 121.422 186.339 123.941 186.339 127.047C186.339 130.154 188.869 132.673 191.991 132.673Z" fill="white" stroke="#020064" stroke-width="1.50648" stroke-linecap="round" stroke-linejoin="round"/>
<path d="M215.581 140.736C218.703 140.736 221.233 138.218 221.233 135.111C221.233 132.004 218.703 129.485 215.581 129.485C212.46 129.485 209.93 132.004 209.93 135.111C209.93 138.218 212.46 140.736 215.581 140.736Z" fill="white" stroke="#020064" stroke-width="1.50648" stroke-linecap="round" stroke-linejoin="round"/>
<path d="M216.664 216.166C219.786 216.166 222.316 213.648 222.316 210.541C222.316 207.434 219.786 204.915 216.664 204.915C213.543 204.915 211.013 207.434 211.013 210.541C211.013 213.648 213.543 216.166 216.664 216.166Z" fill="white" stroke="#020064" stroke-width="1.50648" stroke-linecap="round" stroke-linejoin="round"/>
<path d="M175.026 114.346C178.147 114.346 180.677 111.827 180.677 108.72C180.677 105.613 178.147 103.095 175.026 103.095C171.904 103.095 169.374 105.613 169.374 108.72C169.374 111.827 171.904 114.346 175.026 114.346Z" fill="white" stroke="#020064" stroke-width="1.50648" stroke-linecap="round" stroke-linejoin="round"/>
<path d="M106.338 122.793C109.459 122.793 111.989 120.274 111.989 117.168C111.989 114.061 109.459 111.542 106.338 111.542C103.216 111.542 100.686 114.061 100.686 117.168C100.686 120.274 103.216 122.793 106.338 122.793Z" fill="white" stroke="#020064" stroke-width="1.50648" stroke-linecap="round" stroke-linejoin="round"/>
<path d="M68.6517 155.009C71.773 155.009 74.3033 152.49 74.3033 149.383C74.3033 146.276 71.773 143.758 68.6517 143.758C65.5303 143.758 63 146.276 63 149.383C63 152.49 65.5303 155.009 68.6517 155.009Z" fill="white" stroke="#020064" stroke-width="1.50648" stroke-linecap="round" stroke-linejoin="round"/>
<path d="M143.736 102.255C146.858 102.255 149.388 99.7364 149.388 96.6295C149.388 93.5226 146.858 91.0039 143.736 91.0039C140.615 91.0039 138.085 93.5226 138.085 96.6295C138.085 99.7364 140.615 102.255 143.736 102.255Z" fill="white" stroke="#020064" stroke-width="1.50648" stroke-linecap="round" stroke-linejoin="round"/>
<path d="M145.099 245.534C148.221 245.534 150.751 243.016 150.751 239.909C150.751 236.802 148.221 234.283 145.099 234.283C141.978 234.283 139.448 236.802 139.448 239.909C139.448 243.016 141.978 245.534 145.099 245.534Z" fill="white" stroke="#020064" stroke-width="1.50648" stroke-linecap="round" stroke-linejoin="round"/>
<path d="M97.8328 229.875C100.954 229.875 103.484 227.356 103.484 224.25C103.484 221.143 100.954 218.624 97.8328 218.624C94.7115 218.624 92.1812 221.143 92.1812 224.25C92.1812 227.356 94.7115 229.875 97.8328 229.875Z" fill="white" stroke="#020064" stroke-width="1.50648" stroke-linecap="round" stroke-linejoin="round"/>
<path d="M105.966 198.613C109.087 198.613 111.618 196.095 111.618 192.988C111.618 189.881 109.087 187.362 105.966 187.362C102.845 187.362 100.314 189.881 100.314 192.988C100.314 196.095 102.845 198.613 105.966 198.613Z" fill="white" stroke="#020064" stroke-width="1.50648" stroke-linecap="round" stroke-linejoin="round"/>
<path d="M106.772 162.869C114.68 162.869 121.092 156.487 121.092 148.615C121.092 140.742 114.68 134.36 106.772 134.36C98.8626 134.36 92.4512 140.742 92.4512 148.615C92.4512 156.487 98.8626 162.869 106.772 162.869Z" fill="white" stroke="#020064" stroke-width="1.50648" stroke-linecap="round" stroke-linejoin="round"/>
<path d="M116.346 159.214C113.718 161.564 110.31 162.863 106.777 162.863C103.244 162.863 99.8353 161.564 97.2068 159.214C97.9973 157.34 99.3262 155.74 101.027 154.615C102.727 153.49 104.724 152.89 106.766 152.89C108.808 152.89 110.804 153.49 112.505 154.615C114.205 155.74 115.534 157.34 116.324 159.214" fill="#FF8832"/>
<path d="M116.346 159.214C113.718 161.564 110.31 162.863 106.777 162.863C103.244 162.863 99.8353 161.564 97.2068 159.214C97.9973 157.34 99.3262 155.74 101.027 154.615C102.727 153.49 104.724 152.89 106.766 152.89C108.808 152.89 110.804 153.49 112.505 154.615C114.205 155.74 115.534 157.34 116.324 159.214" stroke="#020064" stroke-width="1.50648" stroke-linecap="round" stroke-linejoin="round"/>
<path d="M152.684 204.157C164.305 204.157 173.727 194.779 173.727 183.211C173.727 171.643 164.305 162.265 152.684 162.265C141.062 162.265 131.64 171.643 131.64 183.211C131.64 194.779 141.062 204.157 152.684 204.157Z" fill="white" stroke="#020064" stroke-width="1.50648" stroke-linecap="round" stroke-linejoin="round"/>
<path d="M145.912 182.725C145.912 184.512 146.625 186.226 147.895 187.49C149.165 188.754 150.887 189.464 152.683 189.464C154.478 189.464 156.201 188.754 157.47 187.49C158.74 186.226 159.454 184.512 159.454 182.725V179.355C159.454 177.567 158.74 175.853 157.47 174.589C156.201 173.325 154.478 172.615 152.683 172.615C150.887 172.615 149.165 173.325 147.895 174.589C146.625 175.853 145.912 177.567 145.912 179.355V182.725Z" fill="white" stroke="#020064" stroke-width="1.50648" stroke-linecap="round" stroke-linejoin="round"/>
<path d="M166.748 198.786C162.885 202.24 157.876 204.151 152.684 204.151C147.492 204.151 142.483 202.24 138.621 198.786C139.777 196.025 141.727 193.666 144.227 192.006C146.726 190.346 149.663 189.459 152.668 189.456C155.673 189.454 158.612 190.336 161.114 191.992C163.617 193.648 165.571 196.003 166.732 198.762" fill="#FF8832"/>
<path d="M166.748 198.786C162.885 202.24 157.876 204.151 152.684 204.151C147.492 204.151 142.483 202.24 138.621 198.786C139.777 196.025 141.727 193.666 144.227 192.006C146.726 190.346 149.663 189.459 152.668 189.456C155.673 189.454 158.612 190.336 161.114 191.992C163.617 193.648 165.571 196.003 166.732 198.762" stroke="#020064" stroke-width="1.50648" stroke-linecap="round" stroke-linejoin="round"/>
<path d="M145.967 178.483C146.143 177.121 146.732 175.846 147.656 174.828C148.58 173.809 149.795 173.095 151.137 172.782C152.479 172.469 153.886 172.571 155.168 173.075C156.451 173.579 157.548 174.461 158.313 175.602C156.71 177.15 154.715 178.236 152.54 178.743C150.366 179.25 148.094 179.16 145.967 178.483Z" fill="white" stroke="#020064" stroke-width="1.50648" stroke-linecap="round" stroke-linejoin="round"/>
<path d="M205.356 180.867C213.265 180.867 219.676 174.485 219.676 166.613C219.676 158.74 213.265 152.358 205.356 152.358C197.447 152.358 191.035 158.74 191.035 166.613C191.035 174.485 197.447 180.867 205.356 180.867Z" fill="white" stroke="#020064" stroke-width="1.50648" stroke-linecap="round" stroke-linejoin="round"/>
<path d="M200.75 166.285C200.75 167.501 201.235 168.668 202.099 169.528C202.964 170.388 204.136 170.871 205.358 170.871C206.58 170.871 207.752 170.388 208.616 169.528C209.481 168.668 209.966 167.501 209.966 166.285V163.991C209.966 162.775 209.481 161.608 208.616 160.748C207.752 159.888 206.58 159.404 205.358 159.404C204.136 159.404 202.964 159.888 202.099 160.748C201.235 161.608 200.75 162.775 200.75 163.991V166.285Z" fill="white" stroke="#020064" stroke-width="1.50648" stroke-linecap="round" stroke-linejoin="round"/>
<path d="M214.93 177.214C212.302 179.565 208.893 180.865 205.36 180.865C201.826 180.865 198.417 179.565 195.789 177.214C196.576 175.335 197.903 173.73 199.604 172.6C201.306 171.471 203.304 170.867 205.349 170.865C207.394 170.864 209.394 171.464 211.097 172.591C212.8 173.718 214.13 175.321 214.92 177.198" fill="#FF8832"/>
<path d="M214.93 177.214C212.302 179.565 208.893 180.865 205.36 180.865C201.826 180.865 198.417 179.565 195.789 177.214C196.576 175.335 197.903 173.73 199.604 172.6C201.306 171.471 203.304 170.867 205.349 170.865C207.394 170.864 209.394 171.464 211.097 172.591C212.8 173.718 214.13 175.321 214.92 177.198" stroke="#020064" stroke-width="1.50648" stroke-linecap="round" stroke-linejoin="round"/>
<path d="M200.788 163.398C200.909 162.473 201.311 161.607 201.939 160.915C202.568 160.223 203.393 159.738 204.305 159.525C205.218 159.312 206.174 159.381 207.046 159.723C207.918 160.065 208.664 160.663 209.186 161.438C208.095 162.49 206.738 163.228 205.259 163.573C203.78 163.919 202.235 163.858 200.788 163.398Z" fill="white" stroke="#020064" stroke-width="1.50648" stroke-linecap="round" stroke-linejoin="round"/>
<path d="M179.56 241.39C187.468 241.39 193.88 235.008 193.88 227.136C193.88 219.264 187.468 212.882 179.56 212.882C171.651 212.882 165.239 219.264 165.239 227.136C165.239 235.008 171.651 241.39 179.56 241.39Z" fill="white" stroke="#020064" stroke-width="1.50648" stroke-linecap="round" stroke-linejoin="round"/>
<path d="M174.953 226.805C174.953 228.022 175.439 229.188 176.303 230.049C177.167 230.909 178.339 231.392 179.562 231.392C180.784 231.392 181.956 230.909 182.82 230.049C183.684 229.188 184.17 228.022 184.17 226.805V224.51C184.17 223.293 183.684 222.127 182.82 221.266C181.956 220.406 180.784 219.923 179.562 219.923C178.339 219.923 177.167 220.406 176.303 221.266C175.439 222.127 174.953 223.293 174.953 224.51V226.805Z" fill="white" stroke="#020064" stroke-width="1.50648" stroke-linecap="round" stroke-linejoin="round"/>
<path d="M189.134 237.738C186.505 240.088 183.096 241.387 179.563 241.387C176.03 241.387 172.621 240.088 169.992 237.738C170.779 235.859 172.106 234.254 173.807 233.124C175.508 231.994 177.507 231.391 179.552 231.389C181.597 231.387 183.597 231.987 185.3 233.114C187.003 234.24 188.334 235.843 189.124 237.721" fill="#FF8832"/>
<path d="M189.134 237.738C186.505 240.088 183.096 241.387 179.563 241.387C176.03 241.387 172.621 240.088 169.992 237.738C170.779 235.859 172.106 234.254 173.807 233.124C175.508 231.994 177.507 231.391 179.552 231.389C181.597 231.387 183.597 231.987 185.3 233.114C187.003 234.24 188.334 235.843 189.124 237.721" stroke="#020064" stroke-width="1.50648" stroke-linecap="round" stroke-linejoin="round"/>
<path d="M174.99 223.917C175.112 222.992 175.513 222.126 176.142 221.434C176.77 220.742 177.595 220.257 178.508 220.044C179.42 219.831 180.376 219.9 181.248 220.242C182.12 220.583 182.867 221.182 183.388 221.957C182.298 223.009 180.94 223.747 179.462 224.092C177.983 224.437 176.438 224.377 174.99 223.917Z" fill="white" stroke="#020064" stroke-width="1.50648" stroke-linecap="round" stroke-linejoin="round"/>
<path d="M211.471 208.32L172.025 191.471M150.384 146.867L191.652 162.463L150.384 146.867ZM215.231 205.097L208.739 180.468L215.231 205.097ZM132.047 187.342L111.489 191.792L132.047 187.342ZM213.894 140.48L209.928 153.099L213.894 140.48ZM116.613 158.97L135.239 171.488L116.613 158.97ZM106.563 134.361L106.427 122.791L106.563 134.361ZM116.309 137.981L140.622 101.323L116.309 137.981ZM92.6804 151.172L74.2976 149.622L92.6804 151.172ZM106.565 162.867L106.077 187.364L106.565 162.867Z" stroke="#020064" stroke-width="1.50648" stroke-linecap="round" stroke-linejoin="round"/>
<path d="M102.167 148.284C102.154 148.895 102.264 149.501 102.489 150.069C102.715 150.636 103.052 151.153 103.482 151.589C103.911 152.025 104.423 152.372 104.988 152.608C105.553 152.845 106.16 152.966 106.774 152.966C107.387 152.966 107.994 152.845 108.559 152.608C109.125 152.372 109.637 152.025 110.066 151.589C110.495 151.153 110.832 150.636 111.058 150.069C111.284 149.501 111.394 148.895 111.381 148.284V145.991C111.394 145.381 111.284 144.774 111.058 144.206C110.832 143.639 110.495 143.122 110.066 142.686C109.637 142.25 109.125 141.903 108.559 141.667C107.994 141.43 107.387 141.309 106.774 141.309C106.16 141.309 105.553 141.43 104.988 141.667C104.423 141.903 103.911 142.25 103.482 142.686C103.052 143.122 102.715 143.639 102.489 144.206C102.264 144.774 102.154 145.381 102.167 145.991V148.284Z" fill="white" stroke="#020064" stroke-width="1.50648" stroke-linecap="round" stroke-linejoin="round"/>
<path d="M102.203 145.399C102.324 144.474 102.725 143.608 103.353 142.916C103.982 142.224 104.807 141.739 105.719 141.525C106.632 141.312 107.588 141.381 108.46 141.723C109.332 142.065 110.078 142.664 110.599 143.439C109.509 144.492 108.152 145.23 106.674 145.575C105.195 145.92 103.65 145.86 102.203 145.399Z" fill="white" stroke="#020064" stroke-width="1.50648" stroke-linecap="round" stroke-linejoin="round"/>
</svg>
