<svg width="281" height="301" viewBox="0 0 281 301" fill="none" xmlns="http://www.w3.org/2000/svg">
<rect width="225.919" height="254.54" rx="30" transform="matrix(0.971194 0.238289 -0.239024 0.971014 60.8413 0)" fill="#143A62"/>
<path d="M173.35 202.693C173.402 202.609 177.986 194.369 181.225 188.822C181.3 188.632 181.445 188.479 181.631 188.395C181.817 188.311 182.029 188.304 182.221 188.373C188.243 189.494 193.424 190.435 201.228 191.943C198.81 197.674 200.806 193.409 194.711 206.491C194.62 206.717 194.53 206.898 194.213 206.807C191.905 206.356 189.596 206.001 187.289 205.545C183.486 204.782 174.211 202.918 173.35 202.693Z" fill="#00B6FF"/>
<path d="M142.263 167.768C142.443 167.768 142.717 167.451 142.76 167.225C143.041 165.781 148.063 138.492 148.191 138.039C148.383 137.366 148.101 136.945 147.377 136.861C144.848 136.567 108.458 132.653 106.376 132.433C105.924 132.386 105.645 132.476 105.516 132.975C105.132 134.461 99.0058 160.175 98.5017 162.388C98.4681 162.52 98.4648 162.658 98.492 162.791C98.5192 162.925 98.5762 163.051 98.6588 163.159C98.7415 163.268 98.8475 163.356 98.9692 163.418C99.0908 163.48 99.2249 163.514 99.3614 163.517C101.172 163.656 141.629 167.812 142.263 167.768Z" fill="white"/>
<path d="M172.583 210.283C172.784 208.883 173.289 207.821 172.039 207.437C171.081 207.142 171.09 207.165 171.09 205.54C171.18 203.76 170.617 202.009 169.506 200.614C168.777 199.557 167.846 198.653 166.767 197.955C165.687 197.258 164.481 196.779 163.216 196.548C161.152 196.114 160.632 195.842 155.115 196.503C153.177 196.735 147.811 197.819 145.338 197.859C142.295 197.907 139.616 196.839 140.543 193.927C141.813 189.919 145.54 188.234 149.549 185.704C151.561 184.435 153.222 183.296 151.767 181.141C151.077 180.191 150.159 179.429 149.096 178.927C146.141 177.381 146.268 177.572 144.798 177.345C144.798 177.255 144.798 177.074 144.708 177.03C144.118 176.578 144.307 176.037 144.436 175.493C144.653 174.278 144.606 173.03 144.301 171.834C144.21 171.504 144.016 171.212 143.747 171C143.479 170.788 143.149 170.667 142.807 170.656C140.858 170.504 98.3167 166.051 96.5097 165.822C95.8388 165.71 95.1512 165.754 94.5 165.95C93.8488 166.146 93.2513 166.488 92.7539 166.951C88.6897 170.523 81.0005 176.489 77.0054 179.783C76.6182 180.031 76.3268 180.403 76.1788 180.838C76.0307 181.273 76.0348 181.745 76.1904 182.178C76.3817 182.736 76.5511 184.654 78.9515 184.934C86.2379 185.782 116.097 188.761 126.151 189.949C131.44 190.573 136.977 186.946 140.406 182.945C141.526 181.723 142.498 180.373 143.303 178.925C143.393 178.654 143.985 178.694 144.117 178.563C144.434 178.066 144.841 178.246 145.248 178.382C147.427 178.906 149.398 180.071 150.906 181.726C152.58 183.761 149.127 184.679 144.57 187.735C142.076 189.408 139.354 192.406 139.411 195.279C139.449 195.92 139.657 196.539 140.016 197.071C140.374 197.604 140.868 198.031 141.448 198.309C146.232 200.421 154.619 196.938 160.455 197.315C164.079 197.548 167.087 198.952 168.962 202.196C169.743 203.487 170.121 204.981 170.049 206.487C170.049 206.849 169.958 207.12 169.506 207.21C168.645 207.301 168.501 208.021 168.326 208.701C168.087 209.647 168.097 209.627 167.146 209.515C153.785 207.956 159.139 208.35 154.792 207.933C154.162 207.922 153.542 208.09 153.005 208.418C152.468 208.746 152.035 209.22 151.757 209.784C149.758 214.144 142.492 228.514 142.299 230.883C142.21 231.403 142.325 231.937 142.62 232.375C142.915 232.812 143.367 233.119 143.883 233.232C145.588 233.954 147.362 234.499 149.178 234.859C149.278 234.882 166.906 238.571 169.633 238.835C170.449 238.914 173.299 239.061 174.475 238.428C177.287 237.551 179.395 232.557 180.584 229.845C185.793 217.97 185.709 217.644 185.925 215.253C185.988 214.699 185.842 214.143 185.515 213.691C185.189 213.24 184.705 212.926 184.16 212.812C181.403 212.117 178.642 211.532 175.878 210.915C174.11 210.519 172.747 210.448 172.583 210.283ZM183.49 218.732C183.572 218.747 183.651 218.78 183.718 218.829C183.786 218.878 183.842 218.943 183.881 219.017C183.921 219.091 183.942 219.173 183.945 219.257C183.948 219.341 183.931 219.424 183.897 219.5C182.487 222.679 176.339 235.494 176.067 235.855C175.73 236.192 144.388 230.001 144.299 229.982C144.204 229.961 144.115 229.92 144.038 229.861C143.961 229.801 143.899 229.726 143.855 229.639C143.812 229.552 143.788 229.457 143.787 229.36C143.785 229.263 143.806 229.167 143.846 229.079C145.34 225.982 150.816 214.304 151.263 213.401C151.318 213.321 151.393 213.259 151.481 213.219C151.569 213.179 151.666 213.164 151.761 213.175C155.293 213.762 178.783 217.874 183.49 218.732ZM142.081 178.837C141.144 180.596 139.955 182.21 138.552 183.627C134.199 187.75 129.268 189.214 127.691 189.096C126.244 188.986 82.66 184.279 79.4943 183.901C78.9756 183.876 78.4812 183.674 78.0939 183.329C77.7067 182.983 77.45 182.515 77.367 182.004C77.2945 181.731 77.2983 181.443 77.3781 181.172C77.4579 180.901 77.6106 180.657 77.8196 180.467C83.0924 176.112 88.377 171.672 93.6136 167.275C93.8736 167.022 94.1888 166.834 94.5343 166.724C94.8798 166.614 95.2462 166.586 95.6044 166.642C98.7643 167.107 137.961 171.275 142.443 171.748C143.988 171.91 143.586 172.324 143.213 176.085C143.172 176.492 142.941 176.627 142.538 176.627C142.103 176.62 141.677 176.746 141.316 176.988C140.979 177.347 140.731 177.779 140.592 178.251C140.411 178.613 140.592 178.84 140.999 178.84C141.359 178.884 141.722 178.883 142.081 178.837Z" fill="white"/>
<path d="M82.9765 147.527C83.3836 146.171 83.746 144.861 84.1986 143.596C84.355 141.599 84.2179 139.59 83.7915 137.633C83.1173 137.296 82.2255 139.222 81.0304 140.478C80.083 141.475 79.9448 142.738 79.5824 143.912C79.4012 144.501 79.2208 145.042 79.0396 145.629C79.015 145.632 78.9901 145.629 78.9667 145.621C78.9432 145.614 78.9218 145.601 78.9039 145.584C78.9941 144.995 79.3565 139.168 79.3565 137.001C79.3565 135.654 78.3375 134.263 77.0479 134.877C75.8115 135.466 75.7078 136.7 75.5097 138.084C74.559 137.994 74.4402 138.084 74.2455 139.034C74.0512 140.018 74.0512 141.031 74.2455 142.016C74.339 142.388 74.4604 142.541 74.6981 142.422C74.7891 141.244 75.0605 138.853 75.106 138.853C75.1876 139.165 75.2479 139.482 75.2864 139.802C75.1504 141.925 74.9695 144.048 74.7436 146.172C74.7436 146.298 74.6205 146.947 74.2455 146.761C73.6654 143.376 72.8941 140.027 71.9352 136.729C71.7077 135.844 71.0755 135.016 70.1703 135.328C69.9286 135.486 69.7392 135.712 69.6264 135.977C69.5135 136.243 69.4822 136.536 69.5365 136.819C69.5365 136.909 69.582 136.954 69.582 137.045C69.3553 137.13 69.1622 137.286 69.0317 137.489C68.9012 137.693 68.8403 137.933 68.858 138.174C68.8353 139.214 68.8353 140.207 68.858 141.247C68.8665 141.357 68.9151 141.461 68.9947 141.539C69.0743 141.616 69.1795 141.662 69.2906 141.667C69.4016 141.673 69.5109 141.638 69.5979 141.569C69.6849 141.5 69.7437 141.401 69.7632 141.292C69.7835 140.958 69.8288 140.625 69.8989 140.297C72.2766 152.167 70.5816 146.407 67.7269 140.433C67.4751 139.992 67.1711 139.583 66.8217 139.214C66.474 138.696 66.079 138.212 65.6417 137.768C65.5755 137.655 65.4836 137.56 65.3735 137.489C65.2634 137.418 65.1382 137.374 65.0079 137.361C64.6008 137.361 64.5494 137.632 64.5106 138.039C64.4019 139.167 64.2384 140.253 64.1027 141.382C64.0277 141.759 64.1558 141.921 66.6371 147.391C66.8209 147.797 66.6371 148.017 66.3202 148.205C65.9536 148.424 65.5507 148.657 65.1891 148.837C64.9083 148.981 64.6842 149.216 64.5529 149.503C64.4216 149.789 64.3907 150.112 64.4651 150.419C64.8208 152.686 67.8036 169.117 68.1307 171.156C68.9288 176.126 76.2034 175.188 81.1189 174.138C83.5876 173.611 83.4139 172.118 84.0149 169.53C84.3402 168.131 88.0521 152.351 88.6758 150.102C89.2565 148.026 85.1064 147.412 82.9765 147.527ZM65.8668 150.915C73.1076 152.452 80.2583 152.587 87.318 150.102C85.3575 159.886 84.4355 162.55 82.0679 171.56C81.7746 172.678 81.0649 172.535 80.6654 172.738C75.2131 173.327 73.0925 174 70.6642 172.873C70.3239 172.751 70.0226 172.54 69.7918 172.262C69.561 171.984 69.4091 171.649 69.3519 171.292C66.0286 153.536 67.0467 157.727 65.8718 150.915H65.8668ZM83.1999 143.37C82.8424 145.585 82.2368 147.753 81.3945 149.834C81.3447 149.943 81.2664 150.036 81.1678 150.105C80.3536 150.24 79.5394 150.33 78.6788 150.421C78.8154 149.875 80.9149 143.185 80.9419 143.1C81.349 142.059 83.3853 143.144 83.2049 143.37H83.1999ZM66.2292 142.059C66.4551 142.105 66.6826 142.291 66.9077 142.24C67.0897 142.2 67.2246 141.924 67.4058 141.698C68.6279 144.544 70.1206 147.252 71.207 150.238C70.3928 150.147 69.7135 150.057 69.035 149.967C68.7055 149.967 68.665 149.768 65.8221 143.144C65.6721 142.835 65.9822 142.479 66.2343 142.059H66.2292ZM72.7907 141.428C73.4246 144.541 73.9707 147.436 74.6012 150.463C73.9674 150.419 73.5603 150.373 73.1076 150.373C72.3575 150.373 72.784 150.393 70.8454 141.924C71.529 141.744 72.1628 141.608 72.7958 141.428H72.7907ZM75.5064 150.463C75.7921 146.473 75.9885 144.624 76.0964 142.782C76.1537 141.789 76.2776 141.604 77.3185 141.698C77.5938 141.759 77.8656 141.834 78.1327 141.924C77.8613 144.771 77.5899 147.617 77.3632 150.463H75.5064ZM76.3206 140.618C76.5018 139.218 76.6746 137.725 76.9544 136.281C77.1297 135.377 78.0408 135.829 78.1765 136.055C78.3565 136.305 78.4516 136.605 78.4479 136.913C78.3754 139.947 78.1765 140.233 78.1765 141.024C77.5477 140.885 77.005 140.746 76.3256 140.614L76.3206 140.618ZM81.8876 141.386C82.7473 140.076 82.7473 140.076 83.3356 140.257C83.607 142.29 83.7882 141.974 83.1999 141.974C82.7216 141.888 82.2722 141.685 81.8926 141.382L81.8876 141.386ZM66.5006 140.934C65.8668 140.573 65.8668 140.573 65.2363 141.476H65.1006C65.145 140.889 65.1902 140.302 65.2363 139.714C65.4731 139.625 65.7148 139.55 65.9603 139.489C66.8225 140.433 66.8225 140.433 66.5056 140.93L66.5006 140.934Z" fill="white"/>
<path d="M196.612 253.881C197.048 253.942 197.489 253.942 197.925 253.881C198.006 253.862 198.082 253.824 198.146 253.768C198.209 253.713 198.257 253.643 198.286 253.564C198.332 253.474 198.151 253.294 198.06 253.158C197.902 252.998 197.711 252.874 197.5 252.796C197.289 252.718 197.063 252.687 196.838 252.706C188.902 251.22 60.0075 227.715 45.6429 224.92C44.3129 224.661 43.5038 225.948 44.5565 226.182C45.4912 226.395 196.528 253.866 196.612 253.881Z" fill="white"/>
<path d="M42.7013 229.936C42.544 229.875 42.3698 229.874 42.2116 229.932C42.0533 229.991 41.9217 230.104 41.8416 230.253C41.9318 230.749 42.3389 230.842 42.746 230.975C94.0752 243.252 190.749 260.976 195.39 260.976C195.39 259.043 164.792 256.616 42.7013 229.936Z" fill="white"/>
<path d="M174.212 182.406C175.476 183.49 179.05 182.941 180.321 182.135C181.192 181.582 181.905 180.812 182.389 179.901C182.873 178.99 183.111 177.969 183.081 176.939C183.212 172.572 179.498 171.123 177.153 173.098C176.972 173.234 176.791 173.415 176.655 173.098C176.295 172.407 175.767 171.817 175.119 171.383C174.471 170.949 173.724 170.684 172.947 170.614C168.387 169.828 166.074 169.356 159.235 170.659C157.195 171.048 156.116 172.782 156.293 174.996C156.581 178.19 157.846 181.219 159.917 183.671C160.655 184.594 161.724 185.194 162.898 185.343C164.979 185.663 167.09 185.739 169.189 185.569C171.759 185.355 173.353 183.14 174.212 182.406ZM176.021 174.364C176.165 175.989 175.884 177.623 175.207 179.107C174.312 180.915 173.029 182.504 171.451 183.761C170.879 184.282 170.141 184.586 169.368 184.62C166.902 184.811 164.421 184.674 161.991 184.213C161.745 184.141 161.525 184 161.358 183.806C158.93 181.306 156.966 177.49 157.104 173.912C157.182 171.886 159.303 171.271 161.312 170.975C165.793 170.316 175.585 169.872 176.021 174.364ZM168.555 171.155C161.172 170.398 156.44 172.69 158.372 173.55C161.814 175.083 167.559 175.966 174.121 174.273C174.801 174.098 175.935 173.179 174.438 172.33C173.399 171.739 169.822 171.285 168.555 171.155ZM177.062 174.725C177.007 174.447 177.055 174.157 177.198 173.912C177.488 173.557 177.866 173.286 178.296 173.126C178.725 172.966 179.189 172.923 179.641 173.001C180.092 173.079 180.515 173.276 180.865 173.571C181.215 173.866 181.48 174.249 181.633 174.68C181.923 175.353 182.067 176.078 182.057 176.81C182.048 177.542 181.884 178.263 181.576 178.928C181.269 179.592 180.825 180.184 180.274 180.666C179.722 181.148 179.075 181.509 178.375 181.725C177.178 182.2 175.856 182.264 174.619 181.905C174.845 181.589 175.072 181.316 175.253 181.047C177.892 181.984 182.992 177.08 179.687 174.767C179.316 174.47 178.857 174.305 178.382 174.298C177.907 174.29 177.443 174.44 177.062 174.725ZM175.479 180.734C176.407 179.255 176.923 177.555 176.972 175.81C177.045 175.629 177.157 175.467 177.301 175.335C177.445 175.203 177.617 175.106 177.804 175.049C177.991 174.993 178.188 174.979 178.381 175.008C178.573 175.038 178.757 175.111 178.918 175.221C181.421 176.607 178.315 180.734 175.479 180.734ZM169.053 172.602C170.317 171.969 172.583 172.195 173.307 173.325C171.859 173.058 170.548 172.827 169.053 172.602Z" fill="white"/>
<path d="M145.113 169.936C144.932 171.834 145.921 170.206 145.972 169.891C146.255 168.168 151.598 140.344 151.811 138.851C152.016 137.899 151.922 136.906 151.541 136.008C151.161 135.111 150.512 134.352 149.684 133.836C149.204 133.591 148.682 133.437 148.145 133.384C146.971 133.188 109.044 129.653 107.416 129.589C102.337 129.393 102.808 130.066 95.4237 164.469C95.4237 165.418 96.1376 165.099 96.2379 164.695C96.3618 164.195 96.5666 163.704 96.6905 163.204C103.253 136.715 103.167 133.327 103.75 132.255C103.979 131.724 104.368 131.278 104.862 130.978C105.357 130.679 105.933 130.541 106.51 130.583C107.868 130.676 148.284 134.37 148.96 134.786C150.539 135.751 150.561 137.13 150.77 138.4C150.724 138.445 145.565 167.316 145.113 169.936Z" fill="white"/>
<path d="M177.425 204.409C178.461 204.612 182.313 205.44 183.217 205.629C184.625 205.923 188.043 206.424 193.897 207.707C194.126 207.776 194.366 207.797 194.603 207.77C194.84 207.743 195.07 207.669 195.277 207.551C195.484 207.433 195.666 207.274 195.81 207.084C195.954 206.894 196.057 206.676 196.115 206.445C202.278 191.831 202.07 192.266 201.952 191.442C201.952 191.162 202.193 191.289 185.525 188.099C184.345 187.874 183.17 187.658 181.996 187.376C181.451 187.245 181.181 187.557 180.955 187.965C175.341 198.052 177.639 194.36 173.442 201.157C173.08 201.746 172.801 202.327 172.447 202.875C172.215 203.232 172.402 203.503 172.763 203.598C173.077 203.678 176.111 204.152 177.425 204.409ZM173.351 202.692C173.403 202.608 177.987 194.368 181.226 188.821C181.3 188.632 181.446 188.479 181.632 188.395C181.818 188.311 182.03 188.303 182.221 188.373C188.244 189.494 193.425 190.435 201.228 191.942C198.811 197.674 200.807 193.408 194.712 206.491C194.621 206.717 194.531 206.897 194.214 206.807C191.906 206.355 189.597 206.001 187.29 205.545C183.487 204.782 174.212 202.918 173.351 202.692Z" fill="white"/>
<path d="M199.282 165.822C200.255 166.016 200.719 164.712 199.734 164.466C198.47 164.315 151.512 160.209 150 160.084C149.367 160.032 149.14 160.129 149.094 160.581C149.049 161.032 149.185 161.259 149.684 161.259C151.379 161.262 199.014 165.822 199.282 165.822Z" fill="white"/>
<path d="M58.269 189.544C60.8456 188.844 59.401 189.539 66.0527 187.06C67.8066 186.323 69.4513 185.35 70.9412 184.168C71.2558 183.952 71.6092 183.799 71.9821 183.716C72.257 183.679 72.5163 183.566 72.7316 183.391C72.947 183.217 73.1103 182.986 73.2036 182.725C73.2969 182.465 73.3168 182.183 73.261 181.912C73.2053 181.64 73.076 181.389 72.8873 181.186C71.8379 179.94 70.4804 178.99 68.9496 178.43C66.3157 177.322 63.7003 177.708 61.1212 178.611C57.2703 179.958 52.5065 181.358 51.3442 185.117C51.1635 185.808 51.2062 186.538 51.4663 187.203C51.7264 187.868 52.1905 188.434 52.7922 188.82C56.0001 190.585 56.8598 189.928 58.269 189.544ZM69.7638 184.349C66.9255 186.119 63.825 187.431 60.5768 188.234C61.1052 187.708 59.9817 188.374 69.4468 184.258C69.816 184.013 69.9854 184.238 69.7638 184.349ZM66.8677 178.476C68.6858 178.897 71.2505 180.027 72.2982 181.548C72.7618 182.221 72.5713 182.684 71.7545 182.904C67.5377 183.994 63.4992 185.683 59.7626 187.918C57.6858 188.964 56.0448 189.848 53.3359 187.602C52.0716 186.556 52.0227 185.659 52.8841 184.258C53.5761 183.08 54.6204 182.148 55.8703 181.593C57.996 180.686 60.1688 179.876 62.3872 179.108C63.8282 178.62 65.3478 178.406 66.8677 178.476Z" fill="white"/>
<path d="M74.1533 200.705C74.0631 198.988 72.7559 198.319 71.2573 199.168C71.173 199.218 59.61 205.581 50.5756 210.781C49.7748 211.658 49.0625 212.611 48.4491 213.627C48.2409 213.942 48.3429 214.301 48.8562 214.301C52.8681 213.855 49.3088 215.267 72.9767 202.015C73.3838 201.653 73.9721 201.292 74.1533 200.705ZM51.1639 211.232L68.2264 201.563C68.3632 201.448 68.5237 201.363 68.6966 201.316C68.8695 201.269 69.0507 201.26 69.2274 201.29C69.4042 201.32 69.5721 201.389 69.7195 201.49C69.8669 201.592 69.9902 201.725 70.0807 201.88C70.4515 202.324 70.4406 202.553 69.945 202.828C62.1386 207.146 52.4079 212.813 52.2048 212.813C51.8879 212.316 51.571 211.774 51.1639 211.232ZM49.7159 212.767L50.3944 211.684C51.2549 212.045 51.6165 212.497 51.5744 213.219C50.938 213.129 50.214 213.581 49.7159 212.767ZM72.9784 201.111C72.6168 200.569 72.2999 200.072 71.9375 199.529C72.0464 199.469 72.1666 199.432 72.2905 199.42C72.4144 199.408 72.5395 199.421 72.658 199.46C72.7765 199.498 72.8859 199.56 72.9794 199.642C73.073 199.724 73.1486 199.824 73.2018 199.937C73.5195 200.479 73.3838 200.931 72.9767 201.111H72.9784ZM71.259 202.195C70.8064 201.606 70.3993 201.156 69.9947 200.66C70.3141 200.638 70.6307 200.731 70.8878 200.922C71.1449 201.112 71.3257 201.387 71.3981 201.699C71.393 201.837 71.2607 202.06 71.2607 202.195H71.259ZM72.1642 201.743C71.7563 201.07 71.4402 200.565 71.168 200.027C71.8473 200.162 72.2999 200.524 72.3479 201.111C72.3228 201.331 72.26 201.545 72.1625 201.743H72.1642Z" fill="white"/>
<path d="M157.966 183.084C155.217 183.562 156 189.27 165.614 189.861C169.345 190.091 177.528 188.629 176.113 185.705C175.995 185.359 175.777 185.055 175.488 184.831C175.198 184.606 174.849 184.472 174.484 184.443C174.553 184.58 174.664 184.691 174.801 184.759C175.031 184.881 175.222 185.064 175.352 185.289C175.483 185.514 175.547 185.771 175.537 186.03C175.528 186.29 175.445 186.541 175.299 186.756C175.152 186.971 174.948 187.14 174.71 187.244C170.636 189.716 162.262 189.984 158.056 186.571C157.826 186.401 157.633 186.186 157.489 185.939C157.345 185.692 157.254 185.418 157.22 185.134C157.186 184.851 157.211 184.563 157.292 184.289C157.374 184.015 157.511 183.761 157.695 183.542C157.83 183.446 157.876 183.265 157.966 183.084Z" fill="white"/>
<path d="M63.112 153.039C63.7694 153.039 63.895 152.483 63.4289 152.135C62.661 151.309 52.8335 150.689 52.7483 150.689C52.5203 150.671 52.2945 150.744 52.1206 150.893C51.9466 151.041 51.8388 151.252 51.8208 151.48C51.8028 151.707 51.8761 151.933 52.0246 152.107C52.1731 152.28 52.3846 152.388 52.6126 152.406C56.0974 152.817 59.6029 153.028 63.112 153.039Z" fill="white"/>
<path d="M93.2069 154.573C89.6669 154.17 89.082 154.11 88.5906 154.392C88.4977 154.435 88.4197 154.505 88.3667 154.592C88.3136 154.679 88.2878 154.78 88.2927 154.882C88.2976 154.984 88.3329 155.083 88.3941 155.164C88.4553 155.246 88.5396 155.308 88.6361 155.342C89.2669 155.571 89.9188 155.737 90.5822 155.839C92.1643 156.034 93.7952 156.155 95.4244 156.245C96.1029 156.335 97.3284 155.043 93.2069 154.573Z" fill="white"/>
<path d="M79.5393 195.914C79.8553 195.507 80.2136 195.01 80.8963 195.281C81.032 195.326 82.4033 195.425 82.7505 194.829C83.402 193.718 85.8935 193.062 86.8687 192.978C96.1197 191.988 100.298 193.872 104.879 196.457C105.762 196.834 105.121 196.643 107.957 195.644C113.426 193.596 122.67 194.055 131.49 199.665C132.629 200.366 133.602 201.307 134.34 202.421C134.912 203.275 135.344 203.127 136.603 203.683C136.739 203.714 136.864 203.778 136.969 203.869C137.074 203.96 137.155 204.075 137.204 204.205C137.253 204.335 137.27 204.474 137.252 204.612C137.234 204.75 137.182 204.881 137.101 204.993C136.377 206.213 123.253 228.172 122.077 230.205C121.714 230.837 121.443 230.973 120.764 230.837C118.275 230.295 97.3039 226.229 92.6607 225.235C91.9242 225.036 91.1599 224.959 90.3985 225.008C88.8236 225.197 87.236 224.776 85.9634 223.83C85.6063 223.569 85.1829 223.412 84.7413 223.379C82.6148 223.108 66.3226 220.713 64.6487 220.487C59.681 219.97 57.9684 223.851 79.5393 195.914ZM119.634 228.715C119.971 228.379 134.195 204.944 134.252 204.859C133.856 204.465 135.095 202.798 119.861 227.902C119.375 228.711 119.37 228.452 119.634 228.715ZM112.484 226.456C106.897 223.988 100.894 222.593 94.7897 222.344L112.484 226.456ZM110.674 224.829C106.737 222.842 102.619 221.577 98.4097 221.757C102.599 222.327 106.712 223.357 110.674 224.829ZM118.503 228.263C123.662 219.86 128.822 211.471 133.98 203.097C126.258 196.534 115.948 194.036 107.234 197.134C106.158 197.506 105.246 198.241 104.655 199.212C97.1994 210.621 90.5848 220.425 89.6762 221.938C100.492 218.595 109.904 221.532 118.503 228.263ZM88.5898 221.757C93.8845 213.805 99.2248 205.763 104.61 197.721C99.5366 193.529 88.8763 193.057 83.5664 195.01C83.1644 195.111 66.5898 216.707 66.2341 217.239C70.0555 216.422 74.0202 216.561 77.7744 217.646C81.5523 218.511 85.192 219.895 88.5898 221.757ZM69.6738 217.872C72.7923 218.324 76.0996 218.73 79.3581 219.182C75.0132 218.007 70.9406 217.51 69.6738 217.872ZM83.7021 221.215C83.7382 221.162 83.7544 221.098 83.7476 221.034C82.7067 220.763 81.6203 220.445 80.4892 220.266C78.2084 219.92 69.2102 218.565 66.868 218.459C66.5614 218.463 66.2569 218.509 65.9627 218.595C71.9351 219.499 77.819 220.357 83.7021 221.215Z" fill="white"/>
<path d="M72.9775 201.111C73.9049 200.699 73.1268 198.958 71.9819 199.529C72.2989 200.069 72.6606 200.568 72.9775 201.111Z" fill="#00B6FF"/>
<path d="M152.625 230.071C152.716 230.568 152.988 230.803 153.44 230.748C155.573 230.49 152.784 231.716 161.902 226.321C164.279 224.914 174.03 219.667 174.03 217.872C173.809 217.651 171.261 218.041 170.862 218.279C150.693 230.441 154.073 228.264 152.625 230.071ZM162.083 225.462C161.855 225.69 157.647 228.191 154.616 229.98C154.302 230.166 154.164 230.026 153.982 229.8C153.801 229.528 153.982 229.395 154.208 229.257C155.06 228.742 160.138 225.639 161.766 224.694C161.856 224.956 161.962 225.213 162.083 225.462Z" fill="white"/>
<path d="M95.559 168.356C94.7313 168.483 95.3061 168.157 82.8421 178.882C82.3718 179.195 82.7165 179.515 83.0233 179.515C84.7427 179.695 125.698 184.353 127.553 184.62C127.843 184.668 128.141 184.634 128.413 184.522C128.685 184.41 128.92 184.225 129.092 183.987C137.942 173.273 138.225 173.301 138.098 172.918C137.742 172.206 95.6584 168.34 95.559 168.356ZM129.771 176.126C130.314 176.217 130.722 176.307 131.174 176.352C131.581 176.443 131.22 176.578 130.947 176.578C129.337 176.132 128.647 177.19 126.785 179.515C127.418 179.605 127.916 179.651 128.414 179.741C128.866 179.922 128.459 179.876 128.414 179.922C127.978 179.97 127.538 179.97 127.102 179.922C126.876 179.869 126.64 179.883 126.422 179.964C126.205 180.044 126.016 180.187 125.879 180.373C125.449 180.803 124.995 181.21 124.522 181.593C124.386 181.684 124.25 181.774 124.386 181.457C124.839 180.961 125.246 180.463 125.744 179.967C125.753 179.956 125.759 179.943 125.762 179.929C125.765 179.914 125.764 179.9 125.759 179.886C125.755 179.872 125.747 179.86 125.736 179.85C125.725 179.841 125.712 179.834 125.698 179.831C124.974 179.741 121.897 179.334 120.313 179.199C120.085 179.229 119.875 179.342 119.723 179.515C118.558 180.679 116.982 182.502 117.46 181.548C118.094 180.78 118.725 179.967 119.406 179.199C119.225 179.108 117.956 178.991 114.473 178.61C112.889 178.441 112.381 178.239 111.894 178.791C111.388 179.368 110.853 179.92 110.355 180.507C110.129 180.868 109.948 180.688 110.219 180.372C110.672 179.693 111.17 179.062 111.667 178.339C109.722 178.112 107.821 177.887 105.875 177.66C105.201 177.66 104.416 179.144 103.522 179.739L103.386 179.603C103.884 178.971 104.336 178.341 104.834 177.706C104.962 177.453 104.995 177.612 99.5397 176.892C98.905 176.808 98.4988 176.712 98.0462 177.344C97.2311 178.791 96.8662 179.016 97.1865 178.203C97.3222 177.977 97.6391 177.344 97.8195 176.983C97.8325 176.96 97.8391 176.933 97.8387 176.907C97.8383 176.88 97.8308 176.854 97.8171 176.831C97.8033 176.808 97.7837 176.789 97.7603 176.776C97.7369 176.763 97.7105 176.756 97.6838 176.757C96.9598 176.667 95.1485 176.313 93.521 176.125C92.0266 175.951 91.5706 175.67 91.032 176.26C90.6216 176.71 90.1715 177.119 89.7189 177.57C89.4028 177.931 89.2671 177.841 89.5385 177.435L90.8028 175.898C90.8246 175.882 90.8403 175.858 90.8475 175.832C90.8548 175.805 90.8532 175.777 90.843 175.752C90.8328 175.726 90.8146 175.705 90.791 175.69C90.7675 175.676 90.74 175.67 90.7126 175.673L89.1736 175.266C88.812 175.176 88.9924 175.086 89.2191 175.086C91.3355 175.277 91.1669 175.659 92.2963 174.317C92.7919 173.728 94.5593 172.239 94.8307 171.968C94.6846 171.883 94.5335 171.808 94.3781 171.742C94.0612 171.652 94.0612 171.516 94.5138 171.606C94.7697 171.66 95.0355 171.645 95.2833 171.562C95.3735 171.516 96.052 170.703 96.2787 170.431C96.5501 170.206 96.5501 170.341 96.4144 170.522L95.8245 171.471C95.8114 171.494 95.8048 171.52 95.8052 171.547C95.8056 171.574 95.8131 171.6 95.8268 171.623C95.8406 171.646 95.8602 171.665 95.8836 171.678C95.907 171.691 95.9334 171.697 95.9601 171.697C97.8608 171.923 99.7167 172.149 101.572 172.329C102.176 172.329 102.415 171.921 103.065 171.381C103.247 171.064 103.382 171.2 103.156 171.471C102.93 171.787 102.748 172.103 102.522 172.42C102.432 172.601 102.477 172.645 102.567 172.645C103.427 172.826 105.147 172.867 106.191 173.007C108.817 173.359 108.958 173.419 109.993 172.193C110.227 171.93 110.485 171.689 110.762 171.471C110.898 171.291 110.988 171.426 110.898 171.606C110.49 172.103 109.993 172.736 109.54 173.278C109.531 173.289 109.525 173.302 109.522 173.316C109.52 173.33 109.521 173.345 109.525 173.358C109.53 173.372 109.538 173.384 109.548 173.394C109.559 173.403 109.572 173.41 109.586 173.414C110.264 173.459 113.069 173.596 114.292 173.82C115.287 174.003 115.472 173.955 116.237 173.053C116.439 172.761 116.666 172.489 116.917 172.239C117.234 171.832 117.143 172.149 117.052 172.374C116.735 172.826 116.419 173.324 116.102 173.82C116.092 173.841 116.087 173.863 116.086 173.886C116.086 173.909 116.09 173.932 116.098 173.953C116.107 173.974 116.12 173.993 116.136 174.009C116.152 174.025 116.171 174.038 116.193 174.046C118.274 174.363 120.301 174.686 122.345 174.995C123.093 175.108 122.833 174.826 124.02 173.64L124.156 173.775C123.884 174.227 123.566 174.634 123.205 175.13C124.97 175.447 126.69 175.67 128.41 176.034C128.663 176.108 128.934 176.089 129.175 175.981C129.415 175.873 129.609 175.683 129.722 175.445C130.853 174.045 131.034 174.135 130.853 174.361C130.552 174.984 130.189 175.575 129.771 176.126Z" fill="#00B6FF"/>
<path d="M129.228 187.421C129.313 187.337 130.034 186.786 129.138 186.563C127.284 186.337 80.9417 181.051 78.9509 180.825C78.5606 180.825 78.2884 181.304 78.9053 181.457C83.675 182.072 128.27 187.23 129.228 187.421Z" fill="white"/>
<path d="M142.534 172.738C130.152 186.622 129.859 186.231 130.405 186.699C130.722 186.97 130.946 186.651 131.129 186.428C133.495 183.55 143.212 173.101 143.212 172.918C143.212 172.783 143.216 171.972 142.534 172.738Z" fill="white"/>
<path d="M122.983 204.002C123.508 204.271 124.013 204.572 124.163 204.183C124.344 203.462 120.526 201.803 120.135 201.653C116.582 200.262 112.767 199.66 108.957 199.891C108.301 199.962 107.65 200.083 107.011 200.253C105.058 201.225 114.384 199.603 122.983 204.002Z" fill="white"/>
<path d="M106.646 203.279C105.561 203.731 106.602 203.868 106.783 203.868C108.982 203.881 111.171 204.17 113.299 204.727C113.435 204.772 114.521 204.637 113.48 204.138C109.442 202.846 108.55 202.841 106.646 203.279Z" fill="white"/>
<path d="M88.1376 212.723C88.6804 211.865 89.224 211.051 89.7668 210.238C89.846 210.187 89.9352 210.152 90.0286 210.136C90.1221 210.12 90.2177 210.124 90.3096 210.147C90.7655 210.273 91.2603 210.418 91.7584 210.509C91.4862 209.876 90.8532 209.741 90.3096 209.379C90.7175 208.702 91.0791 208.024 91.4895 207.302C93.1213 207.891 93.0235 207.86 93.4812 207.708C93.2064 207.297 93.6894 207.456 91.8065 206.669C92.3501 205.72 92.8474 204.818 93.391 203.868C93.7526 204.003 94.115 204.138 94.5221 204.274C94.5221 203.642 93.9793 203.601 93.7071 203.326C94.115 202.467 94.5221 201.608 94.9292 200.704C94.8837 200.66 94.9073 199.966 94.2052 200.931C93.0252 202.551 92.9173 203.009 92.576 203.009C91.0825 202.693 89.6344 202.331 88.1409 201.97C89.68 199.169 89.9058 198.22 87.5981 201.518C87.5459 201.671 87.4372 201.798 87.2942 201.874C87.1511 201.949 86.9846 201.968 86.8286 201.925C85.7439 201.819 84.6566 201.789 83.48 201.744C83.631 201.471 83.7522 201.184 83.8416 200.885C85.0216 197.226 83.2086 200.614 83.2086 200.66C82.3759 203.154 80.3589 201.05 79.5001 202.647C80.2241 202.603 80.9936 202.557 81.8988 202.512C81.4007 203.28 80.9936 203.958 80.541 204.636C80.4348 204.847 78.2164 204.652 77.554 205.309C78.3235 205.715 79.093 205.309 79.9527 205.58C79.5903 206.169 79.2287 206.758 78.8208 207.342C78.7761 207.433 78.5494 207.433 78.369 207.433C77.6897 207.477 77.0558 207.477 76.3773 207.523C76.1902 207.563 76.0081 207.623 75.8346 207.704C75.8346 208.032 75.5665 207.773 78.2788 208.2C77.8717 208.878 77.5093 209.556 77.0567 210.189C76.8215 210.424 76.0453 210.261 74.2062 210.37C74.0283 210.37 73.1948 210.666 73.4367 210.911C74.4321 211.001 75.4283 211.092 76.4709 211.182C76.3931 211.522 76.2874 211.854 76.1548 212.176C74.9749 215.429 75.0229 215.565 76.7448 212.583C77.082 212.133 77.377 211.363 77.8304 211.363C79.0104 211.544 80.139 211.725 81.3602 211.905C81.0433 212.673 80.455 214.21 80.2747 214.797C79.8667 215.881 80.5461 214.887 80.5907 214.842C81.7387 213.22 82.0733 212.222 82.5824 212.222C83.9402 212.493 85.2525 212.811 86.6103 213.08C86.2024 213.803 85.8408 214.481 85.4784 215.158C85.1615 215.656 85.5239 215.565 85.7051 215.294C85.9765 214.977 86.2951 214.705 86.5648 214.39C86.88 214.027 87.1548 213.442 87.5147 213.351C87.9926 213.193 88.5118 213.643 90.0491 213.984C89.7668 213.31 88.9071 213.175 88.1376 212.723ZM90.9889 206.352C89.5409 205.991 88.1376 205.584 86.7351 205.223C87.0966 204.409 87.5037 203.642 87.915 202.738C89.4086 203.009 90.9493 203.327 92.576 203.642C91.9843 204.59 91.4895 205.494 90.9889 206.352ZM89.0883 209.741C88.4983 210.645 87.9563 211.503 87.4135 212.317C87.3771 212.363 87.3267 212.397 87.2698 212.413C87.2128 212.429 87.1522 212.427 87.0966 212.407C85.7843 212.045 84.4265 211.684 83.0695 211.277C83.5213 210.509 83.9739 209.786 84.4265 209.064C84.4593 209.012 84.5072 208.971 84.5638 208.947C84.6204 208.922 84.6831 208.916 84.7434 208.928C86.1468 209.199 87.5492 209.47 89.0883 209.741ZM85.0148 208.16C85.3772 207.527 85.7843 206.898 86.1468 206.262C86.3086 205.938 86.9601 206.299 90.6265 206.985C90.2194 207.708 89.9025 208.247 89.5409 208.836C89.4499 208.927 89.2687 209.063 89.133 209.017C87.776 208.747 86.4182 208.476 85.0148 208.16ZM83.6123 208.702C82.4551 210.593 82.2174 211.142 81.9376 211.142C80.7576 210.961 79.5844 210.735 78.3631 210.509C78.7702 209.831 79.1318 209.199 79.5431 208.566C79.6703 208.305 80.0066 208.33 83.6123 208.702ZM87.0966 202.647C85.7557 205.102 86.1586 205.121 84.5622 204.952C83.7025 204.86 82.8428 204.771 81.9376 204.68C82.3 204.003 82.6515 203.363 83.024 202.783C83.0682 202.711 83.1274 202.65 83.1977 202.603C83.268 202.556 83.3477 202.525 83.4311 202.512C84.6086 202.535 85.7843 202.603 87.0966 202.647ZM85.3317 205.901C84.9246 206.623 84.5622 207.211 84.1517 207.798C84.1088 207.853 84.0541 207.898 83.9915 207.929C83.9289 207.961 83.8601 207.978 83.7902 207.979C82.568 207.843 81.3914 207.663 80.1246 207.527C81.7581 205.086 80.4727 205.554 85.3317 205.901Z" fill="white"/>
<path d="M96.102 198.399C96.2377 197.993 95.9208 197.766 95.6039 197.676C91.0045 195.985 86.2964 196.306 85.4223 197.179C85.0287 197.572 85.4628 197.809 85.7384 197.722C89.0264 196.676 92.8335 197.584 96.102 198.399Z" fill="white"/>
<path d="M188.06 190.086C186.618 190.099 185.213 190.538 184.02 191.347C182.828 192.156 181.901 193.298 181.358 194.632C180.814 195.965 180.678 197.429 180.965 198.839C181.253 200.249 181.952 201.543 182.974 202.558C183.997 203.573 185.297 204.263 186.712 204.542C188.126 204.821 189.591 204.676 190.924 204.125C192.256 203.574 193.395 202.643 194.198 201.447C195.001 200.252 195.432 198.846 195.437 197.407C195.427 195.46 194.645 193.597 193.263 192.225C191.88 190.853 190.009 190.084 188.06 190.086ZM189.146 196.276C189.146 196.23 190.639 193.294 191.409 191.712C192.133 192.39 192.766 192.975 193.49 193.61C191.997 194.558 189.191 196.276 189.146 196.276ZM193.762 200.657C193.038 201.426 192.404 202.058 191.725 202.78C190.775 201.245 188.964 198.308 188.964 198.262C189.091 198.393 192.165 199.861 193.762 200.657ZM194.079 200.068C192.404 199.21 189.372 197.628 189.372 197.583C191.092 197.493 192.811 197.448 194.667 197.357C194.485 198.309 194.305 199.122 194.079 200.068ZM182.313 200.565C182.04 199.662 181.769 198.848 181.498 197.99C183.352 197.9 186.792 197.764 186.838 197.809C185.344 198.715 183.896 199.619 182.313 200.567V200.565ZM187.381 190.896C187.472 192.748 187.607 196.182 187.562 196.182C186.657 194.737 185.751 193.291 184.756 191.71C185.661 191.442 186.478 191.17 187.381 190.896ZM188.422 196.047C188.376 196.047 188.196 192.658 188.105 190.852C189.01 191.032 189.87 191.258 190.775 191.441C189.961 193.067 189.191 194.558 188.422 196.049V196.047ZM182.72 201.198C184.213 200.249 187.064 198.532 187.109 198.577C186.34 200.023 185.571 201.468 184.802 203.005C184.078 202.424 183.444 201.835 182.72 201.2V201.198ZM189.644 196.996C189.644 196.951 192.358 195.145 193.852 194.195C194.123 195.053 194.396 195.866 194.667 196.725C192.857 196.818 191.227 196.908 189.644 196.999V196.996ZM181.996 194.827C183.579 195.595 185.073 196.318 186.521 197.041C186.521 197.086 183.217 197.267 181.452 197.357C181.633 196.456 181.814 195.643 181.996 194.829V194.827ZM185.434 203.321C186.25 201.785 187.788 198.938 187.788 198.938C187.833 200.52 187.924 202.147 187.969 203.863C187.109 203.687 186.34 203.504 185.434 203.324V203.321ZM184.118 192.164C185.023 193.61 185.883 194.92 186.788 196.23C186.743 196.276 183.892 194.829 182.353 194.062C182.991 193.429 183.534 192.796 184.118 192.164ZM188.78 203.82C188.644 202.149 188.508 198.986 188.553 198.986C189.413 200.296 190.228 201.652 191.178 203.098C190.322 203.369 189.596 203.595 188.784 203.82H188.78Z" fill="white"/>
<path d="M68.4976 179.695C67.818 179.695 67.1841 179.65 66.5509 179.695C66.1884 179.74 65.2863 180.779 65.0115 181.005C65.6016 180.915 66.9126 180.689 67.0036 180.644C67.4564 180.373 67.9091 180.056 68.4976 179.695Z" fill="white"/>
<path d="M112.621 177.888C113.435 177.978 114.114 178.074 114.793 178.159C116.33 178.351 117.87 178.475 119.409 178.655C119.59 178.655 119.862 178.655 119.952 178.52C120.767 177.571 121.581 176.577 122.486 175.49C121.536 175.355 117.413 174.794 116.241 174.587C116.033 174.531 115.814 174.54 115.612 174.613C115.409 174.686 115.234 174.818 115.11 174.993C114.392 175.904 113.526 176.848 112.621 177.888Z" fill="#00B6FF"/>
<path d="M92.3017 175.221C92.2799 175.238 92.2642 175.261 92.2569 175.288C92.2497 175.314 92.2512 175.343 92.2614 175.368C92.2716 175.394 92.2899 175.415 92.3134 175.429C92.337 175.443 92.3645 175.45 92.3919 175.447C93.0063 175.519 95.5517 175.915 98.1847 176.125C98.929 176.125 98.4022 176.187 101.352 173.096C101.374 173.079 101.39 173.056 101.397 173.029C101.404 173.003 101.403 172.974 101.392 172.949C101.382 172.923 101.364 172.902 101.34 172.888C101.317 172.874 101.289 172.867 101.262 172.87C95.5306 172.081 95.5306 171.908 95.3334 172.102C94.2925 173.141 93.3089 174.193 92.3017 175.221Z" fill="#00B6FF"/>
<path d="M108.456 173.686C106.367 173.425 103.67 173.174 102.619 173.008C102.411 172.969 102.196 172.985 101.997 173.057C101.798 173.128 101.622 173.252 101.487 173.415C100.699 174.349 99.8582 175.266 98.9977 176.261C100.287 176.445 100.098 176.384 105.107 176.984C105.297 176.988 105.484 176.941 105.65 176.849C106.601 175.9 107.504 174.906 108.456 173.912V173.686Z" fill="#00B6FF"/>
<path d="M106.059 177.12C107.598 177.301 109.093 177.389 110.585 177.709C111.104 177.85 111.656 177.81 112.149 177.596C112.643 177.382 113.048 177.006 113.299 176.531C113.795 175.872 114.324 175.239 114.884 174.633C114.901 174.611 114.912 174.585 114.917 174.557C114.921 174.529 114.919 174.501 114.91 174.474C114.901 174.447 114.886 174.423 114.865 174.404C114.845 174.384 114.82 174.37 114.793 174.362C109.276 173.773 110.065 173.826 109.453 173.773C109.181 173.773 109.045 173.953 108.863 174.134C107.86 175.064 106.923 176.061 106.059 177.12Z" fill="#00B6FF"/>
<path d="M128.73 176.442C127.192 176.215 126.33 176.054 124.477 175.809C123.389 175.665 122.94 175.242 122.396 176.17C121.513 177.674 121.035 177.732 120.359 178.745C122.987 179.037 124.197 179.239 125.789 179.378C126.48 179.378 126.548 179.094 128.776 176.622C128.794 176.611 128.808 176.595 128.816 176.576C128.824 176.556 128.826 176.535 128.821 176.515C128.816 176.494 128.804 176.476 128.788 176.463C128.772 176.45 128.751 176.442 128.73 176.442Z" fill="#00B6FF"/>
</svg>
