<svg width="1370" height="126" viewBox="0 0 1370 126" fill="none" xmlns="http://www.w3.org/2000/svg">
<g clip-path="url(#clip0_1959_3531)">
<rect width="1370" height="126" rx="20" fill="#143A62" fill-opacity="0.05"/>
<rect width="1370" height="126" rx="20" fill="#143A62" fill-opacity="0.05"/>
<path d="M192.298 -200.461C192.298 -200.461 172.286 -128.059 89.952 -131.531C7.6179 -135.004 -24.08 -18.3992 57.5578 10.0565C139.196 38.5123 93.6963 92.2153 147.661 107.998C208.996 125.936 216.959 33.8094 260.435 35.6949C356.39 39.8562 409.329 -0.0958903 377.49 -38.3082C321.601 -105.385 289.518 -97.7645 295.53 -147.433C301.541 -197.102 215.928 -259.042 192.298 -200.461Z" fill="#DEE9FF"/>
<path d="M1172.5 36.5394C1172.5 36.5394 1152.49 108.941 1070.15 105.469C987.818 101.996 956.12 218.601 1037.76 247.057C1119.4 275.512 1073.9 329.215 1127.86 344.998C1189.2 362.936 1197.16 270.809 1240.64 272.695C1336.59 276.856 1389.53 236.904 1357.69 198.692C1301.8 131.615 1269.72 139.235 1275.73 89.5669C1281.74 39.8983 1196.13 -22.0423 1172.5 36.5394Z" fill="#DEE9FF"/>
</g>
<defs>
<clipPath id="clip0_1959_3531">
<rect width="1370" height="126" fill="white"/>
</clipPath>
</defs>
</svg>
