<svg width="176" height="176" viewBox="0 0 176 176" fill="none" xmlns="http://www.w3.org/2000/svg">
<g clip-path="url(#clip0_3149_2689)">
<rect width="176" height="176" rx="10" fill="#143A62" fill-opacity="0.05"/>
<path d="M149.17 112.812C149.17 112.812 109.383 123.48 88.3166 83.6893C67.2505 43.8983 3.31897 61.3315 12.3683 107.732C21.4176 154.133 -16.5496 147.59 -9.13503 177.421C-0.707381 211.326 45.0922 189.498 56.1915 210.524C80.6881 256.93 114.199 270.8 123.503 245.174C139.835 200.19 127.379 187.177 152.545 176.219C177.711 165.261 183.414 107.687 149.17 112.812Z" fill="#DEE9FF"/>
<g filter="url(#filter0_d_3149_2689)">
<path d="M136.311 149.643C139.211 165.65 140.072 166.11 138.846 165.987C131.686 165.271 131.844 165.653 131.691 164.736C131.315 162.502 129.184 149.705 128.57 147.527C128.336 146.694 128.505 147.073 135.385 147.503C136.043 147.544 135.957 147.692 136.311 149.643Z" fill="#FF8832"/>
<path d="M130.675 164.667C130.826 165.5 130.961 165.237 124.349 164.64C124.044 164.612 123.846 164.538 123.791 164.185C123.249 160.671 122.476 157.203 121.786 153.718C120.341 146.42 119.906 146.321 120.887 146.411C123.033 146.604 125.181 146.777 127.331 146.928C128.086 146.982 127.445 146.905 130.675 164.667Z" fill="#FF8832"/>
<path d="M146.431 142.125C144.894 142.815 143.354 142.081 138.846 142.172C137.539 142.199 141.184 140.842 143.407 139.334C143.6 139.203 143.812 139.221 144.012 139.22C156.025 139.203 154.62 138.451 146.431 142.125Z" fill="#FF8832"/>
<path d="M136.673 142.98C137.35 142.618 143.861 143.206 143.873 143.207C135.859 146.73 136.141 146.671 135.825 146.65C134.077 146.53 132.33 146.396 130.583 146.265C130.507 145.996 130.573 146.246 136.673 142.98Z" fill="#FF8832"/>
<path fill-rule="evenodd" clip-rule="evenodd" d="M140.189 165.824C140.482 166.091 141.694 165.338 148.269 162.406C148.587 162.264 148.813 162.17 148.951 162.003C149.564 161.257 148.414 159.045 145.82 144.542C145.797 144.413 145.779 144.292 145.762 144.182C145.669 143.554 145.625 143.257 144.953 143.595C144.362 143.893 143.752 144.152 143.143 144.412C142.944 144.496 142.745 144.581 142.547 144.667C137.644 146.792 136.727 147.015 136.648 147.409C136.63 147.498 136.655 147.595 136.686 147.726C136.73 147.91 139.227 160.214 140.068 165.424C140.098 165.614 140.112 165.754 140.189 165.824ZM142.123 163.581L145.508 161.999C146.072 161.736 146.002 161.401 145.584 159.406C145.483 158.925 145.362 158.346 145.224 157.649C145.131 157.178 144.624 156.919 144.192 157.122L140.806 158.704C140.243 158.967 140.313 159.302 140.731 161.297C140.832 161.778 140.953 162.357 141.091 163.054C141.183 163.525 141.691 163.784 142.123 163.581Z" fill="#FF8832"/>
<path fill-rule="evenodd" clip-rule="evenodd" d="M150.034 161.445C150.382 161.72 151.605 160.88 157.521 158.359L157.521 158.359C158.434 157.97 158.391 157.771 157.545 153.822C157.034 151.438 156.23 147.687 155.166 141.704C155.117 141.435 155.063 141.166 155.006 140.898C154.934 140.559 154.867 140.241 154.822 139.92C154.796 139.741 154.785 139.612 154.715 139.548C154.44 139.296 153.259 140.047 146.791 142.793C146.749 142.811 146.713 142.825 146.682 142.849C146.347 143.104 146.759 144.352 149.851 160.888C149.903 161.169 149.927 161.36 150.034 161.445ZM152.068 147.775L154.584 146.365C155.004 146.13 154.918 145.712 154.513 143.754C154.415 143.28 154.298 142.716 154.165 142.042C154.072 141.571 153.672 141.292 153.35 141.472L150.834 142.881C150.414 143.116 150.5 143.534 150.905 145.492C151.003 145.966 151.12 146.531 151.253 147.204C151.345 147.675 151.746 147.955 152.068 147.775Z" fill="#FF8832"/>
<path fill-rule="evenodd" clip-rule="evenodd" d="M131.027 141.518C127.026 143.284 122.158 145.493 121.847 145.706C128.15 146.296 128.701 146.207 130.093 145.428C132.422 144.124 134.764 142.896 136.72 141.879C136.658 141.875 136.596 141.869 136.535 141.86C136.38 141.843 136.227 141.805 136.083 141.744C135.818 142.007 135.338 142.156 135.007 142.173C134.45 143.032 133.441 143.225 132.619 142.644L131.027 141.518ZM137.952 141.24C138.176 140.878 138.312 140.397 138.43 139.883C138.515 139.511 138.548 139.307 138.575 139.194L138.69 139.197C139.527 139.214 140.515 139.234 141.574 139.199C141.624 139.327 140.157 140.095 137.952 141.24Z" fill="#FF8832"/>
<path fill-rule="evenodd" clip-rule="evenodd" d="M103.731 84.7153C121.503 68.5765 150.065 75.5391 156.164 95.9729L156.163 95.9731L156.187 96.0481C156.372 96.6083 156.431 96.7861 150.398 110.973C149.369 113.399 148.353 115.831 147.351 118.268C147.103 118.008 146.795 117.815 146.454 117.705C148.871 111.895 151.28 106.081 153.681 100.265C150.691 101.838 147.087 102.071 144.71 99.6447C143.395 107.882 141.571 117.432 139.917 126.062C139.22 129.696 138.708 132.434 138.321 134.497L138.321 134.498C137.311 139.894 137.166 140.666 136.862 140.737C136.811 140.748 136.756 140.741 136.691 140.732L136.69 140.732L136.665 140.728C136.607 140.725 136.551 140.71 136.498 140.684C136.219 140.515 136.392 139.592 137.636 132.917C137.936 131.313 138.297 129.375 138.729 127.036C141.031 114.571 142.305 108.11 142.974 104.719C143.646 101.308 143.707 101.002 143.584 100.819C143.571 100.8 143.557 100.782 143.542 100.764C140.675 104.954 135.238 105.139 131.69 102.398C131.625 102.618 131.627 102.634 131.958 105.146L131.958 105.147C132.343 108.076 133.173 114.394 134.864 128.376C135.164 130.858 135.4 132.706 135.575 134.083C136 137.403 136.075 137.995 135.857 138.139C135.81 138.17 135.749 138.181 135.674 138.193L135.669 138.194C135.091 138.291 133.156 121.774 131.949 111.477C131.451 107.223 131.077 104.031 130.975 103.51C128.06 108.002 124.151 109.258 119.123 107.278C124.351 118.058 127.926 125.379 130.355 130.354C134.991 139.853 135.454 140.8 135.282 140.936C135.263 140.951 135.236 140.956 135.206 140.962C135.178 140.966 135.15 140.974 135.124 140.985C134.786 141.145 134.672 140.886 134.568 140.651C134.551 140.613 134.534 140.575 134.516 140.538C120.027 111.157 118.159 107.164 117.902 106.615C117.862 106.53 117.861 106.528 117.857 106.527C115.539 111.506 111.495 112.766 106.345 111.931C112.166 117.869 117.996 123.798 123.835 129.718C132.305 138.31 133.037 139.053 132.888 139.351C132.872 139.38 132.852 139.406 132.829 139.43L132.828 139.43C132.804 139.458 132.785 139.488 132.769 139.521C132.756 139.553 132.735 139.581 132.708 139.603C132.482 139.75 131.554 138.801 122.547 129.585C118.503 125.448 112.832 119.645 104.863 111.527C103.67 114.331 101.634 115.994 98.3973 116.243C105.865 121.481 113.337 126.713 120.813 131.939L120.814 131.939C133.173 140.58 134.175 141.28 134.075 141.524C134.064 141.546 134.049 141.566 134.031 141.583C134.018 141.596 134.004 141.61 133.992 141.627C133.802 141.883 133.537 141.901 133.272 141.713C121.786 133.596 113.92 128.124 108.509 124.36C98.1193 117.132 96.7748 116.196 96.2198 114.915C96.1363 114.713 96.0622 114.508 95.9975 114.299L95.9143 114.047C92.9015 105.129 94.9552 96.3499 99.3284 89.8337C99.7035 90.2423 100.083 90.6472 100.466 91.0482C100.16 91.4385 99.9692 91.694 99.9191 91.7722C95.2026 99.2033 94.8457 107.955 97.6711 114.566C97.8228 114.921 97.9919 115.023 98.3696 115.004C100.378 114.902 101.83 113.869 102.964 112.289C103.196 111.964 103.42 111.634 103.637 111.299C104.347 110.216 104.604 109.823 105.64 110.223C110.525 112.108 115.246 109.467 116.515 105.734C116.938 104.49 117.555 104.416 118.14 104.914C122.402 108.545 128.463 106.455 129.912 101.696C130.421 100.023 131.011 100.502 131.875 101.203C132.218 101.481 132.603 101.794 133.043 102.022C136.111 103.608 140.38 103.396 142.849 99.359C143.964 97.5378 144.155 97.3014 144.953 98.2554C147.001 100.705 150.505 100.323 152.535 99.0219C155.013 97.434 154.658 96.4857 153.897 94.5672C150.056 84.8884 139.247 76.7855 124.725 77.5199C124.266 77.5432 123.188 77.6928 122.936 77.75L123.019 77.8749C135.766 86.176 139.71 98.2268 138.015 95.8063L137.47 95.0265C132.999 88.6323 129.982 84.3166 122.32 78.6591C121.521 78.0692 120.82 77.8888 119.913 78.1709C119.154 78.4067 118.603 78.5234 118.213 78.6063C117.477 78.7616 117.323 78.7948 117.438 79.2784C117.668 80.241 117.89 81.1594 118.102 82.0353C117.719 81.6552 117.305 81.4992 116.878 81.5768C116.674 80.6332 116.522 79.8748 116.475 79.5274C116.412 79.059 116.363 79.0786 114.676 79.7662C114.287 79.9253 113.81 80.1195 113.226 80.3514C112.82 80.5126 112.573 80.795 112.379 81.2092C106.558 93.5964 106.951 101.68 107.111 104.994C107.163 106.058 107.191 106.63 106.981 106.694C106.152 106.946 104.637 99.4003 108.191 88.2837C109.149 85.2869 110.177 83.3757 110.765 82.2827C110.926 81.9842 111.054 81.7471 111.139 81.5647C110.619 81.3815 106.658 83.8519 104.735 85.9915C104.402 86.3622 104.078 86.7268 103.768 87.0819C103.415 86.828 103.138 86.6105 102.907 86.4308C102.699 86.2682 102.53 86.1358 102.379 86.0336C102.814 85.5784 103.265 85.1387 103.731 84.7153ZM144.67 121.989L143.513 124.767C138.659 136.413 138.194 137.529 138.501 137.819C138.537 137.85 138.577 137.876 138.62 137.895L138.622 137.896C139.188 138.192 141.941 131.467 145.404 123.013L145.744 122.182C145.457 122.188 145.059 122.157 144.67 121.989ZM119.038 88.324C119.22 88.1862 119.393 88.0563 119.554 87.9332C120.484 91.6446 121.179 94.2892 121.705 96.2902C122.43 99.0472 122.834 100.585 123.089 102.011C123.444 104.002 121.099 99.8084 118.569 88.9912L118.479 88.6091C118.681 88.5501 118.871 88.4534 119.038 88.324Z" fill="#191919"/>
<path d="M165.975 95.6105C165.181 97.8936 160.079 96.4439 160.889 93.1549C161.061 92.4585 159.6 92.6371 159.501 90.0204C159.494 89.8312 159.476 89.7195 159.299 89.6172C157.791 88.747 157.739 87.0451 158.141 85.7897C159.027 83.0254 160.425 83.9197 159.702 84.4399C158.691 85.1666 158.382 87.5792 159.166 88.5237C159.446 88.8613 159.68 89.0417 159.879 88.4435C160.288 87.2158 161.767 86.5393 162.47 87.2685C163.173 87.9976 162.214 89.6117 160.722 89.8C159.628 89.938 160.412 91.3916 160.852 91.8967C161.49 92.6284 161.56 90.6621 163.24 90.6981C164.702 90.7298 164.072 92.7104 162.24 93.034C161.61 93.1454 161.479 93.3028 161.607 93.9475C161.926 95.549 164.504 96.7371 165.621 95.4448C166.102 94.8891 165.997 95.5477 165.975 95.6109L165.975 95.6105ZM162.059 87.8681C161.94 87.5164 161.348 87.6622 161.051 87.8782C160.667 88.157 160.252 89.0133 160.446 89.0848C161.038 89.3032 161.903 88.5562 162.059 87.8681ZM163.237 91.675C163.538 91.1705 162.953 90.9995 162.067 92.0254C161.608 92.5571 162.786 92.4336 163.237 91.675Z" fill="#FF8832"/>
<path d="M111.907 63.1177C110.369 64.2526 109.737 67.2386 110.681 67.3159C110.871 67.3316 111.264 65.6438 112.715 65.4083C114.41 65.133 114.294 67.5585 111.888 68.1626C111.711 68.2072 111.392 68.15 111.429 68.4657C111.477 68.8776 111.687 69.221 112.074 69.415C112.367 69.5614 112.439 69.28 112.544 69.1307C112.981 68.515 113.597 68.176 114.289 67.9652C115.149 67.703 115.7 68.3755 115.202 69.1359C113.776 71.3105 112.437 69.5823 112.585 71.1212C112.713 72.4714 114.187 73.2522 115.545 72.6901C115.757 72.6024 115.95 72.4737 116.199 72.4956C115.504 74.3498 111.609 73.9273 111.878 70.6818C111.97 69.581 107.227 67.07 111.111 63.2368C111.273 63.0767 111.51 63.0238 111.909 63.1175L111.907 63.1177ZM111.664 67.3497C112.126 67.1923 112.579 67.0303 112.886 66.6381C112.983 66.5131 113.223 66.3616 113.033 66.1662C112.744 65.8694 111.859 66.5268 111.664 67.3497ZM114.707 68.5443C113.87 68.5728 113.02 69.3741 113.139 69.5964C113.271 69.8429 114.364 69.4625 114.707 68.5443Z" fill="#FF8832"/>
<path d="M149.965 72.0699C148.499 72.0472 145.742 71.9027 146.46 70.6176C148.8 66.4291 147.754 65.1096 149.308 65.5508C152.196 66.3705 151.465 66.0713 150.782 71.3324C150.716 71.8452 150.389 71.9779 149.965 72.0699ZM149.213 66.6407C148.812 66.6717 148.953 67.532 147.772 70.203C147.545 70.7164 147.814 70.5777 149.319 70.9552C149.981 71.1217 149.838 70.7923 150.317 67.6543C150.413 67.0265 149.849 66.5069 149.213 66.6407Z" fill="#FF8832"/>
<path d="M118.698 87.8688C118.295 88.1724 117.911 88.1639 117.508 87.8178C112.807 83.7718 112.963 85.0337 116.523 82.3587C116.973 82.0207 117.323 82.053 117.722 82.459C121.568 86.3725 121.906 85.4534 118.698 87.8688ZM119.663 85.7725C119.286 85.3516 118.803 84.8893 118.392 84.5025C116.724 82.9348 117.438 83.0159 115.508 84.2789C114.98 84.6243 115.036 84.4838 117.957 86.9444C118.16 87.116 118.299 86.9509 118.442 86.8279C118.846 86.4815 119.337 86.2305 119.663 85.7725Z" fill="#FF8832"/>
<path d="M99.6353 89.3283C98.7265 88.344 99.5573 88.435 100.952 86.7924C101.396 86.269 101.784 86.2027 102.287 86.6646C103.668 87.9354 106.81 89.3289 105.669 90.3404C102.748 92.9283 103.183 93.1693 99.6353 89.3283ZM101.638 87.4083C100.506 88.5538 100.142 88.6898 100.686 89.1424C103.205 91.2364 102.791 91.7294 104.655 90.0072C105.388 89.3301 103.154 88.5882 101.943 87.533C101.868 87.4685 101.754 87.4546 101.639 87.4088L101.638 87.4083Z" fill="#FF8832"/>
<path d="M100.847 75.5112C100.925 76.3059 100.717 76.5904 99.9454 76.7517C95.8404 77.6086 97.6491 76.8047 97.1068 72.1544C96.9195 70.5477 97.3513 71.0208 99.4746 70.6223C99.947 70.5334 100.016 70.6538 100.172 71.4908C101.017 76.0381 100.787 74.911 100.846 75.5119L100.847 75.5112ZM99.6312 75.9486C99.816 75.9211 99.9621 75.8361 99.9335 75.5229C99.8247 74.3325 99.6249 73.1504 99.4378 71.9687C99.3705 71.5443 99.0617 71.4309 98.6825 71.5718C98.3552 71.6935 97.8014 71.4546 97.8727 72.2106C97.9649 73.1879 98.1561 74.1584 98.0898 75.1545C98.043 75.8616 98.0447 76.0851 98.4228 76.0973C98.5856 76.1027 98.7297 76.081 99.6312 75.9486Z" fill="#FF8832"/>
<path d="M107.098 129.558C107.844 129.738 107.635 129.965 107.695 134.581C107.706 135.466 106.956 135.224 104.131 134.937C103.389 134.862 103.645 134.748 104.379 129.393C104.513 128.417 105.929 129.275 107.098 129.558ZM106.92 130.485C106.712 130.043 106.093 130.224 105.701 129.969C104.86 129.423 105.091 130.56 104.583 133.599C104.46 134.331 104.775 134.039 106.346 134.272C107.007 134.37 106.842 134.161 106.92 130.485Z" fill="#FF8832"/>
<path d="M126.054 69.3414C126.224 69.586 126.277 69.8986 125.946 70.1178C124.751 70.9091 123.771 72.1007 123.044 71.0841C121.369 68.7373 120.83 67.9167 121.949 67.2525C123.212 66.5022 123.187 65.2334 126.054 69.3414ZM123.986 70.562C125.485 69.5602 125.647 69.8742 124.039 68.0368C123.311 67.2038 123.117 67.2103 122.34 68.0232C122.009 68.3703 122.126 68.3288 123.543 70.3791C123.649 70.5334 123.774 70.621 123.985 70.5615L123.986 70.562Z" fill="#FF8832"/>
<path d="M155.736 112.751C155.501 112.634 155.563 112.363 155.643 112.127C156.637 109.149 156.6 109.07 156.708 108.965C157.386 108.304 158.034 109.006 158.697 109.034C159.515 109.069 159.158 110.035 158.71 112.962C158.564 113.912 156.303 113.031 155.736 112.751ZM157.623 112.537C158.086 112.579 157.881 112.408 158.292 110.151C158.385 109.639 157.958 109.778 157.737 109.681C157.494 109.575 157.266 109.559 157.166 109.919C156.417 112.609 156.036 112.109 157.623 112.537Z" fill="#FF8832"/>
<path d="M146.022 121.598C143.705 122.028 142.911 118.706 145.217 118.216C147.649 117.7 148.371 121.162 146.022 121.598ZM146.56 119.75C146.332 118.614 144.45 118.933 144.689 120.047C144.774 120.445 145.43 120.824 145.89 120.74C146.295 120.666 146.641 120.156 146.56 119.75Z" fill="#FF8832"/>
<path d="M128.365 60.7192C127.966 58.5775 131.169 58.369 131.529 60.4771C131.855 62.385 128.798 63.0476 128.365 60.7192ZM130.635 60.6518C130.467 59.6369 128.992 59.6312 129.14 60.6032C129.26 61.3879 130.609 61.6235 130.635 60.6518Z" fill="#FF8832"/>
<path d="M95.8525 122.226C93.8619 122.612 93.2407 119.665 95.1635 119.267C97.1214 118.862 97.8159 121.845 95.8525 122.226ZM95.3427 120.13C94.4018 120.303 94.8252 121.396 95.6013 121.325C96.296 121.261 96.1686 120.076 95.3427 120.13Z" fill="#FF8832"/>
<path d="M143.339 92.2774C143.749 94.2974 140.74 94.7504 140.346 92.8422C139.958 90.9677 142.923 90.2237 143.339 92.2774ZM142.571 92.4526C142.41 91.5298 140.928 91.8354 141.104 92.6498C141.279 93.4642 142.712 93.2634 142.571 92.4526Z" fill="#FF8832"/>
<path d="M112.326 101.64C111.821 101.733 111.519 101.556 111.415 101.04C111.312 100.528 111.537 100.219 112.007 100.096C112.948 99.8501 113.456 101.434 112.326 101.64Z" fill="#FF8832"/>
<path d="M105.765 76.4102C105.94 77.2709 104.498 77.5528 104.362 76.5983C104.222 75.6211 105.576 75.472 105.765 76.4102Z" fill="#FF8832"/>
<path d="M106.527 120.344C105.55 120.531 105.48 119.058 106.3 118.917C107.121 118.777 107.471 120.164 106.527 120.344Z" fill="#FF8832"/>
<path d="M135.729 72.1178C135.812 73.0341 134.583 73.2603 134.373 72.3529C134.164 71.4456 135.513 71.136 135.729 72.1178Z" fill="#FF8832"/>
<path d="M158.963 96.9671C158.154 97.1109 157.839 95.8153 158.767 95.6456C159.695 95.4759 159.899 96.8006 158.963 96.9671Z" fill="#FF8832"/>
<path d="M137.145 64.728C136.151 64.9313 136.025 63.6244 136.852 63.4678C137.735 63.3006 137.87 64.5795 137.145 64.728Z" fill="#FF8832"/>
<path d="M104.949 66.0267C104.61 66.0407 104.283 66.0132 104.209 65.5655C104.138 65.1291 104.286 64.8116 104.739 64.7301C105.506 64.5925 105.901 65.794 104.949 66.0267Z" fill="#FF8832"/>
<path d="M151.987 78.5346C151.849 77.5898 153.03 77.3277 153.235 78.2603C153.407 79.0392 152.322 79.467 151.987 78.5346Z" fill="#FF8832"/>
<path d="M110.464 135.484C110.402 134.991 110.498 134.68 110.935 134.651C111.303 134.627 111.604 134.768 111.667 135.182C111.793 136.006 110.679 136.203 110.464 135.484Z" fill="#FF8832"/>
<path d="M125.49 125.76C125.527 126.334 124.682 126.607 124.533 125.959C124.376 125.274 125.342 125.005 125.49 125.76Z" fill="#FF8832"/>
</g>
<g filter="url(#filter1_d_3149_2689)">
<path d="M48.9063 144.675C47.255 153.8 46.7646 154.063 47.4628 153.993C51.5397 153.585 51.4497 153.802 51.5373 153.279C51.751 152.006 52.9648 144.711 53.3142 143.468C53.4476 142.994 53.3512 143.21 49.4333 143.455C49.0589 143.478 49.1077 143.563 48.9063 144.675Z" fill="#FF8832"/>
<path d="M52.1156 153.24C52.0294 153.715 51.9525 153.565 55.718 153.224C55.8914 153.209 56.0044 153.166 56.0355 152.965C56.3444 150.962 56.7847 148.985 57.1774 146.998C58.0002 142.837 58.2479 142.781 57.6892 142.832C56.4671 142.943 55.2439 143.041 54.0199 143.127C53.5896 143.158 53.9548 143.114 52.1156 153.24Z" fill="#FF8832"/>
<path d="M43.1432 140.389C44.0186 140.782 44.8955 140.364 47.4629 140.416C48.2067 140.431 46.1315 139.658 44.8657 138.798C44.7553 138.723 44.6351 138.733 44.5212 138.733C37.6803 138.723 38.4804 138.294 43.1432 140.389Z" fill="#FF8832"/>
<path d="M48.7001 140.876C48.3145 140.67 44.6069 141.005 44.6002 141.006C49.1635 143.014 49.003 142.981 49.183 142.969C50.1785 142.901 51.1735 142.824 52.1683 142.749C52.211 142.596 52.1738 142.738 48.7001 140.876Z" fill="#FF8832"/>
<path fill-rule="evenodd" clip-rule="evenodd" d="M46.6981 153.899C46.5311 154.052 45.8407 153.623 42.0969 151.951C41.9158 151.87 41.7869 151.817 41.7086 151.721C41.3593 151.296 42.0141 150.035 43.4913 141.767C43.5045 141.693 43.5148 141.625 43.5242 141.562C43.5771 141.204 43.6022 141.034 43.9852 141.227C44.3219 141.397 44.6691 141.545 45.016 141.693C45.129 141.741 45.2423 141.789 45.3551 141.838C48.1473 143.049 48.6693 143.177 48.7146 143.401C48.7244 143.452 48.7105 143.508 48.6929 143.582C48.6676 143.687 47.2456 150.701 46.767 153.672C46.7497 153.78 46.7416 153.86 46.6981 153.899ZM45.5965 152.621L43.6688 151.719C43.3481 151.569 43.3878 151.378 43.6259 150.241C43.6836 149.966 43.7524 149.637 43.8307 149.239C43.8835 148.971 44.1723 148.823 44.4187 148.938L46.3463 149.841C46.6671 149.991 46.6273 150.181 46.3892 151.319C46.3316 151.593 46.2627 151.923 46.1845 152.321C46.1317 152.589 45.8428 152.736 45.5965 152.621Z" fill="#FF8832"/>
<path fill-rule="evenodd" clip-rule="evenodd" d="M41.0915 151.403C40.8936 151.56 40.1973 151.081 36.8286 149.644L36.8282 149.644C36.3083 149.422 36.3326 149.308 36.8146 147.057C37.1055 145.698 37.5636 143.56 38.1691 140.149C38.1972 139.995 38.2278 139.842 38.2607 139.689C38.3013 139.496 38.3396 139.315 38.3654 139.132C38.3798 139.03 38.3861 138.956 38.4263 138.92C38.583 138.776 39.2554 139.204 42.9385 140.77C42.9623 140.78 42.9831 140.788 43.0006 140.802C43.1915 140.947 42.9567 141.659 41.1959 151.086C41.1661 151.246 41.1525 151.355 41.0915 151.403ZM39.9337 143.61L38.5009 142.806C38.2616 142.672 38.3107 142.434 38.5413 141.318C38.5972 141.048 38.6638 140.726 38.7394 140.342C38.7922 140.073 39.0203 139.914 39.2035 140.017L40.6362 140.82C40.8756 140.954 40.8264 141.192 40.5958 142.309C40.54 142.579 40.4734 142.901 40.3978 143.285C40.345 143.553 40.1168 143.713 39.9337 143.61Z" fill="#FF8832"/>
<path fill-rule="evenodd" clip-rule="evenodd" d="M51.9155 140.043C54.1936 141.05 56.9655 142.309 57.1429 142.431C53.5537 142.767 53.2398 142.716 52.4471 142.272C51.121 141.528 49.7874 140.828 48.6734 140.249C48.7086 140.247 48.7437 140.243 48.7786 140.238C48.8672 140.229 48.954 140.206 49.0362 140.172C49.1869 140.322 49.4603 140.407 49.6486 140.417C49.9662 140.906 50.5405 141.016 51.0084 140.685L51.9155 140.043ZM47.972 139.884C47.8445 139.678 47.7667 139.404 47.6996 139.111C47.6509 138.899 47.6325 138.783 47.6168 138.718L47.5518 138.72C47.0748 138.73 46.5123 138.741 45.9091 138.721C45.8809 138.794 46.7162 139.232 47.972 139.884Z" fill="#FF8832"/>
<path fill-rule="evenodd" clip-rule="evenodd" d="M67.4586 107.66C57.3384 98.4595 41.0738 102.429 37.6008 114.078L37.6014 114.078L37.5877 114.121C37.4826 114.44 37.4492 114.542 40.8844 122.629C41.4705 124.012 42.0489 125.399 42.6194 126.788C42.7606 126.64 42.9362 126.53 43.1303 126.467C41.754 123.155 40.3823 119.841 39.0152 116.525C40.7174 117.422 42.7698 117.554 44.1235 116.171C44.8724 120.868 45.9109 126.312 46.8531 131.232C47.2497 133.303 47.5416 134.864 47.7614 136.04L47.7617 136.041C48.3368 139.117 48.4192 139.558 48.5925 139.598C48.6216 139.604 48.6528 139.6 48.6898 139.595L48.6902 139.595L48.7044 139.593C48.7374 139.591 48.7698 139.582 48.7995 139.568C48.9584 139.471 48.8603 138.945 48.1516 135.14C47.981 134.225 47.7752 133.12 47.5292 131.787C46.2186 124.681 45.4929 120.997 45.1122 119.064C44.7292 117.12 44.6949 116.945 44.7646 116.841C44.772 116.83 44.78 116.819 44.7886 116.809C46.4211 119.198 49.5171 119.304 51.5377 117.741C51.5744 117.866 51.5732 117.876 51.3852 119.308L51.385 119.308C51.1657 120.978 50.6929 124.58 49.7304 132.551C49.5596 133.966 49.4252 135.019 49.3251 135.805C49.0834 137.697 49.0405 138.034 49.1645 138.117C49.1914 138.135 49.2262 138.14 49.2687 138.148L49.2716 138.148C49.6007 138.204 50.7028 128.787 51.3899 122.917C51.6737 120.492 51.8866 118.672 51.945 118.375C53.6048 120.936 55.8306 121.652 58.694 120.523C55.7168 126.668 53.6812 130.842 52.298 133.679C49.6577 139.094 49.3943 139.633 49.4922 139.711C49.5031 139.72 49.5184 139.723 49.5355 139.726C49.5516 139.728 49.5672 139.733 49.5821 139.739C49.7745 139.83 49.8395 139.683 49.8989 139.549C49.9083 139.527 49.9181 139.506 49.9284 139.484C58.1789 122.735 59.243 120.458 59.3894 120.145C59.4122 120.096 59.4124 120.095 59.4145 120.095C60.7346 122.934 63.0376 123.652 65.9699 123.176C62.6553 126.561 59.3355 129.941 56.0107 133.316C51.1875 138.214 50.7708 138.638 50.8552 138.807C50.8645 138.824 50.8759 138.839 50.8893 138.852L50.8899 138.853C50.9031 138.869 50.9144 138.886 50.9233 138.904C50.9309 138.923 50.9428 138.939 50.9579 138.952C51.0868 139.035 51.6148 138.494 56.744 133.24C59.047 130.882 62.2763 127.573 66.8139 122.945C67.4933 124.544 68.6527 125.492 70.496 125.634C66.2436 128.62 61.9888 131.603 57.7315 134.582L57.7308 134.582C50.6929 139.508 50.1224 139.908 50.1793 140.047C50.1857 140.059 50.1943 140.07 50.2047 140.08C50.2121 140.088 50.2201 140.096 50.2269 140.105C50.3347 140.251 50.4856 140.261 50.6368 140.154C57.1775 135.526 61.6565 132.407 64.738 130.261C70.6543 126.141 71.4199 125.607 71.736 124.877C71.7835 124.762 71.8257 124.645 71.8625 124.526L71.9099 124.382C73.6256 119.298 72.4561 114.293 69.9657 110.578C69.7522 110.811 69.5363 111.042 69.3181 111.27C69.4922 111.493 69.6009 111.639 69.6294 111.683C72.3152 115.92 72.5184 120.909 70.9095 124.678C70.8231 124.88 70.7268 124.939 70.5118 124.928C69.3681 124.869 68.5411 124.281 67.8954 123.38C67.7636 123.194 67.6359 123.006 67.5123 122.815C67.1079 122.198 66.9615 121.974 66.3719 122.202C63.59 123.277 60.9014 121.771 60.1789 119.643C59.9381 118.934 59.5866 118.892 59.2537 119.175C56.8266 121.245 53.3752 120.054 52.5503 117.341C52.2601 116.387 51.924 116.66 51.4321 117.06C51.2371 117.218 51.0178 117.397 50.7671 117.526C49.02 118.431 46.5894 118.31 45.183 116.008C44.5484 114.97 44.4393 114.835 43.9849 115.379C42.8187 116.776 40.8234 116.558 39.6673 115.816C38.2563 114.911 38.4584 114.37 38.8918 113.277C41.079 107.759 47.2342 103.139 55.5037 103.558C55.7652 103.571 56.3793 103.657 56.5228 103.689L56.4751 103.76C49.2168 108.493 46.9708 115.363 47.9357 113.983L48.2463 113.538C50.792 109.893 52.5102 107.433 56.8734 104.208C57.3284 103.871 57.7277 103.768 58.244 103.929C58.6765 104.064 58.9902 104.13 59.212 104.177C59.631 104.266 59.719 104.285 59.6532 104.561C59.5221 105.109 59.396 105.633 59.2753 106.132C59.4935 105.916 59.7289 105.827 59.9724 105.871C60.0882 105.333 60.1749 104.901 60.2017 104.703C60.2377 104.436 60.2653 104.447 61.226 104.839C61.4475 104.929 61.7192 105.04 62.0521 105.172C62.2829 105.264 62.4235 105.425 62.5342 105.661C65.8488 112.723 65.6252 117.332 65.5341 119.221C65.5044 119.828 65.4885 120.153 65.6081 120.19C66.0799 120.334 66.943 116.032 64.919 109.694C64.3734 107.986 63.7879 106.896 63.453 106.273C63.3614 106.103 63.2886 105.968 63.2404 105.864C63.5366 105.76 65.7922 107.168 66.8872 108.388C67.0767 108.599 67.2609 108.807 67.4377 109.009C67.6385 108.865 67.7966 108.741 67.9277 108.638C68.0463 108.545 68.1427 108.47 68.2288 108.412C67.9808 108.152 67.724 107.901 67.4586 107.66ZM44.1461 128.91L44.8054 130.493C47.5693 137.133 47.834 137.769 47.6591 137.934C47.6386 137.952 47.6157 137.966 47.5912 137.978L47.59 137.978C47.268 138.147 45.7001 134.313 43.7285 129.493L43.5345 129.02C43.698 129.023 43.9246 129.005 44.1461 128.91ZM58.7424 109.717C58.6383 109.639 58.5403 109.565 58.4485 109.495C57.9189 111.61 57.5231 113.118 57.2237 114.259C56.8107 115.831 56.5807 116.707 56.4356 117.52C56.2334 118.655 57.5685 116.265 59.0095 110.098L59.0607 109.88C58.9454 109.846 58.8374 109.791 58.7424 109.717Z" fill="#191919"/>
<path d="M32.0144 113.871C32.4664 115.173 35.3714 114.347 34.9101 112.471C34.8126 112.074 35.6447 112.176 35.7006 110.685C35.7046 110.577 35.7152 110.513 35.8161 110.455C36.6747 109.959 36.7042 108.988 36.4753 108.273C35.971 106.697 35.1744 107.207 35.5865 107.503C36.1623 107.917 36.3379 109.293 35.8916 109.831C35.7319 110.024 35.5991 110.127 35.4856 109.786C35.2526 109.086 34.4104 108.7 34.01 109.116C33.6097 109.531 34.1558 110.452 35.0056 110.559C35.6283 110.638 35.1823 111.466 34.9315 111.754C34.5684 112.171 34.5286 111.05 33.5718 111.071C32.7393 111.089 33.0981 112.218 34.1413 112.403C34.4999 112.466 34.5747 112.556 34.5013 112.923C34.3197 113.836 32.8517 114.514 32.2156 113.777C31.9422 113.46 32.0016 113.836 32.014 113.872L32.0144 113.871ZM34.2442 109.457C34.312 109.257 34.6489 109.34 34.8181 109.463C35.0368 109.622 35.2731 110.11 35.1624 110.151C34.8253 110.276 34.333 109.85 34.2442 109.457ZM33.5731 111.628C33.4023 111.34 33.7351 111.243 34.2396 111.828C34.5012 112.131 33.83 112.06 33.5731 111.628Z" fill="#FF8832"/>
<path d="M62.8027 95.3475C63.6786 95.9945 64.0385 97.6968 63.5013 97.7408C63.3929 97.7498 63.1693 96.7876 62.343 96.6533C61.3779 96.4964 61.4438 97.8792 62.8138 98.2235C62.9147 98.249 63.0961 98.2164 63.0752 98.3963C63.0478 98.6311 62.9281 98.8269 62.7076 98.9375C62.5413 99.021 62.5002 98.8606 62.44 98.7755C62.1915 98.4245 61.8407 98.2312 61.4464 98.111C60.9569 97.9615 60.643 98.3449 60.9268 98.7784C61.7386 100.018 62.501 99.0329 62.4171 99.9102C62.3439 100.68 61.5046 101.125 60.7311 100.805C60.6105 100.755 60.5008 100.681 60.3587 100.694C60.7545 101.751 62.9728 101.51 62.8193 99.6597C62.7672 99.0322 65.4681 97.6007 63.2565 95.4154C63.1638 95.3241 63.0291 95.2939 62.8021 95.3473L62.8027 95.3475ZM62.9416 97.7601C62.6783 97.6704 62.4202 97.578 62.2456 97.3544C62.19 97.2832 62.0535 97.1968 62.1616 97.0854C62.3263 96.9162 62.8306 97.291 62.9416 97.7601ZM61.2088 98.4411C61.6852 98.4574 62.1691 98.9142 62.1013 99.0409C62.0261 99.1815 61.4039 98.9646 61.2088 98.4411Z" fill="#FF8832"/>
<path d="M41.131 100.451C41.9658 100.438 43.5356 100.356 43.1268 99.6231C41.7942 97.2353 42.3902 96.4831 41.5051 96.7346C39.8606 97.2019 40.2768 97.0313 40.6657 100.031C40.7036 100.323 40.8894 100.399 41.131 100.451ZM41.5592 97.3559C41.7878 97.3736 41.7074 97.8641 42.38 99.3868C42.5092 99.6794 42.3561 99.6004 41.499 99.8156C41.1218 99.9105 41.2033 99.7227 40.9304 97.9338C40.8758 97.5759 41.1968 97.2796 41.5592 97.3559Z" fill="#FF8832"/>
<path d="M58.9357 109.458C59.1654 109.631 59.3843 109.626 59.6133 109.429C62.2906 107.122 62.2015 107.842 60.1746 106.317C59.9183 106.124 59.719 106.142 59.4915 106.374C57.3018 108.605 57.1091 108.081 58.9357 109.458ZM58.3862 108.263C58.6011 108.023 58.8762 107.759 59.1104 107.539C60.0598 106.645 59.6535 106.691 60.7524 107.411C61.0531 107.608 61.0213 107.528 59.358 108.931C59.242 109.029 59.1632 108.935 59.0816 108.864C58.8514 108.667 58.5722 108.524 58.3862 108.263Z" fill="#FF8832"/>
<path d="M69.791 110.29C70.3085 109.729 69.8355 109.781 69.0412 108.844C68.7883 108.546 68.5673 108.508 68.2811 108.771C67.4944 109.496 65.7053 110.29 66.3554 110.867C68.0184 112.342 67.7709 112.48 69.791 110.29ZM68.6506 109.195C69.2952 109.848 69.5025 109.926 69.1929 110.184C67.7583 111.378 67.9941 111.659 66.9325 110.677C66.5153 110.291 67.7873 109.868 68.4771 109.266C68.5194 109.23 68.5847 109.222 68.6502 109.196L68.6506 109.195Z" fill="#FF8832"/>
<path d="M69.1013 102.413C69.0567 102.866 69.175 103.028 69.6144 103.12C71.952 103.609 70.9221 103.15 71.2309 100.499C71.3375 99.5833 71.0916 99.853 69.8825 99.6258C69.6135 99.5751 69.5743 99.6437 69.4856 100.121C69.0042 102.713 69.1353 102.071 69.1015 102.413L69.1013 102.413ZM69.7933 102.662C69.6881 102.647 69.6049 102.598 69.6212 102.42C69.6831 101.741 69.7969 101.067 69.9034 100.393C69.9418 100.151 70.1176 100.087 70.3336 100.167C70.52 100.236 70.8353 100.1 70.7947 100.531C70.7422 101.088 70.6333 101.642 70.6711 102.21C70.6977 102.613 70.6968 102.74 70.4815 102.747C70.3888 102.75 70.3067 102.738 69.7933 102.662Z" fill="#FF8832"/>
<path d="M65.5414 133.224C65.1164 133.327 65.2355 133.457 65.2017 136.088C65.1951 136.593 65.6224 136.455 67.2309 136.291C67.6534 136.248 67.508 136.183 67.0897 133.13C67.0136 132.574 66.2073 133.063 65.5414 133.224ZM65.6427 133.753C65.7612 133.501 66.1137 133.604 66.3367 133.459C66.8159 133.148 66.6841 133.796 66.9737 135.528C67.0434 135.946 66.8642 135.78 65.9698 135.912C65.5931 135.968 65.6875 135.849 65.6427 133.753Z" fill="#FF8832"/>
<path d="M54.7472 98.8955C54.6501 99.035 54.6203 99.2132 54.8086 99.3382C55.4891 99.7893 56.0473 100.469 56.4608 99.8891C57.4147 98.5512 57.722 98.0834 57.0848 97.7047C56.3651 97.277 56.3794 96.5536 54.7472 98.8955ZM55.9248 99.5914C55.0713 99.0203 54.9789 99.1993 55.8942 98.1518C56.3092 97.6769 56.4194 97.6806 56.8617 98.1441C57.0505 98.3419 56.9835 98.3183 56.1771 99.4872C56.1165 99.5751 56.0453 99.6251 55.9252 99.5911L55.9248 99.5914Z" fill="#FF8832"/>
<path d="M37.8445 123.643C37.9788 123.576 37.9431 123.422 37.898 123.287C37.3315 121.59 37.3529 121.544 37.2914 121.485C36.9054 121.108 36.5361 121.508 36.1585 121.524C35.6927 121.544 35.8963 122.095 36.1513 123.763C36.2342 124.305 37.5222 123.803 37.8445 123.643ZM36.7704 123.521C36.5066 123.545 36.6235 123.448 36.3894 122.161C36.3363 121.869 36.5792 121.948 36.7053 121.893C36.8436 121.833 36.9735 121.824 37.0305 122.029C37.457 123.562 37.6742 123.277 36.7704 123.521Z" fill="#FF8832"/>
<path d="M43.3765 128.687C44.696 128.932 45.1476 127.038 43.8348 126.759C42.4501 126.464 42.0386 128.438 43.3765 128.687ZM43.0702 127.633C43.2 126.985 44.2718 127.167 44.1356 127.802C44.0869 128.03 43.7137 128.245 43.4513 128.198C43.2209 128.156 43.024 127.864 43.0702 127.633Z" fill="#FF8832"/>
<path d="M53.431 93.9801C53.6581 92.7591 51.8341 92.6403 51.6293 93.8421C51.444 94.9298 53.1843 95.3075 53.431 93.9801ZM52.1386 93.9417C52.2339 93.3631 53.0741 93.3599 52.9895 93.914C52.9212 94.3613 52.1533 94.4956 52.1386 93.9417Z" fill="#FF8832"/>
<path d="M71.9451 129.045C73.0787 129.265 73.4324 127.585 72.3375 127.358C71.2225 127.127 70.8271 128.828 71.9451 129.045ZM72.2354 127.85C72.7712 127.949 72.5301 128.572 72.0881 128.531C71.6925 128.495 71.7651 127.819 72.2354 127.85Z" fill="#FF8832"/>
<path d="M44.9042 111.971C44.671 113.123 46.384 113.381 46.6087 112.293C46.8295 111.225 45.1412 110.8 44.9042 111.971ZM45.3418 112.071C45.4334 111.545 46.2769 111.719 46.177 112.184C46.077 112.648 45.2614 112.533 45.3418 112.071Z" fill="#FF8832"/>
<path d="M62.5645 117.309C62.8522 117.362 63.0239 117.261 63.0831 116.967C63.1418 116.675 63.0135 116.498 62.7463 116.429C62.21 116.288 61.9211 117.191 62.5645 117.309Z" fill="#FF8832"/>
<path d="M66.3003 102.925C66.2011 103.416 67.0218 103.577 67.0996 103.033C67.1791 102.476 66.4082 102.391 66.3003 102.925Z" fill="#FF8832"/>
<path d="M65.8666 127.972C66.4227 128.079 66.4629 127.238 65.9956 127.159C65.5284 127.079 65.3289 127.869 65.8666 127.972Z" fill="#FF8832"/>
<path d="M49.2375 100.478C49.1905 101.001 49.8904 101.13 50.0097 100.612C50.129 100.095 49.3609 99.9187 49.2375 100.478Z" fill="#FF8832"/>
<path d="M36.007 114.645C36.4679 114.727 36.6472 113.988 36.1189 113.891C35.5906 113.795 35.4743 114.55 36.007 114.645Z" fill="#FF8832"/>
<path d="M48.4311 96.2655C48.9973 96.3814 49.0693 95.6363 48.5983 95.547C48.0954 95.4517 48.0183 96.1808 48.4311 96.2655Z" fill="#FF8832"/>
<path d="M66.765 97.0059C66.9582 97.0138 67.1445 96.9982 67.1865 96.743C67.2272 96.4942 67.1427 96.3131 66.8847 96.2667C66.4482 96.1883 66.2233 96.8732 66.765 97.0059Z" fill="#FF8832"/>
<path d="M39.9795 104.137C40.0584 103.598 39.386 103.448 39.2688 103.98C39.1708 104.424 39.7887 104.668 39.9795 104.137Z" fill="#FF8832"/>
<path d="M63.6246 136.603C63.6602 136.322 63.6055 136.145 63.3562 136.128C63.147 136.115 62.9754 136.195 62.9395 136.431C62.8678 136.901 63.502 137.013 63.6246 136.603Z" fill="#FF8832"/>
<path d="M55.0683 131.059C55.0474 131.387 55.5285 131.542 55.6131 131.173C55.7025 130.782 55.1523 130.629 55.0683 131.059Z" fill="#FF8832"/>
</g>
<path d="M27.6548 39.1562C27.224 39.1562 26.8546 39.0047 26.5469 38.7017C26.2391 38.3987 26.0876 38.0294 26.0923 37.5938C26.0876 37.1676 26.2391 36.803 26.5469 36.5C26.8546 36.197 27.224 36.0455 27.6548 36.0455C28.0715 36.0455 28.4337 36.197 28.7415 36.5C29.054 36.803 29.2126 37.1676 29.2173 37.5938C29.2126 37.8826 29.1368 38.1454 28.9901 38.3821C28.848 38.6188 28.6586 38.8082 28.4219 38.9503C28.1899 39.0876 27.9342 39.1562 27.6548 39.1562ZM37.9673 39.1562C37.5365 39.1562 37.1671 39.0047 36.8594 38.7017C36.5516 38.3987 36.4001 38.0294 36.4048 37.5938C36.4001 37.1676 36.5516 36.803 36.8594 36.5C37.1671 36.197 37.5365 36.0455 37.9673 36.0455C38.384 36.0455 38.7462 36.197 39.054 36.5C39.3665 36.803 39.5251 37.1676 39.5298 37.5938C39.5251 37.8826 39.4493 38.1454 39.3026 38.3821C39.1605 38.6188 38.9711 38.8082 38.7344 38.9503C38.5024 39.0876 38.2467 39.1562 37.9673 39.1562ZM48.2798 39.1562C47.849 39.1562 47.4796 39.0047 47.1719 38.7017C46.8641 38.3987 46.7126 38.0294 46.7173 37.5938C46.7126 37.1676 46.8641 36.803 47.1719 36.5C47.4796 36.197 47.849 36.0455 48.2798 36.0455C48.6965 36.0455 49.0587 36.197 49.3665 36.5C49.679 36.803 49.8376 37.1676 49.8423 37.5938C49.8376 37.8826 49.7618 38.1454 49.6151 38.3821C49.473 38.6188 49.2836 38.8082 49.0469 38.9503C48.8149 39.0876 48.5592 39.1562 48.2798 39.1562ZM62.9075 46.88C62.0808 46.88 61.2542 46.78 60.4275 46.58C59.6142 46.3933 58.8675 46.08 58.1875 45.64C57.5208 45.2 56.9808 44.6267 56.5675 43.92C56.1675 43.2133 55.9675 42.3467 55.9675 41.32C55.9675 40.28 56.1742 39.32 56.5875 38.44C57.0142 37.5467 57.6075 36.7533 58.3675 36.06C59.1408 35.3533 60.0542 34.7667 61.1075 34.3C62.1608 33.8333 63.3142 33.5 64.5675 33.3L65.1275 35.52C64.0342 35.72 63.0608 35.9933 62.2075 36.34C61.3675 36.6867 60.6542 37.1 60.0675 37.58C59.4942 38.06 59.0608 38.5867 58.7675 39.16C58.4742 39.7467 58.3275 40.3733 58.3275 41.04C58.3275 41.5733 58.4208 42.0333 58.6075 42.42C58.8075 42.82 59.0675 43.1533 59.3875 43.42C59.7075 43.6867 60.0675 43.9 60.4675 44.06C60.8675 44.22 61.2808 44.3333 61.7075 44.4C62.1342 44.48 62.5342 44.52 62.9075 44.52C63.7475 44.52 64.5542 44.44 65.3275 44.28C66.1008 44.1333 66.7875 43.9333 67.3875 43.68L68.0675 45.8C67.7475 45.96 67.3075 46.12 66.7475 46.28C66.1875 46.4533 65.5742 46.5933 64.9075 46.7C64.2408 46.82 63.5742 46.88 62.9075 46.88ZM59.1875 35.98C58.6942 35.82 58.2408 35.5667 57.8275 35.22C57.4275 34.8733 57.1075 34.4467 56.8675 33.94C56.6275 33.4333 56.5075 32.8733 56.5075 32.26C56.5075 31.42 56.7208 30.7067 57.1475 30.12C57.5742 29.52 58.1275 29.0667 58.8075 28.76C59.5008 28.44 60.2475 28.28 61.0475 28.28C61.4342 28.28 61.8075 28.3067 62.1675 28.36C62.5275 28.4133 62.8875 28.4933 63.2475 28.6L62.8475 30.84C62.5675 30.7733 62.2808 30.72 61.9875 30.68C61.6942 30.64 61.4342 30.62 61.2075 30.62C60.7408 30.62 60.3275 30.6933 59.9675 30.84C59.6208 30.9867 59.3475 31.1933 59.1475 31.46C58.9608 31.7267 58.8675 32.04 58.8675 32.4C58.8675 32.7067 58.9542 32.9933 59.1275 33.26C59.3142 33.5133 59.5475 33.7333 59.8275 33.92C60.1208 34.1067 60.4275 34.2533 60.7475 34.36C61.0808 34.4667 61.3875 34.5267 61.6675 34.54L59.1875 35.98ZM67.7455 43.6L67.2655 41.24C68.1455 41.12 68.9321 40.9733 69.6255 40.8C70.3188 40.6267 70.9055 40.38 71.3855 40.06C71.8788 39.74 72.2455 39.3133 72.4855 38.78C72.7388 38.2333 72.8655 37.54 72.8655 36.7C72.8655 35.8733 72.7255 35.2 72.4455 34.68C72.1788 34.16 71.8188 33.9 71.3655 33.9C71.0855 33.9 70.8388 34 70.6255 34.2C70.4255 34.4 70.2721 34.6533 70.1655 34.96C70.0588 35.2533 70.0055 35.54 70.0055 35.82C70.0055 35.9933 70.0455 36.1533 70.1255 36.3C70.2055 36.4333 70.3521 36.5467 70.5655 36.64C70.7921 36.72 71.1121 36.7733 71.5255 36.8C71.9521 36.8267 72.5121 36.8067 73.2055 36.74H76.8855C77.2988 36.74 77.5988 36.8533 77.7855 37.08C77.9721 37.2933 78.0655 37.56 78.0655 37.88C78.0655 38.2133 77.9388 38.5 77.6855 38.74C77.4455 38.98 77.1121 39.1 76.6855 39.1H71.4455C70.6988 39.1 70.0388 39.0067 69.4655 38.82C68.9055 38.6333 68.4655 38.3333 68.1455 37.92C67.8255 37.4933 67.6655 36.9333 67.6655 36.24C67.6655 35.6533 67.7655 35.08 67.9655 34.52C68.1655 33.9467 68.4321 33.4267 68.7655 32.96C69.1121 32.4933 69.5188 32.1267 69.9855 31.86C70.4521 31.58 70.9588 31.44 71.5055 31.44C72.2388 31.44 72.8788 31.66 73.4255 32.1C73.9855 32.54 74.4255 33.1533 74.7455 33.94C75.0655 34.7133 75.2255 35.6133 75.2255 36.64C75.2255 38.04 74.9321 39.2333 74.3455 40.22C73.7588 41.22 72.9055 42 71.7855 42.56C70.6655 43.1333 69.3188 43.48 67.7455 43.6ZM76.6836 39.1L76.8836 36.74C77.4169 36.74 77.8369 36.6933 78.1436 36.6C78.4503 36.4933 78.6903 36.3 78.8636 36.02C79.0369 35.7267 79.1836 35.3067 79.3036 34.76C79.4369 34.2 79.5769 33.4667 79.7236 32.56L81.9436 32.94C81.9036 33.1533 81.8569 33.4 81.8036 33.68C81.7503 33.96 81.7036 34.24 81.6636 34.52C81.6236 34.8 81.6036 35.0533 81.6036 35.28C81.6036 35.5733 81.6703 35.8333 81.8036 36.06C81.9369 36.2733 82.1903 36.44 82.5636 36.56C82.9503 36.68 83.5169 36.74 84.2636 36.74C84.6769 36.74 84.9703 36.8533 85.1436 37.08C85.3303 37.2933 85.4236 37.56 85.4236 37.88C85.4236 38.2133 85.3036 38.5 85.0636 38.74C84.8236 38.98 84.4903 39.1 84.0636 39.1C83.1569 39.1 82.4303 39.02 81.8836 38.86C81.3503 38.6867 80.9503 38.4133 80.6836 38.04C80.4303 37.6667 80.2636 37.1667 80.1836 36.54L81.0036 36.56C80.7769 37.12 80.5169 37.5733 80.2236 37.92C79.9303 38.2533 79.6036 38.5067 79.2436 38.68C78.8836 38.84 78.4903 38.9467 78.0636 39C77.6369 39.0667 77.1769 39.1 76.6836 39.1ZM80.4036 30.52C80.0436 30.52 79.7369 30.4 79.4836 30.16C79.2303 29.9067 79.1036 29.6 79.1036 29.24C79.1036 28.88 79.2303 28.5733 79.4836 28.32C79.7369 28.0533 80.0436 27.92 80.4036 27.92C80.7503 27.92 81.0503 28.0533 81.3036 28.32C81.5569 28.5733 81.6836 28.88 81.6836 29.24C81.6836 29.6 81.5569 29.9067 81.3036 30.16C81.0503 30.4 80.7503 30.52 80.4036 30.52ZM84.0664 39.1L84.2664 36.74C84.8131 36.74 85.2664 36.6933 85.6264 36.6C85.9864 36.4933 86.2731 36.3 86.4864 36.02C86.7131 35.7267 86.8997 35.3067 87.0464 34.76C87.2064 34.2 87.3597 33.4667 87.5064 32.56L89.7264 32.94C89.6864 33.1533 89.6397 33.4 89.5864 33.68C89.5331 33.96 89.4864 34.24 89.4464 34.52C89.4064 34.8 89.3864 35.0533 89.3864 35.28C89.3864 35.5067 89.4197 35.7133 89.4864 35.9C89.5531 36.0733 89.6797 36.22 89.8664 36.34C90.0664 36.46 90.3531 36.56 90.7264 36.64C91.0997 36.7067 91.5797 36.74 92.1664 36.74C92.5931 36.74 92.8931 36.8533 93.0664 37.08C93.2531 37.2933 93.3464 37.56 93.3464 37.88C93.3464 38.2133 93.2264 38.5 92.9864 38.74C92.7464 38.98 92.4064 39.1 91.9664 39.1C91.2864 39.1 90.7064 39.0533 90.2264 38.96C89.7464 38.8667 89.3464 38.72 89.0264 38.52C88.7197 38.32 88.4797 38.06 88.3064 37.74C88.1331 37.4067 88.0197 37.0067 87.9664 36.54L88.7864 36.56C88.5597 37.12 88.2797 37.5733 87.9464 37.92C87.6264 38.2533 87.2664 38.5067 86.8664 38.68C86.4664 38.84 86.0264 38.9467 85.5464 39C85.0797 39.0667 84.5864 39.1 84.0664 39.1ZM90.0864 30.66C89.7397 30.66 89.4397 30.54 89.1864 30.3C88.9464 30.0467 88.8264 29.7533 88.8264 29.42C88.8264 29.0867 88.9464 28.7933 89.1864 28.54C89.4397 28.2867 89.7397 28.16 90.0864 28.16C90.4197 28.16 90.6997 28.2867 90.9264 28.54C91.1664 28.7933 91.2864 29.0867 91.2864 29.42C91.2864 29.7533 91.1664 30.0467 90.9264 30.3C90.6997 30.54 90.4197 30.66 90.0864 30.66ZM86.8864 30.64C86.5397 30.64 86.2464 30.52 86.0064 30.28C85.7664 30.04 85.6464 29.7533 85.6464 29.42C85.6464 29.0733 85.7664 28.78 86.0064 28.54C86.2464 28.2867 86.5397 28.16 86.8864 28.16C87.2197 28.16 87.5064 28.2867 87.7464 28.54C87.9864 28.78 88.1064 29.0733 88.1064 29.42C88.1064 29.7533 87.9864 30.04 87.7464 30.28C87.5064 30.52 87.2197 30.64 86.8864 30.64ZM91.957 39.1L92.157 36.74C92.4904 36.74 92.7704 36.66 92.997 36.5C93.237 36.34 93.477 36.08 93.717 35.72C93.957 35.3467 94.2304 34.8467 94.537 34.22C94.9237 33.4067 95.3237 32.7733 95.737 32.32C96.1504 31.8667 96.5704 31.5533 96.997 31.38C97.437 31.1933 97.8704 31.1 98.297 31.1C98.8304 31.1 99.3304 31.2267 99.797 31.48C100.264 31.72 100.664 32.0467 100.997 32.46C101.344 32.8733 101.61 33.34 101.797 33.86C101.997 34.38 102.097 34.9067 102.097 35.44C102.097 36.1867 101.95 36.8267 101.657 37.36C101.364 37.8933 100.97 38.3 100.477 38.58C99.9837 38.86 99.437 39 98.837 39C98.3304 39 97.717 38.9067 96.997 38.72C96.277 38.5333 95.4704 38.12 94.577 37.48L95.497 35.5C96.1237 35.9133 96.697 36.2067 97.217 36.38C97.7504 36.5533 98.1904 36.64 98.537 36.64C98.8437 36.64 99.0904 36.6 99.277 36.52C99.477 36.44 99.6237 36.3267 99.717 36.18C99.8104 36.02 99.857 35.8267 99.857 35.6C99.857 35.28 99.777 34.96 99.617 34.64C99.4704 34.3067 99.2704 34.0267 99.017 33.8C98.777 33.5733 98.5037 33.46 98.197 33.46C97.9304 33.46 97.697 33.5533 97.497 33.74C97.297 33.9133 97.0904 34.1867 96.877 34.56C96.677 34.9333 96.4437 35.4067 96.177 35.98C95.857 36.6333 95.5504 37.1667 95.257 37.58C94.977 37.9933 94.677 38.3133 94.357 38.54C94.0504 38.7533 93.697 38.9 93.297 38.98C92.9104 39.06 92.4637 39.1 91.957 39.1ZM108.349 43.62L107.509 41.5C108.309 41.2333 109.016 40.92 109.629 40.56C110.242 40.2133 110.756 39.8267 111.169 39.4C111.596 38.9867 111.909 38.5467 112.109 38.08C112.322 37.6133 112.429 37.1267 112.429 36.62C112.429 36.0333 112.296 35.4067 112.029 34.74C111.776 34.06 111.469 33.3933 111.109 32.74L113.289 31.68C113.529 32.1067 113.742 32.5533 113.929 33.02C114.116 33.4867 114.276 33.9133 114.409 34.3C114.542 34.6733 114.642 34.9667 114.709 35.18C114.896 35.7933 115.142 36.2067 115.449 36.42C115.769 36.6333 116.256 36.74 116.909 36.74C117.336 36.74 117.636 36.8533 117.809 37.08C117.996 37.2933 118.089 37.56 118.089 37.88C118.089 38.2133 117.969 38.5 117.729 38.74C117.489 38.98 117.149 39.1 116.709 39.1C116.149 39.1 115.669 39.0133 115.269 38.84C114.882 38.6533 114.576 38.4 114.349 38.08C114.122 37.76 113.976 37.4067 113.909 37.02L114.609 37.4C114.556 38.1733 114.336 38.8933 113.949 39.56C113.576 40.24 113.082 40.8467 112.469 41.38C111.869 41.9133 111.209 42.3667 110.489 42.74C109.769 43.1267 109.056 43.42 108.349 43.62ZM112.109 29.54C111.749 29.54 111.442 29.42 111.189 29.18C110.936 28.9267 110.809 28.62 110.809 28.26C110.809 27.9 110.936 27.5933 111.189 27.34C111.442 27.0733 111.749 26.94 112.109 26.94C112.456 26.94 112.756 27.0733 113.009 27.34C113.262 27.5933 113.389 27.9 113.389 28.26C113.389 28.62 113.262 28.9267 113.009 29.18C112.756 29.42 112.456 29.54 112.109 29.54ZM116.723 39.1L116.923 36.74C117.723 36.74 118.336 36.7067 118.763 36.64C119.189 36.56 119.489 36.4067 119.663 36.18C119.849 35.94 119.943 35.5933 119.943 35.14C119.943 34.78 119.889 34.3533 119.783 33.86C119.676 33.3667 119.543 32.8467 119.383 32.3C119.223 31.7533 119.049 31.24 118.863 30.76L121.203 30.06C121.376 30.5 121.536 31.0133 121.683 31.6C121.843 32.1733 121.976 32.76 122.083 33.36C122.189 33.9467 122.243 34.5 122.243 35.02C122.243 35.8333 122.116 36.5067 121.863 37.04C121.623 37.5733 121.263 37.9933 120.783 38.3C120.316 38.5933 119.736 38.8 119.043 38.92C118.363 39.04 117.589 39.1 116.723 39.1ZM121.203 43.42C120.856 43.42 120.556 43.2933 120.303 43.04C120.063 42.8 119.943 42.5133 119.943 42.18C119.943 41.8467 120.063 41.5533 120.303 41.3C120.543 41.0467 120.843 40.92 121.203 40.92C121.536 40.92 121.816 41.0467 122.043 41.3C122.283 41.5533 122.403 41.8467 122.403 42.18C122.403 42.5133 122.283 42.8 122.043 43.04C121.803 43.2933 121.523 43.42 121.203 43.42ZM118.003 43.42C117.656 43.42 117.363 43.2933 117.123 43.04C116.883 42.8 116.763 42.5133 116.763 42.18C116.763 41.8467 116.883 41.5533 117.123 41.3C117.363 41.0467 117.656 40.92 118.003 40.92C118.336 40.92 118.623 41.0467 118.863 41.3C119.103 41.5533 119.223 41.8467 119.223 42.18C119.223 42.5133 119.103 42.8 118.863 43.04C118.623 43.2933 118.336 43.42 118.003 43.42ZM125.141 39L124.721 24.5H127.081L127.481 39H125.141ZM129.777 43.6L129.297 41.24C130.177 41.12 130.963 40.9733 131.657 40.8C132.35 40.6267 132.937 40.38 133.417 40.06C133.91 39.74 134.277 39.3133 134.517 38.78C134.77 38.2333 134.897 37.54 134.897 36.7C134.897 35.8733 134.757 35.2 134.477 34.68C134.21 34.16 133.85 33.9 133.397 33.9C133.117 33.9 132.87 34 132.657 34.2C132.457 34.4 132.303 34.6533 132.197 34.96C132.09 35.2533 132.037 35.54 132.037 35.82C132.037 35.9933 132.077 36.1533 132.157 36.3C132.237 36.4333 132.383 36.5467 132.597 36.64C132.823 36.72 133.143 36.7733 133.557 36.8C133.983 36.8267 134.543 36.8067 135.237 36.74H138.917C139.33 36.74 139.63 36.8533 139.817 37.08C140.003 37.2933 140.097 37.56 140.097 37.88C140.097 38.2133 139.97 38.5 139.717 38.74C139.477 38.98 139.143 39.1 138.717 39.1H133.477C132.73 39.1 132.07 39.0067 131.497 38.82C130.937 38.6333 130.497 38.3333 130.177 37.92C129.857 37.4933 129.697 36.9333 129.697 36.24C129.697 35.6533 129.797 35.08 129.997 34.52C130.197 33.9467 130.463 33.4267 130.797 32.96C131.143 32.4933 131.55 32.1267 132.017 31.86C132.483 31.58 132.99 31.44 133.537 31.44C134.27 31.44 134.91 31.66 135.457 32.1C136.017 32.54 136.457 33.1533 136.777 33.94C137.097 34.7133 137.257 35.6133 137.257 36.64C137.257 38.04 136.963 39.2333 136.377 40.22C135.79 41.22 134.937 42 133.817 42.56C132.697 43.1333 131.35 43.48 129.777 43.6ZM138.715 39.1L138.915 36.74C139.622 36.74 140.322 36.6933 141.015 36.6C141.708 36.5067 142.382 36.3733 143.035 36.2C143.688 36.0267 144.315 35.8067 144.915 35.54C145.515 35.2733 146.082 34.96 146.615 34.6C146.242 34.3333 145.822 34.1067 145.355 33.92C144.902 33.72 144.408 33.5733 143.875 33.48C143.342 33.3733 142.775 33.32 142.175 33.32C141.962 33.32 141.748 33.3267 141.535 33.34C141.322 33.3533 141.102 33.38 140.875 33.42C140.662 33.4467 140.435 33.4867 140.195 33.54L139.835 31.26C140.208 31.1533 140.595 31.0733 140.995 31.02C141.408 30.9667 141.782 30.94 142.115 30.94C142.822 30.94 143.468 31.02 144.055 31.18C144.642 31.34 145.182 31.54 145.675 31.78C146.168 32.02 146.628 32.26 147.055 32.5C147.495 32.74 147.915 32.9467 148.315 33.12C148.715 33.28 149.115 33.36 149.515 33.36H150.135L150.375 35.56C149.802 35.5733 149.268 35.6733 148.775 35.86C148.282 36.0333 147.795 36.26 147.315 36.54C146.848 36.8067 146.348 37.0867 145.815 37.38C145.282 37.6733 144.682 37.9533 144.015 38.22C143.348 38.4733 142.582 38.6867 141.715 38.86C140.848 39.02 139.848 39.1 138.715 39.1ZM144.555 43.32C144.208 43.32 143.915 43.2 143.675 42.96C143.435 42.72 143.315 42.4333 143.315 42.1C143.315 41.7533 143.435 41.4533 143.675 41.2C143.915 40.9467 144.208 40.82 144.555 40.82C144.902 40.82 145.195 40.9467 145.435 41.2C145.688 41.4533 145.815 41.7533 145.815 42.1C145.815 42.4333 145.688 42.72 145.435 42.96C145.195 43.2 144.902 43.32 144.555 43.32Z" fill="#143A62"/>
</g>
<defs>
<filter id="filter0_d_3149_2689" x="91" y="58" width="80" height="115" filterUnits="userSpaceOnUse" color-interpolation-filters="sRGB">
<feFlood flood-opacity="0" result="BackgroundImageFix"/>
<feColorMatrix in="SourceAlpha" type="matrix" values="0 0 0 0 0 0 0 0 0 0 0 0 0 0 0 0 0 0 127 0" result="hardAlpha"/>
<feOffset dx="1" dy="3"/>
<feGaussianBlur stdDeviation="2"/>
<feComposite in2="hardAlpha" operator="out"/>
<feColorMatrix type="matrix" values="0 0 0 0 0 0 0 0 0 0 0 0 0 0 0 0 0 0 0.25 0"/>
<feBlend mode="normal" in2="BackgroundImageFix" result="effect1_dropShadow_3149_2689"/>
<feBlend mode="normal" in="SourceGraphic" in2="effect1_dropShadow_3149_2689" result="shape"/>
</filter>
<filter id="filter1_d_3149_2689" x="29" y="92" width="49" height="69" filterUnits="userSpaceOnUse" color-interpolation-filters="sRGB">
<feFlood flood-opacity="0" result="BackgroundImageFix"/>
<feColorMatrix in="SourceAlpha" type="matrix" values="0 0 0 0 0 0 0 0 0 0 0 0 0 0 0 0 0 0 127 0" result="hardAlpha"/>
<feOffset dx="1" dy="3"/>
<feGaussianBlur stdDeviation="2"/>
<feComposite in2="hardAlpha" operator="out"/>
<feColorMatrix type="matrix" values="0 0 0 0 0 0 0 0 0 0 0 0 0 0 0 0 0 0 0.25 0"/>
<feBlend mode="normal" in2="BackgroundImageFix" result="effect1_dropShadow_3149_2689"/>
<feBlend mode="normal" in="SourceGraphic" in2="effect1_dropShadow_3149_2689" result="shape"/>
</filter>
<clipPath id="clip0_3149_2689">
<rect width="176" height="176" rx="10" fill="white"/>
</clipPath>
</defs>
</svg>
