<svg width="322" height="291" viewBox="0 0 322 291" fill="none" xmlns="http://www.w3.org/2000/svg">
<g filter="url(#filter0_d_1959_3546)">
<g clip-path="url(#clip0_1959_3546)">
<rect x="5" y="5" width="310" height="279" rx="20" fill="#143A62" fill-opacity="0.05"/>
<g clip-path="url(#clip1_1959_3546)">
<path d="M33.3364 284C23.3584 284 16.1165 274.612 18.6782 265.039C22.7684 249.755 34.4855 229.263 67.2368 219.543C110.735 206.634 108.297 154.601 143.04 154.601C177.783 154.601 177.966 181.025 188.325 183.713C198.683 186.401 233.407 178.42 241.164 201.976C255.502 245.52 274.747 224.529 289.683 258.061C290.611 260.162 291.415 262.316 292.091 264.51C295.101 274.193 287.795 284.001 277.586 284.001L33.3364 284Z" fill="#F3F5FD"/>
<path d="M269.114 243.851C267.728 248.021 262.942 251.726 264.371 254.793C264.915 255.958 265.461 257.178 265.712 258.423C265.875 259.166 265.902 259.931 265.792 260.683C265.276 263.93 262.215 266.088 259.368 267.767C259.193 267.87 259.015 267.976 258.837 268.081C256.14 269.686 253.315 271.533 252.448 274.494C251.967 276.139 252.179 277.898 251.98 279.6C251.791 281.163 251.256 282.666 250.414 284H232.234C230.62 282.234 230.754 279.266 231.983 277.184C233.297 274.957 235.519 273.443 237.523 271.795C239.254 270.371 240.941 268.657 241.602 266.567C241.707 266.236 241.785 265.898 241.834 265.554C241.994 264.423 241.908 258.644 243.884 255.087C246.939 249.595 251.893 250.948 253.408 247.849C253.988 246.662 254.489 232.074 264.141 234.769C265.082 235.019 265.962 235.456 266.728 236.055C267.493 236.653 268.128 237.4 268.593 238.249C269.058 239.099 269.345 240.034 269.434 240.997C269.524 241.96 269.415 242.931 269.114 243.851Z" fill="#C1D8ED"/>
<path d="M286.77 266.659C286.493 266.848 286.195 267.006 285.882 267.128C283.277 268.098 276.035 267.99 274.975 270.543C274.477 271.743 274.358 273.068 273.931 274.296C272.962 277.081 270.406 279.169 267.546 279.954C266.517 280.235 265.451 280.367 264.433 280.681C262.465 281.289 260.836 282.513 259.404 283.999H235.925C235.915 282.453 236.298 280.93 237.038 279.571C237.779 278.211 238.854 277.06 240.163 276.222C242.773 274.588 246.071 274.283 248.634 272.575C250.324 271.448 251.539 269.82 252.504 268.02C253.117 266.843 253.658 265.63 254.126 264.388C254.843 262.541 255.593 260.558 257.222 259.415C257.998 258.871 258.916 258.565 259.837 258.327C262.19 257.715 263.999 258.075 265.713 258.423C267.793 258.845 269.734 259.247 272.34 257.873C276.964 255.435 283.723 243.273 290.478 254.828C293.188 259.461 289.451 264.878 286.77 266.659Z" fill="#00B6FF"/>
<path d="M53.4959 243.851C54.8826 248.021 59.6686 251.726 58.2394 254.793C57.6956 255.958 57.1496 257.178 56.8983 258.423C56.7352 259.166 56.708 259.931 56.8182 260.683C57.3338 263.93 60.3951 266.088 63.2419 267.767C63.4175 267.87 63.5951 267.976 63.7728 268.081C66.4702 269.686 69.2953 271.533 70.1618 274.494C70.6429 276.139 70.4306 277.898 70.63 279.6C70.8188 281.163 71.3537 282.665 72.1964 284H90.3761C91.9901 282.234 91.8558 279.266 90.6272 277.184C89.313 274.957 87.0914 273.443 85.0874 271.795C83.3562 270.371 81.6685 268.657 81.0077 266.567C80.9027 266.236 80.8252 265.898 80.776 265.554C80.6155 264.423 80.7021 258.644 78.7263 255.087C75.6716 249.595 70.7167 250.948 69.2023 247.849C68.6215 246.662 68.1211 232.074 58.4691 234.769C57.5279 235.019 56.6478 235.456 55.8823 236.055C55.1169 236.653 54.4822 237.4 54.0169 238.249C53.5516 239.099 53.2655 240.034 53.1759 240.997C53.0863 241.96 53.1952 242.931 53.4959 243.851Z" fill="#C1D8ED"/>
<path d="M35.8408 266.659C36.118 266.848 36.416 267.006 36.7292 267.128C39.3333 268.098 46.5762 267.99 47.6356 270.543C48.1339 271.743 48.253 273.068 48.6798 274.296C49.6484 277.081 52.2049 279.169 55.0647 279.954C56.0939 280.235 57.1592 280.367 58.1779 280.681C60.1453 281.289 61.7745 282.513 63.2066 283.999H86.6856C86.696 282.453 86.313 280.93 85.5722 279.571C84.8314 278.211 83.7567 277.06 82.4479 276.222C79.8372 274.588 76.5396 274.283 73.9765 272.575C72.2867 271.448 71.0712 269.82 70.1072 268.02C69.4939 266.843 68.9522 265.63 68.4849 264.388C67.7679 262.541 67.0182 260.558 65.389 259.415C64.6134 258.871 63.6947 258.565 62.7739 258.327C60.4211 257.715 58.612 258.075 56.8982 258.423C54.8183 258.845 52.8772 259.247 50.2708 257.873C45.6472 255.435 38.8875 243.273 32.1323 254.828C29.4228 259.461 33.1601 264.878 35.8408 266.659Z" fill="#00B6FF"/>
<path d="M205.673 224.05H195.68C194.417 224.05 193.393 225.066 193.393 226.32V234.901C193.393 236.155 194.417 237.172 195.68 237.172H205.673C206.936 237.172 207.96 236.155 207.96 234.901V226.32C207.96 225.066 206.936 224.05 205.673 224.05Z" fill="#C1D8ED"/>
<path d="M136.834 184.349H123.353C121.649 184.349 120.268 185.72 120.268 187.412V198.987C120.268 200.679 121.649 202.05 123.353 202.05H136.834C138.538 202.05 139.92 200.679 139.92 198.987V187.412C139.92 185.72 138.538 184.349 136.834 184.349Z" fill="#DEE9FF"/>
<path d="M158.95 179.393C159.006 179.392 159.062 179.396 159.116 179.404C160.499 179.861 160.919 180.53 161.148 181.125C161.387 181.812 161.473 182.542 161.4 183.266C161.289 184.405 160.844 185.487 160.12 186.378C159.763 186.806 159.325 187.161 158.829 187.421C158.334 187.681 157.792 187.841 157.234 187.893C154.679 188.183 152.109 188.322 149.537 188.308C148.41 188.308 147.253 188.286 146.065 188.243C148.046 186.206 150.178 184.32 152.445 182.602C156.572 179.548 158.588 179.393 158.95 179.393ZM158.95 174.501C153.892 174.501 146.014 180.299 137.325 190.536C137.173 190.708 137.073 190.919 137.037 191.145C137.001 191.371 137.031 191.603 137.123 191.813C137.206 192.03 137.349 192.219 137.536 192.358C137.723 192.497 137.946 192.58 138.179 192.598C141.324 192.912 145.351 193.199 149.537 193.199C152.308 193.213 155.076 193.063 157.829 192.749C163.12 192.111 165.899 187.771 166.304 183.754C166.468 182.134 166.545 176.701 160.67 174.762C160.115 174.584 159.534 174.496 158.95 174.501Z" fill="#DEE9FF"/>
<path d="M101.454 179.393C101.817 179.393 103.834 179.548 107.961 182.601C110.227 184.32 112.359 186.205 114.34 188.242C113.153 188.286 111.996 188.307 110.867 188.307C108.295 188.321 105.725 188.183 103.17 187.892C102.612 187.841 102.07 187.68 101.575 187.42C101.08 187.16 100.641 186.806 100.284 186.377C99.5604 185.486 99.1154 184.404 99.0044 183.264C98.9317 182.541 99.0176 181.811 99.2564 181.124C99.4854 180.53 99.9059 179.86 101.282 179.406C101.339 179.396 101.396 179.391 101.454 179.393ZM101.454 174.501C100.87 174.496 100.29 174.584 99.7342 174.762C93.8602 176.701 93.937 182.134 94.1008 183.753C94.5068 187.771 97.2849 192.11 102.576 192.749C105.328 193.063 108.097 193.213 110.867 193.199C115.055 193.199 119.081 192.912 122.226 192.598C122.459 192.58 122.682 192.497 122.869 192.357C123.056 192.218 123.199 192.029 123.282 191.812C123.373 191.603 123.403 191.371 123.367 191.145C123.331 190.919 123.231 190.708 123.079 190.536C114.392 180.299 106.513 174.501 101.454 174.501Z" fill="#DEE9FF"/>
<path d="M176.838 203.683H82.5293V284H176.838V203.683Z" fill="#DEE9FF"/>
<path d="M139.001 203.843H120.366V284H139.001V203.843Z" fill="white"/>
<g opacity="0.19">
<path d="M176.838 203.683H82.5293V220.375H176.838V203.683Z" fill="black"/>
</g>
<path d="M183.389 191.332H75.9775V207.925H183.389V191.332Z" fill="#DEE9FF"/>
<path d="M143.209 191.332H116.158V207.925H143.209V191.332Z" fill="white"/>
<path d="M223.139 221.225C223.934 221.503 224.125 221.849 224.243 222.154C224.394 222.595 224.448 223.063 224.399 223.526C224.353 223.984 224.007 226.279 221.724 226.555C219.753 226.778 217.771 226.885 215.787 226.874C215.41 226.874 215.028 226.871 214.642 226.864C219.333 222.374 222.249 221.23 223.139 221.225ZM223.146 216.74C219.191 216.74 213.032 221.273 206.24 229.276C206.121 229.41 206.043 229.575 206.014 229.752C205.986 229.929 206.01 230.11 206.082 230.275C206.146 230.444 206.258 230.592 206.404 230.701C206.551 230.809 206.725 230.875 206.907 230.889C209.366 231.133 212.513 231.358 215.787 231.358C217.953 231.369 220.117 231.251 222.269 231.006C226.405 230.507 228.577 227.114 228.895 223.974C229.023 222.708 229.083 218.46 224.491 216.944C224.056 216.805 223.602 216.736 223.146 216.74Z" fill="#C1D8ED"/>
<path d="M178.204 221.225C179.094 221.231 182.01 222.375 186.701 226.865C186.315 226.871 185.933 226.874 185.556 226.874C183.572 226.885 181.59 226.779 179.619 226.555C177.336 226.28 176.991 223.984 176.944 223.526C176.896 223.063 176.949 222.595 177.1 222.154C177.217 221.85 177.41 221.503 178.204 221.225ZM178.197 216.741C177.741 216.737 177.287 216.805 176.853 216.945C172.26 218.46 172.321 222.708 172.449 223.974C172.766 227.115 174.938 230.508 179.074 231.006C181.226 231.252 183.39 231.369 185.556 231.358C188.83 231.358 191.977 231.134 194.436 230.889C194.618 230.874 194.793 230.809 194.939 230.7C195.085 230.592 195.197 230.444 195.262 230.274C195.333 230.11 195.356 229.929 195.328 229.752C195.3 229.575 195.222 229.41 195.103 229.276C188.312 221.273 182.153 216.74 178.197 216.74V216.741Z" fill="#C1D8ED"/>
<path d="M237.13 239.554H163.402V283.999H237.13V239.554Z" fill="#C1D8ED"/>
<path d="M207.55 239.68H192.982V284H207.55V239.68Z" fill="white"/>
<g opacity="0.19">
<path d="M237.13 239.554H163.402V252.603H237.13V239.554Z" fill="black"/>
</g>
<path d="M242.252 229.898H158.28V242.87H242.252V229.898Z" fill="#C1D8ED"/>
<path d="M210.84 229.898H189.692V242.87H210.84V229.898Z" fill="white"/>
<g filter="url(#filter1_d_1959_3546)">
<path d="M49.771 174.389C49.771 174.389 51.0032 173.616 50.6819 172.722C50.3606 171.827 49.5443 171.44 48.2762 171.873C47.3745 172.182 47.2415 171.976 46.4339 171.662C45.9712 171.483 44.515 171.691 44.2279 172.702C43.9204 173.785 42.6535 173.023 42.6736 174.748C42.6906 176.191 43.1141 178.036 44.8182 179.17" fill="#0F1011"/>
<path d="M45.1904 182.425C45.1904 182.425 46.2484 181.761 45.7733 178.801L48.018 178.209C48.018 178.209 47.9673 180.9 49.1846 181.661L45.1904 182.425Z" fill="#F5AE92"/>
<g opacity="0.15">
<path d="M48.6758 181.137L46.6733 179.844L48.1582 179.716C48.2401 180.217 48.4156 180.7 48.6758 181.137Z" fill="black"/>
</g>
<path d="M44.3921 177.743C44.6191 178.635 45.1818 179.453 46.0077 179.685C46.9879 179.959 47.6961 179.929 48.7957 179.846C50.2962 179.732 50.1272 178.183 50.0493 176.614C49.9709 175.039 49.7156 173.363 49.0805 172.861C47.8127 171.857 44.3918 172.812 44.1095 174.672C43.9636 175.634 44.1759 176.894 44.3921 177.743Z" fill="#F5AE92"/>
<path d="M45.9418 179.603C45.9059 179.757 45.8778 179.825 45.7353 179.755C45.1756 179.48 43.9177 178.884 43.3094 176.34C42.7644 174.061 44.1244 173.001 45.2423 172.575C46.2054 172.208 48.5009 171.974 49.6299 172.538C50.6029 173.024 49.772 174.389 49.772 174.389C49.1617 174.898 47.3253 174.879 46.6255 174.961C45.9849 175.036 45.9678 175.427 46.0097 175.674C46.264 177.175 46.0684 179.059 45.9418 179.603Z" fill="#0F1011"/>
<path d="M47.8905 176.777C47.7761 176.777 47.6833 176.685 47.6833 176.572C47.6833 176.458 47.7761 176.366 47.8905 176.366C48.0049 176.366 48.0977 176.458 48.0977 176.572C48.0977 176.685 48.0049 176.777 47.8905 176.777Z" fill="#0F1011"/>
<path d="M49.5096 176.522C49.3952 176.522 49.3025 176.43 49.3025 176.316C49.3025 176.202 49.3952 176.11 49.5096 176.11C49.624 176.11 49.7168 176.202 49.7168 176.316C49.7168 176.43 49.624 176.522 49.5096 176.522Z" fill="#0F1011"/>
<path d="M49.2786 175.887H49.2849L49.8326 175.852C49.858 175.85 49.8816 175.838 49.8982 175.819C49.9149 175.8 49.9233 175.775 49.9217 175.75C49.9201 175.724 49.9085 175.701 49.8896 175.684C49.8707 175.667 49.8458 175.658 49.8203 175.659L49.2726 175.694C49.2476 175.696 49.2243 175.707 49.2075 175.726C49.1908 175.744 49.1818 175.768 49.1826 175.793C49.1834 175.818 49.1938 175.842 49.2117 175.859C49.2296 175.877 49.2535 175.887 49.2786 175.887V175.887Z" fill="#0F1011"/>
<path d="M47.4085 176.235C47.4187 176.235 47.4288 176.233 47.4384 176.23L47.9674 176.06C47.9921 176.052 48.0126 176.035 48.0244 176.012C48.0362 175.989 48.0384 175.963 48.0305 175.938C48.0225 175.914 48.0052 175.894 47.9821 175.882C47.9591 175.87 47.9323 175.868 47.9077 175.876L47.3786 176.046C47.3566 176.053 47.3378 176.068 47.3256 176.087C47.3135 176.107 47.3088 176.13 47.3124 176.153C47.316 176.176 47.3277 176.196 47.3453 176.211C47.3629 176.226 47.3853 176.235 47.4085 176.235Z" fill="#0F1011"/>
<path d="M46.8533 177.155C46.8715 177.268 46.867 177.383 46.8401 177.495C46.8133 177.606 46.7646 177.711 46.6969 177.804C46.6292 177.896 46.5438 177.975 46.4455 178.035C46.3472 178.095 46.238 178.135 46.1241 178.153C46.0102 178.171 45.8939 178.166 45.7817 178.14C45.6695 178.113 45.5638 178.065 45.4704 177.998C45.3771 177.93 45.2979 177.846 45.2376 177.748C45.1773 177.65 45.1369 177.542 45.1188 177.429C45.0986 177.316 45.1016 177.2 45.1276 177.087C45.1536 176.975 45.2021 176.87 45.2701 176.776C45.3382 176.683 45.4244 176.605 45.5237 176.545C45.6229 176.486 45.7332 176.447 45.8479 176.431C46.4706 176.363 46.7771 176.679 46.8533 177.155Z" fill="#F5AE92"/>
<g opacity="0.15">
<path d="M48.8889 177.64C48.8978 177.64 48.9067 177.639 48.915 177.635L49.4011 177.446C49.4105 177.443 49.419 177.437 49.426 177.43C49.433 177.423 49.4384 177.414 49.4419 177.405C49.4454 177.395 49.4468 177.385 49.4461 177.375C49.4454 177.365 49.4426 177.356 49.4379 177.347L49.0554 176.649C49.0512 176.64 49.0452 176.633 49.0379 176.627C49.0306 176.62 49.0221 176.616 49.013 176.613C49.0038 176.61 48.9941 176.609 48.9845 176.61C48.9749 176.611 48.9657 176.613 48.9572 176.618C48.9487 176.623 48.9413 176.629 48.9353 176.636C48.9293 176.644 48.9249 176.652 48.9224 176.662C48.9198 176.671 48.9192 176.68 48.9205 176.69C48.9218 176.699 48.925 176.708 48.9299 176.717L49.273 177.344L48.8628 177.504C48.8474 177.51 48.8345 177.521 48.8265 177.536C48.8185 177.55 48.8158 177.567 48.8189 177.583C48.822 177.599 48.8306 177.614 48.8434 177.625C48.8562 177.635 48.8722 177.641 48.8889 177.641V177.64Z" fill="black"/>
</g>
<path d="M48.1092 178.179C48.1092 178.179 48.8778 178.201 49.3981 177.976C49.3981 177.976 49.4321 178.474 48.8325 178.569C48.2328 178.664 48.1092 178.179 48.1092 178.179Z" fill="white"/>
<path d="M54.1399 167.256L55.7279 166.673C55.7279 166.673 55.9281 164.507 54.0966 163.363C53.4895 162.983 53.0466 163.658 53.1578 163.878C53.5254 164.606 53.9613 165.276 53.9526 165.976C53.7179 165.758 53.3793 165.48 53.2795 165.581C53.0167 165.848 54.1399 167.256 54.1399 167.256Z" fill="#F5AE92"/>
<path d="M30.6178 215.328L31.2129 212.407C31.2218 212.409 31.2333 212.411 31.2471 212.415C31.0315 212.361 29.7328 211.947 28.6534 211.594L27.7145 214.425C30.2613 215.257 30.5296 215.311 30.6178 215.328Z" fill="#F5AE92"/>
<path d="M25.7126 217.774C25.6937 217.851 25.6911 217.932 25.7051 218.011C25.7191 218.09 25.7493 218.166 25.7939 218.232C25.8385 218.299 25.8965 218.356 25.9642 218.4C26.032 218.443 26.1081 218.473 26.1877 218.486C26.2981 218.504 26.4115 218.49 26.5144 218.446C26.6173 218.403 26.7055 218.331 26.7686 218.239L28.7417 215.149C28.7797 215.089 28.8041 215.022 28.8134 214.952C28.8227 214.881 28.8167 214.81 28.7956 214.742C28.5868 214.2 28.5588 213.606 28.7158 213.047C28.8562 212.616 29.1158 212.233 29.465 211.941C29.4986 211.916 29.5244 211.882 29.5393 211.843C29.5542 211.804 29.5576 211.762 29.5492 211.721C29.5408 211.68 29.5208 211.643 29.4917 211.613C29.4626 211.583 29.4254 211.562 29.3846 211.552L27.7261 211.146C27.6772 211.134 27.6263 211.132 27.5765 211.139C27.5267 211.147 27.4788 211.164 27.4357 211.19C27.3926 211.216 27.3551 211.25 27.3254 211.291C27.2956 211.331 27.2742 211.377 27.2623 211.425L25.7126 217.774Z" fill="#C1D8ED"/>
<path d="M52.744 235.758C53.8073 233.315 53.8854 233.054 53.9111 232.969L51.0335 232.118C51.0361 232.109 51.0395 232.098 51.0441 232.085C50.9706 232.293 50.4384 233.54 49.9879 234.575L52.744 235.758Z" fill="#F5AE92"/>
<path d="M55.9247 238.037C56.0012 238.063 56.0823 238.073 56.1628 238.066C56.2433 238.06 56.3216 238.036 56.3927 237.998C56.4638 237.96 56.5263 237.908 56.5761 237.845C56.626 237.782 56.6622 237.709 56.6824 237.631C56.7105 237.524 56.707 237.411 56.6724 237.305C56.6378 237.2 56.5735 237.106 56.4871 237.035L53.5637 234.807C53.507 234.764 53.4416 234.734 53.3721 234.719C53.3025 234.703 53.2303 234.703 53.1606 234.717C52.5978 234.875 51.9988 234.85 51.4519 234.644C51.032 234.467 50.6708 234.176 50.4094 233.804C50.3874 233.769 50.3557 233.741 50.318 233.722C50.2803 233.704 50.2381 233.697 50.1964 233.702C50.1548 233.706 50.1153 233.723 50.0826 233.749C50.0499 233.775 50.0254 233.81 50.0118 233.849L49.4556 235.453C49.4393 235.5 49.4324 235.55 49.4356 235.6C49.4387 235.65 49.4518 235.699 49.474 235.744C49.4962 235.789 49.5271 235.829 49.5649 235.862C49.6028 235.895 49.6468 235.92 49.6946 235.936L55.9247 238.037Z" fill="#C1D8ED"/>
<path d="M59.0951 216.738C58.9477 213.507 55.9341 198.806 55.6148 197.221L44.8004 197.707C44.8004 197.707 41.2153 211.546 41.0696 211.932L30.6778 211.201L29.6122 216.345L42.4643 218.496C43.1488 218.662 43.8704 218.585 44.5033 218.277C45.1362 217.969 45.6401 217.451 45.927 216.812C45.927 216.812 50.0134 204.888 50.0959 204.668L53.4591 215.73L49.6627 232.734L54.7139 234.294C54.7139 234.294 59.1547 218.045 59.0951 216.738Z" fill="#262626"/>
<path d="M34.8711 171.541L33.1812 171.644C33.1812 171.644 32.2947 169.48 33.5037 167.699C33.9041 167.108 34.5842 167.548 34.5722 167.794C34.5323 168.607 34.229 169.659 34.5214 170.295C34.6477 170.002 34.8441 169.612 34.9767 169.664C35.3255 169.803 34.8711 171.541 34.8711 171.541Z" fill="#F5AE92"/>
<path d="M32.1872 171.201L33.9415 180.339C33.9838 180.558 34.073 180.764 34.203 180.946C34.333 181.127 34.5008 181.278 34.695 181.389L41.3533 185.197C41.2675 187.465 43.5365 190.052 43.9511 192.416C44.4658 195.353 43.3592 196.9 43.7209 198.39C44.29 200.733 55.7894 198.171 56.144 196.724C56.51 195.231 55.1246 194.588 54.384 190.039C54.0308 187.875 54.2239 185.167 53.6505 183.298L58.9921 176.557C59.149 176.358 59.2548 176.125 59.3002 175.877C59.3455 175.628 59.3291 175.373 59.2523 175.132L56.2798 165.851L53.3088 166.787L56.0311 175.288L51.4073 181.124C50.997 181.067 50.5805 181.067 50.1705 181.127C50.0819 181.138 49.9403 181.159 49.7559 181.188C49.8531 181.963 45.0535 182.789 44.8147 182.022C44.2055 182.122 43.6168 182.32 43.0718 182.608L36.8696 179.062L35.2497 170.622L32.1872 171.201Z" fill="#00B6FF"/>
</g>
<g filter="url(#filter2_d_1959_3546)">
<path d="M268.422 165.999C268.422 165.999 266.652 164.89 267.114 163.605C267.575 162.32 268.748 161.763 270.569 162.386C271.864 162.829 272.055 162.533 273.215 162.083C273.88 161.826 275.971 162.124 276.383 163.576C276.825 165.132 278.645 164.037 278.616 166.514C278.591 168.588 277.983 171.237 275.535 172.866" fill="#0F1011"/>
<path d="M275.001 177.541C275.001 177.541 273.482 176.588 274.164 172.335L270.94 171.485C270.94 171.485 271.013 175.35 269.265 176.443L275.001 177.541Z" fill="#E98862"/>
<g opacity="0.15">
<path d="M269.996 175.692L272.872 173.834L270.739 173.65C270.622 174.371 270.37 175.063 269.996 175.692Z" fill="black"/>
</g>
<path d="M276.148 170.816C275.822 172.097 275.013 173.273 273.827 173.605C272.419 173.999 271.402 173.956 269.823 173.837C267.668 173.674 267.911 171.448 268.023 169.195C268.135 166.933 268.502 164.526 269.414 163.804C271.235 162.363 276.148 163.735 276.553 166.406C276.763 167.788 276.458 169.596 276.148 170.816Z" fill="#E98862"/>
<path d="M273.922 173.488C273.974 173.709 274.014 173.807 274.219 173.706C275.023 173.311 276.829 172.455 277.703 168.802C278.485 165.528 276.532 164.006 274.927 163.394C273.543 162.867 270.247 162.53 268.625 163.341C267.228 164.039 268.421 165.999 268.421 165.999C269.298 166.73 271.935 166.702 272.94 166.821C273.86 166.929 273.885 167.489 273.825 167.844C273.459 170.001 273.74 172.707 273.922 173.488Z" fill="#0F1011"/>
<path d="M271.125 169.43C271.289 169.43 271.422 169.297 271.422 169.134C271.422 168.971 271.289 168.839 271.125 168.839C270.96 168.839 270.827 168.971 270.827 169.134C270.827 169.297 270.96 169.43 271.125 169.43Z" fill="#0F1011"/>
<path d="M268.799 169.061C268.963 169.061 269.096 168.929 269.096 168.766C269.096 168.603 268.963 168.471 268.799 168.471C268.634 168.471 268.501 168.603 268.501 168.766C268.501 168.929 268.634 169.061 268.799 169.061Z" fill="#0F1011"/>
<path d="M269.13 168.15H269.121L268.334 168.1C268.298 168.097 268.264 168.08 268.24 168.053C268.216 168.025 268.204 167.99 268.206 167.953C268.209 167.917 268.225 167.883 268.252 167.859C268.28 167.835 268.315 167.822 268.352 167.823L269.139 167.873C269.174 167.876 269.208 167.892 269.232 167.919C269.256 167.945 269.269 167.98 269.268 168.016C269.267 168.052 269.252 168.085 269.226 168.111C269.2 168.136 269.166 168.15 269.13 168.15V168.15Z" fill="#0F1011"/>
<path d="M271.816 168.649C271.801 168.649 271.787 168.647 271.773 168.642L271.013 168.399C270.978 168.387 270.948 168.363 270.931 168.33C270.914 168.297 270.911 168.259 270.923 168.224C270.934 168.188 270.959 168.159 270.992 168.142C271.025 168.125 271.064 168.122 271.099 168.134L271.859 168.378C271.891 168.388 271.918 168.409 271.935 168.438C271.952 168.466 271.959 168.499 271.954 168.532C271.949 168.565 271.932 168.594 271.907 168.616C271.882 168.637 271.849 168.649 271.816 168.649Z" fill="#0F1011"/>
<path d="M272.612 169.971C272.586 170.133 272.593 170.299 272.631 170.459C272.67 170.619 272.74 170.77 272.837 170.903C272.934 171.036 273.057 171.149 273.198 171.235C273.339 171.321 273.496 171.378 273.66 171.404C273.823 171.43 273.99 171.423 274.151 171.385C274.313 171.347 274.464 171.278 274.599 171.181C274.733 171.084 274.846 170.963 274.933 170.823C275.02 170.682 275.078 170.527 275.104 170.364C275.133 170.202 275.128 170.035 275.091 169.874C275.054 169.713 274.984 169.561 274.886 169.427C274.788 169.294 274.665 169.181 274.522 169.095C274.38 169.01 274.221 168.954 274.056 168.931C273.162 168.834 272.722 169.288 272.612 169.971Z" fill="#E98862"/>
<g opacity="0.15">
<path d="M269.69 170.668C269.677 170.668 269.665 170.666 269.653 170.661L268.954 170.389C268.941 170.384 268.929 170.376 268.919 170.366C268.909 170.356 268.901 170.343 268.896 170.33C268.891 170.316 268.889 170.302 268.89 170.288C268.891 170.273 268.895 170.259 268.902 170.247L269.451 169.244C269.457 169.232 269.466 169.221 269.476 169.212C269.487 169.203 269.499 169.196 269.512 169.192C269.525 169.188 269.539 169.187 269.553 169.188C269.567 169.189 269.58 169.193 269.592 169.2C269.604 169.206 269.615 169.215 269.624 169.226C269.632 169.237 269.638 169.249 269.642 169.262C269.646 169.276 269.647 169.29 269.645 169.303C269.643 169.317 269.638 169.33 269.631 169.342L269.138 170.243L269.728 170.472C269.75 170.481 269.768 170.497 269.78 170.518C269.791 170.539 269.795 170.563 269.791 170.586C269.786 170.609 269.774 170.63 269.756 170.646C269.737 170.661 269.714 170.669 269.69 170.669V170.668Z" fill="black"/>
</g>
<path d="M270.81 171.443C270.81 171.443 269.706 171.475 268.959 171.15C268.959 171.15 268.91 171.867 269.771 172.003C270.632 172.139 270.81 171.443 270.81 171.443Z" fill="white"/>
<path d="M262.148 155.754L259.868 154.917C259.868 154.917 259.58 151.807 262.211 150.163C263.082 149.618 263.719 150.587 263.559 150.903C263.031 151.949 262.405 152.911 262.417 153.916C262.755 153.603 263.241 153.204 263.384 153.35C263.762 153.733 262.148 155.754 262.148 155.754Z" fill="#E98862"/>
<path d="M295.931 224.797L295.076 220.602C295.064 220.605 295.047 220.608 295.027 220.613C295.337 220.535 297.202 219.94 298.752 219.434L300.101 223.5C296.443 224.694 296.058 224.772 295.931 224.797Z" fill="#E98862"/>
<path d="M302.976 228.309C303.003 228.421 303.007 228.537 302.986 228.651C302.966 228.764 302.923 228.872 302.859 228.968C302.795 229.064 302.712 229.146 302.614 229.208C302.517 229.271 302.408 229.313 302.293 229.332C302.135 229.358 301.972 229.338 301.824 229.276C301.676 229.213 301.55 229.11 301.459 228.978L298.625 224.54C298.571 224.454 298.536 224.357 298.522 224.256C298.509 224.156 298.518 224.053 298.548 223.956C298.848 223.177 298.888 222.324 298.662 221.521C298.461 220.901 298.088 220.351 297.586 219.932C297.538 219.896 297.501 219.848 297.48 219.792C297.458 219.736 297.453 219.675 297.465 219.616C297.478 219.558 297.506 219.504 297.548 219.461C297.59 219.418 297.643 219.388 297.702 219.373L300.084 218.79C300.154 218.773 300.227 218.77 300.299 218.781C300.37 218.792 300.439 218.816 300.501 218.854C300.563 218.891 300.617 218.94 300.659 218.998C300.702 219.056 300.733 219.122 300.75 219.192L302.976 228.309Z" fill="#C1D8ED"/>
<path d="M264.153 254.138C262.626 250.63 262.514 250.255 262.477 250.133L266.61 248.911C266.606 248.898 266.601 248.882 266.594 248.863C266.7 249.163 267.464 250.953 268.111 252.44L264.153 254.138Z" fill="#E98862"/>
<path d="M259.584 257.413C259.474 257.45 259.358 257.464 259.242 257.454C259.126 257.445 259.014 257.411 258.912 257.357C258.81 257.302 258.72 257.227 258.648 257.136C258.577 257.046 258.525 256.941 258.496 256.83C258.455 256.675 258.46 256.513 258.51 256.361C258.56 256.209 258.652 256.075 258.776 255.974L262.975 252.774C263.056 252.712 263.15 252.669 263.25 252.646C263.35 252.624 263.454 252.623 263.554 252.645C264.362 252.871 265.222 252.834 266.008 252.539C266.611 252.285 267.13 251.867 267.505 251.333C267.537 251.282 267.582 251.242 267.636 251.215C267.691 251.189 267.751 251.179 267.811 251.186C267.871 251.192 267.928 251.216 267.975 251.253C268.021 251.291 268.057 251.341 268.076 251.397L268.875 253.7C268.898 253.768 268.908 253.84 268.904 253.912C268.899 253.984 268.88 254.054 268.849 254.118C268.817 254.183 268.772 254.241 268.718 254.288C268.664 254.336 268.6 254.372 268.532 254.395L259.584 257.413Z" fill="#C1D8ED"/>
<path d="M255.03 226.823C255.242 222.183 259.57 201.069 260.029 198.792L275.561 199.49C275.561 199.49 280.71 219.367 280.919 219.921L295.844 218.871L297.374 226.258L278.916 229.348C277.933 229.587 276.896 229.476 275.987 229.034C275.078 228.592 274.355 227.847 273.942 226.929C273.942 226.929 268.074 209.804 267.955 209.488L263.125 225.376L268.577 249.797L261.322 252.037C261.322 252.037 254.945 228.7 255.03 226.823Z" fill="#262626" fill-opacity="0.73"/>
<path d="M289.822 161.909L292.249 162.057C292.249 162.057 293.522 158.949 291.786 156.391C291.211 155.543 290.234 156.174 290.252 156.527C290.309 157.695 290.744 159.206 290.324 160.12C290.143 159.699 289.861 159.138 289.671 159.214C289.17 159.413 289.822 161.909 289.822 161.909Z" fill="#E98862"/>
<path d="M293.676 161.421L291.157 174.545C291.096 174.859 290.968 175.156 290.781 175.416C290.595 175.676 290.354 175.894 290.075 176.053L280.512 181.522C280.635 184.779 277.376 188.495 276.781 191.891C276.042 196.108 277.631 198.33 277.111 200.47C276.294 203.835 259.778 200.156 259.269 198.077C258.743 195.933 260.733 195.009 261.797 188.477C262.304 185.368 262.027 181.479 262.85 178.795L255.179 169.113C254.953 168.828 254.801 168.492 254.736 168.136C254.671 167.779 254.695 167.412 254.805 167.067L259.074 153.736L263.341 155.082L259.431 167.291L266.072 175.672C266.661 175.59 267.259 175.591 267.848 175.676C267.976 175.693 268.179 175.723 268.444 175.764C268.304 176.877 275.198 178.063 275.541 176.962C276.415 177.106 277.261 177.391 278.044 177.804L286.951 172.711L289.278 160.589L293.676 161.421Z" fill="#143A62"/>
</g>
<path d="M275.54 176.962C275.197 178.063 272.933 179.643 270.47 179.049C268.627 178.607 268.304 176.877 268.444 175.764C269.877 175.988 273.082 176.536 275.532 176.96C275.535 176.96 275.538 176.961 275.54 176.962Z" fill="#E98862"/>
</g>
<path d="M151.216 48.88C151.216 48.2667 151.269 47.5467 151.376 46.72C151.482 45.8933 151.682 44.96 151.976 43.92C152.269 42.8533 152.709 41.6667 153.296 40.36L158.216 42.08C157.922 42.9067 157.669 43.6667 157.456 44.36C157.242 45.0267 157.082 45.6533 156.976 46.24C156.869 46.8 156.816 47.36 156.816 47.92C156.816 48.72 156.989 49.4667 157.336 50.16C157.682 50.8533 158.202 51.4533 158.896 51.96C159.589 52.4933 160.442 52.9067 161.456 53.2C162.496 53.4933 163.696 53.64 165.056 53.64C166.602 53.64 167.962 53.4933 169.136 53.2C170.336 52.9333 171.336 52.5733 172.136 52.12C172.962 51.6933 173.589 51.24 174.016 50.76C174.442 50.28 174.656 49.84 174.656 49.44C174.656 49.12 174.429 48.84 173.976 48.6C173.549 48.36 172.976 48.12 172.256 47.88C171.562 47.6133 170.816 47.32 170.016 47C169.242 46.68 168.496 46.28 167.776 45.8C167.082 45.32 166.509 44.7333 166.056 44.04C165.629 43.3467 165.416 42.5067 165.416 41.52C165.416 40.5067 165.682 39.4 166.216 38.2C166.749 36.9733 167.509 35.8133 168.496 34.72C169.482 33.6 170.656 32.6933 172.016 32C173.402 31.28 174.922 30.92 176.576 30.92C177.749 30.92 178.816 31.1067 179.776 31.48C180.762 31.8533 181.589 32.28 182.256 32.76L180.176 37.44C179.616 37.0667 179.016 36.7867 178.376 36.6C177.736 36.3867 177.122 36.28 176.536 36.28C175.789 36.28 175.069 36.4267 174.376 36.72C173.709 37.0133 173.109 37.4 172.576 37.88C172.069 38.3333 171.669 38.8267 171.376 39.36C171.082 39.8933 170.936 40.4 170.936 40.88C170.936 41.36 171.162 41.7867 171.616 42.16C172.096 42.5067 172.709 42.84 173.456 43.16C174.202 43.4533 174.989 43.76 175.816 44.08C176.642 44.4 177.429 44.76 178.176 45.16C178.922 45.56 179.522 46.04 179.976 46.6C180.456 47.16 180.696 47.84 180.696 48.64C180.696 49.7867 180.336 50.9733 179.616 52.2C178.922 53.4533 177.882 54.6133 176.496 55.68C175.109 56.7467 173.402 57.6 171.376 58.24C169.376 58.9067 167.056 59.24 164.416 59.24C162.496 59.24 160.736 59.0133 159.136 58.56C157.536 58.1333 156.136 57.48 154.936 56.6C153.762 55.7467 152.842 54.6667 152.176 53.36C151.536 52.08 151.216 50.5867 151.216 48.88ZM183.667 59.2L181.627 54.08C183.921 53.28 185.774 52.4 187.187 51.44C188.627 50.48 189.681 49.4533 190.347 48.36C191.041 47.2667 191.387 46.1333 191.387 44.96C191.387 44.2133 191.281 43.44 191.067 42.64C190.854 41.8133 190.547 40.9467 190.147 40.04C189.774 39.1333 189.321 38.1867 188.787 37.2L194.027 34.68C194.961 36.4667 195.681 38.1733 196.187 39.8C196.721 41.4267 196.987 42.9467 196.987 44.36C196.987 45.6667 196.814 46.92 196.467 48.12C196.147 49.32 195.641 50.44 194.947 51.48C194.281 52.5467 193.414 53.5467 192.347 54.48C191.281 55.4133 190.027 56.2667 188.587 57.04C187.147 57.84 185.507 58.56 183.667 59.2ZM192.507 30.6C191.681 30.6 190.974 30.32 190.387 29.76C189.827 29.2 189.547 28.5067 189.547 27.68C189.547 26.8533 189.827 26.1467 190.387 25.56C190.974 24.9733 191.681 24.68 192.507 24.68C193.307 24.68 193.987 24.9733 194.547 25.56C195.134 26.1467 195.427 26.8533 195.427 27.68C195.427 28.5067 195.134 29.2 194.547 29.76C193.987 30.32 193.307 30.6 192.507 30.6ZM212.075 50.2C209.595 50.2 207.675 49.9467 206.315 49.44C204.981 48.9333 204.048 48.1467 203.515 47.08C202.981 45.9867 202.675 44.6133 202.595 42.96L201.755 20.72H207.355L208.195 40.28C208.248 41.5067 208.381 42.4267 208.595 43.04C208.808 43.6533 209.208 44.0667 209.795 44.28C210.408 44.4933 211.301 44.6 212.475 44.6C213.488 44.6 214.208 44.8667 214.635 45.4C215.088 45.9067 215.315 46.5467 215.315 47.32C215.315 48.1467 215.035 48.84 214.475 49.4C213.915 49.9333 213.115 50.2 212.075 50.2ZM212.129 50.2L212.529 44.6C213.702 44.6 214.622 44.52 215.289 44.36C215.982 44.2 216.476 43.9067 216.769 43.48C217.062 43.0267 217.209 42.3867 217.209 41.56C217.209 40.8133 217.102 39.92 216.889 38.88C216.702 37.84 216.449 36.76 216.129 35.64C215.809 34.52 215.489 33.4933 215.169 32.56L220.689 31.04C221.009 31.9467 221.329 33 221.649 34.2C221.969 35.4 222.236 36.64 222.449 37.92C222.689 39.1733 222.809 40.3867 222.809 41.56C222.809 43.0267 222.622 44.2667 222.249 45.28C221.876 46.2667 221.356 47.0933 220.689 47.76C220.049 48.4 219.276 48.9067 218.369 49.28C217.489 49.6267 216.516 49.8667 215.449 50C214.382 50.1333 213.276 50.2 212.129 50.2ZM217.049 59.4C216.276 59.4 215.609 59.1333 215.049 58.6C214.516 58.0667 214.249 57.4133 214.249 56.64C214.249 55.8667 214.516 55.1867 215.049 54.6C215.609 54.04 216.276 53.76 217.049 53.76C217.822 53.76 218.476 54.04 219.009 54.6C219.569 55.1867 219.849 55.8667 219.849 56.64C219.849 57.4133 219.569 58.0667 219.009 58.6C218.476 59.1333 217.822 59.4 217.049 59.4Z" fill="#143A62"/>
<g filter="url(#filter3_d_1959_3546)">
<path d="M144.479 108.8L142.739 100.4C145.579 100.04 148.059 99.6 150.179 99.08C152.299 98.6 154.079 97.92 155.519 97.04C156.959 96.16 158.039 94.96 158.759 93.44C159.479 91.88 159.839 89.88 159.839 87.44C159.839 86.56 159.759 85.68 159.599 84.8C159.439 83.88 159.199 83.04 158.879 82.28C158.559 81.52 158.139 80.9 157.619 80.42C157.139 79.94 156.559 79.7 155.879 79.7C155.159 79.7 154.519 79.96 153.959 80.48C153.399 80.96 152.959 81.58 152.639 82.34C152.319 83.06 152.159 83.8 152.159 84.56C152.159 85.12 152.299 85.6 152.579 86C152.859 86.36 153.279 86.64 153.839 86.84C154.399 87 155.099 87.08 155.939 87.08C156.899 87.08 157.879 86.98 158.879 86.78C159.919 86.54 160.859 86.22 161.699 85.82L161.939 92.36C160.979 93.12 159.879 93.8 158.639 94.4C157.399 94.96 155.899 95.24 154.139 95.24C152.699 95.24 151.359 95.08 150.119 94.76C148.879 94.4 147.779 93.86 146.819 93.14C145.899 92.42 145.179 91.5 144.659 90.38C144.139 89.22 143.879 87.84 143.879 86.24C143.879 84.28 144.199 82.38 144.839 80.54C145.479 78.7 146.359 77.06 147.479 75.62C148.639 74.14 149.959 72.98 151.439 72.14C152.959 71.26 154.559 70.82 156.239 70.82C158.239 70.82 159.979 71.32 161.459 72.32C162.979 73.32 164.239 74.64 165.239 76.28C166.239 77.88 166.999 79.62 167.519 81.5C168.039 83.38 168.299 85.18 168.299 86.9C168.299 91.42 167.339 95.26 165.419 98.42C163.499 101.58 160.759 104.02 157.199 105.74C153.639 107.5 149.399 108.52 144.479 108.8Z" fill="#00B6FF"/>
</g>
<path d="M88.1103 148.88C88.1103 148.267 88.1636 147.547 88.2703 146.72C88.377 145.893 88.577 144.96 88.8703 143.92C89.1636 142.853 89.6036 141.667 90.1903 140.36L95.1103 142.08C94.817 142.907 94.5636 143.667 94.3503 144.36C94.137 145.027 93.977 145.653 93.8703 146.24C93.7636 146.8 93.7103 147.36 93.7103 147.92C93.7103 148.8 93.897 149.587 94.2703 150.28C94.6703 151 95.2436 151.6 95.9903 152.08C96.737 152.587 97.6436 152.973 98.7103 153.24C99.8036 153.507 101.057 153.64 102.47 153.64C103.937 153.64 105.244 153.573 106.39 153.44C107.564 153.307 108.55 153.107 109.35 152.84C110.177 152.573 110.804 152.227 111.23 151.8C111.657 151.4 111.87 150.933 111.87 150.4C111.87 150.16 111.777 149.933 111.59 149.72C111.43 149.507 111.15 149.28 110.75 149.04C110.377 148.8 109.87 148.547 109.23 148.28C108.617 148.013 107.87 147.72 106.99 147.4L108.31 141.76C109.457 142.24 110.537 142.667 111.55 143.04C112.59 143.387 113.577 143.68 114.51 143.92C115.444 144.133 116.324 144.307 117.15 144.44C117.977 144.547 118.75 144.6 119.47 144.6C120.484 144.6 121.204 144.867 121.63 145.4C122.057 145.907 122.27 146.547 122.27 147.32C122.27 148.147 121.99 148.84 121.43 149.4C120.87 149.933 120.084 150.2 119.07 150.2C118.857 150.2 118.644 150.2 118.43 150.2C118.244 150.2 118.044 150.2 117.83 150.2C117.644 150.2 117.444 150.2 117.23 150.2C117.284 150.467 117.31 150.693 117.31 150.88C117.31 151.093 117.31 151.293 117.31 151.48C117.31 152.36 117.004 153.253 116.39 154.16C115.804 155.067 114.884 155.907 113.63 156.68C112.377 157.453 110.777 158.067 108.83 158.52C106.91 159 104.617 159.24 101.95 159.24C99.0703 159.24 96.5903 158.867 94.5103 158.12C92.457 157.4 90.8703 156.267 89.7503 154.72C88.657 153.2 88.1103 151.253 88.1103 148.88ZM119.062 150.2L119.463 144.6C120.076 144.6 120.596 144.453 121.023 144.16C121.476 143.84 121.943 143.32 122.423 142.6C122.903 141.853 123.463 140.853 124.103 139.6C124.903 138 125.729 136.747 126.583 135.84C127.463 134.933 128.356 134.293 129.263 133.92C130.196 133.52 131.129 133.32 132.063 133.32C133.236 133.32 134.329 133.573 135.343 134.08C136.356 134.587 137.236 135.28 137.983 136.16C138.729 137.013 139.303 138 139.703 139.12C140.129 140.213 140.343 141.347 140.343 142.52C140.343 143.933 140.036 145.213 139.423 146.36C138.836 147.48 138.009 148.373 136.943 149.04C135.903 149.68 134.703 150 133.343 150C132.196 150 130.863 149.8 129.342 149.4C127.823 149 126.223 148.16 124.543 146.88L126.583 142.04C127.783 142.867 128.903 143.467 129.943 143.84C131.009 144.213 131.889 144.4 132.583 144.4C133.116 144.4 133.556 144.347 133.903 144.24C134.249 144.133 134.503 143.96 134.663 143.72C134.823 143.48 134.903 143.16 134.903 142.76C134.903 142.2 134.769 141.627 134.503 141.04C134.236 140.453 133.876 139.96 133.423 139.56C132.996 139.133 132.489 138.92 131.903 138.92C131.343 138.92 130.863 139.133 130.463 139.56C130.089 139.96 129.716 140.547 129.342 141.32C128.996 142.067 128.569 142.947 128.063 143.96C127.449 145.187 126.849 146.213 126.263 147.04C125.676 147.84 125.049 148.48 124.383 148.96C123.743 149.413 122.983 149.733 122.103 149.92C121.249 150.107 120.236 150.2 119.062 150.2ZM141.382 159.24L139.342 154.28C140.756 153.8 142.049 153.24 143.222 152.6C144.422 151.96 145.462 151.253 146.342 150.48C147.222 149.707 147.902 148.867 148.382 147.96C148.862 147.027 149.102 146.027 149.102 144.96C149.102 143.84 148.849 142.613 148.342 141.28C147.836 139.947 147.222 138.587 146.502 137.2L151.742 134.68C152.222 135.507 152.636 136.4 152.982 137.36C153.356 138.293 153.662 139.133 153.902 139.88C154.142 140.627 154.302 141.133 154.382 141.4C154.756 142.68 155.262 143.533 155.902 143.96C156.569 144.387 157.636 144.6 159.102 144.6C160.116 144.6 160.836 144.867 161.262 145.4C161.716 145.907 161.942 146.547 161.942 147.32C161.942 148.147 161.662 148.84 161.102 149.4C160.542 149.933 159.742 150.2 158.702 150.2C157.609 150.2 156.649 150.04 155.822 149.72C154.996 149.4 154.329 148.933 153.822 148.32C153.342 147.707 153.036 146.987 152.902 146.16L154.382 147C154.222 148.413 153.756 149.747 152.982 151C152.236 152.28 151.262 153.453 150.062 154.52C148.862 155.587 147.516 156.52 146.022 157.32C144.529 158.12 142.982 158.76 141.382 159.24ZM158.87 126.6L156.91 123.32C158.217 122.547 159.563 121.773 160.95 121C162.337 120.2 163.883 119.347 165.59 118.44C167.323 117.507 169.35 116.453 171.67 115.28L173.51 118.8C171.137 119.947 169.083 120.973 167.35 121.88C165.643 122.787 164.11 123.627 162.75 124.4C161.417 125.147 160.123 125.88 158.87 126.6ZM158.75 150.2L159.15 144.6H164.87C165.43 144.6 165.923 144.573 166.35 144.52C166.777 144.44 167.123 144.32 167.39 144.16C167.683 144 167.897 143.8 168.03 143.56C168.163 143.32 168.23 143.04 168.23 142.72C168.23 142.4 168.057 141.893 167.71 141.2C167.39 140.48 166.683 139.613 165.59 138.6C165.003 138.067 164.363 137.507 163.67 136.92C163.003 136.307 162.363 135.733 161.75 135.2C161.137 134.64 160.63 134.147 160.23 133.72C159.83 133.293 159.63 132.987 159.63 132.8C159.63 132.4 159.657 131.96 159.71 131.48C159.763 131 159.843 130.56 159.95 130.16C160.083 129.76 160.257 129.467 160.47 129.28C160.923 128.853 161.59 128.36 162.47 127.8C163.377 127.213 164.457 126.587 165.71 125.92C166.963 125.227 168.363 124.507 169.91 123.76C171.483 122.987 173.163 122.213 174.95 121.44L177.23 126.32C175.763 126.96 174.377 127.587 173.07 128.2C171.763 128.787 170.537 129.373 169.39 129.96C168.27 130.52 167.23 131.08 166.27 131.64C165.337 132.173 164.51 132.707 163.79 133.24L164.31 130.28C166.577 132.013 168.377 133.573 169.71 134.96C171.07 136.347 172.083 137.587 172.75 138.68C173.417 139.747 173.857 140.707 174.07 141.56C174.283 142.387 174.39 143.12 174.39 143.76C174.39 144.4 174.23 145.093 173.91 145.84C173.617 146.56 173.07 147.253 172.27 147.92C171.497 148.587 170.403 149.133 168.99 149.56C167.577 149.987 165.763 150.2 163.55 150.2H158.75ZM177.554 159.24L175.514 154.28C176.927 153.8 178.221 153.24 179.394 152.6C180.594 151.96 181.634 151.253 182.514 150.48C183.394 149.707 184.074 148.867 184.554 147.96C185.034 147.027 185.274 146.027 185.274 144.96C185.274 143.84 185.021 142.613 184.514 141.28C184.007 139.947 183.394 138.587 182.674 137.2L187.914 134.68C188.394 135.507 188.807 136.4 189.154 137.36C189.527 138.293 189.834 139.133 190.074 139.88C190.314 140.627 190.474 141.133 190.554 141.4C190.927 142.68 191.434 143.533 192.074 143.96C192.741 144.387 193.807 144.6 195.274 144.6C196.287 144.6 197.007 144.867 197.434 145.4C197.887 145.907 198.114 146.547 198.114 147.32C198.114 148.147 197.834 148.84 197.274 149.4C196.714 149.933 195.914 150.2 194.874 150.2C193.781 150.2 192.821 150.04 191.994 149.72C191.167 149.4 190.501 148.933 189.994 148.32C189.514 147.707 189.207 146.987 189.074 146.16L190.554 147C190.394 148.413 189.927 149.747 189.154 151C188.407 152.28 187.434 153.453 186.234 154.52C185.034 155.587 183.687 156.52 182.194 157.32C180.701 158.12 179.154 158.76 177.554 159.24ZM194.922 150.2L195.322 144.6C196.202 144.6 196.922 144.533 197.482 144.4C198.042 144.24 198.495 143.907 198.842 143.4C199.215 142.867 199.535 142.08 199.802 141.04C200.095 139.973 200.415 138.533 200.762 136.72L205.962 137.68C205.882 138.08 205.789 138.547 205.682 139.08C205.575 139.613 205.482 140.16 205.402 140.72C205.322 141.253 205.282 141.733 205.282 142.16C205.282 142.907 205.522 143.507 206.002 143.96C206.482 144.387 207.389 144.6 208.722 144.6C209.389 144.6 209.962 144.533 210.442 144.4C210.949 144.24 211.375 143.907 211.722 143.4C212.095 142.867 212.415 142.053 212.682 140.96C212.975 139.84 213.255 138.333 213.522 136.44L218.802 137.28C218.695 137.893 218.589 138.547 218.482 139.24C218.375 139.933 218.282 140.573 218.202 141.16C218.122 141.747 218.082 142.227 218.082 142.6C218.082 142.947 218.175 143.28 218.362 143.6C218.575 143.893 218.949 144.133 219.482 144.32C220.042 144.507 220.829 144.6 221.842 144.6C222.562 144.6 223.175 144.507 223.682 144.32C224.215 144.133 224.615 143.827 224.882 143.4C225.175 142.973 225.322 142.413 225.322 141.72C225.322 140.733 225.095 139.44 224.642 137.84C224.189 136.24 223.655 134.56 223.042 132.8L228.682 131.12C229.109 132.267 229.482 133.493 229.802 134.8C230.149 136.08 230.415 137.333 230.602 138.56C230.815 139.76 230.922 140.813 230.922 141.72C230.922 143.08 230.709 144.293 230.282 145.36C229.855 146.4 229.255 147.28 228.482 148C227.709 148.72 226.789 149.267 225.722 149.64C224.655 150.013 223.482 150.2 222.202 150.2C220.655 150.2 219.389 150.053 218.402 149.76C217.415 149.44 216.655 148.92 216.122 148.2C215.615 147.453 215.282 146.44 215.122 145.16H216.482C215.922 146.733 215.295 147.88 214.602 148.6C213.909 149.293 213.082 149.733 212.122 149.92C211.189 150.107 210.015 150.2 208.602 150.2C207.722 150.2 206.815 150.107 205.882 149.92C204.975 149.707 204.162 149.227 203.442 148.48C202.722 147.733 202.189 146.573 201.842 145L204.002 144.92C203.442 146.493 202.709 147.653 201.802 148.4C200.922 149.147 199.909 149.64 198.762 149.88C197.615 150.093 196.335 150.2 194.922 150.2Z" fill="#143A62"/>
</g>
</g>
<defs>
<filter id="filter0_d_1959_3546" x="0" y="0" width="322" height="291" filterUnits="userSpaceOnUse" color-interpolation-filters="sRGB">
<feFlood flood-opacity="0" result="BackgroundImageFix"/>
<feColorMatrix in="SourceAlpha" type="matrix" values="0 0 0 0 0 0 0 0 0 0 0 0 0 0 0 0 0 0 127 0" result="hardAlpha"/>
<feOffset dx="1" dy="1"/>
<feGaussianBlur stdDeviation="3"/>
<feComposite in2="hardAlpha" operator="out"/>
<feColorMatrix type="matrix" values="0 0 0 0 0 0 0 0 0 0 0 0 0 0 0 0 0 0 0.2 0"/>
<feBlend mode="normal" in2="BackgroundImageFix" result="effect1_dropShadow_1959_3546"/>
<feBlend mode="normal" in="SourceGraphic" in2="effect1_dropShadow_1959_3546" result="shape"/>
</filter>
<filter id="filter1_d_1959_3546" x="19.6963" y="161.249" width="41.6289" height="82.8193" filterUnits="userSpaceOnUse" color-interpolation-filters="sRGB">
<feFlood flood-opacity="0" result="BackgroundImageFix"/>
<feColorMatrix in="SourceAlpha" type="matrix" values="0 0 0 0 0 0 0 0 0 0 0 0 0 0 0 0 0 0 127 0" result="hardAlpha"/>
<feOffset dx="-2" dy="2"/>
<feGaussianBlur stdDeviation="2"/>
<feComposite in2="hardAlpha" operator="out"/>
<feColorMatrix type="matrix" values="0 0 0 0 0 0 0 0 0 0 0 0 0 0 0 0 0 0 0.2 0"/>
<feBlend mode="normal" in2="BackgroundImageFix" result="effect1_dropShadow_1959_3546"/>
<feBlend mode="normal" in="SourceGraphic" in2="effect1_dropShadow_1959_3546" result="shape"/>
</filter>
<filter id="filter2_d_1959_3546" x="251.7" y="147" width="56.2988" height="115.457" filterUnits="userSpaceOnUse" color-interpolation-filters="sRGB">
<feFlood flood-opacity="0" result="BackgroundImageFix"/>
<feColorMatrix in="SourceAlpha" type="matrix" values="0 0 0 0 0 0 0 0 0 0 0 0 0 0 0 0 0 0 127 0" result="hardAlpha"/>
<feOffset dx="1" dy="1"/>
<feGaussianBlur stdDeviation="2"/>
<feComposite in2="hardAlpha" operator="out"/>
<feColorMatrix type="matrix" values="0 0 0 0 0 0 0 0 0 0 0 0 0 0 0 0 0 0 0.2 0"/>
<feBlend mode="normal" in2="BackgroundImageFix" result="effect1_dropShadow_1959_3546"/>
<feBlend mode="normal" in="SourceGraphic" in2="effect1_dropShadow_1959_3546" result="shape"/>
</filter>
<filter id="filter3_d_1959_3546" x="139.738" y="67.8203" width="33.5605" height="45.9795" filterUnits="userSpaceOnUse" color-interpolation-filters="sRGB">
<feFlood flood-opacity="0" result="BackgroundImageFix"/>
<feColorMatrix in="SourceAlpha" type="matrix" values="0 0 0 0 0 0 0 0 0 0 0 0 0 0 0 0 0 0 127 0" result="hardAlpha"/>
<feOffset dx="1" dy="1"/>
<feGaussianBlur stdDeviation="2"/>
<feComposite in2="hardAlpha" operator="out"/>
<feColorMatrix type="matrix" values="0 0 0 0 0 0 0 0 0 0 0 0 0 0 0 0 0 0 0.2 0"/>
<feBlend mode="normal" in2="BackgroundImageFix" result="effect1_dropShadow_1959_3546"/>
<feBlend mode="normal" in="SourceGraphic" in2="effect1_dropShadow_1959_3546" result="shape"/>
</filter>
<clipPath id="clip0_1959_3546">
<rect x="5" y="5" width="310" height="279" rx="20" fill="white"/>
</clipPath>
<clipPath id="clip1_1959_3546">
<rect width="286" height="134" fill="white" transform="translate(17 150)"/>
</clipPath>
</defs>
</svg>
