<svg width="517" height="257" viewBox="0 0 517 257" fill="none" xmlns="http://www.w3.org/2000/svg">
<g filter="url(#filter0_d_1959_3500)">
<g clip-path="url(#clip0_1959_3500)">
<rect x="5" y="5" width="505" height="245" rx="20" fill="#143A62" fill-opacity="0.05"/>
<path d="M376.518 9.8283C376.518 9.8283 351.114 66.8188 283.932 53.7633C216.75 40.7078 176.273 132.559 239.788 166.049C303.303 199.54 259.285 238.013 301.645 257.665C349.791 280 367.744 205.314 403.213 212.251C481.495 227.561 529.918 201.305 508.506 165.971C470.921 103.948 443.631 106.231 454.721 66.1785C465.812 26.1256 403.181 -35.3624 376.518 9.8283Z" fill="#DEE9FF"/>
<path d="M25.0345 141.703C25.0345 141.703 3.17051 190.841 -54.6495 179.584C-112.47 168.328 -147.306 247.523 -92.6421 276.399C-37.9782 305.276 -75.8616 338.448 -39.4045 355.392C2.03161 374.65 17.4831 310.254 48.0095 316.235C115.382 329.435 157.057 306.797 138.63 276.332C106.282 222.855 82.7949 224.823 92.3397 190.289C101.885 155.755 47.9816 102.739 25.0345 141.703Z" fill="#DEE9FF"/>
<g filter="url(#filter1_d_1959_3500)">
<path d="M364.256 139.902C358.352 151.21 356.863 157.219 338.957 168.439C338.818 168.53 338.714 168.665 338.661 168.822C335.801 177.687 330.958 185.784 324.501 192.499C324.414 192.589 324.353 192.7 324.324 192.821C324.295 192.943 324.299 193.07 324.337 193.189C326.341 199.855 328.51 211.874 322.475 221.726C313.604 236.23 307.034 227.473 308.402 224.189C309.574 221.375 319.584 215.333 317.273 200.238C317.253 200.117 317.203 200.004 317.127 199.908C317.051 199.812 316.951 199.738 316.838 199.691C316.725 199.645 316.601 199.629 316.48 199.644C316.359 199.659 316.243 199.706 316.145 199.778C308.889 205.042 300.562 208.641 291.755 210.32C291.658 210.336 291.564 210.373 291.482 210.428C291.399 210.482 291.329 210.554 291.276 210.638C291.224 210.722 291.189 210.816 291.175 210.914C291.162 211.012 291.169 211.112 291.197 211.207C293.442 219.242 294.504 231.798 285.13 243.345C280.125 249.366 273.488 240.565 280.125 234.567C284.242 230.856 283.925 220.183 281.997 211.963C281.961 211.803 281.869 211.661 281.74 211.562C281.61 211.462 281.449 211.41 281.285 211.416C280.902 211.426 280.508 211.426 280.125 211.426C266.579 211.447 253.409 206.972 242.681 198.706C242.583 198.629 242.466 198.579 242.343 198.561C242.22 198.543 242.094 198.557 241.978 198.603C241.862 198.648 241.76 198.723 241.681 198.819C241.603 198.916 241.551 199.032 241.531 199.154C238.957 216.143 249.176 222.021 250.632 226.378C252.253 231.249 248.529 235.584 243.94 234.358C243.841 234.328 243.748 234.28 243.666 234.215C228.706 222.985 230.01 199.45 231.652 188.121C231.667 188.028 231.663 187.933 231.638 187.843C231.613 187.752 231.57 187.668 231.51 187.595C223.144 176.835 218.615 163.589 218.642 149.962C218.642 124.971 233.569 103.462 255.001 93.8619C255.003 93.8619 255.004 93.8617 255.006 93.8612C255.007 93.8606 255.008 93.8598 255.009 93.8588C255.01 93.8578 255.011 93.8566 255.012 93.8553C255.012 93.8539 255.012 93.8525 255.012 93.8511C258.309 89.6798 262.328 83.7804 262.942 79.6428C262.962 79.5026 263.023 79.3716 263.119 79.2666C263.214 79.1616 263.338 79.0873 263.475 79.0532C263.613 79.0191 263.757 79.0267 263.891 79.0752C264.024 79.1237 264.139 79.2107 264.223 79.3252C265.8 81.4487 268.242 85.499 267.706 89.768C267.684 89.9102 267.673 90.0524 267.651 90.1948C267.607 90.4358 267.552 90.6656 267.498 90.9064C267.443 91.0926 267.399 91.2786 267.333 91.4647C268.099 90.8259 268.83 90.1462 269.523 89.4286C271.132 87.7759 273.169 85.291 274.046 82.6311C274.087 82.4892 274.171 82.3636 274.287 82.2716C274.403 82.1796 274.544 82.1258 274.692 82.1175C274.84 82.1091 274.986 82.1468 275.112 82.2252C275.237 82.3036 275.335 82.4189 275.392 82.5552C275.961 83.9564 276.63 85.9157 276.86 87.9188C276.88 88.0985 276.966 88.2643 277.102 88.3837C277.237 88.5032 277.413 88.5677 277.594 88.5646C278.437 88.5318 279.28 88.51 280.124 88.51C314.085 88.51 341.617 116.029 341.617 149.963C341.617 150.74 341.606 151.506 341.573 152.272C341.568 152.389 341.592 152.505 341.643 152.611C341.693 152.717 341.768 152.809 341.862 152.879C341.956 152.949 342.065 152.995 342.181 153.013C342.297 153.032 342.415 153.021 342.526 152.984C346.184 151.703 350.795 148.616 353.576 141.271C358.779 127.588 359.326 123.757 357.683 113.084C356.041 102.412 363.981 102.96 365.623 106.517C367.265 110.073 370.826 127.314 364.256 139.902Z" fill="#143A62"/>
</g>
<path d="M256.106 155.352C255.896 155.352 255.693 155.282 255.527 155.154C255.361 155.026 255.242 154.847 255.189 154.645C254.776 152.842 254.688 150.98 254.927 149.146C255.467 145.161 257.637 142.231 261.203 140.674C263.534 139.656 265.737 139.598 267.751 140.5C271.879 142.349 273.637 147.593 273.71 147.815C273.78 148.052 273.756 148.307 273.641 148.526C273.526 148.745 273.331 148.91 273.096 148.987C272.861 149.064 272.605 149.046 272.383 148.937C272.161 148.829 271.991 148.638 271.908 148.405C271.893 148.36 270.329 143.727 266.969 142.227C265.465 141.556 263.781 141.618 261.963 142.411C259.012 143.701 257.28 146.033 256.816 149.344C256.604 150.951 256.675 152.583 257.026 154.166C257.089 154.409 257.053 154.667 256.925 154.884C256.798 155.101 256.59 155.259 256.346 155.322C256.268 155.342 256.187 155.352 256.106 155.352Z" fill="white"/>
<path d="M284.698 146.67C284.499 146.67 284.305 146.607 284.144 146.491C283.983 146.375 283.862 146.211 283.799 146.023C283.27 144.259 283.06 142.414 283.18 140.576C283.46 136.58 285.436 133.527 288.894 131.748C291.159 130.584 293.356 130.383 295.428 131.155C299.658 132.729 301.749 137.814 301.836 138.03C301.927 138.262 301.923 138.522 301.824 138.751C301.725 138.98 301.539 139.162 301.307 139.255C301.075 139.348 300.816 139.346 300.586 139.25C300.355 139.153 300.172 138.969 300.077 138.738C300.058 138.694 298.203 134.205 294.759 132.929C293.211 132.355 291.53 132.525 289.763 133.435C286.902 134.906 285.326 137.334 285.077 140.651C284.97 142.26 285.147 143.875 285.599 145.423C285.646 145.566 285.658 145.717 285.635 145.866C285.612 146.014 285.555 146.155 285.467 146.276C285.379 146.398 285.263 146.497 285.13 146.566C284.996 146.634 284.848 146.67 284.698 146.67H284.698Z" fill="white"/>
<path d="M282.284 166.503C275.828 166.503 270.906 162.208 270.66 161.99C270.566 161.908 270.49 161.807 270.436 161.695C270.382 161.583 270.35 161.462 270.342 161.338C270.335 161.213 270.352 161.089 270.393 160.971C270.434 160.853 270.497 160.745 270.58 160.652C270.663 160.559 270.763 160.483 270.875 160.429C270.987 160.374 271.109 160.342 271.233 160.335C271.357 160.328 271.482 160.345 271.6 160.386C271.717 160.426 271.826 160.49 271.919 160.572C271.984 160.629 278.484 166.276 285.802 164.096C293.086 161.926 295.084 152.682 295.104 152.589C295.157 152.345 295.304 152.132 295.513 151.996C295.723 151.86 295.977 151.812 296.222 151.862C296.466 151.913 296.681 152.057 296.82 152.265C296.958 152.472 297.009 152.726 296.962 152.971C296.511 154.886 295.804 156.732 294.861 158.458C292.779 162.296 289.835 164.874 286.344 165.913C285.026 166.306 283.659 166.504 282.284 166.503Z" fill="white"/>
<path d="M61.1106 223.144C58.1873 228.744 57.4498 231.72 48.5823 237.276C48.5135 237.321 48.4618 237.388 48.4359 237.466C47.0192 241.855 44.6211 245.865 41.4234 249.191C41.3803 249.235 41.35 249.29 41.3357 249.35C41.3214 249.41 41.3236 249.473 41.342 249.532C42.3345 252.834 43.4087 258.786 40.42 263.664C36.027 270.847 32.7733 266.51 33.4509 264.884C34.0312 263.491 38.9883 260.499 37.8439 253.023C37.8343 252.964 37.8094 252.907 37.7717 252.86C37.734 252.812 37.6847 252.775 37.6286 252.753C37.5725 252.73 37.5114 252.722 37.4513 252.729C37.3912 252.737 37.334 252.76 37.2853 252.796C33.6922 255.402 29.5683 257.185 25.2072 258.016C25.1588 258.024 25.1126 258.042 25.0717 258.069C25.0309 258.096 24.9962 258.132 24.97 258.173C24.9439 258.215 24.9269 258.262 24.9201 258.31C24.9132 258.359 24.9168 258.408 24.9306 258.455C26.0425 262.434 26.5685 268.652 21.926 274.371C19.4475 277.352 16.1608 272.994 19.4475 270.024C21.4867 268.186 21.3294 262.901 20.3749 258.83C20.3567 258.751 20.3115 258.68 20.2472 258.631C20.1829 258.581 20.1034 258.556 20.0223 258.559C19.8326 258.564 19.6372 258.564 19.4475 258.564C12.7392 258.574 6.21736 256.358 0.904659 252.264C0.856058 252.226 0.798409 252.202 0.737384 252.193C0.676358 252.184 0.614056 252.191 0.556602 252.213C0.499149 252.236 0.448524 252.273 0.409704 252.321C0.370885 252.369 0.345209 252.426 0.335198 252.487C-0.939375 260.9 4.12097 263.811 4.84205 265.968C5.64476 268.38 3.80073 270.527 1.52833 269.92C1.47906 269.905 1.43305 269.881 1.39277 269.849C-6.01569 264.288 -5.37032 252.633 -4.55681 247.023C-4.54937 246.977 -4.55181 246.93 -4.56398 246.885C-4.57614 246.84 -4.59775 246.798 -4.62736 246.762C-8.77031 241.434 -11.0132 234.874 -10.9999 228.126C-10.9999 215.75 -3.60773 205.098 7.00604 200.344C7.00676 200.344 7.00747 200.344 7.00814 200.344C7.0088 200.343 7.00941 200.343 7.00992 200.342C7.01043 200.342 7.01083 200.341 7.0111 200.341C7.01137 200.34 7.01151 200.339 7.01149 200.339C8.64388 198.273 10.6344 195.351 10.9382 193.302C10.9482 193.233 10.9787 193.168 11.0258 193.116C11.0728 193.064 11.1344 193.027 11.2025 193.01C11.2706 192.993 11.3422 192.997 11.4081 193.021C11.4741 193.045 11.5313 193.088 11.5726 193.145C12.3537 194.197 13.5631 196.202 13.2974 198.317C13.2865 198.387 13.2811 198.457 13.2702 198.528C13.2485 198.647 13.2215 198.761 13.1943 198.88C13.1672 198.972 13.1455 199.065 13.113 199.157C13.4923 198.84 13.8542 198.504 14.1971 198.148C14.9943 197.33 16.0031 196.099 16.437 194.782C16.4576 194.712 16.4994 194.65 16.5567 194.604C16.614 194.559 16.6841 194.532 16.7572 194.528C16.8304 194.524 16.903 194.542 16.9651 194.581C17.0272 194.62 17.0757 194.677 17.104 194.745C17.3858 195.439 17.7169 196.409 17.8307 197.401C17.8405 197.49 17.8832 197.572 17.9504 197.631C18.0177 197.69 18.1045 197.722 18.1941 197.721C18.6117 197.704 19.0293 197.694 19.4469 197.694C36.2651 197.694 49.8998 211.321 49.8998 228.126C49.8998 228.511 49.8943 228.89 49.878 229.27C49.8756 229.328 49.8874 229.385 49.9123 229.438C49.9372 229.49 49.9745 229.535 50.021 229.57C50.0674 229.605 50.1217 229.628 50.179 229.637C50.2363 229.646 50.2949 229.641 50.3498 229.622C52.1613 228.988 54.4446 227.459 55.8221 223.822C58.3983 217.046 58.6695 215.149 57.856 209.863C57.0425 204.578 60.9748 204.849 61.7879 206.611C62.6011 208.372 64.3644 216.91 61.1106 223.144Z" fill="#B1C9F9"/>
<path d="M7.55293 230.795C7.44921 230.795 7.34845 230.76 7.26635 230.697C7.18426 230.634 7.12545 230.545 7.09911 230.445C6.8946 229.552 6.85067 228.63 6.96937 227.722C7.23645 225.748 8.31112 224.297 10.0773 223.526C11.2314 223.022 12.3224 222.993 13.3199 223.44C15.3643 224.356 16.2347 226.952 16.2707 227.063C16.3057 227.18 16.2935 227.306 16.2367 227.414C16.1799 227.523 16.0831 227.605 15.9668 227.643C15.8505 227.681 15.7239 227.672 15.614 227.618C15.504 227.564 15.4195 227.47 15.3783 227.355C15.3709 227.332 14.5967 225.038 12.9329 224.295C12.1879 223.963 11.3538 223.993 10.4536 224.386C8.99218 225.025 8.13451 226.18 7.90455 227.82C7.79949 228.615 7.83465 229.424 8.00844 230.207C8.03971 230.328 8.02186 230.456 7.95881 230.563C7.89576 230.671 7.79266 230.749 7.67214 230.78C7.63318 230.79 7.59313 230.795 7.55293 230.795Z" fill="white"/>
<path d="M21.712 226.495C21.6136 226.495 21.5177 226.464 21.4378 226.406C21.358 226.349 21.2982 226.268 21.2669 226.175C21.0048 225.301 20.9011 224.387 20.9607 223.477C21.0992 221.498 22.0777 219.986 23.7903 219.106C24.9116 218.529 26 218.43 27.0259 218.812C29.1208 219.591 30.1562 222.109 30.1992 222.216C30.2444 222.331 30.2422 222.46 30.1932 222.573C30.1441 222.687 30.0522 222.777 29.9374 222.823C29.8226 222.869 29.6941 222.868 29.58 222.82C29.4659 222.772 29.3753 222.681 29.3279 222.567C29.3185 222.545 28.3999 220.322 26.6947 219.69C25.9278 219.406 25.0954 219.49 24.2203 219.941C22.8036 220.669 22.023 221.871 21.9 223.514C21.8469 224.311 21.9343 225.111 22.1582 225.878C22.1815 225.948 22.1878 226.023 22.1764 226.097C22.1651 226.17 22.1364 226.24 22.0929 226.3C22.0494 226.36 21.9922 226.409 21.926 226.443C21.8598 226.477 21.7866 226.495 21.7122 226.495H21.712Z" fill="white"/>
<path d="M20.5168 236.317C17.32 236.317 14.8824 234.19 14.7604 234.082C14.7143 234.041 14.6766 233.991 14.6497 233.936C14.6228 233.88 14.607 233.82 14.6034 233.759C14.5997 233.697 14.6082 233.635 14.6284 233.577C14.6486 233.519 14.6801 233.465 14.721 233.419C14.762 233.373 14.8116 233.335 14.8671 233.308C14.9226 233.282 14.9828 233.266 15.0444 233.262C15.106 233.258 15.1677 233.267 15.226 233.287C15.2843 233.307 15.338 233.339 15.3841 233.38C15.4162 233.408 18.6351 236.204 22.2593 235.125C25.8666 234.05 26.8559 229.472 26.8656 229.426C26.8919 229.305 26.9648 229.2 27.0684 229.133C27.1721 229.065 27.2981 229.041 27.4192 229.066C27.5403 229.091 27.6467 229.163 27.7153 229.266C27.7839 229.368 27.8091 229.494 27.7856 229.615C27.5623 230.564 27.2125 231.478 26.7456 232.333C25.7143 234.233 24.2562 235.51 22.5277 236.024C21.8751 236.219 21.1978 236.317 20.5168 236.317Z" fill="white"/>
<g filter="url(#filter2_d_1959_3500)">
<path d="M486.741 124.307C486.659 126.366 486.45 128.417 486.114 130.449C481.541 158.407 455.171 177.358 427.2 172.787C399.239 168.219 380.268 141.86 384.841 113.902C385.133 112.12 385.518 110.376 385.973 108.674C365.228 94.5928 366.44 67.4388 370.417 64.4283C374.433 61.3799 378.818 63.9486 378.36 72.3811C377.888 84.6268 385.431 94.7539 389.615 99.165C399.41 79.6469 421.058 67.8553 443.755 71.5639C465.782 75.1627 482.214 92.2778 485.977 113.035C490.083 111.543 497.334 107.237 503.209 94.9982C504.03 92.5589 504.256 90.7659 504.3 89.6859C504.329 88.6771 504.723 87.7131 505.409 86.9724C506.694 85.6294 508.969 84.2042 511.907 86.3926C512.575 86.8919 513.114 87.5441 513.478 88.2944C513.842 89.0448 514.02 89.8714 513.998 90.705C513.814 97.3196 508.519 113.413 486.741 124.307Z" fill="#00B6FF"/>
</g>
<path d="M456.225 133.373C454.93 141.292 444.035 146.1 431.897 144.117C419.748 142.132 410.952 134.106 412.247 126.188C412.493 124.713 413.07 123.313 413.933 122.093C414.169 121.762 414.523 121.535 414.922 121.457C415.32 121.379 415.734 121.458 416.077 121.675C420.425 124.397 427.309 126.797 435.25 128.094C442.559 129.289 449.323 129.306 454.245 128.373C454.646 128.296 455.061 128.377 455.404 128.597C455.747 128.818 455.992 129.162 456.089 129.558C456.385 130.809 456.431 132.105 456.225 133.373Z" fill="white"/>
<path d="M433.195 117.665C433.057 117.665 432.921 117.635 432.796 117.578C432.671 117.52 432.56 117.436 432.471 117.331C432.382 117.227 432.316 117.104 432.28 116.971C432.243 116.839 432.235 116.7 432.257 116.564C432.576 114.617 432.107 112.624 430.955 111.023C429.803 109.421 428.062 108.343 426.114 108.025C424.167 107.707 422.173 108.175 420.571 109.326C418.968 110.478 417.889 112.218 417.571 114.165C417.53 114.413 417.393 114.635 417.189 114.781C416.984 114.928 416.73 114.988 416.482 114.947C416.234 114.907 416.012 114.769 415.865 114.565C415.718 114.361 415.658 114.107 415.699 113.859C416.098 111.416 417.453 109.232 419.463 107.787C421.474 106.342 423.977 105.754 426.421 106.154C428.865 106.553 431.05 107.906 432.495 109.916C433.941 111.926 434.529 114.427 434.129 116.87C434.093 117.092 433.979 117.293 433.808 117.439C433.637 117.585 433.419 117.665 433.195 117.665Z" fill="white"/>
<path d="M455.947 121.381C455.809 121.381 455.673 121.351 455.549 121.294C455.424 121.236 455.313 121.152 455.224 121.047C455.135 120.942 455.069 120.82 455.032 120.687C454.995 120.555 454.988 120.416 455.01 120.28C455.32 118.337 454.847 116.35 453.695 114.755C452.543 113.16 450.805 112.085 448.862 111.768C446.92 111.451 444.93 111.916 443.33 113.061C441.729 114.207 440.648 115.94 440.323 117.881C440.304 118.004 440.26 118.122 440.194 118.228C440.129 118.335 440.043 118.427 439.942 118.5C439.841 118.573 439.726 118.625 439.605 118.654C439.483 118.682 439.357 118.687 439.234 118.667C439.111 118.646 438.993 118.602 438.887 118.536C438.781 118.471 438.689 118.385 438.616 118.283C438.543 118.182 438.491 118.067 438.463 117.945C438.435 117.824 438.431 117.698 438.451 117.575C438.858 115.138 440.214 112.962 442.223 111.523C444.232 110.084 446.729 109.5 449.168 109.899C451.607 110.297 453.789 111.646 455.235 113.649C456.681 115.653 457.273 118.147 456.882 120.586C456.845 120.808 456.732 121.01 456.56 121.155C456.389 121.301 456.172 121.381 455.947 121.381Z" fill="white"/>
<g filter="url(#filter3_d_1959_3500)">
<path d="M41.5359 78.3516C40.5664 78.3516 39.7354 78.0107 39.043 77.3288C38.3505 76.647 38.0096 75.8161 38.0202 74.8359C38.0096 73.8771 38.3505 73.0568 39.043 72.375C39.7354 71.6932 40.5664 71.3523 41.5359 71.3523C42.4734 71.3523 43.2884 71.6932 43.9808 72.375C44.6839 73.0568 45.0408 73.8771 45.0515 74.8359C45.0408 75.4858 44.8704 76.0771 44.5401 76.6097C44.2205 77.1424 43.7944 77.5685 43.2617 77.8881C42.7397 78.1971 42.1644 78.3516 41.5359 78.3516ZM54.5876 78.3516C53.6182 78.3516 52.7872 78.0107 52.0947 77.3288C51.4023 76.647 51.0613 75.8161 51.072 74.8359C51.0613 73.8771 51.4023 73.0568 52.0947 72.375C52.7872 71.6932 53.6182 71.3523 54.5876 71.3523C55.5251 71.3523 56.3401 71.6932 57.0326 72.375C57.7357 73.0568 58.0926 73.8771 58.1032 74.8359C58.0926 75.4858 57.9221 76.0771 57.5919 76.6097C57.2723 77.1424 56.8461 77.5685 56.3135 77.8881C55.7915 78.1971 55.2162 78.3516 54.5876 78.3516ZM67.6394 78.3516C66.6699 78.3516 65.839 78.0107 65.1465 77.3288C64.454 76.647 64.1131 75.8161 64.1238 74.8359C64.1131 73.8771 64.454 73.0568 65.1465 72.375C65.839 71.6932 66.6699 71.3523 67.6394 71.3523C68.5769 71.3523 69.3919 71.6932 70.0843 72.375C70.7875 73.0568 71.1444 73.8771 71.155 74.8359C71.1444 75.4858 70.9739 76.0771 70.6436 76.6097C70.324 77.1424 69.8979 77.5685 69.3652 77.8881C68.8432 78.1971 68.2679 78.3516 67.6394 78.3516ZM98.1216 78.225C95.4816 78.225 93.4416 77.955 92.0016 77.415C90.5916 76.845 89.6016 75.975 89.0316 74.805C88.4916 73.605 88.1916 72.075 88.1316 70.215L87.1866 45.375H92.4966L93.4416 67.83C93.5016 69.24 93.6366 70.305 93.8466 71.025C94.0866 71.745 94.5666 72.24 95.2866 72.51C96.0066 72.78 97.1016 72.915 98.5716 72.915C99.5316 72.915 100.222 73.17 100.642 73.68C101.062 74.16 101.272 74.76 101.272 75.48C101.272 76.23 100.987 76.875 100.417 77.415C99.8766 77.955 99.1116 78.225 98.1216 78.225ZM116.104 78.36C114.784 78.36 113.434 78.195 112.054 77.865C110.704 77.535 109.384 77.04 108.094 76.38C106.834 75.72 105.694 74.91 104.674 73.95C103.684 72.99 102.889 71.895 102.289 70.665C101.689 69.405 101.389 68.025 101.389 66.525C101.389 65.175 101.674 63.93 102.244 62.79C102.814 61.65 103.639 60.735 104.719 60.045C105.829 59.325 107.134 58.965 108.634 58.965C110.104 58.965 111.364 59.34 112.414 60.09C113.494 60.81 114.319 61.755 114.889 62.925C115.489 64.065 115.789 65.265 115.789 66.525C115.789 68.415 115.294 70.095 114.304 71.565C113.344 73.005 112.009 74.22 110.299 75.21C108.619 76.2 106.729 76.95 104.629 77.46C102.529 77.97 100.369 78.225 98.1494 78.225L98.5994 72.915C100.279 72.915 101.749 72.84 103.009 72.69C104.299 72.54 105.409 72.3 106.339 71.97C107.449 71.58 108.364 71.055 109.084 70.395C109.804 69.735 110.344 69.03 110.704 68.28C111.064 67.5 111.244 66.765 111.244 66.075C111.244 65.535 111.154 65.025 110.974 64.545C110.794 64.065 110.524 63.675 110.164 63.375C109.804 63.045 109.369 62.88 108.859 62.88C108.319 62.88 107.839 63.045 107.419 63.375C107.029 63.675 106.729 64.08 106.519 64.59C106.309 65.1 106.204 65.64 106.204 66.21C106.204 67.32 106.489 68.325 107.059 69.225C107.659 70.125 108.439 70.89 109.399 71.52C110.389 72.12 111.454 72.585 112.594 72.915C113.734 73.215 114.874 73.365 116.014 73.365C116.974 73.365 117.664 73.215 118.084 72.915C118.534 72.585 118.759 72.105 118.759 71.475C118.759 71.205 118.684 70.875 118.534 70.485C118.414 70.065 118.099 69.54 117.589 68.91C117.109 68.25 116.344 67.44 115.294 66.48C114.244 65.52 112.804 64.35 110.974 62.97C109.174 61.59 106.879 59.94 104.089 58.02L107.014 53.925C110.104 56.115 112.669 58.035 114.709 59.685C116.749 61.335 118.384 62.775 119.614 64.005C120.844 65.235 121.774 66.315 122.404 67.245C123.064 68.175 123.484 69.015 123.664 69.765C123.874 70.485 123.979 71.205 123.979 71.925C123.979 73.185 123.679 74.295 123.079 75.255C122.509 76.215 121.639 76.98 120.469 77.55C119.299 78.09 117.844 78.36 116.104 78.36ZM151.981 88.44C149.971 88.44 148.141 88.2 146.491 87.72C144.841 87.24 143.401 86.52 142.171 85.56C140.941 84.6 139.981 83.43 139.291 82.05C138.631 80.67 138.301 79.065 138.301 77.235C138.301 76.545 138.361 75.75 138.481 74.85C138.601 73.95 138.811 72.96 139.111 71.88C139.441 70.77 139.891 69.57 140.461 68.28L145.141 69.945C144.811 70.845 144.526 71.67 144.286 72.42C144.046 73.17 143.866 73.875 143.746 74.535C143.656 75.195 143.611 75.825 143.611 76.425C143.611 77.745 143.926 78.9 144.556 79.89C145.216 80.91 146.176 81.705 147.436 82.275C148.726 82.845 150.286 83.13 152.116 83.13C154.006 83.13 155.581 82.905 156.841 82.455C158.131 82.035 159.136 81.465 159.856 80.745C160.606 80.025 161.131 79.185 161.431 78.225C161.761 77.295 161.926 76.32 161.926 75.3C161.926 74.28 161.821 73.23 161.611 72.15C161.431 71.04 161.161 69.885 160.801 68.685C160.471 67.485 160.096 66.24 159.676 64.95L164.986 63.555C165.436 65.295 165.766 66.615 165.976 67.515C166.216 68.385 166.411 69.06 166.561 69.54C166.861 70.53 167.221 71.265 167.641 71.745C168.091 72.225 168.601 72.54 169.171 72.69C169.741 72.84 170.386 72.915 171.106 72.915C171.676 72.915 172.201 72.84 172.681 72.69C173.161 72.51 173.596 72.135 173.986 71.565C174.406 70.995 174.766 70.095 175.066 68.865C175.396 67.605 175.696 65.88 175.966 63.69L180.961 64.545C180.871 65.175 180.766 65.88 180.646 66.66C180.526 67.44 180.406 68.19 180.286 68.91C180.196 69.6 180.151 70.17 180.151 70.62C180.151 71.04 180.256 71.43 180.466 71.79C180.706 72.12 181.111 72.39 181.681 72.6C182.281 72.81 183.151 72.915 184.291 72.915C185.701 72.915 186.736 72.615 187.396 72.015C188.056 71.415 188.386 70.5 188.386 69.27C188.386 68.58 188.371 67.845 188.341 67.065C188.311 66.255 188.251 65.37 188.161 64.41C188.101 63.42 187.996 62.295 187.846 61.035L192.661 60.675C192.901 63.315 193.156 65.445 193.426 67.065C193.696 68.685 194.056 69.915 194.506 70.755C194.986 71.595 195.616 72.165 196.396 72.465C197.176 72.765 198.151 72.915 199.321 72.915C200.281 72.915 200.971 73.17 201.391 73.68C201.811 74.16 202.021 74.76 202.021 75.48C202.021 76.23 201.736 76.875 201.166 77.415C200.626 77.955 199.861 78.225 198.871 78.225C197.581 78.225 196.381 78.03 195.271 77.64C194.191 77.25 193.261 76.635 192.481 75.795C191.731 74.955 191.176 73.875 190.816 72.555L192.166 72.825C191.806 74.325 191.206 75.465 190.366 76.245C189.526 77.025 188.566 77.55 187.486 77.82C186.436 78.09 185.341 78.225 184.201 78.225C182.791 78.225 181.561 78.03 180.511 77.64C179.491 77.22 178.681 76.62 178.081 75.84C177.511 75.06 177.211 74.1 177.181 72.96H178.711C178.231 74.4 177.631 75.495 176.911 76.245C176.221 76.995 175.411 77.52 174.481 77.82C173.581 78.09 172.606 78.225 171.556 78.225C170.716 78.225 169.936 78.135 169.216 77.955C168.526 77.745 167.911 77.46 167.371 77.1C166.861 76.74 166.426 76.275 166.066 75.705C165.736 75.135 165.496 74.49 165.346 73.77L167.101 75.75C167.011 77.58 166.636 79.26 165.976 80.79C165.316 82.35 164.371 83.7 163.141 84.84C161.911 85.98 160.366 86.865 158.506 87.495C156.646 88.125 154.471 88.44 151.981 88.44ZM175.921 51.54C175.231 51.54 174.631 51.285 174.121 50.775C173.611 50.235 173.356 49.62 173.356 48.93C173.356 48.21 173.611 47.595 174.121 47.085C174.631 46.575 175.231 46.32 175.921 46.32C176.641 46.32 177.241 46.575 177.721 47.085C178.231 47.595 178.486 48.21 178.486 48.93C178.486 49.62 178.231 50.235 177.721 50.775C177.241 51.285 176.641 51.54 175.921 51.54ZM172.546 57.12C171.826 57.12 171.211 56.865 170.701 56.355C170.191 55.815 169.936 55.185 169.936 54.465C169.936 53.775 170.191 53.175 170.701 52.665C171.211 52.155 171.826 51.9 172.546 51.9C173.236 51.9 173.836 52.155 174.346 52.665C174.856 53.175 175.111 53.775 175.111 54.465C175.111 55.185 174.856 55.815 174.346 56.355C173.836 56.865 173.236 57.12 172.546 57.12ZM179.161 57.12C178.471 57.12 177.871 56.865 177.361 56.355C176.851 55.815 176.596 55.185 176.596 54.465C176.596 53.775 176.851 53.175 177.361 52.665C177.871 52.155 178.471 51.9 179.161 51.9C179.881 51.9 180.496 52.155 181.006 52.665C181.516 53.175 181.771 53.775 181.771 54.465C181.771 55.185 181.516 55.815 181.006 56.355C180.496 56.865 179.881 57.12 179.161 57.12ZM198.916 78.225L199.366 72.915C200.866 72.915 201.931 72.765 202.561 72.465C203.191 72.165 203.566 71.61 203.686 70.8C203.806 69.99 203.836 68.82 203.776 67.29L202.921 45.375H208.276L209.176 67.425C209.236 69.105 209.161 70.62 208.951 71.97C208.771 73.29 208.336 74.415 207.646 75.345C206.956 76.275 205.906 76.995 204.496 77.505C203.116 77.985 201.256 78.225 198.916 78.225ZM225.475 78.225C222.835 78.225 220.795 77.955 219.355 77.415C217.945 76.845 216.955 75.975 216.385 74.805C215.845 73.605 215.545 72.075 215.485 70.215L214.54 45.375H219.85L220.795 67.83C220.855 69.24 220.99 70.305 221.2 71.025C221.44 71.745 221.92 72.24 222.64 72.51C223.36 72.78 224.455 72.915 225.925 72.915C226.885 72.915 227.575 73.17 227.995 73.68C228.415 74.16 228.625 74.76 228.625 75.48C228.625 76.23 228.34 76.875 227.77 77.415C227.23 77.955 226.465 78.225 225.475 78.225ZM225.503 78.225L225.953 72.915C227.543 72.915 229.118 72.81 230.678 72.6C232.238 72.39 233.753 72.09 235.223 71.7C236.693 71.31 238.103 70.815 239.453 70.215C240.803 69.615 242.078 68.91 243.278 68.1C242.438 67.5 241.493 66.99 240.443 66.57C239.423 66.12 238.313 65.79 237.113 65.58C235.913 65.34 234.638 65.22 233.288 65.22C232.808 65.22 232.328 65.235 231.848 65.265C231.368 65.295 230.873 65.355 230.363 65.445C229.883 65.505 229.373 65.595 228.833 65.715L228.023 60.585C228.863 60.345 229.733 60.165 230.633 60.045C231.563 59.925 232.403 59.865 233.153 59.865C234.743 59.865 236.198 60.045 237.518 60.405C238.838 60.765 240.053 61.215 241.163 61.755C242.273 62.295 243.308 62.835 244.268 63.375C245.258 63.915 246.203 64.38 247.103 64.77C248.003 65.13 248.903 65.31 249.803 65.31H251.198L251.738 70.26C250.448 70.29 249.248 70.515 248.138 70.935C247.028 71.325 245.933 71.835 244.853 72.465C243.803 73.065 242.678 73.695 241.478 74.355C240.278 75.015 238.928 75.645 237.428 76.245C235.928 76.815 234.203 77.295 232.253 77.685C230.303 78.045 228.053 78.225 225.503 78.225ZM238.508 92.58C237.818 92.58 237.233 92.34 236.753 91.86C236.273 91.38 236.033 90.795 236.033 90.105C236.033 89.415 236.273 88.815 236.753 88.305C237.233 87.825 237.818 87.585 238.508 87.585C239.198 87.585 239.783 87.825 240.263 88.305C240.743 88.815 240.983 89.415 240.983 90.105C240.983 90.795 240.743 91.38 240.263 91.86C239.783 92.34 239.198 92.58 238.508 92.58ZM241.793 87.09C241.103 87.09 240.518 86.85 240.038 86.37C239.588 85.89 239.363 85.305 239.363 84.615C239.363 83.925 239.588 83.325 240.038 82.815C240.518 82.335 241.103 82.095 241.793 82.095C242.483 82.095 243.068 82.335 243.548 82.815C244.028 83.325 244.268 83.925 244.268 84.615C244.268 85.305 244.028 85.89 243.548 86.37C243.068 86.85 242.483 87.09 241.793 87.09ZM235.313 87.09C234.623 87.09 234.023 86.85 233.513 86.37C233.033 85.89 232.793 85.305 232.793 84.615C232.793 83.925 233.033 83.325 233.513 82.815C234.023 82.335 234.623 82.095 235.313 82.095C235.973 82.095 236.543 82.335 237.023 82.815C237.533 83.325 237.788 83.925 237.788 84.615C237.788 85.305 237.533 85.89 237.023 86.37C236.543 86.85 235.973 87.09 235.313 87.09Z" fill="#143A62"/>
</g>
</g>
</g>
<defs>
<filter id="filter0_d_1959_3500" x="0" y="0" width="517" height="257" filterUnits="userSpaceOnUse" color-interpolation-filters="sRGB">
<feFlood flood-opacity="0" result="BackgroundImageFix"/>
<feColorMatrix in="SourceAlpha" type="matrix" values="0 0 0 0 0 0 0 0 0 0 0 0 0 0 0 0 0 0 127 0" result="hardAlpha"/>
<feOffset dx="1" dy="1"/>
<feGaussianBlur stdDeviation="3"/>
<feComposite in2="hardAlpha" operator="out"/>
<feColorMatrix type="matrix" values="0 0 0 0 0 0 0 0 0 0 0 0 0 0 0 0 0 0 0.2 0"/>
<feBlend mode="normal" in2="BackgroundImageFix" result="effect1_dropShadow_1959_3500"/>
<feBlend mode="normal" in="SourceGraphic" in2="effect1_dropShadow_1959_3500" result="shape"/>
</filter>
<filter id="filter1_d_1959_3500" x="211.642" y="78.0322" width="157.43" height="174.331" filterUnits="userSpaceOnUse" color-interpolation-filters="sRGB">
<feFlood flood-opacity="0" result="BackgroundImageFix"/>
<feColorMatrix in="SourceAlpha" type="matrix" values="0 0 0 0 0 0 0 0 0 0 0 0 0 0 0 0 0 0 127 0" result="hardAlpha"/>
<feOffset dx="-3" dy="3"/>
<feGaussianBlur stdDeviation="2"/>
<feComposite in2="hardAlpha" operator="out"/>
<feColorMatrix type="matrix" values="0 0 0 0 0 0 0 0 0 0 0 0 0 0 0 0 0 0 0.2 0"/>
<feBlend mode="normal" in2="BackgroundImageFix" result="effect1_dropShadow_1959_3500"/>
<feBlend mode="normal" in="SourceGraphic" in2="effect1_dropShadow_1959_3500" result="shape"/>
</filter>
<filter id="filter2_d_1959_3500" x="362.072" y="61.1924" width="153.928" height="118.275" filterUnits="userSpaceOnUse" color-interpolation-filters="sRGB">
<feFlood flood-opacity="0" result="BackgroundImageFix"/>
<feColorMatrix in="SourceAlpha" type="matrix" values="0 0 0 0 0 0 0 0 0 0 0 0 0 0 0 0 0 0 127 0" result="hardAlpha"/>
<feOffset dx="-2" dy="2"/>
<feGaussianBlur stdDeviation="2"/>
<feComposite in2="hardAlpha" operator="out"/>
<feColorMatrix type="matrix" values="0 0 0 0 0 0 0 0 0 0 0 0 0 0 0 0 0 0 0.25 0"/>
<feBlend mode="normal" in2="BackgroundImageFix" result="effect1_dropShadow_1959_3500"/>
<feBlend mode="normal" in="SourceGraphic" in2="effect1_dropShadow_1959_3500" result="shape"/>
</filter>
<filter id="filter3_d_1959_3500" x="36.0039" y="44.375" width="221.734" height="55.2051" filterUnits="userSpaceOnUse" color-interpolation-filters="sRGB">
<feFlood flood-opacity="0" result="BackgroundImageFix"/>
<feColorMatrix in="SourceAlpha" type="matrix" values="0 0 0 0 0 0 0 0 0 0 0 0 0 0 0 0 0 0 127 0" result="hardAlpha"/>
<feOffset dx="2" dy="3"/>
<feGaussianBlur stdDeviation="2"/>
<feComposite in2="hardAlpha" operator="out"/>
<feColorMatrix type="matrix" values="0 0 0 0 0 0 0 0 0 0 0 0 0 0 0 0 0 0 0.25 0"/>
<feBlend mode="normal" in2="BackgroundImageFix" result="effect1_dropShadow_1959_3500"/>
<feBlend mode="normal" in="SourceGraphic" in2="effect1_dropShadow_1959_3500" result="shape"/>
</filter>
<clipPath id="clip0_1959_3500">
<rect x="5" y="5" width="505" height="245" rx="20" fill="white"/>
</clipPath>
</defs>
</svg>
