<svg width="176" height="176" viewBox="0 0 176 176" fill="none" xmlns="http://www.w3.org/2000/svg">
<g clip-path="url(#clip0_3149_2694)">
<rect width="176" height="176" rx="10" fill="#143A62" fill-opacity="0.05"/>
<path d="M160.116 21.3895C160.116 21.3895 142.159 62.2316 94.6719 52.8754C47.1847 43.5192 18.5738 109.344 63.4689 133.345C108.364 157.346 77.2505 184.918 107.192 199.001C141.224 215.008 153.914 161.484 178.985 166.455C234.318 177.427 268.545 158.61 253.411 133.289C226.844 88.8402 207.554 90.4766 215.393 61.7727C223.232 33.0689 178.962 -10.9963 160.116 21.3895Z" fill="#DEE9FF"/>
<g filter="url(#filter0_d_3149_2694)">
<path d="M90.0596 112.74C87.0572 118.451 86.2998 121.486 77.1927 127.152C77.1219 127.198 77.0689 127.266 77.0423 127.346C75.5873 131.822 73.1244 135.911 69.8402 139.303C69.796 139.348 69.7649 139.404 69.7502 139.465C69.7355 139.527 69.7377 139.591 69.7567 139.651C70.776 143.018 71.8792 149.088 68.8097 154.063C64.298 161.388 60.9564 156.965 61.6523 155.307C62.2482 153.886 67.3393 150.834 66.164 143.211C66.1541 143.15 66.1286 143.093 66.0899 143.044C66.0511 142.996 66.0005 142.958 65.9429 142.935C65.8853 142.912 65.8225 142.903 65.7608 142.911C65.699 142.919 65.6403 142.942 65.5903 142.979C61.9001 145.637 57.6647 147.455 53.1858 148.303C53.1361 148.311 53.0887 148.329 53.0467 148.357C53.0047 148.385 52.9691 148.421 52.9422 148.463C52.9154 148.506 52.8979 148.553 52.8909 148.603C52.8839 148.652 52.8876 148.703 52.9017 148.751C54.0436 152.808 54.5839 159.149 49.8159 164.981C47.2704 168.021 43.8949 163.577 47.2704 160.548C49.3647 158.674 49.2032 153.284 48.2229 149.132C48.2041 149.052 48.1578 148.98 48.0917 148.93C48.0257 148.879 47.944 148.853 47.8608 148.856C47.6659 148.861 47.4652 148.861 47.2704 148.861C40.3808 148.872 33.6827 146.612 28.2264 142.437C28.1765 142.398 28.1173 142.373 28.0546 142.364C27.9919 142.355 27.9279 142.362 27.8689 142.385C27.8099 142.408 27.7579 142.446 27.7181 142.495C27.6782 142.543 27.6518 142.602 27.6416 142.664C26.3325 151.243 31.5296 154.212 32.2702 156.412C33.0946 158.872 31.2007 161.061 28.8669 160.442C28.8163 160.427 28.7691 160.403 28.7277 160.37C21.119 154.698 21.7818 142.813 22.6173 137.092C22.625 137.045 22.6225 136.997 22.61 136.951C22.5975 136.905 22.5753 136.863 22.5449 136.826C18.2899 131.392 15.9864 124.703 16.0001 117.821C16.0001 105.2 23.5921 94.3373 34.4927 89.4892C34.4934 89.4893 34.4942 89.4891 34.4948 89.4889C34.4955 89.4886 34.4962 89.4882 34.4967 89.4877C34.4972 89.4872 34.4976 89.4866 34.4979 89.4859C34.4982 89.4852 34.4983 89.4845 34.4983 89.4838C36.1748 87.3772 38.2191 84.3979 38.5311 82.3083C38.5414 82.2375 38.5727 82.1714 38.621 82.1184C38.6694 82.0653 38.7326 82.0278 38.8025 82.0106C38.8725 81.9934 38.946 81.9972 39.0137 82.0217C39.0815 82.0462 39.1403 82.0901 39.1827 82.148C39.9848 83.2204 41.227 85.2658 40.9541 87.4218C40.9429 87.4936 40.9374 87.5654 40.9262 87.6373C40.9039 87.759 40.8761 87.875 40.8482 87.9967C40.8203 88.0907 40.7981 88.1846 40.7647 88.2786C41.1542 87.956 41.5259 87.6128 41.8781 87.2504C42.6969 86.4157 43.7329 85.1608 44.1786 83.8175C44.1997 83.7458 44.2426 83.6824 44.3015 83.6359C44.3604 83.5895 44.4323 83.5623 44.5074 83.5581C44.5825 83.5539 44.6571 83.5729 44.7209 83.6125C44.7847 83.6521 44.8345 83.7103 44.8636 83.7792C45.153 84.4868 45.493 85.4763 45.6099 86.4879C45.62 86.5786 45.6639 86.6624 45.7329 86.7227C45.8019 86.783 45.8911 86.8156 45.9831 86.814C46.412 86.7975 46.8409 86.7865 47.2698 86.7865C64.5425 86.7865 78.5457 100.684 78.5457 117.821C78.5457 118.214 78.5401 118.601 78.5233 118.987C78.5209 119.047 78.533 119.105 78.5585 119.159C78.5841 119.212 78.6225 119.258 78.6702 119.294C78.7179 119.329 78.7736 119.353 78.8325 119.362C78.8913 119.371 78.9515 119.366 79.0079 119.347C80.8683 118.7 83.2133 117.141 84.6281 113.432C87.2739 106.522 87.5525 104.587 86.7169 99.1969C85.8814 93.807 89.92 94.0838 90.7552 95.8801C91.5903 97.6764 93.4013 106.383 90.0596 112.74Z" fill="#143A62"/>
</g>
<path d="M35.0539 120.542C34.9473 120.542 34.8438 120.507 34.7595 120.442C34.6752 120.378 34.6148 120.287 34.5878 120.185C34.3777 119.275 34.3326 118.334 34.4545 117.408C34.7288 115.395 35.8325 113.916 37.6464 113.13C38.8318 112.616 39.9523 112.586 40.9767 113.042C43.0763 113.976 43.9702 116.624 44.0073 116.736C44.0432 116.856 44.0306 116.984 43.9723 117.095C43.914 117.206 43.8146 117.289 43.6951 117.328C43.5756 117.367 43.4456 117.358 43.3327 117.303C43.2199 117.248 43.133 117.152 43.0907 117.034C43.0831 117.011 42.288 114.672 40.5792 113.914C39.8141 113.575 38.9575 113.606 38.0329 114.007C36.532 114.658 35.6512 115.836 35.415 117.508C35.3071 118.32 35.3432 119.144 35.5217 119.943C35.5538 120.066 35.5355 120.197 35.4707 120.306C35.406 120.416 35.3001 120.495 35.1763 120.527C35.1363 120.537 35.0951 120.542 35.0539 120.542Z" fill="white"/>
<path d="M49.5951 116.157C49.494 116.157 49.3955 116.126 49.3135 116.067C49.2315 116.008 49.1701 115.926 49.138 115.831C48.8687 114.94 48.7622 114.008 48.8234 113.08C48.9657 111.062 49.9707 109.52 51.7296 108.622C52.8811 108.034 53.9989 107.932 55.0526 108.322C57.2041 109.117 58.2674 111.685 58.3116 111.794C58.358 111.911 58.3558 112.042 58.3054 112.158C58.2551 112.274 58.1607 112.365 58.0428 112.413C57.9248 112.46 57.7929 112.459 57.6757 112.41C57.5585 112.361 57.4654 112.268 57.4168 112.152C57.4071 112.129 56.4637 109.862 54.7124 109.218C53.9247 108.928 53.0699 109.014 52.1712 109.473C50.7162 110.216 49.9144 111.442 49.7881 113.118C49.7336 113.93 49.8234 114.746 50.0533 115.528C50.0773 115.6 50.0837 115.676 50.072 115.751C50.0603 115.826 50.031 115.897 49.9863 115.959C49.9416 116.02 49.8828 116.07 49.8148 116.105C49.7469 116.139 49.6716 116.157 49.5953 116.157H49.5951Z" fill="white"/>
<path d="M48.3681 126.173C45.0848 126.173 42.5814 124.004 42.4561 123.894C42.4087 123.852 42.3701 123.802 42.3424 123.745C42.3147 123.689 42.2985 123.627 42.2948 123.565C42.291 123.502 42.2998 123.439 42.3205 123.379C42.3412 123.32 42.3736 123.265 42.4156 123.218C42.4577 123.171 42.5087 123.133 42.5657 123.105C42.6227 123.078 42.6845 123.062 42.7478 123.058C42.811 123.055 42.8744 123.063 42.9342 123.084C42.9941 123.104 43.0493 123.136 43.0967 123.178C43.1296 123.207 46.4355 126.059 50.1577 124.958C53.8624 123.862 54.8785 119.193 54.8884 119.146C54.9154 119.023 54.9903 118.916 55.0967 118.847C55.2032 118.778 55.3326 118.754 55.457 118.779C55.5814 118.805 55.6906 118.878 55.7611 118.983C55.8315 119.088 55.8575 119.216 55.8333 119.339C55.6039 120.306 55.2447 121.238 54.7652 122.111C53.7061 124.048 52.2085 125.35 50.4333 125.875C49.7631 126.073 49.0674 126.174 48.3681 126.173Z" fill="white"/>
<g filter="url(#filter1_d_3149_2694)">
<path d="M152.177 105.035C152.135 106.081 152.029 107.122 151.859 108.155C149.54 122.352 136.168 131.976 121.983 129.655C107.805 127.335 98.1844 113.949 100.503 99.7515C100.651 98.8464 100.847 97.9606 101.078 97.0967C90.5577 89.9458 91.1722 76.1564 93.1888 74.6276C95.2255 73.0796 97.4491 74.384 97.2168 78.6662C96.9777 84.8848 100.803 90.0276 102.924 92.2677C107.891 82.356 118.869 76.3679 130.379 78.2512C141.549 80.0788 149.881 88.7702 151.79 99.3111C153.872 98.5534 157.549 96.3669 160.528 90.1516C160.944 88.913 161.059 88.0024 161.081 87.454C161.096 86.9417 161.296 86.4521 161.644 86.076C162.295 85.394 163.449 84.6702 164.939 85.7815C165.277 86.0351 165.551 86.3663 165.735 86.7473C165.92 87.1284 166.01 87.5482 165.999 87.9715C165.906 91.3305 163.22 99.5032 152.177 105.035Z" fill="#00B6FF"/>
</g>
<path d="M136.701 109.639C136.044 113.66 130.519 116.101 124.364 115.094C118.203 114.086 113.742 110.011 114.399 105.99C114.524 105.241 114.816 104.53 115.254 103.91C115.374 103.742 115.553 103.627 115.756 103.587C115.958 103.548 116.167 103.587 116.341 103.698C118.547 105.08 122.037 106.299 126.064 106.958C129.771 107.564 133.2 107.573 135.696 107.099C135.9 107.06 136.11 107.101 136.284 107.213C136.458 107.325 136.583 107.5 136.631 107.701C136.782 108.336 136.805 108.994 136.701 109.639Z" fill="white"/>
<path d="M125.024 101.662C124.954 101.662 124.885 101.647 124.822 101.618C124.758 101.588 124.702 101.546 124.657 101.492C124.612 101.439 124.579 101.377 124.56 101.309C124.541 101.242 124.537 101.172 124.549 101.103C124.71 100.114 124.472 99.102 123.888 98.2887C123.304 97.4755 122.421 96.9279 121.434 96.7663C120.446 96.6047 119.435 96.8424 118.622 97.4271C117.81 98.0119 117.263 98.8957 117.101 99.8842C117.081 100.01 117.011 100.123 116.907 100.197C116.804 100.272 116.675 100.302 116.549 100.282C116.423 100.261 116.31 100.191 116.236 100.088C116.161 99.9839 116.131 99.8548 116.152 99.7288C116.354 98.4883 117.041 97.3791 118.061 96.6453C119.08 95.9115 120.349 95.6132 121.589 95.816C122.828 96.0188 123.936 96.7061 124.669 97.7266C125.402 98.7472 125.7 100.017 125.498 101.258C125.479 101.371 125.422 101.473 125.335 101.547C125.248 101.621 125.138 101.662 125.024 101.662Z" fill="white"/>
<path d="M136.561 103.548C136.491 103.548 136.422 103.532 136.359 103.503C136.296 103.474 136.24 103.431 136.194 103.378C136.149 103.325 136.116 103.262 136.097 103.195C136.079 103.128 136.075 103.057 136.086 102.988C136.243 102.002 136.004 100.993 135.419 100.183C134.835 99.3723 133.954 98.8269 132.969 98.6657C131.983 98.5045 130.975 98.7407 130.163 99.3225C129.351 99.9044 128.803 100.784 128.639 101.77C128.629 101.832 128.606 101.892 128.573 101.946C128.54 102 128.496 102.047 128.445 102.084C128.394 102.121 128.336 102.148 128.274 102.162C128.212 102.177 128.148 102.179 128.086 102.169C128.024 102.159 127.964 102.136 127.91 102.103C127.856 102.069 127.809 102.026 127.773 101.974C127.736 101.923 127.709 101.864 127.695 101.803C127.681 101.741 127.679 101.677 127.689 101.615C127.895 100.377 128.583 99.2721 129.602 98.5414C130.62 97.8107 131.887 97.514 133.124 97.7164C134.361 97.9188 135.467 98.6037 136.2 99.621C136.933 100.638 137.234 101.905 137.035 103.144C137.017 103.256 136.959 103.359 136.872 103.433C136.785 103.507 136.675 103.547 136.561 103.548Z" fill="white"/>
<path d="M57.1009 39.1C55.9276 39.1 55.0209 38.98 54.3809 38.74C53.7543 38.4867 53.3143 38.1 53.0609 37.58C52.8209 37.0467 52.6876 36.3667 52.6609 35.54L52.2409 24.5H54.6009L55.0209 34.48C55.0476 35.1067 55.1076 35.58 55.2009 35.9C55.3076 36.22 55.5209 36.44 55.8409 36.56C56.1609 36.68 56.6476 36.74 57.3009 36.74C57.7276 36.74 58.0343 36.8533 58.2209 37.08C58.4076 37.2933 58.5009 37.56 58.5009 37.88C58.5009 38.2133 58.3743 38.5 58.1209 38.74C57.8809 38.98 57.5409 39.1 57.1009 39.1ZM65.0933 39.16C64.5066 39.16 63.9066 39.0867 63.2933 38.94C62.6933 38.7933 62.1066 38.5733 61.5333 38.28C60.9733 37.9867 60.4666 37.6267 60.0133 37.2C59.5733 36.7733 59.2199 36.2867 58.9533 35.74C58.6866 35.18 58.5533 34.5667 58.5533 33.9C58.5533 33.3 58.6799 32.7467 58.9333 32.24C59.1866 31.7333 59.5533 31.3267 60.0333 31.02C60.5266 30.7 61.1066 30.54 61.7733 30.54C62.4266 30.54 62.9866 30.7067 63.4533 31.04C63.9333 31.36 64.2999 31.78 64.5533 32.3C64.8199 32.8067 64.9533 33.34 64.9533 33.9C64.9533 34.74 64.7333 35.4867 64.2933 36.14C63.8666 36.78 63.2733 37.32 62.5133 37.76C61.7666 38.2 60.9266 38.5333 59.9933 38.76C59.0599 38.9867 58.0999 39.1 57.1133 39.1L57.3133 36.74C58.0599 36.74 58.7133 36.7067 59.2733 36.64C59.8466 36.5733 60.3399 36.4667 60.7533 36.32C61.2466 36.1467 61.6533 35.9133 61.9733 35.62C62.2933 35.3267 62.5333 35.0133 62.6933 34.68C62.8533 34.3333 62.9333 34.0067 62.9333 33.7C62.9333 33.46 62.8933 33.2333 62.8133 33.02C62.7333 32.8067 62.6133 32.6333 62.4533 32.5C62.2933 32.3533 62.0999 32.28 61.8733 32.28C61.6333 32.28 61.4199 32.3533 61.2333 32.5C61.0599 32.6333 60.9266 32.8133 60.8333 33.04C60.7399 33.2667 60.6933 33.5067 60.6933 33.76C60.6933 34.2533 60.8199 34.7 61.0733 35.1C61.3399 35.5 61.6866 35.84 62.1133 36.12C62.5533 36.3867 63.0266 36.5933 63.5333 36.74C64.0399 36.8733 64.5466 36.94 65.0533 36.94C65.4799 36.94 65.7866 36.8733 65.9733 36.74C66.1733 36.5933 66.2733 36.38 66.2733 36.1C66.2733 35.98 66.2399 35.8333 66.1733 35.66C66.1199 35.4733 65.9799 35.24 65.7533 34.96C65.5399 34.6667 65.1999 34.3067 64.7333 33.88C64.2666 33.4533 63.6266 32.9333 62.8133 32.32C62.0133 31.7067 60.9933 30.9733 59.7533 30.12L61.0533 28.3C62.4266 29.2733 63.5666 30.1267 64.4733 30.86C65.3799 31.5933 66.1066 32.2333 66.6533 32.78C67.1999 33.3267 67.6133 33.8067 67.8933 34.22C68.1866 34.6333 68.3733 35.0067 68.4533 35.34C68.5466 35.66 68.5933 35.98 68.5933 36.3C68.5933 36.86 68.4599 37.3533 68.1933 37.78C67.9399 38.2067 67.5533 38.5467 67.0333 38.8C66.5133 39.04 65.8666 39.16 65.0933 39.16ZM81.0384 43.64C80.1451 43.64 79.3318 43.5333 78.5984 43.32C77.8651 43.1067 77.2251 42.7867 76.6784 42.36C76.1318 41.9333 75.7051 41.4133 75.3984 40.8C75.1051 40.1867 74.9584 39.4733 74.9584 38.66C74.9584 38.3533 74.9851 38 75.0384 37.6C75.0918 37.2 75.1851 36.76 75.3184 36.28C75.4651 35.7867 75.6651 35.2533 75.9184 34.68L77.9984 35.42C77.8518 35.82 77.7251 36.1867 77.6184 36.52C77.5118 36.8533 77.4318 37.1667 77.3784 37.46C77.3384 37.7533 77.3184 38.0333 77.3184 38.3C77.3184 38.8867 77.4584 39.4 77.7384 39.84C78.0318 40.2933 78.4584 40.6467 79.0184 40.9C79.5918 41.1533 80.2851 41.28 81.0984 41.28C81.9384 41.28 82.6384 41.18 83.1984 40.98C83.7718 40.7933 84.2184 40.54 84.5384 40.22C84.8718 39.9 85.1051 39.5267 85.2384 39.1C85.3851 38.6867 85.4584 38.2533 85.4584 37.8C85.4584 37.3467 85.4118 36.88 85.3184 36.4C85.2384 35.9067 85.1184 35.3933 84.9584 34.86C84.8118 34.3267 84.6451 33.7733 84.4584 33.2L86.8184 32.58C87.0184 33.3533 87.1651 33.94 87.2584 34.34C87.3651 34.7267 87.4518 35.0267 87.5184 35.24C87.6518 35.68 87.8118 36.0067 87.9984 36.22C88.1984 36.4333 88.4251 36.5733 88.6784 36.64C88.9318 36.7067 89.2184 36.74 89.5384 36.74C89.7918 36.74 90.0251 36.7067 90.2384 36.64C90.4518 36.56 90.6451 36.3933 90.8184 36.14C91.0051 35.8867 91.1651 35.4867 91.2984 34.94C91.4451 34.38 91.5784 33.6133 91.6984 32.64L93.9184 33.02C93.8784 33.3 93.8318 33.6133 93.7784 33.96C93.7251 34.3067 93.6718 34.64 93.6184 34.96C93.5784 35.2667 93.5584 35.52 93.5584 35.72C93.5584 35.9067 93.6051 36.08 93.6984 36.24C93.8051 36.3867 93.9851 36.5067 94.2384 36.6C94.5051 36.6933 94.8918 36.74 95.3984 36.74C96.0251 36.74 96.4851 36.6067 96.7784 36.34C97.0718 36.0733 97.2184 35.6667 97.2184 35.12C97.2184 34.8133 97.2118 34.4867 97.1984 34.14C97.1851 33.78 97.1584 33.3867 97.1184 32.96C97.0918 32.52 97.0451 32.02 96.9784 31.46L99.1184 31.3C99.2251 32.4733 99.3384 33.42 99.4584 34.14C99.5784 34.86 99.7384 35.4067 99.9384 35.78C100.152 36.1533 100.432 36.4067 100.778 36.54C101.125 36.6733 101.558 36.74 102.078 36.74C102.505 36.74 102.812 36.8533 102.998 37.08C103.185 37.2933 103.278 37.56 103.278 37.88C103.278 38.2133 103.152 38.5 102.898 38.74C102.658 38.98 102.318 39.1 101.878 39.1C101.305 39.1 100.772 39.0133 100.278 38.84C99.7984 38.6667 99.3851 38.3933 99.0384 38.02C98.7051 37.6467 98.4584 37.1667 98.2984 36.58L98.8984 36.7C98.7384 37.3667 98.4718 37.8733 98.0984 38.22C97.7251 38.5667 97.2984 38.8 96.8184 38.92C96.3518 39.04 95.8651 39.1 95.3584 39.1C94.7318 39.1 94.1851 39.0133 93.7184 38.84C93.2651 38.6533 92.9051 38.3867 92.6384 38.04C92.3851 37.6933 92.2518 37.2667 92.2384 36.76H92.9184C92.7051 37.4 92.4384 37.8867 92.1184 38.22C91.8118 38.5533 91.4518 38.7867 91.0384 38.92C90.6384 39.04 90.2051 39.1 89.7384 39.1C89.3651 39.1 89.0184 39.06 88.6984 38.98C88.3918 38.8867 88.1184 38.76 87.8784 38.6C87.6518 38.44 87.4584 38.2333 87.2984 37.98C87.1518 37.7267 87.0451 37.44 86.9784 37.12L87.7584 38C87.7184 38.8133 87.5518 39.56 87.2584 40.24C86.9651 40.9333 86.5451 41.5333 85.9984 42.04C85.4518 42.5467 84.7651 42.94 83.9384 43.22C83.1118 43.5 82.1451 43.64 81.0384 43.64ZM91.6784 27.24C91.3718 27.24 91.1051 27.1267 90.8784 26.9C90.6518 26.66 90.5384 26.3867 90.5384 26.08C90.5384 25.76 90.6518 25.4867 90.8784 25.26C91.1051 25.0333 91.3718 24.92 91.6784 24.92C91.9984 24.92 92.2651 25.0333 92.4784 25.26C92.7051 25.4867 92.8184 25.76 92.8184 26.08C92.8184 26.3867 92.7051 26.66 92.4784 26.9C92.2651 27.1267 91.9984 27.24 91.6784 27.24ZM90.1784 29.72C89.8584 29.72 89.5851 29.6067 89.3584 29.38C89.1318 29.14 89.0184 28.86 89.0184 28.54C89.0184 28.2333 89.1318 27.9667 89.3584 27.74C89.5851 27.5133 89.8584 27.4 90.1784 27.4C90.4851 27.4 90.7518 27.5133 90.9784 27.74C91.2051 27.9667 91.3184 28.2333 91.3184 28.54C91.3184 28.86 91.2051 29.14 90.9784 29.38C90.7518 29.6067 90.4851 29.72 90.1784 29.72ZM93.1184 29.72C92.8118 29.72 92.5451 29.6067 92.3184 29.38C92.0918 29.14 91.9784 28.86 91.9784 28.54C91.9784 28.2333 92.0918 27.9667 92.3184 27.74C92.5451 27.5133 92.8118 27.4 93.1184 27.4C93.4384 27.4 93.7118 27.5133 93.9384 27.74C94.1651 27.9667 94.2784 28.2333 94.2784 28.54C94.2784 28.86 94.1651 29.14 93.9384 29.38C93.7118 29.6067 93.4384 29.72 93.1184 29.72ZM101.898 39.1L102.098 36.74C102.765 36.74 103.238 36.6733 103.518 36.54C103.798 36.4067 103.965 36.16 104.018 35.8C104.072 35.44 104.085 34.92 104.058 34.24L103.678 24.5H106.058L106.458 34.3C106.485 35.0467 106.452 35.72 106.358 36.32C106.278 36.9067 106.085 37.4067 105.778 37.82C105.472 38.2333 105.005 38.5533 104.378 38.78C103.765 38.9933 102.938 39.1 101.898 39.1ZM113.703 39.1C112.529 39.1 111.623 38.98 110.983 38.74C110.356 38.4867 109.916 38.1 109.663 37.58C109.423 37.0467 109.289 36.3667 109.263 35.54L108.843 24.5H111.203L111.623 34.48C111.649 35.1067 111.709 35.58 111.803 35.9C111.909 36.22 112.123 36.44 112.443 36.56C112.763 36.68 113.249 36.74 113.903 36.74C114.329 36.74 114.636 36.8533 114.823 37.08C115.009 37.2933 115.103 37.56 115.103 37.88C115.103 38.2133 114.976 38.5 114.723 38.74C114.483 38.98 114.143 39.1 113.703 39.1ZM113.715 39.1L113.915 36.74C114.622 36.74 115.322 36.6933 116.015 36.6C116.708 36.5067 117.382 36.3733 118.035 36.2C118.688 36.0267 119.315 35.8067 119.915 35.54C120.515 35.2733 121.082 34.96 121.615 34.6C121.242 34.3333 120.822 34.1067 120.355 33.92C119.902 33.72 119.408 33.5733 118.875 33.48C118.342 33.3733 117.775 33.32 117.175 33.32C116.962 33.32 116.748 33.3267 116.535 33.34C116.322 33.3533 116.102 33.38 115.875 33.42C115.662 33.4467 115.435 33.4867 115.195 33.54L114.835 31.26C115.208 31.1533 115.595 31.0733 115.995 31.02C116.408 30.9667 116.782 30.94 117.115 30.94C117.822 30.94 118.468 31.02 119.055 31.18C119.642 31.34 120.182 31.54 120.675 31.78C121.168 32.02 121.628 32.26 122.055 32.5C122.495 32.74 122.915 32.9467 123.315 33.12C123.715 33.28 124.115 33.36 124.515 33.36H125.135L125.375 35.56C124.802 35.5733 124.268 35.6733 123.775 35.86C123.282 36.0333 122.795 36.26 122.315 36.54C121.848 36.8067 121.348 37.0867 120.815 37.38C120.282 37.6733 119.682 37.9533 119.015 38.22C118.348 38.4733 117.582 38.6867 116.715 38.86C115.848 39.02 114.848 39.1 113.715 39.1ZM119.495 45.48C119.188 45.48 118.928 45.3733 118.715 45.16C118.502 44.9467 118.395 44.6867 118.395 44.38C118.395 44.0733 118.502 43.8067 118.715 43.58C118.928 43.3667 119.188 43.26 119.495 43.26C119.802 43.26 120.062 43.3667 120.275 43.58C120.488 43.8067 120.595 44.0733 120.595 44.38C120.595 44.6867 120.488 44.9467 120.275 45.16C120.062 45.3733 119.802 45.48 119.495 45.48ZM120.955 43.04C120.648 43.04 120.388 42.9333 120.175 42.72C119.975 42.5067 119.875 42.2467 119.875 41.94C119.875 41.6333 119.975 41.3667 120.175 41.14C120.388 40.9267 120.648 40.82 120.955 40.82C121.262 40.82 121.522 40.9267 121.735 41.14C121.948 41.3667 122.055 41.6333 122.055 41.94C122.055 42.2467 121.948 42.5067 121.735 42.72C121.522 42.9333 121.262 43.04 120.955 43.04ZM118.075 43.04C117.768 43.04 117.502 42.9333 117.275 42.72C117.062 42.5067 116.955 42.2467 116.955 41.94C116.955 41.6333 117.062 41.3667 117.275 41.14C117.502 40.9267 117.768 40.82 118.075 40.82C118.368 40.82 118.622 40.9267 118.835 41.14C119.062 41.3667 119.175 41.6333 119.175 41.94C119.175 42.2467 119.062 42.5067 118.835 42.72C118.622 42.9333 118.368 43.04 118.075 43.04Z" fill="#143A62"/>
</g>
<defs>
<filter id="filter0_d_3149_2694" x="9" y="81" width="84" height="92" filterUnits="userSpaceOnUse" color-interpolation-filters="sRGB">
<feFlood flood-opacity="0" result="BackgroundImageFix"/>
<feColorMatrix in="SourceAlpha" type="matrix" values="0 0 0 0 0 0 0 0 0 0 0 0 0 0 0 0 0 0 127 0" result="hardAlpha"/>
<feOffset dx="-3" dy="3"/>
<feGaussianBlur stdDeviation="2"/>
<feComposite in2="hardAlpha" operator="out"/>
<feColorMatrix type="matrix" values="0 0 0 0 0 0 0 0 0 0 0 0 0 0 0 0 0 0 0.2 0"/>
<feBlend mode="normal" in2="BackgroundImageFix" result="effect1_dropShadow_3149_2694"/>
<feBlend mode="normal" in="SourceGraphic" in2="effect1_dropShadow_3149_2694" result="shape"/>
</filter>
<filter id="filter1_d_3149_2694" x="86" y="72" width="82" height="64" filterUnits="userSpaceOnUse" color-interpolation-filters="sRGB">
<feFlood flood-opacity="0" result="BackgroundImageFix"/>
<feColorMatrix in="SourceAlpha" type="matrix" values="0 0 0 0 0 0 0 0 0 0 0 0 0 0 0 0 0 0 127 0" result="hardAlpha"/>
<feOffset dx="-2" dy="2"/>
<feGaussianBlur stdDeviation="2"/>
<feComposite in2="hardAlpha" operator="out"/>
<feColorMatrix type="matrix" values="0 0 0 0 0 0 0 0 0 0 0 0 0 0 0 0 0 0 0.25 0"/>
<feBlend mode="normal" in2="BackgroundImageFix" result="effect1_dropShadow_3149_2694"/>
<feBlend mode="normal" in="SourceGraphic" in2="effect1_dropShadow_3149_2694" result="shape"/>
</filter>
<clipPath id="clip0_3149_2694">
<rect width="176" height="176" rx="10" fill="white"/>
</clipPath>
</defs>
</svg>
