<svg width="238" height="234" viewBox="0 0 238 234" fill="none" xmlns="http://www.w3.org/2000/svg">
<g filter="url(#filter0_d_1959_3632)">
<path d="M159.853 41.7778C161.385 40.7893 163.165 40.2542 164.988 40.2335C165.304 40.2335 165.612 40.2509 165.915 40.2783C165.786 39.7362 165.624 39.0996 165.418 38.4083C164.765 38.0805 164.197 37.6048 163.759 37.0192C163.322 36.4333 163.027 35.7535 162.899 35.0338C162.665 35.0744 162.428 35.0953 162.19 35.096C161.343 35.0987 160.514 34.855 159.803 34.3947C159.629 34.357 159.457 34.3087 159.288 34.2505C159.066 34.2898 158.84 34.3107 158.614 34.3127C157.465 34.3192 156.359 33.8725 155.536 33.0693L153.38 33.8153C153.38 33.8153 158.91 36.6054 159.853 41.7778Z" fill="#00B6FF"/>
<path d="M160.497 203.728C160.495 207.694 158.919 211.498 156.115 214.303C153.311 217.107 149.508 218.684 145.542 218.686H74.3472C70.3807 218.684 66.577 217.108 63.772 214.303C60.9673 211.499 59.3909 207.695 59.3897 203.728V48.3716C59.3885 46.4064 59.7744 44.46 60.5254 42.644C61.2764 40.8282 62.378 39.1778 63.7671 37.7877C65.1561 36.3974 66.8053 35.2945 68.6208 34.5421C70.4361 33.7893 72.382 33.4019 74.3472 33.4017H83.8613C85.5734 33.4022 87.2154 34.0818 88.4269 35.2916C89.5377 36.3952 90.2034 37.8688 90.2969 39.4319C90.3109 39.5615 90.3176 39.6918 90.3168 39.8223C90.3168 39.9342 90.3168 40.0437 90.3168 40.1531C90.3631 41.1013 90.6088 42.029 91.038 42.876C91.0504 42.8959 91.0579 42.9233 91.0703 42.9432C91.5903 43.9622 92.3828 44.8169 93.3596 45.4127C94.3363 46.0085 95.4591 46.3216 96.6032 46.3176H123.104C123.953 46.3188 124.794 46.1522 125.579 45.8275C126.364 45.5027 127.077 45.0263 127.677 44.4252C128.136 43.9669 128.519 43.439 128.813 42.8611C128.826 42.8504 128.835 42.8367 128.841 42.8213C129.277 41.9927 129.522 41.0764 129.555 40.1406C129.555 40.0586 129.555 39.984 129.555 39.892C129.574 36.3335 132.29 33.3942 135.853 33.3942H143.888L152.343 33.2898C152.514 31.6734 153.203 29.9725 153.914 28.4705C154.151 27.9506 154.432 27.4515 154.752 26.9785H74.9565C72.3802 26.978 69.8291 27.4853 67.4489 28.471C65.0686 29.4568 62.9057 30.9018 61.0839 32.7235C59.2624 34.5453 57.8174 36.708 56.8316 39.0883C55.8457 41.4685 55.3386 44.0196 55.3389 46.5961V207.185C55.3381 209.761 55.8452 212.312 56.8309 214.693C57.8164 217.073 59.2614 219.236 61.0834 221.058C62.9052 222.88 65.0678 224.325 67.4484 225.31C69.8289 226.296 72.38 226.803 74.9565 226.803H147.096C149.672 226.803 152.223 226.295 154.604 225.31C156.984 224.324 159.147 222.879 160.969 221.057C162.791 219.236 164.236 217.073 165.222 214.693C166.208 212.312 166.716 209.761 166.716 207.185V196.127L160.499 199.67L160.497 203.728Z" fill="#00B6FF"/>
<path d="M162.665 80.6277C161.919 79.8593 161.198 81.0529 160.497 80.2373V139.329C160.935 137.715 161.476 136.131 162.116 134.587C162.26 134.248 162.404 133.908 162.554 133.572C162.869 132.878 163.2 132.194 163.548 131.516C163.643 131.322 163.74 131.138 163.842 130.954C163.944 130.77 164.068 130.533 164.185 130.334C164.384 129.971 164.598 129.608 164.816 129.253C164.966 128.984 165.132 128.726 165.296 128.464C165.418 128.258 165.545 128.059 165.679 127.868C165.824 127.634 165.98 127.403 166.132 127.176C166.318 126.895 166.515 126.614 166.709 126.338V84.2459C165.963 83.664 165.217 83.0523 164.516 82.4231C163.877 81.8462 163.26 81.2494 162.665 80.6277Z" fill="#00B6FF"/>
<path d="M166.122 39.5547C165.261 40.6389 164.194 39.7288 162.807 39.7288C161.544 39.7288 160.817 41.7728 160.017 40.9497C160.061 41.0591 159.611 42.6904 159.649 42.7998C159.771 43.1281 159.88 43.4712 159.977 43.8144V43.8268C160.101 44.267 160.196 44.7046 160.278 45.1572C160.298 45.2592 160.32 45.3711 160.333 45.4805C160.367 45.7118 160.402 45.953 160.422 46.1917C160.449 46.413 160.465 46.6353 160.469 46.8581C160.492 47.1068 160.497 47.3779 160.497 47.6464V65.0533C160.7 65.2229 160.869 65.4296 160.994 65.6626C161.989 67.4779 162.941 66.1176 164.005 67.9006C164.572 68.8207 165.746 69.5394 166.348 68.8729C166.569 68.6242 166.706 67.5599 166.706 67.1621V46.1295C166.706 45.1309 166.632 44.1335 166.485 43.1455C166.44 42.77 166.201 39.9352 166.122 39.5547Z" fill="#00B6FF"/>
<path d="M90.3242 39.4824C90.7746 40.3202 91.0215 41.252 91.0454 42.2029C90.6164 41.3569 90.3707 40.4299 90.3242 39.4824Z" fill="#00B6FF"/>
<path d="M129.555 39.4668C129.521 40.4028 129.277 41.3191 128.841 42.1475C128.889 41.214 129.132 40.3008 129.555 39.4668Z" fill="#00B6FF"/>
<path d="M224.753 115.338C200.995 122.756 188.713 104.588 188.713 104.588C189.611 103.258 188.253 100.756 188.253 100.756L187.428 96.5289C176.931 96.0141 167.435 85.7838 167.435 85.7838C181.014 83.3767 175.161 75.2427 175.161 75.2427L184.523 82.5735L185.538 82.484C185.662 69.8018 193.647 63.8785 196.149 61.8717C198.65 59.8649 199.078 61.8568 199.078 61.8568C199.078 61.8568 197.979 65.9151 202.669 66.4771C207.359 67.0391 210.793 62.6451 210.793 62.6451C212.402 59.0394 214.254 61.2749 214.254 61.2749C222.294 65.552 223.748 76.1354 225.474 83.5309C226.665 88.5988 228.933 99.5204 230.448 104.842C230.977 106.684 230.871 108.65 230.147 110.425C229.664 111.589 228.93 112.633 227.997 113.482C227.065 114.332 225.958 114.965 224.753 115.338Z" fill="#143A62"/>
<path d="M224.753 115.338C200.995 122.756 188.713 104.588 188.713 104.588C189.611 103.258 188.253 100.756 188.253 100.756L187.428 96.5289C176.931 96.0141 167.435 85.7838 167.435 85.7838C176.431 81.2854 175.161 75.2427 175.161 75.2427L184.523 82.5735L185.538 82.484C185.662 69.8018 193.647 63.8785 196.149 61.8717C198.65 59.8649 199.078 61.8568 199.078 61.8568C199.078 61.8568 197.979 65.9151 202.669 66.4771C207.359 67.0391 210.793 62.6451 210.793 62.6451C212.402 59.0394 214.254 61.2749 214.254 61.2749C222.294 65.552 223.748 76.1354 225.474 83.5309C226.665 88.5988 228.933 99.5204 230.448 104.842C230.977 106.684 230.871 108.65 230.147 110.425C229.664 111.589 228.93 112.633 227.997 113.482C227.065 114.332 225.958 114.965 224.753 115.338Z" fill="#143A62"/>
<path d="M196.751 51.2962C198.235 51.2962 199.439 50.0926 199.439 48.608C199.439 47.1232 198.235 45.9199 196.751 45.9199C195.266 45.9199 194.062 47.1232 194.062 48.608C194.062 50.0926 195.266 51.2962 196.751 51.2962Z" fill="#D7E8F0"/>
<path d="M200.414 54.0215C200.18 55.7423 198.72 56.8663 197.198 56.6176" stroke="black" stroke-width="2" stroke-miterlimit="10"/>
<path d="M182.395 39.0318C182.65 40.2016 183.266 41.2614 184.157 42.0621C185.047 42.8631 186.165 43.3644 187.356 43.4955C187.465 43.0173 187.688 42.5726 188.007 42.1999C189.365 40.6556 189.88 43.6098 194.177 41.5832C200.145 38.7657 202.34 40.4915 202.34 40.4915C202.534 40.6432 202.485 42.0009 202.507 42.2322C202.636 43.6372 202.756 45.0372 202.902 46.4422C202.987 47.2976 203.069 48.1481 203.151 48.9985C203.234 48.8568 203.326 48.7198 203.425 48.5882C204.001 46.6958 205.605 44.4802 207.652 45.4898C208.068 45.7017 208.428 46.0093 208.701 46.3875C210.037 48.2177 208.95 49.9385 207.5 51.1993C207.132 51.5922 206.723 51.944 206.279 52.2486C206.506 52.746 207.433 54.7005 207.433 54.708C207.528 54.9069 210.977 51.157 211.235 50.7467C211.632 49.7353 211.855 48.6643 211.894 47.5786C212.039 43.1175 210.325 37.8805 206.759 35.2545C205.876 34.603 205.568 33.9863 205.516 33.1234C205.513 33.0769 205.496 33.0324 205.468 32.9956C205.439 32.9588 205.4 32.9314 205.356 32.9173C205.311 32.9031 205.264 32.9026 205.219 32.9158C205.174 32.929 205.135 32.9556 205.106 32.9916C203.947 34.2748 201.144 34.0883 201.144 34.0883C191.446 31.4573 188.099 35.7195 186.125 36.4481C185.321 36.7354 184.442 36.7354 183.638 36.4481C183.585 36.716 183.461 36.9641 183.277 37.1658C183.093 37.3675 182.858 37.5149 182.596 37.592L182.638 38.0446C182.674 38.392 182.588 38.7409 182.395 39.0318Z" fill="#00B6FF"/>
<path d="M203.203 57.3065C202.564 57.8038 200.779 59.2362 200.065 59.6614C199.542 59.9777 198.992 60.248 198.421 60.4696C194.129 62.0884 190.106 58.4081 188.631 54.7253C187.418 51.689 187.139 48.2971 187.226 45.0545C187.241 44.7188 187.254 44.3756 187.281 44.0324C187.278 44.0118 187.278 43.9907 187.281 43.9703C187.294 43.8139 187.317 43.6585 187.351 43.5053C187.459 43.0266 187.682 42.5817 188.002 42.2097C189.357 40.6679 189.872 43.6221 194.169 41.593C200.137 38.7756 202.336 40.5013 202.336 40.5013C202.527 40.653 202.477 42.0108 202.5 42.242C202.629 43.6495 202.748 45.047 202.898 46.452C202.98 47.3099 203.062 48.1579 203.146 49.0083C203.166 49.2421 203.188 49.4684 203.208 49.6996C203.239 49.3234 203.31 48.9514 203.42 48.5906C203.997 46.6982 205.601 44.485 207.647 45.4921C208.063 45.704 208.423 46.0116 208.697 46.3898C210.032 48.2201 208.945 49.9409 207.495 51.2016C207.127 51.5172 206.739 51.8079 206.332 52.072L206.222 52.1416L206.277 52.251C206.503 52.7483 207.428 54.7054 207.428 54.7104C207.523 54.9093 210.972 51.1618 211.233 50.749C212.131 49.3624 212.694 47.7856 212.877 46.1437C212.899 45.9373 212.912 45.7383 212.919 45.5319C213.063 41.0708 211.35 35.8338 207.784 33.2078C206.899 32.5563 206.59 31.9396 206.541 31.0767C206.538 31.0302 206.521 30.9857 206.492 30.9489C206.464 30.9121 206.425 30.8848 206.38 30.8706C206.336 30.8562 206.288 30.8557 206.244 30.8691C206.199 30.8823 206.16 30.9086 206.13 30.9449C204.971 32.2281 202.166 32.0416 202.166 32.0416C192.481 29.4106 189.121 33.6728 187.149 34.4014C185.177 35.1301 183.447 33.7847 183.447 33.7847L183.653 35.9905C183.667 36.1416 183.657 36.2943 183.626 36.443C183.573 36.7106 183.448 36.9588 183.265 37.1604C183.081 37.3621 182.845 37.5096 182.584 37.5869C182.485 37.623 182.381 37.6439 182.275 37.6491H182.198C182.217 38.1084 182.277 38.5654 182.377 39.0143C182.634 40.1858 183.252 41.2468 184.144 42.0478C185.037 42.849 186.158 43.3491 187.351 43.4779" stroke="black" stroke-width="2" stroke-miterlimit="10"/>
<path d="M188.716 51.0325C190.201 51.0325 191.405 49.8289 191.405 48.3444C191.405 46.8598 190.201 45.6562 188.716 45.6562C187.232 45.6562 186.028 46.8598 186.028 48.3444C186.028 49.8289 187.232 51.0325 188.716 51.0325Z" fill="#D7E8F0"/>
<path d="M197.872 49.6125C197.874 49.8311 197.81 50.0454 197.69 50.2279C197.569 50.4105 197.397 50.5532 197.196 50.6377C196.994 50.7225 196.772 50.7454 196.557 50.7036C196.343 50.6619 196.145 50.5574 195.99 50.4032C195.835 50.2491 195.729 50.0524 195.686 49.838C195.643 49.6237 195.664 49.4013 195.747 49.1992C195.831 48.997 195.972 48.8242 196.154 48.7023C196.336 48.5807 196.55 48.5158 196.768 48.5158C196.875 48.5136 196.982 48.5295 197.084 48.5631C197.031 48.6136 196.988 48.674 196.959 48.7411C196.929 48.808 196.914 48.8804 196.912 48.9535C196.914 49.0945 196.971 49.229 197.071 49.3282C197.171 49.4275 197.306 49.4832 197.447 49.4832C197.518 49.4829 197.588 49.468 197.653 49.4391C197.718 49.4106 197.777 49.3688 197.825 49.3166C197.857 49.4118 197.873 49.5118 197.872 49.6125Z" fill="black"/>
<path d="M190.057 49.252C190.056 49.4694 189.991 49.6815 189.87 49.8618C189.749 50.0423 189.578 50.1828 189.377 50.2656C189.176 50.3484 188.956 50.37 188.742 50.3275C188.53 50.285 188.334 50.1803 188.18 50.0269C188.027 49.8732 187.922 49.6777 187.88 49.4646C187.837 49.2518 187.859 49.0309 187.942 48.8303C188.025 48.6293 188.165 48.4578 188.345 48.3367C188.526 48.2158 188.738 48.1509 188.955 48.1504C189.098 48.1497 189.24 48.1775 189.373 48.2325C189.298 48.2824 189.236 48.3496 189.193 48.4284C189.149 48.507 189.126 48.5953 189.124 48.685C189.124 48.7549 189.139 48.8238 189.166 48.8882C189.193 48.9526 189.232 49.0108 189.282 49.0598C189.332 49.1088 189.39 49.1476 189.455 49.1737C189.52 49.1998 189.589 49.213 189.659 49.2122C189.728 49.2132 189.796 49.2003 189.859 49.1742C189.923 49.1481 189.981 49.1095 190.029 49.0605C190.046 49.1232 190.055 49.1874 190.057 49.252Z" fill="black"/>
<path d="M192.785 48.5654C192.785 48.5654 192.096 51.6266 192.014 51.9349C191.765 52.9296 193.74 52.6212 193.74 52.6212" stroke="black" stroke-width="2" stroke-miterlimit="10"/>
<path d="M195.311 42.7878C195.311 42.7878 198.556 41.5718 200.361 44.0087" stroke="black" stroke-width="2" stroke-miterlimit="10"/>
<path d="M184.523 45.2217C184.523 45.2217 186.195 42.1854 189.149 42.8593" stroke="black" stroke-width="2" stroke-miterlimit="10"/>
<path d="M196.751 51.7837C198.505 51.7837 199.926 50.3618 199.926 48.6081C199.926 46.8543 198.505 45.4326 196.751 45.4326C194.997 45.4326 193.575 46.8543 193.575 48.6081C193.575 50.3618 194.997 51.7837 196.751 51.7837Z" stroke="black" stroke-width="2" stroke-miterlimit="10"/>
<path d="M188.717 51.52C190.47 51.52 191.892 50.0983 191.892 48.3445C191.892 46.5906 190.47 45.1689 188.717 45.1689C186.963 45.1689 185.541 46.5906 185.541 48.3445C185.541 50.0983 186.963 51.52 188.717 51.52Z" stroke="black" stroke-width="2" stroke-miterlimit="10"/>
<path d="M188.714 46.186H188.786C189.357 46.1952 189.902 46.4312 190.3 46.842C190.698 47.253 190.916 47.8051 190.907 48.3768C190.898 48.9487 190.662 49.4933 190.251 49.8912C189.84 50.2888 189.288 50.5071 188.716 50.4979H188.649C188.077 50.4887 187.532 50.2527 187.134 49.8419C186.737 49.4311 186.519 48.8791 186.528 48.3072C186.537 47.7355 186.773 47.1906 187.184 46.7927C187.595 46.3951 188.147 46.1768 188.719 46.186H188.714ZM188.719 45.6712C188.01 45.6598 187.326 45.9301 186.817 46.4227C186.308 46.9153 186.016 47.5902 186.004 48.2984C185.993 49.0067 186.263 49.6908 186.756 50.1998C187.248 50.7088 187.923 51.0012 188.631 51.0127H188.721C189.429 51.0241 190.113 50.7538 190.622 50.2612C191.131 49.7686 191.424 49.0939 191.435 48.3855C191.447 47.6773 191.176 46.9932 190.684 46.4841C190.191 45.9754 189.516 45.6827 188.808 45.6712H188.719Z" fill="white"/>
<path d="M193.575 48.5039L191.889 48.4492" stroke="black" stroke-width="2" stroke-miterlimit="10"/>
<path d="M195.958 162.27L192.586 182.925L188.933 182.378C188.142 182.253 187.432 181.822 186.955 181.179C186.479 180.535 186.276 179.729 186.389 178.936L186.66 176.721L189.147 158.493C193.195 160.865 195.958 162.27 195.958 162.27Z" fill="#00B6FF"/>
<path d="M179.274 188.966L166.716 196.177L160.499 199.755L158.594 200.852C158.598 200.816 158.598 200.779 158.594 200.743L157.102 201.593L155.183 197.905C154.734 197.054 154.639 196.06 154.918 195.139C155.196 194.218 155.827 193.444 156.672 192.984L178.431 181.07L178.451 181.269L179.274 188.966Z" fill="#00B6FF"/>
<path d="M160.91 137.924C160.773 137.739 160.636 137.56 160.497 137.404C159.709 136.456 158.935 135.82 158.413 134.743C157.997 133.866 157.877 132.878 158.071 131.927C158.265 130.976 158.763 130.115 159.49 129.471C159.791 129.212 160.125 128.995 160.485 128.827" stroke="black" stroke-width="2" stroke-miterlimit="10"/>
<path d="M187.391 171.054L186.66 176.716L186.379 178.932C186.266 179.725 186.469 180.53 186.945 181.174C187.422 181.818 188.132 182.249 188.923 182.374L192.576 182.921L195.948 162.266C195.948 162.266 193.185 160.861 189.142 158.484C186.25 156.783 182.676 154.582 179.011 152.046" stroke="black" stroke-width="2" stroke-miterlimit="10"/>
<path d="M186.77 175.945C186.77 175.945 182.826 173.819 177.817 170.758" stroke="black" stroke-width="2" stroke-miterlimit="10"/>
<g opacity="0.68">
<path opacity="0.68" d="M160.497 80.5522V139.328C159.408 143.351 158.888 147.534 158.612 151.742V80.7014C159.224 81.4972 159.853 79.7913 160.497 80.5522Z" fill="#D7E8F0"/>
<path opacity="0.68" d="M160.497 199.671V203.05C160.496 207.017 158.92 210.82 156.116 213.625C153.312 216.429 149.508 218.006 145.542 218.008H74.3481C70.3816 218.007 66.5779 216.43 63.7729 213.626C60.9682 210.821 59.3919 207.017 59.3906 203.05V47.6936C59.3894 45.7283 59.7753 43.7823 60.5263 41.9662C61.2773 40.1502 62.3789 38.5 63.768 37.1097C65.157 35.7196 66.8062 34.6168 68.6218 33.864C70.4371 33.1116 72.3829 32.7241 74.3481 32.7236H83.8623C84.2989 32.7249 84.7344 32.7681 85.1628 32.8529C85.4493 32.9131 85.7318 32.9912 86.0083 33.0867C86.1301 33.1339 86.257 33.1812 86.3714 33.2309C86.5653 33.3115 86.7546 33.4028 86.9383 33.5045C87.1594 33.6238 87.3727 33.7566 87.5774 33.9023C87.7142 33.9968 87.8435 34.0938 87.9678 34.1958C88.0922 34.2977 88.2836 34.4718 88.4279 34.6135L89.4225 35.8967C89.5138 36.0496 89.5969 36.2075 89.6712 36.3691L90.0343 37.2867C90.084 37.4533 90.1312 37.6175 90.1661 37.7841L90.2556 38.3038C90.268 38.3734 90.2755 38.448 90.2829 38.5176C90.2854 38.5517 90.2854 38.5858 90.2829 38.6196C90.2979 38.7837 90.3103 38.9429 90.3103 39.1169V39.1841C90.3103 39.2885 90.3103 39.383 90.3103 39.48C90.3038 39.4643 90.2946 39.4502 90.2829 39.4377C90.0024 38.9058 89.6419 38.4202 89.2137 37.9979C88.0486 36.8319 86.4681 36.1762 84.8197 36.1752H75.6711C73.7787 36.1762 71.905 36.5502 70.1571 37.2755C68.4092 38.0012 66.8214 39.064 65.4843 40.4036C64.1474 41.7429 63.0876 43.3327 62.3655 45.082C61.6433 46.8312 61.2728 48.7057 61.2755 50.5981V200.158C61.2755 203.977 62.7919 207.639 65.4915 210.34C68.1908 213.041 71.8525 214.559 75.6711 214.561H144.22C147.916 214.561 151.47 213.138 154.146 210.588C156.822 208.038 158.414 204.557 158.593 200.865C158.596 200.828 158.596 200.792 158.593 200.755L160.497 199.671Z" fill="#D7E8F0"/>
<path opacity="0.68" d="M128.842 42.1475C128.842 42.242 128.842 42.3315 128.842 42.4285C128.833 44.0712 128.174 45.6435 127.009 46.8018C125.844 47.9601 124.268 48.6104 122.625 48.6104H97.1044C93.6653 48.6104 91.0667 45.8004 91.0518 42.3588C91.0518 42.3041 91.0518 42.2569 91.0518 42.2022C91.5653 43.2384 92.3588 44.1102 93.3425 44.7185C94.326 45.3267 95.4604 45.6473 96.617 45.6438H123.105C123.955 45.645 124.796 45.4784 125.581 45.1536C126.365 44.8289 127.078 44.3524 127.678 43.7514C128.148 43.2809 128.541 42.7395 128.842 42.1475Z" fill="#D7E8F0"/>
</g>
<path d="M166.716 105.932C175.561 104.134 184.148 102.276 188.713 102.338" stroke="black" stroke-width="2" stroke-miterlimit="10"/>
<path d="M187.492 97.0117C187.711 97.8 188.713 102.341 188.959 103.161C189.87 106.123 178.287 113.959 176.325 115.719C172.803 118.86 169.471 122.396 166.716 126.337C164.884 128.909 163.341 131.675 162.116 134.586C161.476 136.13 160.935 137.714 160.497 139.328C159.407 143.351 158.888 147.534 158.612 151.742C158.393 154.93 158.311 158.13 158.221 161.256C158.037 167.254 158.132 173.286 158.525 179.264C158.552 179.642 158.579 180.01 158.612 180.388C158.922 183.939 159.523 187.458 160.41 190.91V190.932" stroke="black" stroke-width="2" stroke-miterlimit="10"/>
<path d="M185.779 83.0019C186.155 71.3567 191.442 65.1399 196.149 61.8649C197.065 61.2373 198.047 60.7126 199.078 60.3008" stroke="black" stroke-width="2" stroke-miterlimit="10"/>
<path d="M211.999 60.2236C212.218 60.3057 212.429 60.3952 212.643 60.4847L212.877 60.5867C213.393 60.8117 213.896 61.0659 214.384 61.3476C216.067 62.3067 217.536 63.5988 218.703 65.1448C218.748 65.1886 218.785 65.2401 218.813 65.2965C219.016 65.585 219.215 65.8784 219.409 66.1818C221.13 68.9171 222.734 72.6099 223.96 76.8746C224.592 79.0626 225.098 81.2853 225.474 83.5315" stroke="black" stroke-width="2" stroke-miterlimit="10"/>
<path d="M225.474 83.5293C226.666 88.5972 228.936 99.5213 230.448 104.84C230.978 106.683 230.872 108.65 230.147 110.425C229.664 111.59 228.93 112.634 227.998 113.483C227.066 114.333 225.958 114.966 224.753 115.339L220.255 116.428C219.784 116.545 219.369 116.821 219.079 117.209C218.058 118.558 216.926 119.819 215.694 120.979C196.233 139.301 172.816 120.335 178.431 181.075L178.451 181.274C178.678 183.706 178.952 186.27 179.274 188.966L166.716 196.127L160.499 199.671L158.602 200.755L157.11 201.605L155.19 197.918C154.737 197.066 154.639 196.07 154.916 195.146C155.194 194.222 155.825 193.445 156.672 192.984L158.612 191.907L160.41 190.913L160.497 190.865L166.714 187.424L168.037 186.678" stroke="black" stroke-width="2" stroke-miterlimit="10"/>
<path d="M166.718 196.127V206.504C166.718 211.708 164.65 216.7 160.969 220.379C157.289 224.059 152.298 226.127 147.093 226.127H72.793C70.2161 226.127 67.664 225.62 65.2829 224.634C62.9019 223.648 60.7385 222.202 58.9162 220.38C57.0937 218.558 55.6482 216.395 54.662 214.014C53.6755 211.633 53.168 209.081 53.168 206.504V44.8062C53.168 42.2289 53.6755 39.6773 54.662 37.2963C55.6482 34.9156 57.0937 32.7521 58.9162 30.9301C60.7385 29.1079 62.9019 27.6626 65.2829 26.6766C67.664 25.6906 70.2161 25.1833 72.793 25.1836H156.12" stroke="black" stroke-width="2" stroke-miterlimit="10"/>
<path d="M166.716 44.8058C166.718 43.4592 166.582 42.1161 166.311 40.7972C166.311 40.7972 165.948 38.6014 165.6 37.9922" stroke="black" stroke-width="2" stroke-miterlimit="10"/>
<path d="M166.716 126.33V105.937V84.668" stroke="black" stroke-width="2" stroke-miterlimit="10"/>
<path d="M166.716 44.8076V56.3136V69.978" stroke="black" stroke-width="2" stroke-miterlimit="10"/>
<path d="M186.66 76.108V76.0906C184.535 75.1379 182.532 73.9349 180.692 72.5072C173.013 66.5998 167.977 57.8998 166.679 48.2992C166.646 48.0622 166.616 47.8235 166.59 47.583" stroke="black" stroke-width="2" stroke-miterlimit="10"/>
<path d="M160.502 133.608V80.5322" stroke="black" stroke-width="2" stroke-miterlimit="10"/>
<path d="M160.501 65.6203V47.6962C160.501 44.4311 160.216 40.5618 158.457 38.0975C158.457 38.0975 154.193 32.7188 149.858 32.7188H136.027" stroke="black" stroke-width="2" stroke-miterlimit="10"/>
<path d="M141.6 32.7188H136.027C134.313 32.7188 132.668 33.3999 131.456 34.6124C130.243 35.8249 129.562 37.4693 129.562 39.1842C129.562 40.8988 128.881 42.5435 127.668 43.7557C126.456 44.9683 124.811 45.6496 123.097 45.6496H96.7823C95.0675 45.6496 93.423 44.9683 92.2105 43.7557C90.998 42.5435 90.3169 40.8988 90.3169 39.1842C90.3169 37.4693 89.6358 35.8249 88.4232 34.6124C87.2107 33.3999 85.5663 32.7188 83.8514 32.7188H74.3473C70.3772 32.7212 66.5706 34.3005 63.7648 37.1093C60.9589 39.918 59.3835 43.7261 59.3848 47.6962V203.05C59.3868 207.018 60.9638 210.822 63.7696 213.627C66.5751 216.433 70.3797 218.009 74.3473 218.01H145.539C149.507 218.009 153.311 216.433 156.117 213.627C158.923 210.822 160.5 207.018 160.502 203.05V199.674" stroke="black" stroke-width="2" stroke-miterlimit="10"/>
<path d="M165.187 26.1064C167.895 27.2652 170.424 31.0973 171.652 33.6611C173.93 38.4181 175.917 42.0586 178.615 46.5919C180.925 50.4786 183.044 54.6886 186.677 57.5334C188.6 59.0607 190.941 59.9686 193.391 60.137" stroke="black" stroke-width="2" stroke-miterlimit="10"/>
<path d="M91.6672 32.7225C91.6649 38.0928 90.208 43.3621 87.4512 47.971C84.6944 52.5796 80.7406 56.3554 76.0101 58.8973C71.2794 61.4392 65.9487 62.6525 60.5839 62.4076C55.2191 62.1629 50.0209 60.4694 45.5413 57.5075C39.7361 52.6221 36.019 45.7016 35.1519 38.1639C34.2847 30.6263 36.333 23.0426 40.8772 16.9665C45.4214 10.8905 52.1174 6.78252 59.5927 5.48429C67.0682 4.18608 74.7571 5.79597 81.0838 9.98405C84.4023 12.7706 87.0695 16.2506 88.898 20.1791C90.7264 24.1076 91.6716 28.3892 91.6672 32.7225Z" fill="#00B6FF"/>
<path d="M88.4348 32.8403C88.4336 37.5968 87.1437 42.2641 84.7025 46.3465C82.2613 50.429 78.7596 53.7736 74.57 56.0253C70.3801 58.2772 65.6584 59.3517 60.9068 59.1352C56.1552 58.9186 51.5508 57.4188 47.5833 54.7954C42.4547 50.4648 39.174 44.339 38.4116 37.6699C37.6494 31.0011 39.4632 24.293 43.4824 18.9167C47.5015 13.5407 53.4223 9.90284 60.0344 8.74692C66.6463 7.59098 73.4502 9.00432 79.055 12.6979C81.995 15.1663 84.3584 18.2488 85.979 21.7287C87.5993 25.2088 88.4378 29.0015 88.4348 32.8403Z" fill="#00B6FF"/>
<path d="M120.432 89.3028L98.7674 92.5679C98.242 92.7024 97.6927 92.7151 97.1615 92.6047C96.6304 92.4945 96.1315 92.2645 95.7031 91.9318C95.2743 91.5993 94.9277 91.1731 94.689 90.686C94.4503 90.1988 94.3262 89.6637 94.3262 89.1213L96.5916 70.5059H128.901C129.165 70.5059 129.418 70.6106 129.605 70.7971C129.791 70.9836 129.896 71.2367 129.896 71.5005L126.805 83.1632C126.366 84.651 125.547 85.9993 124.43 87.0755C123.313 88.152 121.935 88.9194 120.432 89.3028Z" fill="#D7E8F0"/>
<path d="M101.938 103.742C103.977 103.742 105.631 102.089 105.631 100.049C105.631 98.0096 103.977 96.3564 101.938 96.3564C99.8985 96.3564 98.2451 98.0096 98.2451 100.049C98.2451 102.089 99.8985 103.742 101.938 103.742Z" fill="#D7E8F0"/>
<path d="M115.957 103.742C117.997 103.742 119.65 102.089 119.65 100.049C119.65 98.0096 117.997 96.3564 115.957 96.3564C113.918 96.3564 112.265 98.0096 112.265 100.049C112.265 102.089 113.918 103.742 115.957 103.742Z" fill="#D7E8F0"/>
<path d="M99.523 74.4061L96.1585 73.9561L97.1034 66.8789C97.1633 66.4385 97.1268 65.9899 96.9965 65.5649C96.8659 65.1397 96.6446 64.748 96.3477 64.4168C96.051 64.0858 95.6857 63.8232 95.2772 63.6472C94.8689 63.4711 94.4272 63.3861 93.9826 63.3975L91.0831 63.4721C90.633 63.4836 90.1968 63.3157 89.8706 63.0056C89.5441 62.6955 89.3541 62.2685 89.3424 61.8185C89.3364 61.5959 89.3745 61.3741 89.4543 61.1662C89.5339 60.9581 89.654 60.7678 89.8074 60.6062C89.9606 60.4446 90.1444 60.3145 90.3478 60.224C90.5514 60.1332 90.7708 60.0837 90.9936 60.0778L93.8956 60.0032C94.9084 59.9713 95.9143 60.18 96.8306 60.6122C97.7472 61.0446 98.5479 61.6882 99.1674 62.4899C99.704 63.2058 100.093 64.0212 100.311 64.8888C100.529 65.7561 100.572 66.6586 100.438 67.5428L99.523 74.4061Z" fill="#D7E8F0"/>
<path d="M131.205 70H13.7951C7.28074 70 2 76.454 2 84.4156V121.622C2 129.584 7.28074 136.038 13.7951 136.038H131.205C137.719 136.038 143 129.584 143 121.622V84.4156C143 76.454 137.719 70 131.205 70Z" fill="#143A62"/>
<path d="M158.353 157.132C144.945 146.327 132.778 132.469 138.007 120.396C141.153 113.117 150.463 109.151 160.497 107" stroke="black" stroke-width="2" stroke-miterlimit="10"/>
<path d="M61.8641 96.976L62.5407 93.9372C63.7032 93.9372 64.7876 93.9115 65.7939 93.86C66.8175 93.7913 67.7544 93.7055 68.6046 93.6025C69.4547 93.4994 70.1834 93.3964 70.7907 93.2934C71.4153 93.1904 71.8924 93.0874 72.222 92.9844C72.8293 92.7956 73.3585 92.5638 73.8096 92.2891C74.2607 91.9972 74.6163 91.6625 74.8766 91.2848C75.1368 90.9071 75.267 90.495 75.267 90.0487C75.267 89.7912 75.2149 89.5251 75.1108 89.2504C75.0241 88.9757 74.8939 88.7267 74.7204 88.5036C74.5643 88.2632 74.3734 88.0744 74.1479 87.937C73.9223 87.7825 73.6794 87.7053 73.4192 87.7053C73.0895 87.7053 72.7772 87.8254 72.4823 88.0658C72.1873 88.3061 71.9444 88.6152 71.7536 88.9929C71.5627 89.3534 71.4673 89.7568 71.4673 90.2032C71.4673 90.5809 71.5714 90.95 71.7796 91.3105C72.0052 91.6711 72.2914 91.9972 72.6384 92.2891C73.0028 92.581 73.3932 92.8299 73.8096 93.0359L70.7386 94.169C70.3916 93.86 70.0359 93.5166 69.6716 93.1389C69.3246 92.7612 69.0296 92.3234 68.7867 91.8256C68.5438 91.3277 68.4224 90.7612 68.4224 90.1259C68.4224 89.3705 68.5699 88.6752 68.8648 88.04C69.1598 87.3876 69.5501 86.8125 70.0359 86.3146C70.5391 85.8168 71.0856 85.4305 71.6755 85.1558C72.2828 84.8811 72.89 84.7438 73.4973 84.7438C74.4515 84.7438 75.2843 85.0013 75.9957 85.5163C76.7244 86.0142 77.2882 86.658 77.6873 87.4477C78.1037 88.2375 78.3119 89.0615 78.3119 89.9199C78.3119 90.6925 78.1557 91.3878 77.8434 92.0058C77.5485 92.6239 77.1494 93.1647 76.6463 93.6282C76.1431 94.0917 75.5706 94.5038 74.9286 94.8643C74.304 95.2077 73.6534 95.4909 72.9768 95.7141C72.543 95.8858 71.9358 96.0489 71.155 96.2034C70.3916 96.3407 69.5068 96.4695 68.5005 96.5897C67.4942 96.7099 66.4185 96.8043 65.2734 96.873C64.1456 96.9416 63.0092 96.976 61.8641 96.976ZM80.0035 96.5639C79.0493 96.5639 78.1037 96.5124 77.1668 96.4094C76.2472 96.3064 75.3711 96.1605 74.5383 95.9716C73.7228 95.7828 72.9941 95.5424 72.3522 95.2506L74.1479 93.0617C74.6684 93.1647 75.2843 93.2505 75.9957 93.3192C76.707 93.3879 77.4357 93.4394 78.1818 93.4737C78.9278 93.508 79.6218 93.5252 80.2638 93.5252C80.819 93.5252 81.2093 93.6711 81.4349 93.963C81.6778 94.2377 81.7992 94.581 81.7992 94.9931C81.7992 95.4223 81.6431 95.7914 81.3308 96.1004C81.0185 96.4094 80.5761 96.5639 80.0035 96.5639ZM61.8641 96.976C60.1118 96.976 58.611 96.8472 57.3618 96.5897C56.1299 96.3493 55.115 95.9888 54.3169 95.5081C53.5188 95.0274 52.9289 94.4437 52.5472 93.757C52.1655 93.0702 51.9746 92.2805 51.9746 91.3878C51.9746 90.8899 52.018 90.3835 52.1047 89.8684C52.1915 89.3362 52.3043 88.8212 52.4431 88.3233C52.5819 87.8083 52.712 87.3361 52.8334 86.9069L55.5921 87.5765C55.5227 87.8683 55.4446 88.1945 55.3579 88.5551C55.2711 88.8984 55.193 89.2418 55.1236 89.5851C55.0716 89.9285 55.0456 90.2461 55.0456 90.538C55.0456 91.259 55.2711 91.8771 55.7222 92.3921C56.1907 92.9072 56.9714 93.2934 58.0645 93.551C59.1575 93.8085 60.6496 93.9372 62.5407 93.9372L63.0612 96.1519L61.8641 96.976ZM73.4452 82.2716C72.9768 82.2716 72.5777 82.1171 72.2481 81.808C71.9184 81.4819 71.7536 81.087 71.7536 80.6235C71.7536 80.1599 71.9184 79.7651 72.2481 79.4389C72.5777 79.0955 72.9768 78.9238 73.4452 78.9238C73.8963 78.9238 74.2867 79.0955 74.6163 79.4389C74.946 79.7651 75.1108 80.1599 75.1108 80.6235C75.1108 81.087 74.946 81.4819 74.6163 81.808C74.2867 82.1171 73.8963 82.2716 73.4452 82.2716Z" fill="white"/>
<path d="M80.0393 96.5639L80.2995 93.5252C81.0109 93.5252 81.6008 93.4651 82.0692 93.3449C82.5377 93.2076 82.9107 92.9587 83.1883 92.5981C83.4833 92.2204 83.7262 91.6796 83.917 90.9758C84.1252 90.2547 84.3247 89.3105 84.5156 88.143L87.4044 88.6323C87.3523 88.907 87.2916 89.2246 87.2222 89.5851C87.1528 89.9457 87.0921 90.3062 87.04 90.6667C86.988 91.0273 86.9619 91.3534 86.9619 91.6453C86.9619 91.9372 87.0053 92.2033 87.0921 92.4436C87.1788 92.6668 87.3436 92.8556 87.5865 93.0102C87.8468 93.1647 88.2198 93.2934 88.7056 93.3964C89.1914 93.4823 89.816 93.5252 90.5794 93.5252C91.1346 93.5252 91.525 93.6711 91.7505 93.963C91.9934 94.2377 92.1149 94.581 92.1149 94.9931C92.1149 95.4223 91.9587 95.7914 91.6464 96.1004C91.3341 96.4094 90.8917 96.5639 90.3192 96.5639C89.4343 96.5639 88.6796 96.5038 88.055 96.3837C87.4304 96.2635 86.9099 96.0746 86.4935 95.8171C86.0944 95.5596 85.7821 95.2248 85.5566 94.8128C85.331 94.3836 85.1836 93.8686 85.1142 93.2677L86.1812 93.2934C85.8862 94.0145 85.5219 94.5982 85.0881 95.0446C84.6717 95.4738 84.2033 95.8 83.6828 96.0231C83.1623 96.2292 82.5897 96.3665 81.9651 96.4352C81.3579 96.521 80.7159 96.5639 80.0393 96.5639ZM87.04 102.126C86.5889 102.126 86.1985 101.963 85.8689 101.637C85.5566 101.328 85.4004 100.959 85.4004 100.53C85.4004 100.101 85.5566 99.7228 85.8689 99.3967C86.1985 99.0705 86.5889 98.9074 87.04 98.9074C87.4738 98.9074 87.8468 99.0705 88.1591 99.3967C88.4714 99.7228 88.6275 100.101 88.6275 100.53C88.6275 100.959 88.4714 101.328 88.1591 101.637C87.8468 101.963 87.4738 102.126 87.04 102.126ZM82.876 102.126C82.4249 102.126 82.0432 101.963 81.7309 101.637C81.4186 101.328 81.2625 100.959 81.2625 100.53C81.2625 100.101 81.4186 99.7228 81.7309 99.3967C82.0432 99.0705 82.4249 98.9074 82.876 98.9074C83.3098 98.9074 83.6828 99.0705 83.9951 99.3967C84.3074 99.7228 84.4635 100.101 84.4635 100.53C84.4635 100.959 84.3074 101.328 83.9951 101.637C83.6828 101.963 83.3098 102.126 82.876 102.126Z" fill="white"/>
<path d="M90.307 96.5639L90.5672 93.5252C91.1571 93.5424 91.7123 93.5424 92.2328 93.5252C92.7707 93.4909 93.2651 93.4479 93.7162 93.3964C94.1673 93.3449 94.5837 93.2848 94.9654 93.2162C95.3471 93.1303 95.6768 93.0531 95.9544 92.9844C96.5443 92.7956 97.0648 92.5638 97.5159 92.2891C97.967 91.9972 98.3226 91.6625 98.5829 91.2848C98.8605 90.8899 98.9993 90.4607 98.9993 89.9972C98.9993 89.6538 98.9212 89.3105 98.7651 88.9671C98.6089 88.6066 98.392 88.3061 98.1144 88.0658C97.8368 87.8254 97.5159 87.7053 97.1515 87.7053C96.8045 87.7053 96.4835 87.8168 96.1886 88.04C95.8937 88.2632 95.6508 88.5551 95.4599 88.9156C95.2864 89.2761 95.1996 89.671 95.1996 90.1002C95.1996 90.5294 95.3037 90.9242 95.512 91.2848C95.7375 91.6453 96.0238 91.9801 96.3708 92.2891C96.7178 92.581 97.1081 92.8471 97.5419 93.0874L94.4449 94.169C94.1153 93.86 93.7683 93.508 93.4039 93.1132C93.0569 92.7183 92.762 92.2548 92.5191 91.7226C92.2762 91.1904 92.1547 90.5895 92.1547 89.9199C92.1547 89.1645 92.2935 88.4778 92.5711 87.8598C92.8661 87.2245 93.2565 86.6752 93.7423 86.2116C94.2281 85.7481 94.7746 85.3876 95.3818 85.1301C95.9891 84.8725 96.605 84.7438 97.2296 84.7438C98.2012 84.7438 99.0427 84.9841 99.754 85.4648C100.483 85.9455 101.047 86.5636 101.446 87.319C101.845 88.0572 102.044 88.8555 102.044 89.7139C102.044 90.5208 101.888 91.2419 101.576 91.8771C101.281 92.5123 100.873 93.0788 100.353 93.5767C99.8494 94.0574 99.2769 94.478 98.6349 94.8386C98.0103 95.1991 97.3684 95.4909 96.7091 95.7141C96.3621 95.8515 95.9544 95.9716 95.4859 96.0746C95.0175 96.1777 94.5057 96.2721 93.9505 96.3579C93.3953 96.4266 92.814 96.4781 92.2068 96.5124C91.5995 96.5468 90.9663 96.5639 90.307 96.5639ZM103.736 96.5639C102.782 96.5639 101.819 96.5124 100.847 96.4094C99.8928 96.3064 98.9993 96.1605 98.1665 95.9716C97.351 95.7656 96.657 95.5253 96.0845 95.2506L97.8802 93.0359C98.4007 93.1561 99.008 93.2505 99.702 93.3192C100.413 93.3879 101.142 93.4394 101.888 93.4737C102.651 93.508 103.354 93.5252 103.996 93.5252C104.534 93.5252 104.924 93.6711 105.167 93.963C105.41 94.2377 105.532 94.581 105.532 94.9931C105.532 95.4223 105.367 95.7914 105.037 96.1004C104.725 96.4094 104.291 96.5639 103.736 96.5639ZM97.1515 82.2716C96.6831 82.2716 96.284 82.1171 95.9544 81.808C95.6247 81.4819 95.4599 81.087 95.4599 80.6235C95.4599 80.1599 95.6247 79.7651 95.9544 79.4389C96.284 79.0955 96.6831 78.9238 97.1515 78.9238C97.6026 78.9238 97.993 79.0955 98.3226 79.4389C98.6523 79.7651 98.8171 80.1599 98.8171 80.6235C98.8171 81.087 98.6523 81.4819 98.3226 81.808C97.993 82.1171 97.6026 82.2716 97.1515 82.2716Z" fill="white"/>
<path d="M120.59 96.5639C119.81 96.5639 119.089 96.5124 118.43 96.4094C117.771 96.2892 117.172 96.0918 116.634 95.8171C116.097 95.5253 115.628 95.1218 115.229 94.6068C114.83 94.0917 114.509 93.4308 114.266 92.6239L116.114 91.259C116.392 91.8599 116.73 92.3234 117.129 92.6496C117.545 92.9758 118.048 93.2076 118.638 93.3449C119.246 93.4651 119.983 93.5252 120.851 93.5252C121.388 93.5252 121.77 93.6711 121.996 93.963C122.239 94.2377 122.36 94.581 122.36 94.9931C122.36 95.4223 122.204 95.7914 121.892 96.1004C121.579 96.4094 121.145 96.5639 120.59 96.5639ZM103.726 96.5639L103.986 93.5252C104.906 93.5252 105.817 93.4651 106.719 93.3449C107.621 93.2248 108.497 93.0531 109.347 92.8299C110.198 92.6067 111.013 92.3234 111.794 91.9801C112.575 91.6367 113.312 91.2333 114.006 90.7697C113.52 90.4264 112.974 90.1345 112.366 89.8942C111.776 89.6367 111.135 89.4478 110.441 89.3276C109.747 89.1903 109.009 89.1216 108.228 89.1216C107.951 89.1216 107.673 89.1302 107.396 89.1474C107.118 89.1645 106.832 89.1989 106.537 89.2504C106.259 89.2847 105.964 89.3362 105.652 89.4049L105.183 86.4692C105.669 86.3318 106.172 86.2288 106.693 86.1601C107.231 86.0915 107.717 86.0571 108.15 86.0571C109.07 86.0571 109.911 86.1601 110.675 86.3661C111.438 86.5722 112.141 86.8297 112.783 87.1387C113.425 87.4477 114.023 87.7568 114.578 88.0658C115.151 88.3748 115.698 88.6409 116.218 88.8641C116.739 89.0701 117.259 89.1731 117.78 89.1731H118.586L118.899 92.0058C118.153 92.023 117.459 92.1518 116.817 92.3921C116.175 92.6153 115.541 92.9072 114.917 93.2677C114.31 93.611 113.659 93.9716 112.965 94.3493C112.271 94.727 111.49 95.0875 110.623 95.4308C109.755 95.757 108.758 96.0317 107.63 96.2549C106.502 96.4609 105.201 96.5639 103.726 96.5639ZM108.046 83.4047C107.578 83.4047 107.179 83.2502 106.849 82.9411C106.519 82.6149 106.355 82.2201 106.355 81.7565C106.355 81.293 106.519 80.8981 106.849 80.572C107.179 80.2286 107.578 80.0569 108.046 80.0569C108.497 80.0569 108.888 80.2286 109.217 80.572C109.547 80.8981 109.712 81.293 109.712 81.7565C109.712 82.2201 109.547 82.6149 109.217 82.9411C108.888 83.2502 108.497 83.4047 108.046 83.4047Z" fill="white"/>
<path d="M120.602 96.5639L120.862 93.5252C121.903 93.5252 122.701 93.4823 123.256 93.3964C123.811 93.2934 124.202 93.096 124.427 92.8041C124.67 92.4951 124.792 92.0488 124.792 91.465C124.792 91.0015 124.722 90.4521 124.583 89.8169C124.445 89.1817 124.271 88.5121 124.063 87.8083C123.855 87.1044 123.629 86.4434 123.386 85.8254L126.431 84.924C126.657 85.4906 126.865 86.1515 127.056 86.9069C127.264 87.6452 127.438 88.4006 127.576 89.1731C127.715 89.9285 127.785 90.641 127.785 91.3105C127.785 92.3578 127.62 93.2248 127.29 93.9115C126.978 94.5982 126.509 95.139 125.885 95.5339C125.277 95.9115 124.523 96.1777 123.621 96.3322C122.736 96.4867 121.729 96.5639 120.602 96.5639ZM127.134 82.6064C126.683 82.6064 126.301 82.4518 125.989 82.1428C125.677 81.8338 125.52 81.4561 125.52 81.0097C125.52 80.5805 125.677 80.2114 125.989 79.9024C126.301 79.5762 126.683 79.4131 127.134 79.4131C127.568 79.4131 127.941 79.5762 128.253 79.9024C128.565 80.2114 128.721 80.5805 128.721 81.0097C128.721 81.4561 128.565 81.8338 128.253 82.1428C127.941 82.4518 127.568 82.6064 127.134 82.6064ZM122.996 82.5806C122.545 82.5806 122.154 82.4261 121.825 82.1171C121.513 81.808 121.356 81.4389 121.356 81.0097C121.356 80.5805 121.513 80.2028 121.825 79.8767C122.137 79.5505 122.528 79.3874 122.996 79.3874C123.43 79.3874 123.794 79.5505 124.089 79.8767C124.401 80.2028 124.557 80.5805 124.557 81.0097C124.557 81.4389 124.401 81.808 124.089 82.1171C123.777 82.4261 123.412 82.5806 122.996 82.5806Z" fill="white"/>
<path d="M16.2783 120.215C16.2783 119.825 16.3123 119.375 16.3801 118.866C16.448 118.356 16.5668 117.796 16.7365 117.185C16.9232 116.557 17.1777 115.878 17.5002 115.148L20.1475 116.09C19.9609 116.599 19.7996 117.066 19.6639 117.491C19.5281 117.915 19.4263 118.314 19.3584 118.687C19.3075 119.061 19.2821 119.417 19.2821 119.757C19.2821 120.385 19.4178 120.928 19.6893 121.387C19.9609 121.862 20.3427 122.252 20.8348 122.558C21.3439 122.88 21.9464 123.127 22.6422 123.296C23.3549 123.466 24.144 123.551 25.0095 123.551C25.9599 123.551 26.8253 123.492 27.606 123.373C28.3866 123.254 29.0569 123.076 29.6169 122.838C30.1939 122.617 30.6352 122.346 30.9406 122.023C31.2631 121.718 31.4243 121.378 31.4243 121.005C31.4243 120.818 31.3564 120.648 31.2206 120.495C31.0849 120.343 30.8727 120.19 30.5842 120.037C30.3127 119.867 29.9648 119.706 29.5406 119.553C29.1163 119.383 28.6157 119.197 28.0387 118.993L28.726 115.963C29.5236 116.285 30.2533 116.565 30.9152 116.803C31.577 117.024 32.1879 117.21 32.748 117.363C33.308 117.499 33.8171 117.601 34.2753 117.669C34.7504 117.737 35.1832 117.771 35.5735 117.771C36.0996 117.771 36.4814 117.915 36.719 118.204C36.9566 118.475 37.0754 118.815 37.0754 119.222C37.0754 119.647 36.9142 120.012 36.5917 120.317C36.2863 120.623 35.862 120.775 35.3189 120.775C35.2002 120.775 35.0814 120.775 34.9626 120.775C34.8438 120.775 34.725 120.775 34.6062 120.775C34.4874 120.775 34.3601 120.775 34.2244 120.775C34.2583 120.945 34.2753 121.081 34.2753 121.183C34.2922 121.302 34.3007 121.429 34.3007 121.565C34.3007 122.142 34.0971 122.719 33.6898 123.296C33.2995 123.891 32.697 124.434 31.8825 124.926C31.0679 125.418 30.0582 125.809 28.8533 126.097C27.6484 126.386 26.2314 126.53 24.6022 126.53C22.9561 126.53 21.5052 126.301 20.2494 125.843C18.9936 125.401 18.0178 124.714 17.322 123.78C16.6262 122.847 16.2783 121.658 16.2783 120.215Z" fill="white"/>
<path d="M35.3283 120.775L35.5828 117.771C36.2617 117.771 36.7962 117.711 37.1865 117.592C37.5769 117.457 37.8823 117.21 38.1029 116.854C38.3235 116.48 38.5102 115.946 38.6629 115.25C38.8327 114.537 39.0108 113.603 39.1975 112.449L42.0231 112.932C41.9721 113.204 41.9128 113.518 41.8449 113.875C41.777 114.231 41.7176 114.588 41.6667 114.944C41.6158 115.301 41.5903 115.623 41.5903 115.912C41.5903 116.285 41.6752 116.616 41.8449 116.905C42.0146 117.177 42.337 117.389 42.8122 117.541C43.3043 117.694 44.0255 117.771 44.9759 117.771C45.502 117.771 45.8753 117.915 46.0959 118.204C46.3335 118.475 46.4523 118.815 46.4523 119.222C46.4523 119.647 46.2996 120.012 45.9941 120.317C45.6886 120.623 45.2644 120.775 44.7213 120.775C43.5674 120.775 42.6425 120.674 41.9467 120.47C41.2679 120.249 40.7588 119.901 40.4194 119.426C40.0969 118.951 39.8848 118.314 39.783 117.516L40.8267 117.541C40.5382 118.254 40.2072 118.832 39.8339 119.273C39.4606 119.697 39.0448 120.02 38.5866 120.241C38.1284 120.444 37.6278 120.58 37.0847 120.648C36.5417 120.733 35.9562 120.775 35.3283 120.775ZM39.783 126.199C39.3418 126.199 38.9684 126.047 38.6629 125.741C38.3575 125.435 38.2048 125.07 38.2048 124.646C38.2048 124.205 38.3575 123.823 38.6629 123.5C38.9684 123.178 39.3418 123.016 39.783 123.016C40.2242 123.016 40.5976 123.178 40.903 123.5C41.2255 123.823 41.3867 124.205 41.3867 124.646C41.3867 125.07 41.2255 125.435 40.903 125.741C40.5976 126.047 40.2242 126.199 39.783 126.199Z" fill="white"/>
<path d="M44.7249 120.775L44.9795 117.771C45.5395 117.771 45.9892 117.728 46.3286 117.643C46.685 117.558 46.9735 117.355 47.1941 117.032C47.4317 116.693 47.6438 116.192 47.8305 115.53C48.0171 114.851 48.2293 113.917 48.4669 112.729L51.2415 113.314C51.1736 113.705 51.0803 114.189 50.9615 114.766C50.8427 115.343 50.7833 115.852 50.7833 116.294C50.7833 116.599 50.8427 116.862 50.9615 117.083C51.0972 117.304 51.3263 117.474 51.6488 117.592C51.9712 117.711 52.4124 117.771 52.9725 117.771C53.4307 117.771 53.821 117.728 54.1434 117.643C54.4658 117.541 54.7374 117.329 54.958 117.007C55.1786 116.684 55.3737 116.166 55.5434 115.453C55.7132 114.74 55.8913 113.773 56.078 112.551L58.9036 113.034C58.8357 113.391 58.7678 113.79 58.6999 114.231C58.632 114.673 58.5726 115.097 58.5217 115.504C58.4708 115.895 58.4454 116.217 58.4454 116.472C58.4454 116.693 58.5048 116.905 58.6236 117.109C58.7423 117.312 58.9714 117.474 59.3108 117.592C59.6503 117.711 60.1424 117.771 60.7873 117.771C61.5849 117.771 62.1703 117.601 62.5437 117.261C62.917 116.922 63.1037 116.404 63.1037 115.708C63.1037 115.318 63.0952 114.902 63.0782 114.46C63.0613 114.002 63.0273 113.501 62.9764 112.958C62.9425 112.398 62.8746 111.761 62.7728 111.048L65.522 110.844C65.6238 112.27 65.7426 113.433 65.8783 114.333C66.0311 115.233 66.2347 115.937 66.4893 116.447C66.7608 116.939 67.1087 117.287 67.5329 117.491C67.9742 117.677 68.5596 117.771 69.2894 117.771C69.8154 117.771 70.1973 117.915 70.4348 118.204C70.6724 118.475 70.7912 118.815 70.7912 119.222C70.7912 119.647 70.6385 120.012 70.333 120.317C70.0276 120.623 69.5948 120.775 69.0348 120.775C68.5257 120.775 68.0336 120.725 67.5584 120.623C67.0832 120.504 66.642 120.326 66.2347 120.088C65.8274 119.833 65.471 119.502 65.1656 119.095C64.8601 118.67 64.631 118.161 64.4783 117.567L64.9365 117.72C64.7159 118.535 64.4019 119.163 63.9946 119.604C63.5874 120.045 63.0952 120.351 62.5182 120.521C61.9412 120.691 61.2794 120.775 60.5327 120.775C59.786 120.775 59.1327 120.682 58.5726 120.495C58.0296 120.292 57.5968 119.978 57.2744 119.553C56.9689 119.112 56.7908 118.526 56.7398 117.796H57.6053C57.2829 118.662 56.9096 119.307 56.4853 119.731C56.078 120.156 55.5774 120.436 54.9834 120.572C54.4064 120.708 53.6597 120.775 52.7434 120.775C52.2173 120.775 51.6912 120.716 51.1651 120.597C50.639 120.461 50.1639 120.173 49.7396 119.731C49.3323 119.29 49.0523 118.603 48.8996 117.669L50.0451 117.567C49.7226 118.518 49.3069 119.222 48.7978 119.68C48.2887 120.122 47.6947 120.419 47.0159 120.572C46.3371 120.708 45.5734 120.775 44.7249 120.775Z" fill="white"/>
<path d="M69.0368 120.775L69.2913 117.771C70.1908 117.771 71.0817 117.711 71.9642 117.592C72.8466 117.474 73.7036 117.304 74.5352 117.083C75.3667 116.862 76.1643 116.582 76.928 116.243C77.6916 115.903 78.4129 115.504 79.0917 115.046C78.6165 114.706 78.0819 114.418 77.488 114.18C76.911 113.926 76.2831 113.739 75.6043 113.62C74.9255 113.484 74.2042 113.416 73.4406 113.416C73.169 113.416 72.8975 113.425 72.626 113.442C72.3545 113.459 72.0745 113.493 71.786 113.544C71.5144 113.578 71.2259 113.628 70.9205 113.696L70.4623 110.793C70.9375 110.658 71.4296 110.556 71.9387 110.488C72.4648 110.42 72.9399 110.386 73.3642 110.386C74.2636 110.386 75.0867 110.488 75.8334 110.692C76.5801 110.895 77.2674 111.15 77.8953 111.456C78.5232 111.761 79.1086 112.067 79.6517 112.372C80.2117 112.678 80.7463 112.941 81.2554 113.162C81.7645 113.365 82.2736 113.467 82.7827 113.467H83.5718L83.8773 116.268C83.1476 116.285 82.4688 116.413 81.8408 116.65C81.2129 116.871 80.5935 117.16 79.9826 117.516C79.3886 117.856 78.7523 118.212 78.0734 118.586C77.3946 118.959 76.631 119.316 75.7825 119.655C74.934 119.978 73.9582 120.249 72.8551 120.47C71.752 120.674 70.4793 120.775 69.0368 120.775ZM76.3934 128.899C76.0031 128.899 75.6722 128.763 75.4006 128.491C75.1291 128.219 74.9934 127.888 74.9934 127.498C74.9934 127.108 75.1291 126.768 75.4006 126.479C75.6722 126.208 76.0031 126.072 76.3934 126.072C76.7837 126.072 77.1146 126.208 77.3862 126.479C77.6577 126.768 77.7934 127.108 77.7934 127.498C77.7934 127.888 77.6577 128.219 77.3862 128.491C77.1146 128.763 76.7837 128.899 76.3934 128.899ZM78.2516 125.792C77.8613 125.792 77.5304 125.656 77.2589 125.384C77.0043 125.113 76.877 124.782 76.877 124.391C76.877 124.001 77.0043 123.661 77.2589 123.373C77.5304 123.101 77.8613 122.965 78.2516 122.965C78.642 122.965 78.9729 123.101 79.2444 123.373C79.5159 123.661 79.6517 124.001 79.6517 124.391C79.6517 124.782 79.5159 125.113 79.2444 125.384C78.9729 125.656 78.642 125.792 78.2516 125.792ZM74.5861 125.792C74.1957 125.792 73.8563 125.656 73.5678 125.384C73.2963 125.113 73.1606 124.782 73.1606 124.391C73.1606 124.001 73.2963 123.661 73.5678 123.373C73.8563 123.101 74.1957 122.965 74.5861 122.965C74.9594 122.965 75.2818 123.101 75.5534 123.373C75.8419 123.661 75.9861 124.001 75.9861 124.391C75.9861 124.782 75.8419 125.113 75.5534 125.384C75.2818 125.656 74.9594 125.792 74.5861 125.792Z" fill="white"/>
<path d="M84.953 126.53L83.8838 123.831C84.9021 123.492 85.8015 123.093 86.5821 122.634C87.3627 122.193 88.0161 121.701 88.5422 121.157C89.0852 120.631 89.484 120.071 89.7386 119.477C90.0101 118.883 90.1459 118.263 90.1459 117.618C90.1459 116.871 89.9762 116.073 89.6368 115.224C89.3143 114.358 88.924 113.51 88.4658 112.678L91.2404 111.328C91.5459 111.871 91.8174 112.44 92.055 113.034C92.2926 113.628 92.4962 114.172 92.6659 114.664C92.8357 115.139 92.9629 115.513 93.0478 115.784C93.2854 116.565 93.5993 117.092 93.9896 117.363C94.3969 117.635 95.0163 117.771 95.8479 117.771C96.3909 117.771 96.7728 117.915 96.9934 118.204C97.2309 118.475 97.3497 118.815 97.3497 119.222C97.3497 119.647 97.197 120.012 96.8915 120.317C96.5861 120.623 96.1533 120.775 95.5933 120.775C94.8806 120.775 94.2696 120.665 93.7605 120.444C93.2684 120.207 92.8781 119.884 92.5896 119.477C92.3011 119.069 92.1144 118.619 92.0296 118.127L92.9205 118.611C92.8526 119.596 92.5726 120.512 92.0805 121.361C91.6053 122.227 90.9774 122.999 90.1968 123.678C89.4331 124.357 88.5931 124.935 87.6767 125.41C86.7603 125.902 85.8524 126.276 84.953 126.53Z" fill="white"/>
<path d="M95.6108 120.775L95.8654 117.771C96.646 117.771 97.2654 117.72 97.7236 117.618C98.1818 117.516 98.5042 117.321 98.6909 117.032C98.8946 116.727 98.9964 116.294 98.9964 115.734C98.9964 115.275 98.9285 114.732 98.7927 114.104C98.674 113.476 98.5042 112.814 98.2836 112.118C98.08 111.422 97.8679 110.768 97.6472 110.157L100.6 109.266C100.821 109.826 101.024 110.479 101.211 111.226C101.415 111.956 101.584 112.703 101.72 113.467C101.873 114.214 101.949 114.919 101.949 115.581C101.949 116.413 101.847 117.126 101.644 117.72C101.44 118.314 101.152 118.815 100.778 119.222C100.422 119.613 99.9807 119.927 99.4546 120.164C98.9285 120.385 98.343 120.546 97.6982 120.648C97.0533 120.733 96.3575 120.775 95.6108 120.775ZM98.5891 126.199C98.1479 126.199 97.7745 126.047 97.4691 125.741C97.1636 125.435 97.0109 125.07 97.0109 124.646C97.0109 124.205 97.1636 123.823 97.4691 123.5C97.7745 123.178 98.1479 123.016 98.5891 123.016C99.0303 123.016 99.4037 123.178 99.7091 123.5C100.032 123.823 100.193 124.205 100.193 124.646C100.193 125.07 100.032 125.435 99.7091 125.741C99.4037 126.047 99.0303 126.199 98.5891 126.199Z" fill="white"/>
<path d="M58.4033 161.56C65.2666 159.57 71.1551 152.058 62.9142 145.841C62.6133 145.622 62.3323 145.424 62.0637 145.264C62.5156 144.822 63.0701 144.498 63.6776 144.323C64.2851 144.147 64.9267 144.124 65.5451 144.257C65.565 144.257 65.5924 144.257 65.6123 144.272C65.655 144.277 65.6971 144.288 65.7366 144.304C66.6343 144.511 67.6365 144.998 68.753 145.841C76.9815 152.058 65.6023 160.127 58.4033 161.56Z" fill="#00B6FF"/>
<path d="M65.5571 144.257C64.9389 144.124 64.2971 144.147 63.6896 144.322C63.0821 144.498 62.5275 144.822 62.0757 145.264C57.8881 149.029 57.6966 161.56 57.6966 161.56H56.585C56.585 161.56 53.8994 146.973 57.8806 144.531H57.8955C57.9627 144.503 58.2462 144.379 58.6415 144.242C58.6415 144.242 58.6614 144.242 58.6689 144.242C59.1844 144.064 59.7168 143.94 60.2579 143.872C62.0334 143.712 63.8233 143.842 65.5571 144.257Z" fill="#D7E8F0"/>
<path d="M91.6678 32.724C91.6671 39.4909 89.3574 46.055 85.1203 51.3311C80.883 56.6071 74.9723 60.2795 68.3652 61.7409C61.758 63.2021 54.8499 62.3651 48.7829 59.3681C42.7161 56.3709 37.8536 51.3932 34.9991 45.2578C32.1448 39.1223 31.4695 32.1966 33.0851 25.6253C34.7007 19.0541 38.5103 13.231 43.8841 9.11848C49.2578 5.00599 55.8742 2.85039 62.6393 3.00808C69.4044 3.16573 75.913 5.62722 81.0894 9.98559C84.4034 12.7755 87.0674 16.2564 88.8949 20.1841C90.7221 24.1121 91.6686 28.392 91.6678 32.724Z" stroke="black" stroke-width="2" stroke-miterlimit="10"/>
<path d="M51.1915 186.882V199.813H22.0971C21.7554 199.813 21.4169 199.745 21.1017 199.613C20.7865 199.481 20.5008 199.288 20.2613 199.044C20.0218 198.8 19.8335 198.511 19.7072 198.193C19.5809 197.876 19.5193 197.536 19.5259 197.194L19.6701 189.413C19.6825 188.74 19.9589 188.098 20.4399 187.627C20.9208 187.155 21.5678 186.891 22.2414 186.892L51.1915 186.882Z" fill="#D7E8F0"/>
<path d="M97.3471 189.451V197.232C97.3471 197.914 97.0763 198.568 96.5939 199.05C96.1117 199.532 95.4577 199.803 94.7759 199.803H51.1914V186.872H94.7759C95.114 186.872 95.449 186.939 95.7616 187.069C96.0739 187.198 96.3579 187.388 96.5966 187.628C96.8356 187.867 97.0248 188.152 97.1536 188.465C97.2822 188.777 97.3481 189.112 97.3471 189.451Z" fill="#00B6FF"/>
<path d="M55.5726 199.803V226.124H27.6942C26.5061 226.122 25.3669 225.65 24.5249 224.812C23.6829 223.973 23.2061 222.837 23.1982 221.648V199.815L55.5726 199.803Z" fill="#D7E8F0"/>
<path d="M92.3416 199.803V221.636C92.3337 222.824 91.857 223.961 91.015 224.799C90.173 225.638 89.0338 226.109 87.8457 226.112H55.5732V199.803H92.3416Z" fill="#00B6FF"/>
<path d="M57.3166 31.0099C60.6214 31.0099 62.4118 33.4071 62.4118 36.3265C62.4118 40.0441 59.8779 42.0459 57.1524 42.0459C54.2306 42.0459 52 39.8974 52 36.6473C52 33.5911 53.957 31 57.2892 31L57.3166 31.0099ZM57.2072 33.6558C56.0782 33.6558 55.6356 34.9215 55.6356 36.5478C55.6356 38.2537 56.1603 39.4125 57.2619 39.4125C58.2565 39.4125 58.7763 38.4477 58.7763 36.5478C58.7763 34.8942 58.3635 33.6558 57.2345 33.6558H57.2072ZM57.5379 49.521L67.7334 31.0671H70.2773L60.1116 49.521H57.5379ZM70.7597 38.4477C74.0645 38.4477 75.8549 40.8424 75.8549 43.7642C75.8549 47.4819 73.321 49.4837 70.5931 49.4837C67.6737 49.4837 65.4431 47.3352 65.4431 44.0577C65.4431 41.0264 67.3977 38.4377 70.7323 38.4377L70.7597 38.4477ZM70.6478 41.0935C69.5188 41.0935 69.0787 42.3593 69.0787 43.9856C69.0787 45.6914 69.6034 46.8502 70.705 46.8502C71.6997 46.8502 72.2194 45.8556 72.2194 43.9557C72.2194 42.3046 71.8066 41.0935 70.6776 41.0935H70.6478Z" fill="#FF8832"/>
<path d="M45.5943 34.1592V33.8742C45.6015 32.5513 45.7246 31.4989 45.9635 30.7169C46.2097 29.9349 46.5573 29.3063 47.0062 28.8313C47.4551 28.3489 48.0018 27.9067 48.6462 27.5048C49.0879 27.227 49.4825 26.9237 49.8301 26.5949C50.1849 26.2587 50.4637 25.8859 50.6664 25.4766C50.8691 25.0601 50.9705 24.596 50.9705 24.0844C50.9705 23.507 50.8366 23.0064 50.5687 22.5825C50.3007 22.1586 49.9387 21.8297 49.4825 21.5958C49.0336 21.3619 48.5304 21.245 47.9728 21.245C47.4588 21.245 46.97 21.3583 46.5066 21.5848C46.0504 21.8041 45.6703 22.1403 45.3662 22.5934C45.0693 23.0392 44.9028 23.6057 44.8666 24.2927H41C41.0362 22.904 41.3693 21.742 41.9992 20.8065C42.6364 19.871 43.4763 19.1694 44.519 18.7016C45.5689 18.2339 46.7274 18 47.9946 18C49.3776 18 50.594 18.2448 51.6439 18.7345C52.7011 19.2242 53.5229 19.9221 54.1094 20.8284C54.7031 21.7274 55 22.7944 55 24.0296C55 24.8627 54.866 25.6082 54.5981 26.266C54.3375 26.9237 53.9646 27.5084 53.4794 28.02C52.9943 28.5316 52.4187 28.9884 51.7525 29.3904C51.166 29.7558 50.6845 30.1358 50.308 30.5305C49.9387 30.9252 49.6636 31.3893 49.4825 31.9228C49.3088 32.449 49.2183 33.0995 49.211 33.8742V34.1592H45.5943ZM47.4841 41C46.8324 41 46.2713 40.7661 45.8006 40.2984C45.33 39.8306 45.0946 39.2606 45.0946 38.5882C45.0946 37.9304 45.33 37.3677 45.8006 36.8999C46.2713 36.4322 46.8324 36.1983 47.4841 36.1983C48.1285 36.1983 48.6861 36.4322 49.1567 36.8999C49.6346 37.3677 49.8735 37.9304 49.8735 38.5882C49.8735 39.034 49.7613 39.4396 49.5368 39.8051C49.3196 40.1705 49.03 40.4628 48.668 40.6821C48.3132 40.894 47.9185 41 47.4841 41Z" fill="white"/>
<path d="M73.6253 31.836V31.6625C73.6294 30.8573 73.6998 30.2167 73.8363 29.7407C73.977 29.2647 74.1756 28.8821 74.4321 28.5929C74.6886 28.2993 75.001 28.0302 75.3693 27.7855C75.6217 27.6165 75.8472 27.4318 76.0458 27.2316C76.2485 27.027 76.4078 26.8001 76.5237 26.551C76.6395 26.2974 76.6974 26.0149 76.6974 25.7035C76.6974 25.3521 76.6209 25.0473 76.4678 24.7893C76.3147 24.5313 76.1078 24.3311 75.8472 24.1888C75.5906 24.0464 75.3031 23.9752 74.9845 23.9752C74.6907 23.9752 74.4114 24.0442 74.1466 24.1821C73.886 24.3155 73.6687 24.5202 73.495 24.796C73.3253 25.0674 73.2302 25.4121 73.2095 25.8303H71C71.0207 24.9851 71.211 24.2777 71.571 23.7083C71.9351 23.1389 72.4151 22.7118 73.0109 22.4271C73.6108 22.1424 74.2728 22 74.9969 22C75.7872 22 76.4823 22.149 77.0822 22.4471C77.6863 22.7452 78.1559 23.17 78.4911 23.7216C78.8304 24.2688 79 24.9183 79 25.6702C79 26.1773 78.9235 26.6311 78.7704 27.0315C78.6214 27.4318 78.4083 27.7877 78.1311 28.0991C77.8539 28.4105 77.525 28.6886 77.1443 28.9333C76.8092 29.1557 76.534 29.387 76.3189 29.6273C76.1078 29.8675 75.9506 30.15 75.8472 30.4747C75.7479 30.795 75.6961 31.191 75.692 31.6625V31.836H73.6253ZM74.7052 36C74.3328 36 74.0122 35.8576 73.7432 35.5729C73.4743 35.2882 73.3398 34.9412 73.3398 34.5319C73.3398 34.1316 73.4743 33.789 73.7432 33.5043C74.0122 33.2196 74.3328 33.0772 74.7052 33.0772C75.0734 33.0772 75.392 33.2196 75.661 33.5043C75.9341 33.789 76.0706 34.1316 76.0706 34.5319C76.0706 34.8033 76.0065 35.0502 75.8782 35.2726C75.7541 35.4951 75.5886 35.673 75.3817 35.8065C75.179 35.9355 74.9535 36 74.7052 36Z" fill="white"/>
<path d="M54.9642 161.423C50.5205 161.423 42.282 157.795 46.6412 152.936C47.1013 152.383 47.6735 151.935 48.3198 151.62L48.3546 151.598H48.3695C49.4122 151.111 50.528 150.801 51.6718 150.678C52.0399 150.647 52.4104 150.659 52.7759 150.713C52.194 150.685 51.5152 151.001 50.712 151.769C50.5702 151.899 50.4185 152.063 50.2619 152.234C45.9126 157.083 50.4732 161.032 54.9642 161.423Z" fill="#D7E8F0"/>
<path d="M56.1081 161.202L55.4168 161.333C55.4168 161.333 53.7706 153.595 50.7119 151.765C51.5151 150.996 52.2039 150.68 52.7759 150.708C52.7873 150.71 52.7993 150.71 52.8107 150.708L53.0594 150.742L53.1464 150.762C55.9986 151.64 56.1081 161.202 56.1081 161.202Z" fill="#00B6FF"/>
<path d="M55.5709 186.879H22.249C21.5748 186.879 20.9274 187.143 20.4465 187.616C19.9656 188.089 19.6895 188.731 19.6778 189.405L19.5385 197.186C19.5322 197.528 19.5941 197.867 19.7205 198.185C19.8469 198.502 20.0353 198.791 20.2747 199.035C20.5141 199.279 20.7997 199.473 21.1147 199.605C21.4298 199.737 21.7681 199.805 22.1098 199.805H94.7737C95.1117 199.805 95.4461 199.738 95.7582 199.609C96.0703 199.48 96.354 199.29 96.5927 199.051C96.8315 198.812 97.021 198.528 97.15 198.216C97.2791 197.904 97.3452 197.569 97.345 197.231V189.45C97.345 188.768 97.0742 188.114 96.5918 187.632C96.1096 187.15 95.4556 186.879 94.7737 186.879H46.6734" stroke="black" stroke-width="2" stroke-miterlimit="10"/>
<path d="M87.8451 226.126H27.6917C26.5008 226.122 25.3597 225.648 24.5179 224.805C23.6759 223.963 23.2015 222.821 23.1982 221.63V199.805H92.3286V221.63C92.3246 222.819 91.8514 223.959 91.0119 224.801C90.1721 225.643 89.0342 226.119 87.8451 226.126Z" stroke="black" stroke-width="2" stroke-miterlimit="10"/>
<path d="M83.628 163.217V168.235C83.628 168.675 83.4532 169.097 83.1421 169.408C82.8312 169.719 82.4092 169.894 81.9693 169.894H53.8447V161.559H81.9693C82.4092 161.559 82.8312 161.733 83.1421 162.044C83.4532 162.355 83.628 162.777 83.628 163.217Z" fill="#00B6FF"/>
<path d="M53.8448 161.559V169.894H35.0826C34.8626 169.894 34.6447 169.85 34.4418 169.764C34.2392 169.679 34.0551 169.555 33.9007 169.398C33.7465 169.241 33.6249 169.055 33.5431 168.851C33.4611 168.646 33.4208 168.428 33.424 168.208L33.5135 163.182C33.522 162.748 33.7005 162.335 34.0109 162.031C34.321 161.728 34.738 161.558 35.1722 161.559H53.8448Z" fill="#D7E8F0"/>
<path d="M80.4004 169.894V183.981C80.3977 184.75 80.0903 185.487 79.5458 186.031C79.0009 186.574 78.2629 186.88 77.4935 186.88H56.6748V169.894H80.4004Z" fill="#00B6FF"/>
<path d="M56.6751 169.894V186.88H38.7013C37.9329 186.878 37.1966 186.572 36.6532 186.029C36.1099 185.486 35.8037 184.749 35.8018 183.981V169.894H56.6751Z" fill="#D7E8F0"/>
<path d="M51.1895 186.879V199.805" stroke="black" stroke-width="2" stroke-miterlimit="10"/>
<path d="M55.5703 199.805V226.126" stroke="black" stroke-width="2" stroke-miterlimit="10"/>
<path d="M83.628 163.217V168.235C83.628 168.675 83.4532 169.097 83.1421 169.408C82.8312 169.719 82.4092 169.894 81.9693 169.894H53.8447V161.559H81.9693C82.4092 161.559 82.8312 161.733 83.1421 162.044C83.4532 162.355 83.628 162.777 83.628 163.217Z" stroke="black" stroke-width="2" stroke-miterlimit="10"/>
<path d="M53.8448 161.559V169.894H35.0826C34.8626 169.894 34.6447 169.85 34.4418 169.764C34.2392 169.679 34.0551 169.555 33.9007 169.398C33.7465 169.241 33.6249 169.055 33.5431 168.851C33.4611 168.646 33.4208 168.428 33.424 168.208L33.5135 163.182C33.522 162.748 33.7005 162.335 34.0109 162.031C34.321 161.728 34.738 161.558 35.1722 161.559H53.8448Z" stroke="black" stroke-width="2" stroke-miterlimit="10"/>
<path d="M80.4004 169.894V183.981C80.3977 184.75 80.0903 185.487 79.5458 186.031C79.0009 186.574 78.2629 186.88 77.4935 186.88H56.6748V169.894H80.4004Z" stroke="black" stroke-width="2" stroke-miterlimit="10"/>
<path d="M56.6751 169.894V186.88H38.7013C37.9329 186.878 37.1966 186.572 36.6532 186.029C36.1099 185.486 35.8037 184.749 35.8018 183.981V169.894H56.6751Z" stroke="black" stroke-width="2" stroke-miterlimit="10"/>
<path d="M59.6045 161.557C66.4802 159.568 77.0611 152.061 68.8351 145.844C67.9491 145.124 66.9214 144.6 65.8188 144.305C65.7795 144.287 65.7372 144.277 65.6944 144.275C65.067 144.128 64.4125 144.142 63.7921 144.316C63.1717 144.489 62.6054 144.818 62.1459 145.269" stroke="black" stroke-width="2" stroke-miterlimit="10"/>
<path d="M62.1451 145.263C57.955 149.031 57.766 161.556 57.766 161.556H56.652C56.652 161.556 52.5067 139.061 62.1451 145.263Z" stroke="black" stroke-width="2" stroke-miterlimit="10"/>
<path d="M58.4877 161.557H57.7666C57.7666 161.557 57.9556 149.031 62.1457 145.264C62.4379 145.442 62.7209 145.636 62.9937 145.843C71.2346 152.06 65.3486 159.58 58.4877 161.557Z" stroke="black" stroke-width="2" stroke-miterlimit="10"/>
<path d="M58.0693 144.399C58.7977 144.135 59.5534 143.953 60.3223 143.857C62.162 143.697 64.0155 143.848 65.8055 144.302" stroke="black" stroke-width="2" stroke-miterlimit="10"/>
<path d="M54.3673 161.557C49.8639 161.169 42.3888 157.792 46.7331 152.938C47.1944 152.383 47.7681 151.933 48.4166 151.617C48.4385 151.602 48.4629 151.59 48.4887 151.582C48.8595 151.415 49.2666 151.344 49.6722 151.376C50.0777 151.407 50.4686 151.541 50.8088 151.764" stroke="black" stroke-width="2" stroke-miterlimit="10"/>
<path d="M50.7959 151.765C53.8545 153.59 55.4933 161.336 55.4933 161.336L56.1846 161.199C56.1846 161.199 56.018 146.746 50.7959 151.765Z" stroke="black" stroke-width="2" stroke-miterlimit="10"/>
<path d="M55.0462 161.422L55.4938 161.335C55.4938 161.335 53.8551 153.589 50.7964 151.764C50.6522 151.893 50.5005 152.055 50.3414 152.226C45.9896 157.083 50.5527 161.029 55.0462 161.422Z" stroke="black" stroke-width="2" stroke-miterlimit="10"/>
<path d="M53.221 150.732C52.7366 150.656 52.2455 150.635 51.7564 150.669C50.5938 150.794 49.4609 151.114 48.4043 151.614" stroke="black" stroke-width="2" stroke-miterlimit="10"/>
<path d="M200.585 60.4435L201.557 62.1842C201.557 62.1842 200.135 65.3473 203.947 65.8944C207.759 66.4415 212.777 62.694 212.914 60.2197C218.77 62.4826 221.866 68.1772 221.921 74.2746C222.02 89.3689 202.599 98.5199 189.621 97.1522C183.098 96.4684 176.939 93.5913 171.796 89.5305C171.11 88.9983 170.451 88.4388 169.807 87.8619C168.503 86.6735 167.282 85.3981 166.151 84.0448C165.566 83.3486 164.996 82.6364 164.44 81.9088" stroke="black" stroke-width="2" stroke-miterlimit="10"/>
<path d="M208.908 53.3604L212.643 60.4848" stroke="black" stroke-width="2" stroke-miterlimit="10"/>
<path d="M15 226.124H231" stroke="black" stroke-width="2" stroke-miterlimit="10"/>
<path d="M164.03 25.6807H163.998C162.795 25.8846 161.347 26.9563 160.596 28.3439C159.736 29.913 159.636 31.8253 159.452 32.636C159.433 32.728 159.413 32.8175 159.403 32.8996C159.381 32.9687 159.365 33.0393 159.353 33.1109L159.321 33.2328C159.205 33.6254 158.948 33.9609 158.598 34.1733C158.249 34.3859 157.833 34.4602 157.431 34.3819C157.03 34.3033 156.672 34.0778 156.428 33.7493C156.184 33.4208 156.072 33.0132 156.113 32.6061L156.182 32.0392C156.205 31.8353 156.235 31.6438 156.274 31.4523C156.355 30.8968 156.477 30.3482 156.64 29.8111C156.662 29.7268 156.688 29.6437 156.72 29.5624C156.75 29.4341 156.79 29.3085 156.841 29.1869C156.865 29.1215 156.893 29.0576 156.923 28.9954" stroke="black" stroke-width="2" stroke-miterlimit="10"/>
<path d="M167.084 37.0083C166.331 37.7295 165.612 38.089 164.926 38.0875C164.635 38.0878 164.347 38.0224 164.085 37.8961C163.839 37.7854 163.616 37.6275 163.431 37.4311C162.81 36.792 162.834 35.7202 163.13 35.0015C163.344 34.535 163.634 34.1073 163.988 33.7358C164.1 33.609 164.21 33.4871 164.307 33.3553C164.634 32.9826 164.881 32.5467 165.033 32.0747C165.033 32.0473 165.033 32.0225 165.045 31.9951" stroke="black" stroke-width="2" stroke-miterlimit="10"/>
<path d="M161.181 24.9844C161.646 25.0714 162.093 25.1783 162.551 25.2828C163.008 25.3872 163.516 25.5315 163.993 25.6807C165.087 26.0042 166.112 26.5276 167.014 27.2249C169.466 29.0377 169.981 32.1287 168.213 34.409" stroke="black" stroke-width="2" stroke-miterlimit="10"/>
<path d="M159.453 32.6355C159.453 32.6579 159.453 32.6778 159.44 32.7051C159.434 32.7887 159.422 32.8717 159.406 32.9538L159.351 33.5208C159.319 33.8271 159.373 34.1365 159.508 34.4132C159.644 34.6898 159.854 34.9228 160.116 35.0854C160.378 35.2478 160.68 35.3333 160.988 35.3318C161.296 35.3306 161.597 35.2423 161.857 35.0774C162.045 34.9616 162.206 34.8079 162.331 34.6264C162.456 34.4451 162.542 34.2397 162.584 34.0231C162.631 33.8117 162.671 33.5829 162.725 33.3666C162.924 32.5261 162.999 31.7751 163.626 31.1286C163.802 30.9458 164.012 30.7988 164.245 30.6959C164.303 30.671 164.364 30.6516 164.426 30.6387" stroke="black" stroke-width="2" stroke-miterlimit="10"/>
<path d="M152.805 31.1496V31.085C152.912 30.0095 153.196 28.9591 153.646 27.9766C153.925 27.3624 154.298 26.7959 154.753 26.2981C155.465 25.4946 156.43 24.9577 157.488 24.7762C157.794 24.7315 158.095 24.7016 158.403 24.6867C159.333 24.6735 160.26 24.7737 161.166 24.9851C160.42 25.0423 159.142 25.8405 158.219 26.8452C157.85 27.2259 157.541 27.661 157.304 28.1358C157.187 28.3844 157.055 28.658 156.963 28.9216C156.869 29.1354 156.787 29.3518 156.715 29.5631C156.498 30.1748 156.312 30.7791 156.17 31.3361C156.105 31.5848 156.046 31.8335 155.998 32.0573C155.921 32.4718 155.695 32.8433 155.361 33.1014C155.028 33.3598 154.611 33.4864 154.191 33.4573C153.763 33.4073 153.371 33.1905 153.102 32.8538C152.833 32.5171 152.708 32.0879 152.753 31.6594L152.803 31.1496" stroke="black" stroke-width="2" stroke-miterlimit="10"/>
<path d="M150.851 74.6935C150.429 73.8455 150.155 72.9155 150.563 72.1048C151.486 70.2646 154.452 71.2394 156.188 70.1154C157.68 69.1581 157.528 68.0216 158.344 66.6042C159.296 64.9456 161.012 65.6095 162.323 66.4351C163.996 67.482 167.652 71.1599 173.513 74.783C175.336 75.9164 177.081 77.1717 178.735 78.5404C183.343 82.3376 194.821 88.9174 204.8 71.2171" stroke="black" stroke-width="2" stroke-miterlimit="10"/>
<path d="M164.682 82.2031C163.864 81.3701 162.974 80.4898 161.825 80.2809C160.599 80.0546 159.376 80.634 158.135 80.6937C155.079 80.8329 152.811 77.9857 151.237 75.3622C151.108 75.1508 150.988 74.9245 150.861 74.6982" stroke="black" stroke-width="2" stroke-miterlimit="10"/>
<path d="M157.391 78.1424C157.391 78.1424 154.469 79.7115 153.226 78.0977" stroke="black" stroke-width="2" stroke-miterlimit="10"/>
<path d="M151.493 75.8027C151.493 75.8027 153.868 77.4191 155.534 76.0713" stroke="black" stroke-width="2" stroke-miterlimit="10"/>
<path d="M150.391 73.667C150.391 73.667 152.457 74.9327 153.345 74.0251" stroke="black" stroke-width="2" stroke-miterlimit="10"/>
</g>
<defs>
<filter id="filter0_d_1959_3632" x="0" y="0" width="237.78" height="233.127" filterUnits="userSpaceOnUse" color-interpolation-filters="sRGB">
<feFlood flood-opacity="0" result="BackgroundImageFix"/>
<feColorMatrix in="SourceAlpha" type="matrix" values="0 0 0 0 0 0 0 0 0 0 0 0 0 0 0 0 0 0 127 0" result="hardAlpha"/>
<feOffset dx="2" dy="2"/>
<feGaussianBlur stdDeviation="2"/>
<feComposite in2="hardAlpha" operator="out"/>
<feColorMatrix type="matrix" values="0 0 0 0 0 0 0 0 0 0 0 0 0 0 0 0 0 0 0.25 0"/>
<feBlend mode="normal" in2="BackgroundImageFix" result="effect1_dropShadow_1959_3632"/>
<feBlend mode="normal" in="SourceGraphic" in2="effect1_dropShadow_1959_3632" result="shape"/>
</filter>
</defs>
</svg>
