<svg width="172" height="175" viewBox="0 0 172 175" fill="none" xmlns="http://www.w3.org/2000/svg">
<g clip-path="url(#clip0_7172_10391)">
<path d="M9.82485 175C3.82406 175 -0.53118 169.325 1.0094 163.539C3.46927 154.3 10.5159 141.913 30.2125 136.037C56.3725 128.234 54.906 96.7812 75.8003 96.7812C96.6947 96.7812 96.8048 112.754 103.035 114.379C109.264 116.004 130.147 111.18 134.812 125.419C143.435 151.74 155.009 139.051 163.991 159.321C164.55 160.591 165.033 161.893 165.44 163.219C167.249 169.072 162.856 175.001 156.716 175.001L9.82485 175Z" fill="#F3F5FD"/>
<path d="M151.621 150.731C150.787 153.252 147.909 155.492 148.768 157.345C149.096 158.05 149.424 158.787 149.575 159.54C149.673 159.989 149.689 160.451 149.623 160.906C149.313 162.869 147.472 164.173 145.76 165.188C145.654 165.25 145.548 165.314 145.441 165.378C143.819 166.348 142.119 167.464 141.598 169.254C141.309 170.249 141.437 171.312 141.317 172.34C141.203 173.285 140.882 174.194 140.375 175H129.442C128.471 173.933 128.552 172.139 129.29 170.881C130.081 169.534 131.417 168.619 132.622 167.623C133.663 166.762 134.678 165.726 135.076 164.463C135.139 164.263 135.185 164.058 135.215 163.85C135.311 163.167 135.259 159.674 136.448 157.523C138.285 154.203 141.265 155.021 142.175 153.148C142.525 152.43 142.826 143.613 148.63 145.241C149.196 145.392 149.726 145.657 150.186 146.018C150.646 146.38 151.028 146.832 151.308 147.345C151.588 147.859 151.76 148.424 151.814 149.006C151.867 149.588 151.802 150.175 151.621 150.731Z" fill="#C1D8ED"/>
<path d="M162.239 164.518C162.072 164.633 161.893 164.728 161.705 164.801C160.138 165.388 155.783 165.323 155.145 166.866C154.846 167.591 154.774 168.392 154.517 169.134C153.935 170.818 152.398 172.08 150.678 172.554C150.059 172.725 149.418 172.804 148.805 172.994C147.622 173.362 146.642 174.101 145.781 175H131.661C131.655 174.065 131.885 173.145 132.33 172.323C132.776 171.501 133.422 170.805 134.209 170.299C135.779 169.311 137.763 169.126 139.304 168.094C140.32 167.413 141.051 166.429 141.631 165.341C142 164.629 142.326 163.896 142.607 163.145C143.038 162.028 143.489 160.83 144.469 160.139C144.935 159.81 145.488 159.626 146.041 159.481C147.456 159.112 148.544 159.329 149.575 159.54C150.826 159.794 151.993 160.038 153.561 159.207C156.341 157.733 160.407 150.382 164.469 157.366C166.099 160.167 163.851 163.442 162.239 164.518Z" fill="#00B6FF"/>
<path d="M21.949 150.731C22.783 153.252 25.6612 155.492 24.8017 157.345C24.4747 158.05 24.1463 158.787 23.9952 159.54C23.8971 159.989 23.8808 160.451 23.947 160.906C24.2571 162.869 26.0982 164.173 27.8103 165.188C27.9159 165.25 28.0227 165.314 28.1295 165.378C29.7517 166.348 31.4507 167.464 31.9719 169.254C32.2612 170.249 32.1335 171.312 32.2534 172.34C32.367 173.285 32.6887 174.194 33.1954 175H44.1287C45.0993 173.933 45.0186 172.139 44.2797 170.881C43.4894 169.534 42.1533 168.619 40.9481 167.623C39.9069 166.762 38.8919 165.726 38.4945 164.463C38.4314 164.263 38.3848 164.058 38.3552 163.85C38.2587 163.167 38.3108 159.674 37.1225 157.523C35.2854 154.203 32.3055 155.021 31.3948 153.148C31.0455 152.43 30.7446 143.613 24.9399 145.241C24.3739 145.392 23.8445 145.657 23.3842 146.018C22.9239 146.38 22.5422 146.832 22.2623 147.345C21.9825 147.859 21.8104 148.424 21.7566 149.006C21.7027 149.588 21.7682 150.175 21.949 150.731Z" fill="#C1D8ED"/>
<path d="M11.3313 164.518C11.498 164.633 11.6772 164.728 11.8656 164.801C13.4317 165.388 17.7876 165.323 18.4247 166.866C18.7244 167.591 18.796 168.392 19.0526 169.134C19.6351 170.818 21.1726 172.08 22.8925 172.554C23.5115 172.725 24.1522 172.804 24.7648 172.994C25.948 173.362 26.9278 174.101 27.789 175H41.9093C41.9155 174.065 41.6852 173.145 41.2397 172.323C40.7942 171.501 40.1479 170.805 39.3607 170.299C37.7906 169.311 35.8075 169.126 34.266 168.094C33.2498 167.413 32.5188 166.429 31.939 165.341C31.5702 164.629 31.2445 163.896 30.9634 163.145C30.5322 162.028 30.0813 160.83 29.1015 160.139C28.6351 159.81 28.0826 159.626 27.5288 159.481C26.1139 159.112 25.0259 159.329 23.9952 159.54C22.7443 159.794 21.577 160.038 20.0094 159.207C17.2289 157.733 13.1636 150.382 9.10103 157.366C7.47154 160.167 9.71912 163.442 11.3313 164.518Z" fill="#00B6FF"/>
<path d="M113.468 138.762H107.458C106.698 138.762 106.082 139.376 106.082 140.134V145.321C106.082 146.079 106.698 146.694 107.458 146.694H113.468C114.227 146.694 114.843 146.079 114.843 145.321V140.134C114.843 139.376 114.227 138.762 113.468 138.762Z" fill="#C1D8ED"/>
<path d="M72.0682 114.763H63.9607C62.9358 114.763 62.105 115.592 62.105 116.614V123.611C62.105 124.634 62.9358 125.463 63.9607 125.463H72.0682C73.0931 125.463 73.9239 124.634 73.9239 123.611V116.614C73.9239 115.592 73.0931 114.763 72.0682 114.763Z" fill="#DEE9FF"/>
<path d="M85.369 111.768C85.4025 111.767 85.4359 111.769 85.4689 111.775C86.3004 112.05 86.5532 112.455 86.6909 112.814C86.8346 113.23 86.8862 113.671 86.8423 114.109C86.7755 114.797 86.508 115.451 86.0727 115.99C85.858 116.249 85.5942 116.463 85.2964 116.62C84.9985 116.778 84.6725 116.875 84.337 116.906C82.8004 117.081 81.2546 117.165 79.708 117.156C79.0301 117.156 78.334 117.143 77.6198 117.117C78.8109 115.886 80.0935 114.746 81.4565 113.707C83.9387 111.861 85.1511 111.768 85.369 111.768ZM85.369 108.811C82.3268 108.811 77.5889 112.315 72.3638 118.504C72.2722 118.607 72.2121 118.735 72.1905 118.872C72.169 119.008 72.1868 119.148 72.2419 119.275C72.2917 119.406 72.3779 119.52 72.4904 119.605C72.6028 119.689 72.7369 119.739 72.8771 119.75C74.7684 119.94 77.1902 120.113 79.708 120.113C81.3741 120.122 83.0392 120.031 84.6945 119.841C87.8766 119.455 89.5478 116.832 89.7915 114.404C89.8903 113.425 89.9367 110.141 86.4035 108.968C86.0695 108.861 85.7201 108.807 85.369 108.811Z" fill="#DEE9FF"/>
<path d="M50.7906 111.768C51.0085 111.768 52.2216 111.861 54.7035 113.707C56.0665 114.746 57.349 115.886 58.54 117.117C57.8264 117.143 57.1302 117.156 56.4515 117.156C54.9049 117.165 53.3591 117.081 51.8225 116.905C51.487 116.874 51.1611 116.777 50.8633 116.62C50.5655 116.463 50.3017 116.248 50.087 115.989C49.6517 115.451 49.3841 114.797 49.3173 114.108C49.2735 113.671 49.3252 113.229 49.4688 112.814C49.6065 112.455 49.8594 112.05 50.6868 111.776C50.721 111.769 50.7558 111.767 50.7906 111.768ZM50.7906 108.811C50.4395 108.807 50.0903 108.861 49.7562 108.968C46.2235 110.14 46.2697 113.425 46.3683 114.403C46.6124 116.832 48.2832 119.455 51.465 119.841C53.1202 120.031 54.7854 120.122 56.4515 120.113C58.9699 120.113 61.3913 119.939 63.2828 119.75C63.4229 119.739 63.5569 119.688 63.6693 119.604C63.7817 119.52 63.8678 119.406 63.9176 119.275C63.9727 119.148 63.9905 119.008 63.9689 118.871C63.9473 118.735 63.8872 118.607 63.7955 118.503C58.5712 112.315 53.8332 108.811 50.7906 108.811Z" fill="#DEE9FF"/>
<path d="M73.3713 126.547H62.1646V175H73.3713V126.547Z" fill="white"/>
<g opacity="0.19">
<path d="M96.1262 126.45H39.4092V136.54H96.1262V126.45Z" fill="black"/>
</g>
<path d="M100.067 118.984H35.4692V129.014H100.067V118.984Z" fill="#DEE9FF"/>
<path d="M123.972 137.053C124.45 137.222 124.565 137.431 124.636 137.615C124.727 137.882 124.759 138.165 124.73 138.445C124.702 138.721 124.494 140.109 123.121 140.275C121.935 140.41 120.743 140.475 119.55 140.468C119.323 140.468 119.094 140.466 118.862 140.463C121.683 137.749 123.437 137.057 123.972 137.053ZM123.976 134.343C121.597 134.343 117.893 137.083 113.809 141.92C113.737 142.001 113.69 142.101 113.673 142.208C113.656 142.315 113.67 142.425 113.713 142.524C113.752 142.626 113.82 142.716 113.907 142.782C113.995 142.847 114.1 142.887 114.21 142.895C115.688 143.043 117.581 143.179 119.55 143.179C120.853 143.185 122.154 143.114 123.448 142.966C125.936 142.664 127.242 140.614 127.433 138.715C127.51 137.95 127.547 135.382 124.784 134.466C124.523 134.382 124.25 134.34 123.976 134.343Z" fill="#C1D8ED"/>
<path d="M96.9472 137.054C97.4822 137.057 99.2362 137.749 102.057 140.463C101.825 140.467 101.596 140.469 101.369 140.469C100.176 140.475 98.9835 140.411 97.7982 140.276C96.4252 140.109 96.2175 138.721 96.1892 138.444C96.1604 138.165 96.1925 137.882 96.2833 137.615C96.3538 137.431 96.4695 137.222 96.9472 137.054ZM96.9433 134.343C96.6688 134.341 96.3958 134.382 96.1346 134.466C93.3724 135.382 93.4089 137.95 93.4861 138.715C93.6769 140.614 94.9831 142.665 97.4705 142.966C98.7645 143.115 100.066 143.186 101.369 143.179C103.338 143.179 105.23 143.044 106.709 142.895C106.819 142.887 106.924 142.847 107.011 142.781C107.099 142.716 107.167 142.626 107.206 142.524C107.249 142.425 107.263 142.315 107.246 142.208C107.229 142.101 107.182 142.001 107.11 141.92C103.026 137.082 99.3219 134.343 96.9433 134.343V134.343Z" fill="#C1D8ED"/>
<path d="M132.385 148.133H88.0454V174.999H132.385V148.133Z" fill="#C1D8ED"/>
<path d="M114.596 148.209H105.835V175H114.596V148.209Z" fill="white"/>
<g opacity="0.19">
<path d="M132.385 148.133H88.0454V156.021H132.385V148.133Z" fill="black"/>
</g>
<path d="M135.466 142.297H84.9653V150.138H135.466V142.297Z" fill="#C1D8ED"/>
<path d="M116.575 142.297H103.856V150.138H116.575V142.297Z" fill="white"/>
<g filter="url(#filter0_d_7172_10391)">
<path d="M19.7086 108.743C19.7086 108.743 20.4496 108.276 20.2564 107.735C20.0632 107.194 19.5723 106.96 18.8097 107.222C18.2674 107.408 18.1874 107.284 17.7017 107.095C17.4234 106.986 16.5477 107.112 16.375 107.723C16.19 108.378 15.4281 107.917 15.4403 108.96C15.4505 109.832 15.7052 110.947 16.73 111.633" fill="#0F1011"/>
<path d="M16.9534 113.6C16.9534 113.6 17.5897 113.199 17.304 111.409L18.6539 111.052C18.6539 111.052 18.6234 112.678 19.3555 113.138L16.9534 113.6Z" fill="#F5AE92"/>
<g opacity="0.15">
<path d="M19.0493 112.822L17.845 112.04L18.738 111.963C18.7873 112.266 18.8928 112.558 19.0493 112.822Z" fill="black"/>
</g>
<path d="M16.4734 110.77C16.61 111.31 16.9484 111.804 17.4451 111.944C18.0346 112.11 18.4605 112.092 19.1218 112.042C20.0242 111.973 19.9225 111.036 19.8757 110.088C19.8286 109.136 19.675 108.123 19.2931 107.819C18.5306 107.213 16.4733 107.79 16.3035 108.915C16.2157 109.496 16.3434 110.257 16.4734 110.77Z" fill="#F5AE92"/>
<path d="M17.4054 111.895C17.3838 111.988 17.367 112.029 17.2813 111.987C16.9446 111.82 16.1881 111.46 15.8224 109.923C15.4946 108.545 16.3125 107.904 16.9848 107.647C17.564 107.425 18.9445 107.283 19.6235 107.624C20.2086 107.918 19.709 108.743 19.709 108.743C19.3419 109.05 18.2375 109.039 17.8166 109.089C17.4314 109.134 17.4211 109.37 17.4463 109.52C17.5992 110.427 17.4816 111.566 17.4054 111.895Z" fill="#0F1011"/>
<path d="M18.5771 110.187C18.5083 110.187 18.4525 110.131 18.4525 110.063C18.4525 109.994 18.5083 109.938 18.5771 109.938C18.6459 109.938 18.7017 109.994 18.7017 110.063C18.7017 110.131 18.6459 110.187 18.5771 110.187Z" fill="#0F1011"/>
<path d="M19.5507 110.032C19.4819 110.032 19.4261 109.976 19.4261 109.908C19.4261 109.839 19.4819 109.783 19.5507 109.783C19.6195 109.783 19.6753 109.839 19.6753 109.908C19.6753 109.976 19.6195 110.032 19.5507 110.032Z" fill="#0F1011"/>
<path d="M19.412 109.648H19.4157L19.7452 109.627C19.7604 109.626 19.7746 109.619 19.7846 109.607C19.7946 109.596 19.7997 109.581 19.7987 109.565C19.7977 109.55 19.7908 109.536 19.7794 109.526C19.768 109.515 19.7531 109.51 19.7378 109.511L19.4084 109.532C19.3933 109.533 19.3793 109.54 19.3692 109.551C19.3591 109.562 19.3538 109.577 19.3542 109.592C19.3547 109.607 19.361 109.621 19.3717 109.632C19.3825 109.642 19.3969 109.648 19.412 109.648V109.648Z" fill="#0F1011"/>
<path d="M18.2872 109.858C18.2933 109.858 18.2994 109.857 18.3052 109.856L18.6233 109.753C18.6382 109.748 18.6505 109.738 18.6576 109.724C18.6647 109.71 18.666 109.694 18.6612 109.679C18.6565 109.665 18.646 109.652 18.6322 109.645C18.6183 109.638 18.6022 109.637 18.5874 109.641L18.2692 109.744C18.256 109.749 18.2447 109.758 18.2374 109.769C18.2301 109.781 18.2272 109.795 18.2294 109.809C18.2316 109.823 18.2386 109.835 18.2492 109.844C18.2598 109.853 18.2733 109.858 18.2872 109.858Z" fill="#0F1011"/>
<path d="M17.9539 110.415C17.9648 110.483 17.9621 110.553 17.9459 110.62C17.9298 110.688 17.9005 110.751 17.8598 110.807C17.8191 110.863 17.7677 110.91 17.7086 110.947C17.6495 110.983 17.5838 111.007 17.5153 111.018C17.4468 111.029 17.3769 111.026 17.3094 111.01C17.2419 110.994 17.1783 110.965 17.1222 110.924C17.066 110.884 17.0185 110.832 16.9822 110.773C16.9459 110.714 16.9216 110.649 16.9107 110.58C16.8986 110.512 16.9004 110.442 16.916 110.374C16.9317 110.306 16.9608 110.242 17.0017 110.186C17.0427 110.13 17.0945 110.082 17.1542 110.046C17.2139 110.01 17.2802 109.987 17.3492 109.977C17.7237 109.936 17.9081 110.127 17.9539 110.415Z" fill="#F5AE92"/>
<g opacity="0.15">
<path d="M19.1775 110.708C19.1828 110.708 19.1882 110.707 19.1932 110.705L19.4855 110.591C19.4912 110.589 19.4963 110.585 19.5005 110.581C19.5047 110.577 19.508 110.571 19.5101 110.566C19.5121 110.56 19.513 110.554 19.5126 110.548C19.5122 110.542 19.5105 110.536 19.5076 110.531L19.2776 110.109C19.2751 110.104 19.2715 110.099 19.2671 110.095C19.2627 110.092 19.2576 110.089 19.2521 110.087C19.2466 110.085 19.2408 110.085 19.235 110.085C19.2292 110.086 19.2236 110.087 19.2186 110.09C19.2135 110.093 19.209 110.097 19.2054 110.101C19.2018 110.106 19.1991 110.111 19.1976 110.117C19.1961 110.122 19.1957 110.128 19.1965 110.134C19.1972 110.139 19.1992 110.145 19.2021 110.15L19.4085 110.529L19.1618 110.626C19.1525 110.629 19.1448 110.636 19.14 110.645C19.1351 110.654 19.1335 110.664 19.1354 110.674C19.1372 110.683 19.1424 110.692 19.1501 110.699C19.1578 110.705 19.1675 110.709 19.1775 110.709V110.708Z" fill="black"/>
</g>
<path d="M18.709 111.034C18.709 111.034 19.1713 111.048 19.4842 110.911C19.4842 110.911 19.5046 111.213 19.144 111.27C18.7834 111.327 18.709 111.034 18.709 111.034Z" fill="white"/>
<path d="M22.336 104.431L23.291 104.078C23.291 104.078 23.4114 102.769 22.31 102.077C21.9449 101.848 21.6785 102.256 21.7454 102.389C21.9665 102.829 22.2286 103.234 22.2234 103.657C22.0822 103.525 21.8786 103.357 21.8186 103.419C21.6605 103.58 22.336 104.431 22.336 104.431Z" fill="#F5AE92"/>
<path d="M8.18994 133.489L8.54782 131.723C8.55315 131.724 8.5601 131.726 8.56836 131.728C8.43869 131.695 7.6577 131.445 7.00851 131.231L6.44386 132.943C7.9755 133.446 8.13689 133.478 8.18994 133.489Z" fill="#F5AE92"/>
<path d="M5.23978 134.967C5.22839 135.014 5.22685 135.063 5.23526 135.111C5.24367 135.159 5.26185 135.204 5.28866 135.244C5.31548 135.285 5.35034 135.319 5.3911 135.346C5.43185 135.372 5.4776 135.39 5.52551 135.398C5.59191 135.408 5.66007 135.4 5.72196 135.374C5.78385 135.347 5.8369 135.304 5.87486 135.249L7.06146 133.381C7.08429 133.345 7.09901 133.304 7.10461 133.261C7.1102 133.219 7.10654 133.176 7.09387 133.135C6.9683 132.807 6.95148 132.448 7.04589 132.11C7.13035 131.849 7.28646 131.618 7.49645 131.441C7.51666 131.426 7.53216 131.406 7.54112 131.382C7.55009 131.359 7.55216 131.333 7.5471 131.308C7.54203 131.284 7.53004 131.261 7.51251 131.243C7.49499 131.225 7.47265 131.212 7.44813 131.206L6.45071 130.961C6.42127 130.954 6.39068 130.952 6.36071 130.957C6.33074 130.961 6.30197 130.972 6.27605 130.987C6.25013 131.003 6.22758 131.024 6.20968 131.048C6.19179 131.073 6.1789 131.1 6.17177 131.13L5.23978 134.967Z" fill="#C1D8ED"/>
<path d="M21.4968 145.838C22.1363 144.362 22.1833 144.204 22.1987 144.152L20.4681 143.638C20.4697 143.633 20.4717 143.626 20.4745 143.618C20.4303 143.744 20.1103 144.498 19.8393 145.124L21.4968 145.838Z" fill="#F5AE92"/>
<path d="M23.4095 147.216C23.4555 147.232 23.5042 147.238 23.5527 147.234C23.6011 147.23 23.6482 147.216 23.691 147.193C23.7337 147.17 23.7713 147.138 23.8013 147.1C23.8313 147.062 23.853 147.018 23.8652 146.971C23.8821 146.906 23.88 146.838 23.8591 146.774C23.8383 146.71 23.7997 146.653 23.7478 146.611L21.9896 145.264C21.9555 145.238 21.9162 145.22 21.8743 145.21C21.8325 145.201 21.7891 145.201 21.7471 145.21C21.4087 145.305 21.0485 145.289 20.7195 145.165C20.467 145.058 20.2498 144.882 20.0926 144.658C20.0794 144.636 20.0603 144.619 20.0376 144.608C20.015 144.597 19.9896 144.593 19.9645 144.596C19.9395 144.598 19.9157 144.608 19.896 144.624C19.8764 144.64 19.8616 144.661 19.8535 144.685L19.519 145.654C19.5092 145.683 19.5051 145.713 19.507 145.743C19.5088 145.773 19.5167 145.803 19.53 145.83C19.5434 145.857 19.562 145.881 19.5847 145.901C19.6075 145.921 19.634 145.937 19.6627 145.946L23.4095 147.216Z" fill="#C1D8ED"/>
<path d="M25.3165 134.342C25.2279 132.389 23.4155 123.502 23.2235 122.544L16.7197 122.838C16.7197 122.838 14.5636 131.204 14.476 131.437L8.22638 130.995L7.58554 134.104L15.3148 135.404C15.7264 135.505 16.1604 135.458 16.5411 135.272C16.9217 135.086 17.2247 134.773 17.3973 134.386C17.3973 134.386 19.8548 127.178 19.9044 127.046L21.927 133.733L19.6439 144.011L22.6817 144.954C22.6817 144.954 25.3524 135.132 25.3165 134.342Z" fill="#262626"/>
<path d="M10.7479 107.021L9.7316 107.083C9.7316 107.083 9.1985 105.775 9.92558 104.699C10.1663 104.342 10.5754 104.607 10.5682 104.756C10.5442 105.248 10.3618 105.883 10.5376 106.268C10.6135 106.091 10.7317 105.855 10.8114 105.887C11.0212 105.97 10.7479 107.021 10.7479 107.021Z" fill="#F5AE92"/>
</g>
<g filter="url(#filter1_d_7172_10391)">
<path d="M151.205 103.671C151.205 103.671 150.141 103.001 150.419 102.224C150.696 101.447 151.401 101.111 152.497 101.487C153.275 101.755 153.39 101.576 154.088 101.304C154.488 101.148 155.745 101.329 155.993 102.207C156.259 103.147 157.353 102.485 157.336 103.983C157.321 105.236 156.955 106.838 155.483 107.822" fill="#0F1011"/>
<path d="M155.162 110.648C155.162 110.648 154.248 110.071 154.659 107.501L152.72 106.987C152.72 106.987 152.764 109.323 151.712 109.984L155.162 110.648Z" fill="#E98862"/>
<g opacity="0.15">
<path d="M152.152 109.53L153.882 108.407L152.599 108.296C152.528 108.731 152.377 109.15 152.152 109.53Z" fill="black"/>
</g>
<path d="M155.852 106.583C155.655 107.357 155.169 108.068 154.456 108.269C153.609 108.507 152.998 108.481 152.048 108.409C150.752 108.31 150.898 106.965 150.965 105.603C151.033 104.235 151.253 102.781 151.802 102.344C152.897 101.473 155.852 102.302 156.096 103.917C156.222 104.752 156.038 105.846 155.852 106.583Z" fill="#E98862"/>
<path d="M154.513 108.198C154.544 108.331 154.568 108.39 154.692 108.329C155.175 108.09 156.262 107.573 156.787 105.365C157.258 103.386 156.083 102.466 155.117 102.096C154.286 101.777 152.303 101.574 151.328 102.064C150.487 102.486 151.205 103.671 151.205 103.671C151.732 104.112 153.318 104.096 153.923 104.167C154.476 104.233 154.491 104.572 154.455 104.786C154.235 106.09 154.404 107.725 154.513 108.198Z" fill="#0F1011"/>
<path d="M152.831 105.744C152.93 105.744 153.01 105.664 153.01 105.565C153.01 105.467 152.93 105.387 152.831 105.387C152.732 105.387 152.652 105.467 152.652 105.565C152.652 105.664 152.732 105.744 152.831 105.744Z" fill="#0F1011"/>
<path d="M151.432 105.522C151.531 105.522 151.611 105.442 151.611 105.344C151.611 105.245 151.531 105.165 151.432 105.165C151.333 105.165 151.253 105.245 151.253 105.344C151.253 105.442 151.333 105.522 151.432 105.522Z" fill="#0F1011"/>
<path d="M151.631 104.971H151.626L151.153 104.941C151.131 104.939 151.11 104.929 151.096 104.912C151.082 104.896 151.074 104.874 151.076 104.852C151.077 104.83 151.087 104.81 151.104 104.795C151.12 104.78 151.141 104.773 151.163 104.774L151.636 104.804C151.658 104.805 151.678 104.815 151.693 104.831C151.707 104.847 151.715 104.868 151.714 104.89C151.714 104.911 151.705 104.932 151.689 104.947C151.674 104.962 151.653 104.971 151.631 104.971V104.971Z" fill="#0F1011"/>
<path d="M153.247 105.273C153.238 105.273 153.229 105.271 153.221 105.268L152.764 105.121C152.743 105.114 152.725 105.099 152.715 105.08C152.705 105.06 152.703 105.037 152.71 105.015C152.716 104.994 152.731 104.977 152.751 104.966C152.771 104.956 152.794 104.954 152.816 104.961L153.273 105.109C153.292 105.115 153.308 105.128 153.318 105.145C153.329 105.162 153.333 105.182 153.33 105.202C153.327 105.222 153.317 105.24 153.301 105.253C153.286 105.266 153.267 105.273 153.247 105.273Z" fill="#0F1011"/>
<path d="M153.726 106.072C153.71 106.17 153.714 106.27 153.737 106.367C153.76 106.464 153.802 106.555 153.861 106.635C153.919 106.716 153.993 106.784 154.078 106.836C154.163 106.888 154.257 106.923 154.356 106.938C154.454 106.954 154.554 106.95 154.651 106.927C154.748 106.904 154.84 106.862 154.92 106.804C155.001 106.745 155.069 106.672 155.121 106.587C155.173 106.502 155.208 106.408 155.224 106.31C155.241 106.212 155.239 106.111 155.216 106.013C155.194 105.916 155.152 105.824 155.093 105.743C155.034 105.663 154.96 105.594 154.874 105.543C154.789 105.491 154.693 105.457 154.594 105.443C154.056 105.385 153.792 105.659 153.726 106.072Z" fill="#E98862"/>
<g opacity="0.15">
<path d="M151.968 106.494C151.961 106.494 151.953 106.492 151.946 106.489L151.526 106.325C151.518 106.322 151.51 106.317 151.504 106.311C151.498 106.305 151.494 106.297 151.491 106.289C151.488 106.281 151.486 106.272 151.487 106.264C151.488 106.255 151.49 106.247 151.494 106.239L151.824 105.633C151.828 105.626 151.833 105.619 151.84 105.614C151.846 105.608 151.853 105.604 151.861 105.602C151.869 105.599 151.877 105.598 151.886 105.599C151.894 105.6 151.902 105.602 151.909 105.606C151.917 105.61 151.923 105.615 151.928 105.622C151.933 105.628 151.937 105.636 151.939 105.644C151.942 105.652 151.942 105.66 151.941 105.669C151.94 105.677 151.937 105.685 151.933 105.692L151.636 106.236L151.991 106.375C152.004 106.381 152.015 106.39 152.022 106.403C152.029 106.415 152.031 106.43 152.029 106.444C152.026 106.458 152.019 106.471 152.008 106.48C151.997 106.489 151.983 106.494 151.968 106.494V106.494Z" fill="black"/>
</g>
<path d="M152.641 106.962C152.641 106.962 151.978 106.981 151.528 106.785C151.528 106.785 151.499 107.218 152.017 107.301C152.535 107.383 152.641 106.962 152.641 106.962Z" fill="white"/>
<path d="M147.432 97.4785L146.06 96.9722C146.06 96.9722 145.887 95.0925 147.469 94.0986C147.994 93.7692 148.376 94.3547 148.28 94.546C147.963 95.178 147.586 95.7597 147.594 96.3671C147.796 96.1782 148.089 95.9366 148.175 96.0247C148.402 96.2565 147.432 97.4785 147.432 97.4785Z" fill="#E98862"/>
<path d="M167.749 139.213L167.235 136.677C167.227 136.679 167.217 136.681 167.206 136.684C167.392 136.637 168.513 136.277 169.446 135.971L170.257 138.428C168.057 139.151 167.825 139.198 167.749 139.213Z" fill="#E98862"/>
<path d="M171.986 141.337C172.002 141.404 172.004 141.475 171.992 141.543C171.98 141.612 171.954 141.677 171.915 141.735C171.877 141.793 171.827 141.843 171.768 141.88C171.71 141.918 171.644 141.944 171.575 141.955C171.48 141.971 171.382 141.959 171.293 141.921C171.204 141.883 171.128 141.821 171.074 141.741L169.369 139.058C169.337 139.006 169.315 138.948 169.307 138.887C169.299 138.826 169.305 138.764 169.323 138.705C169.503 138.235 169.527 137.719 169.392 137.233C169.27 136.859 169.046 136.526 168.745 136.273C168.716 136.251 168.693 136.222 168.68 136.188C168.668 136.154 168.665 136.118 168.672 136.082C168.679 136.047 168.696 136.014 168.722 135.988C168.747 135.962 168.779 135.944 168.814 135.935L170.247 135.583C170.289 135.572 170.333 135.57 170.376 135.577C170.419 135.584 170.46 135.599 170.497 135.621C170.535 135.644 170.567 135.673 170.593 135.708C170.618 135.744 170.637 135.783 170.647 135.826L171.986 141.337Z" fill="#C1D8ED"/>
<path d="M148.637 156.949C147.719 154.829 147.652 154.602 147.629 154.528L150.115 153.789C150.113 153.782 150.11 153.772 150.106 153.761C150.169 153.942 150.629 155.024 151.018 155.923L148.637 156.949Z" fill="#E98862"/>
<path d="M145.89 158.928C145.824 158.951 145.754 158.959 145.684 158.954C145.615 158.948 145.547 158.928 145.486 158.895C145.424 158.862 145.37 158.816 145.327 158.761C145.284 158.707 145.253 158.644 145.235 158.576C145.211 158.483 145.214 158.384 145.244 158.293C145.274 158.201 145.329 158.12 145.404 158.059L147.929 156.124C147.978 156.087 148.035 156.061 148.095 156.047C148.155 156.034 148.217 156.033 148.277 156.046C148.764 156.183 149.281 156.161 149.753 155.983C150.116 155.829 150.428 155.576 150.654 155.254C150.673 155.223 150.7 155.198 150.733 155.182C150.765 155.166 150.802 155.16 150.838 155.164C150.874 155.168 150.908 155.182 150.936 155.205C150.964 155.228 150.985 155.258 150.997 155.292L151.478 156.684C151.492 156.726 151.498 156.769 151.495 156.812C151.492 156.856 151.481 156.898 151.462 156.937C151.442 156.976 151.416 157.011 151.383 157.04C151.35 157.068 151.312 157.09 151.271 157.104L145.89 158.928Z" fill="#C1D8ED"/>
<path d="M143.151 140.437C143.279 137.632 145.882 124.87 146.157 123.493L155.498 123.915C155.498 123.915 158.595 135.93 158.721 136.265L167.697 135.63L168.617 140.096L157.516 141.963C156.925 142.108 156.302 142.041 155.755 141.774C155.208 141.506 154.773 141.056 154.525 140.501C154.525 140.501 150.996 130.149 150.924 129.959L148.019 139.563L151.299 154.325L146.936 155.679C146.936 155.679 143.1 141.572 143.151 140.437Z" fill="#262626" fill-opacity="0.73"/>
<path d="M164.076 101.199L165.535 101.288C165.535 101.288 166.301 99.4094 165.257 97.8631C164.911 97.3504 164.323 97.7319 164.334 97.9455C164.368 98.6516 164.63 99.5646 164.378 100.117C164.269 99.8628 164.099 99.5238 163.984 99.5696C163.683 99.6898 164.076 101.199 164.076 101.199Z" fill="#E98862"/>
<path d="M166.393 100.904L164.878 108.837C164.842 109.027 164.765 109.206 164.652 109.364C164.54 109.521 164.395 109.652 164.227 109.749L158.476 113.055C158.55 115.024 156.59 117.27 156.232 119.322C155.788 121.871 156.744 123.214 156.431 124.508C155.94 126.542 146.007 124.318 145.701 123.062C145.385 121.766 146.581 121.207 147.221 117.259C147.526 115.38 147.359 113.029 147.855 111.406L143.241 105.554C143.105 105.381 143.014 105.179 142.975 104.963C142.936 104.747 142.95 104.526 143.016 104.317L145.584 96.2588L148.15 97.072L145.798 104.452L149.792 109.519C150.147 109.469 150.506 109.47 150.86 109.521C150.937 109.531 151.059 109.549 151.219 109.574C151.135 110.247 155.28 110.964 155.486 110.298C156.013 110.385 156.521 110.557 156.992 110.807L162.349 107.728L163.748 100.401L166.393 100.904Z" fill="#143A62"/>
</g>
<path d="M155.486 110.298C155.28 110.963 153.918 111.918 152.437 111.559C151.328 111.292 151.134 110.246 151.218 109.573C152.08 109.709 154.008 110.04 155.481 110.296C155.483 110.296 155.485 110.297 155.486 110.298Z" fill="#E98862"/>
</g>
<path d="M117.858 21.44C117.858 21.1333 117.885 20.7733 117.938 20.36C117.991 19.9467 118.091 19.48 118.238 18.96C118.385 18.4267 118.605 17.8333 118.898 17.18L121.358 18.04C121.211 18.4533 121.085 18.8333 120.978 19.18C120.871 19.5133 120.791 19.8267 120.738 20.12C120.685 20.4 120.658 20.68 120.658 20.96C120.658 21.36 120.745 21.7333 120.918 22.08C121.091 22.4267 121.351 22.7267 121.698 22.98C122.045 23.2467 122.471 23.4533 122.978 23.6C123.498 23.7467 124.098 23.82 124.778 23.82C125.551 23.82 126.231 23.7467 126.818 23.6C127.418 23.4667 127.918 23.2867 128.318 23.06C128.731 22.8467 129.045 22.62 129.258 22.38C129.471 22.14 129.578 21.92 129.578 21.72C129.578 21.56 129.465 21.42 129.238 21.3C129.025 21.18 128.738 21.06 128.378 20.94C128.031 20.8067 127.658 20.66 127.258 20.5C126.871 20.34 126.498 20.14 126.138 19.9C125.791 19.66 125.505 19.3667 125.278 19.02C125.065 18.6733 124.958 18.2533 124.958 17.76C124.958 17.2533 125.091 16.7 125.358 16.1C125.625 15.4867 126.005 14.9067 126.498 14.36C126.991 13.8 127.578 13.3467 128.258 13C128.951 12.64 129.711 12.46 130.538 12.46C131.125 12.46 131.658 12.5533 132.138 12.74C132.631 12.9267 133.045 13.14 133.378 13.38L132.338 15.72C132.058 15.5333 131.758 15.3933 131.438 15.3C131.118 15.1933 130.811 15.14 130.518 15.14C130.145 15.14 129.785 15.2133 129.438 15.36C129.105 15.5067 128.805 15.7 128.538 15.94C128.285 16.1667 128.085 16.4133 127.938 16.68C127.791 16.9467 127.718 17.2 127.718 17.44C127.718 17.68 127.831 17.8933 128.058 18.08C128.298 18.2533 128.605 18.42 128.978 18.58C129.351 18.7267 129.745 18.88 130.158 19.04C130.571 19.2 130.965 19.38 131.338 19.58C131.711 19.78 132.011 20.02 132.238 20.3C132.478 20.58 132.598 20.92 132.598 21.32C132.598 21.8933 132.418 22.4867 132.058 23.1C131.711 23.7267 131.191 24.3067 130.498 24.84C129.805 25.3733 128.951 25.8 127.938 26.12C126.938 26.4533 125.778 26.62 124.458 26.62C123.498 26.62 122.618 26.5067 121.818 26.28C121.018 26.0667 120.318 25.74 119.718 25.3C119.131 24.8733 118.671 24.3333 118.338 23.68C118.018 23.04 117.858 22.2933 117.858 21.44ZM134.084 26.6L133.064 24.04C134.21 23.64 135.137 23.2 135.844 22.72C136.564 22.24 137.09 21.7267 137.424 21.18C137.77 20.6333 137.944 20.0667 137.944 19.48C137.944 19.1067 137.89 18.72 137.784 18.32C137.677 17.9067 137.524 17.4733 137.324 17.02C137.137 16.5667 136.91 16.0933 136.644 15.6L139.264 14.34C139.73 15.2333 140.09 16.0867 140.344 16.9C140.61 17.7133 140.744 18.4733 140.744 19.18C140.744 19.8333 140.657 20.46 140.484 21.06C140.324 21.66 140.07 22.22 139.724 22.74C139.39 23.2733 138.957 23.7733 138.424 24.24C137.89 24.7067 137.264 25.1333 136.544 25.52C135.824 25.92 135.004 26.28 134.084 26.6ZM138.504 12.3C138.09 12.3 137.737 12.16 137.444 11.88C137.164 11.6 137.024 11.2533 137.024 10.84C137.024 10.4267 137.164 10.0733 137.444 9.78C137.737 9.48667 138.09 9.34 138.504 9.34C138.904 9.34 139.244 9.48667 139.524 9.78C139.817 10.0733 139.964 10.4267 139.964 10.84C139.964 11.2533 139.817 11.6 139.524 11.88C139.244 12.16 138.904 12.3 138.504 12.3ZM148.287 22.1C147.047 22.1 146.087 21.9733 145.407 21.72C144.741 21.4667 144.274 21.0733 144.007 20.54C143.741 19.9933 143.587 19.3067 143.547 18.48L143.127 7.36H145.927L146.347 17.14C146.374 17.7533 146.441 18.2133 146.547 18.52C146.654 18.8267 146.854 19.0333 147.147 19.14C147.454 19.2467 147.901 19.3 148.487 19.3C148.994 19.3 149.354 19.4333 149.567 19.7C149.794 19.9533 149.907 20.2733 149.907 20.66C149.907 21.0733 149.767 21.42 149.487 21.7C149.207 21.9667 148.807 22.1 148.287 22.1ZM148.314 22.1L148.514 19.3C149.101 19.3 149.561 19.26 149.894 19.18C150.241 19.1 150.488 18.9533 150.634 18.74C150.781 18.5133 150.854 18.1933 150.854 17.78C150.854 17.4067 150.801 16.96 150.694 16.44C150.601 15.92 150.474 15.38 150.314 14.82C150.154 14.26 149.994 13.7467 149.834 13.28L152.594 12.52C152.754 12.9733 152.914 13.5 153.074 14.1C153.234 14.7 153.368 15.32 153.474 15.96C153.594 16.5867 153.654 17.1933 153.654 17.78C153.654 18.5133 153.561 19.1333 153.374 19.64C153.188 20.1333 152.928 20.5467 152.594 20.88C152.274 21.2 151.888 21.4533 151.434 21.64C150.994 21.8133 150.508 21.9333 149.974 22C149.441 22.0667 148.888 22.1 148.314 22.1ZM150.774 26.7C150.388 26.7 150.054 26.5667 149.774 26.3C149.508 26.0333 149.374 25.7067 149.374 25.32C149.374 24.9333 149.508 24.5933 149.774 24.3C150.054 24.02 150.388 23.88 150.774 23.88C151.161 23.88 151.488 24.02 151.754 24.3C152.034 24.5933 152.174 24.9333 152.174 25.32C152.174 25.7067 152.034 26.0333 151.754 26.3C151.488 26.5667 151.161 26.7 150.774 26.7Z" fill="#143A62"/>
<g filter="url(#filter2_d_7172_10391)">
<path d="M101.319 57.2L100.159 51.6C102.052 51.36 103.706 51.0667 105.119 50.72C106.532 50.4 107.719 49.9467 108.679 49.36C109.639 48.7733 110.359 47.9733 110.839 46.96C111.319 45.92 111.559 44.5867 111.559 42.96C111.559 42.3733 111.506 41.7867 111.399 41.2C111.292 40.5867 111.132 40.0267 110.919 39.52C110.706 39.0133 110.426 38.6 110.079 38.28C109.759 37.96 109.372 37.8 108.919 37.8C108.439 37.8 108.012 37.9733 107.639 38.32C107.266 38.64 106.972 39.0533 106.759 39.56C106.546 40.04 106.439 40.5333 106.439 41.04C106.439 41.4133 106.532 41.7333 106.719 42C106.906 42.24 107.186 42.4267 107.559 42.56C107.932 42.6667 108.399 42.72 108.959 42.72C109.599 42.72 110.252 42.6533 110.919 42.52C111.612 42.36 112.239 42.1467 112.799 41.88L112.959 46.24C112.319 46.7467 111.586 47.2 110.759 47.6C109.932 47.9733 108.932 48.16 107.759 48.16C106.799 48.16 105.906 48.0533 105.079 47.84C104.252 47.6 103.519 47.24 102.879 46.76C102.266 46.28 101.786 45.6667 101.439 44.92C101.092 44.1467 100.919 43.2267 100.919 42.16C100.919 40.8533 101.132 39.5867 101.559 38.36C101.986 37.1333 102.572 36.04 103.319 35.08C104.092 34.0933 104.972 33.32 105.959 32.76C106.972 32.1733 108.039 31.88 109.159 31.88C110.492 31.88 111.652 32.2133 112.639 32.88C113.652 33.5467 114.492 34.4267 115.159 35.52C115.826 36.5867 116.332 37.7467 116.679 39C117.026 40.2533 117.199 41.4533 117.199 42.6C117.199 45.6133 116.559 48.1733 115.279 50.28C113.999 52.3867 112.172 54.0133 109.799 55.16C107.426 56.3333 104.599 57.0133 101.319 57.2Z" fill="#00B6FF"/>
</g>
<path d="M42.5552 82.44C42.5552 82.1333 42.5818 81.7733 42.6352 81.36C42.6885 80.9467 42.7885 80.48 42.9352 79.96C43.0818 79.4267 43.3018 78.8333 43.5952 78.18L46.0552 79.04C45.9085 79.4533 45.7818 79.8333 45.6752 80.18C45.5685 80.5133 45.4885 80.8267 45.4352 81.12C45.3818 81.4 45.3552 81.68 45.3552 81.96C45.3552 82.4 45.4485 82.7933 45.6352 83.14C45.8352 83.5 46.1218 83.8 46.4952 84.04C46.8685 84.2933 47.3218 84.4867 47.8552 84.62C48.4018 84.7533 49.0285 84.82 49.7352 84.82C50.4685 84.82 51.1218 84.7867 51.6952 84.72C52.2818 84.6533 52.7752 84.5533 53.1752 84.42C53.5885 84.2867 53.9018 84.1133 54.1152 83.9C54.3285 83.7 54.4352 83.4667 54.4352 83.2C54.4352 83.08 54.3885 82.9667 54.2952 82.86C54.2152 82.7533 54.0752 82.64 53.8752 82.52C53.6885 82.4 53.4352 82.2733 53.1152 82.14C52.8085 82.0067 52.4352 81.86 51.9952 81.7L52.6552 78.88C53.2285 79.12 53.7685 79.3333 54.2752 79.52C54.7952 79.6933 55.2885 79.84 55.7552 79.96C56.2218 80.0667 56.6618 80.1533 57.0752 80.22C57.4885 80.2733 57.8752 80.3 58.2352 80.3C58.7418 80.3 59.1018 80.4333 59.3152 80.7C59.5285 80.9533 59.6352 81.2733 59.6352 81.66C59.6352 82.0733 59.4952 82.42 59.2152 82.7C58.9352 82.9667 58.5418 83.1 58.0352 83.1C57.9285 83.1 57.8218 83.1 57.7152 83.1C57.6218 83.1 57.5218 83.1 57.4152 83.1C57.3218 83.1 57.2218 83.1 57.1152 83.1C57.1418 83.2333 57.1552 83.3467 57.1552 83.44C57.1552 83.5467 57.1552 83.6467 57.1552 83.74C57.1552 84.18 57.0018 84.6267 56.6952 85.08C56.4018 85.5333 55.9418 85.9533 55.3152 86.34C54.6885 86.7267 53.8885 87.0333 52.9152 87.26C51.9552 87.5 50.8085 87.62 49.4752 87.62C48.0352 87.62 46.7952 87.4333 45.7552 87.06C44.7285 86.7 43.9352 86.1333 43.3752 85.36C42.8285 84.6 42.5552 83.6267 42.5552 82.44ZM58.0312 83.1L58.2313 80.3C58.5379 80.3 58.7979 80.2267 59.0113 80.08C59.2379 79.92 59.4713 79.66 59.7113 79.3C59.9513 78.9267 60.2313 78.4267 60.5513 77.8C60.9513 77 61.3646 76.3733 61.7913 75.92C62.2313 75.4667 62.6779 75.1467 63.1313 74.96C63.5979 74.76 64.0646 74.66 64.5313 74.66C65.1179 74.66 65.6646 74.7867 66.1713 75.04C66.6779 75.2933 67.1179 75.64 67.4913 76.08C67.8646 76.5067 68.1513 77 68.3513 77.56C68.5646 78.1067 68.6713 78.6733 68.6713 79.26C68.6713 79.9667 68.5179 80.6067 68.2113 81.18C67.9179 81.74 67.5046 82.1867 66.9713 82.52C66.4513 82.84 65.8513 83 65.1713 83C64.5979 83 63.9313 82.9 63.1712 82.7C62.4113 82.5 61.6113 82.08 60.7713 81.44L61.7913 79.02C62.3913 79.4333 62.9513 79.7333 63.4713 79.92C64.0046 80.1067 64.4446 80.2 64.7913 80.2C65.0579 80.2 65.2779 80.1733 65.4513 80.12C65.6246 80.0667 65.7513 79.98 65.8313 79.86C65.9113 79.74 65.9513 79.58 65.9513 79.38C65.9513 79.1 65.8846 78.8133 65.7513 78.52C65.6179 78.2267 65.4379 77.98 65.2113 77.78C64.9979 77.5667 64.7446 77.46 64.4513 77.46C64.1713 77.46 63.9313 77.5667 63.7313 77.78C63.5446 77.98 63.3579 78.2733 63.1712 78.66C62.9979 79.0333 62.7846 79.4733 62.5313 79.98C62.2246 80.5933 61.9246 81.1067 61.6313 81.52C61.3379 81.92 61.0246 82.24 60.6913 82.48C60.3713 82.7067 59.9913 82.8667 59.5513 82.96C59.1246 83.0533 58.6179 83.1 58.0312 83.1ZM69.1911 87.62L68.1711 85.14C68.8778 84.9 69.5244 84.62 70.1111 84.3C70.7111 83.98 71.2311 83.6267 71.6711 83.24C72.1111 82.8533 72.4511 82.4333 72.6911 81.98C72.9311 81.5133 73.0511 81.0133 73.0511 80.48C73.0511 79.92 72.9244 79.3067 72.6711 78.64C72.4178 77.9733 72.1111 77.2933 71.7511 76.6L74.3711 75.34C74.6111 75.7533 74.8178 76.2 74.9911 76.68C75.1778 77.1467 75.3311 77.5667 75.4511 77.94C75.5711 78.3133 75.6511 78.5667 75.6911 78.7C75.8778 79.34 76.1311 79.7667 76.4511 79.98C76.7844 80.1933 77.3178 80.3 78.0511 80.3C78.5578 80.3 78.9178 80.4333 79.1311 80.7C79.3578 80.9533 79.4711 81.2733 79.4711 81.66C79.4711 82.0733 79.3311 82.42 79.0511 82.7C78.7711 82.9667 78.3711 83.1 77.8511 83.1C77.3044 83.1 76.8244 83.02 76.4111 82.86C75.9978 82.7 75.6644 82.4667 75.4111 82.16C75.1711 81.8533 75.0178 81.4933 74.9511 81.08L75.6911 81.5C75.6111 82.2067 75.3778 82.8733 74.9911 83.5C74.6178 84.14 74.1311 84.7267 73.5311 85.26C72.9311 85.7933 72.2578 86.26 71.5111 86.66C70.7644 87.06 69.9911 87.38 69.1911 87.62ZM77.935 71.3L76.955 69.66C77.6083 69.2733 78.2817 68.8867 78.975 68.5C79.6683 68.1 80.4417 67.6733 81.295 67.22C82.1617 66.7533 83.175 66.2267 84.335 65.64L85.255 67.4C84.0683 67.9733 83.0417 68.4867 82.175 68.94C81.3217 69.3933 80.555 69.8133 79.875 70.2C79.2083 70.5733 78.5617 70.94 77.935 71.3ZM77.875 83.1L78.075 80.3H80.935C81.215 80.3 81.4617 80.2867 81.675 80.26C81.8883 80.22 82.0617 80.16 82.195 80.08C82.3417 80 82.4483 79.9 82.515 79.78C82.5817 79.66 82.615 79.52 82.615 79.36C82.615 79.2 82.5283 78.9467 82.355 78.6C82.195 78.24 81.8417 77.8067 81.295 77.3C81.0017 77.0333 80.6817 76.7533 80.335 76.46C80.0017 76.1533 79.6817 75.8667 79.375 75.6C79.0683 75.32 78.815 75.0733 78.615 74.86C78.415 74.6467 78.315 74.4933 78.315 74.4C78.315 74.2 78.3283 73.98 78.355 73.74C78.3817 73.5 78.4217 73.28 78.475 73.08C78.5417 72.88 78.6283 72.7333 78.735 72.64C78.9617 72.4267 79.295 72.18 79.735 71.9C80.1883 71.6067 80.7283 71.2933 81.355 70.96C81.9817 70.6133 82.6817 70.2533 83.455 69.88C84.2417 69.4933 85.0817 69.1067 85.975 68.72L87.115 71.16C86.3817 71.48 85.6883 71.7933 85.035 72.1C84.3817 72.3933 83.7683 72.6867 83.195 72.98C82.635 73.26 82.115 73.54 81.635 73.82C81.1683 74.0867 80.755 74.3533 80.395 74.62L80.655 73.14C81.7883 74.0067 82.6883 74.7867 83.355 75.48C84.035 76.1733 84.5417 76.7933 84.875 77.34C85.2083 77.8733 85.4283 78.3533 85.535 78.78C85.6417 79.1933 85.695 79.56 85.695 79.88C85.695 80.2 85.615 80.5467 85.455 80.92C85.3083 81.28 85.035 81.6267 84.635 81.96C84.2483 82.2933 83.7017 82.5667 82.995 82.78C82.2883 82.9933 81.3817 83.1 80.275 83.1H77.875ZM87.277 87.62L86.257 85.14C86.9637 84.9 87.6104 84.62 88.197 84.3C88.797 83.98 89.317 83.6267 89.757 83.24C90.197 82.8533 90.537 82.4333 90.777 81.98C91.017 81.5133 91.137 81.0133 91.137 80.48C91.137 79.92 91.0104 79.3067 90.757 78.64C90.5037 77.9733 90.197 77.2933 89.837 76.6L92.457 75.34C92.697 75.7533 92.9037 76.2 93.077 76.68C93.2637 77.1467 93.417 77.5667 93.537 77.94C93.657 78.3133 93.737 78.5667 93.777 78.7C93.9637 79.34 94.217 79.7667 94.537 79.98C94.8704 80.1933 95.4037 80.3 96.137 80.3C96.6437 80.3 97.0037 80.4333 97.217 80.7C97.4437 80.9533 97.557 81.2733 97.557 81.66C97.557 82.0733 97.417 82.42 97.137 82.7C96.857 82.9667 96.457 83.1 95.937 83.1C95.3904 83.1 94.9104 83.02 94.497 82.86C94.0837 82.7 93.7504 82.4667 93.497 82.16C93.257 81.8533 93.1037 81.4933 93.037 81.08L93.777 81.5C93.697 82.2067 93.4637 82.8733 93.077 83.5C92.7037 84.14 92.217 84.7267 91.617 85.26C91.017 85.7933 90.3437 86.26 89.597 86.66C88.8504 87.06 88.077 87.38 87.277 87.62ZM95.9609 83.1L96.1609 80.3C96.6009 80.3 96.9609 80.2667 97.2409 80.2C97.5209 80.12 97.7476 79.9533 97.9209 79.7C98.1076 79.4333 98.2676 79.04 98.4009 78.52C98.5476 77.9867 98.7076 77.2667 98.8809 76.36L101.481 76.84C101.441 77.04 101.394 77.2733 101.341 77.54C101.288 77.8067 101.241 78.08 101.201 78.36C101.161 78.6267 101.141 78.8667 101.141 79.08C101.141 79.4533 101.261 79.7533 101.501 79.98C101.741 80.1933 102.194 80.3 102.861 80.3C103.194 80.3 103.481 80.2667 103.721 80.2C103.974 80.12 104.188 79.9533 104.361 79.7C104.548 79.4333 104.708 79.0267 104.841 78.48C104.988 77.92 105.128 77.1667 105.261 76.22L107.901 76.64C107.848 76.9467 107.794 77.2733 107.741 77.62C107.688 77.9667 107.641 78.2867 107.601 78.58C107.561 78.8733 107.541 79.1133 107.541 79.3C107.541 79.4733 107.588 79.64 107.681 79.8C107.788 79.9467 107.974 80.0667 108.241 80.16C108.521 80.2533 108.914 80.3 109.421 80.3C109.781 80.3 110.088 80.2533 110.341 80.16C110.608 80.0667 110.808 79.9133 110.941 79.7C111.088 79.4867 111.161 79.2067 111.161 78.86C111.161 78.3667 111.048 77.72 110.821 76.92C110.594 76.12 110.328 75.28 110.021 74.4L112.841 73.56C113.054 74.1333 113.241 74.7467 113.401 75.4C113.574 76.04 113.708 76.6667 113.801 77.28C113.908 77.88 113.961 78.4067 113.961 78.86C113.961 79.54 113.854 80.1467 113.641 80.68C113.428 81.2 113.128 81.64 112.741 82C112.354 82.36 111.894 82.6333 111.361 82.82C110.828 83.0067 110.241 83.1 109.601 83.1C108.828 83.1 108.194 83.0267 107.701 82.88C107.208 82.72 106.828 82.46 106.561 82.1C106.308 81.7267 106.141 81.22 106.061 80.58H106.741C106.461 81.3667 106.148 81.94 105.801 82.3C105.454 82.6467 105.041 82.8667 104.561 82.96C104.094 83.0533 103.508 83.1 102.801 83.1C102.361 83.1 101.908 83.0533 101.441 82.96C100.988 82.8533 100.581 82.6133 100.221 82.24C99.8609 81.8667 99.5943 81.2867 99.4209 80.5L100.501 80.46C100.221 81.2467 99.8543 81.8267 99.4009 82.2C98.9609 82.5733 98.4543 82.82 97.8809 82.94C97.3076 83.0467 96.6676 83.1 95.9609 83.1Z" fill="#143A62"/>
<defs>
<filter id="filter0_d_7172_10391" x="-0.77002" y="100.009" width="28.0869" height="53.2266" filterUnits="userSpaceOnUse" color-interpolation-filters="sRGB">
<feFlood flood-opacity="0" result="BackgroundImageFix"/>
<feColorMatrix in="SourceAlpha" type="matrix" values="0 0 0 0 0 0 0 0 0 0 0 0 0 0 0 0 0 0 127 0" result="hardAlpha"/>
<feOffset dx="-2" dy="2"/>
<feGaussianBlur stdDeviation="2"/>
<feComposite in2="hardAlpha" operator="out"/>
<feColorMatrix type="matrix" values="0 0 0 0 0 0 0 0 0 0 0 0 0 0 0 0 0 0 0.2 0"/>
<feBlend mode="normal" in2="BackgroundImageFix" result="effect1_dropShadow_7172_10391"/>
<feBlend mode="normal" in="SourceGraphic" in2="effect1_dropShadow_7172_10391" result="shape"/>
</filter>
<filter id="filter1_d_7172_10391" x="139.953" y="91" width="37.0469" height="72.9551" filterUnits="userSpaceOnUse" color-interpolation-filters="sRGB">
<feFlood flood-opacity="0" result="BackgroundImageFix"/>
<feColorMatrix in="SourceAlpha" type="matrix" values="0 0 0 0 0 0 0 0 0 0 0 0 0 0 0 0 0 0 127 0" result="hardAlpha"/>
<feOffset dx="1" dy="1"/>
<feGaussianBlur stdDeviation="2"/>
<feComposite in2="hardAlpha" operator="out"/>
<feColorMatrix type="matrix" values="0 0 0 0 0 0 0 0 0 0 0 0 0 0 0 0 0 0 0.2 0"/>
<feBlend mode="normal" in2="BackgroundImageFix" result="effect1_dropShadow_7172_10391"/>
<feBlend mode="normal" in="SourceGraphic" in2="effect1_dropShadow_7172_10391" result="shape"/>
</filter>
<filter id="filter2_d_7172_10391" x="97.1592" y="28.8799" width="25.04" height="33.3203" filterUnits="userSpaceOnUse" color-interpolation-filters="sRGB">
<feFlood flood-opacity="0" result="BackgroundImageFix"/>
<feColorMatrix in="SourceAlpha" type="matrix" values="0 0 0 0 0 0 0 0 0 0 0 0 0 0 0 0 0 0 127 0" result="hardAlpha"/>
<feOffset dx="1" dy="1"/>
<feGaussianBlur stdDeviation="2"/>
<feComposite in2="hardAlpha" operator="out"/>
<feColorMatrix type="matrix" values="0 0 0 0 0 0 0 0 0 0 0 0 0 0 0 0 0 0 0.2 0"/>
<feBlend mode="normal" in2="BackgroundImageFix" result="effect1_dropShadow_7172_10391"/>
<feBlend mode="normal" in="SourceGraphic" in2="effect1_dropShadow_7172_10391" result="shape"/>
</filter>
<clipPath id="clip0_7172_10391">
<rect width="172" height="81" fill="white" transform="translate(0 94)"/>
</clipPath>
</defs>
</svg>
