<svg width="1370" height="622" viewBox="0 0 1370 622" fill="none" xmlns="http://www.w3.org/2000/svg">
<g clip-path="url(#clip0_5096_10855)">
<rect width="1370" height="622" rx="20" fill="#143A62" fill-opacity="0.02"/>
<path d="M370.601 377.897C372.225 377.897 373.541 376.577 373.541 374.948C373.541 373.32 372.225 372 370.601 372C368.977 372 367.661 373.32 367.661 374.948C367.661 376.577 368.977 377.897 370.601 377.897Z" fill="#090814"/>
<path d="M382.105 377.897C383.729 377.897 385.045 376.577 385.045 374.948C385.045 373.32 383.729 372 382.105 372C380.481 372 379.165 373.32 379.165 374.948C379.165 376.577 380.481 377.897 382.105 377.897Z" fill="#090814"/>
<path d="M393.609 377.897C395.233 377.897 396.549 376.577 396.549 374.948C396.549 373.32 395.233 372 393.609 372C391.985 372 390.669 373.32 390.669 374.948C390.669 376.577 391.985 377.897 393.609 377.897Z" fill="#090814"/>
<path d="M366.722 394.654H539.276C540.761 394.654 542.186 395.246 543.236 396.299C544.286 397.352 544.876 398.781 544.876 400.27V443.462C544.876 444.951 544.286 446.38 543.236 447.433C542.186 448.486 540.761 449.078 539.276 449.078H366.722C365.237 449.078 363.813 448.486 362.763 447.433C361.712 446.38 361.122 444.952 361.122 443.463V400.27C361.122 398.781 361.712 397.352 362.762 396.299C363.812 395.246 365.237 394.654 366.722 394.654Z" fill="#F2F2F2"/>
<path d="M544.918 383.004H361.697C361.304 383 360.992 382.84 361 382.646C361.008 382.458 361.315 382.307 361.696 382.303H544.918C545.311 382.307 545.622 382.467 545.614 382.661C545.606 382.849 545.299 383 544.918 383.004Z" fill="#090814"/>
<path d="M390.822 427.652H389.539C378.801 427.652 370.096 436.382 370.096 447.151C370.096 457.919 378.801 466.649 389.539 466.649H390.822C401.56 466.649 410.265 457.919 410.265 447.151C410.265 436.382 401.56 427.652 390.822 427.652Z" fill="#E6E6E6"/>
<path d="M382.824 476.504H397.535C398.079 476.517 398.595 476.747 398.97 477.142C399.345 477.536 399.549 478.064 399.536 478.61C399.549 479.155 399.345 479.683 398.97 480.078C398.595 480.473 398.079 480.702 397.535 480.715H382.824C382.281 480.702 381.765 480.473 381.39 480.078C381.014 479.683 380.811 479.155 380.824 478.61C380.811 478.064 381.014 477.536 381.39 477.142C381.765 476.747 382.281 476.517 382.824 476.504Z" fill="#6C63FF"/>
<path d="M373.323 484.529H407.039C407.583 484.543 408.099 484.772 408.474 485.167C408.849 485.562 409.053 486.09 409.04 486.635C409.053 487.18 408.849 487.708 408.474 488.103C408.099 488.498 407.583 488.727 407.039 488.741H373.323C372.779 488.727 372.263 488.498 371.888 488.103C371.513 487.708 371.309 487.18 371.322 486.635C371.309 486.09 371.513 485.562 371.888 485.167C372.263 484.772 372.779 484.543 373.323 484.529Z" fill="#E6E6E6"/>
<path d="M373.322 492.555H407.038C407.582 492.568 408.098 492.798 408.473 493.192C408.848 493.587 409.052 494.115 409.039 494.66C409.052 495.206 408.848 495.734 408.473 496.129C408.098 496.523 407.582 496.753 407.038 496.766H373.322C372.778 496.753 372.262 496.523 371.887 496.129C371.512 495.734 371.308 495.206 371.321 494.66C371.308 494.115 371.512 493.587 371.887 493.192C372.262 492.798 372.778 492.568 373.322 492.555Z" fill="#E6E6E6"/>
<path d="M655 621.999H524.265V621.473H655V621.999Z" fill="#E6E6E6"/>
<path d="M582.646 438.066H592.315L593.588 448.035L582.646 449.352V438.066Z" fill="#ED9DA0"/>
<path d="M594.631 454.498C594.631 455.093 594.561 455.685 594.424 456.264L588.575 481.22C588.377 482.063 588.016 482.859 587.512 483.562C587.008 484.266 586.37 484.862 585.635 485.318C584.901 485.774 584.084 486.08 583.231 486.219C582.378 486.358 581.507 486.327 580.666 486.128L557.228 478.834L556.083 478.48C555.34 478.992 554.502 479.35 553.62 479.533C552.737 479.717 551.827 479.722 550.942 479.549C547.54 478.945 545.185 476.169 545.681 473.344C546.178 470.518 549.339 468.722 552.741 469.321C553.631 469.462 554.485 469.779 555.252 470.253C556.019 470.728 556.685 471.351 557.21 472.085L557.227 472.089L557.287 472.099L577.687 474.63L579.402 453.882C579.565 451.916 580.478 450.09 581.951 448.783C583.425 447.477 585.345 446.792 587.31 446.871C589.275 446.951 591.133 447.788 592.498 449.209C593.862 450.63 594.626 452.524 594.63 454.496L594.631 454.498Z" fill="#ED9DA0"/>
<path d="M594.629 454.5C594.629 455.095 594.56 455.687 594.423 456.266L589.624 482.276C589.427 483.119 589.066 483.915 588.561 484.619C588.057 485.322 587.419 485.919 586.684 486.374C585.949 486.83 585.132 487.136 584.279 487.275C583.427 487.413 582.555 487.382 581.714 487.183L558.276 480.647L559.326 470.469L577.176 472.926L579.402 453.886C579.564 451.92 580.478 450.094 581.951 448.787C583.424 447.481 585.344 446.796 587.309 446.875C589.274 446.955 591.133 447.792 592.497 449.213C593.861 450.634 594.625 452.528 594.63 454.5L594.629 454.5Z" fill="#6C63FF"/>
<path d="M625.071 591.557L619.409 595.742L623.583 601.419L629.244 597.234L625.071 591.557Z" fill="#ED9DA0"/>
<path d="M632.074 603.112L620.04 612.009C619.004 612.772 617.811 613.294 616.548 613.535L613.544 614.106C613.212 614.17 612.87 614.131 612.561 613.994C612.253 613.857 611.994 613.628 611.819 613.339C611.644 613.05 611.561 612.714 611.581 612.377C611.602 612.039 611.725 611.716 611.934 611.45L615.577 606.797L620.373 596.881L620.401 596.906C621.094 597.542 622.147 598.498 622.226 598.544C623.707 598.873 624.844 598.688 625.607 597.996C626.936 596.787 626.668 594.417 626.665 594.393L626.663 594.375L626.679 594.366C626.829 594.264 627.001 594.198 627.181 594.173C627.361 594.148 627.544 594.165 627.716 594.223C628.408 594.477 628.77 595.388 628.821 595.527C629.497 595.622 631.254 597.643 631.396 597.807C632.407 597.991 633.103 598.371 633.465 598.938C633.626 599.221 633.726 599.534 633.757 599.858C633.789 600.182 633.752 600.509 633.649 600.817C633.401 601.74 632.845 602.55 632.075 603.113L632.074 603.112Z" fill="#090814"/>
<path d="M576.522 608.123H569.488V615.176H576.522V608.123Z" fill="#ED9DA0"/>
<path d="M575.322 621.592H560.372C559.086 621.591 557.817 621.301 556.658 620.745L553.902 619.416C553.597 619.27 553.345 619.035 553.178 618.741C553.011 618.447 552.938 618.109 552.967 617.772C552.997 617.435 553.129 617.116 553.346 616.856C553.562 616.597 553.852 616.41 554.177 616.32L559.864 614.743L569.591 609.615L569.599 609.652C569.782 610.576 570.062 611.972 570.098 612.056C571.096 613.203 572.12 613.731 573.144 613.626C574.93 613.445 576.117 611.378 576.128 611.357L576.138 611.341L576.156 611.343C576.337 611.35 576.514 611.399 576.674 611.487C576.833 611.574 576.97 611.696 577.075 611.845C577.482 612.461 577.233 613.41 577.193 613.553C577.68 614.032 577.899 616.704 577.916 616.92C578.622 617.669 578.957 618.39 578.912 619.061C578.875 619.385 578.769 619.696 578.603 619.976C578.436 620.255 578.213 620.496 577.947 620.683C577.202 621.278 576.275 621.6 575.322 621.594L575.322 621.592Z" fill="#090814"/>
<path d="M605.221 497.865H571.512L566.139 610.009H578.009L585.679 559.035L616.457 599.815L627.693 589.62L605.22 559.036L605.221 497.865Z" fill="#E6E6E6"/>
<path d="M597.818 482.492L603.324 498.761L572.175 498.411L576.819 483.545L597.818 482.492Z" fill="#ED9DA0"/>
<path d="M595.006 441.199L581.193 446.014L568.134 513.62L595.006 516.91L596.965 506.603L598.833 516.91H608.142L598.106 449.682C597.657 446.673 596.602 443.787 595.006 441.199Z" fill="#6C63FF"/>
<path d="M591.133 520.636L591.373 509.524L584.903 509.383L584.663 520.495C584.018 521.127 583.505 521.881 583.153 522.713C582.802 523.546 582.619 524.441 582.616 525.345C582.543 528.809 584.798 531.667 587.656 531.729C590.515 531.791 592.893 529.034 592.968 525.57C593.004 524.666 592.86 523.765 592.545 522.918C592.23 522.071 591.75 521.295 591.133 520.636Z" fill="#ED9DA0"/>
<path d="M582.2 465.018V518.879H593.437L596.757 465.471" fill="#6C63FF"/>
<path d="M593.037 422.814C588.702 418.466 581.673 418.466 577.338 422.814C573.002 427.161 573.002 434.21 577.338 438.558C581.673 442.905 588.702 442.905 593.037 438.558C597.373 434.21 597.373 427.161 593.037 422.814Z" fill="#ED9DA0"/>
<path d="M595.63 421.786L596.168 420.7L593.46 419.351C593.46 419.351 590.472 414.476 585.066 415.846C579.661 417.216 577.229 418.036 577.229 418.036L574.528 419.4L575.883 420.753L573.451 421.573L575.076 422.383L573.186 423.473L574.203 429.059C574.203 429.059 575.894 424.821 579.143 426.442C582.393 428.064 588.337 425.605 588.337 425.605L593.501 435.628C593.501 435.628 594.567 432.114 596.466 433.051C596.466 433.047 601.318 425.297 595.63 421.786Z" fill="#090814"/>
<path d="M549.528 445.006H471.251C469.627 445.006 468.311 446.326 468.311 447.954V473.751C468.311 475.38 469.627 476.7 471.251 476.7H549.528C551.152 476.7 552.468 475.38 552.468 473.751V447.954C552.468 446.326 551.152 445.006 549.528 445.006Z" fill="#F2F2F2"/>
<path d="M470.373 445.546C469.956 445.546 469.555 445.713 469.26 446.009C468.965 446.305 468.799 446.707 468.798 447.125V474.499C468.799 474.917 468.965 475.319 469.26 475.615C469.555 475.911 469.955 476.077 470.373 476.078H550.164C550.581 476.077 550.982 475.911 551.277 475.615C551.572 475.319 551.738 474.917 551.739 474.499V447.125C551.738 446.707 551.572 446.305 551.277 446.009C550.982 445.713 550.581 445.547 550.164 445.546H470.373M470.373 445.02H550.164C550.721 445.02 551.255 445.241 551.649 445.636C552.042 446.031 552.264 446.567 552.264 447.125V474.499C552.264 475.057 552.042 475.593 551.649 475.988C551.255 476.383 550.721 476.605 550.164 476.605H470.373C469.816 476.605 469.282 476.383 468.888 475.988C468.495 475.593 468.273 475.057 468.273 474.499V447.125C468.273 446.567 468.495 446.031 468.888 445.636C469.282 445.241 469.816 445.02 470.373 445.02Z" fill="#090814"/>
<path d="M478.773 449.758C479.603 449.758 480.415 450.005 481.106 450.468C481.796 450.93 482.335 451.588 482.652 452.357C482.97 453.127 483.053 453.974 482.891 454.791C482.729 455.607 482.329 456.358 481.742 456.947C481.155 457.536 480.407 457.937 479.592 458.099C478.777 458.262 477.933 458.178 477.166 457.86C476.398 457.541 475.742 457.001 475.281 456.309C474.82 455.616 474.573 454.802 474.573 453.969C474.573 452.852 475.016 451.781 475.803 450.991C476.591 450.201 477.659 449.758 478.773 449.758Z" fill="#6C63FF"/>
<path d="M476.673 461.338H535.466C535.744 461.334 536.02 461.386 536.278 461.49C536.536 461.594 536.771 461.749 536.968 461.945C537.166 462.141 537.324 462.374 537.431 462.631C537.538 462.889 537.593 463.165 537.593 463.444C537.593 463.723 537.538 463.999 537.431 464.256C537.324 464.513 537.166 464.747 536.968 464.943C536.771 465.138 536.536 465.293 536.278 465.397C536.02 465.501 535.744 465.553 535.466 465.549H476.673C476.121 465.542 475.594 465.317 475.206 464.923C474.818 464.529 474.601 463.997 474.601 463.444C474.601 462.89 474.818 462.359 475.206 461.965C475.594 461.57 476.121 461.345 476.673 461.338Z" fill="#6C63FF"/>
<path d="M476.673 467.654H503.969C504.248 467.651 504.524 467.703 504.782 467.807C505.04 467.911 505.274 468.065 505.472 468.261C505.67 468.457 505.827 468.691 505.935 468.948C506.042 469.205 506.097 469.481 506.097 469.76C506.097 470.039 506.042 470.315 505.935 470.572C505.827 470.83 505.67 471.063 505.472 471.259C505.274 471.455 505.04 471.609 504.782 471.713C504.524 471.818 504.248 471.869 503.969 471.866H476.673C476.121 471.858 475.594 471.633 475.206 471.239C474.818 470.845 474.601 470.314 474.601 469.76C474.601 469.206 474.818 468.675 475.206 468.281C475.594 467.887 476.121 467.662 476.673 467.654Z" fill="#6C63FF"/>
<path d="M521.23 484.807H443.32C441.696 484.807 440.38 486.127 440.38 487.755V513.552C440.38 515.18 441.696 516.5 443.32 516.5H521.23C522.854 516.5 524.17 515.18 524.17 513.552V487.755C524.17 486.127 522.854 484.807 521.23 484.807Z" fill="white"/>
<path d="M442.374 485.206C441.957 485.206 441.556 485.373 441.261 485.669C440.966 485.965 440.8 486.367 440.799 486.785V514.159C440.8 514.578 440.966 514.979 441.261 515.275C441.556 515.571 441.956 515.738 442.374 515.738H522.165C522.582 515.738 522.983 515.571 523.278 515.275C523.573 514.979 523.739 514.578 523.74 514.159V486.785C523.739 486.367 523.573 485.965 523.278 485.669C522.983 485.373 522.582 485.207 522.165 485.206H442.374M442.374 484.68H522.165C522.722 484.68 523.256 484.902 523.65 485.296C524.043 485.691 524.265 486.227 524.265 486.785V514.159C524.265 514.717 524.043 515.253 523.65 515.648C523.256 516.043 522.722 516.265 522.165 516.265H442.374C441.817 516.265 441.283 516.043 440.889 515.648C440.496 515.253 440.274 514.717 440.274 514.159V486.785C440.274 486.227 440.496 485.691 440.889 485.296C441.283 484.902 441.817 484.68 442.374 484.68Z" fill="#E6E6E6"/>
<path d="M450.774 489.416C451.604 489.416 452.416 489.663 453.107 490.126C453.797 490.588 454.336 491.246 454.653 492.016C454.971 492.785 455.054 493.632 454.892 494.449C454.73 495.266 454.33 496.016 453.743 496.605C453.156 497.194 452.408 497.595 451.593 497.758C450.778 497.92 449.934 497.837 449.167 497.518C448.399 497.199 447.743 496.659 447.282 495.967C446.821 495.274 446.574 494.46 446.574 493.627C446.574 492.51 447.017 491.439 447.804 490.649C448.592 489.86 449.66 489.416 450.774 489.416Z" fill="#E6E6E6"/>
<path d="M448.674 500.998H507.467C507.745 500.995 508.021 501.046 508.279 501.15C508.537 501.255 508.771 501.409 508.969 501.605C509.167 501.801 509.325 502.034 509.432 502.292C509.539 502.549 509.594 502.825 509.594 503.104C509.594 503.383 509.539 503.659 509.432 503.916C509.325 504.173 509.167 504.407 508.969 504.603C508.771 504.799 508.537 504.953 508.279 505.057C508.021 505.161 507.745 505.213 507.467 505.209H448.674C448.122 505.202 447.595 504.977 447.207 504.583C446.819 504.189 446.602 503.657 446.602 503.104C446.602 502.55 446.819 502.019 447.207 501.625C447.595 501.231 448.122 501.006 448.674 500.998Z" fill="#E6E6E6"/>
<path d="M448.674 507.315H475.97C476.249 507.311 476.525 507.363 476.783 507.467C477.041 507.571 477.275 507.726 477.473 507.921C477.671 508.117 477.828 508.351 477.936 508.608C478.043 508.865 478.098 509.141 478.098 509.42C478.098 509.699 478.043 509.975 477.936 510.233C477.828 510.49 477.671 510.723 477.473 510.919C477.275 511.115 477.041 511.269 476.783 511.374C476.525 511.478 476.249 511.53 475.97 511.526H448.674C448.122 511.519 447.595 511.293 447.207 510.899C446.819 510.505 446.602 509.974 446.602 509.42C446.602 508.867 446.819 508.335 447.207 507.941C447.595 507.547 448.122 507.322 448.674 507.315Z" fill="#E6E6E6"/>
<path d="M521.23 522.027H443.32C441.696 522.027 440.38 523.347 440.38 524.976V550.404C440.38 552.033 441.696 553.353 443.32 553.353H521.23C522.854 553.353 524.17 552.033 524.17 550.404V524.976C524.17 523.347 522.854 522.027 521.23 522.027Z" fill="white"/>
<path d="M442.374 522.407C441.957 522.408 441.556 522.574 441.261 522.87C440.966 523.166 440.8 523.568 440.799 523.987V551.36C440.8 551.779 440.966 552.18 441.261 552.476C441.556 552.772 441.956 552.939 442.374 552.939H522.165C522.582 552.939 522.983 552.772 523.278 552.476C523.573 552.18 523.739 551.779 523.74 551.36V523.987C523.739 523.568 523.573 523.167 523.278 522.871C522.983 522.575 522.582 522.408 522.165 522.407H442.374M442.374 521.881H522.165C522.722 521.881 523.256 522.103 523.65 522.498C524.043 522.893 524.265 523.428 524.265 523.987V551.36C524.265 551.919 524.043 552.454 523.65 552.849C523.256 553.244 522.722 553.466 522.165 553.466H442.374C441.817 553.466 441.283 553.244 440.889 552.849C440.496 552.454 440.274 551.919 440.274 551.36V523.987C440.274 523.428 440.496 522.893 440.889 522.498C441.283 522.103 441.817 521.881 442.374 521.881Z" fill="#E6E6E6"/>
<path d="M450.774 526.619C451.604 526.619 452.416 526.866 453.107 527.329C453.797 527.792 454.336 528.449 454.653 529.219C454.971 529.988 455.054 530.835 454.892 531.652C454.73 532.469 454.33 533.219 453.743 533.808C453.156 534.397 452.408 534.798 451.593 534.961C450.778 535.123 449.934 535.04 449.167 534.721C448.399 534.402 447.743 533.862 447.282 533.17C446.821 532.477 446.574 531.663 446.574 530.83C446.574 529.713 447.017 528.642 447.804 527.853C448.592 527.063 449.66 526.619 450.774 526.619Z" fill="#E6E6E6"/>
<path d="M448.674 538.199H507.467C507.745 538.196 508.021 538.247 508.279 538.352C508.537 538.456 508.771 538.61 508.969 538.806C509.167 539.002 509.325 539.235 509.432 539.493C509.539 539.75 509.594 540.026 509.594 540.305C509.594 540.584 509.539 540.86 509.432 541.117C509.325 541.375 509.167 541.608 508.969 541.804C508.771 542 508.537 542.154 508.279 542.258C508.021 542.363 507.745 542.414 507.467 542.411H448.674C448.122 542.403 447.595 542.178 447.207 541.784C446.819 541.39 446.602 540.859 446.602 540.305C446.602 539.751 446.819 539.22 447.207 538.826C447.595 538.432 448.122 538.207 448.674 538.199Z" fill="#E6E6E6"/>
<path d="M448.674 544.516H475.97C476.249 544.512 476.525 544.564 476.783 544.668C477.041 544.772 477.275 544.927 477.473 545.123C477.671 545.318 477.828 545.552 477.936 545.809C478.043 546.066 478.098 546.343 478.098 546.621C478.098 546.9 478.043 547.176 477.936 547.434C477.828 547.691 477.671 547.924 477.473 548.12C477.275 548.316 477.041 548.471 476.783 548.575C476.525 548.679 476.249 548.731 475.97 548.727H448.674C448.122 548.72 447.595 548.495 447.207 548.101C446.819 547.706 446.602 547.175 446.602 546.621C446.602 546.068 446.819 545.536 447.207 545.142C447.595 544.748 448.122 544.523 448.674 544.516Z" fill="#E6E6E6"/>
<g opacity="0.88">
<path d="M586.321 88.6624C585.904 88.3725 585.486 88.0975 585.069 87.8172C573.042 79.7743 560.152 73.2404 546.665 68.3503L543.537 113.465H523.712V61.7649C522.464 61.4951 521.207 61.241 519.948 61V113.465H496.387C483.417 113.465 470.978 108.077 461.807 98.4862C452.635 88.8955 447.483 75.8878 447.483 62.3246C446.22 62.6097 444.967 62.9149 443.715 63.2414V113.465H424.525L421.546 70.4455C407.685 76.0043 394.527 83.3142 382.363 92.2127C382.154 92.3629 381.942 92.5183 381.737 92.6677C380.68 93.4426 379.638 94.2328 378.6 95.0331V267.145H435.155L434.156 252.669L428.657 173.186H539.401L533.901 252.669L532.902 267.145H588.831V90.4027C587.999 89.8127 587.162 89.2326 586.321 88.6624ZM443.715 160.06H427.748L424.798 117.405H443.715V160.06ZM519.948 160.06H493.131V159.214C493.131 158.808 493.054 158.406 492.906 158.031C492.757 157.655 492.539 157.315 492.264 157.028C491.989 156.741 491.662 156.513 491.303 156.358C490.944 156.203 490.559 156.124 490.171 156.124H478.513C478.125 156.124 477.74 156.204 477.382 156.359C477.023 156.514 476.697 156.742 476.423 157.029C476.148 157.316 475.931 157.657 475.782 158.032C475.634 158.407 475.557 158.809 475.558 159.214V160.06H447.483V117.405H519.948V160.06ZM523.712 160.06V117.405H543.265L540.314 160.06H523.712Z" fill="#E6E6E6"/>
<path d="M321 278.166C324.655 283.274 328.643 288.111 332.937 292.643L643.063 293.143C647.357 288.611 651.345 283.774 655 278.666L321 278.166Z" fill="#F2F2F2"/>
<path d="M532.287 231.813V274.67C532.287 275.216 532.495 275.74 532.864 276.126C533.234 276.512 533.735 276.729 534.257 276.73H594.987C595.509 276.729 596.01 276.512 596.38 276.126C596.749 275.74 596.957 275.216 596.957 274.67V231.813C596.956 231.268 596.748 230.745 596.379 230.359C596.009 229.973 595.509 229.757 594.987 229.756H534.257C533.735 229.757 533.235 229.973 532.866 230.359C532.496 230.745 532.288 231.268 532.287 231.813Z" fill="#3F3D56"/>
<path d="M533.712 232.347V274.142C533.712 274.433 533.824 274.713 534.021 274.919C534.218 275.126 534.485 275.242 534.764 275.242H594.484C594.763 275.242 595.03 275.126 595.227 274.919C595.424 274.713 595.536 274.433 595.536 274.142V232.347C595.536 232.055 595.425 231.775 595.228 231.568C595.031 231.361 594.763 231.245 594.484 231.244H534.764C534.485 231.245 534.217 231.361 534.02 231.568C533.823 231.775 533.712 232.055 533.712 232.347Z" fill="#6C63FF"/>
<path d="M531.017 283.026C531.128 283.173 531.27 283.291 531.431 283.372C531.592 283.453 531.768 283.494 531.947 283.494H596.977C597.155 283.493 597.33 283.451 597.491 283.371C597.651 283.291 597.792 283.175 597.904 283.03C598.016 282.886 598.096 282.717 598.138 282.536C598.18 282.356 598.182 282.168 598.146 281.986L597.136 276.971C597.095 276.767 597.004 276.577 596.874 276.418C596.744 276.259 596.578 276.137 596.391 276.062C596.256 276.007 596.112 275.978 595.967 275.979H532.952C532.807 275.978 532.663 276.007 532.528 276.062C532.341 276.137 532.175 276.259 532.044 276.418C531.914 276.577 531.824 276.767 531.782 276.971L530.773 281.986C530.737 282.168 530.74 282.356 530.782 282.536C530.825 282.716 530.905 282.885 531.017 283.029L531.017 283.026Z" fill="#2F2E41"/>
<path d="M533.619 278.139H535.214C535.327 278.139 535.418 278.043 535.418 277.926V277.095C535.418 276.978 535.327 276.882 535.214 276.882H533.619C533.506 276.882 533.415 276.978 533.415 277.095V277.926C533.415 278.043 533.506 278.139 533.619 278.139Z" fill="#3F3D56"/>
<path d="M533.666 280.232H535.261C535.374 280.232 535.465 280.137 535.465 280.019V279.189C535.465 279.071 535.374 278.976 535.261 278.976H533.666C533.553 278.976 533.462 279.071 533.462 279.189V280.019C533.462 280.137 533.553 280.232 533.666 280.232Z" fill="#3F3D56"/>
<path d="M576.092 282.744H560.535C560.473 282.744 560.414 282.718 560.37 282.673C560.327 282.627 560.302 282.565 560.302 282.5V281.732C560.302 281.667 560.327 281.605 560.37 281.559C560.414 281.513 560.473 281.488 560.535 281.488H576.092C576.154 281.488 576.213 281.513 576.257 281.559C576.301 281.605 576.325 281.667 576.325 281.732V282.5C576.325 282.565 576.301 282.627 576.257 282.673C576.213 282.718 576.154 282.744 576.092 282.744Z" fill="#3F3D56"/>
<path d="M544.148 240.387H542.599C542.239 240.387 541.947 240.692 541.947 241.068V241.266C541.947 241.643 542.239 241.948 542.599 241.948H544.148C544.508 241.948 544.8 241.643 544.8 241.266V241.068C544.8 240.692 544.508 240.387 544.148 240.387Z" fill="white"/>
<path d="M559.701 240.387H558.152C557.792 240.387 557.5 240.692 557.5 241.068V241.266C557.5 241.643 557.792 241.948 558.152 241.948H559.701C560.061 241.948 560.353 241.643 560.353 241.266V241.068C560.353 240.692 560.061 240.387 559.701 240.387Z" fill="white"/>
<path d="M564.106 240.387H562.557C562.197 240.387 561.905 240.692 561.905 241.068V241.266C561.905 241.643 562.197 241.948 562.557 241.948H564.106C564.466 241.948 564.758 241.643 564.758 241.266V241.068C564.758 240.692 564.466 240.387 564.106 240.387Z" fill="white"/>
<path d="M555.47 240.256H546.829C546.47 240.256 546.178 240.561 546.178 240.937V241.136C546.178 241.512 546.47 241.817 546.829 241.817H555.47C555.83 241.817 556.122 241.512 556.122 241.136V240.937C556.122 240.561 555.83 240.256 555.47 240.256Z" fill="white"/>
<path d="M576.207 240.256H567.566C567.206 240.256 566.914 240.561 566.914 240.937V241.136C566.914 241.512 567.206 241.817 567.566 241.817H576.207C576.567 241.817 576.858 241.512 576.858 241.136V240.937C576.858 240.561 576.567 240.256 576.207 240.256Z" fill="white"/>
<path d="M548.295 243.912H546.745C546.386 243.912 546.094 244.217 546.094 244.594V244.792C546.094 245.168 546.386 245.473 546.745 245.473H548.295C548.655 245.473 548.947 245.168 548.947 244.792V244.594C548.947 244.217 548.655 243.912 548.295 243.912Z" fill="white"/>
<path d="M563.848 243.912H562.298C561.938 243.912 561.646 244.217 561.646 244.594V244.792C561.646 245.168 561.938 245.473 562.298 245.473H563.848C564.207 245.473 564.499 245.168 564.499 244.792V244.594C564.499 244.217 564.207 243.912 563.848 243.912Z" fill="white"/>
<path d="M568.255 243.912H566.705C566.345 243.912 566.054 244.217 566.054 244.594V244.792C566.054 245.168 566.345 245.473 566.705 245.473H568.255C568.615 245.473 568.906 245.168 568.906 244.792V244.594C568.906 244.217 568.615 243.912 568.255 243.912Z" fill="white"/>
<path d="M559.618 243.779H550.977C550.617 243.779 550.325 244.084 550.325 244.461V244.659C550.325 245.035 550.617 245.341 550.977 245.341H559.618C559.978 245.341 560.27 245.035 560.27 244.659V244.461C560.27 244.084 559.978 243.779 559.618 243.779Z" fill="white"/>
<path d="M580.354 243.779H571.713C571.353 243.779 571.062 244.084 571.062 244.461V244.659C571.062 245.035 571.353 245.341 571.713 245.341H580.354C580.714 245.341 581.006 245.035 581.006 244.659V244.461C581.006 244.084 580.714 243.779 580.354 243.779Z" fill="white"/>
<path d="M552.443 247.436H550.894C550.534 247.436 550.242 247.741 550.242 248.117V248.315C550.242 248.692 550.534 248.997 550.894 248.997H552.443C552.803 248.997 553.095 248.692 553.095 248.315V248.117C553.095 247.741 552.803 247.436 552.443 247.436Z" fill="white"/>
<path d="M567.995 247.436H566.446C566.086 247.436 565.794 247.741 565.794 248.117V248.315C565.794 248.692 566.086 248.997 566.446 248.997H567.995C568.355 248.997 568.647 248.692 568.647 248.315V248.117C568.647 247.741 568.355 247.436 567.995 247.436Z" fill="white"/>
<path d="M572.401 247.436H570.852C570.492 247.436 570.2 247.741 570.2 248.117V248.315C570.2 248.692 570.492 248.997 570.852 248.997H572.401C572.761 248.997 573.053 248.692 573.053 248.315V248.117C573.053 247.741 572.761 247.436 572.401 247.436Z" fill="white"/>
<path d="M563.765 247.303H555.124C554.764 247.303 554.473 247.608 554.473 247.984V248.182C554.473 248.559 554.764 248.864 555.124 248.864H563.765C564.125 248.864 564.417 248.559 564.417 248.182V247.984C564.417 247.608 564.125 247.303 563.765 247.303Z" fill="white"/>
<path d="M584.501 247.303H575.86C575.5 247.303 575.208 247.608 575.208 247.984V248.182C575.208 248.559 575.5 248.864 575.86 248.864H584.501C584.861 248.864 585.152 248.559 585.152 248.182V247.984C585.152 247.608 584.861 247.303 584.501 247.303Z" fill="white"/>
<path d="M556.591 250.957H555.041C554.681 250.957 554.39 251.262 554.39 251.639V251.837C554.39 252.213 554.681 252.518 555.041 252.518H556.591C556.951 252.518 557.242 252.213 557.242 251.837V251.639C557.242 251.262 556.951 250.957 556.591 250.957Z" fill="white"/>
<path d="M572.143 250.957H570.594C570.234 250.957 569.942 251.262 569.942 251.639V251.837C569.942 252.213 570.234 252.518 570.594 252.518H572.143C572.503 252.518 572.795 252.213 572.795 251.837V251.639C572.795 251.262 572.503 250.957 572.143 250.957Z" fill="white"/>
<path d="M576.548 250.957H574.998C574.638 250.957 574.347 251.262 574.347 251.639V251.837C574.347 252.213 574.638 252.518 574.998 252.518H576.548C576.908 252.518 577.199 252.213 577.199 251.837V251.639C577.199 251.262 576.908 250.957 576.548 250.957Z" fill="white"/>
<path d="M567.912 250.828H559.271C558.911 250.828 558.619 251.133 558.619 251.51V251.708C558.619 252.084 558.911 252.389 559.271 252.389H567.912C568.272 252.389 568.564 252.084 568.564 251.708V251.51C568.564 251.133 568.272 250.828 567.912 250.828Z" fill="white"/>
<path d="M559.701 264.967H558.152C557.792 264.967 557.5 265.272 557.5 265.648V265.847C557.5 266.223 557.792 266.528 558.152 266.528H559.701C560.061 266.528 560.353 266.223 560.353 265.847V265.648C560.353 265.272 560.061 264.967 559.701 264.967Z" fill="white"/>
<path d="M564.106 264.967H562.557C562.197 264.967 561.905 265.272 561.905 265.648V265.847C561.905 266.223 562.197 266.528 562.557 266.528H564.106C564.466 266.528 564.758 266.223 564.758 265.847V265.648C564.758 265.272 564.466 264.967 564.106 264.967Z" fill="white"/>
<path d="M576.207 265.1H567.566C567.206 265.1 566.914 265.405 566.914 265.781V265.979C566.914 266.356 567.206 266.661 567.566 266.661H576.207C576.567 266.661 576.858 266.356 576.858 265.979V265.781C576.858 265.405 576.567 265.1 576.207 265.1Z" fill="white"/>
<path d="M544.148 264.967H542.599C542.239 264.967 541.947 265.272 541.947 265.648V265.847C541.947 266.223 542.239 266.528 542.599 266.528H544.148C544.508 266.528 544.8 266.223 544.8 265.847V265.648C544.8 265.272 544.508 264.967 544.148 264.967Z" fill="white"/>
<path d="M555.47 265.1H546.829C546.47 265.1 546.178 265.405 546.178 265.781V265.979C546.178 266.356 546.47 266.661 546.829 266.661H555.47C555.83 266.661 556.122 266.356 556.122 265.979V265.781C556.122 265.405 555.83 265.1 555.47 265.1Z" fill="white"/>
<path d="M548.295 261.445H546.745C546.386 261.445 546.094 261.75 546.094 262.127V262.325C546.094 262.701 546.386 263.007 546.745 263.007H548.295C548.655 263.007 548.947 262.701 548.947 262.325V262.127C548.947 261.75 548.655 261.445 548.295 261.445Z" fill="white"/>
<path d="M563.848 261.445H562.298C561.938 261.445 561.646 261.75 561.646 262.127V262.325C561.646 262.701 561.938 263.007 562.298 263.007H563.848C564.207 263.007 564.499 262.701 564.499 262.325V262.127C564.499 261.75 564.207 261.445 563.848 261.445Z" fill="white"/>
<path d="M568.255 261.445H566.705C566.345 261.445 566.054 261.75 566.054 262.127V262.325C566.054 262.701 566.345 263.007 566.705 263.007H568.255C568.615 263.007 568.906 262.701 568.906 262.325V262.127C568.906 261.75 568.615 261.445 568.255 261.445Z" fill="white"/>
<path d="M559.618 261.574H550.977C550.617 261.574 550.325 261.879 550.325 262.256V262.454C550.325 262.83 550.617 263.135 550.977 263.135H559.618C559.978 263.135 560.27 262.83 560.27 262.454V262.256C560.27 261.879 559.978 261.574 559.618 261.574Z" fill="white"/>
<path d="M552.443 257.924H550.894C550.534 257.924 550.242 258.229 550.242 258.605V258.804C550.242 259.18 550.534 259.485 550.894 259.485H552.443C552.803 259.485 553.095 259.18 553.095 258.804V258.605C553.095 258.229 552.803 257.924 552.443 257.924Z" fill="white"/>
<path d="M567.995 257.924H566.446C566.086 257.924 565.794 258.229 565.794 258.605V258.804C565.794 259.18 566.086 259.485 566.446 259.485H567.995C568.355 259.485 568.647 259.18 568.647 258.804V258.605C568.647 258.229 568.355 257.924 567.995 257.924Z" fill="white"/>
<path d="M572.401 257.924H570.852C570.492 257.924 570.2 258.229 570.2 258.605V258.804C570.2 259.18 570.492 259.485 570.852 259.485H572.401C572.761 259.485 573.053 259.18 573.053 258.804V258.605C573.053 258.229 572.761 257.924 572.401 257.924Z" fill="white"/>
<path d="M563.765 258.053H555.124C554.764 258.053 554.473 258.358 554.473 258.734V258.932C554.473 259.309 554.764 259.614 555.124 259.614H563.765C564.125 259.614 564.417 259.309 564.417 258.932V258.734C564.417 258.358 564.125 258.053 563.765 258.053Z" fill="white"/>
<path d="M556.591 254.398H555.041C554.681 254.398 554.39 254.704 554.39 255.08V255.278C554.39 255.655 554.681 255.96 555.041 255.96H556.591C556.951 255.96 557.242 255.655 557.242 255.278V255.08C557.242 254.704 556.951 254.398 556.591 254.398Z" fill="white"/>
<path d="M572.143 254.398H570.594C570.234 254.398 569.942 254.704 569.942 255.08V255.278C569.942 255.655 570.234 255.96 570.594 255.96H572.143C572.503 255.96 572.795 255.655 572.795 255.278V255.08C572.795 254.704 572.503 254.398 572.143 254.398Z" fill="white"/>
<path d="M576.548 254.398H574.998C574.638 254.398 574.347 254.704 574.347 255.08V255.278C574.347 255.655 574.638 255.96 574.998 255.96H576.548C576.908 255.96 577.199 255.655 577.199 255.278V255.08C577.199 254.704 576.908 254.398 576.548 254.398Z" fill="white"/>
<path d="M567.912 254.527H559.271C558.911 254.527 558.619 254.832 558.619 255.209V255.407C558.619 255.783 558.911 256.089 559.271 256.089H567.912C568.272 256.089 568.564 255.783 568.564 255.407V255.209C568.564 254.832 568.272 254.527 567.912 254.527Z" fill="white"/>
<path d="M387.042 229.758V281.043H421.4V229.758C421.401 229.389 421.288 229.029 421.079 228.732C420.87 228.435 420.575 228.216 420.238 228.107C420.079 228.053 419.913 228.026 419.746 228.027H388.701C388.484 228.027 388.268 228.071 388.067 228.158C387.866 228.245 387.683 228.372 387.529 228.533C387.375 228.694 387.252 228.885 387.169 229.095C387.085 229.305 387.042 229.53 387.042 229.758ZM400.452 247.379C400.452 246.362 400.838 245.387 401.526 244.667C402.214 243.948 403.147 243.544 404.12 243.544C405.093 243.544 406.025 243.948 406.713 244.667C407.401 245.387 407.788 246.362 407.788 247.379V253.33C407.788 254.347 407.401 255.323 406.713 256.042C406.025 256.761 405.093 257.166 404.12 257.166C403.147 257.166 402.214 256.761 401.526 256.042C400.838 255.323 400.452 254.347 400.452 253.33V247.379Z" fill="#2F2E41"/>
<path d="M386.938 279.402V284.348C386.938 284.604 387.036 284.85 387.208 285.031C387.381 285.213 387.616 285.316 387.861 285.318H420.583C420.829 285.317 421.063 285.214 421.236 285.032C421.409 284.851 421.506 284.605 421.506 284.348V279.402H386.938Z" fill="#3F3D56"/>
<path d="M332.992 152.491V246.13C332.993 247.324 333.447 248.468 334.254 249.312C335.061 250.155 336.155 250.63 337.296 250.631H469.995C471.136 250.63 472.23 250.155 473.037 249.312C473.844 248.468 474.297 247.324 474.298 246.13V152.491C474.296 151.299 473.842 150.156 473.035 149.313C472.228 148.47 471.135 147.996 469.995 147.994H337.296C336.155 147.996 335.062 148.47 334.255 149.313C333.449 150.156 332.995 151.298 332.992 152.491Z" fill="#3F3D56"/>
<path d="M336.104 153.655V244.974C336.106 245.611 336.348 246.222 336.779 246.673C337.21 247.124 337.795 247.378 338.404 247.379H468.889C469.498 247.378 470.083 247.124 470.514 246.673C470.945 246.222 471.187 245.611 471.189 244.974V153.655C471.189 153.016 470.946 152.404 470.515 151.952C470.084 151.5 469.499 151.246 468.889 151.244H338.404C337.794 151.246 337.209 151.5 336.778 151.952C336.347 152.404 336.104 153.016 336.104 153.655Z" fill="white"/>
<path d="M360.322 284.982C360.454 285.156 360.623 285.297 360.815 285.393C361.007 285.489 361.218 285.538 361.431 285.537H439.06C439.272 285.537 439.481 285.487 439.673 285.391C439.864 285.296 440.033 285.157 440.167 284.984C440.301 284.812 440.396 284.61 440.446 284.395C440.496 284.179 440.499 283.954 440.456 283.737L439.251 277.751C439.201 277.507 439.093 277.28 438.938 277.091C438.783 276.901 438.584 276.755 438.361 276.666C438.2 276.6 438.028 276.566 437.855 276.566H362.63C362.457 276.566 362.285 276.6 362.124 276.666C361.901 276.755 361.702 276.901 361.547 277.091C361.392 277.28 361.284 277.507 361.234 277.751L360.029 283.737C359.987 283.954 359.991 284.179 360.041 284.394C360.092 284.609 360.188 284.81 360.322 284.982Z" fill="#2F2E41"/>
<path d="M464.654 163.826H342.561C342.432 163.826 342.308 163.773 342.217 163.677C342.126 163.582 342.075 163.453 342.075 163.318C342.075 163.184 342.126 163.054 342.217 162.959C342.308 162.864 342.432 162.811 342.561 162.811H464.654C464.783 162.811 464.907 162.864 464.998 162.959C465.089 163.054 465.14 163.184 465.14 163.318C465.14 163.453 465.089 163.582 464.998 163.677C464.907 163.773 464.783 163.826 464.654 163.826Z" fill="#3F3D56"/>
<path d="M350.872 160.214C352.443 160.214 353.717 158.852 353.717 157.173C353.717 155.493 352.443 154.131 350.872 154.131C349.3 154.131 348.026 155.493 348.026 157.173C348.026 158.852 349.3 160.214 350.872 160.214Z" fill="#3F3D56"/>
<path d="M360.701 160.214C362.272 160.214 363.546 158.852 363.546 157.173C363.546 155.493 362.272 154.131 360.701 154.131C359.129 154.131 357.855 155.493 357.855 157.173C357.855 158.852 359.129 160.214 360.701 160.214Z" fill="#3F3D56"/>
<path d="M370.532 160.214C372.103 160.214 373.377 158.852 373.377 157.173C373.377 155.493 372.103 154.131 370.532 154.131C368.96 154.131 367.687 155.493 367.687 157.173C367.687 158.852 368.96 160.214 370.532 160.214Z" fill="#3F3D56"/>
<path d="M536.386 276.521H594.244L595.383 280.522H536.386V276.521Z" fill="#3F3D56"/>
<path d="M458.736 154.885H451.754C451.616 154.889 451.486 154.949 451.39 155.052C451.294 155.155 451.24 155.294 451.24 155.437C451.24 155.581 451.294 155.72 451.39 155.823C451.486 155.926 451.616 155.986 451.754 155.99H458.735C458.806 155.992 458.876 155.979 458.942 155.952C459.008 155.926 459.068 155.885 459.119 155.834C459.169 155.782 459.21 155.721 459.237 155.653C459.265 155.585 459.279 155.511 459.279 155.437C459.279 155.364 459.265 155.29 459.237 155.222C459.21 155.154 459.169 155.093 459.119 155.041C459.068 154.99 459.008 154.949 458.942 154.922C458.876 154.896 458.806 154.883 458.735 154.885H458.736Z" fill="#3F3D56"/>
<path d="M458.734 156.961H451.752C451.612 156.961 451.478 157.019 451.378 157.123C451.279 157.226 451.224 157.367 451.224 157.514C451.224 157.66 451.279 157.801 451.378 157.904C451.478 158.008 451.612 158.066 451.752 158.066H458.734C458.804 158.068 458.875 158.056 458.94 158.029C459.006 158.002 459.066 157.962 459.117 157.91C459.168 157.859 459.208 157.797 459.235 157.729C459.263 157.661 459.277 157.588 459.277 157.514C459.277 157.44 459.263 157.367 459.235 157.299C459.208 157.231 459.168 157.169 459.117 157.118C459.066 157.066 459.006 157.026 458.94 156.999C458.875 156.972 458.804 156.959 458.734 156.961V156.961Z" fill="#3F3D56"/>
<path d="M458.736 159.035H451.754C451.616 159.039 451.486 159.099 451.39 159.203C451.294 159.306 451.24 159.444 451.24 159.588C451.24 159.732 451.294 159.87 451.39 159.973C451.486 160.076 451.616 160.136 451.754 160.14H458.735C458.806 160.142 458.876 160.13 458.942 160.103C459.008 160.076 459.068 160.036 459.119 159.984C459.169 159.933 459.21 159.871 459.237 159.803C459.265 159.735 459.279 159.662 459.279 159.588C459.279 159.514 459.265 159.441 459.237 159.373C459.21 159.305 459.169 159.243 459.119 159.192C459.068 159.14 459.008 159.1 458.942 159.073C458.876 159.046 458.806 159.033 458.735 159.035H458.736Z" fill="#3F3D56"/>
<path d="M618.495 281.586C618.681 282.151 619.033 282.639 619.5 282.982C619.968 283.324 620.527 283.503 621.098 283.492L632.247 283.192C632.822 283.181 633.378 282.975 633.832 282.605C634.286 282.236 634.613 281.723 634.764 281.143L636.342 263.499C636.902 263.765 637.511 263.896 638.126 263.883C639.204 263.854 640.227 263.379 640.97 262.562C641.713 261.745 642.116 260.653 642.088 259.525C642.061 258.398 641.607 257.328 640.826 256.551C640.044 255.774 639 255.353 637.922 255.381C637.676 255.381 637.431 255.407 637.191 255.461C636.93 255.165 636.612 254.93 636.259 254.771C635.906 254.612 635.525 254.531 635.14 254.535L617.989 254.999C617.847 255.004 617.706 255.022 617.566 255.054C617.19 255.127 616.834 255.284 616.52 255.513C616.207 255.743 615.944 256.04 615.75 256.385C615.556 256.729 615.434 257.113 615.394 257.511C615.353 257.909 615.395 258.311 615.516 258.691L618.495 281.586ZM636.666 262.302L637.788 258.097C637.916 257.612 637.919 257.1 637.797 256.613C637.851 256.613 637.9 256.586 637.954 256.586C638.725 256.567 639.472 256.869 640.03 257.426C640.588 257.983 640.912 258.749 640.93 259.555C640.948 260.362 640.659 261.143 640.126 261.726C639.594 262.31 638.861 262.648 638.09 262.667C637.593 262.684 637.1 262.557 636.666 262.303V262.302Z" fill="#E6E6E6"/>
<path d="M617.566 255.058C617.932 257.241 622.04 258.778 626.979 258.511C631.522 258.293 635.236 256.624 635.916 254.648C635.665 254.57 635.403 254.534 635.14 254.54L617.99 255.003C617.848 255.008 617.706 255.027 617.567 255.058L617.566 255.058Z" fill="#D6D6E3"/>
<path d="M500.965 242.593C500.965 242.593 463.861 247.273 467.404 242.593C468.686 240.901 469.041 235.886 468.97 230.173C468.947 228.438 468.886 226.641 468.803 224.851C468.392 216.272 467.404 207.888 467.404 207.888C467.404 207.888 499.847 191.899 496.118 204.573C494.627 209.693 495.116 216.885 496.249 223.634C496.581 225.603 496.965 227.533 497.368 229.366C498.35 233.837 499.551 238.251 500.965 242.593Z" fill="#ED9DA0"/>
<path d="M430.537 310.983V310.656L496.027 309.911L535.928 309.521H536.04L535.998 310.098L536.054 309.521H536.125V309.455L536.636 304.21L536.83 302.225L536.89 301.605L536.942 301.087L539.247 293.049L541.551 285.024L543.49 278.266L546.451 267.94C546.451 267.94 544.773 263.845 543.841 262.676C542.909 261.506 539.249 253.134 539.249 253.134C539.249 253.134 534.02 245.584 530.541 244.672C529.083 244.282 526.204 243.763 523.147 243.112C522.002 242.87 513.228 240.22 512.705 239.852C509.964 237.75 503.095 237.512 502.831 237.512C502.83 237.503 502.83 237.494 502.831 237.485V237.45C502.84 237.286 502.84 237.122 502.831 236.959C502.835 236.776 502.824 236.594 502.797 236.413C502.801 236.347 502.792 236.28 502.771 236.218C502.752 236.077 502.729 235.929 502.696 235.773C502.685 235.704 502.67 235.635 502.651 235.567C502.543 235.097 502.387 234.641 502.185 234.206C502.159 234.144 502.125 234.077 502.096 234.015C501.913 233.655 501.701 233.312 501.462 232.989C501.414 232.923 501.361 232.853 501.305 232.787C501 232.41 500.66 232.065 500.291 231.757C500.19 231.675 500.086 231.59 499.978 231.512C499.917 231.46 499.854 231.413 499.787 231.371L499.456 231.145L499.146 230.957C498.874 230.802 498.587 230.649 498.274 230.505C498.177 230.458 498.072 230.416 497.968 230.374C497.864 230.333 497.7 230.265 497.561 230.21H497.539L497.259 230.093C497.047 230.019 496.83 229.953 496.603 229.887L496.256 229.794L495.883 229.704L495.51 229.622C495.137 229.544 494.738 229.474 494.321 229.419L493.896 229.365L493.459 229.318L493.008 229.279L492.367 229.24L491.621 229.213C488.33 229.213 485.049 229.578 481.832 230.302C479.599 229.782 477.312 229.562 475.026 229.647H474.702L474.329 229.67H474.089L473.609 229.717C473.446 229.725 473.284 229.745 473.124 229.776C472.963 229.799 472.796 229.819 472.635 229.846L472.389 229.89C472.147 229.933 471.901 229.979 471.644 230.034C471.562 230.049 471.48 230.069 471.398 230.092C471.073 230.166 470.749 230.256 470.428 230.357C470.268 230.404 470.108 230.458 469.947 230.517C469.864 230.541 469.787 230.572 469.709 230.604L469.47 230.694L469.235 230.791L468.955 230.908C468.814 230.971 468.675 231.037 468.538 231.107C468.459 231.142 468.381 231.181 468.306 231.224C468.232 231.267 468.153 231.302 468.082 231.345C467.239 231.801 466.46 232.375 465.767 233.053L465.576 233.244L465.39 233.443C465.326 233.51 465.266 233.58 465.207 233.65C464.964 233.928 464.737 234.221 464.528 234.527C464.468 234.61 464.412 234.691 464.356 234.777C464.12 235.142 463.906 235.522 463.715 235.916C463.667 236.009 463.622 236.107 463.577 236.2C463.273 236.859 463.024 237.544 462.832 238.248C462.762 238.507 462.699 238.767 462.641 239.027C462.641 239.027 454.747 242.67 448.199 245.306C446.457 246.008 444.817 246.644 443.444 247.123C443.045 247.263 442.672 247.392 442.325 247.513C441.573 247.797 440.79 247.986 439.995 248.074C439.62 248.081 439.246 248.117 438.876 248.183C435.867 248.694 430.709 250.913 430.146 253.14C430.1 253.318 430.088 253.503 430.109 253.686C430.109 253.686 417.844 293.395 417.709 294.124C417.166 297.095 415.956 302.753 415.36 305.042C414.916 306.75 414.271 309.09 413.827 310.697C413.821 310.744 413.808 310.79 413.79 310.833L430.508 310.662V310.989H430.56L430.537 310.983Z" fill="#6C63FF"/>
<path d="M502.853 236.974C492.039 239.057 471.677 238.608 462.877 238.292C466.103 226.203 481.831 230.313 481.831 230.313C501.302 226.25 502.793 234.681 502.853 236.974Z" fill="#6C63FF"/>
<path d="M560.257 290.267C560.257 290.267 572.995 288.22 573.245 294.069C573.495 299.919 566.749 304.005 566.749 304.005L560.257 290.267Z" fill="#ED9DA0"/>
<path d="M569.703 301.967C569.703 301.967 569.371 302.793 568.759 303.991C567.834 305.832 566.708 307.556 565.403 309.126L565.302 309.239H564.698L543.167 309.446H542.652L542.588 309.368L538.413 304.185L536.84 302.232L536.776 302.15L536.642 301.986L536.568 301.892L536.471 301.771L533.409 297.973L534.528 293.099L536.434 284.886L536.482 284.687L536.855 283.127L537.12 281.957L538.007 278.143L541.05 265.021L546.457 267.947L552.158 278.478L555.219 284.133H556.896C557.213 284.133 557.94 284.772 558.672 285.509C558.933 285.771 559.194 286.047 559.417 286.289C560.081 287.006 560.607 287.623 560.607 287.623C560.607 287.623 563.325 287.685 564.056 289.923C564.094 290.032 564.125 290.142 564.149 290.255C564.392 291.135 564.708 291.99 565.093 292.813C565.574 293.909 566.178 295.152 566.79 296.396C567.927 298.677 569.083 300.849 569.508 301.635L569.56 301.733L569.703 301.967Z" fill="#6C63FF"/>
<path d="M430.537 310.984V310.657L496.027 309.912L535.928 309.522H536.04V309.456L536.413 304.217L536.573 301.877L537.185 293.058L537.666 286.078V285.906C537.688 285.584 537.674 285.261 537.624 284.943C537.626 284.93 537.626 284.917 537.624 284.904C537.522 284.246 537.265 283.625 536.878 283.095C536.468 282.544 535.93 282.112 535.315 281.839C534.701 281.566 534.03 281.461 533.366 281.535C528.849 282.019 524.289 282.405 519.725 282.705C519.102 282.752 518.479 282.792 517.86 282.826C488.423 284.655 459.25 283.173 443.465 282.046L442.346 281.959C439.613 281.756 437.327 281.569 435.567 281.409C434.598 281.324 433.634 281.616 432.86 282.231C432.086 282.845 431.557 283.737 431.375 284.735C431.338 284.947 431.315 285.16 431.308 285.375L431.055 294.017L430.708 304.963L430.544 310.563V310.999L430.537 310.984Z" fill="#090814"/>
<path d="M479.316 225.9C491.245 225.9 500.916 215.787 500.916 203.312C500.916 190.837 491.245 180.725 479.316 180.725C467.387 180.725 457.716 190.837 457.716 203.312C457.716 215.787 467.387 225.9 479.316 225.9Z" fill="#ED9DA0"/>
<path d="M508.51 187.533C508.343 187.346 508.141 187.196 507.917 187.093C507.693 186.989 507.451 186.934 507.206 186.93L507.531 185.987C507.637 185.69 507.665 185.369 507.613 185.057C507.561 184.744 507.431 184.452 507.235 184.21C507.04 183.968 506.787 183.784 506.501 183.678C506.216 183.571 505.908 183.546 505.611 183.604L504.428 183.843L504.539 183.016C504.582 182.708 504.548 182.394 504.44 182.105C504.331 181.815 504.153 181.56 503.921 181.364C503.69 181.169 503.413 181.04 503.12 180.99C502.826 180.94 502.525 180.971 502.246 181.08C501.993 181.184 501.72 181.228 501.448 181.208C501.177 181.188 500.913 181.104 500.676 180.963C500.438 180.827 500.231 180.638 500.071 180.409C499.91 180.181 499.799 179.918 499.745 179.64L499.333 177.562L499.291 177.451C497.284 173.953 493.426 171.408 488.704 170.475C484.501 169.639 480.192 170.065 476.037 170.465C474.389 170.628 472.528 170.81 470.976 171.804C469.658 172.655 468.543 174.358 468.77 176.077C464.674 174.764 460.282 177.387 458.106 180.69C455.527 184.623 455.105 189.552 455.037 193.403C454.853 202.518 456.652 209.975 460.37 215.571C460.641 215.976 460.709 216.823 461.246 217.107L461.135 216.919C461.736 217.233 462.346 217.74 462.119 218.282C461.465 219.844 465.813 223.296 468.877 224.438C474.466 226.522 481.897 226.344 487.121 225.594L487.305 224.301C489.191 224.033 490.52 223.52 490.893 222.719C491.552 222.131 492.114 221.604 492.604 221.117L492.609 221.112C492.619 221.102 492.638 221.087 492.648 221.077C495.009 218.71 495.557 217.361 495.804 215.308C496.042 213.296 495.62 211.253 495.188 209.414C504.273 210.884 491.611 199.296 500.073 197.056C500.17 197.024 500.269 196.999 500.368 196.98C500.616 196.919 500.863 196.858 501.1 196.787C502.245 196.462 503.341 195.972 504.357 195.332C506.722 193.827 507.503 191.83 508.725 189.579C508.901 189.259 508.975 188.888 508.936 188.52C508.897 188.153 508.746 187.808 508.507 187.536L508.51 187.533Z" fill="#090814"/>
<path d="M385.276 182.512H421.619C422.38 182.512 423.109 182.828 423.648 183.39C424.186 183.953 424.488 184.716 424.488 185.512C424.488 186.308 424.186 187.071 423.648 187.633C423.109 188.196 422.38 188.512 421.619 188.512H385.276C384.515 188.512 383.786 188.196 383.248 187.633C382.71 187.071 382.407 186.308 382.407 185.512C382.407 184.716 382.71 183.953 383.248 183.39C383.786 182.828 384.515 182.512 385.276 182.512Z" fill="#6C63FF"/>
<path d="M375.713 196.512H431.183C431.944 196.512 432.674 196.828 433.212 197.39C433.75 197.953 434.052 198.716 434.052 199.512C434.052 200.308 433.75 201.071 433.212 201.633C432.674 202.196 431.944 202.512 431.183 202.512H375.713C374.952 202.512 374.222 202.196 373.684 201.633C373.146 201.071 372.844 200.308 372.844 199.512C372.844 198.716 373.146 197.953 373.684 197.39C374.222 196.828 374.952 196.512 375.713 196.512Z" fill="#E6E6E6"/>
<path d="M375.713 210.514H431.183C431.944 210.514 432.674 210.83 433.212 211.392C433.75 211.955 434.052 212.718 434.052 213.514C434.052 214.31 433.75 215.073 433.212 215.635C432.674 216.198 431.944 216.514 431.183 216.514H375.713C374.952 216.514 374.222 216.198 373.684 215.635C373.146 215.073 372.844 214.31 372.844 213.514C372.844 212.718 373.146 211.955 373.684 211.392C374.222 210.83 374.952 210.514 375.713 210.514Z" fill="#E6E6E6"/>
</g>
<g opacity="0.88">
<rect x="715" y="162.805" width="141.73" height="141.73" rx="20" fill="#E8E9E9"/>
<g clip-path="url(#clip1_5096_10855)">
<path d="M897.82 262.105C897.688 262.248 897.557 262.395 897.429 262.542C895.647 264.528 894.037 266.652 892.616 268.89C892.501 269.062 892.39 269.238 892.288 269.409C888.923 274.818 886.632 280.78 885.532 286.992C885.285 288.397 885.1 289.81 884.975 291.232C884.886 292.327 884.832 293.423 884.813 294.521C884.745 299.129 885.171 304.256 882.079 307.777C881.253 308.704 880.244 309.464 879.111 310.016C878.258 310.44 877.356 310.768 876.424 310.992H866.785C866.3 310.923 865.815 310.849 865.331 310.775C865.318 310.775 865.305 310.771 865.292 310.771L865.195 310.804L864.612 310.992L864.587 311V310.992C864.587 310.976 864.586 310.959 864.582 310.943C864.583 310.913 864.582 310.883 864.578 310.853V310.849C864.574 310.767 864.57 310.69 864.57 310.608L864.557 310.391C864.557 310.391 864.553 310.387 864.557 310.387C864.553 310.265 864.544 310.142 864.54 310.016C864.093 299.353 865.182 288.336 870.42 278.948C872.217 275.731 874.53 272.807 877.275 270.283C877.29 270.267 877.308 270.252 877.326 270.238C882.772 265.246 889.814 261.982 897.246 262.093C897.438 262.093 897.629 262.097 897.82 262.105Z" fill="#F0F0F0"/>
<path d="M897.842 262.335C889.424 266.486 882.582 273.079 878.286 281.178C877.329 282.906 876.662 284.768 876.308 286.696C876.027 288.584 876.277 290.51 877.033 292.274C877.703 293.933 878.589 295.555 878.828 297.341C878.936 298.257 878.841 299.184 878.55 300.063C878.259 300.941 877.778 301.75 877.139 302.438C875.592 304.19 873.481 305.304 871.378 306.324C869.043 307.456 866.6 308.597 864.978 310.645C864.782 310.893 864.393 310.586 864.589 310.338C867.409 306.775 872.377 305.998 875.76 303.101C877.338 301.75 878.502 299.933 878.371 297.84C878.256 296.01 877.345 294.337 876.651 292.663C875.887 290.953 875.571 289.089 875.73 287.234C875.981 285.295 876.572 283.411 877.48 281.664C879.459 277.697 882.075 274.054 885.231 270.869C888.813 267.214 893.019 264.174 897.667 261.882C897.955 261.74 898.128 262.195 897.842 262.335Z" fill="white"/>
<path d="M879.509 278.492C878.193 277.615 877.244 276.317 876.831 274.83C876.419 273.342 876.57 271.763 877.258 270.373C877.398 270.092 877.859 270.288 877.719 270.569C877.075 271.862 876.935 273.334 877.322 274.718C877.709 276.102 878.598 277.308 879.829 278.118C880.096 278.294 879.775 278.667 879.509 278.492Z" fill="white"/>
<path d="M876.577 291.476C879.805 290.943 882.705 289.261 884.699 286.765C884.896 286.518 885.285 286.825 885.088 287.072C883.008 289.666 879.987 291.411 876.627 291.958C876.307 292.01 876.259 291.528 876.577 291.476Z" fill="white"/>
<path d="M889.076 267.802C889.512 268.244 890.055 268.574 890.657 268.764C891.258 268.954 891.9 268.997 892.523 268.89C892.842 268.834 892.89 269.316 892.572 269.371C891.883 269.487 891.175 269.438 890.51 269.23C889.845 269.022 889.243 268.66 888.757 268.177C888.707 268.135 888.676 268.076 888.669 268.013C888.663 267.95 888.682 267.887 888.722 267.836C888.764 267.787 888.826 267.756 888.892 267.749C888.958 267.743 889.025 267.762 889.076 267.802Z" fill="white"/>
<path d="M921.296 291.665C921.1 291.706 920.905 291.746 920.705 291.791H920.701C918.036 292.348 915.422 293.11 912.885 294.071C912.69 294.144 912.494 294.218 912.299 294.296H912.294C906.247 296.661 900.706 300.079 895.95 304.378C895.933 304.394 895.916 304.406 895.899 304.423C895.888 304.435 895.877 304.445 895.865 304.455L895.843 304.476C893.956 306.193 892.207 308.045 890.609 310.015C890.609 310.019 890.605 310.023 890.601 310.028C890.345 310.346 890.086 310.665 889.831 310.992H864.612L864.587 311V310.992H864.48C864.48 310.988 864.485 310.983 864.489 310.979C864.489 310.975 864.493 310.975 864.493 310.971C864.523 310.93 864.553 310.889 864.578 310.853V310.849C864.585 310.836 864.593 310.825 864.604 310.816C864.629 310.775 864.659 310.742 864.68 310.706C864.85 310.477 865.016 310.244 865.186 310.015C865.463 309.635 865.743 309.255 866.028 308.88L866.028 308.878L866.029 308.877L866.031 308.876L866.032 308.875V308.871C866.037 308.867 866.037 308.863 866.041 308.859L866.049 308.851C869.557 304.186 873.503 299.757 878.023 296.048C878.159 295.934 878.295 295.819 878.44 295.713C880.486 294.049 882.672 292.551 884.975 291.232C886.234 290.517 887.531 289.86 888.866 289.263C892.309 287.738 895.981 286.743 899.747 286.313H899.755C899.764 286.313 899.772 286.309 899.785 286.309C899.798 286.309 899.806 286.305 899.815 286.305C907.302 285.472 914.977 286.938 920.849 291.326C921.002 291.44 921.147 291.55 921.296 291.665Z" fill="#F0F0F0"/>
<path d="M864.48 310.992H864.587V311.001L864.612 310.992H871.36C869.349 310.661 867.342 310.404 865.331 310.776C865.284 310.784 865.241 310.792 865.195 310.804C864.99 310.841 864.786 310.89 864.582 310.943C864.57 310.947 864.553 310.952 864.54 310.956C864.521 310.96 864.504 310.969 864.489 310.98C864.478 310.982 864.468 310.986 864.459 310.992H864.48Z" fill="white"/>
<path d="M921.172 291.866C921.015 291.841 920.862 291.812 920.705 291.792H920.7C917.42 291.278 914.09 291.116 910.772 291.31C910.606 291.318 910.436 291.33 910.266 291.339C905.661 291.647 901.133 292.638 896.842 294.276C896.838 294.276 896.838 294.276 896.838 294.28C896.791 294.296 896.745 294.313 896.702 294.329C895.703 294.717 894.716 295.142 893.751 295.599C891.904 296.426 890.204 297.526 888.713 298.859C887.519 299.992 886.615 301.375 886.072 302.9C886.017 303.055 885.961 303.206 885.91 303.361C885.872 303.484 885.834 303.61 885.796 303.733C885.294 305.445 884.983 307.25 884.057 308.815C883.798 309.251 883.484 309.655 883.121 310.016C882.746 310.391 882.323 310.719 881.863 310.992H880.791C881.377 310.749 881.921 310.419 882.403 310.016C882.777 309.706 883.105 309.347 883.376 308.95C884.431 307.422 884.754 305.559 885.247 303.823C885.328 303.541 885.413 303.267 885.507 302.994C885.997 301.495 886.82 300.117 887.917 298.953C889.332 297.55 890.984 296.389 892.803 295.518C893.951 294.938 895.13 294.412 896.341 293.941C896.498 293.875 896.655 293.818 896.813 293.761C904.455 290.903 912.754 290.063 920.849 291.326C921.007 291.347 921.16 291.375 921.317 291.4C921.636 291.453 921.491 291.919 921.172 291.866Z" fill="white"/>
<path d="M896.411 294.16C895.909 292.698 895.965 291.113 896.567 289.687C897.17 288.261 898.281 287.087 899.701 286.375C899.989 286.232 900.234 286.655 899.946 286.798C898.622 287.459 897.587 288.552 897.029 289.881C896.471 291.21 896.425 292.687 896.901 294.046C897.004 294.341 896.513 294.454 896.411 294.16Z" fill="white"/>
<path d="M885.933 302.831C888.844 304.273 892.213 304.607 895.37 303.767C895.682 303.684 895.8 304.154 895.488 304.238C892.202 305.105 888.696 304.751 885.671 303.245C885.382 303.101 885.646 302.688 885.933 302.831Z" fill="white"/>
<path d="M910.749 291.159C910.82 291.764 911.047 292.342 911.408 292.841C911.77 293.341 912.255 293.746 912.819 294.021C913.11 294.161 912.845 294.574 912.557 294.434C911.935 294.128 911.4 293.679 910.999 293.128C910.599 292.577 910.345 291.94 910.259 291.273C910.246 291.211 910.258 291.146 910.292 291.092C910.326 291.038 910.381 290.998 910.445 290.981C910.51 290.966 910.578 290.977 910.635 291.01C910.692 291.044 910.733 291.097 910.749 291.159Z" fill="white"/>
<path d="M915.943 139.376C916.058 125.85 916.63 112.193 917.661 98.4055C917.678 98.1318 917.699 97.8621 917.72 97.5884C918.265 90.4108 918.931 83.2073 919.719 75.9779V75.937C919.718 74.7455 919.225 73.6029 918.348 72.7603C917.471 71.9177 916.282 71.4441 915.042 71.4434H789.607C788.371 71.4457 787.186 71.9171 786.31 72.7549C785.434 73.5927 784.938 74.7291 784.93 75.9166C783.842 85.8722 782.988 95.7787 782.37 105.636C782.345 105.959 782.328 106.278 782.311 106.6C782.005 111.474 781.761 116.335 781.58 121.184C781.567 121.47 781.554 121.756 781.55 122.042C780.389 151.794 781.519 181.588 784.93 211.181C784.939 212.367 785.436 213.503 786.311 214.34C787.187 215.177 788.372 215.648 789.607 215.65H915.042C916.282 215.649 917.471 215.175 918.348 214.333C919.225 213.49 919.718 212.348 919.719 211.156V211.111C919.102 205.854 918.561 200.562 918.094 195.236C918.026 194.456 917.96 193.676 917.895 192.895C917.571 189.059 917.289 185.208 917.048 181.343C916.997 180.562 916.951 179.782 916.908 179.002C916.453 171.264 916.156 163.467 916.015 155.61C915.998 154.83 915.985 154.054 915.973 153.269C915.922 149.433 915.906 145.582 915.926 141.716C915.926 140.936 915.93 140.156 915.943 139.376Z" fill="#F0F0F0"/>
<path d="M934.001 91.6392C934 90.4476 933.507 89.305 932.63 88.4625C931.753 87.6199 930.564 87.1462 929.324 87.1455H803.889C802.653 87.1478 801.468 87.6192 800.592 88.457C799.716 89.2949 799.22 90.4312 799.212 91.6188C794.977 130.416 794.276 168.526 797.112 205.207C797.456 209.745 797.859 214.261 798.319 218.753C798.566 221.159 798.828 223.559 799.106 225.951C799.14 226.262 799.174 226.572 799.212 226.883C799.221 228.07 799.718 229.205 800.594 230.042C801.47 230.879 802.654 231.35 803.889 231.352H929.324C930.564 231.351 931.753 230.878 932.63 230.035C933.507 229.192 934 228.05 934.001 226.858V226.813C928.928 183.604 928.928 138.141 934.001 91.68V91.6392Z" fill="white"/>
<path d="M934.001 91.6392C934 90.4476 933.507 89.305 932.63 88.4625C931.753 87.6199 930.564 87.1462 929.324 87.1455H803.889C802.653 87.1478 801.468 87.6192 800.592 88.457C799.716 89.2949 799.22 90.4312 799.212 91.6188C794.977 130.416 794.276 168.526 797.112 205.207C797.456 209.745 797.859 214.261 798.319 218.753C798.566 221.159 798.828 223.559 799.106 225.951C799.14 226.262 799.174 226.572 799.212 226.883C799.221 228.07 799.718 229.205 800.594 230.042C801.47 230.879 802.654 231.35 803.889 231.352H929.324C930.564 231.351 931.753 230.878 932.63 230.035C933.507 229.192 934 228.05 934.001 226.858V226.813C928.928 183.604 928.928 138.141 934.001 91.68V91.6392ZM933.15 226.883C933.143 227.853 932.736 228.782 932.02 229.466C931.303 230.15 930.334 230.534 929.324 230.535H803.889C802.875 230.533 801.903 230.146 801.185 229.456C800.468 228.767 800.064 227.833 800.063 226.858V226.813C800.033 226.552 800.003 226.286 799.973 226.025C799.68 223.525 799.406 221.018 799.153 218.504C798.706 214.096 798.311 209.664 797.966 205.207C795.13 168.547 795.828 130.461 800.063 91.68V91.6392C800.064 90.6645 800.468 89.7302 801.185 89.041C801.903 88.3518 802.875 87.964 803.889 87.9625H929.324C930.335 87.9629 931.305 88.3475 932.022 89.0325C932.739 89.7176 933.145 90.6473 933.15 91.6188C928.078 138.116 928.078 183.629 933.15 226.883Z" fill="#E4E4E4"/>
<path d="M812.535 135.959C812.212 135.96 811.903 136.083 811.675 136.303C811.446 136.522 811.318 136.82 811.318 137.13C811.318 137.44 811.446 137.738 811.675 137.957C811.903 138.177 812.212 138.3 812.535 138.301H881.734C882.057 138.3 882.366 138.177 882.594 137.957C882.822 137.738 882.951 137.44 882.951 137.13C882.951 136.82 882.822 136.522 882.594 136.303C882.366 136.083 882.057 135.96 881.734 135.959H812.535Z" fill="#E6E6E6"/>
<path d="M812.535 142.826C812.212 142.827 811.903 142.95 811.675 143.17C811.446 143.389 811.318 143.687 811.318 143.997C811.318 144.307 811.446 144.605 811.675 144.824C811.903 145.044 812.212 145.167 812.535 145.168H914.469C914.792 145.167 915.101 145.044 915.329 144.824C915.557 144.605 915.685 144.307 915.685 143.997C915.685 143.687 915.557 143.389 915.329 143.17C915.101 142.95 914.792 142.827 914.469 142.826H812.535Z" fill="#E6E6E6"/>
<path d="M812.535 149.853C812.212 149.853 811.903 149.977 811.675 150.197C811.447 150.416 811.319 150.713 811.319 151.023C811.319 151.334 811.447 151.631 811.675 151.85C811.903 152.07 812.212 152.194 812.535 152.194H881.734C882.057 152.194 882.366 152.07 882.594 151.85C882.822 151.631 882.95 151.334 882.95 151.023C882.95 150.713 882.822 150.416 882.594 150.197C882.366 149.977 882.057 149.853 881.734 149.853H812.535Z" fill="#E6E6E6"/>
<path d="M812.535 168.559C812.212 168.559 811.903 168.683 811.675 168.903C811.447 169.122 811.319 169.42 811.319 169.73C811.319 170.04 811.447 170.337 811.675 170.556C811.903 170.776 812.212 170.9 812.535 170.9H914.469C914.791 170.9 915.101 170.776 915.328 170.556C915.556 170.337 915.684 170.04 915.684 169.73C915.684 169.42 915.556 169.122 915.328 168.903C915.101 168.683 914.791 168.559 914.469 168.559H812.535Z" fill="#E6E6E6"/>
<path d="M812.535 175.585C812.212 175.586 811.903 175.709 811.675 175.929C811.446 176.148 811.318 176.446 811.318 176.756C811.318 177.066 811.446 177.364 811.675 177.583C811.903 177.803 812.212 177.926 812.535 177.927H881.734C882.057 177.926 882.366 177.803 882.594 177.583C882.822 177.364 882.951 177.066 882.951 176.756C882.951 176.446 882.822 176.148 882.594 175.929C882.366 175.709 882.057 175.586 881.734 175.585H812.535Z" fill="#E6E6E6"/>
<path d="M812.535 182.452C812.212 182.453 811.903 182.576 811.675 182.796C811.446 183.015 811.318 183.313 811.318 183.623C811.318 183.933 811.446 184.231 811.675 184.45C811.903 184.67 812.212 184.793 812.535 184.794H914.469C914.792 184.793 915.101 184.67 915.329 184.45C915.557 184.231 915.685 183.933 915.685 183.623C915.685 183.313 915.557 183.015 915.329 182.796C915.101 182.576 914.792 182.453 914.469 182.452H812.535Z" fill="#E6E6E6"/>
<path d="M812.535 189.479C812.212 189.479 811.903 189.603 811.675 189.823C811.447 190.042 811.319 190.339 811.319 190.649C811.319 190.959 811.447 191.257 811.675 191.476C811.903 191.696 812.212 191.82 812.535 191.82H881.734C882.057 191.82 882.366 191.696 882.594 191.476C882.822 191.257 882.95 190.959 882.95 190.649C882.95 190.339 882.822 190.042 882.594 189.823C882.366 189.603 882.057 189.479 881.734 189.479H812.535Z" fill="#E6E6E6"/>
<path d="M900.34 210.793L894.376 212.687C893.382 213.002 892.388 213.318 891.394 213.633C890.474 213.924 889.478 214.271 888.492 214.146C887.811 214.059 887.035 213.682 886.823 213.009C886.622 212.372 887.048 211.706 887.563 211.329C888.986 210.289 890.786 211.348 891.794 212.425C893.027 213.742 893.725 215.443 894.882 216.822C895.912 218.059 897.217 219.058 898.702 219.745C901.654 221.084 905.254 220.942 907.886 218.991C911.03 216.661 911.35 212.623 911.367 209.101C911.361 208.942 911.292 208.791 911.173 208.681C911.054 208.571 910.895 208.509 910.729 208.509C910.564 208.509 910.405 208.571 910.286 208.681C910.167 208.791 910.097 208.942 910.091 209.101C910.076 212.293 909.887 216.207 906.857 218.205C903.955 220.118 900.14 219.611 897.468 217.572C895.979 216.436 895.063 214.954 894.085 213.42C893.131 211.922 891.946 210.47 890.15 209.888C889.38 209.619 888.537 209.614 887.763 209.873C886.989 210.133 886.333 210.641 885.904 211.312C885.708 211.629 885.585 211.982 885.542 212.348C885.499 212.714 885.538 213.085 885.657 213.435C885.775 213.785 885.969 214.108 886.227 214.38C886.485 214.653 886.8 214.87 887.152 215.016C889.234 215.969 891.617 214.852 893.622 214.215L900.679 211.975C901.454 211.728 901.122 210.545 900.34 210.793Z" fill="#37338A"/>
<path d="M882.669 300.871L878.487 302.194L871.183 287.329L877.354 285.375L882.669 300.871Z" fill="#9F616A"/>
<path d="M885.651 304.247L885.366 303.418L884.618 301.232L884.107 299.745L882.713 300.186L882.424 300.166L878.593 299.917L878.082 299.884L877.326 299.835L876.543 299.782L874.358 302.834H874.353C873.536 303.089 872.78 303.498 872.129 304.037C871.478 304.575 870.945 305.233 870.561 305.971C870.514 306.061 870.471 306.151 870.429 306.241C870.323 306.46 870.234 306.687 870.161 306.919C869.83 307.92 869.769 308.985 869.982 310.015C870.037 310.271 870.107 310.523 870.191 310.771L870.203 310.812L870.254 310.963L870.561 310.865L873.248 310.015L882.662 307.037L884.528 306.445L885.102 306.261H885.107L886.221 305.91L885.651 304.247Z" fill="#2F2E41"/>
<path d="M843.031 304.366L838.629 304.365L836.534 288.05L843.032 288.05L843.031 304.366Z" fill="#9F616A"/>
<path d="M835.985 232.843L834.034 236.087C834.034 236.087 831.889 236.65 832.59 243.366C833.085 248.109 833.245 269.343 834.491 283.139C835.01 288.88 835.717 293.333 836.714 294.772L837.327 295.3L843.734 295.888L843.895 295.834L846.248 279.871C846.67 277.005 846.607 274.093 846.061 271.247L845.636 266.753L851.534 244C851.534 244 857.541 258.583 861.368 272.472C862.289 275.816 865.788 277.942 867.115 280.811C867.559 281.773 867.996 282.704 868.422 283.598C871.228 289.483 872.635 293.768 873.699 294.124H874.549L879.652 292.49L880.655 290.065L872.848 267.979L867.002 232.317C855.863 226.563 845.414 225.923 835.985 232.843Z" fill="#2F2E41"/>
<path d="M867.895 184.793C867.51 183.979 867.058 183.196 866.543 182.452C865.365 180.688 863.728 179.251 861.793 178.281L860.118 177.926L857.116 177.289L855.534 175.585L852.941 172.795H844.012L842.817 175.585L841.813 177.926L841.384 178.923L833.739 182.595C833.734 182.595 833.734 182.595 833.73 182.599C833.832 183.335 833.933 184.066 834.032 184.793C834.249 186.374 834.453 187.936 834.644 189.479C834.742 190.263 834.836 191.043 834.925 191.82C835.21 194.254 835.455 196.647 835.661 198.997C835.843 201.097 835.989 203.167 836.099 205.207C836.364 209.839 836.384 214.482 836.158 219.117C836.099 220.207 837.225 221.449 837.136 222.515C836.987 224.256 835.588 225.8 835.342 227.463C835.189 228.484 835.257 229.571 834.989 230.535C834.914 230.817 834.803 231.089 834.657 231.344C834.657 231.348 834.653 231.348 834.653 231.352C831.591 236.605 833.994 234.097 833.709 235.278L833.845 235.31C833.909 235.327 834.104 235.376 834.419 235.445C836.218 235.858 843.633 229.17 848.612 229.17C851.601 229.17 859.514 233.893 862.163 234.236C864.26 234.505 866.13 234.751 867.244 233.807C867.568 233.532 867.815 233.183 867.963 232.794L867.976 232.757L867.972 232.72L867.865 231.352L867.802 230.535L866.892 218.81C866.383 218.205 866.062 217.475 865.965 216.703C865.867 215.931 865.997 215.148 866.339 214.443L866.526 214.063L865.837 205.207L865.71 203.552L865.663 202.992V202.988L865.331 198.711L866.13 196.374V196.37L867.687 191.82L868.486 189.479L868.988 188.008L869.022 187.91C868.754 186.838 868.377 185.794 867.895 184.793Z" fill="#37338A"/>
<path d="M875.652 227.037L867.08 205.752L863.099 197.98L870.754 193.917L876.92 204.354L881.053 226.161C881.704 226.588 882.207 227.192 882.498 227.895C882.788 228.599 882.853 229.37 882.685 230.109C882.516 230.848 882.121 231.522 881.55 232.044C880.98 232.566 880.26 232.912 879.483 233.038C878.706 233.164 877.908 233.064 877.191 232.751C876.474 232.437 875.871 231.925 875.459 231.28C875.047 230.635 874.845 229.886 874.88 229.13C874.914 228.374 875.183 227.645 875.652 227.037Z" fill="#9F616A"/>
<path d="M875.825 197.714L873.631 196.349L871.11 191.819L869.808 189.478L868.988 188.007L868.639 187.378L864.698 184.792L862.036 183.044L859.867 184.792L858.834 185.626L859.846 189.478L860.458 191.819L861.793 196.897L865.709 203.551L866.683 205.206L867.24 206.158L867.244 206.166L867.321 206.293L877.215 205.896L877.526 205.884L877.543 205.206L877.551 204.961C877.556 204.838 877.556 204.716 877.556 204.593C877.554 202.201 876.961 199.843 875.825 197.714Z" fill="#37338A"/>
<path d="M800.936 218.573L818.472 203.178L824.566 196.794L831.284 202.174L823.397 211.481L803.745 223.091C803.567 223.829 803.163 224.498 802.587 225.013C802.01 225.529 801.286 225.867 800.507 225.984C799.729 226.101 798.932 225.992 798.219 225.67C797.506 225.349 796.909 224.83 796.505 224.18C796.101 223.53 795.909 222.779 795.952 222.024C795.996 221.268 796.274 220.542 796.75 219.939C797.227 219.336 797.88 218.884 798.626 218.641C799.372 218.397 800.176 218.374 800.936 218.573Z" fill="#9F616A"/>
<path d="M837.136 191.819L837.102 189.478L837.038 184.792L837.012 182.975L836.94 182.925C836.544 182.676 836.095 182.514 835.626 182.452C835.214 182.386 834.793 182.386 834.38 182.452C834.163 182.484 833.948 182.532 833.738 182.595C833.734 182.595 833.734 182.595 833.73 182.599C832.469 183.033 831.356 183.791 830.511 184.788L830.507 184.792C829.232 186.25 828.101 187.818 827.131 189.478C826.65 190.262 826.191 191.055 825.761 191.819C824.137 194.723 822.968 197.24 822.947 197.285L818.091 203.343L818.159 203.453L819.226 205.206L823.138 211.632L823.759 212.653L825.345 211.84C827.194 210.893 828.651 209.368 829.478 207.518L830.043 205.443L830.252 205.206L835.66 198.997L837.208 197.215L837.136 191.819Z" fill="#37338A"/>
<path d="M855.668 164.8C856.392 160.512 853.362 156.473 848.899 155.777C844.437 155.082 840.233 157.993 839.508 162.28C838.784 166.567 841.815 170.607 846.277 171.303C850.739 171.998 854.944 169.087 855.668 164.8Z" fill="#9F616A"/>
<path d="M839.675 158.385C839.312 157.162 838.584 156.113 838.948 156.113C839.312 156.113 839.493 155.239 839.493 155.239C839.493 155.239 839.857 155.064 840.039 155.239C840.221 155.414 840.403 154.016 840.403 154.016C840.403 154.016 840.585 153.492 840.767 153.841C840.949 154.191 840.949 154.016 841.131 153.492C841.312 152.967 842.222 152.618 842.222 152.618C842.222 152.618 845.678 152.793 846.224 152.093C846.769 151.394 852.954 151.919 854.227 152.793C855.501 153.666 860.517 155.228 857.541 160.131C859.242 162.99 856.702 168.091 856.046 168.696C855.009 169.653 854.291 169.998 849.382 170.936C848.421 171.12 846.06 163.399 846.06 163.399C846.06 163.399 840.039 159.608 839.675 158.385Z" fill="#2F2E41"/>
<path d="M843.296 303.728L843.033 303.626L838.296 301.771L837.569 301.489L834.499 303.728H834.495C832.76 303.73 831.097 304.393 829.871 305.572C828.645 306.751 827.956 308.349 827.955 310.015V310.219H844.763V303.728H843.296Z" fill="#2F2E41"/>
<path d="M892.701 310.502C892.701 310.566 892.688 310.63 892.663 310.689C892.637 310.748 892.6 310.802 892.553 310.848C892.506 310.893 892.45 310.93 892.389 310.954C892.327 310.979 892.261 310.992 892.195 310.992H805.751C805.617 310.992 805.487 310.941 805.392 310.849C805.297 310.758 805.243 310.633 805.243 310.504C805.243 310.374 805.297 310.25 805.392 310.159C805.487 310.067 805.617 310.016 805.751 310.016H892.195C892.329 310.016 892.457 310.067 892.552 310.158C892.647 310.25 892.7 310.373 892.701 310.502Z" fill="#CCCCCC"/>
<path d="M823.19 71.4434C822.521 82.8684 818.15 93.8063 810.688 102.726C803.227 111.645 793.049 118.099 781.58 121.184C781.567 121.47 781.554 121.756 781.55 122.042C793.257 118.948 803.656 112.399 811.28 103.32C818.904 94.2413 823.368 83.0909 824.04 71.4434H823.19Z" fill="white"/>
<path d="M810.165 71.4434C808.189 78.6564 804.706 85.4077 799.928 91.286C795.149 97.1644 789.175 102.047 782.37 105.636C782.345 105.959 782.328 106.278 782.311 106.6C789.363 102.959 795.557 97.9565 800.502 91.9064C805.446 85.8564 809.036 78.8896 811.046 71.4434H810.165Z" fill="white"/>
</g>
</g>
<path d="M685 3V622" stroke="url(#paint0_linear_5096_10855)" stroke-width="5"/>
<path d="M1244 311L127 311" stroke="url(#paint1_linear_5096_10855)" stroke-width="5"/>
<path d="M843.24 374.082L835.046 378.552L734.094 433.634L725.9 438.105C721.924 440.28 718.973 443.944 717.695 448.292C716.417 452.64 716.915 457.318 719.082 461.299L794.258 599.081C796.434 603.057 800.097 606.007 804.445 607.286C808.793 608.564 813.471 608.065 817.452 605.899L817.473 605.887L934.771 541.887L934.792 541.875C938.768 539.7 941.719 536.037 942.997 531.689C944.276 527.34 943.777 522.663 941.611 518.682L866.434 380.9C864.259 376.924 860.595 373.973 856.247 372.695C851.899 371.417 847.221 371.915 843.24 374.082Z" fill="#F2F2F2"/>
<path d="M845.597 378.401L835.892 383.697L737.962 437.129L728.257 442.425C725.425 443.974 723.324 446.583 722.414 449.679C721.503 452.775 721.859 456.107 723.401 458.941L798.578 596.723C800.127 599.555 802.736 601.656 805.832 602.566C808.929 603.477 812.26 603.122 815.095 601.579L815.116 601.567L932.414 537.567L932.435 537.555C935.267 536.006 937.368 533.397 938.278 530.301C939.189 527.205 938.833 523.874 937.291 521.039L862.114 383.257C860.565 380.425 857.956 378.324 854.86 377.414C851.763 376.503 848.432 376.859 845.597 378.401Z" fill="white"/>
<path d="M847.216 421.169L803.468 445.038C802.805 445.4 802.026 445.484 801.302 445.271C800.577 445.058 799.967 444.566 799.606 443.903C799.244 443.24 799.16 442.461 799.373 441.737C799.586 441.012 800.078 440.402 800.741 440.041L844.489 416.171C845.151 415.809 845.931 415.726 846.655 415.939C847.379 416.152 847.989 416.644 848.351 417.306C848.713 417.969 848.796 418.748 848.583 419.473C848.37 420.197 847.878 420.807 847.216 421.169Z" fill="#F2F2F2"/>
<path d="M862.125 423.978L808.069 453.472C807.407 453.834 806.627 453.917 805.903 453.705C805.179 453.492 804.569 453 804.207 452.337C803.846 451.674 803.762 450.895 803.975 450.171C804.188 449.446 804.68 448.836 805.343 448.475L859.398 418.981C859.726 418.802 860.087 418.689 860.458 418.649C860.83 418.609 861.206 418.643 861.565 418.748C861.923 418.854 862.258 419.029 862.549 419.264C862.84 419.498 863.082 419.788 863.261 420.116C863.44 420.444 863.552 420.804 863.592 421.176C863.632 421.548 863.598 421.924 863.493 422.282C863.387 422.641 863.212 422.975 862.978 423.266C862.743 423.557 862.453 423.799 862.125 423.978Z" fill="#F2F2F2"/>
<path d="M785.483 435.102L745.15 457.109C744.833 457.282 744.597 457.574 744.495 457.921C744.393 458.268 744.433 458.642 744.606 458.959L761.781 490.437C761.954 490.754 762.246 490.99 762.593 491.092C762.94 491.194 763.314 491.154 763.631 490.981L803.964 468.974C804.282 468.801 804.517 468.509 804.619 468.161C804.721 467.814 804.681 467.441 804.508 467.124L787.333 435.646C787.16 435.329 786.868 435.093 786.521 434.991C786.174 434.889 785.8 434.929 785.483 435.102Z" fill="#F2F2F2"/>
<path d="M868.922 461.109L809.584 493.485C809.256 493.665 808.896 493.777 808.524 493.817C808.152 493.857 807.776 493.823 807.418 493.718C807.059 493.612 806.725 493.437 806.434 493.203C806.143 492.968 805.901 492.678 805.722 492.35C805.543 492.022 805.43 491.662 805.39 491.29C805.35 490.918 805.384 490.542 805.49 490.184C805.595 489.825 805.77 489.491 806.005 489.2C806.239 488.909 806.529 488.667 806.857 488.488L866.196 456.111C866.858 455.75 867.638 455.666 868.362 455.879C869.086 456.092 869.696 456.584 870.058 457.247C870.419 457.91 870.503 458.689 870.29 459.413C870.077 460.138 869.585 460.748 868.922 461.109Z" fill="#F2F2F2"/>
<path d="M883.832 463.918L814.186 501.918C813.523 502.28 812.744 502.363 812.019 502.151C811.295 501.938 810.685 501.446 810.323 500.783C809.962 500.12 809.878 499.341 810.091 498.617C810.304 497.892 810.796 497.282 811.459 496.921L881.105 458.92C881.768 458.558 882.547 458.475 883.271 458.688C883.996 458.901 884.606 459.393 884.967 460.055C885.329 460.718 885.413 461.497 885.2 462.222C884.987 462.946 884.495 463.556 883.832 463.918Z" fill="#F2F2F2"/>
<path d="M786.985 520C793.655 520 799.062 514.593 799.062 507.923C799.062 501.253 793.655 495.846 786.985 495.846C780.315 495.846 774.908 501.253 774.908 507.923C774.908 514.593 780.315 520 786.985 520Z" fill="#F2F2F2"/>
<path d="M967.682 430.854H834.011C829.479 430.86 825.134 432.662 821.929 435.867C818.725 439.072 816.922 443.417 816.917 447.949V604.906C816.922 609.438 818.725 613.783 821.929 616.988C825.134 620.192 829.479 621.995 834.011 622H967.682C972.214 621.995 976.559 620.192 979.764 616.988C982.968 613.783 984.771 609.438 984.776 604.906V447.949C984.771 443.417 982.968 439.072 979.764 435.867C976.559 432.662 972.214 430.86 967.682 430.854Z" fill="#E6E6E6"/>
<path d="M967.683 435.775H834.012C830.785 435.779 827.69 437.063 825.408 439.345C823.126 441.627 821.842 444.721 821.839 447.949V604.905C821.842 608.133 823.126 611.227 825.408 613.509C827.69 615.791 830.785 617.075 834.012 617.079H967.683C970.91 617.075 974.004 615.791 976.286 613.509C978.569 611.227 979.852 608.133 979.856 604.905V447.949C979.852 444.721 978.569 441.627 976.286 439.345C974.004 437.063 970.91 435.779 967.683 435.775Z" fill="white"/>
<path d="M948.618 474.093H898.782C898.027 474.093 897.303 473.793 896.769 473.259C896.235 472.725 895.936 472.001 895.936 471.246C895.936 470.491 896.235 469.767 896.769 469.233C897.303 468.699 898.027 468.399 898.782 468.399H948.618C948.992 468.399 949.363 468.472 949.709 468.615C950.054 468.758 950.368 468.968 950.633 469.232C950.898 469.496 951.108 469.81 951.251 470.156C951.394 470.502 951.468 470.872 951.468 471.246C951.468 471.62 951.394 471.991 951.251 472.336C951.108 472.682 950.898 472.996 950.633 473.26C950.368 473.524 950.054 473.734 949.709 473.877C949.363 474.02 948.992 474.093 948.618 474.093Z" fill="#37338A"/>
<path d="M960.361 483.701H898.782C898.027 483.701 897.303 483.401 896.769 482.867C896.235 482.334 895.936 481.609 895.936 480.854C895.936 480.099 896.235 479.375 896.769 478.842C897.303 478.308 898.027 478.008 898.782 478.008H960.361C961.116 478.008 961.84 478.308 962.374 478.842C962.907 479.375 963.207 480.099 963.207 480.854C963.207 481.609 962.907 482.334 962.374 482.867C961.84 483.401 961.116 483.701 960.361 483.701Z" fill="#37338A"/>
<path d="M887.754 456.757H841.808C841.447 456.757 841.1 456.901 840.844 457.156C840.588 457.412 840.444 457.759 840.444 458.121V493.979C840.444 494.341 840.588 494.687 840.844 494.943C841.1 495.199 841.447 495.343 841.808 495.343H887.754C888.116 495.343 888.463 495.199 888.719 494.943C888.974 494.687 889.118 494.341 889.118 493.979V458.121C889.118 457.759 888.974 457.412 888.719 457.156C888.463 456.901 888.116 456.757 887.754 456.757Z" fill="#E6E6E6"/>
<path d="M948.544 519.55H880.947C880.573 519.55 880.203 519.476 879.858 519.333C879.513 519.19 879.199 518.98 878.934 518.716C878.67 518.452 878.46 518.138 878.317 517.792C878.174 517.447 878.101 517.077 878.101 516.703C878.101 516.329 878.174 515.959 878.317 515.614C878.46 515.268 878.67 514.955 878.934 514.69C879.199 514.426 879.513 514.216 879.858 514.073C880.203 513.93 880.573 513.856 880.947 513.856H948.544C949.298 513.857 950.021 514.158 950.554 514.691C951.088 515.225 951.387 515.949 951.387 516.703C951.387 517.458 951.088 518.181 950.554 518.715C950.021 519.249 949.298 519.549 948.544 519.55Z" fill="#E6E6E6"/>
<path d="M960.286 529.158H880.947C880.573 529.159 880.203 529.085 879.857 528.942C879.511 528.8 879.197 528.59 878.933 528.326C878.668 528.061 878.458 527.747 878.315 527.402C878.171 527.056 878.098 526.686 878.098 526.311C878.098 525.937 878.171 525.567 878.315 525.221C878.458 524.876 878.668 524.562 878.933 524.297C879.197 524.033 879.511 523.823 879.857 523.681C880.203 523.538 880.573 523.464 880.947 523.465H960.286C960.66 523.464 961.031 523.538 961.377 523.681C961.722 523.823 962.037 524.033 962.301 524.297C962.566 524.562 962.776 524.876 962.919 525.221C963.062 525.567 963.136 525.937 963.136 526.311C963.136 526.686 963.062 527.056 962.919 527.402C962.776 527.747 962.566 528.061 962.301 528.326C962.037 528.59 961.722 528.8 961.377 528.942C961.031 529.085 960.66 529.159 960.286 529.158Z" fill="#E6E6E6"/>
<path d="M948.544 554.081H880.947C880.192 554.081 879.468 553.781 878.934 553.247C878.401 552.713 878.101 551.989 878.101 551.234C878.101 550.479 878.401 549.755 878.934 549.221C879.468 548.688 880.192 548.388 880.947 548.388H948.544C949.298 548.388 950.023 548.688 950.556 549.221C951.09 549.755 951.39 550.479 951.39 551.234C951.39 551.989 951.09 552.713 950.556 553.247C950.023 553.781 949.298 554.081 948.544 554.081Z" fill="#E6E6E6"/>
<path d="M960.286 563.688H880.947C880.192 563.688 879.468 563.389 878.934 562.855C878.401 562.321 878.101 561.597 878.101 560.842C878.101 560.087 878.401 559.363 878.934 558.829C879.468 558.295 880.192 557.995 880.947 557.995H960.286C961.041 557.995 961.765 558.295 962.299 558.829C962.833 559.363 963.133 560.087 963.133 560.842C963.133 561.597 962.833 562.321 962.299 562.855C961.765 563.389 961.041 563.688 960.286 563.688Z" fill="#E6E6E6"/>
<path d="M854.194 533.478C860.864 533.478 866.271 528.071 866.271 521.401C866.271 514.731 860.864 509.324 854.194 509.324C847.524 509.324 842.117 514.731 842.117 521.401C842.117 528.071 847.524 533.478 854.194 533.478Z" fill="#E6E6E6"/>
<path d="M854.194 568.288C860.864 568.288 866.271 562.881 866.271 556.211C866.271 549.541 860.864 544.134 854.194 544.134C847.524 544.134 842.117 549.541 842.117 556.211C842.117 562.881 847.524 568.288 854.194 568.288Z" fill="#E6E6E6"/>
<path d="M948.544 588.891H880.947C880.192 588.891 879.468 588.591 878.934 588.057C878.401 587.523 878.101 586.799 878.101 586.044C878.101 585.289 878.401 584.565 878.934 584.031C879.468 583.497 880.192 583.197 880.947 583.197H948.544C949.298 583.197 950.023 583.497 950.556 584.031C951.09 584.565 951.39 585.289 951.39 586.044C951.39 586.799 951.09 587.523 950.556 588.057C950.023 588.591 949.298 588.891 948.544 588.891Z" fill="#E6E6E6"/>
<path d="M960.286 598.499H880.947C880.192 598.499 879.468 598.199 878.934 597.665C878.401 597.131 878.101 596.407 878.101 595.652C878.101 594.897 878.401 594.173 878.934 593.639C879.468 593.106 880.192 592.806 880.947 592.806H960.286C961.041 592.806 961.765 593.106 962.299 593.639C962.833 594.173 963.133 594.897 963.133 595.652C963.133 596.407 962.833 597.131 962.299 597.665C961.765 598.199 961.041 598.499 960.286 598.499Z" fill="#E6E6E6"/>
<path d="M854.194 603.098C860.864 603.098 866.271 597.691 866.271 591.021C866.271 584.351 860.864 578.944 854.194 578.944C847.524 578.944 842.117 584.351 842.117 591.021C842.117 597.691 847.524 603.098 854.194 603.098Z" fill="#E6E6E6"/>
</g>
<defs>
<linearGradient id="paint0_linear_5096_10855" x1="685.5" y1="3" x2="685.5" y2="622" gradientUnits="userSpaceOnUse">
<stop stop-color="#143A62" stop-opacity="0"/>
<stop offset="0.504808" stop-color="#143A62"/>
<stop offset="1" stop-color="#143A62" stop-opacity="0"/>
</linearGradient>
<linearGradient id="paint1_linear_5096_10855" x1="1244" y1="311.5" x2="127" y2="311.5" gradientUnits="userSpaceOnUse">
<stop stop-color="#143A62" stop-opacity="0"/>
<stop offset="0.504808" stop-color="#143A62"/>
<stop offset="1" stop-color="#143A62" stop-opacity="0"/>
</linearGradient>
<clipPath id="clip0_5096_10855">
<rect width="1370" height="622" fill="white"/>
</clipPath>
<clipPath id="clip1_5096_10855">
<rect width="172.61" height="250" fill="white" transform="translate(761.391 61)"/>
</clipPath>
</defs>
</svg>
