<svg width="412" height="566" viewBox="0 0 412 566" fill="none" xmlns="http://www.w3.org/2000/svg">
<g clip-path="url(#clip0_5123_10383)">
<rect width="412" height="566" rx="20" fill="#143A62" fill-opacity="0.02"/>
<path d="M15 286L397 286" stroke="url(#paint0_linear_5123_10383)" stroke-width="5"/>
<path d="M206 474L206 92" stroke="url(#paint1_linear_5123_10383)" stroke-width="5"/>
<g opacity="0.88">
<rect x="254" y="187.785" width="65.2798" height="65.2798" rx="20" fill="#E8E9E9"/>
<g clip-path="url(#clip1_5123_10383)">
<path d="M338.314 233.509C338.253 233.575 338.193 233.642 338.134 233.71C337.312 234.624 336.57 235.6 335.914 236.63C335.861 236.709 335.81 236.79 335.763 236.869C334.211 239.357 333.154 242.099 332.647 244.957C332.533 245.603 332.448 246.253 332.39 246.907C332.349 247.411 332.324 247.915 332.316 248.42C332.284 250.54 332.48 252.898 331.055 254.518C330.674 254.944 330.208 255.294 329.686 255.548C329.292 255.743 328.876 255.894 328.446 255.997H324.001C323.777 255.965 323.554 255.931 323.33 255.897C323.324 255.897 323.319 255.895 323.313 255.895L323.268 255.911L322.999 255.997L322.987 256.001V255.997C322.987 255.989 322.987 255.982 322.985 255.974C322.986 255.961 322.985 255.947 322.983 255.933V255.931C322.981 255.894 322.979 255.858 322.979 255.82L322.973 255.721C322.973 255.721 322.971 255.719 322.973 255.719C322.971 255.662 322.968 255.606 322.966 255.548C322.76 250.643 323.262 245.575 325.678 241.257C326.506 239.777 327.573 238.432 328.839 237.271C328.846 237.264 328.854 237.257 328.862 237.25C331.374 234.954 334.622 233.452 338.049 233.503C338.138 233.503 338.226 233.505 338.314 233.509Z" fill="#F0F0F0"/>
<path d="M338.324 233.614C334.441 235.523 331.286 238.556 329.305 242.282C328.863 243.076 328.555 243.933 328.392 244.82C328.263 245.688 328.378 246.574 328.727 247.386C329.036 248.149 329.444 248.895 329.554 249.716C329.604 250.138 329.561 250.564 329.426 250.968C329.292 251.372 329.07 251.745 328.775 252.061C328.062 252.867 327.089 253.379 326.119 253.848C325.042 254.369 323.915 254.894 323.167 255.836C323.077 255.95 322.897 255.809 322.988 255.695C324.288 254.056 326.579 253.699 328.14 252.366C328.868 251.744 329.404 250.909 329.344 249.946C329.291 249.104 328.87 248.334 328.55 247.565C328.198 246.778 328.053 245.92 328.126 245.067C328.241 244.175 328.514 243.309 328.933 242.505C329.846 240.68 331.052 239.005 332.508 237.539C334.159 235.858 336.099 234.46 338.243 233.405C338.376 233.34 338.456 233.549 338.324 233.614Z" fill="white"/>
<path d="M329.869 241.046C329.262 240.642 328.824 240.045 328.634 239.361C328.444 238.677 328.514 237.95 328.831 237.311C328.896 237.182 329.108 237.272 329.044 237.401C328.747 237.996 328.682 238.673 328.86 239.31C329.039 239.946 329.449 240.501 330.017 240.873C330.14 240.955 329.992 241.126 329.869 241.046Z" fill="white"/>
<path d="M328.518 247.02C330.006 246.775 331.343 246.001 332.263 244.853C332.354 244.739 332.534 244.88 332.443 244.994C331.483 246.187 330.09 246.989 328.541 247.241C328.393 247.265 328.371 247.044 328.518 247.02Z" fill="white"/>
<path d="M334.282 236.129C334.483 236.332 334.734 236.483 335.011 236.571C335.288 236.658 335.584 236.678 335.872 236.629C336.019 236.603 336.041 236.825 335.894 236.85C335.577 236.903 335.25 236.881 334.943 236.785C334.637 236.689 334.359 236.523 334.135 236.301C334.112 236.281 334.097 236.255 334.094 236.225C334.091 236.196 334.1 236.167 334.119 236.144C334.138 236.121 334.166 236.107 334.197 236.104C334.228 236.101 334.258 236.11 334.282 236.129Z" fill="white"/>
<path d="M349.141 247.105C349.051 247.124 348.961 247.143 348.868 247.163H348.866C347.638 247.419 346.432 247.77 345.262 248.212C345.172 248.246 345.082 248.28 344.992 248.315H344.99C342.201 249.404 339.645 250.976 337.452 252.953C337.444 252.961 337.436 252.966 337.428 252.974C337.423 252.979 337.418 252.984 337.412 252.989L337.403 252.998C336.532 253.788 335.725 254.64 334.989 255.546C334.989 255.548 334.987 255.55 334.985 255.552C334.867 255.699 334.747 255.845 334.63 255.996H322.999L322.988 255.999V255.996H322.938C322.938 255.994 322.94 255.992 322.942 255.99C322.942 255.988 322.944 255.988 322.944 255.986C322.958 255.967 322.972 255.949 322.984 255.932V255.93C322.987 255.924 322.99 255.919 322.995 255.915C323.007 255.896 323.021 255.881 323.031 255.864C323.109 255.759 323.186 255.652 323.264 255.546C323.391 255.372 323.521 255.197 323.652 255.024L323.652 255.023L323.653 255.023L323.653 255.022L323.654 255.022V255.02C323.656 255.018 323.656 255.016 323.658 255.015L323.662 255.011C325.28 252.865 327.1 250.828 329.184 249.121C329.247 249.069 329.31 249.016 329.376 248.967C330.32 248.202 331.328 247.513 332.39 246.906C332.971 246.577 333.569 246.275 334.185 246C335.773 245.299 337.466 244.841 339.203 244.643H339.207C339.211 244.643 339.215 244.642 339.22 244.642C339.226 244.642 339.23 244.64 339.234 244.64C342.687 244.256 346.227 244.931 348.935 246.949C349.006 247.002 349.072 247.053 349.141 247.105Z" fill="#F0F0F0"/>
<path d="M322.939 255.997H322.988V256L322.999 255.997H326.111C325.184 255.844 324.258 255.725 323.331 255.897C323.309 255.901 323.29 255.904 323.268 255.91C323.174 255.927 323.08 255.95 322.986 255.974C322.98 255.976 322.972 255.978 322.966 255.98C322.957 255.982 322.949 255.986 322.942 255.991C322.937 255.992 322.933 255.994 322.929 255.997H322.939Z" fill="white"/>
<path d="M349.084 247.198C349.012 247.187 348.941 247.174 348.869 247.165H348.867C347.354 246.928 345.818 246.854 344.288 246.943C344.211 246.947 344.133 246.952 344.054 246.956C341.93 247.098 339.842 247.554 337.864 248.307C337.862 248.307 337.862 248.307 337.862 248.309C337.84 248.317 337.818 248.324 337.799 248.332C337.338 248.51 336.883 248.705 336.438 248.916C335.586 249.296 334.802 249.802 334.114 250.416C333.564 250.936 333.147 251.573 332.896 252.274C332.871 252.345 332.845 252.415 332.822 252.486C332.804 252.543 332.787 252.601 332.769 252.657C332.538 253.445 332.394 254.275 331.967 254.995C331.848 255.196 331.703 255.381 331.536 255.548C331.363 255.72 331.168 255.871 330.955 255.997H330.461C330.731 255.885 330.982 255.733 331.204 255.548C331.377 255.405 331.528 255.24 331.653 255.057C332.14 254.354 332.289 253.497 332.516 252.699C332.553 252.569 332.593 252.443 332.636 252.317C332.862 251.628 333.241 250.994 333.748 250.459C334.4 249.813 335.162 249.279 336.001 248.878C336.53 248.612 337.074 248.37 337.632 248.153C337.705 248.123 337.777 248.097 337.85 248.07C341.375 246.756 345.202 246.369 348.935 246.95C349.008 246.96 349.078 246.973 349.151 246.984C349.298 247.009 349.231 247.223 349.084 247.198Z" fill="white"/>
<path d="M337.664 248.253C337.433 247.58 337.459 246.851 337.737 246.195C338.015 245.539 338.527 244.999 339.182 244.672C339.315 244.606 339.428 244.8 339.295 244.866C338.684 245.17 338.207 245.673 337.95 246.285C337.692 246.896 337.671 247.575 337.89 248.2C337.938 248.336 337.712 248.388 337.664 248.253Z" fill="white"/>
<path d="M332.832 252.242C334.174 252.905 335.728 253.059 337.184 252.673C337.328 252.634 337.383 252.851 337.239 252.889C335.723 253.288 334.106 253.125 332.711 252.432C332.578 252.366 332.7 252.176 332.832 252.242Z" fill="white"/>
<path d="M344.276 246.874C344.309 247.152 344.414 247.418 344.58 247.648C344.747 247.877 344.971 248.064 345.231 248.19C345.365 248.255 345.243 248.445 345.11 248.381C344.823 248.24 344.576 248.033 344.392 247.78C344.207 247.526 344.09 247.233 344.05 246.926C344.044 246.898 344.05 246.868 344.065 246.843C344.081 246.818 344.107 246.8 344.136 246.792C344.166 246.785 344.197 246.79 344.224 246.805C344.25 246.821 344.269 246.845 344.276 246.874Z" fill="white"/>
<path d="M346.672 177.054C346.725 170.832 346.989 164.549 347.464 158.207C347.472 158.081 347.482 157.957 347.492 157.831C347.743 154.53 348.05 151.216 348.414 147.891V147.872C348.413 147.324 348.186 146.798 347.781 146.41C347.377 146.023 346.829 145.805 346.257 145.805H288.408C287.838 145.806 287.291 146.023 286.887 146.408C286.483 146.793 286.255 147.316 286.251 147.862C285.749 152.442 285.355 156.999 285.07 161.533C285.059 161.682 285.051 161.828 285.043 161.977C284.902 164.219 284.789 166.455 284.706 168.686C284.7 168.817 284.694 168.949 284.692 169.08C284.156 182.766 284.678 196.471 286.251 210.084C286.255 210.63 286.484 211.152 286.888 211.537C287.292 211.922 287.838 212.139 288.408 212.14H346.257C346.829 212.139 347.377 211.921 347.781 211.534C348.186 211.146 348.413 210.621 348.414 210.073V210.052C348.129 207.633 347.88 205.199 347.665 202.749C347.633 202.39 347.602 202.032 347.572 201.673C347.423 199.908 347.293 198.137 347.182 196.358C347.159 195.999 347.137 195.64 347.117 195.282C346.908 191.722 346.77 188.136 346.706 184.521C346.698 184.162 346.692 183.805 346.686 183.445C346.662 181.68 346.655 179.909 346.664 178.13C346.664 177.771 346.666 177.412 346.672 177.054Z" fill="#F0F0F0"/>
<path d="M355 155.094C355 154.546 354.772 154.021 354.368 153.633C353.963 153.246 353.415 153.028 352.843 153.027H294.994C294.424 153.028 293.878 153.245 293.474 153.631C293.07 154.016 292.841 154.539 292.837 155.085C290.884 172.932 290.561 190.462 291.869 207.336C292.027 209.423 292.213 211.5 292.426 213.567C292.539 214.674 292.66 215.777 292.788 216.878C292.804 217.021 292.82 217.164 292.837 217.306C292.841 217.852 293.07 218.375 293.474 218.76C293.878 219.145 294.425 219.361 294.994 219.362H352.843C353.415 219.362 353.963 219.144 354.368 218.756C354.772 218.369 355 217.843 355 217.295V217.275C352.661 197.398 352.661 176.485 355 155.113V155.094Z" fill="white"/>
<path d="M355 155.094C355 154.546 354.772 154.021 354.368 153.633C353.963 153.246 353.415 153.028 352.843 153.027H294.994C294.424 153.028 293.878 153.245 293.474 153.631C293.07 154.016 292.841 154.539 292.837 155.085C290.884 172.932 290.561 190.462 291.869 207.336C292.027 209.423 292.213 211.5 292.426 213.567C292.539 214.674 292.66 215.777 292.788 216.878C292.804 217.021 292.82 217.164 292.837 217.306C292.841 217.852 293.07 218.375 293.474 218.76C293.878 219.145 294.425 219.361 294.994 219.362H352.843C353.415 219.362 353.963 219.144 354.368 218.756C354.772 218.369 355 217.843 355 217.295V217.275C352.661 197.398 352.661 176.485 355 155.113V155.094ZM354.608 217.306C354.604 217.753 354.417 218.18 354.086 218.495C353.756 218.809 353.309 218.986 352.843 218.986H294.994C294.527 218.986 294.078 218.807 293.747 218.49C293.416 218.173 293.23 217.744 293.23 217.295V217.275C293.216 217.154 293.202 217.032 293.188 216.912C293.053 215.762 292.927 214.609 292.81 213.452C292.604 211.425 292.422 209.386 292.263 207.336C290.955 190.472 291.276 172.952 293.23 155.113V155.094C293.23 154.646 293.416 154.216 293.747 153.899C294.078 153.582 294.527 153.404 294.994 153.403H352.843C353.309 153.403 353.757 153.58 354.087 153.895C354.418 154.21 354.605 154.638 354.608 155.085C352.268 176.474 352.268 197.41 354.608 217.306Z" fill="#E4E4E4"/>
<path d="M298.982 175.48C298.833 175.481 298.69 175.538 298.585 175.639C298.48 175.74 298.421 175.876 298.421 176.019C298.421 176.162 298.48 176.299 298.585 176.4C298.69 176.501 298.833 176.557 298.982 176.558H330.896C331.045 176.557 331.187 176.501 331.292 176.4C331.398 176.299 331.457 176.162 331.457 176.019C331.457 175.876 331.398 175.74 331.292 175.639C331.187 175.538 331.045 175.481 330.896 175.48H298.982Z" fill="#E6E6E6"/>
<path d="M298.982 178.641C298.833 178.641 298.69 178.698 298.585 178.799C298.48 178.9 298.421 179.037 298.421 179.179C298.421 179.322 298.48 179.459 298.585 179.56C298.69 179.661 298.833 179.718 298.982 179.718H345.993C346.141 179.718 346.284 179.661 346.389 179.56C346.494 179.459 346.554 179.322 346.554 179.179C346.554 179.037 346.494 178.9 346.389 178.799C346.284 178.698 346.141 178.641 345.993 178.641H298.982Z" fill="#E6E6E6"/>
<path d="M298.981 181.873C298.833 181.873 298.69 181.93 298.585 182.031C298.48 182.132 298.421 182.269 298.421 182.412C298.421 182.554 298.48 182.691 298.585 182.792C298.69 182.893 298.833 182.95 298.981 182.95H330.895C331.044 182.95 331.187 182.893 331.292 182.792C331.397 182.691 331.456 182.554 331.456 182.412C331.456 182.269 331.397 182.132 331.292 182.031C331.187 181.93 331.044 181.873 330.895 181.873H298.981Z" fill="#E6E6E6"/>
<path d="M298.981 190.477C298.833 190.477 298.69 190.534 298.585 190.635C298.48 190.736 298.421 190.873 298.421 191.015C298.421 191.158 298.48 191.295 298.585 191.396C298.69 191.497 298.833 191.553 298.981 191.554H345.992C346.141 191.553 346.283 191.497 346.389 191.396C346.494 191.295 346.553 191.158 346.553 191.015C346.553 190.873 346.494 190.736 346.389 190.635C346.283 190.534 346.141 190.477 345.992 190.477H298.981Z" fill="#E6E6E6"/>
<path d="M298.982 193.709C298.833 193.709 298.69 193.766 298.585 193.867C298.48 193.968 298.421 194.105 298.421 194.248C298.421 194.39 298.48 194.527 298.585 194.628C298.69 194.729 298.833 194.786 298.982 194.786H330.896C331.045 194.786 331.187 194.729 331.292 194.628C331.398 194.527 331.457 194.39 331.457 194.248C331.457 194.105 331.398 193.968 331.292 193.867C331.187 193.766 331.045 193.709 330.896 193.709H298.982Z" fill="#E6E6E6"/>
<path d="M298.982 196.867C298.833 196.867 298.69 196.924 298.585 197.025C298.48 197.126 298.421 197.263 298.421 197.406C298.421 197.549 298.48 197.685 298.585 197.786C298.69 197.887 298.833 197.944 298.982 197.944H345.993C346.141 197.944 346.284 197.887 346.389 197.786C346.494 197.685 346.554 197.549 346.554 197.406C346.554 197.263 346.494 197.126 346.389 197.025C346.284 196.924 346.141 196.867 345.993 196.867H298.982Z" fill="#E6E6E6"/>
<path d="M298.981 200.1C298.833 200.1 298.69 200.157 298.585 200.258C298.48 200.359 298.421 200.496 298.421 200.638C298.421 200.781 298.48 200.918 298.585 201.019C298.69 201.12 298.833 201.177 298.981 201.177H330.895C331.044 201.177 331.187 201.12 331.292 201.019C331.397 200.918 331.456 200.781 331.456 200.638C331.456 200.496 331.397 200.359 331.292 200.258C331.187 200.157 331.044 200.1 330.895 200.1H298.981Z" fill="#E6E6E6"/>
<path d="M339.477 209.904L336.726 210.775C336.268 210.92 335.81 211.066 335.351 211.211C334.927 211.345 334.467 211.504 334.013 211.446C333.699 211.407 333.341 211.233 333.243 210.924C333.15 210.631 333.347 210.324 333.584 210.151C334.241 209.672 335.07 210.159 335.535 210.655C336.104 211.261 336.426 212.043 336.96 212.678C337.435 213.247 338.037 213.706 338.722 214.022C340.083 214.638 341.743 214.573 342.957 213.675C344.407 212.604 344.555 210.746 344.562 209.126C344.56 209.053 344.528 208.983 344.473 208.933C344.418 208.882 344.344 208.854 344.268 208.854C344.192 208.854 344.119 208.882 344.064 208.933C344.009 208.983 343.977 209.053 343.974 209.126C343.967 210.594 343.88 212.395 342.483 213.314C341.144 214.194 339.385 213.96 338.152 213.023C337.466 212.5 337.043 211.818 336.592 211.113C336.152 210.424 335.606 209.756 334.777 209.488C334.422 209.364 334.033 209.362 333.676 209.481C333.32 209.601 333.017 209.834 332.819 210.143C332.729 210.289 332.672 210.451 332.652 210.62C332.633 210.788 332.651 210.958 332.705 211.12C332.759 211.281 332.849 211.429 332.968 211.554C333.087 211.68 333.232 211.779 333.395 211.847C334.355 212.285 335.454 211.771 336.379 211.479L339.633 210.448C339.991 210.335 339.838 209.79 339.477 209.904Z" fill="#37338A"/>
<path d="M331.326 251.341L329.398 251.95L326.029 245.112L328.876 244.213L331.326 251.341Z" fill="#9F616A"/>
<path d="M332.702 252.893L332.57 252.512L332.225 251.506L331.99 250.822L331.347 251.025L331.213 251.016L329.447 250.901L329.211 250.886L328.862 250.864L328.501 250.839L327.493 252.243H327.491C327.115 252.361 326.766 252.549 326.466 252.796C326.165 253.044 325.92 253.347 325.742 253.686C325.721 253.727 325.701 253.769 325.681 253.81C325.633 253.911 325.592 254.016 325.558 254.122C325.405 254.583 325.377 255.073 325.476 255.547C325.501 255.664 325.533 255.78 325.572 255.894L325.578 255.913L325.601 255.982L325.742 255.937L326.982 255.547L331.323 254.177L332.184 253.904L332.449 253.82H332.451L332.965 253.658L332.702 252.893Z" fill="#2F2E41"/>
<path d="M313.046 252.949L311.016 252.948L310.05 245.443L313.047 245.444L313.046 252.949Z" fill="#9F616A"/>
<path d="M309.797 220.048L308.897 221.54C308.897 221.54 307.908 221.799 308.231 224.888C308.459 227.07 308.533 236.838 309.108 243.184C309.347 245.825 309.673 247.873 310.133 248.535L310.416 248.778L313.37 249.048L313.445 249.023L314.53 241.68C314.725 240.362 314.695 239.023 314.443 237.713L314.247 235.646L316.968 225.18C316.968 225.18 319.738 231.888 321.503 238.277C321.928 239.815 323.542 240.793 324.153 242.113C324.358 242.555 324.56 242.984 324.756 243.395C326.05 246.102 326.699 248.073 327.19 248.237H327.582L329.935 247.485L330.398 246.37L326.798 236.21L324.101 219.806C318.964 217.159 314.145 216.864 309.797 220.048Z" fill="#2F2E41"/>
<path d="M324.513 197.945C324.336 197.571 324.127 197.21 323.89 196.868C323.346 196.057 322.591 195.395 321.699 194.95L320.927 194.786L319.542 194.493L318.813 193.709L317.617 192.426H313.498L312.947 193.709L312.485 194.786L312.287 195.245L308.761 196.934C308.759 196.934 308.759 196.934 308.757 196.936C308.804 197.274 308.85 197.61 308.896 197.945C308.996 198.672 309.09 199.391 309.178 200.1C309.224 200.461 309.267 200.82 309.308 201.177C309.439 202.297 309.552 203.398 309.647 204.479C309.731 205.445 309.799 206.397 309.849 207.335C309.972 209.466 309.981 211.602 309.877 213.734C309.849 214.236 310.369 214.807 310.328 215.297C310.259 216.098 309.614 216.808 309.5 217.573C309.429 218.043 309.461 218.543 309.337 218.986C309.303 219.116 309.252 219.241 309.184 219.358C309.184 219.36 309.182 219.36 309.182 219.362C307.77 221.779 308.878 220.625 308.747 221.168L308.81 221.183C308.839 221.19 308.929 221.213 309.075 221.245C309.904 221.435 313.324 218.358 315.62 218.358C316.999 218.358 320.648 220.531 321.87 220.689C322.837 220.813 323.699 220.925 324.213 220.491C324.362 220.365 324.476 220.205 324.545 220.025L324.551 220.008L324.549 219.991L324.5 219.362L324.47 218.986L324.05 213.593C323.816 213.314 323.668 212.978 323.623 212.623C323.578 212.268 323.638 211.908 323.796 211.584L323.882 211.409L323.564 207.335L323.505 206.574L323.484 206.317V206.315L323.331 204.347L323.699 203.272V203.271L324.417 201.177L324.786 200.1L325.017 199.424L325.033 199.379C324.909 198.886 324.735 198.405 324.513 197.945Z" fill="#37338A"/>
<path d="M328.09 217.378L324.137 207.587L322.301 204.012L325.832 202.143L328.675 206.944L330.581 216.975C330.881 217.171 331.113 217.449 331.247 217.773C331.381 218.096 331.411 218.451 331.334 218.791C331.256 219.131 331.074 219.441 330.81 219.681C330.547 219.921 330.215 220.08 329.857 220.138C329.499 220.196 329.131 220.15 328.8 220.006C328.469 219.862 328.191 219.626 328.001 219.33C327.811 219.033 327.718 218.688 327.734 218.341C327.75 217.993 327.874 217.657 328.09 217.378Z" fill="#9F616A"/>
<path d="M328.17 203.889L327.158 203.261L325.995 201.177L325.395 200.1L325.017 199.424L324.856 199.134L323.038 197.945L321.811 197.141L320.81 197.945L320.334 198.328L320.801 200.1L321.083 201.177L321.699 203.513L323.505 206.574L323.954 207.335L324.211 207.773L324.213 207.777L324.248 207.835L328.811 207.653L328.954 207.647L328.962 207.335L328.966 207.222C328.968 207.166 328.968 207.11 328.968 207.053C328.968 205.953 328.694 204.868 328.17 203.889Z" fill="#37338A"/>
<path d="M293.632 213.483L301.72 206.401L304.53 203.465L307.629 205.94L303.991 210.221L294.928 215.562C294.845 215.901 294.659 216.209 294.393 216.446C294.127 216.683 293.793 216.838 293.435 216.892C293.076 216.946 292.708 216.896 292.379 216.748C292.05 216.6 291.775 216.361 291.589 216.062C291.402 215.764 291.314 215.418 291.334 215.07C291.354 214.723 291.482 214.389 291.702 214.112C291.922 213.834 292.223 213.626 292.567 213.514C292.911 213.402 293.282 213.391 293.632 213.483Z" fill="#9F616A"/>
<path d="M310.327 201.177L310.311 200.101L310.282 197.945L310.27 197.109L310.237 197.086C310.054 196.972 309.847 196.897 309.631 196.868C309.441 196.838 309.247 196.838 309.056 196.868C308.956 196.883 308.857 196.905 308.76 196.934C308.758 196.934 308.758 196.934 308.756 196.936C308.175 197.136 307.662 197.484 307.272 197.943L307.27 197.945C306.682 198.615 306.161 199.337 305.713 200.101C305.491 200.461 305.28 200.826 305.082 201.177C304.332 202.513 303.793 203.671 303.783 203.692L301.544 206.478L301.575 206.529L302.068 207.335L303.872 210.291L304.158 210.761L304.889 210.387C305.742 209.951 306.414 209.25 306.795 208.399L307.056 207.444L307.152 207.335L309.647 204.479L310.36 203.66L310.327 201.177Z" fill="#37338A"/>
<path d="M318.874 188.748C319.208 186.776 317.81 184.918 315.752 184.598C313.694 184.278 311.755 185.617 311.421 187.589C311.087 189.561 312.485 191.42 314.543 191.74C316.601 192.06 318.54 190.72 318.874 188.748Z" fill="#9F616A"/>
<path d="M311.498 185.797C311.331 185.234 310.995 184.752 311.163 184.752C311.331 184.752 311.415 184.35 311.415 184.35C311.415 184.35 311.582 184.27 311.666 184.35C311.75 184.43 311.834 183.787 311.834 183.787C311.834 183.787 311.918 183.546 312.002 183.707C312.086 183.868 312.086 183.787 312.17 183.546C312.253 183.305 312.673 183.144 312.673 183.144C312.673 183.144 314.267 183.224 314.518 182.903C314.77 182.581 317.622 182.823 318.21 183.224C318.797 183.626 321.11 184.345 319.738 186.6C320.522 187.915 319.351 190.262 319.049 190.54C318.57 190.98 318.239 191.139 315.975 191.571C315.532 191.655 314.443 188.103 314.443 188.103C314.443 188.103 311.666 186.36 311.498 185.797Z" fill="#2F2E41"/>
<path d="M313.169 252.655L313.047 252.608L310.863 251.755L310.528 251.625L309.112 252.655H309.11C308.31 252.656 307.543 252.961 306.977 253.503C306.412 254.045 306.094 254.78 306.094 255.547V255.641H313.845V252.655H313.169Z" fill="#2F2E41"/>
<path d="M335.953 255.771C335.954 255.8 335.948 255.83 335.936 255.857C335.924 255.884 335.907 255.909 335.885 255.93C335.864 255.951 335.838 255.968 335.81 255.979C335.781 255.991 335.751 255.997 335.72 255.997H295.853C295.791 255.997 295.732 255.973 295.688 255.931C295.644 255.889 295.619 255.832 295.619 255.772C295.619 255.712 295.644 255.655 295.688 255.613C295.732 255.571 295.791 255.547 295.853 255.547H335.72C335.782 255.547 335.841 255.571 335.885 255.613C335.929 255.655 335.953 255.712 335.953 255.771Z" fill="#CCCCCC"/>
<path d="M303.895 145.805C303.587 151.06 301.571 156.092 298.13 160.195C294.689 164.297 289.995 167.266 284.705 168.686C284.699 168.817 284.693 168.949 284.691 169.08C290.09 167.657 294.887 164.644 298.403 160.468C301.919 156.292 303.977 151.163 304.287 145.805H303.895Z" fill="white"/>
<path d="M297.889 145.805C296.978 149.123 295.372 152.228 293.168 154.932C290.964 157.636 288.209 159.882 285.07 161.533C285.059 161.682 285.051 161.828 285.043 161.977C288.296 160.302 291.152 158.001 293.432 155.218C295.713 152.435 297.369 149.23 298.295 145.805H297.889Z" fill="white"/>
</g>
</g>
<g opacity="0.88">
<path d="M148.128 153.725C147.934 153.592 147.741 153.465 147.547 153.336C141.966 149.636 135.984 146.631 129.725 144.381L128.273 165.134H119.073V141.352C118.494 141.228 117.91 141.111 117.326 141V165.134H106.393C100.373 165.134 94.6007 162.656 90.3445 158.244C86.0883 153.832 83.6972 147.848 83.6972 141.609C83.1113 141.74 82.5299 141.881 81.9485 142.031V165.134H73.0431L71.6605 145.345C65.2283 147.902 59.1218 151.265 53.4769 155.358C53.3801 155.427 53.2816 155.499 53.1863 155.567C52.6959 155.924 52.2121 156.287 51.7305 156.655V235.828H77.9764L77.5126 229.169L74.9605 192.606H126.354L123.802 229.169L123.338 235.828H149.293V154.525C148.907 154.254 148.519 153.987 148.128 153.725ZM81.9487 186.568H74.5389L73.1697 166.947H81.9487V186.568ZM117.326 186.568H104.881V186.179C104.881 185.992 104.846 185.807 104.777 185.635C104.708 185.462 104.606 185.305 104.479 185.173C104.351 185.041 104.2 184.936 104.033 184.865C103.866 184.794 103.688 184.757 103.508 184.758H98.0973C97.9172 184.758 97.7388 184.794 97.5724 184.866C97.406 184.937 97.2548 185.042 97.1274 185.174C97.0001 185.306 96.8991 185.463 96.8302 185.635C96.7613 185.808 96.7259 185.992 96.7259 186.179V186.568H83.6972V166.947H117.326V186.568ZM119.073 186.568V166.947H128.147L126.778 186.568H119.073Z" fill="#E6E6E6"/>
<path d="M25 240.898C26.6962 243.248 28.5471 245.473 30.5395 247.558L174.461 247.788C176.453 245.703 178.304 243.478 180 241.128L25 240.898Z" fill="#F2F2F2"/>
<path d="M123.053 219.575V239.29C123.053 239.541 123.149 239.782 123.321 239.959C123.492 240.137 123.724 240.237 123.967 240.237H152.15C152.392 240.237 152.625 240.137 152.796 239.959C152.968 239.782 153.064 239.541 153.064 239.29V219.575C153.064 219.324 152.967 219.084 152.796 218.906C152.624 218.729 152.392 218.629 152.15 218.629H123.967C123.725 218.629 123.492 218.729 123.321 218.906C123.15 219.084 123.053 219.324 123.053 219.575Z" fill="#3F3D56"/>
<path d="M123.714 219.82V239.046C123.714 239.18 123.766 239.308 123.857 239.403C123.949 239.498 124.073 239.552 124.202 239.552H151.916C152.046 239.552 152.17 239.498 152.261 239.403C152.353 239.308 152.404 239.18 152.405 239.046V219.82C152.405 219.686 152.353 219.557 152.262 219.462C152.17 219.366 152.046 219.313 151.916 219.312H124.202C124.073 219.313 123.948 219.366 123.857 219.462C123.765 219.557 123.714 219.686 123.714 219.82Z" fill="#6C63FF"/>
<path d="M122.463 243.135C122.514 243.202 122.58 243.256 122.655 243.293C122.729 243.331 122.811 243.35 122.894 243.349H153.073C153.155 243.349 153.237 243.33 153.311 243.293C153.386 243.256 153.451 243.203 153.503 243.136C153.555 243.07 153.592 242.992 153.612 242.909C153.631 242.826 153.632 242.74 153.615 242.656L153.147 240.349C153.127 240.255 153.086 240.168 153.025 240.095C152.965 240.022 152.888 239.965 152.801 239.931C152.738 239.906 152.671 239.893 152.604 239.893H123.361C123.293 239.893 123.226 239.906 123.164 239.931C123.077 239.965 123 240.022 122.939 240.095C122.879 240.168 122.837 240.255 122.818 240.349L122.349 242.656C122.333 242.739 122.334 242.826 122.354 242.909C122.373 242.992 122.411 243.069 122.463 243.136L122.463 243.135Z" fill="#2F2E41"/>
<path d="M123.671 240.885H124.411C124.464 240.885 124.506 240.841 124.506 240.787V240.405C124.506 240.351 124.464 240.307 124.411 240.307H123.671C123.619 240.307 123.576 240.351 123.576 240.405V240.787C123.576 240.841 123.619 240.885 123.671 240.885Z" fill="#3F3D56"/>
<path d="M123.692 241.848H124.433C124.485 241.848 124.527 241.804 124.527 241.75V241.368C124.527 241.314 124.485 241.27 124.433 241.27H123.692C123.64 241.27 123.598 241.314 123.598 241.368V241.75C123.598 241.804 123.64 241.848 123.692 241.848Z" fill="#3F3D56"/>
<path d="M143.381 243.002H136.162C136.133 243.002 136.105 242.99 136.085 242.969C136.065 242.948 136.053 242.919 136.053 242.89V242.536C136.053 242.506 136.065 242.478 136.085 242.457C136.105 242.436 136.133 242.424 136.162 242.424H143.381C143.41 242.424 143.437 242.436 143.458 242.457C143.478 242.478 143.489 242.506 143.489 242.536V242.89C143.489 242.919 143.478 242.948 143.458 242.969C143.437 242.99 143.41 243.002 143.381 243.002Z" fill="#3F3D56"/>
<path d="M128.557 223.52H127.838C127.671 223.52 127.535 223.66 127.535 223.833V223.924C127.535 224.097 127.671 224.238 127.838 224.238H128.557C128.724 224.238 128.859 224.097 128.859 223.924V223.833C128.859 223.66 128.724 223.52 128.557 223.52Z" fill="white"/>
<path d="M135.774 223.52H135.055C134.888 223.52 134.753 223.66 134.753 223.833V223.924C134.753 224.097 134.888 224.238 135.055 224.238H135.774C135.941 224.238 136.077 224.097 136.077 223.924V223.833C136.077 223.66 135.941 223.52 135.774 223.52Z" fill="white"/>
<path d="M137.818 223.52H137.099C136.932 223.52 136.797 223.66 136.797 223.833V223.924C136.797 224.097 136.932 224.238 137.099 224.238H137.818C137.985 224.238 138.121 224.097 138.121 223.924V223.833C138.121 223.66 137.985 223.52 137.818 223.52Z" fill="white"/>
<path d="M133.811 223.459H129.8C129.633 223.459 129.498 223.599 129.498 223.772V223.864C129.498 224.037 129.633 224.177 129.8 224.177H133.811C133.978 224.177 134.113 224.037 134.113 223.864V223.772C134.113 223.599 133.978 223.459 133.811 223.459Z" fill="white"/>
<path d="M143.435 223.459H139.425C139.257 223.459 139.122 223.599 139.122 223.772V223.864C139.122 224.037 139.257 224.177 139.425 224.177H143.435C143.602 224.177 143.737 224.037 143.737 223.864V223.772C143.737 223.599 143.602 223.459 143.435 223.459Z" fill="white"/>
<path d="M130.481 225.141H129.762C129.595 225.141 129.46 225.281 129.46 225.454V225.545C129.46 225.718 129.595 225.859 129.762 225.859H130.481C130.648 225.859 130.784 225.718 130.784 225.545V225.454C130.784 225.281 130.648 225.141 130.481 225.141Z" fill="white"/>
<path d="M137.699 225.141H136.98C136.813 225.141 136.678 225.281 136.678 225.454V225.545C136.678 225.718 136.813 225.859 136.98 225.859H137.699C137.866 225.859 138.002 225.718 138.002 225.545V225.454C138.002 225.281 137.866 225.141 137.699 225.141Z" fill="white"/>
<path d="M139.744 225.141H139.025C138.858 225.141 138.723 225.281 138.723 225.454V225.545C138.723 225.718 138.858 225.859 139.025 225.859H139.744C139.911 225.859 140.047 225.718 140.047 225.545V225.454C140.047 225.281 139.911 225.141 139.744 225.141Z" fill="white"/>
<path d="M135.736 225.08H131.726C131.559 225.08 131.424 225.22 131.424 225.394V225.485C131.424 225.658 131.559 225.798 131.726 225.798H135.736C135.903 225.798 136.039 225.658 136.039 225.485V225.394C136.039 225.22 135.903 225.08 135.736 225.08Z" fill="white"/>
<path d="M145.358 225.08H141.348C141.181 225.08 141.046 225.22 141.046 225.394V225.485C141.046 225.658 141.181 225.798 141.348 225.798H145.358C145.525 225.798 145.661 225.658 145.661 225.485V225.394C145.661 225.22 145.525 225.08 145.358 225.08Z" fill="white"/>
<path d="M132.406 226.762H131.687C131.52 226.762 131.385 226.902 131.385 227.075V227.166C131.385 227.34 131.52 227.48 131.687 227.48H132.406C132.573 227.48 132.709 227.34 132.709 227.166V227.075C132.709 226.902 132.573 226.762 132.406 226.762Z" fill="white"/>
<path d="M139.623 226.762H138.904C138.737 226.762 138.602 226.902 138.602 227.075V227.166C138.602 227.34 138.737 227.48 138.904 227.48H139.623C139.79 227.48 139.925 227.34 139.925 227.166V227.075C139.925 226.902 139.79 226.762 139.623 226.762Z" fill="white"/>
<path d="M141.668 226.762H140.949C140.782 226.762 140.646 226.902 140.646 227.075V227.166C140.646 227.34 140.782 227.48 140.949 227.48H141.668C141.835 227.48 141.97 227.34 141.97 227.166V227.075C141.97 226.902 141.835 226.762 141.668 226.762Z" fill="white"/>
<path d="M137.66 226.701H133.65C133.483 226.701 133.348 226.842 133.348 227.015V227.106C133.348 227.279 133.483 227.419 133.65 227.419H137.66C137.827 227.419 137.963 227.279 137.963 227.106V227.015C137.963 226.842 137.827 226.701 137.66 226.701Z" fill="white"/>
<path d="M147.283 226.701H143.273C143.106 226.701 142.971 226.842 142.971 227.015V227.106C142.971 227.279 143.106 227.419 143.273 227.419H147.283C147.45 227.419 147.586 227.279 147.586 227.106V227.015C147.586 226.842 147.45 226.701 147.283 226.701Z" fill="white"/>
<path d="M134.33 228.383H133.611C133.444 228.383 133.309 228.523 133.309 228.696V228.787C133.309 228.961 133.444 229.101 133.611 229.101H134.33C134.497 229.101 134.632 228.961 134.632 228.787V228.696C134.632 228.523 134.497 228.383 134.33 228.383Z" fill="white"/>
<path d="M141.548 228.383H140.829C140.662 228.383 140.526 228.523 140.526 228.696V228.787C140.526 228.961 140.662 229.101 140.829 229.101H141.548C141.715 229.101 141.85 228.961 141.85 228.787V228.696C141.85 228.523 141.715 228.383 141.548 228.383Z" fill="white"/>
<path d="M143.593 228.383H142.874C142.707 228.383 142.571 228.523 142.571 228.696V228.787C142.571 228.961 142.707 229.101 142.874 229.101H143.593C143.76 229.101 143.895 228.961 143.895 228.787V228.696C143.895 228.523 143.76 228.383 143.593 228.383Z" fill="white"/>
<path d="M139.585 228.322H135.575C135.408 228.322 135.272 228.463 135.272 228.636V228.727C135.272 228.9 135.408 229.04 135.575 229.04H139.585C139.752 229.04 139.887 228.9 139.887 228.727V228.636C139.887 228.463 139.752 228.322 139.585 228.322Z" fill="white"/>
<path d="M135.774 234.826H135.055C134.888 234.826 134.753 234.967 134.753 235.14V235.231C134.753 235.404 134.888 235.544 135.055 235.544H135.774C135.941 235.544 136.077 235.404 136.077 235.231V235.14C136.077 234.967 135.941 234.826 135.774 234.826Z" fill="white"/>
<path d="M137.818 234.826H137.099C136.932 234.826 136.797 234.967 136.797 235.14V235.231C136.797 235.404 136.932 235.544 137.099 235.544H137.818C137.985 235.544 138.121 235.404 138.121 235.231V235.14C138.121 234.967 137.985 234.826 137.818 234.826Z" fill="white"/>
<path d="M143.435 234.887H139.425C139.257 234.887 139.122 235.027 139.122 235.2V235.291C139.122 235.465 139.257 235.605 139.425 235.605H143.435C143.602 235.605 143.737 235.465 143.737 235.291V235.2C143.737 235.027 143.602 234.887 143.435 234.887Z" fill="white"/>
<path d="M128.557 234.826H127.838C127.671 234.826 127.535 234.967 127.535 235.14V235.231C127.535 235.404 127.671 235.544 127.838 235.544H128.557C128.724 235.544 128.859 235.404 128.859 235.231V235.14C128.859 234.967 128.724 234.826 128.557 234.826Z" fill="white"/>
<path d="M133.811 234.887H129.8C129.633 234.887 129.498 235.027 129.498 235.2V235.291C129.498 235.465 129.633 235.605 129.8 235.605H133.811C133.978 235.605 134.113 235.465 134.113 235.291V235.2C134.113 235.027 133.978 234.887 133.811 234.887Z" fill="white"/>
<path d="M130.481 233.205H129.762C129.595 233.205 129.46 233.345 129.46 233.519V233.61C129.46 233.783 129.595 233.923 129.762 233.923H130.481C130.648 233.923 130.784 233.783 130.784 233.61V233.519C130.784 233.345 130.648 233.205 130.481 233.205Z" fill="white"/>
<path d="M137.699 233.205H136.98C136.813 233.205 136.678 233.345 136.678 233.519V233.61C136.678 233.783 136.813 233.923 136.98 233.923H137.699C137.866 233.923 138.002 233.783 138.002 233.61V233.519C138.002 233.345 137.866 233.205 137.699 233.205Z" fill="white"/>
<path d="M139.744 233.205H139.025C138.858 233.205 138.723 233.345 138.723 233.519V233.61C138.723 233.783 138.858 233.923 139.025 233.923H139.744C139.911 233.923 140.047 233.783 140.047 233.61V233.519C140.047 233.345 139.911 233.205 139.744 233.205Z" fill="white"/>
<path d="M135.736 233.266H131.726C131.559 233.266 131.424 233.406 131.424 233.579V233.67C131.424 233.843 131.559 233.984 131.726 233.984H135.736C135.903 233.984 136.039 233.843 136.039 233.67V233.579C136.039 233.406 135.903 233.266 135.736 233.266Z" fill="white"/>
<path d="M132.406 231.588H131.687C131.52 231.588 131.385 231.728 131.385 231.901V231.993C131.385 232.166 131.52 232.306 131.687 232.306H132.406C132.573 232.306 132.709 232.166 132.709 231.993V231.901C132.709 231.728 132.573 231.588 132.406 231.588Z" fill="white"/>
<path d="M139.623 231.588H138.904C138.737 231.588 138.602 231.728 138.602 231.901V231.993C138.602 232.166 138.737 232.306 138.904 232.306H139.623C139.79 232.306 139.925 232.166 139.925 231.993V231.901C139.925 231.728 139.79 231.588 139.623 231.588Z" fill="white"/>
<path d="M141.668 231.588H140.949C140.782 231.588 140.646 231.728 140.646 231.901V231.993C140.646 232.166 140.782 232.306 140.949 232.306H141.668C141.835 232.306 141.97 232.166 141.97 231.993V231.901C141.97 231.728 141.835 231.588 141.668 231.588Z" fill="white"/>
<path d="M137.66 231.645H133.65C133.483 231.645 133.348 231.785 133.348 231.958V232.049C133.348 232.222 133.483 232.363 133.65 232.363H137.66C137.827 232.363 137.963 232.222 137.963 232.049V231.958C137.963 231.785 137.827 231.645 137.66 231.645Z" fill="white"/>
<path d="M134.33 229.965H133.611C133.444 229.965 133.309 230.105 133.309 230.278V230.37C133.309 230.543 133.444 230.683 133.611 230.683H134.33C134.497 230.683 134.632 230.543 134.632 230.37V230.278C134.632 230.105 134.497 229.965 134.33 229.965Z" fill="white"/>
<path d="M141.548 229.965H140.829C140.662 229.965 140.526 230.105 140.526 230.278V230.37C140.526 230.543 140.662 230.683 140.829 230.683H141.548C141.715 230.683 141.85 230.543 141.85 230.37V230.278C141.85 230.105 141.715 229.965 141.548 229.965Z" fill="white"/>
<path d="M143.593 229.965H142.874C142.707 229.965 142.571 230.105 142.571 230.278V230.37C142.571 230.543 142.707 230.683 142.874 230.683H143.593C143.76 230.683 143.895 230.543 143.895 230.37V230.278C143.895 230.105 143.76 229.965 143.593 229.965Z" fill="white"/>
<path d="M139.585 230.025H135.575C135.408 230.025 135.272 230.166 135.272 230.339V230.43C135.272 230.603 135.408 230.744 135.575 230.744H139.585C139.752 230.744 139.887 230.603 139.887 230.43V230.339C139.887 230.166 139.752 230.025 139.585 230.025Z" fill="white"/>
<path d="M55.6475 218.63V242.221H71.5921V218.63C71.5924 218.46 71.5402 218.295 71.4431 218.158C71.3461 218.022 71.2093 217.921 71.0529 217.871C70.9792 217.846 70.9019 217.833 70.8243 217.834H56.4174C56.3164 217.834 56.2164 217.854 56.1231 217.894C56.0297 217.934 55.9448 217.993 55.8733 218.067C55.8018 218.141 55.7451 218.228 55.7063 218.325C55.6676 218.422 55.6476 218.525 55.6475 218.63ZM61.8707 226.736C61.8707 226.268 62.05 225.819 62.3692 225.489C62.6884 225.158 63.1214 224.972 63.5728 224.972C64.0242 224.972 64.4572 225.158 64.7764 225.489C65.0956 225.819 65.2749 226.268 65.2749 226.736V229.473C65.2749 229.941 65.0956 230.39 64.7764 230.721C64.4572 231.052 64.0242 231.238 63.5728 231.238C63.1214 231.238 62.6884 231.052 62.3692 230.721C62.05 230.39 61.8707 229.941 61.8707 229.473V226.736Z" fill="#2F2E41"/>
<path d="M55.5986 241.467V243.742C55.599 243.86 55.6442 243.973 55.7244 244.056C55.8046 244.14 55.9133 244.187 56.027 244.188H71.2127C71.3265 244.187 71.4355 244.14 71.5158 244.057C71.5961 243.973 71.6411 243.86 71.6411 243.742V241.467H55.5986Z" fill="#3F3D56"/>
<path d="M30.5654 183.086V226.161C30.5658 226.71 30.7764 227.236 31.1508 227.624C31.5253 228.012 32.033 228.231 32.5626 228.231H94.1444C94.674 228.231 95.1817 228.012 95.5562 227.624C95.9306 227.236 96.1412 226.71 96.1416 226.161V183.086C96.1405 182.538 95.9296 182.012 95.5553 181.624C95.1809 181.236 94.6736 181.018 94.1444 181.018H32.5626C32.0334 181.018 31.526 181.236 31.1517 181.624C30.7773 182.012 30.5665 182.538 30.5654 183.086Z" fill="#3F3D56"/>
<path d="M32.0098 183.624V225.632C32.0103 225.925 32.1229 226.206 32.323 226.413C32.523 226.621 32.7942 226.737 33.0771 226.738H93.6311C93.914 226.737 94.1852 226.621 94.3853 226.413C94.5853 226.206 94.698 225.925 94.6985 225.632V183.624C94.6985 183.331 94.5861 183.049 94.386 182.841C94.1859 182.633 93.9144 182.516 93.6311 182.516H33.0771C32.7938 182.516 32.5224 182.633 32.3222 182.841C32.1221 183.049 32.0098 183.331 32.0098 183.624Z" fill="white"/>
<path d="M43.2479 244.033C43.3095 244.113 43.3879 244.178 43.477 244.222C43.5662 244.266 43.6638 244.289 43.7627 244.289H79.7879C79.8864 244.288 79.9837 244.266 80.0726 244.222C80.1614 244.178 80.2398 244.114 80.3018 244.034C80.3639 243.955 80.4081 243.862 80.4313 243.763C80.4544 243.664 80.456 243.561 80.4358 243.461L79.8767 240.707C79.8535 240.595 79.8036 240.49 79.7315 240.403C79.6594 240.316 79.5675 240.249 79.464 240.208C79.389 240.178 79.3093 240.162 79.2288 240.162H44.3193C44.2388 240.162 44.159 240.178 44.0841 240.208C43.9806 240.249 43.8887 240.316 43.8166 240.403C43.7445 240.49 43.6946 240.595 43.6714 240.707L43.1123 243.461C43.0924 243.56 43.0943 243.664 43.1177 243.763C43.1412 243.862 43.1857 243.954 43.2479 244.033Z" fill="#2F2E41"/>
<path d="M91.6656 188.301H35.0056C34.9458 188.301 34.8885 188.277 34.8463 188.233C34.804 188.189 34.7803 188.13 34.7803 188.068C34.7803 188.006 34.804 187.946 34.8463 187.902C34.8885 187.859 34.9458 187.834 35.0056 187.834H91.6658C91.7256 187.834 91.7829 187.859 91.8251 187.902C91.8674 187.946 91.8911 188.006 91.8911 188.068C91.8911 188.13 91.8674 188.189 91.8251 188.233C91.7829 188.277 91.7254 188.301 91.6656 188.301Z" fill="#3F3D56"/>
<path d="M38.8624 186.64C39.5916 186.64 40.1828 186.014 40.1828 185.241C40.1828 184.468 39.5916 183.842 38.8624 183.842C38.1332 183.842 37.542 184.468 37.542 185.241C37.542 186.014 38.1332 186.64 38.8624 186.64Z" fill="#3F3D56"/>
<path d="M43.4239 186.64C44.1532 186.64 44.7443 186.014 44.7443 185.241C44.7443 184.468 44.1532 183.842 43.4239 183.842C42.6947 183.842 42.1035 184.468 42.1035 185.241C42.1035 186.014 42.6947 186.64 43.4239 186.64Z" fill="#3F3D56"/>
<path d="M47.9854 186.64C48.7147 186.64 49.3058 186.014 49.3058 185.241C49.3058 184.468 48.7147 183.842 47.9854 183.842C47.2562 183.842 46.665 184.468 46.665 185.241C46.665 186.014 47.2562 186.64 47.9854 186.64Z" fill="#3F3D56"/>
<path d="M124.954 240.141H151.804L152.333 241.981H124.954V240.141Z" fill="#3F3D56"/>
<path d="M88.9189 184.19H85.6788C85.615 184.191 85.5544 184.219 85.5098 184.266C85.4653 184.314 85.4404 184.378 85.4404 184.444C85.4404 184.51 85.4653 184.573 85.5098 184.621C85.5544 184.668 85.615 184.696 85.6788 184.698H88.9187C88.9515 184.699 88.9841 184.693 89.0147 184.681C89.0452 184.668 89.0731 184.65 89.0966 184.626C89.1201 184.602 89.1388 184.574 89.1515 184.543C89.1643 184.511 89.1709 184.478 89.1709 184.444C89.1709 184.41 89.1643 184.376 89.1515 184.345C89.1388 184.313 89.1201 184.285 89.0966 184.261C89.0731 184.238 89.0452 184.219 89.0147 184.207C88.9841 184.194 88.9515 184.189 88.9187 184.19H88.9189Z" fill="#3F3D56"/>
<path d="M88.9188 185.143H85.6789C85.6138 185.143 85.5514 185.169 85.5054 185.217C85.4594 185.265 85.4336 185.329 85.4336 185.397C85.4336 185.464 85.4594 185.529 85.5054 185.577C85.5514 185.624 85.6138 185.651 85.6789 185.651H88.9188C88.9516 185.652 88.9842 185.646 89.0147 185.634C89.0453 185.621 89.0731 185.603 89.0967 185.579C89.1202 185.556 89.1389 185.527 89.1516 185.496C89.1644 185.465 89.171 185.431 89.171 185.397C89.171 185.363 89.1644 185.329 89.1516 185.298C89.1389 185.267 89.1202 185.238 89.0967 185.215C89.0731 185.191 89.0453 185.172 89.0147 185.16C88.9842 185.148 88.9516 185.142 88.9188 185.143V185.143Z" fill="#3F3D56"/>
<path d="M88.9189 186.098H85.6788C85.615 186.1 85.5544 186.127 85.5098 186.175C85.4653 186.222 85.4404 186.286 85.4404 186.352C85.4404 186.418 85.4653 186.482 85.5098 186.529C85.5544 186.577 85.615 186.604 85.6788 186.606H88.9187C88.9515 186.607 88.9841 186.601 89.0147 186.589C89.0452 186.576 89.0731 186.558 89.0966 186.534C89.1201 186.511 89.1388 186.482 89.1515 186.451C89.1643 186.42 89.1709 186.386 89.1709 186.352C89.1709 186.318 89.1643 186.284 89.1515 186.253C89.1388 186.222 89.1201 186.193 89.0966 186.17C89.0731 186.146 89.0452 186.127 89.0147 186.115C88.9841 186.103 88.9515 186.097 88.9187 186.098H88.9189Z" fill="#3F3D56"/>
<path d="M163.06 242.473C163.146 242.732 163.309 242.957 163.526 243.115C163.743 243.272 164.002 243.354 164.267 243.349L169.441 243.212C169.708 243.206 169.966 243.111 170.177 242.941C170.387 242.771 170.539 242.535 170.61 242.269L171.342 234.153C171.602 234.275 171.884 234.335 172.169 234.329C172.67 234.316 173.145 234.098 173.489 233.722C173.834 233.346 174.021 232.843 174.008 232.325C173.996 231.806 173.785 231.314 173.422 230.957C173.06 230.599 172.575 230.406 172.075 230.419C171.961 230.418 171.847 230.43 171.736 230.455C171.614 230.319 171.467 230.211 171.303 230.138C171.139 230.064 170.962 230.028 170.784 230.029L162.825 230.242C162.759 230.245 162.693 230.253 162.628 230.268C162.454 230.301 162.288 230.374 162.143 230.479C161.998 230.585 161.876 230.721 161.786 230.88C161.695 231.039 161.639 231.215 161.62 231.398C161.601 231.581 161.621 231.766 161.677 231.941L163.06 242.473ZM171.492 233.602L172.013 231.668C172.072 231.445 172.074 231.209 172.017 230.985C172.042 230.985 172.065 230.973 172.09 230.973C172.448 230.964 172.794 231.103 173.053 231.359C173.312 231.615 173.462 231.968 173.471 232.339C173.479 232.71 173.345 233.069 173.098 233.337C172.851 233.606 172.511 233.761 172.153 233.77C171.922 233.778 171.693 233.72 171.492 233.602V233.602Z" fill="#E6E6E6"/>
<path d="M162.628 230.268C162.797 231.272 164.704 231.979 166.996 231.857C169.104 231.756 170.828 230.989 171.144 230.079C171.027 230.044 170.905 230.027 170.783 230.03L162.824 230.243C162.758 230.245 162.693 230.254 162.628 230.268L162.628 230.268Z" fill="#D6D6E3"/>
<path d="M108.517 224.536C108.517 224.536 91.2976 226.688 92.9417 224.536C93.5371 223.757 93.7014 221.45 93.6685 218.822C93.658 218.024 93.6297 217.197 93.591 216.374C93.4005 212.428 92.9421 208.571 92.9421 208.571C92.9421 208.571 107.998 201.216 106.267 207.046C105.575 209.402 105.802 212.71 106.328 215.814C106.482 216.72 106.66 217.608 106.847 218.451C107.303 220.508 107.86 222.538 108.517 224.536Z" fill="#ED9DA0"/>
<path d="M75.8334 255.992V255.841L106.225 255.498L124.742 255.319H124.794L124.775 255.585L124.801 255.319H124.834V255.288L125.071 252.876L125.161 251.963L125.189 251.678L125.213 251.439L126.282 247.742L127.352 244.05L128.252 240.942L129.626 236.192C129.626 236.192 128.847 234.308 128.415 233.77C127.982 233.232 126.283 229.381 126.283 229.381C126.283 229.381 123.857 225.908 122.242 225.488C121.566 225.309 120.23 225.07 118.811 224.771C118.28 224.659 114.208 223.44 113.965 223.271C112.693 222.304 109.506 222.195 109.383 222.195C109.382 222.191 109.382 222.186 109.383 222.182V222.166C109.387 222.091 109.387 222.015 109.383 221.94C109.385 221.856 109.379 221.772 109.367 221.689C109.369 221.659 109.365 221.628 109.355 221.599C109.346 221.535 109.336 221.467 109.32 221.395C109.315 221.363 109.308 221.331 109.3 221.3C109.249 221.084 109.177 220.874 109.083 220.674C109.071 220.645 109.055 220.615 109.042 220.586C108.957 220.42 108.859 220.262 108.748 220.114C108.725 220.084 108.701 220.051 108.675 220.021C108.533 219.848 108.375 219.689 108.204 219.547C108.157 219.51 108.109 219.47 108.059 219.434C108.031 219.411 108.001 219.389 107.97 219.37L107.816 219.266L107.673 219.179C107.547 219.108 107.413 219.038 107.268 218.971C107.223 218.95 107.175 218.93 107.126 218.911C107.078 218.892 107.002 218.861 106.937 218.836H106.927L106.797 218.782C106.699 218.748 106.598 218.717 106.493 218.687L106.332 218.644L106.159 218.603L105.986 218.565C105.812 218.529 105.627 218.497 105.434 218.472L105.236 218.447L105.034 218.425L104.824 218.407L104.527 218.39L104.181 218.377C102.654 218.377 101.131 218.545 99.6377 218.878C98.6016 218.639 97.5403 218.538 96.4796 218.577H96.329L96.156 218.587H96.0448L95.8216 218.609C95.7461 218.613 95.671 218.622 95.5967 218.636C95.5223 218.647 95.4444 218.656 95.37 218.668L95.2559 218.688C95.1433 218.708 95.0292 218.729 94.9098 218.755C94.8717 218.762 94.8337 218.771 94.7957 218.781C94.6452 218.816 94.4946 218.857 94.3458 218.903C94.2714 218.925 94.197 218.95 94.1226 218.977C94.0839 218.988 94.0482 219.002 94.0118 219.017L93.901 219.058L93.7919 219.103L93.6621 219.157C93.5964 219.185 93.5323 219.216 93.4683 219.248C93.4319 219.264 93.3957 219.282 93.361 219.302C93.3263 219.322 93.2901 219.338 93.2571 219.358C92.8658 219.567 92.5042 219.832 92.1824 220.143L92.094 220.231L92.0074 220.323C91.978 220.354 91.9503 220.386 91.9226 220.418C91.8098 220.546 91.7046 220.681 91.6075 220.822C91.5798 220.859 91.5539 220.897 91.5279 220.937C91.4181 221.104 91.3187 221.279 91.2303 221.46C91.2078 221.503 91.1871 221.548 91.1664 221.591C91.0252 221.894 90.9094 222.209 90.8203 222.533C90.788 222.653 90.7586 222.772 90.732 222.892C90.732 222.892 87.0684 224.567 84.0296 225.78C83.2215 226.103 82.4602 226.395 81.8232 226.616C81.638 226.68 81.4649 226.739 81.3039 226.795C80.9547 226.926 80.5916 227.013 80.2224 227.053C80.0484 227.056 79.8748 227.073 79.7032 227.103C78.3066 227.338 75.9132 228.359 75.6519 229.383C75.6307 229.465 75.6248 229.55 75.6346 229.635C75.6346 229.635 69.9428 247.901 69.8803 248.236C69.6284 249.603 69.0665 252.206 68.79 253.259C68.5841 254.045 68.2847 255.121 68.0788 255.86C68.0757 255.881 68.0699 255.903 68.0615 255.923L75.8196 255.844V255.994H75.8439L75.8334 255.992Z" fill="#6C63FF"/>
<path d="M109.392 221.946C104.374 222.904 94.9249 222.698 90.8408 222.553C92.3377 216.992 99.6371 218.883 99.6371 218.883C108.673 217.013 109.365 220.892 109.392 221.946Z" fill="#6C63FF"/>
<path d="M136.033 246.464C136.033 246.464 141.945 245.523 142.061 248.213C142.177 250.904 139.046 252.784 139.046 252.784L136.033 246.464Z" fill="#ED9DA0"/>
<path d="M140.416 251.845C140.416 251.845 140.262 252.225 139.978 252.776C139.549 253.623 139.026 254.416 138.421 255.138L138.374 255.19H138.094L128.101 255.285H127.862L127.833 255.249L125.896 252.865L125.165 251.966L125.136 251.929L125.074 251.853L125.039 251.81L124.994 251.755L123.573 250.008L124.092 247.765L124.977 243.987L124.999 243.896L125.172 243.178L125.295 242.64L125.707 240.886L127.119 234.85L129.628 236.195L132.274 241.04L133.695 243.641H134.473C134.62 243.641 134.957 243.935 135.297 244.274C135.418 244.395 135.539 244.522 135.643 244.633C135.951 244.963 136.195 245.246 136.195 245.246C136.195 245.246 137.456 245.275 137.796 246.305C137.813 246.354 137.828 246.405 137.839 246.457C137.951 246.862 138.098 247.255 138.277 247.634C138.5 248.138 138.78 248.71 139.064 249.282C139.592 250.331 140.128 251.331 140.326 251.692L140.35 251.737L140.416 251.845Z" fill="#6C63FF"/>
<path d="M75.834 255.994V255.843L106.226 255.501L124.743 255.321H124.795V255.291L124.968 252.881L125.042 251.805L125.326 247.748L125.549 244.537V244.458C125.56 244.31 125.553 244.161 125.53 244.015C125.531 244.009 125.531 244.003 125.53 243.997C125.482 243.694 125.364 243.409 125.184 243.165C124.993 242.912 124.744 242.713 124.459 242.587C124.173 242.462 123.862 242.414 123.554 242.447C121.458 242.67 119.342 242.847 117.223 242.986C116.934 243.007 116.645 243.026 116.358 243.041C102.697 243.882 89.1589 243.201 81.8335 242.683L81.3142 242.642C80.0457 242.549 78.9849 242.463 78.1681 242.39C77.7188 242.35 77.2713 242.485 76.9121 242.767C76.5529 243.05 76.3074 243.46 76.223 243.92C76.2056 244.017 76.1951 244.115 76.1918 244.214L76.0742 248.189L75.9132 253.224L75.8371 255.8V256.001L75.834 255.994Z" fill="#090814"/>
<path d="M98.4693 216.853C104.005 216.853 108.493 212.201 108.493 206.463C108.493 200.724 104.005 196.072 98.4693 196.072C92.9332 196.072 88.4453 200.724 88.4453 206.463C88.4453 212.201 92.9332 216.853 98.4693 216.853Z" fill="#ED9DA0"/>
<path d="M112.018 199.205C111.941 199.119 111.847 199.05 111.743 199.002C111.639 198.954 111.527 198.929 111.413 198.927L111.564 198.493C111.613 198.357 111.626 198.209 111.602 198.066C111.578 197.922 111.517 197.788 111.427 197.676C111.336 197.565 111.219 197.48 111.086 197.431C110.954 197.382 110.811 197.371 110.673 197.398L110.124 197.507L110.176 197.127C110.196 196.985 110.18 196.841 110.13 196.708C110.079 196.574 109.996 196.457 109.889 196.367C109.781 196.277 109.653 196.218 109.517 196.195C109.381 196.172 109.241 196.186 109.112 196.236C108.994 196.284 108.867 196.304 108.741 196.295C108.615 196.286 108.493 196.247 108.383 196.183C108.272 196.12 108.177 196.033 108.102 195.928C108.027 195.823 107.976 195.702 107.951 195.574L107.76 194.618L107.74 194.567C106.809 192.958 105.018 191.787 102.827 191.358C100.877 190.973 98.8766 191.169 96.9486 191.353C96.1837 191.428 95.32 191.512 94.6 191.969C93.9881 192.361 93.4706 193.144 93.5764 193.935C91.6755 193.331 89.6373 194.537 88.6273 196.057C87.4305 197.866 87.2348 200.134 87.2032 201.905C87.1178 206.098 87.9525 209.528 89.6778 212.102C89.8037 212.289 89.8353 212.678 90.0847 212.809L90.0329 212.722C90.3119 212.867 90.5948 213.1 90.4896 213.35C90.186 214.068 92.2039 215.656 93.6256 216.181C96.2196 217.14 99.6681 217.058 102.093 216.713L102.178 216.118C103.053 215.995 103.67 215.759 103.843 215.391C104.149 215.12 104.41 214.878 104.637 214.654L104.639 214.651C104.644 214.647 104.653 214.64 104.657 214.635C105.753 213.546 106.007 212.926 106.122 211.981C106.232 211.056 106.036 210.116 105.836 209.27C110.052 209.946 104.176 204.616 108.103 203.585C108.148 203.571 108.194 203.559 108.24 203.55C108.355 203.522 108.47 203.494 108.58 203.462C109.111 203.312 109.62 203.087 110.091 202.792C111.189 202.1 111.551 201.181 112.118 200.146C112.2 199.998 112.234 199.828 112.216 199.659C112.198 199.49 112.128 199.331 112.017 199.206L112.018 199.205Z" fill="#090814"/>
<path d="M54.8295 196.896H71.695C72.0481 196.896 72.3868 197.042 72.6365 197.301C72.8862 197.56 73.0265 197.911 73.0265 198.277C73.0265 198.643 72.8862 198.994 72.6365 199.252C72.3868 199.511 72.0481 199.657 71.695 199.657H54.8295C54.4764 199.657 54.1377 199.511 53.888 199.252C53.6383 198.994 53.498 198.643 53.498 198.277C53.498 197.911 53.6383 197.56 53.888 197.301C54.1377 197.042 54.4764 196.896 54.8295 196.896Z" fill="#6C63FF"/>
<path d="M50.391 203.34H76.1332C76.4863 203.34 76.825 203.485 77.0747 203.744C77.3244 204.003 77.4646 204.354 77.4646 204.72C77.4646 205.086 77.3244 205.437 77.0747 205.696C76.825 205.955 76.4863 206.1 76.1332 206.1H50.391C50.0379 206.1 49.6992 205.955 49.4495 205.696C49.1998 205.437 49.0596 205.086 49.0596 204.72C49.0596 204.354 49.1998 204.003 49.4495 203.744C49.6992 203.485 50.0379 203.34 50.391 203.34Z" fill="#E6E6E6"/>
<path d="M50.391 209.777H76.1332C76.4863 209.777 76.825 209.923 77.0747 210.182C77.3244 210.44 77.4646 210.791 77.4646 211.157C77.4646 211.523 77.3244 211.875 77.0747 212.133C76.825 212.392 76.4863 212.538 76.1332 212.538H50.391C50.0379 212.538 49.6992 212.392 49.4495 212.133C49.1998 211.875 49.0596 211.523 49.0596 211.157C49.0596 210.791 49.1998 210.44 49.4495 210.182C49.6992 209.923 50.0379 209.777 50.391 209.777Z" fill="#E6E6E6"/>
</g>
<path d="M63.6365 381.44L64.3225 379.662C64.6678 379.811 64.9992 379.923 65.3165 379.998C65.6338 380.073 65.9512 380.11 66.2685 380.11C66.5952 380.11 66.8658 380.082 67.0805 380.026C67.3045 379.961 67.4725 379.867 67.5845 379.746C67.6965 379.625 67.7525 379.48 67.7525 379.312C67.7525 379.153 67.7012 378.934 67.5985 378.654C67.5052 378.374 67.3325 378.01 67.0805 377.562C66.8285 377.105 66.4598 376.54 65.9745 375.868L67.6405 374.762C68.0885 375.397 68.4758 376.017 68.8025 376.624C69.1292 377.221 69.3812 377.781 69.5585 378.304C69.7452 378.817 69.8385 379.27 69.8385 379.662C69.8385 380.147 69.7078 380.572 69.4465 380.936C69.1945 381.291 68.8165 381.571 68.3125 381.776C67.8178 381.981 67.2065 382.084 66.4785 382.084C66.2078 382.084 65.9045 382.061 65.5685 382.014C65.2325 381.967 64.8918 381.897 64.5465 381.804C64.2105 381.711 63.9072 381.589 63.6365 381.44ZM74.8169 382.07C73.9489 382.07 73.2769 381.981 72.8009 381.804C72.3342 381.627 72.0076 381.351 71.8209 380.978C71.6342 380.595 71.5269 380.115 71.4989 379.536L71.2049 371.752H73.1649L73.4589 378.598C73.4776 379.027 73.5242 379.349 73.5989 379.564C73.6736 379.779 73.8136 379.923 74.0189 379.998C74.2336 380.073 74.5462 380.11 74.9569 380.11C75.3116 380.11 75.5636 380.203 75.7129 380.39C75.8716 380.567 75.9509 380.791 75.9509 381.062C75.9509 381.351 75.8529 381.594 75.6569 381.79C75.4609 381.977 75.1809 382.07 74.8169 382.07ZM79.5399 385.08C78.8773 385.08 78.2659 384.935 77.7059 384.646C77.1459 384.366 76.6979 383.923 76.3619 383.316C76.0259 382.719 75.8579 381.949 75.8579 381.006C75.8579 380.175 75.9559 379.415 76.1519 378.724C76.3479 378.024 76.6139 377.422 76.9499 376.918C77.2953 376.405 77.6826 376.008 78.1119 375.728C78.5413 375.448 78.9939 375.308 79.4699 375.308C79.8246 375.308 80.1606 375.411 80.4779 375.616C80.7953 375.812 81.0566 376.101 81.2619 376.484C81.4673 376.867 81.5699 377.333 81.5699 377.884C81.5699 378.183 81.5093 378.519 81.3879 378.892C81.2666 379.265 81.0519 379.62 80.7439 379.956C80.4453 380.283 80.0253 380.544 79.4839 380.74L79.8199 379.634C80.1186 379.746 80.4406 379.839 80.7859 379.914C81.1313 379.979 81.4906 380.031 81.8639 380.068C82.2373 380.096 82.6013 380.11 82.9559 380.11C83.3106 380.11 83.5626 380.203 83.7119 380.39C83.8706 380.567 83.9499 380.791 83.9499 381.062C83.9499 381.351 83.8519 381.594 83.6559 381.79C83.4599 381.977 83.1799 382.07 82.8159 382.07C82.5546 382.07 82.2559 382.056 81.9199 382.028C81.5933 382 81.2713 381.963 80.9539 381.916C80.6459 381.869 80.3846 381.818 80.1699 381.762L81.6959 381.412C81.9106 381.673 82.0553 381.963 82.1299 382.28C82.2139 382.607 82.2233 382.933 82.1579 383.26C82.1019 383.587 81.9666 383.885 81.7519 384.156C81.5466 384.436 81.2573 384.66 80.8839 384.828C80.5199 384.996 80.0719 385.08 79.5399 385.08ZM74.8359 382.07L74.9759 380.11C75.1346 380.11 75.3446 380.11 75.6059 380.11C75.8766 380.11 76.1146 380.11 76.3199 380.11L76.4739 381.888C76.2033 381.944 75.9093 381.986 75.5919 382.014C75.2839 382.051 75.0319 382.07 74.8359 382.07ZM79.4839 383.148C79.6706 383.148 79.8246 383.115 79.9459 383.05C80.0673 382.994 80.1559 382.91 80.2119 382.798C80.2773 382.695 80.3099 382.579 80.3099 382.448C80.3099 382.336 80.2726 382.21 80.1979 382.07C80.1233 381.93 79.9833 381.809 79.7779 381.706C79.5726 381.594 79.2786 381.538 78.8959 381.538C78.7559 381.538 78.6019 381.547 78.4339 381.566C78.2753 381.585 78.1026 381.613 77.9159 381.65C77.7293 381.678 77.5379 381.715 77.3419 381.762L77.4119 380.082C77.7666 380.054 78.0839 379.998 78.3639 379.914C78.6439 379.821 78.8773 379.699 79.0639 379.55C79.2599 379.391 79.4093 379.2 79.5119 378.976C79.6146 378.752 79.6659 378.491 79.6659 378.192C79.6659 378.043 79.6519 377.898 79.6239 377.758C79.5959 377.609 79.5539 377.487 79.4979 377.394C79.4419 377.291 79.3719 377.24 79.2879 377.24C79.1386 377.24 78.9799 377.324 78.8119 377.492C78.6439 377.66 78.4853 377.903 78.3359 378.22C78.1866 378.528 78.0606 378.901 77.9579 379.34C77.8646 379.769 77.8179 380.25 77.8179 380.782C77.8179 381.23 77.8646 381.608 77.9579 381.916C78.0513 382.215 78.1773 382.453 78.3359 382.63C78.4946 382.817 78.6719 382.947 78.8679 383.022C79.0733 383.106 79.2786 383.148 79.4839 383.148ZM82.834 382.07L82.974 380.11C83.3287 380.11 83.6087 380.077 83.814 380.012C84.0287 379.947 84.1967 379.816 84.318 379.62C84.4487 379.415 84.556 379.116 84.64 378.724C84.7333 378.332 84.8267 377.809 84.92 377.156L86.754 377.464C86.7353 377.604 86.7073 377.767 86.67 377.954C86.642 378.141 86.614 378.332 86.586 378.528C86.5673 378.715 86.558 378.892 86.558 379.06C86.558 379.284 86.6047 379.475 86.698 379.634C86.8007 379.783 86.978 379.9 87.23 379.984C87.4913 380.068 87.8647 380.11 88.35 380.11C88.7047 380.11 88.9567 380.203 89.106 380.39C89.2553 380.567 89.33 380.791 89.33 381.062C89.33 381.351 89.232 381.594 89.036 381.79C88.8493 381.977 88.574 382.07 88.21 382.07C87.566 382.07 87.0433 382.009 86.642 381.888C86.2407 381.767 85.942 381.561 85.746 381.272C85.55 380.983 85.424 380.586 85.368 380.082H86.04C85.872 380.53 85.676 380.889 85.452 381.16C85.228 381.421 84.976 381.617 84.696 381.748C84.416 381.879 84.1173 381.963 83.8 382C83.492 382.047 83.17 382.07 82.834 382.07ZM85.69 375.728C85.4007 375.728 85.1533 375.63 84.948 375.434C84.752 375.238 84.654 374.995 84.654 374.706C84.654 374.417 84.752 374.169 84.948 373.964C85.1533 373.759 85.4007 373.656 85.69 373.656C85.97 373.656 86.208 373.759 86.404 373.964C86.6093 374.169 86.712 374.417 86.712 374.706C86.712 374.995 86.6093 375.238 86.404 375.434C86.208 375.63 85.97 375.728 85.69 375.728ZM88.207 382.07L88.347 380.11C88.655 380.11 88.907 380.087 89.103 380.04C89.299 379.984 89.4577 379.867 89.579 379.69C89.7097 379.503 89.8217 379.228 89.915 378.864C90.0177 378.491 90.1297 377.987 90.251 377.352L92.071 377.688C92.0337 377.893 91.9824 378.15 91.917 378.458C91.861 378.766 91.833 379.032 91.833 379.256C91.833 379.433 91.8657 379.587 91.931 379.718C92.0057 379.839 92.127 379.937 92.295 380.012C92.4724 380.077 92.715 380.11 93.023 380.11C93.2657 380.11 93.471 380.087 93.639 380.04C93.8164 379.984 93.9657 379.867 94.087 379.69C94.2177 379.503 94.3297 379.219 94.423 378.836C94.5257 378.444 94.6237 377.917 94.717 377.254L96.565 377.548C96.5277 377.763 96.4904 377.991 96.453 378.234C96.4157 378.477 96.383 378.701 96.355 378.906C96.327 379.111 96.313 379.279 96.313 379.41C96.313 379.531 96.3457 379.648 96.411 379.76C96.4857 379.863 96.6164 379.947 96.803 380.012C96.999 380.077 97.2697 380.11 97.615 380.11C98.035 380.11 98.343 380.021 98.539 379.844C98.7444 379.657 98.847 379.377 98.847 379.004C98.847 378.789 98.8424 378.561 98.833 378.318C98.8237 378.066 98.805 377.786 98.777 377.478C98.7584 377.161 98.721 376.801 98.665 376.4L100.471 376.26C100.536 377.063 100.611 377.716 100.695 378.22C100.779 378.724 100.891 379.116 101.031 379.396C101.18 379.667 101.376 379.853 101.619 379.956C101.871 380.059 102.198 380.11 102.599 380.11C102.954 380.11 103.206 380.203 103.355 380.39C103.514 380.567 103.593 380.791 103.593 381.062C103.593 381.351 103.495 381.594 103.299 381.79C103.112 381.977 102.832 382.07 102.459 382.07C102.207 382.07 101.946 382.047 101.675 382C101.404 381.963 101.143 381.883 100.891 381.762C100.639 381.631 100.415 381.445 100.219 381.202C100.023 380.959 99.869 380.637 99.757 380.236L100.009 380.32C99.8784 380.787 99.701 381.146 99.477 381.398C99.253 381.65 98.9777 381.827 98.651 381.93C98.3244 382.023 97.9324 382.07 97.475 382.07C97.055 382.07 96.6817 382.014 96.355 381.902C96.0284 381.79 95.767 381.608 95.571 381.356C95.3844 381.095 95.2864 380.745 95.277 380.306H95.753C95.5664 380.829 95.3517 381.216 95.109 381.468C94.8664 381.72 94.5724 381.883 94.227 381.958C93.8817 382.033 93.4477 382.07 92.925 382.07C92.6077 382.07 92.295 382.037 91.987 381.972C91.679 381.897 91.4037 381.734 91.161 381.482C90.9184 381.221 90.741 380.81 90.629 380.25L91.385 380.222C91.189 380.773 90.9324 381.179 90.615 381.44C90.307 381.701 89.9524 381.874 89.551 381.958C89.1497 382.033 88.7017 382.07 88.207 382.07ZM95.389 373.404C95.1557 373.404 94.9504 373.315 94.773 373.138C94.605 372.961 94.521 372.751 94.521 372.508C94.521 372.265 94.605 372.06 94.773 371.892C94.9504 371.724 95.1557 371.64 95.389 371.64C95.6317 371.64 95.837 371.724 96.005 371.892C96.173 372.06 96.257 372.265 96.257 372.508C96.257 372.751 96.173 372.961 96.005 373.138C95.837 373.315 95.6317 373.404 95.389 373.404ZM94.269 375.252C94.0357 375.252 93.8304 375.163 93.653 374.986C93.485 374.809 93.401 374.599 93.401 374.356C93.401 374.113 93.485 373.908 93.653 373.74C93.8304 373.572 94.0357 373.488 94.269 373.488C94.5117 373.488 94.717 373.572 94.885 373.74C95.053 373.908 95.137 374.113 95.137 374.356C95.137 374.599 95.053 374.809 94.885 374.986C94.717 375.163 94.5117 375.252 94.269 375.252ZM96.439 375.252C96.2057 375.252 96.0004 375.163 95.823 374.986C95.655 374.809 95.571 374.599 95.571 374.356C95.571 374.113 95.655 373.908 95.823 373.74C96.0004 373.572 96.2057 373.488 96.439 373.488C96.6817 373.488 96.887 373.572 97.055 373.74C97.223 373.908 97.307 374.113 97.307 374.356C97.307 374.599 97.223 374.809 97.055 374.986C96.887 375.163 96.6817 375.252 96.439 375.252ZM102.467 382.07L102.607 380.11C102.943 380.11 103.232 380.077 103.475 380.012C103.717 379.947 103.923 379.816 104.091 379.62C104.259 379.415 104.399 379.116 104.511 378.724C104.632 378.332 104.739 377.809 104.833 377.156L106.667 377.464C106.648 377.604 106.62 377.767 106.583 377.954C106.555 378.141 106.527 378.332 106.499 378.528C106.48 378.715 106.471 378.892 106.471 379.06C106.471 379.228 106.503 379.377 106.569 379.508C106.634 379.639 106.737 379.751 106.877 379.844C107.026 379.928 107.217 379.993 107.451 380.04C107.693 380.087 107.987 380.11 108.333 380.11C108.687 380.11 108.939 380.203 109.089 380.39C109.238 380.567 109.313 380.791 109.313 381.062C109.313 381.351 109.215 381.594 109.019 381.79C108.832 381.977 108.557 382.07 108.193 382.07C107.773 382.07 107.39 382.037 107.045 381.972C106.709 381.907 106.415 381.799 106.163 381.65C105.92 381.491 105.719 381.286 105.561 381.034C105.411 380.773 105.318 380.455 105.281 380.082H105.953C105.785 380.53 105.57 380.889 105.309 381.16C105.057 381.421 104.772 381.617 104.455 381.748C104.137 381.879 103.806 381.963 103.461 382C103.125 382.047 102.793 382.07 102.467 382.07ZM106.373 385.318C106.102 385.318 105.869 385.22 105.673 385.024C105.486 384.837 105.393 384.613 105.393 384.352C105.393 384.081 105.486 383.848 105.673 383.652C105.869 383.456 106.102 383.358 106.373 383.358C106.634 383.358 106.858 383.456 107.045 383.652C107.231 383.848 107.325 384.081 107.325 384.352C107.325 384.613 107.231 384.837 107.045 385.024C106.858 385.22 106.634 385.318 106.373 385.318ZM103.951 385.318C103.68 385.318 103.447 385.22 103.251 385.024C103.064 384.837 102.971 384.613 102.971 384.352C102.971 384.081 103.064 383.848 103.251 383.652C103.447 383.456 103.68 383.358 103.951 383.358C104.212 383.358 104.436 383.456 104.623 383.652C104.809 383.848 104.903 384.081 104.903 384.352C104.903 384.613 104.809 384.837 104.623 385.024C104.436 385.22 104.212 385.318 103.951 385.318ZM108.195 382.07L108.335 380.11C108.895 380.11 109.325 380.082 109.623 380.026C109.922 379.97 110.127 379.867 110.239 379.718C110.361 379.559 110.421 379.335 110.421 379.046C110.421 378.785 110.384 378.472 110.309 378.108C110.244 377.744 110.155 377.366 110.043 376.974C109.941 376.582 109.829 376.223 109.707 375.896L111.639 375.364C111.761 375.681 111.877 376.05 111.989 376.47C112.101 376.89 112.195 377.324 112.269 377.772C112.344 378.211 112.381 378.635 112.381 379.046C112.381 379.681 112.279 380.199 112.073 380.6C111.868 380.992 111.579 381.295 111.205 381.51C110.841 381.725 110.403 381.874 109.889 381.958C109.376 382.033 108.811 382.07 108.195 382.07ZM110.309 386.732C110.076 386.732 109.88 386.653 109.721 386.494C109.572 386.335 109.497 386.144 109.497 385.92C109.497 385.687 109.572 385.486 109.721 385.318C109.88 385.15 110.076 385.066 110.309 385.066C110.533 385.066 110.725 385.15 110.883 385.318C111.042 385.486 111.121 385.687 111.121 385.92C111.121 386.144 111.042 386.335 110.883 386.494C110.725 386.653 110.533 386.732 110.309 386.732ZM111.387 384.926C111.154 384.926 110.958 384.847 110.799 384.688C110.65 384.529 110.575 384.338 110.575 384.114C110.575 383.881 110.65 383.68 110.799 383.512C110.958 383.344 111.154 383.26 111.387 383.26C111.611 383.26 111.803 383.344 111.961 383.512C112.12 383.68 112.199 383.881 112.199 384.114C112.199 384.338 112.12 384.529 111.961 384.688C111.803 384.847 111.611 384.926 111.387 384.926ZM109.287 384.926C109.054 384.926 108.858 384.847 108.699 384.688C108.541 384.529 108.461 384.338 108.461 384.114C108.461 383.881 108.541 383.68 108.699 383.512C108.858 383.344 109.054 383.26 109.287 383.26C109.502 383.26 109.689 383.344 109.847 383.512C110.015 383.68 110.099 383.881 110.099 384.114C110.099 384.338 110.015 384.529 109.847 384.688C109.689 384.847 109.502 384.926 109.287 384.926ZM122.417 382.294L122.781 380.334C123.453 380.334 124.097 380.301 124.713 380.236C125.338 380.171 125.931 380.04 126.491 379.844C127.06 379.648 127.592 379.359 128.087 378.976C128.581 378.593 129.029 378.08 129.431 377.436L130.999 378.15C130.943 378.327 130.896 378.5 130.859 378.668C130.821 378.827 130.803 378.957 130.803 379.06C130.803 379.275 130.854 379.461 130.957 379.62C131.069 379.779 131.255 379.9 131.517 379.984C131.778 380.068 132.137 380.11 132.595 380.11C132.949 380.11 133.201 380.203 133.351 380.39C133.5 380.567 133.575 380.791 133.575 381.062C133.575 381.351 133.477 381.594 133.281 381.79C133.094 381.977 132.819 382.07 132.455 382.07C131.811 382.07 131.251 381.981 130.775 381.804C130.308 381.627 129.939 381.379 129.669 381.062C129.407 380.735 129.253 380.362 129.207 379.942L129.767 379.998C129.431 380.399 129.011 380.745 128.507 381.034C128.012 381.323 127.447 381.561 126.813 381.748C126.187 381.935 125.501 382.07 124.755 382.154C124.017 382.247 123.238 382.294 122.417 382.294ZM122.403 382.294C121.395 382.294 120.541 382.215 119.841 382.056C119.15 381.907 118.585 381.692 118.147 381.412C117.717 381.123 117.405 380.787 117.209 380.404C117.013 380.021 116.915 379.601 116.915 379.144C116.915 378.845 116.938 378.547 116.985 378.248C117.041 377.94 117.106 377.641 117.181 377.352C117.265 377.063 117.339 376.801 117.405 376.568L119.155 376.974C119.117 377.142 119.075 377.324 119.029 377.52C118.982 377.716 118.945 377.907 118.917 378.094C118.889 378.271 118.875 378.435 118.875 378.584C118.875 378.929 118.996 379.237 119.239 379.508C119.491 379.769 119.901 379.975 120.471 380.124C121.04 380.264 121.805 380.334 122.767 380.334L123.047 381.846L122.403 382.294ZM125.007 375.896C124.736 375.896 124.503 375.803 124.307 375.616C124.12 375.42 124.027 375.191 124.027 374.93C124.027 374.659 124.12 374.426 124.307 374.23C124.503 374.034 124.736 373.936 125.007 373.936C125.268 373.936 125.492 374.034 125.679 374.23C125.865 374.426 125.959 374.659 125.959 374.93C125.959 375.191 125.865 375.42 125.679 375.616C125.492 375.803 125.268 375.896 125.007 375.896ZM122.585 375.882C122.314 375.882 122.081 375.789 121.885 375.602C121.698 375.406 121.605 375.177 121.605 374.916C121.605 374.645 121.698 374.412 121.885 374.216C122.081 374.02 122.314 373.922 122.585 373.922C122.846 373.922 123.07 374.02 123.257 374.216C123.443 374.412 123.537 374.645 123.537 374.916C123.537 375.177 123.443 375.406 123.257 375.602C123.07 375.789 122.846 375.882 122.585 375.882ZM132.449 382.07L132.589 380.11C132.944 380.11 133.224 380.077 133.429 380.012C133.644 379.947 133.812 379.816 133.933 379.62C134.064 379.415 134.171 379.116 134.255 378.724C134.349 378.332 134.442 377.809 134.535 377.156L136.369 377.464C136.351 377.604 136.323 377.767 136.285 377.954C136.257 378.141 136.229 378.332 136.201 378.528C136.183 378.715 136.173 378.892 136.173 379.06C136.173 379.284 136.22 379.475 136.313 379.634C136.416 379.783 136.593 379.9 136.845 379.984C137.107 380.068 137.48 380.11 137.965 380.11C138.32 380.11 138.572 380.203 138.721 380.39C138.871 380.567 138.945 380.791 138.945 381.062C138.945 381.351 138.847 381.594 138.651 381.79C138.465 381.977 138.189 382.07 137.825 382.07C137.181 382.07 136.659 382.009 136.257 381.888C135.856 381.767 135.557 381.561 135.361 381.272C135.165 380.983 135.039 380.586 134.983 380.082H135.655C135.487 380.53 135.291 380.889 135.067 381.16C134.843 381.421 134.591 381.617 134.311 381.748C134.031 381.879 133.733 381.963 133.415 382C133.107 382.047 132.785 382.07 132.449 382.07ZM134.941 385.29C134.671 385.29 134.437 385.197 134.241 385.01C134.055 384.823 133.961 384.595 133.961 384.324C133.961 384.053 134.055 383.815 134.241 383.61C134.437 383.414 134.671 383.316 134.941 383.316C135.212 383.316 135.441 383.414 135.627 383.61C135.823 383.815 135.921 384.053 135.921 384.324C135.921 384.595 135.823 384.823 135.627 385.01C135.441 385.197 135.212 385.29 134.941 385.29ZM137.822 382.07L137.962 380.11C138.522 380.11 138.952 380.082 139.25 380.026C139.549 379.97 139.754 379.867 139.866 379.718C139.988 379.559 140.048 379.335 140.048 379.046C140.048 378.785 140.011 378.472 139.936 378.108C139.871 377.744 139.782 377.366 139.67 376.974C139.568 376.582 139.456 376.223 139.334 375.896L141.266 375.364C141.388 375.681 141.504 376.05 141.616 376.47C141.728 376.89 141.822 377.324 141.896 377.772C141.971 378.211 142.008 378.635 142.008 379.046C142.008 379.681 141.906 380.199 141.7 380.6C141.495 380.992 141.206 381.295 140.832 381.51C140.468 381.725 140.03 381.874 139.516 381.958C139.003 382.033 138.438 382.07 137.822 382.07ZM140.496 372.354C140.263 372.354 140.058 372.265 139.88 372.088C139.712 371.911 139.628 371.701 139.628 371.458C139.628 371.215 139.712 371.01 139.88 370.842C140.058 370.674 140.263 370.59 140.496 370.59C140.739 370.59 140.944 370.674 141.112 370.842C141.28 371.01 141.364 371.215 141.364 371.458C141.364 371.701 141.28 371.911 141.112 372.088C140.944 372.265 140.739 372.354 140.496 372.354ZM139.376 374.202C139.143 374.202 138.938 374.113 138.76 373.936C138.592 373.759 138.508 373.549 138.508 373.306C138.508 373.063 138.592 372.858 138.76 372.69C138.938 372.522 139.143 372.438 139.376 372.438C139.619 372.438 139.824 372.522 139.992 372.69C140.16 372.858 140.244 373.063 140.244 373.306C140.244 373.549 140.16 373.759 139.992 373.936C139.824 374.113 139.619 374.202 139.376 374.202ZM141.546 374.202C141.313 374.202 141.108 374.113 140.93 373.936C140.762 373.759 140.678 373.549 140.678 373.306C140.678 373.063 140.762 372.858 140.93 372.69C141.108 372.522 141.313 372.438 141.546 372.438C141.789 372.438 141.994 372.522 142.162 372.69C142.33 372.858 142.414 373.063 142.414 373.306C142.414 373.549 142.33 373.759 142.162 373.936C141.994 374.113 141.789 374.202 141.546 374.202Z" fill="white"/>
<path d="M36.6043 408.83C37.3831 408.83 38.0143 408.197 38.0143 407.415C38.0143 406.634 37.3831 406 36.6043 406C35.8256 406 35.1943 406.634 35.1943 407.415C35.1943 408.197 35.8256 408.83 36.6043 408.83Z" fill="#090814"/>
<path d="M42.1219 408.83C42.9006 408.83 43.5319 408.197 43.5319 407.415C43.5319 406.634 42.9006 406 42.1219 406C41.3432 406 40.7119 406.634 40.7119 407.415C40.7119 408.197 41.3432 408.83 42.1219 408.83Z" fill="#090814"/>
<path d="M47.6395 408.83C48.4182 408.83 49.0495 408.197 49.0495 407.415C49.0495 406.634 48.4182 406 47.6395 406C46.8608 406 46.2295 406.634 46.2295 407.415C46.2295 408.197 46.8608 408.83 47.6395 408.83Z" fill="#090814"/>
<path d="M34.7443 416.875H117.5C118.212 416.875 118.895 417.159 119.399 417.665C119.902 418.17 120.185 418.856 120.185 419.571V440.303C120.185 441.018 119.902 441.703 119.399 442.209C118.895 442.714 118.212 442.998 117.5 442.998H34.7443C34.0321 442.998 33.349 442.715 32.8453 442.209C32.3417 441.704 32.0587 441.018 32.0586 440.303V419.571C32.0586 418.856 32.3416 418.17 32.8452 417.665C33.3489 417.159 34.032 416.875 34.7443 416.875Z" fill="#F2F2F2"/>
<path d="M120.205 411.282H32.3341C32.1457 411.28 31.9962 411.203 32.0001 411.11C32.004 411.02 32.1511 410.947 32.3339 410.945H120.205C120.394 410.947 120.543 411.024 120.539 411.117C120.535 411.207 120.388 411.28 120.205 411.282Z" fill="#090814"/>
<path d="M46.3023 432.713H45.6873C40.5373 432.713 36.3623 436.903 36.3623 442.072C36.3623 447.241 40.5373 451.431 45.6873 451.431H46.3023C51.4523 451.431 55.6273 447.241 55.6273 442.072C55.6273 436.903 51.4523 432.713 46.3023 432.713Z" fill="#E6E6E6"/>
<path d="M42.4666 456.162H49.5217C49.7825 456.169 50.03 456.279 50.2099 456.468C50.3898 456.658 50.4874 456.911 50.4812 457.173C50.4874 457.435 50.3898 457.688 50.2099 457.878C50.03 458.067 49.7825 458.177 49.5217 458.184H42.4666C42.2059 458.177 41.9584 458.067 41.7785 457.878C41.5986 457.688 41.501 457.435 41.5071 457.173C41.501 456.911 41.5986 456.658 41.7785 456.468C41.9584 456.279 42.2059 456.169 42.4666 456.162Z" fill="#6C63FF"/>
<path d="M37.909 460.014H54.0792C54.34 460.02 54.5875 460.13 54.7674 460.32C54.9473 460.509 55.0449 460.763 55.0387 461.024C55.0449 461.286 54.9473 461.54 54.7674 461.729C54.5875 461.919 54.34 462.029 54.0792 462.035H37.909C37.6483 462.029 37.4008 461.919 37.2208 461.729C37.0409 461.54 36.9433 461.286 36.9495 461.024C36.9433 460.763 37.0409 460.509 37.2208 460.32C37.4008 460.13 37.6483 460.02 37.909 460.014Z" fill="#E6E6E6"/>
<path d="M37.909 463.865H54.0792C54.34 463.872 54.5875 463.982 54.7674 464.171C54.9473 464.361 55.0449 464.614 55.0387 464.876C55.0449 465.138 54.9473 465.391 54.7674 465.581C54.5875 465.77 54.34 465.88 54.0792 465.887H37.909C37.6483 465.88 37.4008 465.77 37.2208 465.581C37.0409 465.391 36.9433 465.138 36.9495 464.876C36.9433 464.614 37.0409 464.361 37.2208 464.171C37.4008 463.982 37.6483 463.872 37.909 463.865Z" fill="#E6E6E6"/>
<path d="M173 526.001H110.301V525.748H173V526.001Z" fill="#E6E6E6"/>
<path d="M138.3 437.713H142.937L143.547 442.498L138.3 443.13V437.713Z" fill="#ED9DA0"/>
<path d="M144.048 445.601C144.047 445.887 144.014 446.171 143.948 446.449L141.143 458.428C141.048 458.833 140.875 459.215 140.633 459.552C140.391 459.89 140.086 460.176 139.733 460.395C139.381 460.614 138.989 460.761 138.58 460.828C138.171 460.894 137.753 460.879 137.35 460.784L126.109 457.283L125.56 457.113C125.204 457.358 124.802 457.53 124.379 457.618C123.956 457.706 123.519 457.709 123.095 457.626C121.463 457.336 120.333 456.003 120.572 454.647C120.81 453.291 122.326 452.429 123.957 452.717C124.384 452.784 124.794 452.936 125.162 453.164C125.53 453.392 125.849 453.691 126.101 454.043L126.109 454.045L126.138 454.05L135.922 455.265L136.744 445.306C136.822 444.362 137.26 443.485 137.967 442.858C138.673 442.231 139.594 441.902 140.536 441.94C141.479 441.979 142.37 442.381 143.024 443.062C143.679 443.744 144.045 444.654 144.047 445.6L144.048 445.601Z" fill="#ED9DA0"/>
<path d="M144.047 445.601C144.047 445.886 144.014 446.17 143.948 446.448L141.646 458.933C141.552 459.338 141.379 459.72 141.137 460.058C140.895 460.395 140.589 460.681 140.236 460.9C139.884 461.119 139.492 461.266 139.083 461.332C138.674 461.399 138.256 461.384 137.853 461.288L126.612 458.151L127.116 453.266L135.676 454.445L136.744 445.306C136.822 444.362 137.26 443.485 137.966 442.858C138.673 442.231 139.594 441.902 140.536 441.94C141.479 441.979 142.37 442.381 143.024 443.062C143.679 443.744 144.045 444.654 144.047 445.6L144.047 445.601Z" fill="#6C63FF"/>
<path d="M158.647 511.389L155.932 513.398L157.933 516.124L160.648 514.114L158.647 511.389Z" fill="#ED9DA0"/>
<path d="M162.005 516.937L156.234 521.207C155.737 521.574 155.165 521.824 154.559 521.94L153.118 522.214C152.96 522.245 152.795 522.226 152.647 522.16C152.499 522.094 152.375 521.984 152.291 521.846C152.207 521.707 152.167 521.546 152.177 521.384C152.187 521.222 152.246 521.067 152.346 520.939L154.094 518.705L156.394 513.946L156.407 513.958C156.739 514.263 157.244 514.722 157.282 514.744C157.992 514.902 158.538 514.813 158.904 514.481C159.541 513.901 159.413 512.763 159.411 512.751L159.41 512.743L159.418 512.738C159.49 512.689 159.572 512.658 159.659 512.646C159.745 512.634 159.833 512.642 159.915 512.67C160.247 512.792 160.421 513.229 160.445 513.296C160.769 513.342 161.612 514.311 161.68 514.39C162.165 514.478 162.499 514.661 162.672 514.933C162.75 515.069 162.798 515.219 162.813 515.375C162.828 515.53 162.81 515.687 162.761 515.835C162.642 516.278 162.375 516.667 162.006 516.937L162.005 516.937Z" fill="#090814"/>
<path d="M135.363 519.342H131.989V522.727H135.363V519.342Z" fill="#ED9DA0"/>
<path d="M134.787 525.806H127.617C127 525.805 126.392 525.666 125.836 525.399L124.514 524.761C124.368 524.691 124.247 524.578 124.167 524.437C124.086 524.296 124.051 524.134 124.066 523.972C124.08 523.81 124.143 523.657 124.247 523.532C124.351 523.408 124.49 523.318 124.646 523.275L127.373 522.518L132.038 520.057L132.042 520.074C132.13 520.518 132.264 521.188 132.282 521.228C132.76 521.779 133.251 522.032 133.742 521.982C134.599 521.895 135.168 520.903 135.173 520.892L135.178 520.885L135.187 520.886C135.274 520.889 135.359 520.913 135.435 520.955C135.511 520.997 135.577 521.056 135.627 521.127C135.823 521.423 135.703 521.878 135.684 521.947C135.918 522.177 136.023 523.459 136.031 523.563C136.369 523.923 136.53 524.269 136.509 524.591C136.49 524.746 136.44 524.896 136.36 525.03C136.28 525.164 136.173 525.28 136.046 525.369C135.688 525.655 135.244 525.809 134.787 525.807L134.787 525.806Z" fill="#090814"/>
<path d="M149.126 466.416H132.96L130.383 520.246H136.076L139.754 495.778L154.515 515.352L159.904 510.459L149.126 495.778L149.126 466.416Z" fill="#E6E6E6"/>
<path d="M145.577 459.037L148.217 466.846L133.278 466.678L135.506 459.543L145.577 459.037Z" fill="#ED9DA0"/>
<path d="M144.227 439.217L137.603 441.528L131.34 473.979L144.227 475.559L145.167 470.611L146.063 475.559H150.527L145.714 443.288C145.499 441.844 144.993 440.459 144.227 439.217Z" fill="#6C63FF"/>
<path d="M142.37 477.347L142.485 472.013L139.382 471.945L139.267 477.279C138.957 477.582 138.711 477.944 138.543 478.344C138.374 478.744 138.287 479.173 138.285 479.607C138.25 481.27 139.331 482.642 140.702 482.672C142.073 482.702 143.214 481.378 143.25 479.715C143.267 479.282 143.198 478.849 143.047 478.442C142.896 478.036 142.666 477.663 142.37 477.347Z" fill="#ED9DA0"/>
<path d="M138.086 450.65V476.504H143.475L145.067 450.868" fill="#6C63FF"/>
<path d="M143.283 430.391C141.204 428.304 137.833 428.304 135.754 430.391C133.675 432.478 133.675 435.861 135.754 437.948C137.833 440.035 141.204 440.035 143.283 437.948C145.363 435.861 145.363 432.478 143.283 430.391Z" fill="#ED9DA0"/>
<path d="M144.527 429.899L144.785 429.378L143.486 428.73C143.486 428.73 142.053 426.391 139.461 427.048C136.868 427.706 135.702 428.099 135.702 428.099L134.406 428.754L135.057 429.403L133.89 429.797L134.669 430.186L133.763 430.709L134.251 433.39C134.251 433.39 135.061 431.356 136.62 432.134C138.178 432.913 141.029 431.733 141.029 431.733L143.506 436.543C143.506 436.543 144.017 434.857 144.928 435.307C144.928 435.305 147.255 431.584 144.527 429.899Z" fill="#090814"/>
<path d="M122.416 441.043H84.8748C84.0961 441.043 83.4648 441.677 83.4648 442.458V454.841C83.4648 455.623 84.0961 456.256 84.8748 456.256H122.416C123.195 456.256 123.826 455.623 123.826 454.841V442.458C123.826 441.677 123.195 441.043 122.416 441.043Z" fill="#F2F2F2"/>
<path d="M84.4544 441.301C84.2541 441.302 84.062 441.382 83.9204 441.524C83.7788 441.666 83.6991 441.859 83.699 442.06V455.199C83.6992 455.4 83.7788 455.593 83.9204 455.735C84.062 455.877 84.254 455.957 84.4542 455.957H122.721C122.921 455.957 123.113 455.877 123.255 455.735C123.397 455.593 123.476 455.4 123.476 455.199V442.06C123.476 441.859 123.397 441.666 123.255 441.524C123.113 441.382 122.921 441.302 122.721 441.302H84.4544M84.4544 441.049H122.721C122.988 441.049 123.244 441.155 123.433 441.345C123.622 441.534 123.728 441.792 123.728 442.06V455.199C123.728 455.467 123.622 455.724 123.433 455.914C123.244 456.103 122.988 456.21 122.721 456.21H84.4544C84.1873 456.21 83.9311 456.103 83.7422 455.914C83.5534 455.724 83.4473 455.467 83.4473 455.199V442.06C83.4473 441.792 83.5534 441.534 83.7422 441.345C83.9311 441.155 84.1873 441.049 84.4544 441.049Z" fill="#090814"/>
<path d="M88.4828 443.324C88.8811 443.324 89.2705 443.443 89.6017 443.665C89.9329 443.887 90.191 444.203 90.3435 444.572C90.4959 444.941 90.5358 445.348 90.4581 445.74C90.3804 446.132 90.1885 446.492 89.9069 446.775C89.6252 447.058 89.2663 447.25 88.8757 447.328C88.485 447.406 88.08 447.366 87.712 447.213C87.344 447.06 87.0295 446.801 86.8082 446.469C86.5869 446.136 86.4688 445.745 86.4688 445.346C86.4688 444.81 86.6809 444.295 87.0586 443.916C87.4363 443.537 87.9486 443.324 88.4828 443.324Z" fill="#6C63FF"/>
<path d="M87.4752 448.883H115.672C115.805 448.881 115.938 448.906 116.061 448.956C116.185 449.006 116.298 449.08 116.393 449.174C116.487 449.268 116.563 449.38 116.614 449.504C116.666 449.627 116.692 449.76 116.692 449.894C116.692 450.027 116.666 450.16 116.614 450.284C116.563 450.407 116.487 450.519 116.393 450.613C116.298 450.707 116.185 450.781 116.061 450.831C115.938 450.881 115.805 450.906 115.672 450.904H87.4752C87.2104 450.901 86.9577 450.793 86.7717 450.604C86.5857 450.414 86.4814 450.159 86.4814 449.894C86.4814 449.628 86.5857 449.373 86.7717 449.184C86.9577 448.994 87.2104 448.886 87.4752 448.883Z" fill="#6C63FF"/>
<path d="M87.4752 451.914H100.567C100.7 451.912 100.832 451.937 100.956 451.987C101.08 452.037 101.192 452.111 101.287 452.205C101.382 452.299 101.458 452.411 101.509 452.535C101.56 452.658 101.587 452.791 101.587 452.925C101.587 453.059 101.56 453.191 101.509 453.315C101.458 453.438 101.382 453.55 101.287 453.644C101.192 453.738 101.08 453.812 100.956 453.862C100.832 453.912 100.7 453.937 100.567 453.936H87.4752C87.2104 453.932 86.9577 453.824 86.7717 453.635C86.5857 453.446 86.4814 453.191 86.4814 452.925C86.4814 452.659 86.5857 452.404 86.7717 452.215C86.9577 452.026 87.2104 451.918 87.4752 451.914Z" fill="#6C63FF"/>
<path d="M108.845 460.148H71.4803C70.7016 460.148 70.0703 460.782 70.0703 461.564V473.946C70.0703 474.728 70.7016 475.362 71.4803 475.362H108.845C109.624 475.362 110.255 474.728 110.255 473.946V461.564C110.255 460.782 109.624 460.148 108.845 460.148Z" fill="white"/>
<path d="M71.0266 460.339C70.8263 460.339 70.6343 460.419 70.4927 460.561C70.351 460.703 70.2714 460.896 70.2712 461.097V474.236C70.2714 474.437 70.3511 474.63 70.4927 474.772C70.6343 474.914 70.8262 474.994 71.0264 474.994H109.293C109.494 474.994 109.686 474.914 109.827 474.772C109.969 474.63 110.048 474.437 110.049 474.236V461.097C110.048 460.896 109.969 460.703 109.827 460.561C109.686 460.419 109.494 460.339 109.293 460.339H71.0266M71.0266 460.086H109.293C109.561 460.086 109.817 460.192 110.006 460.382C110.194 460.572 110.301 460.829 110.301 461.097V474.236C110.301 474.504 110.194 474.761 110.006 474.951C109.817 475.14 109.561 475.247 109.293 475.247H71.0266C70.7595 475.247 70.5034 475.14 70.3145 474.951C70.1256 474.761 70.0195 474.504 70.0195 474.236V461.097C70.0195 460.829 70.1256 460.572 70.3145 460.382C70.5034 460.192 70.7595 460.086 71.0266 460.086Z" fill="#E6E6E6"/>
<path d="M75.055 462.359C75.4534 462.359 75.8427 462.478 76.1739 462.7C76.5051 462.922 76.7633 463.238 76.9157 463.607C77.0682 463.977 77.108 464.383 77.0303 464.775C76.9526 465.167 76.7608 465.527 76.4791 465.81C76.1975 466.093 75.8386 466.285 75.4479 466.363C75.0573 466.441 74.6523 466.401 74.2843 466.248C73.9163 466.095 73.6017 465.836 73.3804 465.504C73.1591 465.171 73.041 464.781 73.041 464.381C73.041 463.845 73.2532 463.331 73.6309 462.951C74.0086 462.572 74.5209 462.359 75.055 462.359Z" fill="#E6E6E6"/>
<path d="M74.0475 467.92H102.244C102.377 467.918 102.51 467.943 102.634 467.993C102.757 468.043 102.87 468.117 102.965 468.211C103.06 468.305 103.135 468.417 103.187 468.541C103.238 468.664 103.265 468.797 103.265 468.931C103.265 469.065 103.238 469.197 103.187 469.321C103.135 469.444 103.06 469.556 102.965 469.65C102.87 469.744 102.757 469.818 102.634 469.868C102.51 469.918 102.377 469.943 102.244 469.941H74.0475C73.7827 469.938 73.53 469.83 73.344 469.641C73.158 469.452 73.0537 469.196 73.0537 468.931C73.0537 468.665 73.158 468.41 73.344 468.221C73.53 468.032 73.7827 467.924 74.0475 467.92Z" fill="#E6E6E6"/>
<path d="M74.0475 470.951H87.1388C87.2722 470.949 87.4045 470.974 87.5283 471.024C87.652 471.074 87.7646 471.148 87.8595 471.243C87.9544 471.337 88.0298 471.449 88.0813 471.572C88.1327 471.696 88.1592 471.828 88.1592 471.962C88.1592 472.096 88.1327 472.228 88.0813 472.352C88.0298 472.475 87.9544 472.587 87.8595 472.681C87.7646 472.775 87.652 472.85 87.5283 472.9C87.4045 472.95 87.2722 472.974 87.1388 472.973H74.0475C73.7827 472.969 73.53 472.861 73.344 472.672C73.158 472.483 73.0537 472.228 73.0537 471.962C73.0537 471.696 73.158 471.441 73.344 471.252C73.53 471.063 73.7827 470.955 74.0475 470.951Z" fill="#E6E6E6"/>
<path d="M108.845 478.014H71.4803C70.7016 478.014 70.0703 478.647 70.0703 479.429V491.635C70.0703 492.416 70.7016 493.05 71.4803 493.05H108.845C109.624 493.05 110.255 492.416 110.255 491.635V479.429C110.255 478.647 109.624 478.014 108.845 478.014Z" fill="white"/>
<path d="M71.0266 478.196C70.8263 478.196 70.6343 478.276 70.4927 478.418C70.351 478.56 70.2714 478.753 70.2712 478.954V492.094C70.2714 492.294 70.3511 492.487 70.4927 492.629C70.6343 492.771 70.8262 492.851 71.0264 492.852H109.293C109.494 492.851 109.686 492.771 109.827 492.629C109.969 492.487 110.048 492.294 110.049 492.094V478.954C110.048 478.753 109.969 478.561 109.827 478.418C109.686 478.276 109.494 478.196 109.293 478.196H71.0266M71.0266 477.943H109.293C109.561 477.943 109.817 478.05 110.006 478.239C110.194 478.429 110.301 478.686 110.301 478.954V492.094C110.301 492.362 110.194 492.619 110.006 492.808C109.817 492.998 109.561 493.104 109.293 493.104H71.0266C70.7595 493.104 70.5034 492.998 70.3145 492.808C70.1256 492.619 70.0195 492.362 70.0195 492.094V478.954C70.0195 478.686 70.1256 478.429 70.3145 478.239C70.5034 478.05 70.7595 477.943 71.0266 477.943Z" fill="#E6E6E6"/>
<path d="M75.055 480.217C75.4534 480.217 75.8427 480.335 76.1739 480.557C76.5051 480.78 76.7633 481.095 76.9157 481.465C77.0682 481.834 77.108 482.24 77.0303 482.633C76.9526 483.025 76.7608 483.385 76.4791 483.668C76.1975 483.95 75.8386 484.143 75.4479 484.221C75.0573 484.299 74.6523 484.259 74.2843 484.106C73.9163 483.953 73.6017 483.694 73.3804 483.361C73.1591 483.029 73.041 482.638 73.041 482.238C73.041 481.702 73.2532 481.188 73.6309 480.809C74.0086 480.43 74.5209 480.217 75.055 480.217Z" fill="#E6E6E6"/>
<path d="M74.0475 485.775H102.244C102.377 485.774 102.51 485.799 102.634 485.849C102.757 485.899 102.87 485.973 102.965 486.067C103.06 486.161 103.135 486.273 103.187 486.396C103.238 486.52 103.265 486.652 103.265 486.786C103.265 486.92 103.238 487.053 103.187 487.176C103.135 487.3 103.06 487.412 102.965 487.506C102.87 487.6 102.757 487.674 102.634 487.724C102.51 487.774 102.377 487.799 102.244 487.797H74.0475C73.7827 487.793 73.53 487.685 73.344 487.496C73.158 487.307 73.0537 487.052 73.0537 486.786C73.0537 486.52 73.158 486.265 73.344 486.076C73.53 485.887 73.7827 485.779 74.0475 485.775Z" fill="#E6E6E6"/>
<path d="M74.0475 488.807H87.1388C87.2722 488.805 87.4045 488.83 87.5283 488.88C87.652 488.93 87.7646 489.004 87.8595 489.098C87.9544 489.192 88.0298 489.304 88.0813 489.428C88.1327 489.551 88.1592 489.684 88.1592 489.817C88.1592 489.951 88.1327 490.084 88.0813 490.207C88.0298 490.331 87.9544 490.443 87.8595 490.537C87.7646 490.631 87.652 490.705 87.5283 490.755C87.4045 490.805 87.2722 490.83 87.1388 490.828H74.0475C73.7827 490.825 73.53 490.717 73.344 490.527C73.158 490.338 73.0537 490.083 73.0537 489.817C73.0537 489.552 73.158 489.297 73.344 489.107C73.53 488.918 73.7827 488.81 74.0475 488.807Z" fill="#E6E6E6"/>
<path d="M305.344 406.999L301.427 409.145L253.171 435.584L249.254 437.73C247.354 438.774 245.943 440.533 245.332 442.62C244.721 444.707 244.959 446.952 245.995 448.863L281.93 514.998C282.97 516.907 284.721 518.323 286.8 518.937C288.878 519.55 291.114 519.311 293.017 518.271L293.027 518.266L349.097 487.545L349.107 487.54C351.008 486.496 352.418 484.737 353.029 482.65C353.64 480.563 353.402 478.318 352.366 476.407L316.431 410.272C315.391 408.363 313.64 406.947 311.562 406.334C309.483 405.72 307.247 405.959 305.344 406.999Z" fill="#F2F2F2"/>
<path d="M306.471 409.073L301.832 411.615L255.02 437.262L250.381 439.804C249.028 440.548 248.023 441.8 247.588 443.286C247.153 444.772 247.323 446.371 248.06 447.732L283.995 513.867C284.736 515.226 285.983 516.235 287.463 516.672C288.943 517.109 290.535 516.938 291.891 516.198L291.901 516.192L347.97 485.472L347.981 485.467C349.334 484.723 350.338 483.471 350.774 481.984C351.209 480.498 351.039 478.899 350.302 477.539L314.366 411.403C313.626 410.044 312.379 409.036 310.899 408.599C309.419 408.162 307.826 408.332 306.471 409.073Z" fill="white"/>
<path d="M307.245 429.601L286.333 441.058C286.016 441.232 285.644 441.272 285.297 441.17C284.951 441.068 284.659 440.832 284.487 440.513C284.314 440.195 284.274 439.821 284.376 439.474C284.477 439.126 284.713 438.833 285.029 438.659L305.941 427.202C306.258 427.029 306.63 426.988 306.977 427.091C307.323 427.193 307.615 427.429 307.787 427.747C307.96 428.065 308 428.439 307.898 428.787C307.797 429.135 307.561 429.427 307.245 429.601Z" fill="#F2F2F2"/>
<path d="M314.371 430.949L288.532 445.106C288.215 445.279 287.843 445.319 287.496 445.217C287.15 445.115 286.859 444.879 286.686 444.561C286.513 444.243 286.473 443.869 286.575 443.521C286.677 443.173 286.912 442.88 287.229 442.707L313.068 428.55C313.225 428.464 313.397 428.41 313.574 428.391C313.752 428.371 313.932 428.388 314.103 428.438C314.275 428.489 314.434 428.573 314.574 428.686C314.713 428.798 314.828 428.937 314.914 429.095C315 429.252 315.053 429.425 315.072 429.604C315.091 429.782 315.075 429.962 315.025 430.135C314.975 430.307 314.891 430.467 314.779 430.607C314.666 430.747 314.528 430.863 314.371 430.949Z" fill="#F2F2F2"/>
<path d="M277.735 436.289L258.456 446.852C258.304 446.935 258.191 447.075 258.143 447.242C258.094 447.409 258.113 447.588 258.196 447.74L266.406 462.849C266.488 463.002 266.628 463.115 266.794 463.164C266.96 463.213 267.138 463.194 267.29 463.111L286.57 452.547C286.721 452.464 286.834 452.324 286.883 452.157C286.932 451.991 286.912 451.812 286.83 451.659L278.62 436.55C278.537 436.398 278.397 436.285 278.232 436.236C278.066 436.187 277.887 436.206 277.735 436.289Z" fill="#F2F2F2"/>
<path d="M317.62 448.773L289.256 464.313C289.099 464.399 288.927 464.453 288.749 464.473C288.571 464.492 288.392 464.475 288.22 464.425C288.049 464.374 287.889 464.29 287.75 464.178C287.611 464.065 287.495 463.926 287.409 463.768C287.324 463.611 287.27 463.438 287.251 463.26C287.232 463.081 287.248 462.901 287.298 462.729C287.349 462.556 287.432 462.396 287.545 462.256C287.657 462.117 287.795 462 287.952 461.915L316.316 446.374C316.633 446.2 317.006 446.16 317.352 446.263C317.698 446.365 317.99 446.601 318.163 446.919C318.336 447.237 318.375 447.611 318.274 447.959C318.172 448.306 317.937 448.599 317.62 448.773Z" fill="#F2F2F2"/>
<path d="M324.747 450.121L291.456 468.361C291.139 468.534 290.767 468.574 290.42 468.472C290.074 468.37 289.782 468.134 289.61 467.816C289.437 467.498 289.397 467.124 289.499 466.776C289.6 466.428 289.836 466.135 290.152 465.962L323.444 447.722C323.761 447.548 324.133 447.508 324.48 447.61C324.826 447.712 325.117 447.949 325.29 448.267C325.463 448.585 325.503 448.959 325.401 449.306C325.299 449.654 325.064 449.947 324.747 450.121Z" fill="#F2F2F2"/>
<path d="M278.454 477.039C281.642 477.039 284.227 474.444 284.227 471.242C284.227 468.041 281.642 465.445 278.454 465.445C275.265 465.445 272.681 468.041 272.681 471.242C272.681 474.444 275.265 477.039 278.454 477.039Z" fill="#F2F2F2"/>
<path d="M364.829 434.25H300.933C298.767 434.252 296.69 435.118 295.158 436.656C293.626 438.194 292.764 440.28 292.762 442.455V517.794C292.764 519.97 293.626 522.055 295.158 523.594C296.69 525.132 298.767 525.997 300.933 525.999H364.829C366.995 525.997 369.072 525.132 370.604 523.594C372.136 522.055 372.998 519.97 373 517.794V442.455C372.998 440.28 372.136 438.194 370.604 436.656C369.072 435.118 366.995 434.252 364.829 434.25Z" fill="#E6E6E6"/>
<path d="M364.829 436.611H300.933C299.39 436.613 297.911 437.229 296.82 438.325C295.73 439.42 295.116 440.905 295.114 442.454V517.793C295.116 519.343 295.73 520.828 296.82 521.923C297.911 523.019 299.39 523.635 300.933 523.637H364.829C366.372 523.635 367.851 523.019 368.942 521.923C370.033 520.828 370.646 519.343 370.648 517.793V442.454C370.646 440.905 370.033 439.42 368.942 438.325C367.851 437.229 366.372 436.613 364.829 436.611Z" fill="white"/>
<path d="M355.716 455.004H331.894C331.533 455.004 331.187 454.86 330.932 454.604C330.677 454.348 330.533 454 330.533 453.638C330.533 453.275 330.677 452.928 330.932 452.672C331.187 452.415 331.533 452.271 331.894 452.271H355.716C355.895 452.271 356.072 452.306 356.237 452.375C356.403 452.444 356.553 452.544 356.679 452.671C356.806 452.798 356.906 452.949 356.975 453.115C357.043 453.281 357.078 453.458 357.078 453.638C357.078 453.817 357.043 453.995 356.975 454.161C356.906 454.327 356.806 454.478 356.679 454.605C356.553 454.732 356.403 454.832 356.237 454.901C356.072 454.969 355.895 455.004 355.716 455.004Z" fill="#37338A"/>
<path d="M361.329 459.616H331.894C331.533 459.616 331.187 459.472 330.932 459.215C330.677 458.959 330.533 458.612 330.533 458.249C330.533 457.887 330.677 457.539 330.932 457.283C331.187 457.027 331.533 456.883 331.894 456.883H361.329C361.69 456.883 362.036 457.027 362.291 457.283C362.546 457.539 362.69 457.887 362.69 458.249C362.69 458.612 362.546 458.959 362.291 459.215C362.036 459.472 361.69 459.616 361.329 459.616Z" fill="#37338A"/>
<path d="M326.622 446.684H304.66C304.487 446.684 304.321 446.753 304.199 446.875C304.077 446.998 304.008 447.165 304.008 447.338V464.55C304.008 464.724 304.077 464.89 304.199 465.013C304.321 465.136 304.487 465.205 304.66 465.205H326.622C326.795 465.205 326.961 465.136 327.083 465.013C327.206 464.89 327.274 464.724 327.274 464.55V447.338C327.274 447.165 327.206 446.998 327.083 446.875C326.961 446.753 326.795 446.684 326.622 446.684Z" fill="#E6E6E6"/>
<path d="M355.68 476.825H323.369C323.19 476.825 323.013 476.789 322.848 476.721C322.683 476.652 322.533 476.551 322.406 476.424C322.28 476.297 322.18 476.147 322.111 475.981C322.043 475.815 322.008 475.638 322.008 475.458C322.008 475.279 322.043 475.101 322.111 474.935C322.18 474.77 322.28 474.619 322.406 474.492C322.533 474.365 322.683 474.264 322.848 474.196C323.013 474.127 323.19 474.092 323.369 474.092H355.68C356.041 474.092 356.387 474.236 356.641 474.493C356.896 474.749 357.039 475.096 357.039 475.458C357.039 475.82 356.896 476.168 356.641 476.424C356.387 476.68 356.041 476.824 355.68 476.825Z" fill="#E6E6E6"/>
<path d="M361.293 481.436H323.368C323.189 481.436 323.012 481.401 322.847 481.332C322.682 481.264 322.531 481.163 322.405 481.036C322.278 480.909 322.178 480.759 322.11 480.593C322.041 480.427 322.006 480.249 322.006 480.07C322.006 479.89 322.041 479.712 322.11 479.546C322.178 479.38 322.278 479.23 322.405 479.103C322.531 478.976 322.682 478.875 322.847 478.807C323.012 478.738 323.189 478.703 323.368 478.703H361.293C361.472 478.703 361.649 478.738 361.814 478.807C361.979 478.875 362.129 478.976 362.256 479.103C362.383 479.23 362.483 479.38 362.551 479.546C362.62 479.712 362.655 479.89 362.655 480.07C362.655 480.249 362.62 480.427 362.551 480.593C362.483 480.759 362.383 480.909 362.256 481.036C362.129 481.163 361.979 481.264 361.814 481.332C361.649 481.401 361.472 481.436 361.293 481.436Z" fill="#E6E6E6"/>
<path d="M355.68 493.399H323.369C323.008 493.399 322.662 493.255 322.406 492.999C322.151 492.742 322.008 492.395 322.008 492.032C322.008 491.67 322.151 491.322 322.406 491.066C322.662 490.81 323.008 490.666 323.369 490.666H355.68C356.041 490.666 356.387 490.81 356.642 491.066C356.898 491.322 357.041 491.67 357.041 492.032C357.041 492.395 356.898 492.742 356.642 492.999C356.387 493.255 356.041 493.399 355.68 493.399Z" fill="#E6E6E6"/>
<path d="M361.293 498.01H323.369C323.008 498.01 322.662 497.866 322.406 497.61C322.151 497.354 322.008 497.006 322.008 496.644C322.008 496.281 322.151 495.934 322.406 495.678C322.662 495.421 323.008 495.277 323.369 495.277H361.293C361.654 495.277 362 495.421 362.255 495.678C362.511 495.934 362.654 496.281 362.654 496.644C362.654 497.006 362.511 497.354 362.255 497.61C362 497.866 361.654 498.01 361.293 498.01Z" fill="#E6E6E6"/>
<path d="M310.581 483.51C313.769 483.51 316.353 480.915 316.353 477.713C316.353 474.511 313.769 471.916 310.581 471.916C307.392 471.916 304.808 474.511 304.808 477.713C304.808 480.915 307.392 483.51 310.581 483.51Z" fill="#E6E6E6"/>
<path d="M310.581 500.219C313.769 500.219 316.353 497.624 316.353 494.422C316.353 491.22 313.769 488.625 310.581 488.625C307.392 488.625 304.808 491.22 304.808 494.422C304.808 497.624 307.392 500.219 310.581 500.219Z" fill="#E6E6E6"/>
<path d="M355.68 510.108H323.369C323.008 510.108 322.662 509.964 322.406 509.708C322.151 509.451 322.008 509.104 322.008 508.741C322.008 508.379 322.151 508.031 322.406 507.775C322.662 507.519 323.008 507.375 323.369 507.375H355.68C356.041 507.375 356.387 507.519 356.642 507.775C356.898 508.031 357.041 508.379 357.041 508.741C357.041 509.104 356.898 509.451 356.642 509.708C356.387 509.964 356.041 510.108 355.68 510.108Z" fill="#E6E6E6"/>
<path d="M361.293 514.719H323.369C323.008 514.719 322.662 514.575 322.406 514.319C322.151 514.063 322.008 513.715 322.008 513.353C322.008 512.99 322.151 512.643 322.406 512.387C322.662 512.13 323.008 511.986 323.369 511.986H361.293C361.654 511.986 362 512.13 362.255 512.387C362.511 512.643 362.654 512.99 362.654 513.353C362.654 513.715 362.511 514.063 362.255 514.319C362 514.575 361.654 514.719 361.293 514.719Z" fill="#E6E6E6"/>
<path d="M310.581 516.926C313.769 516.926 316.353 514.331 316.353 511.129C316.353 507.927 313.769 505.332 310.581 505.332C307.392 505.332 304.808 507.927 304.808 511.129C304.808 514.331 307.392 516.926 310.581 516.926Z" fill="#E6E6E6"/>
</g>
<defs>
<linearGradient id="paint0_linear_5123_10383" x1="15" y1="286.5" x2="397" y2="286.5" gradientUnits="userSpaceOnUse">
<stop stop-color="#143A62" stop-opacity="0"/>
<stop offset="0.533654" stop-color="#143A62"/>
<stop offset="1" stop-color="#143A62" stop-opacity="0"/>
</linearGradient>
<linearGradient id="paint1_linear_5123_10383" x1="206.5" y1="474" x2="206.5" y2="92" gradientUnits="userSpaceOnUse">
<stop stop-color="#143A62" stop-opacity="0"/>
<stop offset="0.533654" stop-color="#143A62"/>
<stop offset="1" stop-color="#143A62" stop-opacity="0"/>
</linearGradient>
<clipPath id="clip0_5123_10383">
<rect width="412" height="566" fill="white"/>
</clipPath>
<clipPath id="clip1_5123_10383">
<rect width="79.6055" height="115" fill="white" transform="translate(275.395 141)"/>
</clipPath>
</defs>
</svg>
