<svg width="1063" height="640" viewBox="0 0 1063 640" fill="none" xmlns="http://www.w3.org/2000/svg">
<g clip-path="url(#clip0_5014_4641)">
<path d="M-257.475 40.4241C-257.475 40.4241 -187.982 130.078 -22.1328 41.6977C125.156 -36.7898 174.816 162.621 153.209 245.953C125.219 353.901 -16.548 408.29 22.0869 494.471C60.7217 580.651 -142.387 651.445 -207.889 525.527C-289.372 368.889 -347.958 462.719 -413.612 445.127C-460.733 432.501 -526.074 289.385 -437.382 219.701C-362.749 161.062 -386.207 128.679 -393.91 99.353C-405.025 57.0568 -328.606 -29.1872 -257.475 40.4241Z" fill="#DEE9FF"/>
<path d="M1035.27 92.9603C1035.27 92.9603 1142.64 144.686 1237.66 -31.2874C1322.04 -187.565 1470.95 -16.5686 1496.88 77.4806C1530.46 199.311 1437.95 328.779 1517.03 393.521C1596.1 458.263 1459.77 636.691 1336.48 546.924C1183.1 435.257 1182.93 559.424 1117.27 577.016C1070.15 589.642 937.824 482.758 976.679 366.448C1009.38 268.575 972 249.015 949.757 224.081C917.674 188.121 937.178 61.9576 1035.27 92.9603Z" fill="#DEE9FF"/>
</g>
<defs>
<clipPath id="clip0_5014_4641">
<rect width="1063" height="640" rx="20" fill="white"/>
</clipPath>
</defs>
</svg>
