<svg width="1063" height="640" viewBox="0 0 1063 640" fill="none" xmlns="http://www.w3.org/2000/svg">
<g clip-path="url(#clip0_3055_2275)">
<rect opacity="0.05" width="1063" height="640" rx="20" fill="#143A62"/>
<path d="M102.11 -357.6C102.11 -357.6 192.439 -288.987 329.762 -417.28C451.718 -531.214 551.298 -351.452 551.995 -265.366C552.898 -153.853 430.038 -64.6243 489.662 8.61984C549.285 81.864 371.42 202.814 275.56 98.1399C156.313 -32.0715 124.008 73.7253 56.0375 73.7253C7.2545 73.7253 -92.9016 -47.603 -25.2672 -137.868C31.6462 -213.825 0.606686 -239.033 -14.4247 -265.366C-36.1077 -303.345 15.3854 -406.429 102.11 -357.6Z" fill="#DEE9FF"/>
<path d="M761.11 512.4C761.11 512.4 851.439 581.013 988.762 452.72C1110.72 338.786 1210.3 518.548 1211 604.634C1211.9 716.147 1089.04 805.376 1148.66 878.62C1208.29 951.864 1030.42 1072.81 934.56 968.14C815.313 837.928 783.008 943.725 715.038 943.725C666.254 943.725 566.098 822.397 633.733 732.132C690.646 656.175 659.607 630.967 644.575 604.634C622.892 566.655 674.385 463.571 761.11 512.4Z" fill="#DEE9FF"/>
</g>
<defs>
<clipPath id="clip0_3055_2275">
<rect width="1063" height="640" rx="20" fill="white"/>
</clipPath>
</defs>
</svg>
