<svg width="1063" height="640" viewBox="0 0 1063 640" fill="none" xmlns="http://www.w3.org/2000/svg">
<g clip-path="url(#clip0_5012_2825)">
<rect opacity="0.05" width="1063" height="640" rx="20" fill="#143A62"/>
<path opacity="0.5" d="M102.11 -357.6C102.11 -357.6 192.439 -288.987 329.762 -417.28C451.718 -531.214 551.298 -351.452 551.995 -265.366C552.898 -153.853 430.038 -64.6243 489.662 8.61985C549.285 81.864 371.42 202.814 275.56 98.1399C156.313 -32.0715 124.008 73.7253 56.0375 73.7253C7.2545 73.7253 -92.9015 -47.603 -25.2672 -137.868C31.6462 -213.825 0.606685 -239.033 -14.4247 -265.366C-36.1077 -303.345 15.3854 -406.429 102.11 -357.6Z" fill="#DEE9FF"/>
<path opacity="0.5" d="M761.11 512.4C761.11 512.4 851.439 581.013 988.762 452.72C1110.72 338.786 1210.3 518.548 1211 604.634C1211.9 716.147 1089.04 805.376 1148.66 878.62C1208.29 951.864 1030.42 1072.81 934.56 968.14C815.313 837.928 783.008 943.725 715.038 943.725C666.254 943.725 566.098 822.397 633.733 732.132C690.646 656.175 659.607 630.967 644.575 604.634C622.892 566.655 674.385 463.571 761.11 512.4Z" fill="#DEE9FF"/>
<path opacity="0.5" d="M393.242 188.649C393.242 188.649 445.902 258.913 575.377 192.591C690.362 133.693 726.293 288.658 708.523 352.885C685.503 436.083 575.094 476.399 603.914 543.587C632.734 610.774 474.641 663.016 425.525 564.734C364.427 442.475 317.903 514.363 267.309 499.922C230.996 489.558 182.221 377.967 251.743 325.146C310.245 280.699 292.496 255.34 286.902 232.545C278.831 199.669 339.061 133.877 393.242 188.649Z" fill="#DEE9FF"/>
</g>
<defs>
<clipPath id="clip0_5012_2825">
<rect width="1063" height="640" rx="20" fill="white"/>
</clipPath>
</defs>
</svg>
