<svg width="547" height="471" viewBox="0 0 547 471" fill="none" xmlns="http://www.w3.org/2000/svg">
<g opacity="0.22">
<path fill-rule="evenodd" clip-rule="evenodd" d="M318.053 234.369H217.873C200.662 234.369 198.073 255.27 216.52 255.524C234.966 255.778 315.19 256.415 318.053 256.415C319.837 256.415 319.171 234.369 318.053 234.369Z" fill="#38A1FF"/>
<path fill-rule="evenodd" clip-rule="evenodd" d="M442.615 182.283C442.596 177.682 440.834 173.256 437.677 169.878C434.52 166.499 430.196 164.415 425.561 164.035C415.063 163.065 185.954 163.609 173.837 164.035C161.72 164.462 156.031 172.588 155.526 179.84C155.169 184.939 154.76 199.055 156.995 199.055C163.681 199.055 438.695 199.743 441.949 199.792C443.866 199.82 442.615 184.206 442.615 182.283ZM387.959 190.046C377.018 190.046 376.018 173.159 387.351 173.159C388.521 173.034 389.704 173.149 390.827 173.496C391.95 173.843 392.988 174.416 393.878 175.178C394.767 175.94 395.488 176.875 395.996 177.925C396.504 178.974 396.788 180.116 396.83 181.279C396.871 182.442 396.671 183.601 396.239 184.684C395.808 185.767 395.156 186.75 394.324 187.573C393.492 188.395 392.497 189.04 391.402 189.465C390.306 189.89 389.134 190.088 387.959 190.046V190.046ZM417.013 190.046C415.844 190.171 414.661 190.057 413.538 189.711C412.415 189.364 411.377 188.793 410.487 188.032C409.597 187.271 408.876 186.337 408.367 185.288C407.858 184.239 407.573 183.098 407.53 181.935C407.487 180.773 407.686 179.614 408.116 178.531C408.545 177.448 409.196 176.464 410.027 175.641C410.858 174.817 411.851 174.172 412.945 173.745C414.039 173.318 415.211 173.119 416.386 173.159C427.655 173.151 428.639 190.046 417.013 190.046Z" fill="#38A1FF"/>
<path fill-rule="evenodd" clip-rule="evenodd" d="M441.716 261.954C443.532 243.258 443.689 224.442 442.185 205.719C441.995 203.334 438.268 203.782 438.461 206.168C439.727 221.677 440.119 253.751 436.991 269.561C433.864 285.371 422.405 283.349 409.76 283.496L192.699 286.016C153.908 286.464 158.831 284.103 158.37 206.4C158.37 204.692 155.433 204.654 155.331 206.4C154.72 217.007 154.256 260.402 156.016 271.241C159.569 293.101 181.709 289.74 199.716 289.549L403.232 287.24C426.582 286.986 438.939 290.538 441.716 261.954Z" fill="#191919"/>
<path fill-rule="evenodd" clip-rule="evenodd" d="M324.734 234.636C324.546 234.643 324.362 234.688 324.191 234.766C324.02 234.844 323.867 234.955 323.74 235.092C323.482 235.368 323.347 235.734 323.363 236.11C323.378 236.485 323.544 236.839 323.824 237.093C324.103 237.348 324.473 237.482 324.853 237.466C343.888 238.475 363.16 237.261 382.059 238.338C388.784 238.723 391.969 241.579 392.281 244.601C393.176 253.563 377.714 252.541 372.39 252.678H325.535C323.162 252.678 323.325 256.528 325.693 256.504C341.923 256.372 358.143 256.167 374.351 256.096C382.087 256.061 396.397 255.823 395.64 244.62C395.027 235.507 384.134 234.985 377.291 234.925C360.687 234.78 340.537 234.004 324.734 234.636Z" fill="#191919"/>
<path fill-rule="evenodd" clip-rule="evenodd" d="M271.056 112.611C270.252 111.466 263.918 103.321 262.097 103.498C257.036 103.955 233.611 111.351 236.043 114.822C239.667 129.208 246.096 155.175 247.275 158.353C247.764 159.672 249.806 158.992 249.607 157.656C248.201 148.207 241.982 125.913 238.863 114.589C246.308 111.123 254.111 108.466 262.136 106.665C264.467 109.226 266.763 111.745 269.076 114.423C272.684 117.079 339.247 96.9705 345.966 95.1862C358.674 135.46 358.878 143.365 364.119 154.251C364.782 155.617 366.589 154.56 366.412 153.3C361.608 137.05 355.024 107.187 348.024 92.9128C346.709 90.2022 271.056 112.958 271.056 112.611Z" fill="#191919"/>
<path fill-rule="evenodd" clip-rule="evenodd" d="M292.093 45.076C299.042 51.1557 322.938 80.5216 327.696 88.6479C328.436 89.9103 326.403 90.894 325.599 89.8693C315.825 77.4366 310.482 68.3074 291.408 47.5789C264.746 65.6515 240.75 88.9977 236.907 87.6396C233.064 86.2816 228.005 85.3908 224.378 84.265C218.518 89.0465 213.088 94.3207 208.148 100.029C210.794 102.761 231.18 125.908 233.122 129.291C233.918 130.671 232.033 132.367 231.006 131.094C214.789 110.972 203.689 101.515 205.263 98.9056C207.75 94.7878 218.654 84.1885 222.668 82.4234C223.237 79.8439 235.078 84.3634 236.979 85.1367C236.984 84.8634 289.441 42.7671 292.093 45.076Z" fill="#191919"/>
<path fill-rule="evenodd" clip-rule="evenodd" d="M185.033 100.221C185.386 97.2152 189.796 76.4676 191.757 75.7134L202.855 72.3962C204.813 67.1417 222.693 20.1432 224.417 20.4793C231.376 21.7936 274.974 39.3607 278.723 42.1587C279.842 42.9785 279.073 44.842 277.764 44.3693C261.047 38.3579 241.535 28.7013 225.301 23.4468C224.771 26.2202 205.54 74.0931 205.134 74.5002C203.172 76.4403 196.114 77.1972 193.116 77.9732C192.92 81.3259 188.997 94.8434 187.881 98.9913L197.291 101.377C198.722 102.016 198.526 104.44 196.763 104.246C197.904 104.246 184.82 102.033 185.033 100.221Z" fill="#191919"/>
<path fill-rule="evenodd" clip-rule="evenodd" d="M127.394 87.2728C125.433 87.9122 119.225 95.3582 119.551 97.1999C120.874 104.92 123.118 112.458 126.237 119.655C127.157 121.737 170.053 108.332 175.092 106.936C175.282 106.901 175.464 106.83 175.627 106.726C175.79 106.623 175.931 106.488 176.041 106.331C176.151 106.173 176.229 105.995 176.27 105.808C176.311 105.621 176.314 105.427 176.28 105.239C176.245 105.05 176.173 104.87 176.068 104.709C175.963 104.548 175.827 104.409 175.668 104.3C175.508 104.191 175.329 104.114 175.14 104.073C174.95 104.033 174.755 104.03 174.564 104.064C158.909 107.325 143.491 111.615 128.414 116.906C125.994 110.526 123.97 104.005 122.355 97.3802C123.629 95.7708 130.395 88.6363 130.199 87.3357C126.276 69.244 122.14 50.4938 118.12 32.4814C135.765 29.4948 154.153 25.1037 171.937 21.6991C172.895 30.4648 179.443 56.0981 183.697 73.6159C183.929 74.5668 185.648 73.9083 185.659 72.9765C185.736 67.1591 175.545 27.9455 173.464 19.7317C172.688 16.6659 120.535 28.7488 116.181 30.1424C112.556 31.3146 125.668 80.5591 127.336 87.3247L127.394 87.2728Z" fill="#191919"/>
<path fill-rule="evenodd" clip-rule="evenodd" d="M112.944 138.421C95.6553 126.073 66.3767 105.834 47.483 96.9642C43.5711 95.128 22.213 137.509 21.4478 144.821C21.4478 148.968 57.5611 167.773 65.5397 170.899C65.6778 174.973 65.7938 179.045 65.932 183.116C66.7607 185.056 74.673 188.939 76.9494 189.535C86.5109 192.038 90.1438 192.967 91.0389 190.33C100.578 161.751 113.433 138.771 112.944 138.421ZM88.6547 189.07C81.6492 187.991 74.8923 185.693 68.6974 182.283C68.9322 180.537 68.9902 169.347 66.9127 168.282C51.7789 160.521 38.858 153.488 24.075 144.646C31.6834 125.1 37.7999 117.034 47.7178 100.281C69.1477 113.157 89.2819 124.674 109.877 139.468C104.731 148.512 91.1439 179.389 88.6547 189.07Z" fill="#191919"/>
<path fill-rule="evenodd" clip-rule="evenodd" d="M84.0678 219.301C59.7786 218.539 33.5472 217.744 9.2359 218.312C4.31562 218.427 12.5842 266.434 14.2556 271.382C14.9877 273.552 53.1703 272.702 61.0908 271.519C62.1902 274.46 63.9753 277.104 66.3012 279.235C67.7129 280.304 90.5324 280.328 91.0021 277.393C85.916 243.538 87.0681 219.394 84.0678 219.301ZM68.2655 276.683C67.3068 275.402 62.8562 268.579 61.66 268.518C46.6035 268.964 31.7239 269.1 16.6868 269.352C13.3748 253.371 11.2712 237.168 10.3935 220.878L82.2224 221.971C83.6037 239.423 85.2226 258.154 87.6537 275.371L68.2655 276.683Z" fill="#191919"/>
<path fill-rule="evenodd" clip-rule="evenodd" d="M129.787 337.615C117.079 323.024 98.2101 297.921 96.6354 298.623C75.1517 307.958 54.2779 318.611 34.136 330.519C28.8869 333.686 55.041 368.323 60.5027 373.178C64.0251 376.307 94.5579 354.505 99.9672 351.209C102.922 353.717 106.375 355.586 110.103 356.696C111.816 357.185 131.749 339.869 129.787 337.615ZM110.504 353.401C104.072 351.267 100.354 347.258 98.7406 348.28C86.6153 355.966 75.352 363.541 61.2376 371.356C51.5282 359.076 43.1231 345.84 36.1555 331.858C56.2482 320.223 76.0509 311.845 96.5746 302.17C100.871 308.318 120.886 333.525 126.806 338.315C121.356 343.607 116.201 348.34 110.504 353.401Z" fill="#191919"/>
<path fill-rule="evenodd" clip-rule="evenodd" d="M214.715 389.544C209.845 385.891 172.723 371.373 163.175 369.398C160.39 368.821 125.576 428.512 127.631 430.13C142.082 440.691 158.418 448.46 175.781 453.03C179.704 454.022 197.606 414.344 199.971 409.284C202.444 409.284 205.496 408.682 207.983 408.663C210.58 408.081 216.79 391.102 214.715 389.544ZM207.256 406.212C205.101 406.349 198.007 405.884 197.357 407.259C190.622 421.484 183.439 435.54 176.408 449.628C156.793 443.811 147.784 439.272 130.435 428.9C130.435 428.9 153.959 385.29 163.764 372.28C173.916 375.712 203.598 387.793 212.538 391.184C210.754 396.195 208.972 401.179 207.264 406.201L207.256 406.212Z" fill="#191919"/>
<path fill-rule="evenodd" clip-rule="evenodd" d="M336.338 418.495C335.614 413.221 334.907 405.756 334.183 400.502C332.868 397.302 311.891 400.802 283.955 400.791C280.701 400.791 285.701 461.523 286.032 467.923C290.386 472.295 331.497 470.152 331.456 464.876L327.865 425.302C331.514 422.897 335.045 420.976 336.338 418.495ZM325.223 424.933C326.229 438.049 327.236 451.156 328.243 464.256C315.097 466.536 301.735 467.356 288.406 466.699C288.052 446.049 285.386 425.089 286.09 403.467C301.169 403.352 316.007 403.021 331.536 401.955C331.829 403.915 333.771 417.662 333.064 418.399C333.064 419.025 327.558 421.167 325.223 424.933Z" fill="#191919"/>
<path fill-rule="evenodd" clip-rule="evenodd" d="M433.09 375.582C435.049 372.074 436.04 370.502 435.933 369.087C435.803 367.382 425.501 353.108 423.915 353.982C416.857 357.859 399.977 374.09 395.736 379.867C395.579 383.512 419.81 425.067 422.672 426.015C424.053 431.098 449.094 405.481 448.983 403.97C448.829 402.087 434.794 378.555 433.09 375.582ZM424.15 423.515C414.591 409.7 406.072 395.209 398.662 380.159C407.466 371.839 414.699 365.267 423.973 357.589L432.678 369.59L430.344 375.055C429.755 376.451 444.069 398.983 446.323 403.696C439.834 411.229 432.38 417.893 424.15 423.52V423.515Z" fill="#191919"/>
<path fill-rule="evenodd" clip-rule="evenodd" d="M515.683 316.076C513.296 313.59 496.294 305.453 493.159 304.346C493.393 303.105 494.178 297.241 493.471 296.591C489.256 294.201 484.866 292.127 480.337 290.386C478.064 290.386 463.43 320.741 464.654 321.76C469.074 325.438 498.565 344.535 504.077 346.625C505.867 347.292 517.039 317.489 515.683 316.076ZM503.51 342.641C500.491 340.704 470.201 321.41 467.535 320.508C467.811 320.257 479.298 296.621 481.122 293.364C484.184 295.397 487.473 297.075 490.924 298.365C490.55 300.7 490.504 303.075 490.786 305.423C490.786 306.218 509.154 315.505 512.704 316.844C509.627 325.405 506.546 334.111 503.51 342.641Z" fill="#191919"/>
<path fill-rule="evenodd" clip-rule="evenodd" d="M529.741 236.578C529.741 234.638 515.353 230.76 513.165 229.984C513.163 228.25 512.905 226.525 512.4 224.864C511.634 223.333 499.874 219.046 498.893 219.628C496.6 220.83 491.671 245.72 493.796 246.874C497.412 248.833 522.174 259.325 525.671 258.506C527.649 258.047 530.075 237.179 529.741 236.578ZM524.332 255.21C514.784 251.953 505.294 248.172 495.827 245.01L500.12 222.557L509.922 226.279C510.098 227.5 510.391 231.689 511.51 232.096L526.782 237.624C525.876 242.98 524.332 254.221 524.332 255.21Z" fill="#191919"/>
<path fill-rule="evenodd" clip-rule="evenodd" d="M526.369 156.26C525.629 155.536 509.824 155.987 506.116 155.872L501.119 151.257C499.334 151.257 490.278 150.831 489.452 151.896C488.626 152.962 494.61 175.18 495.941 176.989C496.618 177.907 528.858 177.899 529.408 176.989C529.121 169.994 528.103 163.047 526.369 156.26V156.26ZM497.726 174.524C495.844 167.602 493.988 160.712 492.159 153.856C494.61 153.856 498.041 154.224 500.392 154.009C501.72 155.629 503.256 157.07 504.961 158.296C511.345 158.814 517.753 158.963 524.154 158.741C524.787 164.233 525.822 169.672 527.251 175.016C517.645 174.991 507.351 174.524 497.726 174.524Z" fill="#191919"/>
<path fill-rule="evenodd" clip-rule="evenodd" d="M485.689 65.9417C484.617 64.8897 468.162 71.6033 466.074 72.3411C464.485 71.0344 462.74 69.9267 460.877 69.043C459.772 69.043 447.757 73.6609 448.918 75.7731C451.957 81.2845 460.543 94.6599 465.681 98.7887C467.339 100.128 493.515 89.0911 495.363 87.4079C497.527 85.4433 487.548 67.767 485.689 65.9417ZM466.886 96.365C461.435 89.695 457.081 82.7928 451.926 75.8305L460.455 72.128C461.377 72.6909 465.043 75.3058 465.886 75.0927C472.263 73.4788 478.477 71.2919 484.451 68.5594C487.078 74.221 490.333 79.8827 492.88 85.5444C488.987 87.479 466.886 96.0917 466.886 96.365Z" fill="#191919"/>
<path fill-rule="evenodd" clip-rule="evenodd" d="M0.0813051 130.683C-0.429785 132.049 1.61181 133.164 2.2196 131.749C16.7511 97.8936 34.026 75.6022 59.9756 50.4143C60.8955 49.5208 59.5446 47.8731 58.5031 48.6874C58.5031 47.2255 18.743 80.5042 0.0813051 130.683Z" fill="#38A1FF"/>
<path fill-rule="evenodd" clip-rule="evenodd" d="M227.143 153.778C221.651 148.081 212.946 139.7 206.108 135.9C204.829 135.192 203.771 137.047 204.755 137.976C211.385 144.223 218.499 149.106 225.301 155.893C226.58 157.169 228.378 155.071 227.143 153.778Z" fill="#38A1FF"/>
<path fill-rule="evenodd" clip-rule="evenodd" d="M286.698 23.2813C275.761 11.2584 251.212 1.96802 237.689 0.0143057C237.338 -0.0371476 236.98 0.0514015 236.696 0.260476C236.411 0.46955 236.221 0.782023 236.169 1.12915C236.117 1.47628 236.207 1.82963 236.418 2.11147C236.63 2.39331 236.945 2.58055 237.296 2.63201C261.801 6.56403 271.241 15.1167 285.151 25.1229C286.256 25.9154 287.386 24.0573 286.621 23.1856L286.698 23.2813Z" fill="#38A1FF"/>
<path fill-rule="evenodd" clip-rule="evenodd" d="M112.729 110.867C109.297 110.752 104.391 118.105 103.239 120.561C102.62 121.884 104.866 122.928 105.593 121.668C108.411 116.78 113.433 113.564 113.864 112.533C113.927 112.351 113.946 112.156 113.919 111.965C113.893 111.774 113.822 111.591 113.712 111.432C113.601 111.273 113.455 111.142 113.284 111.048C113.114 110.955 112.924 110.902 112.729 110.894V110.867Z" fill="#38A1FF"/>
<path fill-rule="evenodd" clip-rule="evenodd" d="M100.81 54.032C86.331 57.5978 70.9983 73.1729 63.7905 85.8133C62.9285 87.3243 65.4011 88.3545 66.2769 86.8789C74.4455 73.1591 86.874 62.4142 101.713 56.2425C102.83 55.778 102.006 53.7369 100.81 54.032Z" fill="#38A1FF"/>
<path fill-rule="evenodd" clip-rule="evenodd" d="M91.5736 83.8001C92.7312 83.4695 93.5351 85.1664 92.6787 85.7375C86.354 89.5458 81.3088 95.1186 78.1775 101.755C77.4261 103.302 75.1386 101.927 75.8459 100.389C78.3323 94.8748 85.1974 85.6145 91.5294 83.7728L91.5736 83.8001Z" fill="#38A1FF"/>
<path fill-rule="evenodd" clip-rule="evenodd" d="M49.7244 172.719C43.8621 179.386 40.7182 193.234 40.6685 201.825C40.6685 203.298 43.1797 203.464 43.2957 201.981C44.3262 188.911 47.6607 180.919 52.1942 174.369C53.1308 173.011 50.8599 171.423 49.7244 172.719Z" fill="#38A1FF"/>
<path fill-rule="evenodd" clip-rule="evenodd" d="M31.9956 174.527C27.2134 181.12 25.0365 198.687 25.0558 206.813C25.1085 207.133 25.2746 207.425 25.5243 207.635C25.7741 207.845 26.0913 207.96 26.4192 207.96C26.747 207.96 27.0642 207.845 27.314 207.635C27.5638 207.425 27.7298 207.133 27.7825 206.813C28.0997 196.081 30.3448 185.49 34.4129 175.535C34.9654 174.169 32.9238 173.209 32.0011 174.469L31.9956 174.527Z" fill="#38A1FF"/>
<path fill-rule="evenodd" clip-rule="evenodd" d="M73.4414 413.022C46.3481 393.96 32.4464 373.038 19.4509 343.891C19.341 343.605 19.1209 343.374 18.8391 343.249C18.5573 343.124 18.2367 343.115 17.9481 343.224C17.6594 343.333 17.4262 343.55 17.2998 343.829C17.1733 344.108 17.1641 344.425 17.274 344.71C25.5868 371.855 48.2543 398.677 71.8722 414.902C73.1679 415.793 74.7537 413.932 73.4414 412.965V413.022Z" fill="#38A1FF"/>
<path fill-rule="evenodd" clip-rule="evenodd" d="M522.387 269.212C522.349 268.944 522.214 268.697 522.007 268.519C521.799 268.341 521.534 268.243 521.26 268.243C520.985 268.243 520.72 268.341 520.513 268.519C520.306 268.697 520.171 268.944 520.133 269.212C519.119 276.317 519.362 279.943 515.624 286.528C514.928 287.755 517.11 288.987 517.834 287.769C520.63 282.932 523.702 274.814 522.387 269.212Z" fill="#38A1FF"/>
<path fill-rule="evenodd" clip-rule="evenodd" d="M507.589 266.644C505.766 269.844 501.235 286.755 500.177 290.474C499.732 292.026 502.133 292.411 502.608 290.941C503.796 287.252 509.49 270.994 509.763 267.36C509.818 267.087 509.77 266.804 509.629 266.563C509.487 266.323 509.262 266.141 508.995 266.054C508.728 265.966 508.438 265.977 508.179 266.086C507.92 266.195 507.71 266.393 507.589 266.644V266.644Z" fill="#38A1FF"/>
<path fill-rule="evenodd" clip-rule="evenodd" d="M445.457 376.345C445.267 376.561 445.158 376.835 445.149 377.121C445.139 377.407 445.23 377.687 445.405 377.915C445.58 378.142 445.829 378.303 446.111 378.37C446.392 378.437 446.688 378.406 446.949 378.282C453.75 373.667 465.945 361.86 468.395 353.69C468.768 352.45 467.083 351.209 466.434 352.469C465.47 352.857 461.027 364.992 445.457 376.345Z" fill="#38A1FF"/>
<path fill-rule="evenodd" clip-rule="evenodd" d="M457.751 341.658C456.436 346.85 447.253 355.028 443.109 357.812C441.813 358.681 440.691 356.719 441.874 355.872C451.372 349.142 452.924 343.442 455.773 340.63C455.936 339.977 458.027 340.152 457.751 341.658Z" fill="#38A1FF"/>
<path fill-rule="evenodd" clip-rule="evenodd" d="M373.135 440.067C372.814 440.169 372.546 440.391 372.388 440.686C372.23 440.981 372.194 441.325 372.289 441.646C372.383 441.966 372.601 442.237 372.894 442.402C373.188 442.566 373.535 442.611 373.861 442.526C379.923 440.761 397.131 434.402 401.875 429.631C402.703 428.812 401.717 427.131 400.659 427.694C399.957 427.339 386.293 436.116 373.135 440.067Z" fill="#38A1FF"/>
<path fill-rule="evenodd" clip-rule="evenodd" d="M363.216 425.521C354.497 428.983 351.69 432.423 340.808 432.078C340.505 432.1 340.22 432.229 340.005 432.443C339.791 432.657 339.662 432.94 339.643 433.24C339.624 433.54 339.715 433.837 339.901 434.076C340.086 434.315 340.353 434.479 340.651 434.538C347.127 435.001 353.609 433.727 359.415 430.852C367.813 426.66 364.435 425.042 363.216 425.521Z" fill="#38A1FF"/>
<path fill-rule="evenodd" clip-rule="evenodd" d="M382.822 395.714C371.282 400.306 359.024 402.885 346.593 403.335C345.123 403.37 345.297 405.603 346.77 405.584C356.439 405.452 375.225 402.794 383.842 397.826C385.041 397.135 383.958 395.421 382.822 395.889V395.714Z" fill="#38A1FF"/>
<path fill-rule="evenodd" clip-rule="evenodd" d="M267.936 414.479C255.383 413.763 250.904 415.225 237.784 410.777C236.295 410.271 235.668 412.558 237.138 413.102C245.923 416.353 258.963 418.919 268.193 416.594C268.428 416.51 268.628 416.35 268.759 416.139C268.89 415.929 268.945 415.681 268.915 415.435C268.885 415.19 268.772 414.962 268.595 414.788C268.417 414.614 268.185 414.505 267.936 414.479V414.479Z" fill="#38A1FF"/>
<path fill-rule="evenodd" clip-rule="evenodd" d="M261.923 439.323C244.432 438.46 234.329 438.834 217.184 432.246C215.714 431.683 214.557 433.834 216.046 434.432C228.936 439.662 248.485 444.086 262.334 441.57C263.743 441.318 263.138 439.384 261.923 439.323Z" fill="#38A1FF"/>
<path fill-rule="evenodd" clip-rule="evenodd" d="M107.906 399.1C96.2058 393.788 88.951 391.102 81.0471 380.246C80.047 378.88 77.9667 380.423 78.9309 381.798C84.9756 390.435 96.413 400.144 107.298 401.305C107.57 401.325 107.841 401.251 108.065 401.095C108.288 400.939 108.449 400.711 108.521 400.45C108.593 400.19 108.571 399.912 108.459 399.666C108.346 399.419 108.151 399.219 107.906 399.1V399.1Z" fill="#38A1FF"/>
<path fill-rule="evenodd" clip-rule="evenodd" d="M132.649 385.125C132.826 385.125 136.241 389.953 124.102 384.756C116.57 381.519 109.612 377.107 103.495 371.689C102.263 370.596 104.166 368.927 105.456 369.981C115.435 378.132 122.032 379.676 132.746 385.125H132.649Z" fill="#38A1FF"/>
<path fill-rule="evenodd" clip-rule="evenodd" d="M145.98 368.023C141.805 364.883 137.473 361.891 133.216 358.853C131.885 357.902 130.594 360.088 131.923 361.039C136.133 364.006 140.255 367.069 144.491 369.938C145.596 370.695 147.118 368.892 145.98 367.998V368.023Z" fill="#38A1FF"/>
<path fill-rule="evenodd" clip-rule="evenodd" d="M39.4479 307.744C35.0099 300.681 33.2006 292.308 34.3315 284.068C34.4944 282.792 32.5606 282.573 32.1213 283.759C29.2786 291.325 32.9805 302.479 37.2184 308.966C38.0969 310.321 40.3319 309.135 39.4479 307.744Z" fill="#38A1FF"/>
<path fill-rule="evenodd" clip-rule="evenodd" d="M63.8556 303.375C60.4261 298.083 57.8404 292.3 56.1892 286.229C55.8467 284.953 54.2277 286.229 54.1117 287.336C53.9736 290.475 59.9851 302.856 61.6013 304.55C62.7312 305.747 64.8142 304.559 63.8556 303.375Z" fill="#38A1FF"/>
<path fill-rule="evenodd" clip-rule="evenodd" d="M543.777 183.366C544.959 205.265 542.684 227.213 537.033 248.42C536.959 248.716 537.004 249.028 537.159 249.291C537.314 249.554 537.567 249.746 537.864 249.827C538.161 249.908 538.478 249.871 538.747 249.724C539.017 249.577 539.217 249.332 539.307 249.04C544.387 231.05 548.893 202.001 546.188 183.114C546.188 181.781 543.702 181.945 543.777 183.366Z" fill="#38A1FF"/>
<path fill-rule="evenodd" clip-rule="evenodd" d="M451.731 31.1693C450.598 30.0763 448.601 31.5709 449.772 32.7404C458.249 41.3486 465.876 50.7371 472.55 60.7783C473.288 61.8713 475.178 60.7783 474.631 59.5569C475.313 59.5569 467.213 46.2935 451.731 31.1693Z" fill="#38A1FF"/>
<path fill-rule="evenodd" clip-rule="evenodd" d="M453.35 54.7889C454.124 55.8819 452.486 56.9229 451.585 56.1551C445.695 51.0673 430.755 33.5986 424.787 26.8002C423.867 25.7509 425.37 24.2044 426.354 25.2482C432.683 31.9427 448.742 48.231 453.35 54.7889Z" fill="#38A1FF"/>
<path fill-rule="evenodd" clip-rule="evenodd" d="M501.528 105.514C501.438 105.387 501.323 105.278 501.189 105.195C501.056 105.111 500.908 105.055 500.753 105.028C500.598 105.002 500.439 105.005 500.285 105.04C500.131 105.074 499.986 105.137 499.857 105.227C499.728 105.317 499.619 105.431 499.534 105.562C499.45 105.694 499.393 105.841 499.366 105.994C499.339 106.148 499.343 106.305 499.377 106.457C499.412 106.609 499.476 106.753 499.567 106.88C508.313 120.269 510.09 128.934 512.742 139.689C513.071 141.028 514.952 140.484 514.996 139.225C515.444 129.232 502.415 105.514 501.528 105.514Z" fill="#38A1FF"/>
<path fill-rule="evenodd" clip-rule="evenodd" d="M489.176 105.822C488.606 104.349 486.189 105.002 486.744 106.522C487.791 109.396 492.85 124.329 494.48 126.57C495.085 127.406 496.726 127.193 496.599 125.969C496.182 122.094 490.819 110.071 489.176 105.822Z" fill="#38A1FF"/>
<path fill-rule="evenodd" clip-rule="evenodd" d="M525.368 194.417C525.191 193.294 523.086 192.778 523.191 194.108C523.507 204.051 522.785 213.998 521.036 223.794C520.76 225.365 523.152 225.346 523.506 223.794C525.385 214.107 526.011 204.222 525.368 194.379V194.417Z" fill="#38A1FF"/>
<path fill-rule="evenodd" clip-rule="evenodd" d="M210.656 22.7977C205.09 19.0569 192.114 20.404 185.934 22.6419C184.21 23.2649 184.815 26.0302 186.583 25.4154C199.015 21.0817 205.225 24.97 209.991 25.0465C210.257 25.0461 210.517 24.9603 210.73 24.802C210.943 24.6437 211.099 24.4214 211.174 24.1683C211.249 23.9153 211.239 23.645 211.146 23.3979C211.052 23.1509 210.881 22.9403 210.656 22.7977V22.7977Z" fill="#38A1FF"/>
<path fill-rule="evenodd" clip-rule="evenodd" d="M382.864 102.234C382.651 100.742 380.59 101.305 380.433 102.546C378.659 116.509 379.3 131.138 377.198 145.883C376.991 147.339 379.546 147.705 379.787 146.252C381.709 134.611 384.475 113.533 382.864 102.234Z" fill="#38A1FF"/>
<path fill-rule="evenodd" clip-rule="evenodd" d="M299.01 6.0849C297.778 4.99192 295.972 6.68878 297.148 7.88833C322.476 33.6555 330.394 53.5588 338.312 76.1618C338.837 77.6564 341.774 76.9214 341.351 75.3857C333.447 46.5937 315.015 20.209 299.01 6.0849Z" fill="#38A1FF"/>
</g>
</svg>
