<svg width="568" height="568" viewBox="0 0 568 568" fill="none" xmlns="http://www.w3.org/2000/svg">
<g clip-path="url(#clip0_2889_2131)">
<rect width="568" height="568" rx="20" fill="white"/>
<g opacity="0.4">
<path d="M29.841 272.172C33.0229 275.299 36.3741 278.242 40.0987 280.698C59.0947 293.23 115.593 323.342 204.966 310.607C316.635 294.696 300.672 407.095 284.709 437.096C268.746 467.097 209.828 522.206 204.966 549.724C200.105 577.242 221.642 652.268 171.764 629.92C121.886 607.572 92.9201 554.894 27.5876 561.279C-37.7448 567.664 -84.0378 538.878 -55.3043 487.026C-26.5708 435.173 7.8901 401.65 -36.4771 344.182C-79.6128 288.311 -7.51353 235.457 29.841 272.172Z" fill="#DEE9FF"/>
<path d="M-25.1974 414.396L204.279 369.701L195.45 324.372C195.151 322.838 194.554 321.379 193.691 320.077C192.829 318.775 191.718 317.656 190.423 316.783C189.128 315.91 187.673 315.301 186.143 314.99C184.612 314.679 183.035 314.673 181.502 314.971L-29.6074 391.753L-25.1974 414.396Z" fill="#0E84E5"/>
<path d="M-29.4688 392.473L221.484 343.597C225.092 342.894 228.831 343.654 231.879 345.708C234.927 347.762 237.034 350.943 237.736 354.55L266.598 502.74C267.3 506.347 266.541 510.086 264.487 513.134C262.433 516.182 259.252 518.289 255.644 518.992L18.2941 565.218C14.6864 565.921 10.9473 565.161 7.89948 563.107C4.85162 561.053 2.74461 557.872 2.04197 554.265L-29.4688 392.473Z" fill="#A2BDFF"/>
<path d="M157.085 415.685L244.808 398.6C248.416 397.898 252.155 398.657 255.203 400.711C258.251 402.765 260.358 405.946 261.06 409.554L267.575 443.006C268.278 446.614 267.519 450.353 265.465 453.401C263.41 456.449 260.23 458.556 256.622 459.258L168.899 476.343C168.209 476.478 167.493 476.332 166.91 475.939C166.327 475.546 165.924 474.938 165.789 474.247L154.989 418.795C154.855 418.105 155 417.389 155.393 416.806C155.786 416.223 156.395 415.82 157.085 415.685Z" fill="#418DF9"/>
<path d="M191.787 454.549C199.6 454.549 205.933 448.215 205.933 440.402C205.933 432.589 199.6 426.256 191.787 426.256C183.974 426.256 177.641 432.589 177.641 440.402C177.641 448.215 183.974 454.549 191.787 454.549Z" fill="white"/>
</g>
<g opacity="0.4">
<path d="M692.022 251.498C686.785 246.351 681.27 241.509 675.14 237.466C643.878 216.842 550.899 167.287 403.816 188.245C220.041 214.43 246.311 29.4532 272.582 -19.9198C298.853 -69.2928 395.815 -159.986 403.816 -205.273C411.816 -250.56 376.373 -374.032 458.458 -337.253C540.543 -300.474 588.212 -213.781 695.73 -224.289C803.249 -234.798 879.433 -187.423 832.146 -102.09C784.859 -16.756 728.147 38.4146 801.162 132.989C872.151 224.938 753.497 311.919 692.022 251.498Z" fill="#DEE9FF"/>
<path d="M782.598 17.4377L404.946 90.992L419.476 165.592C419.967 168.115 420.95 170.516 422.37 172.659C423.789 174.802 425.617 176.644 427.749 178.081C429.88 179.517 432.274 180.52 434.793 181.031C437.312 181.543 439.907 181.553 442.43 181.062L789.855 54.7006L782.598 17.4377Z" fill="#0E84E5"/>
<path d="M789.627 53.5176L376.631 133.953C370.693 135.109 364.54 133.86 359.524 130.479C354.508 127.099 351.041 121.864 349.884 115.927L302.387 -127.95C301.23 -133.887 302.48 -140.041 305.86 -145.057C309.241 -150.073 314.476 -153.54 320.413 -154.696L711.023 -230.772C716.96 -231.928 723.114 -230.679 728.13 -227.298C733.145 -223.917 736.613 -218.683 737.769 -212.745L789.627 53.5176Z" fill="#A2BDFF"/>
<path d="M482.615 15.3157L338.248 43.4327C332.311 44.589 326.157 43.3395 321.142 39.9589C316.126 36.5783 312.658 31.3436 311.502 25.4063L300.78 -29.6462C299.623 -35.5834 300.873 -41.7368 304.254 -46.7527C307.634 -51.7686 312.869 -55.2362 318.806 -56.3925L463.173 -84.5095C464.309 -84.7308 465.486 -84.4917 466.446 -83.8449C467.406 -83.198 468.069 -82.1964 468.291 -81.0604L486.064 10.198C486.285 11.3341 486.046 12.5115 485.4 13.4712C484.753 14.4309 483.751 15.0944 482.615 15.3157Z" fill="#418DF9"/>
</g>
</g>
<defs>
<clipPath id="clip0_2889_2131">
<rect width="568" height="568" rx="20" fill="white"/>
</clipPath>
</defs>
</svg>
