<svg width="17" height="19" viewBox="0 0 17 19" fill="none" xmlns="http://www.w3.org/2000/svg">
<path d="M13.5469 0C15.4539 0 16.9999 1.25656 17 2.80664V18.3525C16.9999 18.5984 16.8286 18.8233 16.5576 18.9326C16.2866 19.042 15.9627 19.0168 15.7217 18.8682L8.5 14.415L1.27832 18.8682C1.03724 19.0168 0.713397 19.042 0.442383 18.9326C0.171437 18.8233 0.000124012 18.5984 0 18.3525V2.80664C0.000118092 1.25656 1.54608 0 3.45312 0H13.5469ZM8.55371 4C8.09219 4.00004 7.68271 4.08538 7.3252 4.25586C6.96761 4.42346 6.6872 4.65713 6.48438 4.95703C6.28156 5.25694 6.1797 5.60696 6.17969 6.00684C6.17969 6.48909 6.31665 6.88751 6.58887 7.20215C6.86374 7.51671 7.28766 7.74656 7.86133 7.89062L8.90234 8.1416C9.19572 8.21507 9.41323 8.32383 9.55469 8.46777C9.6988 8.61186 9.77148 8.79023 9.77148 9.00195C9.77147 9.26359 9.65371 9.48568 9.41895 9.66797C9.18409 9.84734 8.86985 9.93652 8.47754 9.93652C8.11755 9.93645 7.82563 9.85301 7.60156 9.68555C7.37747 9.51506 7.22931 9.26374 7.15723 8.93164L6 9.125C6.09875 9.72487 6.36577 10.1882 6.80078 10.5146C7.23579 10.8381 7.79778 11 8.48633 11C8.98258 11 9.41871 10.9098 9.79492 10.7305C10.1738 10.5511 10.4689 10.3047 10.6797 9.99023C10.8931 9.67276 10.9999 9.3109 11 8.90527C11 8.42615 10.8613 8.03622 10.584 7.73633C10.3064 7.43639 9.88415 7.2144 9.31836 7.07031L8.3418 6.82324C8.00297 6.73505 7.7576 6.62154 7.60547 6.4834C7.45338 6.34523 7.37699 6.16287 7.37695 5.93652C7.37695 5.67481 7.49093 5.46155 7.71777 5.29688C7.94459 5.12937 8.22758 5.04492 8.56641 5.04492C8.81445 5.04496 9.02114 5.08956 9.18652 5.17773C9.35199 5.26595 9.48302 5.37937 9.5791 5.51758C9.67774 5.6557 9.74958 5.8013 9.79492 5.9541L10.8799 5.74219C10.7571 5.21293 10.5047 4.79118 10.123 4.47656C9.74141 4.15901 9.21821 4 8.55371 4Z" fill="white"/>
</svg>
