<svg width="27" height="27" viewBox="0 0 27 27" fill="none" xmlns="http://www.w3.org/2000/svg">
<path d="M22.8333 5.5H4.16667C2.69391 5.5 1.5 6.69391 1.5 8.16667V22.8333C1.5 24.3061 2.69391 25.5 4.16667 25.5H22.8333C24.3061 25.5 25.5 24.3061 25.5 22.8333V8.16667C25.5 6.69391 24.3061 5.5 22.8333 5.5Z" stroke="#143A62" stroke-width="3"/>
<path d="M1.5 10.8333C1.5 8.31917 1.5 7.06209 2.28105 6.28105C3.06209 5.5 4.31917 5.5 6.83333 5.5H20.1667C22.6808 5.5 23.9379 5.5 24.7189 6.28105C25.5 7.06209 25.5 8.31917 25.5 10.8333H1.5Z" fill="#143A62"/>
<path d="M6.83301 1.5V5.5" stroke="#143A62" stroke-width="3" stroke-linecap="round"/>
<path d="M20.167 1.5V5.5" stroke="#143A62" stroke-width="3" stroke-linecap="round"/>
<path d="M11.4997 13.5H7.49967C7.13148 13.5 6.83301 13.7985 6.83301 14.1667V15.5C6.83301 15.8682 7.13148 16.1667 7.49967 16.1667H11.4997C11.8679 16.1667 12.1663 15.8682 12.1663 15.5V14.1667C12.1663 13.7985 11.8679 13.5 11.4997 13.5Z" fill="#143A62"/>
<path d="M11.4997 18.833H7.49967C7.13148 18.833 6.83301 19.1315 6.83301 19.4997V20.833C6.83301 21.2012 7.13148 21.4997 7.49967 21.4997H11.4997C11.8679 21.4997 12.1663 21.2012 12.1663 20.833V19.4997C12.1663 19.1315 11.8679 18.833 11.4997 18.833Z" fill="#143A62"/>
<path d="M19.4997 13.5H15.4997C15.1315 13.5 14.833 13.7985 14.833 14.1667V15.5C14.833 15.8682 15.1315 16.1667 15.4997 16.1667H19.4997C19.8679 16.1667 20.1663 15.8682 20.1663 15.5V14.1667C20.1663 13.7985 19.8679 13.5 19.4997 13.5Z" fill="#143A62"/>
<path d="M19.4997 18.833H15.4997C15.1315 18.833 14.833 19.1315 14.833 19.4997V20.833C14.833 21.2012 15.1315 21.4997 15.4997 21.4997H19.4997C19.8679 21.4997 20.1663 21.2012 20.1663 20.833V19.4997C20.1663 19.1315 19.8679 18.833 19.4997 18.833Z" fill="#143A62"/>
</svg>
