<svg width="428" height="365" viewBox="0 0 428 365" fill="none" xmlns="http://www.w3.org/2000/svg">
<path d="M428 345V33C428 21.9543 419.046 13 408 13H99.8422C95.793 13 91.8391 14.2291 88.5035 16.5247L8.66131 71.4742C3.23893 75.206 0 81.367 0 87.9495V345C0 356.046 8.9543 365 20 365H408C419.046 365 428 356.046 428 345Z" fill="white"/>
<path d="M99.8418 13.5H408C418.77 13.5 427.5 22.2304 427.5 33V345C427.5 355.77 418.77 364.5 408 364.5H20C9.23045 364.5 0.5 355.77 0.5 345V87.9492C0.500085 81.5315 3.65767 75.5242 8.94434 71.8857L88.7871 16.9365C92.0392 14.6984 95.894 13.5001 99.8418 13.5Z" stroke="#00B6FF" stroke-opacity="0.5"/>
<path d="M23.4853 351C22.832 351 22.2453 350.887 21.7253 350.66C21.2053 350.433 20.792 350.087 20.4853 349.62C20.192 349.153 20.0453 348.56 20.0453 347.84C20.0453 347.267 20.2653 346.553 20.7053 345.7C21.1453 344.833 21.912 343.92 23.0053 342.96L23.3853 344.04L22.0253 342.82L23.0653 341.58C23.7586 342.127 24.3986 342.713 24.9853 343.34C25.572 343.967 26.0453 344.633 26.4053 345.34C26.7653 346.047 26.9453 346.793 26.9453 347.58C26.9453 347.887 26.892 348.233 26.7853 348.62C26.6786 349.007 26.4986 349.387 26.2453 349.76C25.992 350.12 25.6386 350.42 25.1853 350.66C24.732 350.887 24.1653 351 23.4853 351ZM23.4853 349.36C23.9386 349.36 24.312 349.287 24.6053 349.14C24.912 348.98 25.1386 348.76 25.2853 348.48C25.4453 348.2 25.5253 347.873 25.5253 347.5C25.5253 347.167 25.4653 346.82 25.3453 346.46C25.2386 346.087 25.012 345.687 24.6653 345.26C24.332 344.82 23.8186 344.327 23.1253 343.78L24.0053 343.74C23.512 344.167 23.0853 344.62 22.7253 345.1C22.3653 345.567 22.092 346.027 21.9053 346.48C21.7186 346.92 21.6253 347.32 21.6253 347.68C21.6253 348.24 21.7986 348.66 22.1453 348.94C22.5053 349.22 22.952 349.36 23.4853 349.36ZM31.8508 349.46C32.5174 349.46 33.0441 349.393 33.4308 349.26C33.8308 349.127 34.1174 348.933 34.2908 348.68C34.4774 348.413 34.5708 348.107 34.5708 347.76C34.5708 347.493 34.4974 347.173 34.3508 346.8C34.2174 346.427 34.0308 346.013 33.7908 345.56C33.5508 345.093 33.2708 344.607 32.9508 344.1C32.6441 343.58 32.3108 343.053 31.9508 342.52L33.3308 341.62C33.8508 342.407 34.3041 343.153 34.6908 343.86C35.0774 344.553 35.4041 345.207 35.6708 345.82C35.9374 346.42 36.1508 346.987 36.3108 347.52C36.4974 348.107 36.7041 348.54 36.9308 348.82C37.1708 349.1 37.4174 349.28 37.6708 349.36C37.9241 349.427 38.1574 349.46 38.3708 349.46C38.6508 349.46 38.8574 349.54 38.9908 349.7C39.1241 349.847 39.1908 350.027 39.1908 350.24C39.1908 350.453 39.0974 350.653 38.9108 350.84C38.7241 351.013 38.4841 351.1 38.1908 351.1C37.7508 351.1 37.3174 351.02 36.8908 350.86C36.4774 350.687 36.1174 350.413 35.8108 350.04C35.5041 349.653 35.2908 349.14 35.1708 348.5L35.9708 347.86C35.9708 348.393 35.8574 348.913 35.6308 349.42C35.4041 349.913 34.9908 350.32 34.3908 350.64C33.8041 350.96 32.9574 351.12 31.8508 351.12C31.3708 351.12 30.9041 351.08 30.4508 351C30.0108 350.92 29.6041 350.807 29.2308 350.66C28.8574 350.5 28.5308 350.313 28.2508 350.1L29.0508 348.72C29.3174 348.893 29.6908 349.06 30.1708 349.22C30.6508 349.38 31.2108 349.46 31.8508 349.46ZM45.8953 351.16C45.3486 351.16 44.7886 351.087 44.2153 350.94C43.642 350.78 43.0886 350.56 42.5553 350.28C42.0353 350 41.562 349.66 41.1353 349.26C40.722 348.847 40.3886 348.387 40.1353 347.88C39.8953 347.373 39.7753 346.827 39.7753 346.24C39.7753 345.64 39.8953 345.087 40.1353 344.58C40.3886 344.073 40.742 343.667 41.1953 343.36C41.662 343.04 42.202 342.88 42.8153 342.88C43.4153 342.88 43.9286 343.047 44.3553 343.38C44.782 343.7 45.1086 344.12 45.3353 344.64C45.5753 345.147 45.6953 345.68 45.6953 346.24C45.6953 347.013 45.4753 347.707 45.0353 348.32C44.6086 348.92 44.0286 349.427 43.2953 349.84C42.562 350.253 41.7553 350.567 40.8753 350.78C39.9953 350.993 39.102 351.1 38.1953 351.1L38.3953 349.46C39.1153 349.46 39.7553 349.413 40.3153 349.32C40.8886 349.213 41.382 349.073 41.7953 348.9C42.4086 348.66 42.8886 348.373 43.2353 348.04C43.5953 347.693 43.8486 347.34 43.9953 346.98C44.142 346.62 44.2153 346.293 44.2153 346C44.2153 345.72 44.1553 345.453 44.0353 345.2C43.9286 344.933 43.7686 344.72 43.5553 344.56C43.3553 344.387 43.1086 344.3 42.8153 344.3C42.522 344.3 42.2553 344.387 42.0153 344.56C41.7886 344.72 41.6086 344.933 41.4753 345.2C41.342 345.467 41.2753 345.747 41.2753 346.04C41.2753 346.6 41.4153 347.1 41.6953 347.54C41.9886 347.967 42.362 348.333 42.8153 348.64C43.282 348.947 43.7753 349.18 44.2953 349.34C44.8286 349.5 45.3353 349.58 45.8153 349.58C46.2686 349.58 46.602 349.507 46.8153 349.36C47.0286 349.2 47.1353 348.94 47.1353 348.58C47.1353 348.513 47.1153 348.393 47.0753 348.22C47.0486 348.033 46.942 347.78 46.7553 347.46C46.582 347.14 46.282 346.747 45.8553 346.28C45.4286 345.8 44.8286 345.233 44.0553 344.58C43.282 343.913 42.282 343.14 41.0553 342.26L41.9953 341.02C43.2753 341.953 44.3286 342.78 45.1553 343.5C45.9953 344.207 46.6553 344.827 47.1353 345.36C47.6286 345.88 47.9886 346.34 48.2153 346.74C48.4553 347.127 48.6086 347.473 48.6753 347.78C48.742 348.073 48.7753 348.353 48.7753 348.62C48.7753 349.06 48.6753 349.473 48.4753 349.86C48.2886 350.247 47.982 350.56 47.5553 350.8C47.142 351.04 46.5886 351.16 45.8953 351.16ZM55.4997 351.1C54.433 351.1 53.613 350.98 53.0397 350.74C52.4797 350.5 52.093 350.127 51.8797 349.62C51.6664 349.113 51.5464 348.46 51.5197 347.66L51.1197 336.72H52.7597L53.1597 347.02C53.1864 347.673 53.2464 348.18 53.3397 348.54C53.4464 348.887 53.673 349.127 54.0197 349.26C54.3797 349.393 54.9397 349.46 55.6997 349.46C55.9797 349.46 56.1797 349.54 56.2997 349.7C56.433 349.847 56.4997 350.027 56.4997 350.24C56.4997 350.453 56.4064 350.653 56.2197 350.84C56.033 351.013 55.793 351.1 55.4997 351.1ZM55.5 351.1L55.7 349.46C56.1267 349.46 56.4733 349.433 56.74 349.38C57.0067 349.313 57.2267 349.16 57.4 348.92C57.5867 348.667 57.76 348.273 57.92 347.74C58.08 347.207 58.2667 346.46 58.48 345.5L59.98 345.92C59.9 346.253 59.8067 346.653 59.7 347.12C59.5933 347.587 59.54 348.013 59.54 348.4C59.54 348.613 59.5933 348.8 59.7 348.96C59.8067 349.12 59.9867 349.247 60.24 349.34C60.5067 349.42 60.86 349.46 61.3 349.46C61.7 349.46 62.0267 349.427 62.28 349.36C62.5333 349.293 62.74 349.133 62.9 348.88C63.0733 348.627 63.2267 348.22 63.36 347.66C63.4933 347.1 63.6333 346.333 63.78 345.36L65.3 345.64C65.26 345.88 65.2133 346.173 65.16 346.52C65.1067 346.867 65.0533 347.213 65 347.56C64.96 347.893 64.94 348.173 64.94 348.4C64.94 348.587 64.98 348.767 65.06 348.94C65.1533 349.1 65.3267 349.227 65.58 349.32C65.8467 349.413 66.24 349.46 66.76 349.46C67.4267 349.46 67.9067 349.32 68.2 349.04C68.5067 348.76 68.66 348.333 68.66 347.76C68.66 347.453 68.6533 347.133 68.64 346.8C68.6267 346.453 68.6 346.073 68.56 345.66C68.5333 345.233 68.4867 344.747 68.42 344.2L69.88 344.1C69.96 345.18 70.0467 346.067 70.14 346.76C70.2467 347.453 70.3933 348 70.58 348.4C70.78 348.787 71.0467 349.06 71.38 349.22C71.7133 349.38 72.1533 349.46 72.7 349.46C72.98 349.46 73.18 349.54 73.3 349.7C73.4333 349.847 73.5 350.027 73.5 350.24C73.5 350.453 73.4067 350.653 73.22 350.84C73.0333 351.013 72.7933 351.1 72.5 351.1C72.0467 351.1 71.64 351.04 71.28 350.92C70.9333 350.787 70.6267 350.613 70.36 350.4C70.1067 350.173 69.8933 349.92 69.72 349.64C69.56 349.347 69.4467 349.04 69.38 348.72L69.74 348.84C69.5933 349.44 69.36 349.907 69.04 350.24C68.7333 350.56 68.3667 350.787 67.94 350.92C67.5133 351.04 67.06 351.1 66.58 351.1C65.9933 351.1 65.5133 351.027 65.14 350.88C64.7667 350.733 64.4733 350.513 64.26 350.22C64.06 349.913 63.9267 349.527 63.86 349.06H64.54C64.2867 349.633 64.02 350.067 63.74 350.36C63.46 350.653 63.1133 350.853 62.7 350.96C62.2867 351.053 61.74 351.1 61.06 351.1C60.7267 351.1 60.3667 351.047 59.98 350.94C59.6067 350.833 59.28 350.627 59 350.32C58.72 350 58.5533 349.527 58.5 348.9L59.1 348.78C58.8733 349.46 58.5933 349.967 58.26 350.3C57.94 350.62 57.5533 350.833 57.1 350.94C56.6467 351.047 56.1133 351.1 55.5 351.1ZM64.12 340.1C63.84 340.1 63.6 340.007 63.4 339.82C63.2133 339.62 63.12 339.387 63.12 339.12C63.12 338.853 63.2133 338.62 63.4 338.42C63.6 338.22 63.84 338.12 64.12 338.12C64.3867 338.12 64.6133 338.22 64.8 338.42C65 338.62 65.1 338.853 65.1 339.12C65.1 339.387 65 339.62 64.8 339.82C64.6133 340.007 64.3867 340.1 64.12 340.1ZM62.76 342.3C62.48 342.3 62.24 342.207 62.04 342.02C61.8533 341.82 61.76 341.587 61.76 341.32C61.76 341.053 61.8533 340.82 62.04 340.62C62.24 340.42 62.48 340.32 62.76 340.32C63.0267 340.32 63.2533 340.42 63.44 340.62C63.64 340.82 63.74 341.053 63.74 341.32C63.74 341.587 63.64 341.82 63.44 342.02C63.2533 342.207 63.0267 342.3 62.76 342.3ZM65.48 342.3C65.2 342.3 64.96 342.207 64.76 342.02C64.5733 341.82 64.48 341.587 64.48 341.32C64.48 341.053 64.5733 340.82 64.76 340.62C64.96 340.42 65.2 340.32 65.48 340.32C65.7467 340.32 65.9733 340.42 66.16 340.62C66.36 340.82 66.46 341.053 66.46 341.32C66.46 341.587 66.36 341.82 66.16 342.02C65.9733 342.207 65.7467 342.3 65.48 342.3ZM72.4922 351.1L72.6922 349.46C73.0655 349.46 73.3789 349.38 73.6322 349.22C73.8855 349.06 74.1322 348.793 74.3722 348.42C74.6122 348.047 74.8722 347.547 75.1522 346.92C75.5389 346.067 75.9189 345.42 76.2922 344.98C76.6789 344.54 77.0589 344.24 77.4322 344.08C77.8189 343.92 78.1989 343.84 78.5722 343.84C79.0255 343.84 79.4455 343.96 79.8322 344.2C80.2189 344.427 80.5589 344.733 80.8522 345.12C81.1455 345.507 81.3722 345.933 81.5322 346.4C81.7055 346.853 81.7922 347.307 81.7922 347.76C81.7922 348.56 81.6522 349.2 81.3722 349.68C81.0922 350.147 80.7322 350.487 80.2922 350.7C79.8655 350.9 79.4189 351 78.9522 351C78.5389 351 78.0055 350.92 77.3522 350.76C76.7122 350.6 75.8989 350.193 74.9122 349.54L75.6922 348.28C76.3455 348.693 76.9322 348.98 77.4522 349.14C77.9855 349.287 78.4255 349.36 78.7722 349.36C79.1589 349.36 79.4655 349.307 79.6922 349.2C79.9189 349.08 80.0855 348.913 80.1922 348.7C80.2989 348.487 80.3522 348.247 80.3522 347.98C80.3522 347.593 80.2589 347.207 80.0722 346.82C79.8855 346.433 79.6455 346.113 79.3522 345.86C79.0722 345.607 78.7722 345.48 78.4522 345.48C78.2122 345.48 77.9789 345.547 77.7522 345.68C77.5255 345.813 77.2922 346.06 77.0522 346.42C76.8122 346.78 76.5389 347.3 76.2322 347.98C75.9122 348.7 75.6055 349.273 75.3122 349.7C75.0322 350.113 74.7455 350.42 74.4522 350.62C74.1589 350.82 73.8522 350.947 73.5322 351C73.2255 351.067 72.8789 351.1 72.4922 351.1Z" fill="white"/>
<path d="M96.0845 16.5131L88.5109 68.7533C86.9261 79.6847 76.7797 87.2616 65.8483 85.6768L5.52387 76.9312C4.62386 76.8008 4.35112 75.6341 5.1 75.1181L92.9705 14.5791C94.4076 13.589 96.3349 14.7859 96.0845 16.5131Z" fill="#00B6FF"/>
</svg>
