<svg width="86" height="89" viewBox="0 0 86 89" fill="none" xmlns="http://www.w3.org/2000/svg">
<path d="M80.8171 29.159C80.8171 29.159 68.114 39.6914 82.7409 62.2449C95.7313 82.2746 66.5333 90.957 53.9513 88.6321C37.6524 85.6204 28.2943 66.161 15.8299 72.3269C3.36553 78.4927 -8.9825 50.5526 9.14811 40.2713C31.7018 27.482 17.2272 20.0499 19.2528 10.6723C20.7067 3.94215 41.3953 -6.46337 52.5506 5.40616C61.9378 15.3942 66.5412 11.8209 70.8316 10.4875C77.0197 8.56443 90.5267 18.5676 80.8171 29.159Z" fill="#DEE9FF"/>
<path d="M44.8502 43.4183L40.6883 60.483C40.5338 61.1158 40.5056 61.7728 40.6052 62.4166C40.7048 63.0603 40.9303 63.6782 41.2688 64.2348C41.6074 64.7914 42.0523 65.2758 42.5782 65.6605C43.1041 66.0452 43.7007 66.3225 44.3338 66.4766L65.0327 71.5208C65.5648 77.3619 70.4007 77.7938 72.3087 77.9939C72.3275 77.995 72.3461 77.9898 72.3616 77.9792C72.3771 77.9685 72.3887 77.9531 72.3945 77.9352C72.4004 77.9173 72.4001 77.898 72.3938 77.8803C72.3874 77.8625 72.3754 77.8474 72.3596 77.8372C70.9896 77.0024 70.5805 74.7139 70.4892 72.8505L72.0258 73.225C72.6589 73.3794 73.3162 73.4077 73.9602 73.3081C74.6042 73.2086 75.2222 72.9831 75.7791 72.6447C76.3359 72.3063 76.8205 71.8616 77.2053 71.3359C77.5901 70.8102 77.8676 70.2138 78.0217 69.5809L82.1835 52.5163C82.3381 51.8834 82.3663 51.2264 82.2667 50.5826C82.1671 49.9389 81.9416 49.3211 81.6031 48.7645C81.2646 48.2079 80.8196 47.7234 80.2937 47.3387C79.7678 46.9541 79.1713 46.6768 78.5381 46.5226L50.8462 39.7742C50.2131 39.6198 49.5558 39.5915 48.9118 39.6911C48.2678 39.7906 47.6497 40.016 47.0929 40.3545C46.5361 40.6929 46.0514 41.1376 45.6666 41.6633C45.2818 42.1891 45.0044 42.7854 44.8502 43.4183Z" fill="#A2BDFF"/>
<path d="M79.185 51.8357L67.6107 49.0151C67.5344 48.9965 67.4576 49.0432 67.439 49.1194L66.8452 51.554C66.8266 51.6302 66.8734 51.7071 66.9496 51.7256L78.5239 54.5463C78.6001 54.5648 78.677 54.5181 78.6956 54.4419L79.2894 52.0073C79.3079 51.9311 79.2612 51.8543 79.185 51.8357Z" fill="white"/>
<path d="M77.5311 58.6125L46.1712 50.9702C46.095 50.9516 46.0181 50.9983 45.9996 51.0745L45.4058 53.5091C45.3872 53.5853 45.4339 53.6621 45.5101 53.6807L76.87 61.323C76.9462 61.3416 77.0231 61.2949 77.0417 61.2187L77.6355 58.7841C77.654 58.7079 77.6073 58.631 77.5311 58.6125Z" fill="#D4E5FF"/>
<path d="M75.8787 65.3888L44.5189 57.7465C44.4426 57.7279 44.3658 57.7747 44.3472 57.8509L43.7534 60.2855C43.7349 60.3617 43.7816 60.4385 43.8578 60.4571L75.2176 68.0994C75.2938 68.118 75.3707 68.0713 75.3893 67.9951L75.983 65.5604C76.0016 65.4842 75.9549 65.4074 75.8787 65.3888Z" fill="#D4E5FF"/>
<path d="M56.5033 22.9469L63.309 44.7936C63.5616 45.6037 63.6521 46.4557 63.5752 47.3007C63.4983 48.1458 63.2556 48.9675 62.861 49.7188C62.4663 50.4701 61.9274 51.1363 61.2751 51.6794C60.6228 52.2224 59.8699 52.6317 59.0593 52.8837L32.5604 61.1321C32.346 68.7698 26.094 69.7262 23.6298 70.142C23.6053 70.1452 23.5805 70.1402 23.5592 70.1277C23.538 70.1152 23.5215 70.096 23.5124 70.073C23.5033 70.0501 23.5022 70.0248 23.5091 70.0012C23.516 69.9775 23.5307 69.9568 23.5507 69.9425C25.2637 68.7452 25.6085 65.7364 25.575 63.3063L23.6076 63.9187C22.7971 64.1712 21.9449 64.2615 21.0995 64.1847C20.2541 64.1078 19.4322 63.8652 18.6806 63.4708C17.9291 63.0763 17.2626 62.5377 16.7194 61.8857C16.1761 61.2337 15.7667 60.481 15.5145 59.6708L8.70878 37.8242C8.45616 37.014 8.36569 36.1621 8.44256 35.317C8.51943 34.4719 8.76212 33.6502 9.15677 32.8989C9.55141 32.1476 10.0903 31.4814 10.7426 30.9383C11.3949 30.3953 12.1479 29.986 12.9584 29.7339L48.4099 18.6989C49.2203 18.4464 50.0726 18.3559 50.918 18.4328C51.7634 18.5096 52.5854 18.7522 53.337 19.1467C54.0886 19.5412 54.7551 20.0799 55.2984 20.7319C55.8417 21.384 56.2511 22.1366 56.5033 22.9469Z" fill="#418DF9"/>
<path d="M31.4656 30.7719L12.4814 36.6736C12.4064 36.6969 12.3646 36.7765 12.3879 36.8514L13.3834 40.0511C13.4067 40.126 13.4863 40.1679 13.5612 40.1446L32.5455 34.2429C32.6204 34.2196 32.6623 34.14 32.639 34.0651L31.6435 30.8654C31.6202 30.7905 31.5406 30.7487 31.4656 30.7719Z" fill="white"/>
<path d="M55.4235 32.8002L15.1942 45.323C15.1193 45.3463 15.0775 45.4259 15.1008 45.5008L16.0974 48.6998C16.1207 48.7747 16.2004 48.8165 16.2753 48.7931L56.5045 36.2703C56.5794 36.247 56.6212 36.1674 56.5979 36.0925L55.6013 32.8936C55.578 32.8187 55.4984 32.7769 55.4235 32.8002Z" fill="#D4E5FF"/>
<path d="M58.1224 41.52L17.8837 54.0291C17.8088 54.0524 17.7669 54.132 17.7902 54.2069L18.7857 57.4066C18.809 57.4815 18.8886 57.5233 18.9636 57.5L59.2023 44.9909C59.2772 44.9676 59.319 44.8881 59.2957 44.8132L58.3002 41.6135C58.2769 41.5386 58.1973 41.4967 58.1224 41.52Z" fill="#D4E5FF"/>
</svg>
