<svg width="25" height="25" viewBox="0 0 25 25" fill="none" xmlns="http://www.w3.org/2000/svg">
<path d="M17.75 2.7216C16.132 1.78567 14.2535 1.25 12.25 1.25C6.17487 1.25 1.25 6.17487 1.25 12.25C1.25 14.0097 1.66318 15.6728 2.39781 17.1477C2.59303 17.5397 2.65801 17.9877 2.54483 18.4107L1.88966 20.8594C1.60525 21.9223 2.57771 22.8947 3.64068 22.6104L6.08933 21.9552C6.51232 21.842 6.96033 21.907 7.35228 22.1021C8.82721 22.8368 10.4903 23.25 12.25 23.25C18.3251 23.25 23.25 18.3251 23.25 12.25C23.25 10.2465 22.7143 8.36796 21.7784 6.75" stroke="white" stroke-width="2.5" stroke-linecap="round"/>
<path d="M7.84961 12.25H7.85951M12.2397 12.25H12.2496M16.6397 12.25H16.6496" stroke="white" stroke-width="4" stroke-linecap="round" stroke-linejoin="round"/>
</svg>
