<svg width="36" height="26" viewBox="0 0 36 26" fill="none" xmlns="http://www.w3.org/2000/svg">
<path d="M3.10285 13.49C2.16559 12.5669 2.16559 11.0703 3.10285 10.1473C4.0401 9.22422 5.5597 9.22422 6.49696 10.1473L15.5067 19.1242C16.444 20.0473 16.444 21.5438 15.5067 22.4669C14.5695 23.3899 13.0499 23.3899 12.1126 22.4669L3.10285 13.49Z" fill="#D8D8D8"/>
<mask id="mask0_2023_399" style="mask-type:luminance" maskUnits="userSpaceOnUse" x="2" y="9" width="15" height="15">
<path d="M3.10285 13.49C2.16559 12.5669 2.16559 11.0703 3.10285 10.1473C4.0401 9.22422 5.5597 9.22422 6.49696 10.1473L15.5067 19.1242C16.444 20.0473 16.444 21.5438 15.5067 22.4669C14.5695 23.3899 13.0499 23.3899 12.1126 22.4669L3.10285 13.49Z" fill="white"/>
</mask>
<g mask="url(#mask0_2023_399)">
<path d="M-9.6001 -16.5447L-9.6001 40.1826H47.9999V-16.5447H-9.6001Z" fill="#57E972"/>
</g>
<path d="M31.9029 0.692295C32.8402 -0.230762 34.3598 -0.230762 35.2971 0.692295C36.2343 1.61535 36.2343 3.11192 35.2971 4.03498L13.6971 25.3077C12.7598 26.2308 11.2402 26.2308 10.3029 25.3077L0.702944 15.8532C-0.234315 14.9301 -0.234315 13.4335 0.702944 12.5105C1.6402 11.5874 3.1598 11.5874 4.09706 12.5105L12 20.2937L31.9029 0.692295Z" fill="black"/>
<mask id="mask1_2023_399" style="mask-type:luminance" maskUnits="userSpaceOnUse" x="0" y="0" width="36" height="26">
<path d="M31.9029 0.692295C32.8402 -0.230762 34.3598 -0.230762 35.2971 0.692295C36.2343 1.61535 36.2343 3.11192 35.2971 4.03498L13.6971 25.3077C12.7598 26.2308 11.2402 26.2308 10.3029 25.3077L0.702944 15.8532C-0.234315 14.9301 -0.234315 13.4335 0.702944 12.5105C1.6402 11.5874 3.1598 11.5874 4.09706 12.5105L12 20.2937L31.9029 0.692295Z" fill="white"/>
</mask>
<g mask="url(#mask1_2023_399)">
<path d="M-9.6001 -16.5447L-9.6001 40.1826H47.9999V-16.5447H-9.6001Z" fill="#4AD53E"/>
</g>
</svg>
