<svg width="24" height="24" viewBox="0 0 24 24" fill="none" xmlns="http://www.w3.org/2000/svg">
<path d="M9.44006 2.8647C9.11311 2.53475 8.58689 2.53475 7.53445 2.53475H7.25538V0.844916C7.25538 0.378286 6.88055 0 6.41817 0C5.9558 0 5.58096 0.378286 5.58096 0.844916V2.53475H5.30189C4.24946 2.53475 3.72324 2.53475 3.39628 2.8647C3.06934 3.19467 3.06934 3.72573 3.06934 4.78786V5.01745C3.29537 4.9575 3.52214 4.9157 3.74534 4.88542C4.46604 4.78763 5.35198 4.78773 6.31827 4.78785H6.51808C7.48436 4.78773 8.37031 4.78763 9.091 4.88542C9.3142 4.9157 9.54098 4.9575 9.767 5.01745L9.76701 4.78786C9.76701 3.72573 9.76701 3.19467 9.44006 2.8647Z" fill="#143A62"/>
<path fill-rule="evenodd" clip-rule="evenodd" d="M0.837209 21.4041C0.374835 21.4041 0 21.7824 0 22.249C0 22.7156 0.374835 23.0939 0.837209 23.0939H23.1628C23.6252 23.0939 24 22.7156 24 22.249C24 21.7824 23.6252 21.4041 23.1628 21.4041H22.0465V6.22031C22.0465 4.70977 22.0465 3.9545 21.649 3.37554C21.2514 2.79657 20.5507 2.53138 19.1492 2.001C16.4084 0.963761 15.0381 0.44514 14.0772 1.11719C13.1163 1.78922 13.1163 3.26625 13.1163 6.22031V9.29361H13.2162C14.1824 9.29349 15.0684 9.29338 15.7891 9.39117C16.5828 9.49886 17.4215 9.75223 18.1115 10.4484C18.8014 11.1448 19.0524 11.9913 19.1591 12.7922C19.256 13.5195 19.2559 14.4137 19.2558 15.3888V15.4897V21.4041H17.5814V15.4897C17.5814 13.3654 17.5814 12.3033 16.9275 11.6434C16.2736 10.9834 15.2211 10.9834 13.1163 10.9834H10.8837C8.77884 10.9834 7.7264 10.9834 7.07251 11.6434C6.41861 12.3033 6.4186 13.3654 6.4186 15.4897V21.4041H4.74419V15.4897L4.74417 15.3888C4.74406 14.4137 4.74396 13.5195 4.84086 12.7922C4.94756 11.9913 5.1986 11.1448 5.88852 10.4484C6.57842 9.75223 7.41725 9.49886 8.21088 9.39117C8.93158 9.29338 9.81756 9.29349 10.7838 9.29361H10.8642C10.8208 8.23898 10.6809 7.59236 10.2298 7.13714C9.57592 6.47722 8.52348 6.47722 6.4186 6.47722C4.31373 6.47722 3.26129 6.47722 2.60739 7.13714C1.95349 7.79706 1.95349 8.85921 1.95349 10.9834V21.4041H0.837209ZM8.93023 14.3631C8.93023 13.8965 9.30507 13.5182 9.76744 13.5182H14.2326C14.6949 13.5182 15.0698 13.8965 15.0698 14.3631C15.0698 14.8297 14.6949 15.208 14.2326 15.208H9.76744C9.30507 15.208 8.93023 14.8297 8.93023 14.3631ZM8.93023 17.7428C8.93023 17.2761 9.30507 16.8978 9.76744 16.8978H14.2326C14.6949 16.8978 15.0698 17.2761 15.0698 17.7428C15.0698 18.2094 14.6949 18.5877 14.2326 18.5877H9.76744C9.30507 18.5877 8.93023 18.2094 8.93023 17.7428Z" fill="#143A62"/>
</svg>
