<svg width="10" height="14" viewBox="0 0 10 14" fill="none" xmlns="http://www.w3.org/2000/svg">
<path d="M5.0475 0C2.31458 0 0 2.44439 0 5.33942C0 8.37139 2.68292 11.472 4.4875 13.6513C4.49458 13.6601 4.78625 14 5.14542 14H5.17708C5.53667 14 5.82625 13.6601 5.83333 13.6513C7.52667 11.6072 10 8.23619 10 5.33942C10 2.44395 8.19458 0 5.0475 0ZM5.21458 13.0642C5.2 13.0795 5.17875 13.0965 5.16 13.111C5.14083 13.097 5.12 13.0795 5.10458 13.0642L4.88667 12.8008C3.17583 10.7401 0.832917 7.91769 0.832917 5.33898C0.832917 2.91865 2.76292 0.874152 5.04708 0.874152C7.8925 0.874152 9.16625 3.11641 9.16625 5.33898C9.16625 7.29642 7.83667 9.89612 5.21458 13.0642ZM5.01458 2.64915C3.63417 2.64915 2.51458 3.82431 2.51458 5.27423C2.51458 6.72415 3.63417 7.89931 5.01458 7.89931C6.395 7.89931 7.51458 6.72371 7.51458 5.27423C7.51458 3.82474 6.39542 2.64915 5.01458 2.64915ZM5.01458 7.02428C4.09542 7.02428 3.32875 6.22013 3.32875 5.25498C3.32875 4.28982 4.07625 3.50492 4.99542 3.50492C5.915 3.50492 6.66208 4.28982 6.66208 5.25498C6.6625 6.22013 5.93417 7.02428 5.01458 7.02428Z" fill="#143A62"/>
</svg>
