<svg width="30" height="30" viewBox="0 0 30 30" fill="none" xmlns="http://www.w3.org/2000/svg">
<path d="M14.1667 0C15.0872 0 15.8333 0.7462 15.8333 1.66667C15.8333 2.5214 15.19 3.22585 14.361 3.32212L14.1667 3.33333H5V26.6667H21.6667V15.8333C21.6667 14.9128 22.4128 14.1667 23.3333 14.1667C24.1881 14.1667 24.8925 14.81 24.9888 15.639L25 15.8333V26.6667H28.3333C29.2538 26.6667 30 27.4128 30 28.3333C30 29.1881 29.3566 29.8925 28.5277 29.9888L28.3333 30H1.66667C0.7462 30 0 29.2538 0 28.3333C0 27.4786 0.643407 26.7742 1.4723 26.6779L1.66667 26.6667V3.33333C1.66667 1.57606 3.02646 0.136391 4.75123 0.00914295L5 0H14.1667ZM17.5 13.3333C18.8807 13.3333 20 14.4527 20 15.8333C20 17.214 18.8807 18.3333 17.5 18.3333C16.1193 18.3333 15 17.214 15 15.8333C15 14.4527 16.1193 13.3333 17.5 13.3333ZM25.9785 1.9526L29.5118 5.48582C30.1623 6.1364 30.1627 7.19108 29.5125 7.84208L25.9793 11.38C25.3288 12.0313 24.2735 12.032 23.6222 11.3815C22.971 10.7311 22.9703 9.6758 23.6207 9.0245L24.3138 8.33045H18.9667C18.0462 8.33045 17.3 7.58427 17.3 6.66378C17.3 5.74332 18.0462 4.99712 18.9667 4.99712H24.309L23.6215 4.30962C22.9707 3.65873 22.9707 2.60347 23.6215 1.9526C24.2723 1.30172 25.3277 1.30172 25.9785 1.9526Z" fill="white"/>
</svg>
