<svg width="35" height="28" viewBox="0 0 35 28" fill="none" xmlns="http://www.w3.org/2000/svg">
<path d="M31.5 0H3.5C1.56975 0 0 1.56975 0 3.5V24.5C0 26.4303 1.56975 28 3.5 28H31.5C33.4302 28 35 26.4303 35 24.5V3.5C35 1.56975 33.4302 0 31.5 0ZM11.7513 7C13.7655 7 15.2513 8.48575 15.2513 10.5C15.2513 12.5142 13.7655 14 11.7513 14C9.737 14 8.25125 12.5142 8.25125 10.5C8.25125 8.48575 9.73525 7 11.7513 7ZM18.2525 21H5.25V20.1862C5.25 17.7835 8.183 15.3125 11.7513 15.3125C15.3195 15.3125 18.2525 17.7835 18.2525 20.1862V21ZM29.75 19.25H22.75V15.75H29.75V19.25ZM29.75 12.25H21V8.75H29.75V12.25Z" fill="#143A62"/>
</svg>
