<svg width="63" height="59" viewBox="0 0 63 59" fill="none" xmlns="http://www.w3.org/2000/svg">
<g filter="url(#filter0_d_1959_3535)">
<path d="M47.1134 2C47.669 2 48.1849 2.27095 48.5053 2.71824L48.6302 2.92046L57.8132 20.3364L57.9115 20.5737L57.9381 20.6614L57.9771 20.8406L57.9984 21.0446L57.9936 21.275L58 21.125C58 21.3686 57.9505 21.6007 57.8609 21.8114L57.7949 21.9496L57.7018 22.104L57.581 22.2628L31.872 52.3154C31.6425 52.627 31.3283 52.8324 30.987 52.9311L30.8541 52.9638L30.6309 52.9951L30.4966 53L30.266 52.9842L30.071 52.9469L29.8342 52.8683L29.7753 52.84C29.5683 52.7475 29.3781 52.6096 29.2191 52.4286L3.38532 22.2292L3.24297 22.0261L3.13316 21.8103L3.05368 21.5801L3.00064 21.2761L3 20.9808L3.03406 20.752L3.05604 20.6611L3.13373 20.4384L3.19639 20.3069L12.364 2.92046C12.6254 2.42471 13.1046 2.0918 13.6456 2.01632L13.8807 2H47.1134ZM39.4492 22.8636H21.5379L30.4993 46.4164L39.4492 22.8636ZM17.8572 22.8636H8.46954L25.3677 42.6099L17.8572 22.8636ZM52.5177 22.8636H43.1369L35.6355 42.5937L52.5177 22.8636ZM21.3844 5.47495H14.9098L7.5734 19.3864H17.7151L21.3844 5.47495ZM36.0503 5.47495H24.9414L21.2722 19.3864H39.7174L36.0503 5.47495ZM46.0821 5.47495H39.6074L43.2767 19.3864H53.4139L46.0821 5.47495Z" fill="#FF8832"/>
</g>
<defs>
<filter id="filter0_d_1959_3535" x="0" y="0" width="63" height="59" filterUnits="userSpaceOnUse" color-interpolation-filters="sRGB">
<feFlood flood-opacity="0" result="BackgroundImageFix"/>
<feColorMatrix in="SourceAlpha" type="matrix" values="0 0 0 0 0 0 0 0 0 0 0 0 0 0 0 0 0 0 127 0" result="hardAlpha"/>
<feOffset dx="1" dy="2"/>
<feGaussianBlur stdDeviation="2"/>
<feComposite in2="hardAlpha" operator="out"/>
<feColorMatrix type="matrix" values="0 0 0 0 0 0 0 0 0 0 0 0 0 0 0 0 0 0 0.25 0"/>
<feBlend mode="normal" in2="BackgroundImageFix" result="effect1_dropShadow_1959_3535"/>
<feBlend mode="normal" in="SourceGraphic" in2="effect1_dropShadow_1959_3535" result="shape"/>
</filter>
</defs>
</svg>
