<svg width="20" height="20" viewBox="0 0 20 20" fill="none" xmlns="http://www.w3.org/2000/svg">
<path fill-rule="evenodd" clip-rule="evenodd" d="M18.9586 0.871209C17.797 -0.290398 15.9138 -0.290408 14.7521 0.871209L13.0866 2.53672L5.24786 10.3754C5.12079 10.5026 5.03066 10.6618 4.98707 10.8361L3.99558 14.8021C3.9111 15.14 4.0101 15.4974 4.25637 15.7436C4.50264 15.9899 4.86006 16.0889 5.19794 16.0045L9.16387 15.013C9.33828 14.9693 9.49741 14.8792 9.62452 14.7521L17.4063 6.97042L19.1288 5.24788C20.2904 4.08628 20.2904 2.20293 19.1288 1.04132L18.9586 0.871209ZM16.1543 2.27339C16.5415 1.88619 17.1693 1.88619 17.5565 2.27339L17.7266 2.4435C18.1138 2.83071 18.1138 3.4585 17.7266 3.8457L16.7188 4.85357L15.1766 3.25113L16.1543 2.27339ZM13.7741 4.65357L15.3163 6.25602L8.41659 13.1558L6.32014 13.6799L6.84424 11.5835L13.7741 4.65357ZM1.98299 6.11909C1.98299 5.57151 2.4269 5.12759 2.97448 5.12759H7.93194C8.47955 5.12759 8.92344 4.68369 8.92344 4.1361C8.92344 3.58851 8.47955 3.1446 7.93194 3.1446H2.97448C1.33172 3.1446 0 4.47633 0 6.11909V17.0255C0 18.6683 1.33172 20 2.97448 20H13.8809C15.5237 20 16.8554 18.6683 16.8554 17.0255V12.068C16.8554 11.5205 16.4115 11.0765 15.8639 11.0765C15.3163 11.0765 14.8724 11.5205 14.8724 12.068V17.0255C14.8724 17.5731 14.4285 18.017 13.8809 18.017H2.97448C2.4269 18.017 1.98299 17.5731 1.98299 17.0255V6.11909Z" fill="white"/>
</svg>
