<svg width="8" height="8" viewBox="0 0 8 8" fill="none" xmlns="http://www.w3.org/2000/svg">
<path d="M6.81053 2.84191L5.17616 1.19485M6.81053 2.84191L4.76817 4.90008C4.49903 5.17131 4.17236 5.38542 3.79731 5.45061C3.41863 5.51645 2.94868 5.53835 2.72457 5.3125C2.50046 5.08665 2.52219 4.61304 2.58751 4.23141C2.65219 3.85345 2.86468 3.52425 3.1338 3.25302L5.17616 1.19485M6.81053 2.84191C6.81053 2.84191 8.03627 1.60662 7.21909 0.783088C6.4019 -0.0404412 5.17616 1.19485 5.17616 1.19485M7.4461 4C7.4461 6.67647 6.62891 7.5 3.97305 7.5C1.31719 7.5 0.5 6.67647 0.5 4C0.5 1.32353 1.31719 0.5 3.97305 0.5" stroke="#143A62" stroke-linecap="round" stroke-linejoin="round"/>
</svg>
