<svg width="34" height="34" viewBox="0 0 34 34" fill="none" xmlns="http://www.w3.org/2000/svg">
<path d="M29.2796 4.51062H4.72036C2.11351 4.51062 0 6.62413 0 9.23098V24.769C0 27.3758 2.11351 29.4893 4.72036 29.4893H29.2796C31.8864 29.4893 34 27.3758 34 24.769V9.23098C34 6.62413 31.8864 4.51062 29.2796 4.51062ZM11.8313 21.3642L5.22126 27.0034C4.75502 27.4013 4.0541 27.346 3.65626 26.8793C3.25836 26.4131 3.31367 25.7121 3.78044 25.3143L10.3905 19.6751C10.8567 19.2772 11.5575 19.3325 11.9554 19.7993C12.3534 20.2654 12.298 20.9664 11.8313 21.3642ZM17 19.2203C16.1159 19.2181 15.2588 18.9244 14.5888 18.3449L14.5893 18.3454L14.5872 18.3438C14.5877 18.3444 14.5883 18.3444 14.5888 18.3449L4.4467 9.54216C3.98318 9.13987 3.93384 8.43901 4.33553 7.9761C4.73775 7.51258 5.43867 7.46324 5.90152 7.86493L16.0465 16.6699C16.2633 16.8628 16.6206 17.0022 17 17C17.3789 17.0011 17.7301 16.8656 17.9589 16.6661L17.9638 16.6618L28.0984 7.865C28.5613 7.46331 29.2622 7.51265 29.6645 7.97616C30.0661 8.43901 30.0168 9.13993 29.5533 9.54222L19.4084 18.3476C18.7406 18.921 17.8847 19.2192 17 19.2203ZM30.3442 26.8793C29.9463 27.346 29.2454 27.4013 28.7793 27.0034L22.1692 21.3642C21.7025 20.9663 21.6472 20.2654 22.0451 19.7993C22.4429 19.3325 23.1438 19.2772 23.61 19.6751L30.2201 25.3143C30.6868 25.7121 30.7421 26.4131 30.3442 26.8793Z" fill="#143A62"/>
</svg>
