<svg width="20" height="25" viewBox="0 0 20 25" fill="none" xmlns="http://www.w3.org/2000/svg">
<path d="M14.181 17.4039C13.1737 16.7869 12.8123 16.849 12.8123 15.6162C12.8123 15.1847 12.8123 14.383 12.8123 13.6434C13.3652 13.0272 13.5662 13.1039 14.0338 10.6846C14.9792 10.6846 14.9179 9.45176 15.3639 8.35821C15.7273 7.46768 15.4229 7.10664 15.1167 6.95909C15.367 3.71387 15.367 1.47881 11.697 0.785453C10.3668 -0.358931 8.35941 0.0295942 7.40817 0.220561C6.45774 0.411528 5.60039 0.220561 5.60039 0.220561L5.76366 1.75816C4.37189 3.43453 5.06787 5.66958 4.84379 6.97867C4.55179 7.13833 4.2884 7.50645 4.6361 8.35821C5.08198 9.45176 5.02073 10.6846 5.96619 10.6846C6.43371 13.1039 6.63473 13.0272 7.18764 13.6434C7.18764 14.383 7.18764 15.1847 7.18764 15.6162C7.18764 16.849 6.77017 16.8703 5.81897 17.4039C3.52562 18.6905 0.537119 19.438 0.00167953 23.4591C-0.0963984 24.1945 4.11103 24.9975 9.99998 25C15.8889 24.9975 20.0962 24.1945 19.9983 23.4591C19.4629 19.438 16.447 18.7914 14.181 17.4039Z" fill="white"/>
</svg>
