<svg width="33" height="33" viewBox="0 0 33 33" fill="none" xmlns="http://www.w3.org/2000/svg">
<path d="M16.5 24V13.5M16.5 13.5L21 18M16.5 13.5L12 18" stroke="#1C274C" stroke-opacity="0.8" stroke-width="3" stroke-linecap="round" stroke-linejoin="round"/>
<path d="M22.5 9H16.5H10.5" stroke="#1C274C" stroke-opacity="0.8" stroke-width="3" stroke-linecap="round"/>
<path d="M31.5 16.5C31.5 23.571 31.5 27.1066 29.3032 29.3032C27.1066 31.5 23.571 31.5 16.5 31.5C9.42893 31.5 5.89339 31.5 3.6967 29.3032C1.5 27.1066 1.5 23.571 1.5 16.5C1.5 9.42893 1.5 5.89339 3.6967 3.6967C5.89339 1.5 9.42893 1.5 16.5 1.5C23.571 1.5 27.1066 1.5 29.3032 3.6967C30.7639 5.15731 31.2534 7.20983 31.4174 10.5" stroke="#1C274C" stroke-opacity="0.8" stroke-width="3" stroke-linecap="round"/>
</svg>
