<svg width="25" height="21" viewBox="0 0 25 21" fill="none" xmlns="http://www.w3.org/2000/svg">
<path fill-rule="evenodd" clip-rule="evenodd" d="M16.25 8.64663C17.1923 8.64647 18.1093 8.34579 18.8649 7.78928C19.6204 7.23276 20.1741 6.45012 20.4437 5.55767H23.75C24.0815 5.55767 24.3995 5.42749 24.6339 5.19578C24.8683 4.96406 25 4.64979 25 4.32209C25 3.99439 24.8683 3.68012 24.6339 3.4484C24.3995 3.21668 24.0815 3.08651 23.75 3.08651H20.4437C20.1737 2.19452 19.6198 1.41241 18.8643 0.85637C18.1088 0.300326 17.1919 0 16.25 0C15.3081 0 14.3912 0.300326 13.6357 0.85637C12.8802 1.41241 12.3263 2.19452 12.0563 3.08651H1.25C0.918479 3.08651 0.600537 3.21668 0.366116 3.4484C0.131696 3.68012 0 3.99439 0 4.32209C0 4.64979 0.131696 4.96406 0.366116 5.19578C0.600537 5.42749 0.918479 5.55767 1.25 5.55767H12.0563C12.3259 6.45012 12.8796 7.23276 13.6351 7.78928C14.3907 8.34579 15.3077 8.64647 16.25 8.64663ZM1.25 15.4423C0.918479 15.4423 0.600537 15.5725 0.366116 15.8042C0.131696 16.0359 0 16.3502 0 16.6779C0 17.0056 0.131696 17.3199 0.366116 17.5516C0.600537 17.7833 0.918479 17.9135 1.25 17.9135H3.93125C4.20129 18.8055 4.75521 19.5876 5.51073 20.1436C6.26624 20.6997 7.18306 21 8.125 21C9.06694 21 9.98376 20.6997 10.7393 20.1436C11.4948 19.5876 12.0487 18.8055 12.3187 17.9135H23.75C24.0815 17.9135 24.3995 17.7833 24.6339 17.5516C24.8683 17.3199 25 17.0056 25 16.6779C25 16.3502 24.8683 16.0359 24.6339 15.8042C24.3995 15.5725 24.0815 15.4423 23.75 15.4423H12.3187C12.0487 14.5503 11.4948 13.7682 10.7393 13.2122C9.98376 12.6561 9.06694 12.3558 8.125 12.3558C7.18306 12.3558 6.26624 12.6561 5.51073 13.2122C4.75521 13.7682 4.20129 14.5503 3.93125 15.4423H1.25Z" fill="#143A62"/>
</svg>
