<svg width="1281" height="105" viewBox="0 0 1281 105" fill="none" xmlns="http://www.w3.org/2000/svg">
<path d="M0.0898438 25.9833C0.0898438 25.9833 350.29 13.4114 575.09 12.4366C799.889 11.4618 1280.09 25.9833 1280.09 25.9833V68.8403H0.0898438V25.9833Z" fill="#FBBC04"/>
<path d="M0.0898438 37.6064C0.0898438 37.6064 350.29 25.0344 575.09 24.0597C799.889 23.0849 1280.09 37.6064 1280.09 37.6064" stroke="white" stroke-width="5" stroke-dasharray="10 10"/>
<g filter="url(#filter0_i_3006_4812)">
<path d="M1280.09 105H0.0898438V11.664H309.166C309.06 11.6665 308.953 11.6683 308.847 11.6709H0.0898438C0.140852 11.6982 31.8907 28.7251 98.4688 34.7197C165.1 40.7189 207.007 14.1557 308.847 11.6709C317.999 11.4475 326.912 11.4615 335.631 11.6709C423.934 13.7912 492.461 35.9548 590.361 34.7197C697.929 33.3626 705.807 15.6612 830.506 11.6709C841.925 11.3055 853.76 11.3304 865.899 11.664H1280.09V105ZM869.003 11.7548C988.902 15.5478 1137.31 48.6152 1207.37 34.7197C1285.16 19.2912 1280.02 11.6709 1280.02 11.6709H866.176L869.003 11.7548ZM830.506 11.6709H335.631C335.523 11.6683 335.415 11.6665 335.308 11.664H830.735C830.659 11.6664 830.582 11.6684 830.506 11.6709Z" fill="#0A66C2"/>
</g>
<path d="M1239.35 15.0465C1239.27 15.1688 1239.17 15.2675 1239.04 15.391C1239.04 15.3911 1239.04 15.3912 1239.04 15.3912C1239.02 15.4089 1239 15.427 1238.98 15.4458C1238.83 15.5972 1238.63 15.7957 1238.35 16.1169C1238.05 16.4718 1237.74 16.6986 1237.52 16.8137C1237.48 16.8352 1237.44 16.8631 1237.37 16.9437C1237.33 16.984 1237.28 17.0361 1237.22 17.1054C1237.2 17.1268 1237.18 17.1499 1237.16 17.1747C1237.11 17.2306 1237.05 17.2957 1236.98 17.3714C1236.75 17.6224 1236.42 18.0374 1236.11 18.4159C1236.11 18.4174 1236.11 18.4189 1236.11 18.4204L1235.63 19.0598L1234.86 18.6663C1234.61 18.5206 1234.37 18.3806 1234.18 18.2689C1233.92 18.1045 1233.67 17.9321 1233.4 17.7438C1233.15 17.5712 1232.89 17.3854 1232.57 17.1781C1232.33 17.0189 1232.13 16.8128 1231.92 16.6024C1231.9 16.5756 1231.87 16.5487 1231.85 16.5217C1231.66 16.336 1231.48 16.1495 1231.26 15.9766C1230.87 15.669 1230.52 15.4884 1230.14 15.2782C1229.99 15.1962 1229.83 15.1101 1229.67 15.0122C1229.41 14.8573 1229.04 14.6211 1228.68 14.3825C1228.65 14.3621 1228.62 14.3418 1228.58 14.3215C1228.58 14.3214 1228.58 14.3213 1228.58 14.3212C1228.25 14.1024 1227.92 13.887 1227.68 13.7306C1227.29 13.4819 1227.15 13.3906 1227.03 13.3136C1226.98 13.2846 1226.94 13.2575 1226.89 13.2246C1226.71 13.1058 1226.44 12.9187 1226.17 12.7293C1226.17 12.7286 1226.17 12.7279 1226.17 12.7272C1226.13 12.6955 1226.09 12.6701 1226.09 12.6705C1226.09 12.6708 1226.13 12.6941 1226.17 12.7224C1226.32 12.8136 1226.47 12.9027 1226.6 12.982C1226.61 12.979 1226.65 12.9938 1226.69 13.0183C1226.79 13.0794 1227.12 13.2655 1227.65 13.522C1227.62 13.4989 1227.59 13.4792 1227.57 13.4619C1227.54 13.4416 1227.52 13.4258 1227.5 13.4124C1227.46 13.3844 1227.43 13.3662 1227.38 13.3377C1227.27 13.2748 1227.09 13.1807 1226.9 13.082C1226.85 13.0569 1226.81 13.0275 1226.82 13.0163C1226.83 13.0052 1226.87 13.0139 1226.92 13.0359C1226.92 13.0364 1226.92 13.0368 1226.92 13.0372C1227.12 13.1245 1227.31 13.2114 1227.44 13.2708C1227.47 13.286 1227.49 13.2993 1227.51 13.3095C1227.53 13.3177 1227.55 13.328 1227.56 13.3345C1227.56 13.3353 1227.56 13.337 1227.57 13.3391C1227.57 13.3391 1227.57 13.3392 1227.57 13.3392C1227.57 13.3404 1227.58 13.3464 1227.59 13.3545C1227.59 13.3561 1227.59 13.3598 1227.6 13.3647C1227.6 13.3655 1227.6 13.3663 1227.6 13.3671C1227.62 13.3786 1227.64 13.3905 1227.66 13.4031C1227.73 13.4525 1227.85 13.5278 1228.11 13.6799C1228.34 13.8197 1228.75 14.0433 1229.26 14.3119C1229.23 14.2904 1229.2 14.269 1229.16 14.248C1229.08 14.1949 1229 14.1429 1228.91 14.0917C1228.88 14.0721 1228.85 14.0528 1228.81 14.0334C1228.76 14.002 1228.71 13.9709 1228.66 13.9401C1228.62 13.9192 1228.58 13.8984 1228.55 13.8778C1228.55 13.8778 1228.55 13.8777 1228.55 13.8777C1228.5 13.849 1228.45 13.8204 1228.4 13.7918C1228.38 13.7817 1228.36 13.7718 1228.34 13.762C1228.27 13.7229 1228.21 13.6849 1228.13 13.639C1228.12 13.6332 1228.11 13.6266 1228.1 13.6216C1228.09 13.6162 1228.09 13.611 1228.08 13.606C1228.07 13.6016 1228.07 13.5973 1228.06 13.5933C1228.06 13.5927 1228.06 13.5922 1228.06 13.5916C1228.05 13.5871 1228.05 13.5828 1228.04 13.5787C1228.03 13.5746 1228.03 13.5707 1228.02 13.567C1228.02 13.5669 1228.02 13.5669 1228.02 13.5669C1228.02 13.563 1228.01 13.56 1228.01 13.5561C1228 13.5511 1227.99 13.5469 1227.98 13.5421C1227.97 13.5373 1227.96 13.5325 1227.96 13.5277C1227.95 13.5229 1227.94 13.5181 1227.93 13.5133C1227.92 13.5085 1227.91 13.5037 1227.9 13.4988C1227.89 13.494 1227.88 13.4892 1227.87 13.4843C1227.86 13.4794 1227.85 13.4745 1227.84 13.4696C1227.82 13.4582 1227.8 13.4428 1227.79 13.4268C1227.78 13.4108 1227.77 13.3956 1227.78 13.384C1227.79 13.3725 1227.8 13.3653 1227.82 13.3637C1227.85 13.3622 1227.87 13.3664 1227.9 13.3755C1227.9 13.378 1227.91 13.3805 1227.92 13.383C1227.92 13.3845 1227.92 13.386 1227.93 13.3875C1227.94 13.3915 1227.95 13.3956 1227.96 13.3998C1227.97 13.4039 1227.98 13.4081 1227.99 13.4125C1228 13.4168 1228.01 13.4212 1228.02 13.4258C1228.04 13.4304 1228.05 13.4352 1228.06 13.4402C1228.07 13.445 1228.08 13.4508 1228.09 13.4561C1228.1 13.4599 1228.11 13.4649 1228.12 13.4691C1228.13 13.4735 1228.14 13.478 1228.14 13.4823C1228.15 13.4867 1228.16 13.491 1228.17 13.4951C1228.17 13.4955 1228.17 13.4959 1228.17 13.4964C1228.18 13.5 1228.18 13.5035 1228.19 13.5068C1228.2 13.5105 1228.2 13.5139 1228.21 13.5171C1228.21 13.5207 1228.22 13.5227 1228.22 13.5251C1228.29 13.5557 1228.38 13.5912 1228.46 13.6251C1228.47 13.6293 1228.48 13.6336 1228.49 13.6378C1228.54 13.66 1228.6 13.6821 1228.65 13.7043C1228.69 13.7204 1228.73 13.7365 1228.77 13.7527C1228.83 13.7765 1228.88 13.8005 1228.94 13.8246C1228.98 13.8396 1229.01 13.8544 1229.05 13.8694C1229.14 13.9088 1229.23 13.9488 1229.33 13.9897C1229.42 14.0306 1229.51 14.0727 1229.6 14.1164C1229.69 14.1599 1229.79 14.2069 1229.88 14.2554C1229.94 14.2912 1230.01 14.3322 1230.06 14.3717C1230.1 14.3929 1230.13 14.414 1230.16 14.4351C1230.16 14.4352 1230.16 14.4352 1230.16 14.4353C1230.18 14.4538 1230.21 14.4721 1230.24 14.4902C1230.29 14.529 1230.35 14.5666 1230.4 14.603C1230.46 14.6394 1230.51 14.6744 1230.57 14.7084C1230.63 14.742 1230.68 14.7749 1230.74 14.8062C1230.8 14.8376 1230.86 14.8672 1230.92 14.8973C1231 14.9366 1231.09 14.974 1231.17 15.012C1231.25 15.0497 1231.34 15.0871 1231.42 15.1245C1231.45 15.1376 1231.48 15.1508 1231.51 15.1639C1231.51 15.1639 1231.51 15.164 1231.51 15.164C1231.57 15.1883 1231.62 15.2125 1231.68 15.2369C1231.76 15.2746 1231.85 15.3125 1231.94 15.3512C1232.02 15.3899 1232.11 15.4294 1232.19 15.4706C1232.28 15.5118 1232.36 15.5553 1232.45 15.6032C1232.53 15.6457 1232.6 15.69 1232.67 15.7336C1232.69 15.7451 1232.71 15.7566 1232.73 15.7681C1232.83 15.8227 1232.92 15.8748 1233.01 15.9224C1233.1 15.97 1233.19 16.0138 1233.29 16.0547C1233.38 16.0954 1233.48 16.1337 1233.58 16.1703C1233.68 16.207 1233.78 16.2413 1233.89 16.2751C1233.99 16.3087 1234.09 16.3412 1234.2 16.3733C1234.26 16.3912 1234.32 16.4115 1234.38 16.4315C1234.43 16.4517 1234.49 16.4726 1234.55 16.4937C1234.57 16.5022 1234.59 16.5108 1234.62 16.5193C1234.65 16.5317 1234.68 16.544 1234.71 16.5559C1234.77 16.576 1234.82 16.595 1234.88 16.6121C1234.93 16.6292 1234.98 16.6443 1235.03 16.6566C1235.09 16.6692 1235.13 16.6773 1235.19 16.6843C1235.32 16.7097 1235.39 16.7357 1235.48 16.7645C1235.49 16.7702 1235.51 16.7759 1235.53 16.7818C1235.63 16.8173 1235.73 16.8561 1235.82 16.8967C1235.83 16.8996 1235.83 16.9025 1235.84 16.9054L1234.53 17.1636C1234.59 17.0821 1234.64 17.003 1234.7 16.9245C1234.76 16.8408 1234.82 16.7582 1234.88 16.6774C1234.95 16.5967 1235.01 16.5177 1235.08 16.4401C1235.15 16.3625 1235.22 16.2849 1235.29 16.2118C1235.33 16.1696 1235.38 16.1258 1235.42 16.0856C1235.45 16.0566 1235.48 16.0282 1235.51 16.0005C1235.52 15.9892 1235.53 15.9779 1235.54 15.9667C1235.58 15.9296 1235.62 15.8934 1235.66 15.8574C1235.66 15.8561 1235.66 15.8547 1235.66 15.8534C1235.7 15.8161 1235.73 15.7791 1235.76 15.7415C1235.8 15.7037 1235.83 15.6653 1235.85 15.6252C1235.88 15.5836 1235.9 15.5478 1235.93 15.5002C1235.95 15.4692 1235.96 15.4388 1235.98 15.4084C1236 15.3629 1236.03 15.3176 1236.05 15.2718C1236.08 15.2261 1236.1 15.1808 1236.12 15.135C1236.13 15.1203 1236.14 15.1048 1236.15 15.09C1236.17 15.0442 1236.19 14.9988 1236.21 14.953C1236.24 14.9073 1236.26 14.8616 1236.28 14.8157C1236.3 14.7696 1236.32 14.7238 1236.34 14.6766C1236.37 14.5964 1236.41 14.5277 1236.45 14.4691C1236.49 14.4099 1236.53 14.3566 1236.57 14.3048C1236.58 14.2951 1236.59 14.2854 1236.59 14.2757C1236.62 14.234 1236.65 14.1931 1236.68 14.1525C1236.72 14.1024 1236.76 14.0527 1236.79 14.0023C1236.83 13.9523 1236.86 13.9013 1236.89 13.8503C1236.93 13.7987 1236.96 13.7489 1236.99 13.6943C1237.02 13.6405 1237.05 13.5838 1237.08 13.5219C1237.12 13.4606 1237.15 13.3967 1237.19 13.3335C1237.23 13.2703 1237.27 13.2077 1237.31 13.1472C1237.35 13.0866 1237.39 13.0274 1237.44 12.9705C1237.48 12.9133 1237.53 12.8578 1237.58 12.8037C1237.63 12.7497 1237.68 12.6951 1237.73 12.645C1237.81 12.5638 1237.89 12.4838 1237.97 12.4041C1238.05 12.3249 1238.13 12.2459 1238.21 12.1673C1238.29 12.089 1238.37 12.0108 1238.45 11.933C1238.53 11.8552 1238.62 11.7776 1238.7 11.7004C1238.72 11.6833 1238.74 11.6662 1238.75 11.6491C1238.82 11.589 1238.88 11.5289 1238.95 11.4692C1238.95 11.4688 1238.95 11.4684 1238.95 11.468C1239.03 11.391 1239.11 11.3155 1239.19 11.239C1239.22 11.2109 1239.25 11.1839 1239.28 11.1563C1239.31 11.1287 1239.34 11.1015 1239.36 11.0739C1239.39 11.0464 1239.42 11.0188 1239.45 10.9914C1239.48 10.9638 1239.5 10.9367 1239.53 10.909C1239.55 10.8836 1239.58 10.8581 1239.6 10.8302C1239.61 10.8277 1239.61 10.8252 1239.61 10.8226C1239.64 10.7922 1239.67 10.7581 1239.7 10.7275C1239.79 10.6465 1239.87 10.5671 1239.96 10.4858C1240.04 10.4045 1240.12 10.323 1240.21 10.2408C1240.24 10.2087 1240.27 10.1764 1240.3 10.1442C1240.36 10.0941 1240.41 10.044 1240.46 9.99391C1240.54 9.91151 1240.63 9.82964 1240.72 9.74824C1240.81 9.66715 1240.9 9.58655 1240.99 9.50727C1241.08 9.42804 1241.17 9.34903 1241.26 9.27176C1241.37 9.18569 1241.47 9.10047 1241.57 9.01491C1241.67 8.92949 1241.78 8.84409 1241.88 8.75901C1241.98 8.67361 1242.09 8.58836 1242.19 8.50296C1242.29 8.4175 1242.39 8.33195 1242.5 8.24614C1242.56 8.19478 1242.62 8.14338 1242.68 8.09185C1242.71 8.06216 1242.74 8.03378 1242.76 8.00659C1242.96 7.80594 1243.11 7.66524 1243.32 7.48542C1243.34 7.46806 1243.36 7.4537 1243.37 7.43632C1243.38 7.433 1243.38 7.42949 1243.39 7.42591C1243.41 7.40324 1243.44 7.37741 1243.48 7.3423C1243.56 7.27194 1243.7 7.16853 1243.86 7.0342C1243.91 7.00034 1243.94 6.97998 1243.93 6.9897C1243.93 6.99659 1243.91 7.01711 1243.88 7.04135C1243.93 6.99789 1243.98 6.95437 1244.02 6.91077C1244.04 6.89337 1244.06 6.87713 1244.07 6.86547C1244.08 6.85468 1244.09 6.84864 1244.09 6.84863C1244.09 6.84863 1244.09 6.84863 1244.09 6.84863C1244.09 6.84863 1244.09 6.84867 1244.09 6.84875C1244.09 6.84977 1244.08 6.85797 1244.07 6.8718C1244.05 6.88561 1244.04 6.90389 1244.02 6.92238C1243.97 6.9714 1243.93 7.02025 1243.88 7.06911C1243.83 7.11802 1243.79 7.16671 1243.74 7.2156C1243.69 7.26447 1243.65 7.31337 1243.6 7.36249C1243.56 7.41142 1243.51 7.46051 1243.46 7.50976C1243.42 7.55933 1243.37 7.60805 1243.33 7.65763C1243.3 7.68734 1243.27 7.71742 1243.24 7.74699C1243.23 7.75801 1243.22 7.76879 1243.21 7.77956C1243.21 7.78836 1243.2 7.7972 1243.19 7.80631C1243.1 7.90216 1243.01 7.99923 1242.92 8.09575C1242.84 8.19272 1242.75 8.2899 1242.66 8.38739C1242.57 8.48494 1242.49 8.58273 1242.4 8.68087C1242.31 8.77895 1242.23 8.87729 1242.14 8.97616C1242.06 9.07466 1241.97 9.17388 1241.89 9.27327C1241.82 9.35015 1241.76 9.42666 1241.69 9.50358C1241.67 9.53617 1241.65 9.56838 1241.63 9.60018C1241.56 9.69272 1241.5 9.78869 1241.44 9.88417C1241.57 9.72884 1241.66 9.60069 1241.75 9.47963C1241.76 9.46339 1241.77 9.44727 1241.78 9.43124C1241.91 9.2675 1242.03 9.11264 1242.21 8.91634C1242.72 8.35772 1243.01 8.03455 1243.2 7.83431C1243.39 7.63406 1243.47 7.55005 1243.55 7.4732C1243.66 7.36493 1243.85 7.13716 1243.95 7.02151C1243.98 6.97972 1244.01 6.94692 1244.01 6.94828C1244.01 6.94965 1243.99 6.98659 1243.96 7.03073C1243.86 7.15871 1243.67 7.41752 1243.54 7.55191C1243.49 7.6119 1243.43 7.68246 1243.25 7.88874C1243.08 8.09493 1242.81 8.42997 1242.32 9.01203C1242.16 9.2088 1242.05 9.36305 1241.94 9.53051C1241.93 9.54693 1241.91 9.56351 1241.9 9.58023C1241.9 9.58033 1241.9 9.58043 1241.9 9.58052C1241.8 9.73461 1241.69 9.90395 1241.52 10.1233C1241.15 10.628 1240.67 11.3232 1240.57 11.4994C1240.55 11.5338 1240.53 11.5677 1240.51 11.6035C1240.43 11.7407 1240.34 11.9071 1240.11 12.254C1240.06 12.3298 1239.99 12.417 1239.92 12.511C1239.85 12.6767 1239.78 12.8376 1239.71 12.971C1239.64 13.0861 1239.6 13.2044 1239.57 13.3225C1239.56 13.3565 1239.55 13.3911 1239.54 13.4257C1239.51 13.509 1239.49 13.5926 1239.46 13.6703C1239.44 13.7323 1239.42 13.7991 1239.4 13.8699C1239.32 14.1276 1239.23 14.4399 1239 14.756C1238.76 15.0909 1238.53 15.3616 1238.33 15.5923C1238.48 15.4283 1238.61 15.3072 1238.71 15.2069C1238.73 15.188 1238.75 15.1699 1238.77 15.1525C1238.9 15.0293 1239 14.9391 1239.08 14.8267C1239.46 14.2893 1239.58 14.067 1239.68 13.7884C1239.71 13.715 1239.73 13.6311 1239.76 13.5409C1239.81 13.3607 1239.88 13.156 1239.97 12.9582C1240.06 12.7739 1240.15 12.5607 1240.25 12.3369C1240.25 12.3368 1240.25 12.3367 1240.25 12.3367C1240.27 12.2929 1240.29 12.2487 1240.31 12.2043C1240.44 11.9332 1240.57 11.6533 1240.72 11.3957C1240.74 11.3682 1240.76 11.3348 1240.78 11.2964C1240.9 11.0743 1241.13 10.6927 1241.48 10.2876C1241.56 10.1983 1241.65 10.11 1241.74 10.0081C1241.77 9.97708 1241.8 9.94481 1241.84 9.91086C1241.97 9.76434 1242.13 9.58215 1242.33 9.32719C1242.49 9.11682 1242.68 8.8546 1242.88 8.58096C1242.98 8.44616 1243.08 8.30856 1243.17 8.17273C1243.47 7.7625 1243.73 7.38399 1243.99 6.99982C1243.99 6.99974 1243.99 6.99966 1243.99 6.99959C1244.02 6.95437 1244.04 6.91942 1244.04 6.9218C1244.04 6.92418 1244.02 6.96485 1243.99 7.01239C1243.76 7.41402 1243.52 7.80763 1243.24 8.23309C1243.16 8.37228 1243.06 8.51423 1242.97 8.65373C1242.79 8.93941 1242.61 9.21508 1242.45 9.43509C1242.26 9.70375 1242.11 9.8958 1241.98 10.0496C1241.94 10.0866 1241.91 10.1212 1241.89 10.1539C1241.79 10.2582 1241.72 10.3438 1241.65 10.4312C1241.32 10.8363 1241.11 11.2125 1241 11.4406C1240.97 11.4808 1240.96 11.5163 1240.94 11.5461C1240.8 11.8045 1240.67 12.0857 1240.56 12.3616C1240.54 12.4063 1240.52 12.4509 1240.5 12.4953C1240.5 12.4954 1240.5 12.4955 1240.5 12.4956C1240.41 12.7234 1240.32 12.944 1240.23 13.1349C1240.14 13.3285 1240.09 13.5159 1240.04 13.6922C1240.01 13.7867 1239.98 13.878 1239.96 13.965C1239.86 14.2642 1239.73 14.5012 1239.35 15.0465ZM1243.81 7.10843C1243.71 7.19646 1243.63 7.26821 1243.57 7.32284C1243.62 7.27742 1243.67 7.232 1243.72 7.18639C1243.75 7.16043 1243.78 7.13445 1243.81 7.10843ZM1239.67 12.3325C1239.68 12.3129 1239.69 12.2931 1239.7 12.2732C1239.67 12.3208 1239.63 12.3684 1239.6 12.4158C1239.55 12.4741 1239.51 12.5324 1239.47 12.5906C1239.54 12.5013 1239.61 12.4143 1239.67 12.3325ZM1238.73 14.5359C1238.95 14.2412 1239.03 13.9576 1239.11 13.7047C1239.14 13.6318 1239.16 13.5614 1239.18 13.4937C1239.2 13.4657 1239.21 13.4371 1239.21 13.4079C1239.11 13.5369 1239.01 13.6547 1238.93 13.7511C1238.69 14.0385 1238.53 14.1879 1238.4 14.3188C1238.36 14.3566 1238.32 14.393 1238.28 14.4307C1238.27 14.4727 1238.25 14.516 1238.23 14.5589C1238.2 14.619 1238.17 14.6828 1238.13 14.7427C1238.1 14.8029 1238.07 14.8631 1238.04 14.9213C1238 14.98 1237.97 15.0373 1237.93 15.0937C1237.9 15.1467 1237.86 15.199 1237.83 15.2496C1237.83 15.2525 1237.83 15.2554 1237.82 15.2583C1237.79 15.3118 1237.76 15.3637 1237.73 15.4131C1237.7 15.4633 1237.67 15.5068 1237.66 15.5488C1237.64 15.6014 1237.62 15.6546 1237.6 15.7066C1237.58 15.7587 1237.55 15.81 1237.53 15.8605C1237.51 15.9112 1237.49 15.9609 1237.46 16.0103C1237.45 16.0262 1237.45 16.0429 1237.44 16.0587C1237.43 16.0659 1237.43 16.0732 1237.43 16.0804C1237.49 15.9991 1237.56 15.915 1237.63 15.8287C1237.74 15.7039 1237.85 15.5751 1237.98 15.4326C1238.2 15.1895 1238.45 14.9063 1238.73 14.5359ZM1236.47 17.3401C1236.49 17.3041 1236.53 17.2505 1236.58 17.1813C1236.6 17.1649 1236.61 17.1476 1236.62 17.1295C1236.62 17.1298 1236.62 17.1302 1236.62 17.1306C1236.58 17.168 1236.54 17.2028 1236.5 17.2411C1236.43 17.3095 1236.36 17.3768 1236.29 17.4459C1236.22 17.5153 1236.15 17.5856 1236.09 17.6569C1236.02 17.7284 1235.95 17.8012 1235.89 17.8745C1235.83 17.9485 1235.77 18.0224 1235.71 18.0985C1235.71 18.0986 1235.71 18.0988 1235.71 18.099L1235.48 18.4032L1235.11 18.216C1235.09 18.2012 1235.06 18.1865 1235.03 18.172C1235.06 18.1905 1235.08 18.209 1235.11 18.2277L1235.48 18.4202L1235.72 18.1073C1235.74 18.0789 1235.77 18.0494 1235.81 18.0191C1235.85 17.9761 1235.89 17.9312 1235.94 17.8847C1235.96 17.8669 1235.98 17.8459 1236.01 17.8215C1236.12 17.7246 1236.29 17.5729 1236.47 17.3401ZM1234.31 17.8728C1234.29 17.8635 1234.27 17.8541 1234.25 17.8445C1234.19 17.8172 1234.14 17.7887 1234.09 17.7601C1234.05 17.7401 1234.01 17.7199 1233.98 17.7001C1233.96 17.6917 1233.95 17.6834 1233.93 17.6751C1233.91 17.6612 1233.88 17.6476 1233.85 17.6341C1234.02 17.7445 1234.19 17.8503 1234.36 17.9549C1234.36 17.9562 1234.36 17.9575 1234.37 17.9589C1234.35 17.9295 1234.33 17.9008 1234.31 17.8728Z" fill="black"/>
<path d="M1234.31 8.42372C1234.25 8.51695 1234.17 8.58838 1234.07 8.67748C1234.07 8.67754 1234.07 8.6776 1234.07 8.67765C1234.06 8.69038 1234.04 8.70343 1234.03 8.717C1233.91 8.82618 1233.75 8.96996 1233.54 9.20852C1233.31 9.47212 1233.06 9.62648 1232.87 9.69736C1232.84 9.71058 1232.81 9.72995 1232.75 9.78896C1232.72 9.8185 1232.69 9.85697 1232.64 9.90806C1232.62 9.92386 1232.61 9.94087 1232.59 9.9592C1232.55 10.0005 1232.51 10.0484 1232.45 10.1042C1232.28 10.2891 1232.03 10.6004 1231.8 10.8834C1231.8 10.8846 1231.8 10.8857 1231.8 10.8868L1231.33 11.5222L1230.55 11.1327C1230.36 11.0227 1230.18 10.9166 1230.04 10.8307C1229.85 10.7042 1229.66 10.5684 1229.46 10.4199C1229.28 10.2838 1229.09 10.1371 1228.86 9.97511C1228.68 9.85061 1228.54 9.67831 1228.39 9.50214C1228.37 9.4797 1228.36 9.45717 1228.34 9.43464C1228.21 9.27913 1228.08 9.12356 1227.92 8.98419C1227.63 8.73617 1227.37 8.60316 1227.09 8.44564C1226.98 8.38427 1226.86 8.31959 1226.74 8.24483C1226.54 8.12662 1226.27 7.94317 1226 7.75749C1225.98 7.74167 1225.96 7.72586 1225.93 7.71004C1225.93 7.70996 1225.93 7.70988 1225.93 7.7098C1225.68 7.53952 1225.44 7.37168 1225.26 7.25016C1224.98 7.05699 1224.87 6.98652 1224.78 6.92691C1224.75 6.90446 1224.71 6.88348 1224.68 6.85775C1224.54 6.76502 1224.35 6.61716 1224.15 6.46757C1224.15 6.467 1224.15 6.46643 1224.15 6.46586C1224.12 6.44079 1224.09 6.42072 1224.09 6.42106C1224.09 6.42139 1224.12 6.43928 1224.15 6.46102C1224.26 6.53112 1224.37 6.59964 1224.47 6.66056C1224.48 6.65653 1224.5 6.66637 1224.54 6.68496C1224.62 6.7312 1224.86 6.87169 1225.26 7.05684C1225.24 7.03862 1225.22 7.02307 1225.2 7.00933C1225.18 6.9932 1225.16 6.98069 1225.15 6.97003C1225.12 6.94783 1225.1 6.93342 1225.06 6.91178C1224.98 6.86472 1224.84 6.79547 1224.7 6.72289C1224.66 6.70435 1224.64 6.6803 1224.64 6.6691C1224.65 6.65791 1224.69 6.66128 1224.72 6.6767C1224.72 6.677 1224.73 6.67731 1224.73 6.67761C1224.88 6.73896 1225.02 6.80029 1225.12 6.84318C1225.14 6.85409 1225.16 6.86381 1225.17 6.87131C1225.19 6.87729 1225.2 6.88489 1225.21 6.88987C1225.21 6.89053 1225.21 6.89182 1225.21 6.89347C1225.21 6.8935 1225.21 6.89353 1225.21 6.89356C1225.22 6.89448 1225.22 6.89916 1225.23 6.9059C1225.23 6.90727 1225.23 6.91027 1225.24 6.91447C1225.24 6.91511 1225.24 6.91575 1225.24 6.9164C1225.25 6.92536 1225.26 6.93459 1225.28 6.94439C1225.33 6.98282 1225.43 7.04081 1225.62 7.15678C1225.79 7.2633 1226.1 7.43076 1226.48 7.62916C1226.46 7.61241 1226.43 7.59584 1226.41 7.57949C1226.35 7.53837 1226.28 7.49834 1226.22 7.45914C1226.2 7.44413 1226.17 7.42942 1226.15 7.41459C1226.11 7.39069 1226.07 7.36701 1226.03 7.34362C1226 7.32781 1225.98 7.3121 1225.95 7.29649C1225.95 7.29646 1225.95 7.29643 1225.95 7.2964C1225.91 7.27473 1225.87 7.25317 1225.84 7.23159C1225.82 7.22397 1225.81 7.2165 1225.8 7.20912C1225.74 7.17976 1225.69 7.15118 1225.64 7.11627C1225.63 7.11174 1225.62 7.10661 1225.62 7.10268C1225.61 7.09847 1225.6 7.09437 1225.6 7.09042C1225.59 7.08693 1225.59 7.08355 1225.59 7.08034C1225.59 7.07992 1225.59 7.07949 1225.58 7.07906C1225.58 7.07548 1225.58 7.0721 1225.57 7.06888C1225.57 7.06567 1225.56 7.06258 1225.56 7.05966C1225.56 7.05964 1225.56 7.05962 1225.56 7.0596C1225.55 7.05657 1225.55 7.05428 1225.55 7.05124C1225.54 7.04744 1225.53 7.04426 1225.53 7.04057C1225.52 7.037 1225.51 7.03338 1225.51 7.02981C1225.5 7.02625 1225.49 7.0227 1225.49 7.01916C1225.48 7.01561 1225.47 7.01204 1225.47 7.0085C1225.46 7.00495 1225.45 7.00142 1225.44 6.99786C1225.44 6.99431 1225.43 6.99072 1225.42 6.98714C1225.41 6.97887 1225.39 6.96639 1225.38 6.95257C1225.38 6.93872 1225.38 6.92472 1225.38 6.91315C1225.39 6.90158 1225.4 6.8932 1225.42 6.88944C1225.44 6.88569 1225.46 6.8869 1225.48 6.89294C1225.48 6.89459 1225.49 6.89623 1225.49 6.8979C1225.49 6.89889 1225.5 6.8999 1225.5 6.9009C1225.51 6.90359 1225.52 6.90628 1225.52 6.90905C1225.53 6.91182 1225.54 6.91467 1225.55 6.91758C1225.56 6.9205 1225.57 6.92351 1225.57 6.92665C1225.58 6.92979 1225.59 6.93309 1225.6 6.93657C1225.61 6.93996 1225.62 6.94401 1225.63 6.94782C1225.63 6.95059 1225.64 6.95422 1225.65 6.95731C1225.65 6.96053 1225.66 6.96381 1225.67 6.96705C1225.67 6.97029 1225.68 6.97352 1225.68 6.97659C1225.68 6.97692 1225.68 6.97724 1225.68 6.97757C1225.69 6.98029 1225.69 6.98294 1225.7 6.9854C1225.7 6.98815 1225.71 6.9907 1225.71 6.99306C1225.72 6.99567 1225.72 6.99713 1225.73 6.9989C1225.78 7.02044 1225.84 7.04472 1225.91 7.0679C1225.91 7.07081 1225.92 7.07373 1225.93 7.0766C1225.97 7.0918 1226.01 7.10692 1226.05 7.12206C1226.08 7.13306 1226.11 7.14408 1226.14 7.15517C1226.19 7.17149 1226.23 7.18797 1226.27 7.20457C1226.3 7.21488 1226.33 7.22507 1226.36 7.2355C1226.43 7.2627 1226.5 7.29046 1226.57 7.3192C1226.64 7.34791 1226.71 7.37771 1226.78 7.40911C1226.85 7.44041 1226.92 7.47464 1226.98 7.51091C1227.03 7.53766 1227.08 7.5694 1227.12 7.60034C1227.15 7.61698 1227.17 7.63359 1227.19 7.65018C1227.19 7.65025 1227.19 7.65032 1227.19 7.65039C1227.21 7.66495 1227.23 7.67944 1227.25 7.6937C1227.29 7.72431 1227.33 7.75387 1227.37 7.78223C1227.41 7.81057 1227.45 7.83765 1227.5 7.86351C1227.54 7.88917 1227.58 7.91395 1227.63 7.93717C1227.67 7.96051 1227.72 7.98216 1227.76 8.00385C1227.82 8.03224 1227.89 8.05872 1227.95 8.08556C1228.01 8.11214 1228.08 8.13832 1228.14 8.16452C1228.17 8.17367 1228.19 8.18292 1228.21 8.19208C1228.21 8.19212 1228.21 8.19216 1228.21 8.1922C1228.25 8.20915 1228.3 8.22613 1228.34 8.24321C1228.4 8.26959 1228.47 8.29619 1228.53 8.32354C1228.6 8.35089 1228.66 8.37901 1228.73 8.40867C1228.79 8.43841 1228.86 8.47018 1228.92 8.50617C1228.98 8.53816 1229.04 8.5718 1229.09 8.60496C1229.11 8.61371 1229.12 8.62247 1229.14 8.63125C1229.2 8.6728 1229.27 8.71226 1229.34 8.74733C1229.41 8.78248 1229.48 8.81378 1229.55 8.84209C1229.63 8.87032 1229.7 8.89588 1229.78 8.91966C1229.86 8.94355 1229.93 8.96512 1230.01 8.98599C1230.09 9.00666 1230.17 9.02628 1230.26 9.04528C1230.3 9.05588 1230.35 9.06849 1230.39 9.08122C1230.44 9.09406 1230.48 9.10764 1230.53 9.12143C1230.54 9.12702 1230.56 9.1327 1230.58 9.13828C1230.6 9.14642 1230.63 9.15454 1230.65 9.16231C1230.7 9.17543 1230.74 9.18766 1230.78 9.19818C1230.82 9.20869 1230.86 9.21739 1230.9 9.22344C1230.94 9.22965 1230.98 9.23252 1231.02 9.23314C1231.13 9.24324 1231.18 9.25967 1231.25 9.27791C1231.26 9.2815 1231.27 9.28508 1231.29 9.28878C1231.36 9.31154 1231.44 9.33761 1231.51 9.36571C1231.52 9.36772 1231.52 9.36973 1231.53 9.37176L1230.22 9.62998C1230.26 9.5673 1230.3 9.50691 1230.34 9.44722C1230.38 9.38361 1230.43 9.32125 1230.48 9.26061C1230.53 9.20007 1230.58 9.14116 1230.63 9.08365C1230.68 9.02616 1230.73 8.9691 1230.79 8.91577C1230.82 8.88494 1230.85 8.85321 1230.89 8.82426C1230.91 8.80336 1230.93 8.78302 1230.96 8.76311C1230.97 8.75498 1230.98 8.7469 1230.99 8.73888C1231.02 8.71226 1231.05 8.68618 1231.08 8.66012C1231.08 8.65913 1231.08 8.65814 1231.08 8.65715C1231.11 8.6301 1231.13 8.60301 1231.16 8.57499C1231.18 8.54693 1231.21 8.51793 1231.23 8.48733C1231.25 8.45554 1231.26 8.42791 1231.28 8.39081C1231.29 8.36659 1231.3 8.34277 1231.31 8.31902C1231.33 8.28345 1231.35 8.24803 1231.36 8.21218C1231.38 8.17639 1231.39 8.14087 1231.41 8.10496C1231.41 8.09341 1231.42 8.08122 1231.42 8.06959C1231.44 8.03364 1231.45 7.99787 1231.47 7.96176C1231.48 7.92571 1231.5 7.88965 1231.51 7.85326C1231.52 7.81672 1231.54 7.78036 1231.55 7.74279C1231.57 7.67888 1231.6 7.6258 1231.63 7.58091C1231.65 7.5356 1231.68 7.49522 1231.71 7.45602C1231.72 7.44868 1231.72 7.44134 1231.73 7.43401C1231.75 7.40247 1231.77 7.37159 1231.8 7.34079C1231.82 7.30283 1231.85 7.26504 1231.87 7.22657C1231.9 7.18846 1231.92 7.14939 1231.95 7.11014C1231.97 7.0705 1231.99 7.032 1232.02 6.98972C1232.04 6.94798 1232.06 6.90362 1232.08 6.85525C1232.1 6.80731 1232.13 6.75736 1232.15 6.70838C1232.18 6.65941 1232.21 6.61118 1232.24 6.56504C1232.27 6.51878 1232.3 6.47401 1232.33 6.43128C1232.37 6.38831 1232.4 6.34703 1232.44 6.30705C1232.48 6.26715 1232.52 6.22709 1232.55 6.19054C1232.61 6.13136 1232.68 6.07334 1232.74 6.01562C1232.8 5.95825 1232.87 5.90116 1232.93 5.84452C1232.99 5.78798 1233.06 5.73167 1233.12 5.67573C1233.19 5.61976 1233.25 5.56403 1233.31 5.50855C1233.33 5.49628 1233.34 5.48401 1233.36 5.47176C1233.41 5.4286 1233.46 5.38553 1233.51 5.34267C1233.51 5.3424 1233.51 5.34212 1233.51 5.34184C1233.58 5.28664 1233.64 5.23253 1233.7 5.17758C1233.73 5.15739 1233.75 5.13799 1233.77 5.11814C1233.79 5.09828 1233.82 5.07869 1233.84 5.0588C1233.86 5.03889 1233.88 5.01894 1233.9 4.99912C1233.93 4.97907 1233.95 4.95937 1233.97 4.93915C1233.99 4.92064 1234 4.90189 1234.03 4.8815C1234.03 4.87964 1234.03 4.87778 1234.03 4.87592C1234.05 4.8536 1234.08 4.82877 1234.1 4.80675C1234.17 4.74856 1234.24 4.69136 1234.3 4.63268C1234.37 4.57397 1234.43 4.515 1234.5 4.45556C1234.52 4.43235 1234.55 4.409 1234.57 4.38573C1234.61 4.34953 1234.66 4.3133 1234.7 4.27721C1234.76 4.21781 1234.83 4.159 1234.9 4.1008C1234.97 4.04282 1235.04 3.98548 1235.11 3.92935C1235.19 3.87326 1235.26 3.8176 1235.33 3.76336C1235.42 3.70295 1235.5 3.64326 1235.58 3.58332C1235.66 3.52349 1235.75 3.46369 1235.83 3.4041C1235.91 3.34428 1235.99 3.28456 1236.08 3.22468C1236.16 3.16476 1236.24 3.10474 1236.32 3.04447C1236.37 3.0084 1236.42 2.97228 1236.47 2.93604C1236.49 2.91444 1236.51 2.89381 1236.53 2.87409C1236.69 2.72857 1236.81 2.62772 1236.97 2.50049C1236.99 2.48816 1237 2.47791 1237.02 2.4655C1237.02 2.46314 1237.02 2.46064 1237.03 2.45809C1237.05 2.44193 1237.07 2.42358 1237.1 2.39888C1237.17 2.34929 1237.27 2.2777 1237.41 2.1845C1237.44 2.16102 1237.47 2.14728 1237.46 2.15477C1237.46 2.16007 1237.44 2.17508 1237.43 2.19258C1237.46 2.16156 1237.5 2.13045 1237.54 2.09922C1237.55 2.08677 1237.57 2.07517 1237.58 2.0668C1237.59 2.05906 1237.59 2.05469 1237.59 2.05469C1237.59 2.05469 1237.59 2.05469 1237.59 2.05469C1237.59 2.05469 1237.59 2.05471 1237.59 2.05477C1237.59 2.05551 1237.58 2.06147 1237.57 2.07159C1237.56 2.0817 1237.55 2.09511 1237.54 2.10863C1237.5 2.1445 1237.46 2.18022 1237.43 2.21596C1237.39 2.25174 1237.36 2.28736 1237.32 2.32314C1237.28 2.3589 1237.25 2.3947 1237.21 2.43068C1237.18 2.46652 1237.14 2.50249 1237.11 2.5386C1237.07 2.57494 1237.03 2.61069 1237 2.64708C1236.98 2.66889 1236.96 2.69098 1236.94 2.7127C1236.93 2.72079 1236.92 2.72871 1236.91 2.73663C1236.91 2.74309 1236.9 2.74959 1236.89 2.75628C1236.82 2.82673 1236.76 2.89814 1236.69 2.96925C1236.62 3.04068 1236.55 3.11234 1236.49 3.18431C1236.42 3.25633 1236.35 3.32862 1236.29 3.40123C1236.22 3.47381 1236.16 3.54666 1236.09 3.61999C1236.03 3.69305 1235.96 3.76671 1235.9 3.84062C1235.85 3.89778 1235.8 3.95475 1235.75 4.01209C1235.73 4.03697 1235.72 4.06155 1235.7 4.08582C1235.65 4.15645 1235.61 4.23047 1235.57 4.30433C1235.66 4.18748 1235.73 4.09024 1235.8 3.9986C1235.81 3.98631 1235.81 3.97411 1235.82 3.96199C1235.91 3.83813 1236.01 3.72181 1236.14 3.57733C1236.54 3.16612 1236.76 2.92841 1236.91 2.78142C1237.05 2.63442 1237.11 2.57329 1237.18 2.51779C1237.26 2.43969 1237.41 2.27015 1237.48 2.18376C1237.51 2.15261 1237.53 2.12839 1237.53 2.1297C1237.53 2.13101 1237.52 2.15929 1237.49 2.1928C1237.42 2.28989 1237.28 2.48568 1237.18 2.58416C1237.14 2.62815 1237.09 2.68032 1236.96 2.83417C1236.83 2.98792 1236.63 3.23828 1236.26 3.67266C1236.14 3.81946 1236.06 3.93663 1235.97 4.06463C1235.96 4.07718 1235.96 4.08987 1235.95 4.10266C1235.95 4.10273 1235.95 4.1028 1235.95 4.10288C1235.87 4.22072 1235.79 4.35059 1235.67 4.51674C1235.4 4.89876 1235.05 5.42893 1234.98 5.56592C1234.96 5.5927 1234.95 5.61914 1234.94 5.64705C1234.89 5.75416 1234.83 5.88428 1234.65 6.14928C1234.62 6.20722 1234.57 6.27345 1234.52 6.3446C1234.47 6.47592 1234.43 6.60346 1234.38 6.7079C1234.34 6.79802 1234.31 6.89316 1234.3 6.98898C1234.29 7.01656 1234.29 7.04466 1234.28 7.07273C1234.27 7.14044 1234.26 7.20844 1234.25 7.27097C1234.23 7.32082 1234.22 7.37497 1234.21 7.43236C1234.17 7.64115 1234.13 7.89487 1233.96 8.13468C1233.78 8.38863 1233.61 8.59015 1233.45 8.76109C1233.57 8.64096 1233.67 8.55372 1233.76 8.48167C1233.77 8.46808 1233.79 8.45508 1233.8 8.44255C1233.9 8.35406 1233.98 8.28903 1234.04 8.20363C1234.32 7.79527 1234.4 7.6214 1234.46 7.3974C1234.47 7.33836 1234.48 7.27029 1234.5 7.19725C1234.52 7.05119 1234.56 6.88553 1234.62 6.72973C1234.68 6.58453 1234.73 6.41504 1234.8 6.23755C1234.8 6.23749 1234.8 6.23743 1234.8 6.23738C1234.81 6.20269 1234.82 6.16767 1234.83 6.13247C1234.91 5.91772 1235 5.69705 1235.1 5.49715C1235.12 5.47575 1235.13 5.44972 1235.14 5.41988C1235.23 5.24666 1235.39 4.95107 1235.66 4.65093C1235.72 4.58473 1235.78 4.52034 1235.86 4.4458C1235.88 4.4231 1235.9 4.39948 1235.93 4.37455C1236.03 4.267 1236.16 4.13216 1236.3 3.94026C1236.42 3.78191 1236.57 3.58311 1236.71 3.37532C1236.78 3.27294 1236.85 3.16837 1236.93 3.06509C1237.14 2.75317 1237.33 2.46478 1237.52 2.17055C1237.52 2.17049 1237.52 2.17043 1237.52 2.17037C1237.54 2.13578 1237.56 2.10915 1237.56 2.11115C1237.56 2.11316 1237.54 2.14491 1237.52 2.18184C1237.36 2.49347 1237.19 2.79724 1237 3.12472C1236.93 3.23185 1236.87 3.34104 1236.8 3.44823C1236.67 3.66774 1236.54 3.87912 1236.43 4.04661C1236.29 4.25115 1236.17 4.39499 1236.07 4.50923C1236.05 4.53676 1236.02 4.5624 1236 4.58665C1235.93 4.66385 1235.87 4.72701 1235.82 4.79257C1235.58 5.09602 1235.43 5.38946 1235.36 5.5684C1235.34 5.59997 1235.33 5.62774 1235.32 5.65105C1235.22 5.85295 1235.14 6.07579 1235.07 6.29536C1235.06 6.33097 1235.05 6.36648 1235.04 6.40181C1235.04 6.4019 1235.04 6.40199 1235.04 6.40208C1234.98 6.58357 1234.93 6.7597 1234.87 6.91071C1234.82 7.06392 1234.79 7.21608 1234.77 7.35939C1234.75 7.43626 1234.74 7.51047 1234.73 7.58065C1234.67 7.82195 1234.59 8.00788 1234.31 8.42372ZM1237.37 2.24043C1237.29 2.30289 1237.22 2.3538 1237.18 2.39292C1237.22 2.36068 1237.26 2.3284 1237.3 2.29595C1237.32 2.27747 1237.34 2.25897 1237.37 2.24043ZM1234.27 6.16295C1234.28 6.14744 1234.28 6.13182 1234.29 6.11616C1234.26 6.1522 1234.24 6.18816 1234.21 6.2241C1234.18 6.26822 1234.15 6.31228 1234.12 6.35633C1234.17 6.28955 1234.22 6.2244 1234.27 6.16295ZM1233.68 7.91438C1233.85 7.69163 1233.89 7.4618 1233.93 7.25745C1233.95 7.19854 1233.96 7.14163 1233.97 7.08737C1233.98 7.06486 1233.98 7.04182 1233.99 7.0183C1233.91 7.11464 1233.83 7.20254 1233.77 7.27435C1233.59 7.48863 1233.47 7.59632 1233.36 7.6906C1233.33 7.71788 1233.3 7.74408 1233.27 7.77134C1233.26 7.80479 1233.25 7.83921 1233.24 7.87304C1233.22 7.92048 1233.2 7.9707 1233.18 8.01762C1233.16 8.06474 1233.13 8.11173 1233.11 8.15694C1233.09 8.20252 1233.06 8.24678 1233.04 8.29022C1233.01 8.3311 1232.99 8.37124 1232.96 8.41009C1232.96 8.41231 1232.96 8.41453 1232.96 8.41675C1232.93 8.45783 1232.91 8.49774 1232.89 8.53596C1232.87 8.57492 1232.85 8.60898 1232.85 8.64274C1232.83 8.68487 1232.82 8.72742 1232.81 8.76889C1232.8 8.81041 1232.78 8.85114 1232.77 8.89121C1232.75 8.93136 1232.74 8.97065 1232.72 9.0096C1232.72 9.0222 1232.71 9.03533 1232.71 9.04774C1232.71 9.05346 1232.7 9.0592 1232.7 9.06488C1232.75 9.00399 1232.8 8.94112 1232.86 8.87666C1232.93 8.78353 1233.02 8.68854 1233.12 8.5833C1233.29 8.4038 1233.48 8.1943 1233.68 7.91438ZM1231.99 10.0151C1232.01 9.98799 1232.04 9.94737 1232.07 9.89491C1232.08 9.88251 1232.09 9.86935 1232.1 9.85564C1232.1 9.8559 1232.1 9.85621 1232.1 9.85646C1232.07 9.88297 1232.04 9.90773 1232 9.93524C1231.95 9.98432 1231.89 10.0329 1231.84 10.0831C1231.79 10.1335 1231.73 10.1848 1231.68 10.2372C1231.63 10.2897 1231.58 10.3435 1231.53 10.3978C1231.48 10.4527 1231.44 10.5079 1231.39 10.565C1231.39 10.5651 1231.39 10.5652 1231.39 10.5654L1231.17 10.8677L1230.8 10.6824C1230.78 10.6713 1230.76 10.6603 1230.74 10.6496C1230.76 10.6644 1230.78 10.6792 1230.79 10.694L1231.18 10.8846L1231.4 10.5737C1231.43 10.5531 1231.45 10.5318 1231.47 10.5098C1231.51 10.4787 1231.54 10.4462 1231.58 10.4127C1231.6 10.3998 1231.61 10.3849 1231.63 10.3675C1231.72 10.2985 1231.85 10.1904 1231.99 10.0151ZM1230.19 10.4444C1230.17 10.4379 1230.16 10.4312 1230.14 10.4243C1230.1 10.4046 1230.06 10.3836 1230.02 10.3623C1229.99 10.3474 1229.96 10.3323 1229.94 10.3175C1229.92 10.3112 1229.91 10.305 1229.9 10.2988C1229.88 10.2885 1229.86 10.2783 1229.84 10.2683C1229.97 10.3544 1230.09 10.4366 1230.22 10.5165C1230.22 10.5176 1230.22 10.5185 1230.22 10.5196C1230.21 10.494 1230.2 10.4689 1230.19 10.4444Z" fill="black"/>
<path d="M1245.59 4.09956C1245.55 4.15664 1245.5 4.19403 1245.43 4.24013C1245.43 4.24017 1245.43 4.2402 1245.43 4.24024C1245.42 4.24682 1245.41 4.25354 1245.4 4.26056C1245.32 4.31706 1245.22 4.39241 1245.09 4.52799C1244.95 4.67781 1244.77 4.74131 1244.63 4.75648C1244.6 4.7593 1244.58 4.76797 1244.54 4.80009C1244.52 4.81617 1244.5 4.83755 1244.47 4.866C1244.46 4.8748 1244.45 4.88428 1244.44 4.89448C1244.42 4.91744 1244.39 4.94413 1244.35 4.97501C1244.25 5.07525 1244.1 5.25222 1243.96 5.41363L1243.54 6.02407L1242.73 5.6569C1242.73 5.65471 1242.72 5.65252 1242.72 5.65033C1242.6 5.58475 1242.5 5.52075 1242.42 5.4668C1242.31 5.38792 1242.2 5.29801 1242.09 5.19938C1241.99 5.10897 1241.88 5.01129 1241.75 4.90604C1241.65 4.82509 1241.58 4.69491 1241.51 4.56154C1241.51 4.54455 1241.5 4.52749 1241.49 4.51044C1241.43 4.39269 1241.36 4.27575 1241.28 4.17824C1241.12 4.00486 1240.97 3.93165 1240.8 3.8403C1240.73 3.80481 1240.67 3.767 1240.59 3.72134C1240.48 3.64918 1240.33 3.53188 1240.17 3.41261C1240.16 3.40245 1240.15 3.3923 1240.13 3.38213C1240.13 3.38208 1240.13 3.38203 1240.13 3.38197C1239.99 3.27249 1239.85 3.1643 1239.75 3.08655C1239.59 2.96295 1239.53 2.91866 1239.48 2.88088C1239.46 2.86664 1239.44 2.85326 1239.42 2.83658C1239.34 2.77646 1239.23 2.67779 1239.12 2.57808C1239.12 2.5777 1239.12 2.57731 1239.12 2.57693C1239.1 2.56014 1239.09 2.54675 1239.09 2.54705C1239.09 2.54735 1239.11 2.55848 1239.13 2.57194C1239.19 2.61558 1239.25 2.6583 1239.31 2.6961C1239.31 2.69085 1239.33 2.69444 1239.35 2.70557C1239.4 2.73313 1239.54 2.81639 1239.78 2.91185C1239.77 2.89975 1239.76 2.88934 1239.75 2.88009C1239.74 2.86923 1239.73 2.86076 1239.72 2.85357C1239.71 2.83861 1239.7 2.82902 1239.67 2.81595C1239.62 2.78874 1239.54 2.75072 1239.45 2.71099C1239.43 2.70076 1239.42 2.68337 1239.43 2.67209C1239.43 2.66082 1239.46 2.65738 1239.48 2.66449C1239.48 2.66463 1239.48 2.66477 1239.48 2.66492C1239.57 2.69368 1239.66 2.72275 1239.72 2.74487C1239.73 2.7505 1239.75 2.75567 1239.76 2.75975C1239.76 2.76301 1239.77 2.7672 1239.78 2.77029C1239.78 2.7707 1239.78 2.7715 1239.78 2.77258C1239.78 2.77261 1239.78 2.77263 1239.78 2.77265C1239.78 2.77325 1239.78 2.7763 1239.79 2.78132C1239.79 2.78233 1239.79 2.78457 1239.79 2.78789C1239.79 2.78831 1239.79 2.78872 1239.79 2.78914C1239.8 2.79491 1239.81 2.80089 1239.81 2.80717C1239.85 2.83186 1239.9 2.86808 1240.01 2.93868C1240.11 3.00348 1240.29 3.10036 1240.52 3.21066C1240.51 3.19986 1240.5 3.18923 1240.48 3.17884C1240.45 3.15269 1240.41 3.12771 1240.37 3.10356C1240.36 3.09432 1240.35 3.0853 1240.33 3.07626C1240.31 3.0617 1240.29 3.04739 1240.26 3.03335C1240.25 3.02387 1240.23 3.0145 1240.21 3.00522C1240.21 3.0052 1240.21 3.00518 1240.21 3.00517C1240.19 2.99228 1240.17 2.97954 1240.15 2.96683C1240.14 2.96232 1240.13 2.95792 1240.13 2.95359C1240.09 2.93637 1240.06 2.91971 1240.03 2.89852C1240.03 2.89565 1240.02 2.89233 1240.02 2.88975C1240.02 2.887 1240.01 2.88429 1240.01 2.88166C1240.01 2.87934 1240 2.87707 1240 2.87493C1240 2.87464 1240 2.87436 1240 2.87407C1240 2.87168 1240 2.86945 1239.99 2.86732C1239.99 2.8652 1239.99 2.86317 1239.99 2.86128C1239.99 2.86127 1239.99 2.86127 1239.99 2.86126C1239.98 2.85931 1239.98 2.85784 1239.98 2.85595C1239.98 2.85359 1239.97 2.85165 1239.97 2.84947C1239.97 2.84735 1239.96 2.84525 1239.96 2.84322C1239.95 2.84119 1239.95 2.8392 1239.95 2.83724C1239.94 2.83528 1239.94 2.83332 1239.93 2.83141C1239.93 2.82949 1239.92 2.8276 1239.92 2.8257C1239.92 2.8238 1239.91 2.82189 1239.91 2.81999C1239.9 2.81559 1239.89 2.80681 1239.89 2.79568C1239.88 2.78453 1239.88 2.772 1239.89 2.76037C1239.9 2.74874 1239.91 2.73877 1239.92 2.73221C1239.93 2.72568 1239.95 2.72314 1239.96 2.7253C1239.96 2.72589 1239.96 2.72647 1239.97 2.72707C1239.97 2.72742 1239.97 2.7278 1239.97 2.72816C1239.98 2.72914 1239.98 2.7301 1239.99 2.73113C1239.99 2.73217 1240 2.73326 1240 2.7344C1240.01 2.73554 1240.02 2.73674 1240.02 2.73806C1240.03 2.73938 1240.03 2.74081 1240.04 2.7424C1240.04 2.74395 1240.05 2.74589 1240.05 2.74782C1240.06 2.74921 1240.06 2.75115 1240.06 2.75282C1240.07 2.75457 1240.07 2.7564 1240.08 2.75824C1240.08 2.76008 1240.08 2.76195 1240.09 2.76374C1240.09 2.76393 1240.09 2.76411 1240.09 2.7643C1240.09 2.76588 1240.09 2.76742 1240.1 2.76884C1240.1 2.77043 1240.1 2.77187 1240.1 2.77318C1240.11 2.77463 1240.11 2.77539 1240.11 2.7763C1240.14 2.78644 1240.18 2.79661 1240.22 2.80634C1240.23 2.80756 1240.23 2.80879 1240.24 2.81001C1240.26 2.81637 1240.29 2.82268 1240.31 2.82901C1240.33 2.8336 1240.35 2.83821 1240.37 2.84289C1240.4 2.84976 1240.43 2.85677 1240.45 2.8639C1240.47 2.86834 1240.49 2.87276 1240.5 2.87732C1240.55 2.88922 1240.59 2.90162 1240.63 2.91499C1240.68 2.92835 1240.72 2.94271 1240.76 2.95866C1240.8 2.97457 1240.85 2.99281 1240.89 3.01367C1240.92 3.02908 1240.94 3.04922 1240.97 3.06943C1240.98 3.08029 1240.99 3.09127 1241.01 3.10229C1241.01 3.10234 1241.01 3.10239 1241.01 3.10244C1241.02 3.11212 1241.03 3.12178 1241.04 3.13126C1241.06 3.15161 1241.08 3.17109 1241.11 3.18937C1241.13 3.20764 1241.15 3.22468 1241.18 3.24043C1241.2 3.25606 1241.23 3.27063 1241.25 3.28374C1241.28 3.29691 1241.31 3.30859 1241.34 3.31977C1241.37 3.33437 1241.41 3.34714 1241.45 3.35991C1241.49 3.37252 1241.53 3.38461 1241.57 3.39668C1241.58 3.40089 1241.6 3.4052 1241.61 3.40941C1241.61 3.40943 1241.61 3.40945 1241.61 3.40947C1241.64 3.41726 1241.66 3.42505 1241.69 3.43294C1241.73 3.44513 1241.77 3.4575 1241.81 3.47057C1241.85 3.48365 1241.89 3.4974 1241.93 3.51263C1241.97 3.52793 1242.01 3.54489 1242.05 3.56601C1242.08 3.58473 1242.11 3.60501 1242.14 3.6251C1242.15 3.6304 1242.16 3.63571 1242.17 3.64103C1242.21 3.66621 1242.25 3.68982 1242.29 3.70919C1242.33 3.72867 1242.37 3.74428 1242.42 3.75675C1242.47 3.76919 1242.51 3.77875 1242.56 3.78639C1242.61 3.79407 1242.66 3.79963 1242.71 3.80417C1242.76 3.80862 1242.81 3.81195 1242.87 3.81446C1242.9 3.8159 1242.93 3.81876 1242.95 3.82227C1242.98 3.82582 1243.01 3.83016 1243.04 3.83483C1243.05 3.83672 1243.06 3.83872 1243.07 3.84065C1243.09 3.84345 1243.1 3.84629 1243.12 3.84887C1243.15 3.85321 1243.17 3.85687 1243.2 3.85906C1243.22 3.86125 1243.25 3.86186 1243.28 3.86009C1243.3 3.85821 1243.33 3.8544 1243.36 3.84703C1243.43 3.83768 1243.47 3.8421 1243.51 3.84699C1243.51 3.84795 1243.52 3.84884 1243.53 3.84974C1243.58 3.85651 1243.63 3.8666 1243.67 3.87895C1243.68 3.88126 1243.69 3.88365 1243.7 3.88611L1242.4 4.14232C1242.41 4.10833 1242.43 4.07578 1242.45 4.04399C1242.48 4.00537 1242.5 3.96819 1242.53 3.93266C1242.56 3.89718 1242.59 3.8633 1242.62 3.83089C1242.66 3.79851 1242.69 3.76707 1242.73 3.73836C1242.75 3.72175 1242.77 3.70515 1242.79 3.69024C1242.81 3.67949 1242.82 3.66914 1242.84 3.65902C1242.85 3.65489 1242.85 3.6508 1242.86 3.64672C1242.88 3.63318 1242.9 3.61983 1242.92 3.60608C1242.92 3.60555 1242.92 3.60503 1242.92 3.60451C1242.94 3.5902 1242.96 3.57544 1242.97 3.55946C1242.99 3.54347 1243 3.52626 1243.01 3.50744C1243.02 3.48785 1243.03 3.47035 1243.03 3.44618C1243.04 3.43039 1243.04 3.41481 1243.05 3.39929C1243.06 3.37604 1243.06 3.35284 1243.07 3.32931C1243.08 3.30581 1243.08 3.28243 1243.09 3.25872C1243.09 3.2511 1243.09 3.24305 1243.09 3.23535C1243.1 3.21156 1243.11 3.1878 1243.11 3.16368C1243.12 3.13962 1243.12 3.11541 1243.12 3.09083C1243.13 3.06615 1243.13 3.04144 1243.13 3.01576C1243.14 2.97204 1243.15 2.93836 1243.17 2.91048C1243.18 2.88239 1243.2 2.8581 1243.22 2.83458C1243.22 2.83018 1243.22 2.82578 1243.22 2.82138C1243.24 2.80249 1243.25 2.78405 1243.26 2.76549C1243.28 2.74263 1243.29 2.71966 1243.31 2.69605C1243.32 2.67266 1243.33 2.64847 1243.35 2.62385C1243.36 2.59899 1243.37 2.57461 1243.38 2.54755C1243.39 2.52084 1243.4 2.49175 1243.41 2.46011C1243.42 2.42873 1243.43 2.39619 1243.44 2.36485C1243.45 2.33349 1243.47 2.30318 1243.48 2.27483C1243.5 2.2464 1243.52 2.21954 1243.54 2.19449C1243.56 2.16929 1243.58 2.14568 1243.6 2.1233C1243.62 2.10096 1243.65 2.07904 1243.67 2.05949C1243.71 2.02783 1243.76 1.9972 1243.8 1.96694C1243.84 1.93687 1243.88 1.90718 1243.92 1.87787C1243.96 1.84862 1244.01 1.81963 1244.05 1.79097C1244.09 1.7623 1244.14 1.73386 1244.18 1.70563C1244.19 1.69939 1244.2 1.69316 1244.21 1.68693C1244.24 1.66499 1244.28 1.64315 1244.31 1.62143C1244.31 1.62129 1244.31 1.62116 1244.31 1.62102C1244.35 1.59303 1244.4 1.56563 1244.44 1.53766C1244.46 1.52736 1244.47 1.51748 1244.49 1.5073C1244.5 1.49711 1244.52 1.48702 1244.53 1.47671C1244.55 1.46639 1244.56 1.45598 1244.57 1.44555C1244.59 1.43499 1244.6 1.42454 1244.62 1.41365C1244.63 1.4037 1244.64 1.39344 1244.65 1.38232C1244.65 1.38131 1244.66 1.38029 1244.66 1.37928C1244.67 1.36711 1244.69 1.35383 1244.7 1.34256C1244.75 1.31283 1244.79 1.28337 1244.84 1.25292C1244.88 1.22247 1244.92 1.19168 1244.97 1.16066C1244.98 1.14855 1245 1.13634 1245.02 1.12422C1245.04 1.10537 1245.07 1.08656 1245.1 1.06794C1245.14 1.03728 1245.19 1.00728 1245.23 0.978091C1245.28 0.94901 1245.33 0.920765 1245.38 0.893609C1245.43 0.866467 1245.48 0.840012 1245.53 0.814611C1245.59 0.786327 1245.65 0.758573 1245.7 0.730722C1245.76 0.702929 1245.82 0.675188 1245.88 0.647507C1245.93 0.619717 1245.99 0.591938 1246.05 0.564011C1246.11 0.536067 1246.16 0.508002 1246.22 0.479705C1246.25 0.46277 1246.29 0.445776 1246.32 0.428676C1246.34 0.417172 1246.35 0.406231 1246.36 0.395827C1246.47 0.319155 1246.55 0.268138 1246.66 0.206697C1246.67 0.20067 1246.68 0.195537 1246.69 0.189368C1246.69 0.188192 1246.69 0.186954 1246.7 0.18569C1246.71 0.177678 1246.72 0.168687 1246.75 0.157014C1246.79 0.133409 1246.87 0.101688 1246.96 0.0600108C1246.99 0.0495451 1247.01 0.0440968 1247 0.0487968C1247 0.0521503 1246.99 0.0602648 1246.98 0.0693597C1247 0.0538923 1247.03 0.038296 1247.05 0.0225386C1247.06 0.0162567 1247.07 0.0104551 1247.08 0.00620764C1247.09 0.00228459 1247.09 4.43103e-06 1247.09 0C1247.09 0 1247.09 0 1247.09 0C1247.09 1.11806e-08 1247.09 1.41586e-05 1247.09 4.28049e-05C1247.09 0.000430007 1247.09 0.00358953 1247.08 0.00908315C1247.07 0.0145592 1247.06 0.0219042 1247.05 0.0292352C1247.03 0.0486679 1247.01 0.0680152 1246.99 0.0873804C1246.96 0.106762 1246.94 0.126072 1246.92 0.145484C1246.89 0.16489 1246.87 0.184339 1246.85 0.203914C1246.82 0.223414 1246.8 0.24301 1246.78 0.262724C1246.76 0.28256 1246.73 0.302114 1246.71 0.322053C1246.7 0.334001 1246.68 0.346111 1246.67 0.358042C1246.66 0.362485 1246.66 0.366842 1246.65 0.371191C1246.65 0.374746 1246.65 0.378313 1246.64 0.381992C1246.6 0.420735 1246.56 0.460149 1246.51 0.499537C1246.47 0.539104 1246.43 0.578937 1246.39 0.61909C1246.34 0.659262 1246.3 0.69974 1246.26 0.740532C1246.22 0.781305 1246.18 0.82237 1246.14 0.863851C1246.1 0.905191 1246.06 0.947001 1246.02 0.989135C1245.99 1.02173 1245.96 1.05433 1245.93 1.08727C1245.92 1.10257 1245.91 1.11766 1245.9 1.13257C1245.88 1.17595 1245.86 1.22272 1245.84 1.26974C1245.89 1.20079 1245.93 1.14202 1245.97 1.087C1245.97 1.07962 1245.98 1.07229 1245.98 1.06503C1246.03 0.990818 1246.09 0.922476 1246.17 0.84266C1246.42 0.615333 1246.57 0.484261 1246.66 0.403727C1246.75 0.323172 1246.79 0.290605 1246.83 0.261781C1246.89 0.221383 1246.98 0.124427 1247.02 0.0744974C1247.04 0.0565899 1247.05 0.0430727 1247.06 0.0443316C1247.06 0.0455955 1247.05 0.063105 1247.03 0.0833894C1247 0.142033 1246.92 0.259401 1246.85 0.313062C1246.82 0.3371 1246.79 0.366332 1246.72 0.454834C1246.64 0.54323 1246.51 0.688082 1246.29 0.938433C1246.22 1.02298 1246.17 1.09402 1246.13 1.17296C1246.12 1.1807 1246.12 1.18854 1246.11 1.19644C1246.11 1.19648 1246.11 1.19653 1246.11 1.19657C1246.07 1.26935 1246.03 1.35017 1245.96 1.45009C1245.81 1.67945 1245.62 2.00441 1245.58 2.09281C1245.58 2.11004 1245.57 2.12727 1245.57 2.14545C1245.54 2.21525 1245.52 2.30034 1245.43 2.46356C1245.41 2.49924 1245.38 2.53939 1245.35 2.58206C1245.34 2.67088 1245.32 2.75715 1245.3 2.82566C1245.29 2.88475 1245.29 2.95141 1245.29 3.01965C1245.29 3.03929 1245.29 3.05941 1245.3 3.07951C1245.3 3.128 1245.3 3.17676 1245.3 3.22051C1245.3 3.25539 1245.3 3.29389 1245.31 3.33473C1245.31 3.48325 1245.33 3.66477 1245.23 3.80964C1245.13 3.96293 1245.03 4.07811 1244.93 4.17457C1245.01 4.10919 1245.07 4.06427 1245.13 4.02749C1245.14 4.02055 1245.15 4.01392 1245.16 4.00753C1245.23 3.96237 1245.28 3.92884 1245.31 3.87705C1245.47 3.62921 1245.5 3.51535 1245.5 3.35878C1245.5 3.3175 1245.5 3.26899 1245.5 3.21702C1245.49 3.11309 1245.49 2.99562 1245.51 2.89181C1245.53 2.79504 1245.55 2.67963 1245.56 2.55948C1245.56 2.55944 1245.56 2.55941 1245.56 2.55937C1245.57 2.53589 1245.57 2.51221 1245.58 2.48844C1245.6 2.34341 1245.63 2.19612 1245.68 2.06779C1245.68 2.05405 1245.69 2.03718 1245.7 2.01787C1245.73 1.90538 1245.81 1.7165 1245.98 1.54725C1246.01 1.50979 1246.06 1.47532 1246.1 1.4349C1246.12 1.42259 1246.13 1.40976 1246.15 1.3961C1246.22 1.33718 1246.29 1.26139 1246.38 1.14799C1246.45 1.05443 1246.53 0.93453 1246.61 0.808654C1246.65 0.746633 1246.69 0.683142 1246.73 0.620346C1246.85 0.430725 1246.95 0.254394 1247.05 0.0719514C1247.05 0.0719141 1247.05 0.0718768 1247.05 0.0718395C1247.06 0.0504564 1247.07 0.0341828 1247.07 0.0357273C1247.07 0.0372742 1247.07 0.0579662 1247.06 0.0817124C1246.98 0.281653 1246.9 0.473864 1246.8 0.679611C1246.77 0.74693 1246.74 0.815407 1246.7 0.882456C1246.63 1.01975 1246.57 1.15123 1246.5 1.2534C1246.43 1.37819 1246.36 1.46197 1246.3 1.52696C1246.28 1.54263 1246.27 1.55711 1246.25 1.57077C1246.21 1.61426 1246.17 1.64938 1246.14 1.6877C1245.99 1.86454 1245.93 2.0554 1245.9 2.17342C1245.9 2.19419 1245.89 2.21246 1245.89 2.22768C1245.85 2.35947 1245.82 2.5101 1245.81 2.66007C1245.8 2.68439 1245.8 2.70866 1245.8 2.73284C1245.8 2.73291 1245.8 2.73297 1245.8 2.73304C1245.79 2.85725 1245.78 2.97835 1245.76 3.08007C1245.74 3.18324 1245.75 3.29194 1245.76 3.3946C1245.76 3.44967 1245.77 3.50287 1245.77 3.55228C1245.77 3.72207 1245.74 3.84469 1245.59 4.09956ZM1246.94 0.0931498C1246.88 0.123626 1246.84 0.148473 1246.81 0.168193C1246.84 0.152436 1246.87 0.136602 1246.89 0.1206C1246.91 0.111492 1246.92 0.102347 1246.94 0.0931498ZM1245.11 2.39467C1245.11 2.38429 1245.11 2.37384 1245.12 2.36336C1245.1 2.38501 1245.09 2.40658 1245.07 2.42815C1245.05 2.45463 1245.03 2.48104 1245.02 2.50746C1245.05 2.46876 1245.08 2.4308 1245.11 2.39467ZM1244.96 3.58698C1245.05 3.45381 1245.04 3.29031 1245.04 3.1458C1245.04 3.10412 1245.04 3.06393 1245.04 3.02622C1245.04 3.01058 1245.04 2.99439 1245.04 2.97778C1244.99 3.0335 1244.95 3.08407 1244.91 3.12531C1244.8 3.24838 1244.72 3.30403 1244.65 3.35257C1244.62 3.36662 1244.6 3.3801 1244.59 3.39439C1244.58 3.41721 1244.58 3.44059 1244.58 3.46325C1244.57 3.49506 1244.56 3.52837 1244.55 3.55919C1244.54 3.59015 1244.53 3.62071 1244.52 3.64977C1244.51 3.67907 1244.5 3.70719 1244.49 3.73456C1244.48 3.76032 1244.46 3.78538 1244.45 3.80964C1244.45 3.81102 1244.45 3.81241 1244.45 3.8138C1244.44 3.83946 1244.42 3.86436 1244.41 3.88882C1244.4 3.91376 1244.4 3.93618 1244.4 3.95965C1244.4 3.98894 1244.39 4.01829 1244.39 4.04671C1244.39 4.07516 1244.38 4.10288 1244.38 4.12996C1244.38 4.15711 1244.37 4.18351 1244.37 4.20954C1244.36 4.21795 1244.36 4.22671 1244.36 4.23497C1244.36 4.23878 1244.36 4.24262 1244.36 4.2464C1244.39 4.21094 1244.42 4.17447 1244.45 4.13731C1244.5 4.08362 1244.55 4.03077 1244.62 3.97201C1244.72 3.8718 1244.84 3.75423 1244.96 3.58698ZM1243.95 4.81137C1243.96 4.79533 1243.97 4.77088 1243.99 4.73928C1244 4.73182 1244 4.72386 1244.01 4.7156C1244.01 4.71572 1244.01 4.71591 1244.01 4.71603C1243.99 4.72895 1243.97 4.74118 1243.94 4.75516C1243.91 4.78013 1243.87 4.80533 1243.83 4.83187C1243.8 4.85852 1243.77 4.8862 1243.73 4.91493C1243.7 4.9437 1243.67 4.97369 1243.64 5.00452C1243.61 5.03194 1243.59 5.05979 1243.56 5.0889L1243.36 5.37919L1242.98 5.20458C1242.97 5.2021 1242.97 5.19964 1242.96 5.19721C1242.95 5.19073 1242.94 5.18444 1242.93 5.17834C1242.94 5.19242 1242.95 5.2062 1242.97 5.22013L1243.37 5.40135L1243.58 5.10006C1243.59 5.09229 1243.6 5.08428 1243.61 5.0761C1243.63 5.05977 1243.66 5.04274 1243.68 5.02543C1243.69 5.0188 1243.7 5.01141 1243.72 5.00279C1243.78 4.9686 1243.87 4.91517 1243.95 4.81137ZM1242.58 5.09159C1242.57 5.08851 1242.57 5.08525 1242.56 5.08171C1242.53 5.07163 1242.51 5.05996 1242.48 5.04794C1242.46 5.03949 1242.45 5.03075 1242.43 5.0222C1242.43 5.01859 1242.42 5.01502 1242.41 5.01146C1242.4 5.00549 1242.39 4.99971 1242.38 4.99399C1242.45 5.04984 1242.52 5.10232 1242.59 5.15133C1242.59 5.15198 1242.6 5.15254 1242.6 5.15319C1242.59 5.13217 1242.59 5.11164 1242.58 5.09159Z" fill="black"/>
<defs>
<filter id="filter0_i_3006_4812" x="0.0898438" y="11.4053" width="1280" height="98.5947" filterUnits="userSpaceOnUse" color-interpolation-filters="sRGB">
<feFlood flood-opacity="0" result="BackgroundImageFix"/>
<feBlend mode="normal" in="SourceGraphic" in2="BackgroundImageFix" result="shape"/>
<feColorMatrix in="SourceAlpha" type="matrix" values="0 0 0 0 0 0 0 0 0 0 0 0 0 0 0 0 0 0 127 0" result="hardAlpha"/>
<feOffset dy="5"/>
<feGaussianBlur stdDeviation="4"/>
<feComposite in2="hardAlpha" operator="arithmetic" k2="-1" k3="1"/>
<feColorMatrix type="matrix" values="0 0 0 0 0 0 0 0 0 0 0 0 0 0 0 0 0 0 0.25 0"/>
<feBlend mode="normal" in2="shape" result="effect1_innerShadow_3006_4812"/>
</filter>
</defs>
</svg>
