<svg width="1280" height="203" viewBox="0 0 1280 203" fill="none" xmlns="http://www.w3.org/2000/svg">
<path d="M0 42.5953C0 42.5953 350.201 17.0742 575 15.0953C799.799 13.1165 1280 42.5953 1280 42.5953V129.595H0V42.5953Z" fill="#FBBC04"/>
<path d="M0 66.191C0 66.191 350.201 40.6699 575 38.691C799.799 36.7122 1280 66.191 1280 66.191" stroke="white" stroke-width="5" stroke-dasharray="10 10"/>
<g filter="url(#filter0_i_3006_4812)">
<path d="M1280 203.001H0V13.5259H309.053C308.954 13.5307 308.855 13.5347 308.757 13.5396H0C0 13.5396 31.7473 48.1499 98.3789 60.3286C165.01 72.5071 206.917 18.5838 308.757 13.5396C317.909 13.0863 326.822 13.1146 335.541 13.5396C423.844 17.8438 492.371 62.836 590.271 60.3286C697.839 57.5736 705.718 21.64 830.416 13.5396C841.841 12.7974 853.683 12.8477 865.829 13.5259H1280V203.001ZM868.913 13.7105C988.812 21.4102 1137.22 88.5368 1207.28 60.3286C1285.07 29.0086 1279.93 13.5396 1279.93 13.5396H866.086L868.913 13.7105ZM830.416 13.5396H335.541C335.44 13.5347 335.34 13.5307 335.239 13.5259H830.642C830.566 13.5307 830.491 13.5347 830.416 13.5396Z" fill="#0A66C2"/>
</g>
<path d="M1239.74 20.7415C1239.66 20.9061 1239.56 21.0481 1239.44 21.2265C1239.44 21.2267 1239.44 21.2268 1239.44 21.2269C1239.42 21.2524 1239.4 21.2786 1239.38 21.3057C1239.23 21.5244 1239.04 21.81 1238.78 22.2574C1238.49 22.7518 1238.18 23.102 1237.96 23.2979C1237.92 23.3345 1237.89 23.3767 1237.81 23.4909C1237.78 23.5481 1237.73 23.6214 1237.67 23.7187C1237.65 23.7488 1237.63 23.7812 1237.61 23.8161C1237.57 23.8947 1237.51 23.9861 1237.44 24.0928C1237.23 24.4463 1236.91 25.0169 1236.62 25.5397C1236.44 25.8572 1236.27 26.1573 1236.14 26.3823C1236.12 26.4086 1236.11 26.4349 1236.09 26.461L1235.6 27.4574L1234.64 26.7463C1234.38 26.5134 1234.13 26.2764 1233.87 26.0198C1233.6 25.7643 1233.31 25.4895 1232.98 25.1784C1232.72 24.9396 1232.51 24.6619 1232.29 24.3788C1232.26 24.3427 1232.24 24.3065 1232.21 24.2703C1232.02 24.0204 1231.82 23.768 1231.59 23.5206C1231.17 23.0801 1230.79 22.7862 1230.37 22.4517C1230.21 22.3211 1230.04 22.1847 1229.87 22.0326C1229.58 21.7921 1229.19 21.4344 1228.79 21.0739C1228.76 21.0432 1228.73 21.0125 1228.69 20.9818C1228.69 20.9817 1228.69 20.9815 1228.69 20.9814C1228.33 20.6511 1227.97 20.3263 1227.71 20.0895C1227.3 19.7131 1227.14 19.5734 1227.01 19.4562C1226.96 19.4121 1226.91 19.3711 1226.86 19.3215C1226.67 19.1431 1226.38 18.8668 1226.09 18.587C1226.09 18.5859 1226.09 18.5848 1226.09 18.5838C1226.04 18.5371 1226 18.4996 1226 18.5C1226 18.5004 1226.04 18.5362 1226.09 18.5799C1226.25 18.72 1226.41 18.8568 1226.55 18.9789C1226.56 18.9789 1226.6 19.0059 1226.65 19.0444C1226.77 19.1404 1227.12 19.4335 1227.7 19.8614C1227.66 19.8272 1227.63 19.7982 1227.61 19.7728C1227.58 19.7429 1227.55 19.7199 1227.53 19.7002C1227.49 19.6591 1227.46 19.6321 1227.41 19.5877C1227.29 19.4875 1227.09 19.3343 1226.88 19.1732C1226.83 19.1324 1226.79 19.0913 1226.8 19.0815C1226.81 19.0717 1226.86 19.0945 1226.91 19.1326C1226.92 19.1334 1226.92 19.1341 1226.92 19.1349C1227.13 19.285 1227.34 19.4341 1227.48 19.5332C1227.51 19.5584 1227.54 19.5804 1227.56 19.5971C1227.58 19.6105 1227.6 19.6272 1227.61 19.6372C1227.62 19.6385 1227.62 19.6411 1227.62 19.6442C1227.62 19.6443 1227.62 19.6443 1227.62 19.6444C1227.62 19.6462 1227.63 19.6551 1227.64 19.6662C1227.64 19.6685 1227.65 19.6734 1227.65 19.6797C1227.65 19.681 1227.66 19.6822 1227.66 19.6834C1227.68 19.7008 1227.7 19.7186 1227.72 19.7376C1227.8 19.8122 1227.93 19.9278 1228.21 20.1643C1228.46 20.3817 1228.91 20.7379 1229.46 21.1731C1229.43 21.1407 1229.39 21.1085 1229.36 21.0764C1229.27 20.9958 1229.18 20.916 1229.08 20.8368C1229.05 20.8065 1229.01 20.7767 1228.98 20.7465C1228.92 20.6978 1228.86 20.6492 1228.81 20.6009C1228.77 20.5683 1228.73 20.5357 1228.69 20.5032C1228.69 20.5031 1228.69 20.503 1228.69 20.503C1228.63 20.4579 1228.58 20.4128 1228.52 20.3675C1228.51 20.3516 1228.49 20.336 1228.47 20.3204C1228.39 20.2587 1228.32 20.1982 1228.23 20.1269C1228.22 20.1179 1228.21 20.1081 1228.2 20.1006C1228.2 20.0926 1228.19 20.0848 1228.18 20.0774C1228.17 20.0709 1228.17 20.0646 1228.16 20.0586C1228.16 20.0578 1228.16 20.057 1228.16 20.0562C1228.15 20.0495 1228.14 20.0432 1228.14 20.0371C1228.13 20.031 1228.13 20.0252 1228.12 20.0195C1228.12 20.0195 1228.12 20.0194 1228.12 20.0194C1228.11 20.0135 1228.11 20.009 1228.1 20.0029C1228.09 19.9953 1228.08 19.9888 1228.08 19.9811C1228.07 19.9737 1228.06 19.966 1228.05 19.9583C1228.04 19.9507 1228.03 19.9429 1228.02 19.9351C1228.01 19.9273 1228 19.9194 1227.99 19.9115C1227.98 19.9035 1227.97 19.8956 1227.96 19.8876C1227.94 19.8795 1227.93 19.8714 1227.92 19.8633C1227.9 19.8446 1227.88 19.8226 1227.87 19.8023C1227.85 19.782 1227.85 19.7651 1227.86 19.7549C1227.87 19.7446 1227.89 19.7418 1227.91 19.7465C1227.94 19.7513 1227.97 19.7633 1227.99 19.78C1228 19.7846 1228.01 19.7892 1228.01 19.7938C1228.02 19.7965 1228.02 19.7993 1228.03 19.802C1228.04 19.8094 1228.05 19.8169 1228.06 19.8245C1228.07 19.832 1228.09 19.8397 1228.1 19.8475C1228.11 19.8553 1228.12 19.8632 1228.13 19.8714C1228.15 19.8795 1228.16 19.8879 1228.17 19.8966C1228.18 19.905 1228.2 19.9148 1228.21 19.9237C1228.22 19.9302 1228.23 19.9384 1228.24 19.9453C1228.25 19.9525 1228.26 19.9596 1228.27 19.9666C1228.27 19.9736 1228.28 19.9805 1228.29 19.987C1228.29 19.9877 1228.29 19.9884 1228.29 19.9891C1228.3 19.9949 1228.31 20.0005 1228.31 20.0057C1228.32 20.0116 1228.33 20.0171 1228.34 20.0223C1228.34 20.028 1228.35 20.0314 1228.35 20.0355C1228.43 20.0881 1228.52 20.151 1228.61 20.211C1228.62 20.2186 1228.64 20.2261 1228.65 20.2335C1228.71 20.2729 1228.76 20.3122 1228.82 20.3515C1228.87 20.3801 1228.91 20.4087 1228.95 20.4373C1229.02 20.4795 1229.08 20.522 1229.14 20.5645C1229.18 20.5909 1229.22 20.6168 1229.26 20.6433C1229.36 20.7124 1229.46 20.7821 1229.56 20.8527C1229.67 20.9233 1229.77 20.9951 1229.87 21.0683C1229.97 21.1413 1230.07 21.2187 1230.17 21.2962C1230.24 21.3533 1230.31 21.4157 1230.37 21.4748C1230.4 21.5065 1230.44 21.5379 1230.47 21.5691C1230.47 21.5692 1230.47 21.5693 1230.47 21.5694C1230.5 21.5967 1230.53 21.6238 1230.56 21.6506C1230.62 21.708 1230.67 21.764 1230.73 21.8189C1230.79 21.8737 1230.85 21.9273 1230.92 21.98C1230.98 22.0323 1231.04 22.0843 1231.11 22.1347C1231.17 22.1853 1231.23 22.2339 1231.3 22.2839C1231.39 22.3497 1231.48 22.4134 1231.57 22.4786C1231.66 22.5432 1231.76 22.6078 1231.85 22.6725C1231.88 22.6951 1231.92 22.7179 1231.95 22.7405C1231.95 22.7406 1231.95 22.7407 1231.95 22.7408C1232.01 22.7828 1232.07 22.8248 1232.13 22.8669C1232.23 22.932 1232.32 22.9974 1232.41 23.0636C1232.51 23.1298 1232.6 23.1969 1232.69 23.2657C1232.79 23.3345 1232.88 23.4062 1232.98 23.4819C1233.06 23.5493 1233.14 23.6185 1233.22 23.6864C1233.24 23.7044 1233.26 23.7223 1233.28 23.7402C1233.38 23.8253 1233.48 23.907 1233.58 23.9843C1233.68 24.0616 1233.78 24.1354 1233.89 24.207C1233.99 24.2785 1234.1 24.3481 1234.21 24.4165C1234.33 24.4852 1234.44 24.5512 1234.55 24.6176C1234.67 24.6834 1234.78 24.7486 1234.9 24.8137C1234.96 24.85 1235.03 24.8897 1235.09 24.928C1235.16 24.9666 1235.22 25.0058 1235.29 25.0447C1235.31 25.0605 1235.34 25.0764 1235.36 25.092C1235.4 25.1149 1235.43 25.1376 1235.47 25.1597C1235.53 25.1971 1235.59 25.2331 1235.65 25.2668C1235.69 25.2933 1235.74 25.3184 1235.78 25.3416L1234.51 25.5933C1234.51 25.58 1234.51 25.5668 1234.52 25.5536C1234.54 25.4898 1234.55 25.4359 1234.56 25.3699C1234.6 25.2139 1234.63 25.1229 1234.67 25.0217C1234.68 25.0017 1234.69 24.9813 1234.69 24.96C1234.74 24.8392 1234.79 24.7202 1234.84 24.6042C1234.89 24.487 1234.94 24.373 1235 24.2588C1235.06 24.1457 1235.12 24.0331 1235.18 23.9221C1235.24 23.8113 1235.3 23.7018 1235.36 23.5932C1235.43 23.4847 1235.5 23.3752 1235.56 23.2712C1235.6 23.211 1235.65 23.148 1235.69 23.0898C1235.72 23.0478 1235.74 23.0066 1235.77 22.9662C1235.78 22.9497 1235.8 22.9334 1235.81 22.9171C1235.85 22.8632 1235.88 22.8106 1235.92 22.7591C1235.92 22.7571 1235.92 22.7552 1235.92 22.7532C1235.96 22.6998 1235.99 22.6474 1236.02 22.595C1236.05 22.5425 1236.08 22.4899 1236.1 22.4361C1236.13 22.3803 1236.15 22.333 1236.17 22.2711C1236.19 22.2308 1236.2 22.1912 1236.22 22.1518C1236.24 22.0927 1236.26 22.0339 1236.28 21.9746C1236.3 21.9154 1236.33 21.8568 1236.35 21.7977C1236.35 21.7787 1236.36 21.7587 1236.37 21.7396C1236.39 21.6806 1236.41 21.6221 1236.43 21.5634C1236.44 21.5048 1236.46 21.4465 1236.48 21.388C1236.5 21.3293 1236.52 21.2712 1236.53 21.2116C1236.56 21.1103 1236.6 21.0196 1236.63 20.9413C1236.67 20.8622 1236.71 20.7898 1236.74 20.7194C1236.75 20.7062 1236.76 20.6931 1236.76 20.6799C1236.79 20.6232 1236.82 20.5675 1236.85 20.5123C1236.88 20.4444 1236.92 20.3773 1236.95 20.3095C1236.98 20.2423 1237.01 20.1741 1237.04 20.1062C1237.07 20.0378 1237.1 19.9718 1237.13 19.9002C1237.16 19.8293 1237.19 19.7559 1237.22 19.6756C1237.24 19.596 1237.28 19.5128 1237.31 19.4297C1237.34 19.3467 1237.38 19.2635 1237.42 19.1823C1237.46 19.1009 1237.5 19.0205 1237.54 18.9423C1237.58 18.8637 1237.63 18.7866 1237.67 18.7108C1237.72 18.6351 1237.77 18.5578 1237.81 18.4862C1237.89 18.3703 1237.97 18.2556 1238.05 18.141C1238.12 18.027 1238.2 17.9131 1238.28 17.7996C1238.36 17.6863 1238.44 17.5732 1238.52 17.4604C1238.59 17.3476 1238.67 17.2349 1238.75 17.1226C1238.77 17.0978 1238.79 17.0729 1238.81 17.0481C1238.87 16.9606 1238.93 16.8733 1238.99 16.7863C1238.99 16.7857 1238.99 16.7851 1238.99 16.7845C1239.07 16.6726 1239.15 16.5627 1239.23 16.4515C1239.26 16.4106 1239.29 16.3714 1239.32 16.3314C1239.34 16.2914 1239.37 16.252 1239.4 16.2122C1239.43 16.1724 1239.45 16.1327 1239.48 16.0934C1239.51 16.0537 1239.53 16.0149 1239.56 15.9755C1239.58 15.9393 1239.6 15.9032 1239.63 15.8637C1239.63 15.8601 1239.63 15.8565 1239.64 15.8529C1239.66 15.8098 1239.69 15.7611 1239.73 15.7167C1239.81 15.5992 1239.89 15.4843 1239.97 15.367C1240.05 15.2496 1240.13 15.1321 1240.21 15.0137C1240.24 14.9675 1240.27 14.921 1240.31 14.8746C1240.36 14.8024 1240.41 14.73 1240.46 14.6576C1240.54 14.5384 1240.62 14.4195 1240.71 14.3006C1240.79 14.1822 1240.88 14.0638 1240.97 13.9466C1241.06 13.8295 1241.15 13.7122 1241.24 13.5969C1241.34 13.4684 1241.44 13.341 1241.54 13.213C1241.64 13.0852 1241.74 12.9574 1241.84 12.8301C1241.94 12.7024 1242.04 12.5749 1242.14 12.4473C1242.25 12.3196 1242.35 12.1919 1242.44 12.0639C1242.5 11.9874 1242.56 11.9107 1242.62 11.834C1242.65 11.7916 1242.68 11.7509 1242.71 11.7119C1242.9 11.4239 1243.05 11.2189 1243.25 10.9531C1243.27 10.9275 1243.28 10.9065 1243.3 10.8811C1243.3 10.8762 1243.31 10.8711 1243.31 10.8658C1243.33 10.8326 1243.36 10.7945 1243.4 10.7423C1243.48 10.6378 1243.61 10.4811 1243.78 10.278C1243.82 10.2267 1243.85 10.195 1243.84 10.2079C1243.84 10.2171 1243.82 10.2462 1243.8 10.2812C1243.84 10.2176 1243.89 10.154 1243.94 10.0905C1243.95 10.0651 1243.97 10.0414 1243.98 10.0244C1243.99 10.0087 1244 10 1244 10C1244 10 1244 10 1244 10C1244 10 1244 10.0001 1244 10.0002C1244 10.0016 1243.99 10.0134 1243.98 10.033C1243.97 10.0526 1243.95 10.0785 1243.93 10.1047C1243.89 10.1744 1243.84 10.2438 1243.8 10.3132C1243.75 10.3827 1243.71 10.4518 1243.67 10.5212C1243.62 10.5906 1243.58 10.66 1243.53 10.7297C1243.49 10.799 1243.44 10.8686 1243.4 10.9384C1243.36 11.0086 1243.31 11.0775 1243.27 11.1477C1243.24 11.1897 1243.21 11.2322 1243.19 11.274C1243.18 11.2896 1243.17 11.3048 1243.16 11.32C1243.15 11.3324 1243.14 11.3449 1243.14 11.3578C1243.05 11.4931 1242.97 11.63 1242.88 11.7659C1242.8 11.9025 1242.71 12.0391 1242.63 12.176C1242.55 12.3129 1242.47 12.45 1242.38 12.5874C1242.3 12.7247 1242.22 12.8622 1242.14 13.0002C1242.06 13.1377 1241.98 13.276 1241.9 13.4142C1241.83 13.5212 1241.77 13.6274 1241.71 13.7341C1241.69 13.7779 1241.67 13.8211 1241.65 13.8639C1241.59 13.9882 1241.54 14.1152 1241.48 14.2411C1241.6 14.0283 1241.68 13.8548 1241.77 13.6903C1241.78 13.6682 1241.79 13.6463 1241.8 13.6245C1241.92 13.4018 1242.03 13.1892 1242.2 12.9125C1242.69 12.1253 1242.97 11.6694 1243.15 11.3862C1243.33 11.1031 1243.41 10.983 1243.48 10.872C1243.59 10.7156 1243.77 10.3991 1243.86 10.2392C1243.9 10.1813 1243.93 10.1352 1243.93 10.1364C1243.93 10.1376 1243.91 10.187 1243.88 10.2467C1243.79 10.4201 1243.61 10.772 1243.49 10.9625C1243.43 11.0475 1243.38 11.1463 1243.21 11.4322C1243.05 11.718 1242.79 12.1811 1242.33 12.987C1242.18 13.2595 1242.08 13.4681 1241.97 13.6927C1241.96 13.7147 1241.95 13.7369 1241.94 13.7593C1241.94 13.7594 1241.94 13.7595 1241.94 13.7597C1241.84 13.9661 1241.74 14.1921 1241.59 14.4899C1241.24 15.1757 1240.79 16.1107 1240.7 16.3412C1240.68 16.3863 1240.67 16.4304 1240.65 16.4769C1240.58 16.6554 1240.5 16.8716 1240.28 17.3369C1240.24 17.4387 1240.18 17.5566 1240.11 17.6844C1240.05 17.8951 1239.99 18.0997 1239.92 18.2727C1239.87 18.4219 1239.84 18.5688 1239.81 18.7139C1239.8 18.7557 1239.8 18.798 1239.79 18.8403C1239.77 18.9422 1239.75 19.0443 1239.73 19.141C1239.71 19.2181 1239.7 19.3003 1239.68 19.3873C1239.62 19.704 1239.56 20.0862 1239.34 20.5145C1239.11 20.9683 1238.9 21.3445 1238.71 21.6669C1238.85 21.4343 1238.98 21.259 1239.08 21.1135C1239.1 21.086 1239.12 21.0597 1239.13 21.0344C1239.26 20.8556 1239.35 20.725 1239.43 20.573C1239.78 19.8467 1239.89 19.5583 1239.97 19.2116C1239.99 19.1202 1240.01 19.0172 1240.03 18.9064C1240.07 18.685 1240.12 18.4328 1240.21 18.1789C1240.28 17.9423 1240.36 17.6722 1240.45 17.3877C1240.45 17.3876 1240.45 17.3875 1240.45 17.3874C1240.46 17.3318 1240.48 17.2756 1240.5 17.219C1240.6 16.8739 1240.72 16.5149 1240.86 16.1769C1240.87 16.1408 1240.89 16.0971 1240.91 16.0471C1241.02 15.7574 1241.22 15.2554 1241.56 14.6892C1241.63 14.5646 1241.72 14.4386 1241.81 14.2939C1241.84 14.2498 1241.87 14.204 1241.9 14.156C1242.03 13.9488 1242.18 13.6938 1242.37 13.3448C1242.52 13.0568 1242.7 12.7013 1242.88 12.3311C1242.97 12.1487 1243.06 11.9628 1243.15 11.7793C1243.43 11.2253 1243.67 10.7156 1243.91 10.202C1243.91 10.2019 1243.91 10.2018 1243.91 10.2017C1243.94 10.1411 1243.96 10.094 1243.96 10.0968C1243.96 10.0995 1243.94 10.1524 1243.91 10.2148C1243.7 10.742 1243.48 11.2626 1243.23 11.8275C1243.15 12.0123 1243.07 12.201 1242.99 12.3867C1242.82 12.7669 1242.65 13.1349 1242.5 13.4315C1242.33 13.7937 1242.18 14.0583 1242.06 14.2724C1242.03 14.324 1242 14.3723 1241.97 14.4181C1241.88 14.5638 1241.81 14.6842 1241.74 14.8045C1241.44 15.3626 1241.25 15.8526 1241.15 16.1472C1241.13 16.1994 1241.11 16.2452 1241.1 16.284C1240.97 16.6199 1240.87 16.9776 1240.77 17.3263C1240.75 17.3829 1240.74 17.4392 1240.72 17.4952C1240.72 17.4953 1240.72 17.4954 1240.72 17.4956C1240.64 17.7831 1240.57 18.0608 1240.49 18.3041C1240.41 18.5511 1240.37 18.7808 1240.34 18.9963C1240.32 19.112 1240.3 19.2235 1240.28 19.3312C1240.2 19.7019 1240.09 20.0081 1239.74 20.7415ZM1243.73 10.3795C1243.63 10.5092 1243.55 10.6149 1243.49 10.6946C1243.54 10.6277 1243.59 10.5609 1243.64 10.4939C1243.67 10.4557 1243.7 10.4176 1243.73 10.3795ZM1239.83 17.5548C1239.84 17.5296 1239.85 17.5042 1239.86 17.4788C1239.83 17.5435 1239.79 17.6081 1239.76 17.6726C1239.72 17.7519 1239.68 17.831 1239.64 17.9102C1239.71 17.7868 1239.77 17.667 1239.83 17.5548ZM1239.03 20.3457C1239.24 19.9444 1239.3 19.5958 1239.37 19.2837C1239.38 19.1938 1239.4 19.1067 1239.42 19.0222C1239.43 18.9871 1239.44 18.9517 1239.45 18.9157C1239.35 19.0939 1239.25 19.2573 1239.18 19.3909C1238.95 19.7895 1238.8 20.0054 1238.67 20.1949C1238.63 20.2497 1238.59 20.3023 1238.56 20.3565C1238.54 20.4097 1238.53 20.4646 1238.51 20.5195C1238.48 20.5963 1238.46 20.6785 1238.43 20.7561C1238.4 20.834 1238.37 20.9125 1238.34 20.9888C1238.31 21.0658 1238.28 21.1413 1238.24 21.2161C1238.21 21.2864 1238.18 21.3561 1238.15 21.4234C1238.15 21.4273 1238.15 21.4312 1238.15 21.435C1238.12 21.5063 1238.08 21.5755 1238.06 21.6404C1238.03 21.7064 1238.01 21.7626 1238 21.8152C1237.98 21.8808 1237.96 21.9476 1237.95 22.0132C1237.93 22.0789 1237.91 22.1439 1237.89 22.2082C1237.87 22.2727 1237.85 22.3361 1237.83 22.3994C1237.82 22.4199 1237.82 22.4413 1237.81 22.4615C1237.81 22.4708 1237.8 22.4802 1237.8 22.4894C1237.86 22.3774 1237.93 22.2613 1238 22.1417C1238.09 21.969 1238.2 21.788 1238.32 21.588C1238.53 21.2468 1238.77 20.8502 1239.03 20.3457ZM1236.9 24.2089C1236.93 24.1597 1236.96 24.087 1237.01 23.9931C1237.02 23.9709 1237.03 23.9474 1237.05 23.9228C1237.05 23.9234 1237.05 23.9239 1237.04 23.9245C1237 23.9795 1236.97 24.0306 1236.93 24.0863C1236.86 24.1857 1236.79 24.283 1236.72 24.382C1236.66 24.4815 1236.59 24.5815 1236.53 24.6824C1236.46 24.7835 1236.4 24.8857 1236.34 24.9878C1236.28 25.091 1236.22 25.1935 1236.17 25.298C1236.15 25.3313 1236.13 25.3648 1236.11 25.3984C1236.16 25.3288 1236.21 25.2555 1236.26 25.1781C1236.31 25.1163 1236.35 25.0518 1236.4 24.9844C1236.41 24.9587 1236.44 24.9279 1236.46 24.8921C1236.57 24.7501 1236.73 24.5273 1236.9 24.2089ZM1234.89 26.4274C1234.87 26.4115 1234.85 26.3955 1234.83 26.3795C1234.76 26.3337 1234.7 26.2875 1234.65 26.2416C1234.61 26.2094 1234.57 26.1772 1234.53 26.1456C1234.51 26.1322 1234.49 26.1189 1234.48 26.1057C1234.45 26.0836 1234.42 26.0617 1234.4 26.04C1234.55 26.1852 1234.71 26.326 1234.87 26.4675L1235.47 26.9131L1235.78 26.2888C1235.79 26.2622 1235.81 26.2355 1235.83 26.2087C1235.83 26.2058 1235.83 26.2029 1235.83 26.2001C1235.8 26.2234 1235.77 26.2462 1235.74 26.2686L1235.45 26.8492L1234.9 26.4348C1234.9 26.4323 1234.89 26.4299 1234.89 26.4274Z" fill="black"/>
<path d="M1234.61 11.2258C1234.56 11.3504 1234.48 11.4549 1234.38 11.586C1234.38 11.5861 1234.38 11.5862 1234.38 11.5862C1234.37 11.605 1234.35 11.6242 1234.34 11.6442C1234.22 11.8049 1234.07 12.0151 1233.87 12.3489C1233.65 12.7177 1233.4 12.9683 1233.21 13.1033C1233.17 13.1285 1233.15 13.1589 1233.09 13.2435C1233.06 13.2859 1233.03 13.3404 1232.98 13.4127C1232.97 13.4351 1232.95 13.4591 1232.93 13.4851C1232.9 13.5435 1232.85 13.6114 1232.8 13.6907C1232.64 13.9532 1232.4 14.3812 1232.18 14.7727C1232.05 15.0104 1231.92 15.2348 1231.82 15.4024C1231.8 15.422 1231.79 15.4415 1231.78 15.461L1231.31 16.4515L1230.33 15.7463C1230.14 15.5686 1229.96 15.3855 1229.76 15.1871C1229.56 14.9896 1229.36 14.7769 1229.11 14.5378C1228.92 14.3542 1228.77 14.1301 1228.62 13.9015C1228.6 13.8724 1228.58 13.8431 1228.57 13.8139C1228.43 13.6121 1228.3 13.4088 1228.13 13.2146C1227.83 12.8689 1227.54 12.6507 1227.23 12.3999C1227.11 12.3021 1226.98 12.1996 1226.85 12.0844C1226.64 11.9023 1226.35 11.6284 1226.06 11.3521C1226.03 11.3285 1226.01 11.305 1225.98 11.2814C1225.98 11.2813 1225.98 11.2812 1225.98 11.2811C1225.72 11.0279 1225.45 10.7787 1225.26 10.5973C1224.95 10.3091 1224.84 10.2026 1224.74 10.113C1224.7 10.0793 1224.67 10.0479 1224.63 10.0099C1224.49 9.87282 1224.28 9.6589 1224.07 9.44232C1224.07 9.44149 1224.06 9.44066 1224.06 9.43984C1224.03 9.40367 1224 9.37464 1224 9.375C1224 9.37537 1224.03 9.40257 1224.07 9.43578C1224.19 9.54238 1224.3 9.64652 1224.41 9.73937C1224.42 9.73779 1224.45 9.75697 1224.48 9.78598C1224.57 9.85836 1224.84 10.079 1225.28 10.3935C1225.25 10.367 1225.23 10.3446 1225.21 10.3249C1225.19 10.3017 1225.17 10.2838 1225.16 10.2685C1225.13 10.2366 1225.11 10.2157 1225.07 10.1821C1224.97 10.1071 1224.82 9.99333 1224.66 9.87386C1224.63 9.84351 1224.6 9.81093 1224.61 9.80104C1224.62 9.79117 1224.66 9.80548 1224.7 9.83306C1224.7 9.8336 1224.7 9.83415 1224.7 9.83469C1224.87 9.94364 1225.03 10.0521 1225.13 10.1249C1225.16 10.1434 1225.18 10.1597 1225.19 10.172C1225.21 10.1819 1225.22 10.1944 1225.23 10.202C1225.23 10.203 1225.24 10.2049 1225.24 10.2073C1225.24 10.2074 1225.24 10.2074 1225.24 10.2075C1225.24 10.2088 1225.25 10.2157 1225.25 10.2246C1225.25 10.2264 1225.26 10.2304 1225.26 10.2356C1225.26 10.2365 1225.26 10.2375 1225.26 10.2384C1225.28 10.2517 1225.29 10.2654 1225.31 10.28C1225.37 10.3372 1225.46 10.4252 1225.67 10.6042C1225.86 10.7688 1226.19 11.0357 1226.61 11.3594C1226.59 11.3346 1226.56 11.3099 1226.54 11.2854C1226.47 11.2237 1226.4 11.163 1226.33 11.1029C1226.31 11.0799 1226.28 11.0573 1226.25 11.0344C1226.21 10.9975 1226.17 10.9608 1226.13 10.9244C1226.1 10.8997 1226.07 10.8751 1226.04 10.8507C1226.04 10.8506 1226.04 10.8506 1226.04 10.8505C1226 10.8165 1225.96 10.7826 1225.92 10.7486C1225.9 10.7366 1225.89 10.7248 1225.87 10.7132C1225.82 10.6668 1225.76 10.6214 1225.7 10.5674C1225.69 10.5606 1225.68 10.553 1225.68 10.5473C1225.67 10.5411 1225.66 10.5351 1225.66 10.5294C1225.65 10.5243 1225.65 10.5194 1225.64 10.5148C1225.64 10.5142 1225.64 10.5136 1225.64 10.513C1225.64 10.5078 1225.63 10.5029 1225.63 10.4982C1225.62 10.4935 1225.62 10.489 1225.61 10.4846C1225.61 10.4846 1225.61 10.4846 1225.61 10.4845C1225.61 10.48 1225.61 10.4766 1225.6 10.472C1225.59 10.4662 1225.59 10.4613 1225.58 10.4555C1225.57 10.4499 1225.57 10.4441 1225.56 10.4384C1225.55 10.4326 1225.55 10.4269 1225.54 10.4211C1225.53 10.4153 1225.52 10.4094 1225.51 10.4035C1225.51 10.3977 1225.5 10.3918 1225.49 10.3858C1225.48 10.3799 1225.47 10.3739 1225.47 10.3679C1225.45 10.3541 1225.43 10.3368 1225.43 10.32C1225.42 10.3031 1225.42 10.2881 1225.43 10.2779C1225.43 10.2676 1225.45 10.2628 1225.47 10.264C1225.49 10.2653 1225.51 10.2726 1225.53 10.2845C1225.54 10.2877 1225.55 10.2909 1225.55 10.2942C1225.56 10.2961 1225.56 10.2981 1225.56 10.3001C1225.57 10.3053 1225.58 10.3106 1225.59 10.3159C1225.6 10.3213 1225.61 10.3268 1225.62 10.3323C1225.63 10.3379 1225.64 10.3436 1225.64 10.3494C1225.65 10.3552 1225.66 10.3613 1225.67 10.3675C1225.68 10.3736 1225.69 10.3807 1225.7 10.3873C1225.71 10.392 1225.72 10.3981 1225.72 10.4032C1225.73 10.4085 1225.74 10.4139 1225.74 10.4191C1225.75 10.4243 1225.76 10.4294 1225.76 10.4343C1225.76 10.4349 1225.76 10.4354 1225.77 10.4359C1225.77 10.4402 1225.78 10.4444 1225.78 10.4484C1225.79 10.4528 1225.79 10.4569 1225.8 10.4607C1225.8 10.465 1225.81 10.4675 1225.81 10.4705C1225.87 10.5087 1225.94 10.5538 1226.01 10.5969C1226.02 10.6023 1226.03 10.6077 1226.04 10.613C1226.08 10.6413 1226.13 10.6694 1226.17 10.6976C1226.2 10.7181 1226.24 10.7385 1226.27 10.7591C1226.32 10.7894 1226.37 10.8199 1226.42 10.8504C1226.45 10.8694 1226.48 10.8881 1226.51 10.9071C1226.58 10.9569 1226.66 11.0072 1226.74 11.0584C1226.82 11.1096 1226.89 11.1619 1226.97 11.2156C1227.05 11.2691 1227.12 11.3263 1227.2 11.3843C1227.25 11.4271 1227.3 11.4747 1227.35 11.5202C1227.37 11.5447 1227.4 11.5689 1227.42 11.593C1227.42 11.5931 1227.42 11.5932 1227.42 11.5933C1227.44 11.6144 1227.46 11.6353 1227.48 11.656C1227.53 11.7005 1227.57 11.7436 1227.61 11.7858C1227.66 11.8278 1227.7 11.8687 1227.75 11.9086C1227.8 11.9482 1227.84 11.9873 1227.89 12.0249C1227.94 12.0626 1227.99 12.0986 1228.04 12.1354C1228.11 12.1837 1228.18 12.2301 1228.25 12.2775C1228.32 12.3245 1228.39 12.3713 1228.46 12.4181C1228.48 12.4345 1228.51 12.451 1228.53 12.4674C1228.53 12.4675 1228.53 12.4675 1228.53 12.4676C1228.58 12.498 1228.63 12.5284 1228.67 12.5589C1228.74 12.6061 1228.82 12.6535 1228.89 12.7017C1228.96 12.7498 1229.03 12.7988 1229.1 12.8493C1229.17 12.8999 1229.24 12.9529 1229.31 13.0098C1229.38 13.0604 1229.44 13.1127 1229.5 13.164C1229.51 13.1776 1229.53 13.1911 1229.54 13.2047C1229.62 13.2691 1229.69 13.3307 1229.77 13.3881C1229.84 13.4456 1229.92 13.4996 1230 13.5512C1230.08 13.6027 1230.17 13.6521 1230.25 13.7002C1230.34 13.7484 1230.42 13.7943 1230.51 13.8401C1230.6 13.8855 1230.69 13.9301 1230.78 13.9744C1230.83 13.9991 1230.89 14.0266 1230.94 14.0533C1230.99 14.0802 1231.04 14.1077 1231.08 14.1351C1231.1 14.1463 1231.12 14.1575 1231.14 14.1685C1231.17 14.1846 1231.2 14.2007 1231.23 14.2163C1231.27 14.2426 1231.32 14.2677 1231.36 14.291C1231.4 14.3092 1231.44 14.3262 1231.47 14.3416L1230.19 14.5933C1230.2 14.583 1230.2 14.5727 1230.2 14.5625C1230.21 14.5128 1230.22 14.4706 1230.22 14.4186C1230.24 14.2967 1230.26 14.2267 1230.29 14.149C1230.29 14.1336 1230.3 14.1179 1230.3 14.1016C1230.33 14.0088 1230.37 13.918 1230.4 13.8296C1230.44 13.7405 1230.48 13.654 1230.52 13.5677C1230.56 13.4823 1230.6 13.3975 1230.65 13.3142C1230.69 13.231 1230.74 13.1492 1230.79 13.0683C1230.84 12.9875 1230.89 12.9062 1230.95 12.8293C1230.98 12.7849 1231.01 12.7384 1231.04 12.6957C1231.07 12.6649 1231.09 12.6347 1231.11 12.6051C1231.12 12.593 1231.13 12.581 1231.14 12.5691C1231.17 12.5296 1231.2 12.491 1231.23 12.453C1231.23 12.4516 1231.23 12.4502 1231.23 12.4487C1231.26 12.4093 1231.28 12.3705 1231.31 12.3314C1231.33 12.2922 1231.35 12.2527 1231.37 12.2119C1231.39 12.1696 1231.4 12.1335 1231.42 12.086C1231.43 12.055 1231.44 12.0246 1231.45 11.9943C1231.46 11.9489 1231.47 11.9037 1231.49 11.858C1231.5 11.8124 1231.51 11.7673 1231.53 11.7218C1231.53 11.7071 1231.54 11.6917 1231.54 11.677C1231.55 11.6315 1231.57 11.5863 1231.58 11.5409C1231.59 11.4956 1231.6 11.4504 1231.61 11.4051C1231.62 11.3596 1231.63 11.3145 1231.64 11.2681C1231.66 11.1892 1231.68 11.12 1231.71 11.0606C1231.74 11.0005 1231.76 10.9459 1231.79 10.8929C1231.79 10.8829 1231.8 10.873 1231.8 10.863C1231.83 10.8203 1231.85 10.7784 1231.87 10.7368C1231.89 10.6855 1231.92 10.6348 1231.94 10.5834C1231.96 10.5326 1231.99 10.4808 1232.01 10.4291C1232.03 10.377 1232.05 10.3267 1232.07 10.2719C1232.09 10.2177 1232.1 10.1612 1232.12 10.0995C1232.14 10.0383 1232.16 9.97436 1232.19 9.91084C1232.21 9.84735 1232.24 9.78403 1232.26 9.7225C1232.29 9.66083 1232.32 9.60021 1232.35 9.54153C1232.38 9.48252 1232.42 9.42497 1232.45 9.36855C1232.49 9.31225 1232.53 9.25498 1232.56 9.20211C1232.62 9.1165 1232.68 9.03196 1232.74 8.94758C1232.81 8.86369 1232.87 8.77989 1232.93 8.69651C1232.99 8.61329 1233.05 8.5302 1233.12 8.44746C1233.18 8.36467 1233.24 8.28208 1233.31 8.19974C1233.32 8.18153 1233.33 8.16332 1233.35 8.14512C1233.4 8.08104 1233.45 8.01702 1233.49 7.9533C1233.5 7.95287 1233.5 7.95245 1233.5 7.95202C1233.56 7.86997 1233.62 7.78949 1233.68 7.70796C1233.71 7.67801 1233.73 7.64924 1233.75 7.61991C1233.77 7.59054 1233.79 7.56165 1233.82 7.5324C1233.84 7.50311 1233.86 7.47388 1233.88 7.44496C1233.9 7.41572 1233.92 7.38708 1233.94 7.35793C1233.96 7.33123 1233.98 7.30444 1234 7.27523C1234 7.27256 1234 7.2699 1234 7.26723C1234.02 7.23527 1234.05 7.19935 1234.07 7.16676C1234.14 7.08057 1234.2 6.99619 1234.27 6.90995C1234.33 6.82366 1234.39 6.73726 1234.46 6.65015C1234.48 6.61614 1234.51 6.58194 1234.53 6.5478C1234.57 6.49469 1234.61 6.44147 1234.65 6.38827C1234.72 6.30073 1234.78 6.21356 1234.85 6.12658C1234.92 6.03994 1234.99 5.95352 1235.06 5.86822C1235.13 5.78297 1235.2 5.6977 1235.28 5.61407C1235.36 5.52092 1235.44 5.42858 1235.52 5.33585C1235.6 5.24327 1235.68 5.1507 1235.77 5.05849C1235.85 4.96593 1235.93 4.87357 1236.01 4.78107C1236.09 4.68851 1236.17 4.59591 1236.25 4.50308C1236.3 4.44753 1236.35 4.39194 1236.4 4.33625C1236.42 4.30492 1236.44 4.27494 1236.46 4.2462C1236.61 4.03398 1236.73 3.8839 1236.89 3.69036C1236.91 3.67172 1236.92 3.65637 1236.93 3.63777C1236.94 3.63422 1236.94 3.63046 1236.94 3.62662C1236.96 3.60234 1236.98 3.57462 1237.02 3.53668C1237.08 3.46076 1237.19 3.34779 1237.32 3.20129C1237.36 3.16433 1237.38 3.14173 1237.38 3.15156C1237.37 3.1585 1237.36 3.18008 1237.34 3.2058C1237.38 3.1593 1237.41 3.1128 1237.45 3.06627C1237.46 3.0477 1237.48 3.03034 1237.49 3.01791C1237.5 3.0064 1237.5 3 1237.5 3C1237.5 3 1237.5 3 1237.5 3C1237.5 3 1237.5 3.00004 1237.5 3.00012C1237.5 3.00121 1237.49 3.00987 1237.48 3.0244C1237.47 3.03892 1237.46 3.05808 1237.45 3.07751C1237.41 3.12904 1237.38 3.18039 1237.34 3.23175C1237.31 3.28316 1237.27 3.33434 1237.24 3.38571C1237.2 3.43706 1237.17 3.48843 1237.14 3.54002C1237.1 3.5914 1237.07 3.64293 1237.03 3.69461C1237 3.74662 1236.96 3.79772 1236.93 3.8497C1236.91 3.88085 1236.89 3.91239 1236.87 3.94338C1236.86 3.95492 1236.85 3.96621 1236.85 3.97749C1236.84 3.98671 1236.83 3.99598 1236.83 4.00552C1236.76 4.10593 1236.7 4.20752 1236.63 4.30846C1236.57 4.40987 1236.5 4.51141 1236.44 4.61319C1236.38 4.71502 1236.31 4.81703 1236.25 4.91931C1236.19 5.02153 1236.12 5.12394 1236.06 5.2268C1236 5.32929 1235.94 5.43243 1235.88 5.53564C1235.83 5.61547 1235.78 5.69485 1235.74 5.77457C1235.72 5.80774 1235.71 5.84052 1235.69 5.87288C1235.65 5.96707 1235.61 6.06393 1235.57 6.16007C1235.66 6.00019 1235.72 5.86917 1235.78 5.74515C1235.79 5.72852 1235.8 5.71201 1235.81 5.69557C1235.89 5.52775 1235.98 5.36818 1236.11 5.16277C1236.49 4.57832 1236.71 4.24 1236.85 4.03006C1236.98 3.82012 1237.05 3.73148 1237.11 3.64994C1237.19 3.53498 1237.33 3.29864 1237.4 3.17896C1237.42 3.13566 1237.44 3.10142 1237.45 3.10252C1237.45 3.10362 1237.43 3.14113 1237.41 3.18625C1237.35 3.31713 1237.21 3.58236 1237.12 3.72343C1237.08 3.78638 1237.03 3.85996 1236.91 4.07369C1236.79 4.28735 1236.59 4.63396 1236.24 5.23674C1236.13 5.44055 1236.05 5.59813 1235.98 5.76837C1235.97 5.78506 1235.96 5.80191 1235.95 5.81889C1235.95 5.81899 1235.95 5.8191 1235.95 5.8192C1235.88 5.97578 1235.81 6.14747 1235.7 6.37209C1235.44 6.8891 1235.12 7.59708 1235.06 7.77371C1235.05 7.80829 1235.04 7.84215 1235.02 7.87787C1234.98 8.01499 1234.93 8.18115 1234.77 8.53389C1234.74 8.61103 1234.69 8.70012 1234.65 8.79648C1234.61 8.95995 1234.57 9.11869 1234.53 9.25176C1234.49 9.36659 1234.48 9.48174 1234.47 9.5961C1234.47 9.62902 1234.46 9.66242 1234.46 9.69578C1234.46 9.77623 1234.45 9.85692 1234.44 9.93268C1234.43 9.99307 1234.43 10.0578 1234.42 10.1264C1234.4 10.3758 1234.37 10.6775 1234.22 11.0008C1234.05 11.3433 1233.88 11.6243 1233.74 11.8645C1233.85 11.6923 1233.95 11.5635 1234.03 11.4568C1234.05 11.4367 1234.06 11.4174 1234.08 11.3988C1234.18 11.2677 1234.25 11.1718 1234.3 11.057C1234.56 10.5081 1234.63 10.2863 1234.67 10.0147C1234.68 9.94315 1234.69 9.86194 1234.7 9.77468C1234.71 9.60021 1234.73 9.40174 1234.78 9.20555C1234.83 9.02276 1234.88 8.81285 1234.93 8.59206C1234.93 8.59198 1234.93 8.59191 1234.93 8.59183C1234.94 8.54868 1234.95 8.50508 1234.96 8.4612C1235.02 8.19356 1235.1 7.91607 1235.19 7.65739C1235.2 7.62972 1235.21 7.59625 1235.22 7.55787C1235.3 7.33556 1235.44 6.95183 1235.69 6.53001C1235.75 6.43714 1235.81 6.34403 1235.89 6.23696C1235.91 6.20435 1235.93 6.17045 1235.96 6.13485C1236.06 5.98123 1236.17 5.79138 1236.31 5.52907C1236.43 5.31263 1236.56 5.04435 1236.69 4.76474C1236.76 4.62699 1236.82 4.48648 1236.89 4.34783C1237.09 3.92906 1237.27 3.54331 1237.43 3.15338C1237.43 3.1533 1237.43 3.15322 1237.43 3.15315C1237.45 3.10721 1237.47 3.07159 1237.47 3.07381C1237.47 3.07604 1237.46 3.11668 1237.44 3.1644C1237.3 3.5678 1237.14 3.96488 1236.97 4.39502C1236.91 4.53573 1236.85 4.67932 1236.79 4.82054C1236.67 5.10975 1236.56 5.3893 1236.45 5.61366C1236.32 5.88763 1236.21 6.08598 1236.12 6.24573C1236.1 6.28421 1236.07 6.32021 1236.05 6.35431C1235.99 6.46288 1235.93 6.55235 1235.88 6.64256C1235.65 7.06087 1235.53 7.43704 1235.46 7.66407C1235.45 7.70421 1235.44 7.7395 1235.43 7.7693C1235.34 8.02745 1235.28 8.30497 1235.22 8.57622C1235.22 8.62022 1235.21 8.66406 1235.2 8.70763C1235.2 8.70773 1235.2 8.70783 1235.2 8.70794C1235.15 8.93178 1235.11 9.14822 1235.07 9.33681C1235.02 9.52818 1235.01 9.70934 1234.99 9.87954C1234.99 9.97086 1234.98 10.0589 1234.97 10.1435C1234.94 10.4345 1234.87 10.6704 1234.61 11.2258ZM1237.28 3.27759C1237.2 3.37216 1237.14 3.44922 1237.1 3.50754C1237.14 3.45877 1237.17 3.41003 1237.21 3.36113C1237.24 3.3333 1237.26 3.30546 1237.28 3.27759ZM1234.37 8.6625C1234.37 8.64303 1234.38 8.62342 1234.38 8.60376C1234.36 8.65251 1234.34 8.70121 1234.31 8.74986C1234.28 8.80959 1234.25 8.86926 1234.22 8.92892C1234.27 8.83657 1234.32 8.74674 1234.37 8.6625ZM1233.91 10.8317C1234.06 10.5295 1234.08 10.2549 1234.11 10.0095C1234.12 9.93875 1234.13 9.87034 1234.14 9.80423C1234.14 9.77681 1234.14 9.74899 1234.15 9.72072C1234.07 9.85412 1234 9.97623 1233.94 10.0761C1233.77 10.374 1233.65 10.5326 1233.55 10.6718C1233.52 10.712 1233.49 10.7507 1233.46 10.7905C1233.45 10.8319 1233.44 10.8746 1233.43 10.917C1233.42 10.9765 1233.4 11.0399 1233.38 11.0997C1233.36 11.1596 1233.34 11.2198 1233.32 11.2783C1233.3 11.3372 1233.28 11.3949 1233.26 11.4519C1233.23 11.5054 1233.21 11.5584 1233.19 11.6096C1233.19 11.6126 1233.19 11.6155 1233.19 11.6184C1233.16 11.6726 1233.14 11.7253 1233.12 11.7748C1233.11 11.8253 1233.09 11.8686 1233.09 11.9097C1233.08 11.9611 1233.07 12.0132 1233.06 12.0643C1233.05 12.1154 1233.04 12.1659 1233.03 12.2158C1233.02 12.2658 1233 12.315 1232.99 12.3639C1232.99 12.3797 1232.98 12.3963 1232.98 12.4119C1232.98 12.4191 1232.97 12.4263 1232.97 12.4335C1233.02 12.3495 1233.07 12.2626 1233.12 12.1732C1233.19 12.044 1233.28 11.9094 1233.37 11.7607C1233.53 11.5069 1233.71 11.2117 1233.91 10.8317ZM1232.3 13.7273C1232.32 13.6903 1232.35 13.6354 1232.39 13.5646C1232.39 13.5478 1232.4 13.5301 1232.41 13.5116C1232.41 13.512 1232.41 13.5124 1232.41 13.5128C1232.38 13.5529 1232.35 13.5902 1232.32 13.6311C1232.26 13.7039 1232.21 13.7754 1232.16 13.8484C1232.1 13.9217 1232.05 13.9957 1232 14.0705C1231.95 14.1454 1231.91 14.2214 1231.86 14.2976C1231.81 14.3745 1231.77 14.4511 1231.73 14.5296C1231.71 14.5546 1231.7 14.5797 1231.69 14.605C1231.73 14.554 1231.77 14.5 1231.81 14.443C1231.84 14.3975 1231.87 14.35 1231.91 14.3006C1231.93 14.2816 1231.94 14.2592 1231.96 14.233C1232.05 14.1293 1232.18 13.9667 1232.3 13.7273ZM1230.58 15.4286C1230.57 15.4171 1230.55 15.4054 1230.53 15.3936C1230.48 15.36 1230.44 15.3256 1230.4 15.2914C1230.37 15.2674 1230.34 15.2433 1230.31 15.2195C1230.29 15.2095 1230.28 15.1996 1230.27 15.1897C1230.25 15.1731 1230.23 15.1568 1230.21 15.1406C1230.32 15.2521 1230.44 15.36 1230.56 15.4675L1231.17 15.9093L1231.47 15.2888C1231.48 15.269 1231.49 15.2491 1231.5 15.229C1231.5 15.2269 1231.5 15.2247 1231.51 15.2226C1231.48 15.2383 1231.45 15.2536 1231.43 15.2686L1231.15 15.8457L1230.58 15.4348C1230.58 15.4327 1230.58 15.4307 1230.58 15.4286Z" fill="black"/>
<path d="M1245.78 5.09963C1245.75 5.17446 1245.7 5.23218 1245.64 5.3042C1245.64 5.30425 1245.64 5.3043 1245.64 5.30434C1245.63 5.31463 1245.62 5.32519 1245.61 5.33615C1245.53 5.42441 1245.42 5.54059 1245.3 5.7327C1245.16 5.94498 1244.98 6.07076 1244.83 6.12938C1244.81 6.14031 1244.79 6.15605 1244.75 6.20366C1244.73 6.22749 1244.71 6.2585 1244.68 6.29968C1244.67 6.31241 1244.66 6.32612 1244.65 6.34089C1244.63 6.37415 1244.6 6.41282 1244.57 6.4578C1244.46 6.60682 1244.32 6.85719 1244.19 7.08495C1244.11 7.22329 1244.03 7.35349 1243.96 7.44944C1243.96 7.45547 1243.96 7.46147 1243.95 7.46745L1243.53 8.42279L1242.51 7.75231C1242.39 7.64014 1242.29 7.52036 1242.18 7.38988C1242.07 7.26496 1241.96 7.1303 1241.82 6.98141C1241.71 6.86701 1241.64 6.70994 1241.58 6.54938C1241.57 6.52893 1241.56 6.5084 1241.55 6.48786C1241.49 6.34613 1241.43 6.20428 1241.34 6.07668C1241.18 5.84962 1241.01 5.72645 1240.83 5.58091C1240.76 5.5242 1240.68 5.46447 1240.61 5.39555C1240.48 5.28659 1240.32 5.11787 1240.15 4.94713C1240.14 4.93259 1240.13 4.91804 1240.11 4.9035C1240.11 4.90342 1240.11 4.90335 1240.11 4.90328C1239.96 4.74671 1239.81 4.5924 1239.7 4.48064C1239.53 4.30298 1239.46 4.23812 1239.41 4.18326C1239.39 4.16261 1239.37 4.14331 1239.35 4.11966C1239.27 4.03443 1239.15 3.89873 1239.04 3.76144C1239.04 3.76092 1239.04 3.76039 1239.03 3.75987C1239.02 3.73686 1239 3.71845 1239 3.71875C1239 3.71906 1239.02 3.73552 1239.04 3.75556C1239.11 3.82011 1239.17 3.88321 1239.23 3.93932C1239.24 3.9358 1239.26 3.94504 1239.28 3.96219C1239.33 4.00486 1239.49 4.13454 1239.76 4.30645C1239.74 4.28972 1239.73 4.27545 1239.72 4.26285C1239.71 4.24805 1239.7 4.23658 1239.69 4.2268C1239.67 4.20643 1239.66 4.19321 1239.64 4.17325C1239.59 4.12976 1239.5 4.06563 1239.4 3.9984C1239.38 3.98125 1239.36 3.95926 1239.37 3.94925C1239.38 3.93925 1239.41 3.94275 1239.43 3.95712C1239.43 3.95741 1239.44 3.95769 1239.44 3.95797C1239.54 4.01513 1239.64 4.07226 1239.7 4.11208C1239.72 4.12221 1239.73 4.13122 1239.74 4.13817C1239.75 4.14372 1239.76 4.15075 1239.76 4.15534C1239.76 4.15595 1239.76 4.15713 1239.76 4.15864C1239.76 4.15867 1239.76 4.1587 1239.76 4.15873C1239.77 4.15958 1239.77 4.16387 1239.77 4.17003C1239.77 4.17127 1239.77 4.17401 1239.77 4.17783C1239.78 4.17842 1239.78 4.17901 1239.78 4.1796C1239.78 4.18784 1239.79 4.19632 1239.8 4.20534C1239.84 4.24067 1239.89 4.29407 1240.01 4.40098C1240.12 4.49919 1240.32 4.65392 1240.57 4.83757C1240.56 4.82217 1240.54 4.80693 1240.53 4.79189C1240.49 4.75406 1240.45 4.7172 1240.41 4.68108C1240.39 4.66725 1240.38 4.65369 1240.36 4.64002C1240.34 4.61799 1240.31 4.59615 1240.29 4.57457C1240.27 4.55999 1240.26 4.54549 1240.24 4.53109C1240.24 4.53106 1240.24 4.53103 1240.24 4.531C1240.21 4.511 1240.19 4.4911 1240.17 4.47117C1240.16 4.46414 1240.15 4.45724 1240.14 4.45043C1240.11 4.42332 1240.07 4.39692 1240.04 4.36473C1240.03 4.36056 1240.03 4.35585 1240.03 4.35223C1240.02 4.34837 1240.02 4.3446 1240.02 4.34098C1240.01 4.33778 1240.01 4.33467 1240.01 4.33173C1240.01 4.33134 1240.01 4.33095 1240.01 4.33055C1240 4.32727 1240 4.32417 1240 4.32121C1240 4.31826 1239.99 4.31542 1239.99 4.31274C1239.99 4.31272 1239.99 4.3127 1239.99 4.31269C1239.99 4.3099 1239.99 4.30779 1239.98 4.30499C1239.98 4.30149 1239.98 4.29856 1239.97 4.29515C1239.97 4.29185 1239.96 4.28851 1239.96 4.28522C1239.96 4.28192 1239.95 4.27864 1239.95 4.27535C1239.94 4.27207 1239.94 4.26876 1239.93 4.26548C1239.93 4.2622 1239.92 4.25892 1239.92 4.25562C1239.91 4.25233 1239.91 4.249 1239.9 4.24568C1239.89 4.23802 1239.89 4.22659 1239.88 4.21404C1239.88 4.20147 1239.88 4.18884 1239.89 4.17849C1239.9 4.16816 1239.91 4.16078 1239.93 4.15761C1239.94 4.15445 1239.96 4.1558 1239.97 4.16147C1239.98 4.16302 1239.98 4.16457 1239.98 4.16613C1239.98 4.16706 1239.99 4.16802 1239.99 4.16895C1239.99 4.17148 1240 4.17401 1240.01 4.17661C1240.01 4.17921 1240.02 4.18188 1240.02 4.18461C1240.03 4.18735 1240.04 4.19016 1240.04 4.1931C1240.05 4.19604 1240.05 4.19912 1240.06 4.20237C1240.06 4.20553 1240.07 4.2093 1240.08 4.21284C1240.08 4.21541 1240.09 4.21878 1240.09 4.22164C1240.09 4.22463 1240.1 4.22766 1240.1 4.23065C1240.11 4.23365 1240.11 4.23663 1240.11 4.23948C1240.11 4.23978 1240.11 4.24008 1240.12 4.24038C1240.12 4.2429 1240.12 4.24534 1240.12 4.24761C1240.13 4.25016 1240.13 4.25251 1240.13 4.25469C1240.14 4.25711 1240.14 4.25847 1240.14 4.26011C1240.18 4.28019 1240.22 4.30289 1240.27 4.32457C1240.27 4.32729 1240.28 4.33002 1240.28 4.3327C1240.31 4.34692 1240.34 4.36107 1240.37 4.37523C1240.39 4.38552 1240.41 4.39582 1240.43 4.40619C1240.46 4.42145 1240.49 4.43686 1240.52 4.45237C1240.54 4.46201 1240.56 4.47153 1240.58 4.48127C1240.63 4.50667 1240.67 4.53258 1240.72 4.55937C1240.77 4.58613 1240.82 4.61387 1240.87 4.64304C1240.91 4.67211 1240.96 4.70385 1241 4.73738C1241.03 4.7621 1241.06 4.79131 1241.09 4.81973C1241.1 4.83502 1241.12 4.85028 1241.13 4.8655C1241.13 4.86557 1241.13 4.86563 1241.13 4.86569C1241.14 4.87906 1241.15 4.89235 1241.16 4.90544C1241.19 4.93355 1241.21 4.96069 1241.24 4.98677C1241.26 5.01282 1241.29 5.03774 1241.31 5.06159C1241.34 5.08524 1241.37 5.10812 1241.4 5.1296C1241.42 5.15119 1241.45 5.17126 1241.49 5.19139C1241.53 5.21776 1241.57 5.2424 1241.61 5.2674C1241.66 5.29216 1241.7 5.31656 1241.74 5.34099C1241.76 5.34952 1241.78 5.35814 1241.79 5.36669C1241.79 5.36672 1241.79 5.36676 1241.79 5.3668C1241.82 5.3826 1241.85 5.39843 1241.88 5.41436C1241.92 5.43895 1241.97 5.46374 1242.01 5.48921C1242.06 5.51468 1242.1 5.54083 1242.14 5.56838C1242.19 5.59599 1242.23 5.62545 1242.27 5.65869C1242.31 5.68823 1242.34 5.71925 1242.38 5.74983C1242.39 5.7579 1242.4 5.76598 1242.4 5.77407C1242.45 5.81239 1242.49 5.8488 1242.54 5.88126C1242.58 5.91381 1242.63 5.9429 1242.68 5.96934C1242.73 5.9957 1242.78 6.01969 1242.84 6.04209C1242.89 6.0646 1242.95 6.08502 1243.01 6.10484C1243.06 6.12446 1243.12 6.14316 1243.18 6.16132C1243.21 6.17145 1243.25 6.18341 1243.28 6.19544C1243.31 6.20758 1243.34 6.22038 1243.38 6.23335C1243.39 6.23861 1243.4 6.24395 1243.41 6.2492C1243.43 6.25686 1243.45 6.26449 1243.47 6.27181C1243.5 6.28416 1243.53 6.2957 1243.55 6.3057C1243.58 6.31569 1243.61 6.32404 1243.64 6.33C1243.65 6.33006 1243.65 6.33013 1243.65 6.3302L1242.36 6.58381C1242.36 6.55215 1242.36 6.52467 1242.36 6.49035C1242.35 6.41061 1242.36 6.36684 1242.37 6.3182C1242.37 6.30862 1242.37 6.29878 1242.38 6.28851C1242.39 6.23069 1242.4 6.17477 1242.42 6.12089C1242.44 6.06653 1242.46 6.01436 1242.48 5.96279C1242.5 5.91172 1242.53 5.86161 1242.56 5.81284C1242.58 5.76415 1242.61 5.71674 1242.64 5.6704C1242.67 5.6241 1242.71 5.57809 1242.74 5.53504C1242.76 5.51016 1242.78 5.48452 1242.81 5.46111C1242.82 5.44421 1242.84 5.42776 1242.85 5.41165C1242.86 5.40507 1242.87 5.39853 1242.87 5.39205C1242.89 5.37051 1242.91 5.34942 1242.93 5.32837C1242.93 5.32757 1242.93 5.32677 1242.93 5.32597C1242.95 5.30412 1242.97 5.28227 1242.98 5.25971C1243 5.23712 1243.01 5.21381 1243.02 5.18925C1243.03 5.16374 1243.04 5.1416 1243.04 5.11191C1243.04 5.09253 1243.05 5.07347 1243.05 5.05447C1243.06 5.02602 1243.06 4.99767 1243.07 4.96901C1243.07 4.94037 1243.08 4.91196 1243.08 4.88324C1243.08 4.87401 1243.08 4.86426 1243.08 4.85496C1243.09 4.82622 1243.09 4.79762 1243.1 4.76876C1243.1 4.73995 1243.1 4.71114 1243.1 4.68207C1243.1 4.65289 1243.11 4.62385 1243.11 4.59387C1243.11 4.54285 1243.12 4.50032 1243.13 4.46431C1243.15 4.42797 1243.16 4.39553 1243.18 4.36404C1243.18 4.35814 1243.18 4.35225 1243.18 4.34636C1243.2 4.32102 1243.21 4.2962 1243.22 4.27146C1243.23 4.24098 1243.25 4.21064 1243.26 4.17977C1243.27 4.14917 1243.28 4.11784 1243.29 4.08637C1243.3 4.05459 1243.31 4.02374 1243.32 3.98988C1243.33 3.95644 1243.34 3.92096 1243.34 3.88227C1243.35 3.8439 1243.36 3.80394 1243.37 3.76471C1243.38 3.72549 1243.39 3.68683 1243.41 3.6498C1243.42 3.61268 1243.44 3.57671 1243.46 3.54235C1243.48 3.50779 1243.5 3.47456 1243.52 3.44234C1243.54 3.41019 1243.57 3.37788 1243.59 3.34837C1243.63 3.3006 1243.67 3.25372 1243.71 3.20709C1243.75 3.16074 1243.79 3.11459 1243.83 3.0688C1243.88 3.0231 1243.92 2.97756 1243.96 2.93232C1244 2.88706 1244.05 2.84198 1244.09 2.7971C1244.1 2.78718 1244.11 2.77726 1244.12 2.76734C1244.15 2.73243 1244.19 2.69759 1244.22 2.66291C1244.22 2.66268 1244.22 2.66246 1244.22 2.66223C1244.26 2.61757 1244.31 2.5738 1244.35 2.52935C1244.36 2.51301 1244.38 2.49732 1244.39 2.48127C1244.41 2.46521 1244.42 2.44937 1244.44 2.43329C1244.45 2.4172 1244.47 2.40108 1244.48 2.38507C1244.5 2.36887 1244.51 2.35295 1244.52 2.33664C1244.53 2.3217 1244.55 2.30658 1244.56 2.29013C1244.56 2.28862 1244.56 2.28712 1244.56 2.28562C1244.58 2.26762 1244.59 2.24757 1244.61 2.22976C1244.65 2.1827 1244.7 2.13645 1244.74 2.08902C1244.78 2.04156 1244.83 1.9939 1244.87 1.94587C1244.89 1.92711 1244.9 1.90824 1244.92 1.88944C1244.95 1.86018 1244.97 1.8309 1245 1.80171C1245.04 1.75369 1245.09 1.70612 1245.14 1.65902C1245.18 1.61209 1245.23 1.56565 1245.28 1.52016C1245.33 1.4747 1245.38 1.42956 1245.43 1.38555C1245.49 1.33653 1245.55 1.28808 1245.61 1.23944C1245.66 1.19088 1245.72 1.14234 1245.78 1.09398C1245.84 1.04542 1245.9 0.996952 1245.95 0.948357C1246.01 0.899731 1246.07 0.851031 1246.13 0.802132C1246.16 0.772867 1246.19 0.743562 1246.23 0.714167C1246.24 0.696721 1246.26 0.680063 1246.27 0.664132C1246.37 0.546572 1246.45 0.464978 1246.57 0.361854C1246.58 0.351868 1246.58 0.343566 1246.6 0.333524C1246.6 0.331609 1246.6 0.329585 1246.6 0.327519C1246.61 0.314434 1246.63 0.29957 1246.65 0.279535C1246.7 0.239321 1246.78 0.18112 1246.87 0.105382C1246.9 0.0862982 1246.91 0.0750883 1246.91 0.0810859C1246.91 0.0853402 1246.9 0.0974466 1246.89 0.111598C1246.91 0.0864827 1246.94 0.0613036 1246.96 0.0360342C1246.97 0.0259538 1246.98 0.0165643 1246.99 0.0097957C1247 0.00353323 1247 3.52549e-06 1247 0C1247 0 1247 0 1247 0C1247 1.71759e-08 1247 2.18138e-05 1247 6.58165e-05C1247 0.000666042 1247 0.00547885 1246.99 0.0136457C1246.98 0.0217975 1246.97 0.0326168 1246.97 0.0435299C1246.94 0.0724688 1246.92 0.101295 1246.9 0.130137C1246.88 0.159004 1246.85 0.18775 1246.83 0.216615C1246.81 0.245472 1246.78 0.274358 1246.76 0.303384C1246.74 0.332298 1246.72 0.361313 1246.7 0.390445C1246.67 0.41976 1246.65 0.448592 1246.63 0.477946C1246.62 0.495534 1246.6 0.513348 1246.59 0.530869C1246.58 0.537396 1246.58 0.543782 1246.58 0.550163C1246.57 0.555379 1246.57 0.560617 1246.56 0.566014C1246.52 0.622823 1246.48 0.680406 1246.44 0.737727C1246.4 0.795312 1246.36 0.853076 1246.31 0.911084C1246.27 0.969123 1246.23 1.02737 1246.19 1.08588C1246.15 1.14436 1246.12 1.20304 1246.08 1.2621C1246.04 1.32095 1246 1.38027 1245.96 1.43978C1245.93 1.48581 1245.9 1.53167 1245.88 1.57782C1245.87 1.59779 1245.86 1.61752 1245.85 1.63699C1245.83 1.69367 1245.81 1.753 1245.8 1.81217C1245.84 1.71822 1245.88 1.64013 1245.91 1.56651C1245.92 1.55664 1245.92 1.54684 1245.93 1.5371C1245.98 1.43759 1246.03 1.34405 1246.11 1.22757C1246.35 0.896026 1246.49 0.704357 1246.58 0.585803C1246.67 0.467243 1246.71 0.417878 1246.75 0.373017C1246.81 0.309883 1246.9 0.173393 1246.94 0.103874C1246.95 0.0787975 1246.97 0.0592793 1246.97 0.0603009C1246.97 0.0613297 1246.96 0.0840126 1246.95 0.110923C1246.91 0.188895 1246.84 0.34619 1246.78 0.425636C1246.75 0.461127 1246.72 0.503165 1246.65 0.626992C1246.57 0.750742 1246.45 0.952198 1246.24 1.30179C1246.17 1.41995 1246.13 1.51403 1246.09 1.61673C1246.09 1.62679 1246.08 1.63697 1246.08 1.64723C1246.08 1.64729 1246.08 1.64735 1246.08 1.64741C1246.04 1.74195 1246.01 1.84611 1245.94 1.97957C1245.8 2.28646 1245.63 2.71196 1245.6 2.82164C1245.6 2.84308 1245.59 2.86424 1245.59 2.88657C1245.57 2.97228 1245.55 3.07639 1245.47 3.28902C1245.45 3.33551 1245.43 3.38869 1245.4 3.44585C1245.4 3.55074 1245.39 3.6526 1245.37 3.73615C1245.36 3.80824 1245.37 3.88408 1245.38 3.9604C1245.38 3.98237 1245.38 4.00475 1245.39 4.0271C1245.4 4.08102 1245.41 4.13516 1245.41 4.18501C1245.41 4.22475 1245.42 4.26789 1245.42 4.3136C1245.44 4.47991 1245.48 4.68195 1245.39 4.87455C1245.3 5.0785 1245.19 5.24074 1245.1 5.37845C1245.18 5.28153 1245.24 5.21099 1245.3 5.15272C1245.31 5.14172 1245.32 5.13121 1245.33 5.12107C1245.4 5.04949 1245.44 4.99692 1245.48 4.92835C1245.62 4.60046 1245.64 4.46136 1245.63 4.28276C1245.63 4.23569 1245.62 4.18147 1245.61 4.12329C1245.6 4.00695 1245.58 3.87497 1245.6 3.75044C1245.61 3.63439 1245.62 3.49906 1245.62 3.3573C1245.62 3.35726 1245.62 3.35721 1245.62 3.35717C1245.63 3.32946 1245.63 3.30149 1245.63 3.27337C1245.64 3.10184 1245.66 2.92548 1245.7 2.76539C1245.7 2.74826 1245.71 2.72742 1245.71 2.70354C1245.74 2.5649 1245.8 2.32814 1245.97 2.08636C1246 2.03304 1246.04 1.98106 1246.09 1.92091C1246.1 1.90259 1246.12 1.88353 1246.13 1.86343C1246.2 1.77669 1246.27 1.66805 1246.35 1.51377C1246.42 1.38648 1246.49 1.22681 1246.57 1.05995C1246.6 0.977741 1246.64 0.893777 1246.68 0.810855C1246.78 0.560426 1246.88 0.328942 1246.97 0.0929286C1246.97 0.0928804 1246.97 0.0928322 1246.97 0.092784C1246.98 0.0650331 1246.99 0.0436625 1246.99 0.045249C1246.99 0.0468416 1246.98 0.0722472 1246.98 0.101815C1246.91 0.351374 1246.84 0.594808 1246.76 0.857321C1246.73 0.943206 1246.7 1.03074 1246.67 1.11669C1246.61 1.29269 1246.55 1.46222 1246.49 1.59667C1246.43 1.76087 1246.36 1.87657 1246.3 1.96857C1246.29 1.99074 1246.27 2.01139 1246.26 2.03092C1246.22 2.09312 1246.18 2.14403 1246.15 2.19676C1246.01 2.44086 1245.97 2.67569 1245.95 2.81879C1245.94 2.84404 1245.94 2.86625 1245.93 2.8849C1245.9 3.04645 1245.89 3.22444 1245.89 3.39972C1245.89 3.42815 1245.89 3.4565 1245.89 3.48469C1245.89 3.48476 1245.89 3.48484 1245.89 3.48491C1245.88 3.62977 1245.88 3.77033 1245.88 3.89097C1245.87 4.01336 1245.88 4.13453 1245.9 4.24865C1245.91 4.30986 1245.92 4.36894 1245.93 4.42487C1245.94 4.6172 1245.92 4.76589 1245.78 5.09963ZM1246.85 0.150333C1246.8 0.200942 1246.75 0.242188 1246.72 0.273843C1246.75 0.247723 1246.78 0.221579 1246.8 0.195293C1246.82 0.180332 1246.83 0.165352 1246.85 0.150333ZM1245.13 3.30471C1245.13 3.29232 1245.13 3.27983 1245.13 3.26732C1245.12 3.29627 1245.11 3.32516 1245.09 3.35403C1245.08 3.38948 1245.06 3.42487 1245.04 3.46026C1245.07 3.40653 1245.1 3.35412 1245.13 3.30471ZM1245.08 4.70309C1245.17 4.52412 1245.14 4.34104 1245.12 4.17821C1245.12 4.13128 1245.11 4.08593 1245.11 4.04265C1245.11 4.0247 1245.11 4.00633 1245.11 3.98759C1245.06 4.06511 1245.02 4.13586 1244.98 4.19366C1244.88 4.36614 1244.8 4.45321 1244.73 4.52944C1244.71 4.55149 1244.69 4.57268 1244.67 4.59471C1244.67 4.62141 1244.67 4.6489 1244.66 4.67593C1244.66 4.71384 1244.65 4.75399 1244.65 4.79152C1244.64 4.82921 1244.63 4.86681 1244.63 4.90301C1244.62 4.93951 1244.61 4.97498 1244.6 5.00979C1244.59 5.04256 1244.58 5.07475 1244.56 5.1059C1244.56 5.10768 1244.56 5.10946 1244.56 5.11124C1244.55 5.14418 1244.54 5.17618 1244.53 5.2068C1244.52 5.238 1244.52 5.26523 1244.52 5.29216C1244.52 5.32577 1244.52 5.35971 1244.52 5.39281C1244.52 5.42595 1244.52 5.45848 1244.52 5.49048C1244.52 5.52255 1244.51 5.55394 1244.51 5.58507C1244.51 5.59513 1244.51 5.60563 1244.51 5.61555C1244.51 5.62012 1244.51 5.62471 1244.51 5.62925C1244.53 5.58027 1244.56 5.52968 1244.59 5.4778C1244.64 5.40285 1244.69 5.32629 1244.75 5.24148C1244.85 5.09681 1244.97 4.92801 1245.08 4.70309ZM1244.12 6.39291C1244.13 6.37114 1244.15 6.33851 1244.17 6.29638C1244.17 6.28642 1244.18 6.27585 1244.18 6.26484C1244.18 6.26504 1244.18 6.2653 1244.18 6.2655C1244.16 6.28697 1244.14 6.30703 1244.12 6.32929C1244.08 6.36899 1244.04 6.40828 1244.01 6.44881C1243.97 6.4895 1243.94 6.53092 1243.91 6.57319C1243.88 6.61552 1243.85 6.65884 1243.82 6.70262C1243.79 6.74685 1243.76 6.79123 1243.74 6.83715C1243.73 6.85177 1243.72 6.86656 1243.71 6.88144C1243.74 6.85367 1243.77 6.82386 1243.79 6.79236C1243.82 6.7672 1243.84 6.74096 1243.86 6.71383C1243.87 6.70344 1243.89 6.69136 1243.9 6.67726C1243.96 6.62138 1244.05 6.53386 1244.12 6.39291ZM1242.75 7.42115C1242.74 7.41508 1242.73 7.40886 1242.72 7.40243C1242.69 7.38413 1242.66 7.36464 1242.63 7.34504C1242.62 7.33125 1242.6 7.31728 1242.58 7.30357C1242.57 7.29778 1242.57 7.29203 1242.56 7.28632C1242.55 7.27674 1242.53 7.26736 1242.52 7.25806C1242.59 7.3319 1242.66 7.40257 1242.73 7.47149L1243.38 7.89171L1243.64 7.29297C1243.64 7.28677 1243.65 7.28054 1243.65 7.27428C1243.65 7.27306 1243.65 7.27179 1243.65 7.27056C1243.64 7.27405 1243.63 7.27749 1243.62 7.2809L1243.36 7.85498L1242.75 7.45207C1242.75 7.44165 1242.75 7.43135 1242.75 7.42115Z" fill="black"/>
<defs>
<filter id="filter0_i_3006_4812" x="0" y="13" width="1280" height="195.001" filterUnits="userSpaceOnUse" color-interpolation-filters="sRGB">
<feFlood flood-opacity="0" result="BackgroundImageFix"/>
<feBlend mode="normal" in="SourceGraphic" in2="BackgroundImageFix" result="shape"/>
<feColorMatrix in="SourceAlpha" type="matrix" values="0 0 0 0 0 0 0 0 0 0 0 0 0 0 0 0 0 0 127 0" result="hardAlpha"/>
<feOffset dy="5"/>
<feGaussianBlur stdDeviation="4"/>
<feComposite in2="hardAlpha" operator="arithmetic" k2="-1" k3="1"/>
<feColorMatrix type="matrix" values="0 0 0 0 0 0 0 0 0 0 0 0 0 0 0 0 0 0 0.25 0"/>
<feBlend mode="normal" in2="shape" result="effect1_innerShadow_3006_4812"/>
</filter>
</defs>
</svg>
