<svg width="197" height="215" viewBox="0 0 197 215" fill="none" xmlns="http://www.w3.org/2000/svg">
<mask id="path-1-inside-1_3003_4484" fill="white">
<path d="M131 40C144.807 40 156 51.1929 156 65V115C156 128.807 144.807 140 131 140H121V103C121 89.1929 109.807 78 96 78H62V65C62 51.1929 73.1929 40 87 40H131Z"/>
</mask>
<path d="M131 40C144.807 40 156 51.1929 156 65V115C156 128.807 144.807 140 131 140H121V103C121 89.1929 109.807 78 96 78H62V65C62 51.1929 73.1929 40 87 40H131Z" fill="#FEE5BB"/>
<path d="M131 40V32V32V40ZM121 140H113V148H121V140ZM96 78V70V70V78ZM62 78H54V86H62V78ZM131 40V48C140.389 48 148 55.6112 148 65H156H164C164 46.7746 149.225 32 131 32V40ZM156 65H148V115H156H164V65H156ZM156 115H148C148 124.389 140.389 132 131 132V140V148C149.225 148 164 133.225 164 115H156ZM131 140V132H121V140V148H131V140ZM121 140H129V103H121H113V140H121ZM121 103H129C129 84.7746 114.225 70 96 70V78V86C105.389 86 113 93.6112 113 103H121ZM96 78V70H62V78V86H96V78ZM62 78H70V65H62H54V78H62ZM62 65H70C70 55.6112 77.6112 48 87 48V40V32C68.7746 32 54 46.7746 54 65H62ZM87 40V48H131V40V32H87V40Z" fill="#FEA20D" mask="url(#path-1-inside-1_3003_4484)"/>
<rect x="37" y="75" width="86" height="92" rx="21" stroke="#FEA20D" stroke-width="8"/>
<path d="M5.9923 88.9427C5.06833 78.7978 6.40661 68.1031 9.87262 57.9336C13.3386 47.7641 18.8103 38.4782 25.7375 31.0092C32.6648 23.5401 40.8037 18.1511 49.336 15.3837C57.3483 12.7851 65.4425 12.5842 72.9008 14.7852C73.589 14.9883 73.8113 15.8372 73.3313 16.3707L64.5 26.1855" stroke="#FEA20D" stroke-width="10" stroke-linecap="round"/>
<path d="M190.352 125.202C191.276 135.347 189.938 146.041 186.472 156.211C183.006 166.38 177.534 175.666 170.607 183.135C163.68 190.604 155.541 195.993 147.009 198.761C138.996 201.359 130.902 201.56 123.444 199.359C122.756 199.156 122.533 198.307 123.013 197.774L131.845 187.959" stroke="#FEA20D" stroke-width="10" stroke-linecap="round"/>
</svg>
