<svg width="50" height="50" viewBox="0 0 50 50" fill="none" xmlns="http://www.w3.org/2000/svg">
<rect width="50" height="50" rx="5" fill="#D0D7DF"/>
<g opacity="0.5">
<path d="M25 6C19.825 6 15.625 10.2 15.625 15.3749C15.625 20.4499 19.6 24.5749 24.875 24.7249C24.95 24.7249 25.05 24.7249 25.1 24.7249C25.15 24.7249 25.225 24.7249 25.275 24.7249C25.3 24.7249 25.325 24.7249 25.325 24.7249C30.375 24.5499 34.35 20.4499 34.375 15.3749C34.375 10.2 30.175 6 25 6Z" fill="#143A62"/>
<path d="M41.9508 38.0871C37.5008 42.1871 31.5508 43.7121 25.0008 43.7121C18.4508 43.7121 12.5008 42.1871 8.05078 38.0871C8.65078 35.8121 10.2758 32.7371 12.6508 31.1371C19.4758 26.5871 30.5758 26.5871 37.3508 31.1371C39.7508 32.7371 41.3508 35.8121 41.9508 38.0871Z" fill="#143A62"/>
</g>
</svg>
