<svg width="241" height="240" viewBox="0 0 241 240" fill="none" xmlns="http://www.w3.org/2000/svg">
<g filter="url(#filter0_d_5009_2965)">
<g clip-path="url(#clip0_5009_2965)">
<rect x="10" y="10" width="221" height="220" rx="20" fill="white"/>
<path d="M126.207 47.16C124.223 47.16 122.687 46.9573 121.599 46.552C120.532 46.1467 119.785 45.5173 119.359 44.664C118.932 43.7893 118.687 42.6907 118.623 41.368L117.951 23.576H122.431L123.103 39.224C123.145 40.2053 123.252 40.9413 123.423 41.432C123.593 41.9227 123.913 42.2533 124.383 42.424C124.873 42.5947 125.588 42.68 126.527 42.68C127.337 42.68 127.913 42.8933 128.255 43.32C128.617 43.7253 128.799 44.2373 128.799 44.856C128.799 45.5173 128.575 46.072 128.127 46.52C127.679 46.9467 127.039 47.16 126.207 47.16ZM126.25 47.16L126.57 42.68C127.061 42.68 127.477 42.5627 127.818 42.328C128.181 42.072 128.554 41.656 128.938 41.08C129.322 40.4827 129.77 39.6827 130.282 38.68C130.922 37.4 131.583 36.3973 132.266 35.672C132.97 34.9467 133.685 34.4347 134.41 34.136C135.157 33.816 135.903 33.656 136.65 33.656C137.589 33.656 138.463 33.8587 139.274 34.264C140.085 34.6693 140.789 35.224 141.386 35.928C141.983 36.6107 142.442 37.4 142.762 38.296C143.103 39.1707 143.274 40.0773 143.274 41.016C143.274 42.1467 143.029 43.1707 142.538 44.088C142.069 44.984 141.407 45.6987 140.554 46.232C139.722 46.744 138.762 47 137.674 47C136.757 47 135.69 46.84 134.474 46.52C133.258 46.2 131.978 45.528 130.634 44.504L132.266 40.632C133.226 41.2933 134.122 41.7733 134.954 42.072C135.807 42.3707 136.511 42.52 137.066 42.52C137.493 42.52 137.845 42.4773 138.122 42.392C138.399 42.3067 138.602 42.168 138.73 41.976C138.858 41.784 138.922 41.528 138.922 41.208C138.922 40.76 138.815 40.3013 138.602 39.832C138.389 39.3627 138.101 38.968 137.738 38.648C137.397 38.3067 136.991 38.136 136.522 38.136C136.074 38.136 135.69 38.3067 135.37 38.648C135.071 38.968 134.773 39.4373 134.474 40.056C134.197 40.6533 133.855 41.3573 133.45 42.168C132.959 43.1493 132.479 43.9707 132.01 44.632C131.541 45.272 131.039 45.784 130.506 46.168C129.994 46.5307 129.386 46.7867 128.682 46.936C127.999 47.0853 127.189 47.16 126.25 47.16ZM144.106 54.392L142.474 50.424C143.604 50.04 144.639 49.592 145.578 49.08C146.538 48.568 147.37 48.0027 148.074 47.384C148.778 46.7653 149.322 46.0933 149.706 45.368C150.09 44.6213 150.282 43.8213 150.282 42.968C150.282 42.072 150.079 41.0907 149.674 40.024C149.268 38.9573 148.778 37.8693 148.202 36.76L152.394 34.744C152.778 35.4053 153.108 36.12 153.386 36.888C153.684 37.6347 153.93 38.3067 154.122 38.904C154.314 39.5013 154.442 39.9067 154.506 40.12C154.804 41.144 155.21 41.8267 155.722 42.168C156.255 42.5093 157.108 42.68 158.282 42.68C159.092 42.68 159.668 42.8933 160.01 43.32C160.372 43.7253 160.554 44.2373 160.554 44.856C160.554 45.5173 160.33 46.072 159.882 46.52C159.434 46.9467 158.794 47.16 157.962 47.16C157.087 47.16 156.319 47.032 155.658 46.776C154.996 46.52 154.463 46.1467 154.058 45.656C153.674 45.1653 153.428 44.5893 153.322 43.928L154.506 44.6C154.378 45.7307 154.004 46.7973 153.386 47.8C152.788 48.824 152.01 49.7627 151.05 50.616C150.09 51.4693 149.012 52.216 147.818 52.856C146.623 53.496 145.386 54.008 144.106 54.392ZM158 47.16L158.32 42.712C160.091 42.712 161.509 42.7013 162.576 42.68C163.664 42.6587 164.507 42.616 165.104 42.552C165.723 42.4667 166.181 42.3707 166.48 42.264C166.779 42.136 167.035 41.9973 167.248 41.848C167.504 41.656 167.717 41.4 167.888 41.08C168.08 40.7387 168.229 40.2907 168.336 39.736C168.443 39.1813 168.496 38.488 168.496 37.656C168.496 36.6107 168.4 35.736 168.208 35.032C168.037 34.3067 167.781 33.7627 167.44 33.4C167.12 33.0373 166.725 32.856 166.256 32.856C165.915 32.856 165.595 32.9733 165.296 33.208C164.997 33.4213 164.752 33.72 164.56 34.104C164.368 34.488 164.272 34.9253 164.272 35.416C164.272 35.6933 164.347 35.9387 164.496 36.152C164.645 36.3653 164.88 36.5253 165.2 36.632C165.52 36.7387 165.925 36.792 166.416 36.792C166.885 36.792 167.376 36.7387 167.888 36.632C168.421 36.504 168.912 36.3333 169.36 36.12L169.488 39.928C169.147 40.1627 168.752 40.376 168.304 40.568C167.856 40.76 167.376 40.9093 166.864 41.016C166.373 41.1013 165.872 41.144 165.36 41.144C164.229 41.144 163.248 40.9947 162.416 40.696C161.605 40.376 160.976 39.864 160.528 39.16C160.08 38.456 159.856 37.496 159.856 36.28C159.856 35.3413 160.016 34.4133 160.336 33.496C160.656 32.5573 161.115 31.7147 161.712 30.968C162.309 30.2 163.013 29.592 163.824 29.144C164.635 28.6747 165.531 28.44 166.512 28.44C167.963 28.44 169.157 28.8667 170.096 29.72C171.056 30.552 171.76 31.6827 172.208 33.112C172.677 34.52 172.912 36.088 172.912 37.816C172.912 39.3307 172.688 40.6533 172.24 41.784C171.792 42.8933 171.259 43.768 170.64 44.408C170.128 44.9413 169.541 45.3893 168.88 45.752C168.219 46.1147 167.408 46.4027 166.448 46.616C165.509 46.808 164.347 46.9467 162.96 47.032C161.595 47.1173 159.941 47.16 158 47.16ZM166.448 25.464C165.787 25.464 165.221 25.24 164.752 24.792C164.304 24.344 164.08 23.7893 164.08 23.128C164.08 22.4667 164.304 21.9013 164.752 21.432C165.221 20.9627 165.787 20.728 166.448 20.728C167.088 20.728 167.632 20.9627 168.08 21.432C168.549 21.9013 168.784 22.4667 168.784 23.128C168.784 23.7893 168.549 24.344 168.08 24.792C167.632 25.24 167.088 25.464 166.448 25.464ZM173.7 54.36L172.067 50.264C173.902 49.624 175.385 48.92 176.516 48.152C177.668 47.384 178.51 46.5627 179.044 45.688C179.598 44.8133 179.876 43.9067 179.876 42.968C179.876 42.3707 179.79 41.752 179.62 41.112C179.449 40.4507 179.204 39.7573 178.884 39.032C178.585 38.3067 178.222 37.5493 177.796 36.76L181.988 34.744C182.734 36.1733 183.31 37.5387 183.716 38.84C184.142 40.1413 184.356 41.3573 184.356 42.488C184.356 43.5333 184.217 44.536 183.94 45.496C183.684 46.456 183.278 47.352 182.724 48.184C182.19 49.0373 181.497 49.8373 180.644 50.584C179.79 51.3307 178.788 52.0133 177.636 52.632C176.484 53.272 175.172 53.848 173.7 54.36ZM196.425 47.16C194.441 47.16 192.905 46.9573 191.817 46.552C190.751 46.1467 190.004 45.5173 189.577 44.664C189.151 43.7893 188.905 42.6907 188.841 41.368L188.169 23.576H192.649L193.321 39.224C193.364 40.2053 193.471 40.9413 193.641 41.432C193.812 41.9227 194.132 42.2533 194.601 42.424C195.092 42.5947 195.807 42.68 196.745 42.68C197.556 42.68 198.132 42.8933 198.473 43.32C198.836 43.7253 199.017 44.2373 199.017 44.856C199.017 45.5173 198.793 46.072 198.345 46.52C197.897 46.9467 197.257 47.16 196.425 47.16ZM196.469 47.16L196.789 42.68H201.365C201.813 42.68 202.207 42.6587 202.549 42.616C202.89 42.552 203.167 42.456 203.381 42.328C203.615 42.2 203.786 42.04 203.893 41.848C203.999 41.656 204.053 41.432 204.053 41.176C204.053 40.92 203.914 40.5147 203.637 39.96C203.381 39.384 202.815 38.6907 201.941 37.88C201.471 37.4533 200.959 37.0053 200.405 36.536C199.871 36.0453 199.359 35.5867 198.869 35.16C198.378 34.712 197.973 34.3173 197.653 33.976C197.333 33.6347 197.173 33.3893 197.173 33.24C197.173 32.92 197.194 32.568 197.237 32.184C197.279 31.8 197.343 31.448 197.429 31.128C197.535 30.808 197.674 30.5733 197.845 30.424C198.207 30.0827 198.741 29.688 199.445 29.24C200.17 28.7707 201.034 28.2693 202.037 27.736C203.039 27.1813 204.159 26.6053 205.397 26.008C206.655 25.3893 207.999 24.7707 209.429 24.152L211.253 28.056C210.079 28.568 208.97 29.0693 207.925 29.56C206.879 30.0293 205.898 30.4987 204.981 30.968C204.085 31.416 203.253 31.864 202.485 32.312C201.738 32.7387 201.077 33.1653 200.501 33.592L200.917 31.224C202.73 32.6107 204.17 33.8587 205.237 34.968C206.325 36.0773 207.135 37.0693 207.669 37.944C208.202 38.7973 208.554 39.5653 208.725 40.248C208.895 40.9093 208.981 41.496 208.981 42.008C208.981 42.52 208.853 43.0747 208.597 43.672C208.362 44.248 207.925 44.8027 207.285 45.336C206.666 45.8693 205.791 46.3067 204.661 46.648C203.53 46.9893 202.079 47.16 200.309 47.16H196.469Z" fill="#143A62"/>
<path d="M32.4623 98.8996H30.9968V89.8763C30.9968 89.2725 30.8779 88.6746 30.6468 88.1167C30.4157 87.5589 30.0771 87.052 29.6501 86.6251C29.2231 86.1981 28.7163 85.8594 28.1584 85.6283C27.6006 85.3973 27.0027 85.2784 26.3989 85.2784H20.0495V72.293H19.0311V85.2781H10.3732V98.8996H1.84375V229.516H49.71V116.148C49.7102 111.574 47.8931 107.187 44.6585 103.952C41.4239 100.717 37.0368 98.8997 32.4623 98.8996Z" fill="#F2F2F2"/>
<path d="M76.3084 178.465H75.0443V176.699C75.0437 175.527 74.5952 174.399 73.7906 173.547C72.986 172.695 71.8861 172.182 70.716 172.114V160.133H69.6976V172.1H65.1144V178.465H48.8193V229.642H84.9744V187.131C84.9744 185.993 84.7502 184.866 84.3147 183.814C83.8792 182.763 83.2409 181.808 82.4361 181.003C81.6314 180.198 80.6761 179.56 79.6247 179.124C78.5733 178.689 77.4464 178.465 76.3084 178.465Z" fill="#F2F2F2"/>
<path d="M146.081 141.829V138.761C146.081 137.589 145.632 136.461 144.828 135.609C144.023 134.757 142.923 134.244 141.753 134.177V122.196H140.735V134.163H136.151V141.801H114.51V229.642H162.376V159.05C162.376 154.64 160.687 150.399 157.657 147.196C154.626 143.993 150.484 142.072 146.081 141.829Z" fill="#F2F2F2"/>
<path d="M128.768 154.277H122.402V159.37H128.768V154.277Z" fill="white"/>
<path d="M139.207 154.277H132.842V159.37H139.207V154.277Z" fill="white"/>
<path d="M128.768 167.263H122.402V172.355H128.768V167.263Z" fill="white"/>
<path d="M139.207 167.263H132.842V172.355H139.207V167.263Z" fill="white"/>
<path d="M128.768 180.248H122.402V185.34H128.768V180.248Z" fill="white"/>
<path d="M139.207 180.248H132.842V185.34H139.207V180.248Z" fill="white"/>
<path d="M128.768 193.233H122.402V198.326H128.768V193.233Z" fill="white"/>
<path d="M139.207 193.233H132.842V198.326H139.207V193.233Z" fill="white"/>
<path d="M128.768 206.218H122.402V211.31H128.768V206.218Z" fill="white"/>
<path d="M139.207 206.218H132.842V211.31H139.207V206.218Z" fill="white"/>
<path d="M128.768 219.204H122.402V224.296H128.768V219.204Z" fill="white"/>
<path d="M139.207 219.204H132.842V224.296H139.207V219.204Z" fill="white"/>
<path d="M36.0883 109.211H15.4648V110.739H36.0883V109.211Z" fill="white"/>
<path d="M36.0883 118.632H15.4648V120.159H36.0883V118.632Z" fill="white"/>
<path d="M36.0883 128.053H15.4648V129.58H36.0883V128.053Z" fill="white"/>
<path d="M36.0883 137.473H15.4648V139H36.0883V137.473Z" fill="white"/>
<path d="M36.0883 146.895H15.4648V148.422H36.0883V146.895Z" fill="white"/>
<path d="M36.0883 156.314H15.4648V157.842H36.0883V156.314Z" fill="white"/>
<path d="M36.0883 165.735H15.4648V167.263H36.0883V165.735Z" fill="white"/>
<path d="M36.0883 175.155H15.4648V176.683H36.0883V175.155Z" fill="white"/>
<path d="M36.0883 184.576H15.4648V186.104H36.0883V184.576Z" fill="white"/>
<path d="M36.0883 193.996H15.4648V195.524H36.0883V193.996Z" fill="white"/>
<path d="M36.0883 203.418H15.4648V204.946H36.0883V203.418Z" fill="white"/>
<path d="M36.0883 212.838H15.4648V214.366H36.0883V212.838Z" fill="white"/>
<path d="M59.6406 185.341H53.2754V190.433H59.6406V185.341Z" fill="white"/>
<path d="M70.0791 185.341H63.7139V190.433H70.0791V185.341Z" fill="white"/>
<path d="M80.5186 185.341H74.1533V190.433H80.5186V185.341Z" fill="white"/>
<path d="M59.7676 198.325H53.4023V203.417H59.7676V198.325Z" fill="white"/>
<path d="M70.2061 198.325H63.8408V203.417H70.2061V198.325Z" fill="white"/>
<path d="M80.6465 198.325H74.2812V203.417H80.6465V198.325Z" fill="white"/>
<path d="M59.8946 211.31H53.5293V216.402H59.8946V211.31Z" fill="white"/>
<path d="M70.334 211.31H63.9688V216.402H70.334V211.31Z" fill="white"/>
<path d="M80.7735 211.31H74.4082V216.402H80.7735V211.31Z" fill="white"/>
<path d="M23.8672 88.0781H17.502V93.1704H23.8672V88.0781Z" fill="white"/>
<path d="M18.7293 216.013C18.8343 216.214 18.9878 216.386 19.1758 216.514C19.3638 216.641 19.5805 216.72 19.8064 216.743C19.9222 216.754 19.8891 216.932 19.774 216.922C19.5245 216.895 19.2853 216.808 19.0772 216.668C18.8692 216.527 18.6987 216.338 18.5806 216.117C18.5676 216.097 18.5627 216.073 18.5669 216.049C18.571 216.026 18.5839 216.005 18.6029 215.991C18.6226 215.977 18.647 215.972 18.6707 215.976C18.6943 215.98 18.7154 215.993 18.7293 216.013Z" fill="white"/>
<path d="M133.441 223.28C134.609 223.407 135.782 223.089 136.726 222.389C136.819 222.32 136.922 222.468 136.828 222.538C135.845 223.264 134.624 223.593 133.409 223.459C133.293 223.445 133.326 223.267 133.441 223.28Z" fill="white"/>
<path d="M110.068 192.863C110.082 192.854 110.093 192.842 110.1 192.828C110.108 192.815 110.113 192.799 110.113 192.783C110.1 192.795 110.088 192.807 110.073 192.819C110.072 192.834 110.072 192.848 110.068 192.863Z" fill="#2F2E41"/>
<path d="M87.1029 158.385L85.9677 158.966C85.9569 158.972 85.9444 158.973 85.933 158.969C85.9215 158.965 85.9119 158.957 85.9064 158.946C85.9009 158.936 85.8999 158.923 85.9035 158.912C85.9072 158.9 85.9153 158.891 85.9261 158.885L87.0614 158.304C87.0721 158.298 87.0846 158.297 87.0961 158.301C87.1076 158.305 87.1171 158.313 87.1226 158.324C87.1281 158.334 87.1292 158.347 87.1255 158.358C87.1218 158.37 87.1137 158.379 87.1029 158.385Z" fill="white"/>
<path d="M87.2611 158.29C87.2812 158.29 87.2975 158.273 87.2975 158.253C87.2975 158.233 87.2812 158.217 87.2611 158.217C87.2409 158.217 87.2246 158.233 87.2246 158.253C87.2246 158.273 87.2409 158.29 87.2611 158.29Z" fill="white"/>
<path d="M-1 230.026C-1 230.238 -0.875698 230.41 -0.721435 230.41H167.72C167.875 230.41 168 230.238 168 230.026C168 229.815 167.875 229.643 167.72 229.643H-0.719866C-0.874129 229.643 -0.999553 229.813 -1 230.024V230.026Z" fill="#E6E6E6"/>
<path d="M105.724 84.0636C101.365 92.9058 104.072 94.7547 104.504 94.9827C103.58 94.5535 91.5791 88.9151 93.1575 87.4842C94.1837 86.5519 95.0623 82.4964 95.5788 79.59C95.8851 77.8551 96.0639 76.5293 96.0639 76.5293L108.658 78.8388C107.593 80.5299 106.614 82.2737 105.724 84.0636Z" fill="#ED9DA0"/>
<path d="M98.015 218.482L101.502 221.596L100.139 224.935L92.2893 224.925L91.466 220.918L98.015 218.482Z" fill="#090814"/>
<path d="M99.9664 222.152C99.9664 222.152 99.9147 220.087 101.164 220.469C102.413 220.851 105.778 223.246 105.778 223.246C105.778 223.246 117.904 224.904 116.42 227.524C114.937 230.143 108.96 230.706 107.304 230.541C105.647 230.376 97.051 229.455 97.051 229.455C97.051 229.455 90.3545 230.139 90.5195 228.482C90.6845 226.825 90.7725 222.072 90.7725 222.072C90.7725 222.072 97.8147 226.956 99.9664 222.152Z" fill="#090814"/>
<path d="M80.7578 207.194L78.7989 211.439L75.2072 211.112L72.9219 203.602L76.5133 201.644L80.7578 207.194Z" fill="#090814"/>
<path d="M77.8195 210.134C77.8195 210.134 79.7786 209.481 79.7786 210.787C79.7786 212.093 78.4725 216.011 78.4725 216.011C78.4725 216.011 80.4317 228.092 77.4931 227.439C74.5544 226.786 72.2689 221.236 71.9423 219.603C71.6156 217.971 69.9831 209.481 69.9831 209.481C69.9831 209.481 67.3709 203.277 69.0037 202.95C70.6364 202.624 75.2075 201.318 75.2075 201.318C75.2075 201.318 72.5962 209.481 77.8195 210.134Z" fill="#090814"/>
<path d="M122.408 89.459L122.332 89.5596L122.072 89.9061L117.098 93.4206L116.043 91.6857L115.372 90.5679C115.372 90.5679 105.457 84.6209 109.72 78.8886C113.984 73.1563 120.284 86.1546 120.284 86.1546L122.408 89.459Z" fill="#ED9DA0"/>
<path d="M106.727 76.9896L106.725 76.9906C106.701 77.0023 106.692 77.0305 106.704 77.0536L106.869 77.3811C106.88 77.4042 106.909 77.4135 106.932 77.4019L106.934 77.4009C106.957 77.3892 106.966 77.361 106.955 77.3378L106.79 77.0104C106.778 76.9872 106.75 76.9779 106.727 76.9896Z" fill="#3A3768"/>
<path d="M107.178 77.7643C107.164 77.7378 107.132 77.7272 107.106 77.7405C107.079 77.7538 107.068 77.7861 107.082 77.8126L107.395 78.4335C107.408 78.4599 107.44 78.4706 107.467 78.4572C107.493 78.4439 107.504 78.4116 107.49 78.3852L107.178 77.7643Z" fill="#3A3768"/>
<path d="M107.661 78.7321C107.648 78.7067 107.617 78.6965 107.592 78.7093C107.566 78.7221 107.556 78.753 107.569 78.7783L107.887 79.4092C107.9 79.4346 107.931 79.4448 107.956 79.432C107.981 79.4192 107.992 79.3883 107.979 79.3629L107.661 78.7321Z" fill="#3A3768"/>
<path d="M110.668 73.2969L106.491 75.4016C106.244 75.5261 106.145 75.8272 106.269 76.0742L111.012 85.4856C111.136 85.7326 111.437 85.8319 111.684 85.7074L115.861 83.6027C116.108 83.4783 116.207 83.1771 116.083 82.9302L111.34 73.5188C111.216 73.2718 110.915 73.1724 110.668 73.2969Z" fill="#3A3768"/>
<path d="M110.134 73.8958C110.11 73.9077 110.089 73.9242 110.071 73.9444C110.054 73.9646 110.041 73.9881 110.032 74.0134C110.024 74.0388 110.021 74.0656 110.023 74.0923C110.025 74.1189 110.032 74.1448 110.045 74.1686L110.063 74.2066C110.075 74.2305 110.082 74.2566 110.085 74.2834C110.087 74.3102 110.084 74.3372 110.075 74.3627C110.067 74.3883 110.054 74.412 110.036 74.4324C110.019 74.4528 109.997 74.4695 109.973 74.4816L107.822 75.5637C107.799 75.5759 107.773 75.5834 107.746 75.5855C107.72 75.5876 107.693 75.5845 107.667 75.5761C107.642 75.5678 107.618 75.5545 107.598 75.537C107.578 75.5195 107.562 75.4982 107.55 75.4742L107.53 75.4362C107.518 75.4123 107.501 75.3909 107.481 75.3734C107.461 75.3558 107.438 75.3424 107.412 75.3339C107.387 75.3254 107.36 75.3219 107.333 75.3238C107.307 75.3256 107.281 75.3327 107.257 75.3446L106.839 75.5569C106.793 75.5795 106.752 75.611 106.719 75.6495C106.685 75.688 106.659 75.7328 106.643 75.7813C106.627 75.8298 106.621 75.881 106.625 75.9319C106.629 75.9828 106.643 76.0324 106.667 76.0779L111.236 85.1481C111.283 85.2399 111.365 85.3096 111.463 85.3418C111.561 85.374 111.667 85.3663 111.76 85.3202L115.511 83.4311C115.603 83.3842 115.673 83.3029 115.705 83.2049C115.737 83.1069 115.729 83.0002 115.683 82.9079L111.111 73.8332C111.088 73.7875 111.056 73.7468 111.018 73.7134C110.979 73.68 110.934 73.6546 110.885 73.6386C110.837 73.6226 110.785 73.6164 110.734 73.6202C110.683 73.6241 110.634 73.638 110.588 73.6611L110.134 73.8958Z" fill="#6C63FF"/>
<path d="M108.884 74.5814L108.319 74.8661C108.279 74.8861 108.263 74.9345 108.283 74.9742C108.303 75.0139 108.352 75.0299 108.391 75.0099L108.956 74.7252C108.996 74.7052 109.012 74.6568 108.992 74.6171C108.972 74.5774 108.924 74.5614 108.884 74.5814Z" fill="#E6E8EC"/>
<path d="M109.177 74.6091C109.227 74.6091 109.268 74.5681 109.268 74.5174C109.268 74.4668 109.227 74.4258 109.177 74.4258C109.126 74.4258 109.085 74.4668 109.085 74.5174C109.085 74.5681 109.126 74.6091 109.177 74.6091Z" fill="#E6E8EC"/>
<path d="M113.353 108.685L111.956 146.182C111.956 146.182 116.651 144.617 117.378 145.79C118.104 146.964 116.595 127.011 116.595 127.011L113.353 108.685Z" fill="#090814"/>
<path d="M117.88 185.65C117.154 186.711 112.403 189.283 112.403 189.283C112.403 189.283 110.391 189.394 108.043 191.183C106.829 192.108 102.61 193.944 98.821 195.502C95.2819 196.958 92.1139 198.169 92.1139 198.169L88.4652 202.417C88.4652 202.417 80.2647 209.844 80.2647 210.347C80.2647 210.85 75.6214 204.82 75.6773 202.305C75.7332 199.79 78.8115 199.169 79.2586 198.945C79.7058 198.722 81.4943 194.306 81.4943 194.306L88.463 189.631L102.324 180.34L102.964 179.91C102.964 179.91 104.808 180.756 104.059 173.832C103.914 172.49 103.67 170.86 103.299 168.875C101.007 156.635 109.224 155.237 109.224 155.237L116.434 157.641L118.166 160.324V160.337L118.558 176.868C118.558 176.868 118.607 184.588 117.88 185.65Z" fill="#090814"/>
<path d="M89.5984 140.041L88.201 166.87C88.201 166.87 87.195 206.274 88.201 208.845C89.2071 211.416 89.5984 215.44 89.5984 215.44C89.5984 215.44 91.2201 221.867 91.1633 222.426C91.1066 222.984 98.094 225.779 101.224 220.972C101.224 220.972 98.4853 210.912 98.4853 209.228C98.4853 207.545 98.094 193.467 98.094 193.467C98.094 193.467 104.186 171.11 104.466 169.545C104.745 167.98 106.646 160.546 106.646 160.546L118.159 160.322C118.159 160.322 117.824 152.33 117.153 150.597C116.483 148.864 113.185 136.177 113.185 136.177L89.5984 140.041Z" fill="#090814"/>
<path d="M126.935 97.6182C126.488 99.1831 118.942 97.6182 118.942 97.6182L118.16 96.3885C118.16 96.3885 118.082 96.232 117.95 95.9771C117.467 95.0404 116.297 92.8226 115.815 92.4291C115.2 91.9261 122.41 89.4668 122.41 89.4668L124.619 94.2735C125.163 94.6396 125.666 95.0647 126.117 95.5412C126.676 96.1471 127.138 96.905 126.935 97.6182Z" fill="#E6E6E6"/>
<path d="M114.415 98.3389C114.415 98.3389 118.886 101.867 119.557 101.612C120.228 101.357 131.071 108.679 131.071 108.679C131.071 108.679 132.301 113.374 127.214 113.653C127.214 113.653 116.427 113.206 115.98 111.641C115.533 110.076 114.415 98.3389 114.415 98.3389Z" fill="#090814"/>
<path d="M102.23 90.576L97.3672 95.6064L104.186 138.979L106.869 137.414C106.869 137.414 113.8 140.488 114.358 137.637C114.917 134.787 114.763 123.553 114.763 123.553L113.855 103.257C113.855 103.257 110.67 96.1586 110.67 95.935C110.67 95.7114 106.075 92.2461 106.075 92.2461L103.907 90.5693L102.23 90.576Z" fill="#E6E6E6"/>
<path d="M102.51 90.8563L101.169 93.595L102.51 95.0102C102.51 95.0102 107.317 104.718 106.367 110.475L107.373 129.422L110.615 132.608L113.186 129.639L111.956 112.424C111.956 112.424 108.659 98.2274 105.193 93.8119L104.187 89.8994L102.51 90.8563Z" fill="#6C63FF"/>
<path d="M111.858 75.6187C111.858 77.6596 111.129 79.6335 109.803 81.1851C108.477 82.7367 106.641 83.7642 104.626 84.0827C102.61 84.4012 100.546 83.9898 98.8067 82.9225C97.0672 81.8552 95.7656 80.2021 95.1363 78.2607C94.507 76.3192 94.5913 74.2169 95.3739 72.3321C96.1565 70.4472 97.5862 68.9035 99.4056 67.9789C101.225 67.0542 103.315 66.8092 105.299 67.288C107.283 67.7668 109.03 68.9379 110.228 70.5906C111.287 72.0531 111.858 73.8128 111.858 75.6187Z" fill="#ED9DA0"/>
<path d="M100.331 94.2648L93.2882 85.7691C93.2882 85.7691 92.6376 85.5076 94.8353 83.207C94.8353 83.207 102.906 89.4983 103.407 90.5669C103.908 91.6356 100.331 94.2648 100.331 94.2648Z" fill="#E6E6E6"/>
<path d="M118.16 148.335C118.16 148.335 116.818 147.53 116.818 146.58C116.818 145.63 116.148 132.216 116.148 132.216C116.148 132.216 115.164 124.21 114.136 117.847C113.532 114.098 112.913 110.916 112.475 110.286L112.457 110.259C111.283 108.75 111.506 101.372 104.185 90.585C104.283 90.652 106.807 92.4227 108.656 93.3125C109.032 93.5016 109.427 93.6515 109.834 93.7597C111.511 94.1509 116.988 96.2748 116.821 99.6843C116.653 103.094 117.212 110.919 117.212 110.919V126.955L118.16 148.335Z" fill="#090814"/>
<path d="M118.16 96.3894C118.16 96.3894 120.508 102.873 120.172 104.494C119.837 106.115 125.594 112.486 125.594 112.486L131.071 108.686L127.83 99.4635L126.563 95.4902C126.563 95.4902 126.935 96.9975 118.16 96.3894Z" fill="#090814"/>
<path opacity="0.1" d="M110.227 70.5915L105.979 70.7525C105.564 70.7498 105.151 70.8016 104.75 70.9068C103.232 71.374 102.532 72.9882 102.476 74.4392C102.42 75.8901 101.582 77.5155 99.9564 77.6429C99.7946 77.6704 99.6285 77.6335 99.4936 77.5401C99.3905 77.4304 99.322 77.2927 99.2968 77.1444C99.0637 76.2989 98.7033 75.4938 98.2282 74.7566C97.5575 74.8774 97.0611 75.5145 96.8867 76.1808C96.7124 76.847 96.7593 77.549 96.7615 78.2398C96.7636 79.1172 96.679 79.9926 96.5089 80.8534C95.8267 79.9528 95.3293 78.9261 95.0454 77.8326C94.7615 76.739 94.6967 75.6001 94.8547 74.4813C95.0126 73.3626 95.3903 72.2862 95.9658 71.3139C96.5414 70.3417 97.3036 69.4929 98.2085 68.8164C99.1133 68.1399 100.143 67.649 101.238 67.3719C102.334 67.0949 103.473 67.0372 104.591 67.2022C105.708 67.3672 106.783 67.7516 107.751 68.3333C108.72 68.9149 109.564 69.6824 110.235 70.5915H110.227Z" fill="black"/>
<path d="M104.529 70.6834C104.93 70.5783 105.344 70.5264 105.759 70.5291L110.916 70.3369C111.672 70.3078 112.515 70.2407 113.022 69.6796C113.205 69.4653 113.339 69.2145 113.416 68.944C113.549 68.5119 113.588 68.0564 113.53 67.608C113.473 67.1596 113.32 66.7286 113.083 66.3439C112.486 65.3937 111.44 64.8415 110.442 64.3318C109.514 63.836 108.561 63.3882 107.587 62.9903C103.969 61.6164 99.9636 61.6739 96.3865 63.1513C96.0331 63.287 95.6981 63.4665 95.3894 63.6856C94.9583 64.0551 94.5912 64.4932 94.3029 64.9824L92.606 67.54C92.3719 67.8523 92.1913 68.2014 92.0716 68.5729C91.7519 69.7869 92.7424 71.0009 92.6395 72.2506C92.5814 72.8721 92.2527 73.4422 92.1924 74.0638C92.1119 74.8664 92.4786 75.6287 92.8385 76.3598L95.8209 82.3761C96.3025 80.9732 96.5466 79.4997 96.543 78.0165C96.543 77.3256 96.4849 76.6236 96.6682 75.9574C96.8516 75.2912 97.339 74.654 98.0097 74.5333C98.486 75.27 98.8472 76.0752 99.0806 76.921C99.1052 77.0695 99.1738 77.2073 99.2773 77.3167C99.4121 77.4103 99.5783 77.4473 99.7401 77.4195C101.374 77.2921 102.199 75.6824 102.26 74.2158C102.32 72.7492 103.011 71.1506 104.529 70.6834Z" fill="#090814"/>
<path d="M108.658 117.684V117.847L108.546 136.464C108.546 136.464 105.695 152.114 104.913 152.728C104.13 153.343 86.9714 151.666 86.9714 151.666L79.2024 99.2952C79.1465 90.3524 90.325 88.2285 92.5607 86.0487L92.6322 85.9481C92.7807 85.7266 92.9724 85.5373 93.1956 85.3914C93.6562 85.1254 93.949 85.4764 94.1167 85.8229C94.1922 85.9856 94.2506 86.1557 94.2911 86.3304C103.348 92.9727 108.658 117.684 108.658 117.684Z" fill="#090814"/>
<path d="M103.865 88.6309L103.406 90.567C103.406 90.567 103.742 92.5053 105.751 92.673L106.076 91.7497C106.076 91.7497 103.907 90.3591 103.865 88.6309Z" fill="#E6E6E6"/>
<path d="M70.2652 159.944L69.2658 160.231L69.2256 161.219L99.1884 161.605V161.216L70.2652 159.944Z" fill="#423A59"/>
<path d="M103.025 190.19L98.8708 189.803L97.4131 189.669V166.565L97.7976 161.202L97.8826 160.008H102.168L103.025 190.19Z" fill="#423A59"/>
<path d="M79.0879 159.243C79.0879 159.243 81.2355 154.354 82.103 154.213C82.9704 154.072 84.5622 154.213 84.5622 154.213L84.4214 155.528C84.4214 155.528 82.2975 155.695 81.6268 159.243H79.0879Z" fill="#423A59"/>
<path d="M87.1886 154C87.1886 154 92.7488 156.766 92.0222 160.007L89.004 159.84C89.004 159.84 87.5508 155.006 86.4061 154.753C85.2614 154.501 87.1886 154 87.1886 154Z" fill="#423A59"/>
<path opacity="0.1" d="M100.185 160.32L98.8708 189.802L97.4131 189.668V166.565L97.7976 161.201L100.185 160.32Z" fill="black"/>
<path d="M68.8943 171.707L68 187.654L98.4055 190.189L99.738 160.32L68.8943 171.707Z" fill="#423A59"/>
<path opacity="0.1" d="M68.4805 174.029L69.0752 159.944L100.218 161.375L98.7362 176.265L68.4805 174.029Z" fill="black"/>
<path d="M68 172.975L68.5947 158.89L99.738 160.32L98.2557 175.21L68 172.975Z" fill="#423A59"/>
<path d="M85.5124 174.334H81.7676V178.694H85.5124V174.334Z" fill="#6C63FF"/>
<path d="M82.4442 152.17L81.8853 153.428C81.8853 153.428 80.7115 160.325 82.1647 161.164C83.6179 162.002 87.9217 162.049 88.1452 161.63C88.3688 161.21 89.9338 156.457 89.9338 156.457L90.3809 152.75L82.4442 152.17Z" fill="#ED9DA0"/>
<path d="M81.8848 145.686V153.679C81.8848 153.679 87.8094 154.797 90.3804 152.865C90.3804 152.865 87.977 145.127 88.8713 143.171C89.7656 141.215 81.8848 145.686 81.8848 145.686Z" fill="#E6E6E6"/>
<path d="M80.7677 98.4573L79.2027 99.2957C79.2027 99.2957 78.9233 102.649 78.7556 103.096C78.5879 103.543 78.7556 108.071 78.7556 108.071L78.6796 117.237C78.6796 117.237 78.4381 122.1 78.6796 123.832C78.921 125.565 79.1916 132.16 79.1916 132.16C79.1916 132.16 80.7029 138.588 80.144 140.88C79.585 143.171 80.1999 148.313 81.15 147.866C82.1002 147.419 90.8753 145.686 91.3225 145.351C91.7696 145.016 91.546 141.886 91.3225 141.494C91.0989 141.103 89.7575 135.793 89.8693 134.564C89.981 133.334 89.478 122.547 89.478 122.547C89.478 122.547 90.3164 111.033 90.6517 108.35C90.9871 105.667 89.981 97.7866 89.0868 97.6748C88.1925 97.563 85.5745 91.4707 80.7677 98.4573Z" fill="#090814"/>
<path opacity="0.1" d="M81.4268 140.841C81.4268 140.841 84.047 139.352 84.6484 139.65C85.2498 139.947 81.4268 140.841 81.4268 140.841Z" fill="black"/>
</g>
</g>
<defs>
<filter id="filter0_d_5009_2965" x="0" y="0" width="241" height="240" filterUnits="userSpaceOnUse" color-interpolation-filters="sRGB">
<feFlood flood-opacity="0" result="BackgroundImageFix"/>
<feColorMatrix in="SourceAlpha" type="matrix" values="0 0 0 0 0 0 0 0 0 0 0 0 0 0 0 0 0 0 127 0" result="hardAlpha"/>
<feOffset/>
<feGaussianBlur stdDeviation="5"/>
<feComposite in2="hardAlpha" operator="out"/>
<feColorMatrix type="matrix" values="0 0 0 0 0 0 0 0 0 0 0 0 0 0 0 0 0 0 0.1 0"/>
<feBlend mode="normal" in2="BackgroundImageFix" result="effect1_dropShadow_5009_2965"/>
<feBlend mode="normal" in="SourceGraphic" in2="effect1_dropShadow_5009_2965" result="shape"/>
</filter>
<clipPath id="clip0_5009_2965">
<rect x="10" y="10" width="221" height="220" rx="20" fill="white"/>
</clipPath>
</defs>
</svg>
