<svg width="241" height="240" viewBox="0 0 241 240" fill="none" xmlns="http://www.w3.org/2000/svg">
<g filter="url(#filter0_d_2710_3608)">
<g clip-path="url(#clip0_2710_3608)">
<rect x="10" y="10" width="221" height="220" rx="20" fill="white"/>
<path d="M138.105 54.36L137.177 49.88C138.692 49.688 140.015 49.4533 141.145 49.176C142.276 48.92 143.225 48.5573 143.993 48.088C144.761 47.6187 145.337 46.9787 145.721 46.168C146.105 45.336 146.297 44.2693 146.297 42.968C146.297 41.7093 146.105 40.7067 145.721 39.96C145.337 39.2133 144.825 38.84 144.185 38.84C143.737 38.84 143.364 39 143.065 39.32C142.767 39.6187 142.543 39.9813 142.393 40.408C142.265 40.8133 142.201 41.176 142.201 41.496C142.201 41.688 142.255 41.8907 142.361 42.104C142.468 42.3173 142.703 42.4987 143.065 42.648C143.428 42.7973 143.993 42.8827 144.761 42.904C145.551 42.9253 146.617 42.8507 147.961 42.68H153.337C154.148 42.68 154.724 42.8933 155.065 43.32C155.428 43.7253 155.609 44.2373 155.609 44.856C155.609 45.5173 155.385 46.072 154.937 46.52C154.489 46.9467 153.849 47.16 153.017 47.16H144.217C142.873 47.16 141.721 47 140.761 46.68C139.801 46.36 139.065 45.848 138.553 45.144C138.041 44.4187 137.785 43.4587 137.785 42.264C137.785 41.304 137.945 40.344 138.265 39.384C138.607 38.424 139.076 37.5493 139.673 36.76C140.271 35.9493 140.964 35.3093 141.753 34.84C142.564 34.3493 143.439 34.104 144.377 34.104C145.657 34.104 146.777 34.4987 147.737 35.288C148.697 36.0773 149.444 37.1227 149.977 38.424C150.532 39.7253 150.809 41.144 150.809 42.68C150.809 45.0907 150.297 47.1387 149.273 48.824C148.249 50.5093 146.788 51.8107 144.889 52.728C142.991 53.6667 140.729 54.2107 138.105 54.36ZM153.062 47.16L153.383 42.68C154.535 42.68 155.676 42.616 156.807 42.488C157.937 42.36 159.036 42.168 160.103 41.912C161.169 41.656 162.183 41.3253 163.143 40.92C164.124 40.5147 165.041 40.024 165.895 39.448C165.255 39.064 164.561 38.7333 163.815 38.456C163.068 38.1787 162.268 37.976 161.415 37.848C160.583 37.6987 159.697 37.624 158.759 37.624C158.417 37.624 158.055 37.6347 157.671 37.656C157.308 37.6773 156.935 37.72 156.551 37.784C156.167 37.8267 155.783 37.8907 155.399 37.976L154.759 33.592C155.377 33.4213 156.028 33.304 156.711 33.24C157.415 33.1547 158.033 33.112 158.567 33.112C159.719 33.112 160.775 33.24 161.735 33.496C162.716 33.752 163.612 34.072 164.423 34.456C165.255 34.84 166.023 35.224 166.727 35.608C167.452 35.992 168.135 36.312 168.775 36.568C169.436 36.824 170.076 36.952 170.694 36.952H171.878L172.391 41.208C171.473 41.2507 170.609 41.432 169.799 41.752C169.009 42.0507 168.22 42.4347 167.431 42.904C166.663 43.352 165.831 43.8213 164.935 44.312C164.06 44.8027 163.068 45.2613 161.959 45.688C160.849 46.1147 159.569 46.4667 158.119 46.744C156.668 47.0213 154.983 47.16 153.062 47.16ZM162.663 54.52C162.044 54.52 161.511 54.3067 161.062 53.88C160.636 53.4533 160.423 52.9307 160.423 52.312C160.423 51.6933 160.636 51.1493 161.062 50.68C161.511 50.232 162.044 50.008 162.663 50.008C163.281 50.008 163.804 50.232 164.231 50.68C164.679 51.1493 164.903 51.6933 164.903 52.312C164.903 52.9307 164.679 53.4533 164.231 53.88C163.804 54.3067 163.281 54.52 162.663 54.52ZM173.7 54.36L172.067 50.264C173.902 49.624 175.385 48.92 176.516 48.152C177.668 47.384 178.51 46.5627 179.044 45.688C179.598 44.8133 179.876 43.9067 179.876 42.968C179.876 42.3707 179.79 41.752 179.62 41.112C179.449 40.4507 179.204 39.7573 178.884 39.032C178.585 38.3067 178.222 37.5493 177.796 36.76L181.988 34.744C182.734 36.1733 183.31 37.5387 183.716 38.84C184.142 40.1413 184.356 41.3573 184.356 42.488C184.356 43.5333 184.217 44.536 183.94 45.496C183.684 46.456 183.278 47.352 182.724 48.184C182.19 49.0373 181.497 49.8373 180.644 50.584C179.79 51.3307 178.788 52.0133 177.636 52.632C176.484 53.272 175.172 53.848 173.7 54.36ZM196.425 47.16C194.441 47.16 192.905 46.9573 191.817 46.552C190.751 46.1467 190.004 45.5173 189.577 44.664C189.151 43.7893 188.905 42.6907 188.841 41.368L188.169 23.576H192.649L193.321 39.224C193.364 40.2053 193.471 40.9413 193.641 41.432C193.812 41.9227 194.132 42.2533 194.601 42.424C195.092 42.5947 195.807 42.68 196.745 42.68C197.556 42.68 198.132 42.8933 198.473 43.32C198.836 43.7253 199.017 44.2373 199.017 44.856C199.017 45.5173 198.793 46.072 198.345 46.52C197.897 46.9467 197.257 47.16 196.425 47.16ZM196.469 47.16L196.789 42.68H201.365C201.813 42.68 202.207 42.6587 202.549 42.616C202.89 42.552 203.167 42.456 203.381 42.328C203.615 42.2 203.786 42.04 203.893 41.848C203.999 41.656 204.053 41.432 204.053 41.176C204.053 40.92 203.914 40.5147 203.637 39.96C203.381 39.384 202.815 38.6907 201.941 37.88C201.471 37.4533 200.959 37.0053 200.405 36.536C199.871 36.0453 199.359 35.5867 198.869 35.16C198.378 34.712 197.973 34.3173 197.653 33.976C197.333 33.6347 197.173 33.3893 197.173 33.24C197.173 32.92 197.194 32.568 197.237 32.184C197.279 31.8 197.343 31.448 197.429 31.128C197.535 30.808 197.674 30.5733 197.845 30.424C198.207 30.0827 198.741 29.688 199.445 29.24C200.17 28.7707 201.034 28.2693 202.037 27.736C203.039 27.1813 204.159 26.6053 205.397 26.008C206.655 25.3893 207.999 24.7707 209.429 24.152L211.253 28.056C210.079 28.568 208.97 29.0693 207.925 29.56C206.879 30.0293 205.898 30.4987 204.981 30.968C204.085 31.416 203.253 31.864 202.485 32.312C201.738 32.7387 201.077 33.1653 200.501 33.592L200.917 31.224C202.73 32.6107 204.17 33.8587 205.237 34.968C206.325 36.0773 207.135 37.0693 207.669 37.944C208.202 38.7973 208.554 39.5653 208.725 40.248C208.895 40.9093 208.981 41.496 208.981 42.008C208.981 42.52 208.853 43.0747 208.597 43.672C208.362 44.248 207.925 44.8027 207.285 45.336C206.666 45.8693 205.791 46.3067 204.661 46.648C203.53 46.9893 202.079 47.16 200.309 47.16H196.469Z" fill="#143A62"/>
<path d="M80.9894 36.3816C40.8633 15.6658 4.94392 38.1798 -8 52.0263V243H225.53C233.44 227.895 238.797 195.095 196.945 184.737C155.093 174.379 140.675 136.904 138.698 119.461C136.181 100.399 121.116 57.0973 80.9894 36.3816Z" fill="#F2F2F2"/>
<path d="M115.543 141.312L131.152 143.058L132.707 158.695H113.72L115.543 141.312Z" fill="#9F616A"/>
<path d="M192.67 210.16H180.333C180.055 210.16 179.78 210.22 179.527 210.336C179.275 210.453 179.051 210.624 178.871 210.836C178.416 210.752 177.947 210.778 177.504 210.91C177.061 211.043 176.655 211.279 176.321 211.598C175.986 211.918 175.732 212.312 175.58 212.749C175.427 213.186 175.38 213.653 175.443 214.111C175.506 214.569 175.677 215.006 175.941 215.386C176.205 215.766 176.556 216.077 176.964 216.295C177.373 216.513 177.827 216.631 178.289 216.639C178.752 216.647 179.21 216.546 179.626 216.343L181.067 228.447C181.188 228.841 181.432 229.186 181.764 229.431C182.096 229.676 182.497 229.808 182.91 229.808H190.931C191.343 229.808 191.744 229.675 192.076 229.431C192.408 229.186 192.652 228.841 192.773 228.447L194.513 212.656C194.602 212.368 194.622 212.062 194.571 211.765C194.52 211.468 194.4 211.186 194.221 210.944C194.042 210.701 193.808 210.504 193.539 210.368C193.27 210.232 192.972 210.161 192.671 210.161L192.67 210.16ZM178.349 215.804C178.073 215.807 177.799 215.755 177.543 215.651C177.286 215.547 177.053 215.394 176.857 215.199C176.66 215.005 176.504 214.774 176.398 214.519C176.291 214.263 176.237 213.99 176.237 213.713C176.237 213.437 176.291 213.163 176.398 212.908C176.504 212.653 176.66 212.422 176.857 212.228C177.053 212.033 177.286 211.88 177.543 211.776C177.799 211.672 178.073 211.62 178.349 211.623C178.387 211.623 178.423 211.633 178.461 211.635C178.377 211.971 178.388 212.324 178.49 212.655L179.372 215.525C179.061 215.705 178.708 215.802 178.349 215.804L178.349 215.804Z" fill="#D6D6E3"/>
<path d="M200.636 230H46.7624C46.7115 230 46.6626 229.979 46.6266 229.943C46.5906 229.907 46.5703 229.858 46.5703 229.807C46.5703 229.756 46.5906 229.708 46.6266 229.672C46.6626 229.635 46.7115 229.615 46.7624 229.615H200.636C200.687 229.615 200.736 229.635 200.772 229.672C200.808 229.708 200.828 229.756 200.828 229.807C200.828 229.858 200.808 229.907 200.772 229.943C200.736 229.979 200.687 230 200.636 230Z" fill="#E6E6E6"/>
<path d="M102.69 202.748L93.2869 167.194L92.1982 163.09L93.2192 162.143L110.744 153.46L135.786 154.083L150.488 161.631L150.568 167.194L151.293 217.313L154.227 229.615H100.437L104.613 210.023L102.69 202.748Z" fill="#6C63FF"/>
<path d="M164.548 229.616H150.53L146.66 201.671L147.672 167.195L147.812 162.505L150.488 161.632C152.505 163.105 154.172 165.004 155.371 167.195C157.091 170.188 158.52 174.478 158.164 180.246C158.164 180.246 158.482 187.056 158.179 191.591C157.972 194.69 161.589 214.279 164.548 229.616Z" fill="#6C63FF"/>
<path d="M102.739 202.393L102.69 202.748L98.9709 229.616H82.8516C84.1442 214.392 85.6634 195.359 85.4594 192.309C85.1572 187.777 85.4745 180.963 85.4745 180.963C85.089 174.716 86.8012 170.211 88.7021 167.195C89.6584 165.662 90.8365 164.279 92.198 163.091C92.5 162.825 92.8181 162.579 93.1505 162.354L95.8263 163.223L96.5255 167.195L102.739 202.393Z" fill="#6C63FF"/>
<path d="M104.598 130.098C104.598 133.531 105.616 136.887 107.523 139.742C109.431 142.596 112.142 144.821 115.314 146.135C118.486 147.449 121.976 147.793 125.343 147.123C128.711 146.453 131.804 144.8 134.232 142.372C136.659 139.944 138.312 136.851 138.982 133.484C139.652 130.117 139.308 126.626 137.994 123.454C136.681 120.282 134.456 117.571 131.601 115.664C128.746 113.756 125.39 112.738 121.957 112.738C119.683 112.733 117.43 113.175 115.327 114.04C113.224 114.905 111.312 116.176 109.7 117.78C108.088 119.384 106.808 121.289 105.932 123.388C105.057 125.487 104.603 127.737 104.598 130.011C104.598 130.04 104.598 130.069 104.598 130.098Z" fill="#9F616A"/>
<path d="M168.428 226.771C168.428 227.195 168.345 227.615 168.183 228.006C168.021 228.398 167.783 228.754 167.483 229.054C167.183 229.353 166.827 229.591 166.436 229.753C166.044 229.916 165.624 229.999 165.201 229.999H78.8531C78.4291 229.999 78.0094 229.916 77.6177 229.753C77.2261 229.591 76.8702 229.353 76.5705 229.054C76.2707 228.754 76.033 228.398 75.8707 228.006C75.7085 227.615 75.625 227.195 75.625 226.771C75.625 226.347 75.7085 225.927 75.8707 225.536C76.033 225.144 76.2707 224.788 76.5705 224.489C76.8702 224.189 77.2261 223.951 77.6177 223.789C78.0094 223.627 78.4291 223.543 78.8531 223.543H79.8115C79.7566 223.351 79.7281 223.152 79.7266 222.952V178.87C79.7266 178.126 80.0219 177.413 80.5477 176.888C81.0734 176.362 81.7865 176.066 82.5301 176.066H161.524C161.892 176.066 162.256 176.139 162.596 176.28C162.937 176.421 163.246 176.627 163.506 176.888C163.766 177.148 163.973 177.457 164.114 177.797C164.255 178.137 164.327 178.502 164.327 178.87V222.953C164.327 223.153 164.299 223.352 164.242 223.544H165.201C166.056 223.544 166.877 223.884 167.483 224.489C168.088 225.095 168.428 225.915 168.428 226.771Z" fill="#090814"/>
<path d="M123.699 201.243C122.712 201.244 121.748 200.951 120.927 200.403C120.106 199.854 119.467 199.075 119.089 198.163C118.711 197.252 118.612 196.248 118.805 195.28C118.997 194.312 119.473 193.423 120.17 192.725C120.868 192.027 121.757 191.552 122.725 191.36C123.693 191.167 124.697 191.266 125.608 191.644C126.52 192.021 127.3 192.661 127.848 193.481C128.396 194.302 128.689 195.267 128.689 196.254C128.689 197.577 128.163 198.846 127.227 199.782C126.291 200.718 125.022 201.244 123.699 201.244L123.699 201.243ZM123.699 192.1C122.878 192.1 122.075 192.344 121.392 192.8C120.709 193.257 120.177 193.906 119.862 194.665C119.548 195.424 119.466 196.259 119.626 197.065C119.786 197.87 120.182 198.61 120.763 199.191C121.344 199.772 122.084 200.168 122.89 200.328C123.696 200.488 124.531 200.406 125.29 200.091C126.049 199.777 126.697 199.245 127.154 198.561C127.61 197.878 127.854 197.075 127.854 196.254C127.854 195.708 127.747 195.168 127.538 194.664C127.329 194.16 127.023 193.702 126.637 193.316C126.252 192.93 125.793 192.624 125.289 192.415C124.785 192.207 124.245 192.099 123.699 192.099V192.1Z" fill="white"/>
<path d="M123.7 200.826C126.225 200.826 128.271 198.779 128.271 196.254C128.271 193.729 126.225 191.683 123.7 191.683C121.175 191.683 119.128 193.729 119.128 196.254C119.128 198.779 121.175 200.826 123.7 200.826Z" fill="white"/>
<path d="M130.785 135.215L128.25 134.084C128.25 134.084 128.248 122.463 123.373 122.97C118.498 123.478 106.33 122.699 107.265 117.395C108.2 112.091 120.29 109.437 126.803 111.27C133.317 113.102 144.237 117.078 141.821 126.907C140.6 131.871 136.63 140.652 136.63 140.652L131.806 144.802L134.114 139.698L130.785 135.215Z" fill="#090814"/>
<path d="M77.153 98.9798C82.6093 98.9798 87.0326 94.5566 87.0326 89.1003C87.0326 83.6439 82.6093 79.2207 77.153 79.2207C71.6967 79.2207 67.2734 83.6439 67.2734 89.1003C67.2734 94.5566 71.6967 98.9798 77.153 98.9798Z" fill="#E6E6E6"/>
<path d="M77.1566 79C79.6677 79.0018 82.0886 79.9364 83.9495 81.6224C85.8104 83.3085 86.9786 85.6257 87.2274 88.1244C87.4762 90.6232 86.7879 93.1252 85.2959 95.1451C83.804 97.165 81.615 98.5586 79.1535 99.0555C76.6921 99.5524 74.1338 99.1172 71.9751 97.8342C69.8165 96.5513 68.2114 94.5123 67.4713 92.1127C66.7313 89.7131 66.909 87.1242 67.9701 84.8483C69.0312 82.5724 70.8999 80.7718 73.2137 79.796C74.4615 79.2697 75.8023 78.999 77.1566 79ZM77.1566 98.8021C79.5537 98.7999 81.8645 97.9073 83.6406 96.2974C85.4167 94.6876 86.5314 92.4754 86.7684 90.09C87.0055 87.7047 86.3479 85.3164 84.9233 83.3885C83.4987 81.4606 81.4088 80.1307 79.059 79.6569C76.7092 79.183 74.2672 79.599 72.2068 80.8241C70.1464 82.0492 68.6146 83.996 67.9086 86.2868C67.2027 88.5775 67.3729 91.0489 68.3863 93.2213C69.3996 95.3936 71.1839 97.112 73.3928 98.043C74.5844 98.5454 75.8647 98.8036 77.1578 98.8023L77.1566 98.8021Z" fill="#090814"/>
<path d="M84.7533 94.0186C85.555 94.0186 86.3386 94.2563 87.0052 94.7016C87.6717 95.147 88.1912 95.78 88.498 96.5206C88.8047 97.2612 88.885 98.0762 88.7286 98.8624C88.5722 99.6487 88.1862 100.371 87.6194 100.938C87.0525 101.505 86.3303 101.891 85.5441 102.047C84.7578 102.203 83.9429 102.123 83.2023 101.816C82.4617 101.51 81.8286 100.99 81.3833 100.324C80.9379 99.657 80.7002 98.8733 80.7002 98.0717C80.7002 96.9967 81.1272 95.9658 81.8873 95.2057C82.6474 94.4456 83.6784 94.0186 84.7533 94.0186Z" fill="#3F3D56"/>
<path d="M84.7533 94.0186C85.555 94.0186 86.3386 94.2563 87.0052 94.7016C87.6717 95.147 88.1912 95.78 88.498 96.5206C88.8047 97.2612 88.885 98.0762 88.7286 98.8624C88.5722 99.6487 88.1862 100.371 87.6194 100.938C87.0525 101.505 86.3303 101.891 85.5441 102.047C84.7578 102.203 83.9429 102.123 83.2023 101.816C82.4617 101.51 81.8286 100.99 81.3833 100.324C80.9379 99.657 80.7002 98.8733 80.7002 98.0717C80.7002 96.9967 81.1272 95.9658 81.8873 95.2057C82.6474 94.4456 83.6784 94.0186 84.7533 94.0186Z" fill="#6C63FF"/>
<path d="M79.4188 84.1387C80.1653 84.1387 80.8812 84.4352 81.4091 84.9631C81.9369 85.4909 82.2335 86.2069 82.2335 86.9534V91.4569C82.2335 92.2034 81.9369 92.9193 81.4091 93.4472C80.8812 93.975 80.1653 94.2716 79.4188 94.2716H74.9153C74.1688 94.2716 73.4528 93.975 72.925 93.4472C72.3971 92.9193 72.1006 92.2034 72.1006 91.4569V86.9534C72.1006 86.2069 72.3971 85.4909 72.925 84.9631C73.4528 84.4352 74.1688 84.1387 74.9153 84.1387H79.4188ZM77.167 86.9534C76.5894 86.9534 76.0338 87.1754 75.6152 87.5735C75.1966 87.9716 74.9471 88.5153 74.9181 89.0923L74.9155 89.2049C74.9155 89.6502 75.0475 90.0856 75.2949 90.456C75.5423 90.8263 75.894 91.115 76.3054 91.2854C76.7169 91.4559 77.1697 91.5005 77.6065 91.4136C78.0433 91.3267 78.4446 91.1123 78.7595 90.7973C79.0744 90.4824 79.2889 90.0812 79.3758 89.6444C79.4626 89.2075 79.418 88.7548 79.2476 88.3433C79.0771 87.9318 78.7885 87.5802 78.4181 87.3328C78.0478 87.0853 77.6124 86.9533 77.167 86.9534ZM79.6998 86.109C79.5619 86.109 79.4289 86.1596 79.3259 86.2512C79.2229 86.3428 79.1571 86.4689 79.1409 86.6058L79.1371 86.6774C79.1388 86.8198 79.1945 86.9562 79.2928 87.0592C79.3911 87.1621 79.5248 87.224 79.667 87.2324C79.8091 87.2407 79.9491 87.1949 80.0588 87.1041C80.1685 87.0134 80.2398 86.8844 80.2582 86.7432L80.262 86.6717C80.2619 86.5224 80.2026 86.3793 80.097 86.2738C79.9915 86.1682 79.8483 86.109 79.6991 86.109" fill="#090814"/>
<path d="M32.0922 121.128L40.2739 117.835C40.7642 117.637 41.156 117.252 41.3633 116.766C41.5705 116.279 41.5764 115.73 41.3795 115.24L33.0432 94.5292C32.8452 94.0389 32.4608 93.6472 31.9743 93.44C31.4878 93.2328 30.939 93.227 30.4482 93.4239L22.2665 96.7173C21.7762 96.9153 21.3845 97.2998 21.1773 97.7862C20.9701 98.2727 20.9643 98.8216 21.1612 99.3123L29.4974 120.023C29.6955 120.513 30.0799 120.905 30.5663 121.112C31.0527 121.319 31.6015 121.325 32.0922 121.128Z" fill="#3F3D56"/>
<path d="M22.5896 97.2564L23.5003 96.8898C23.5816 96.8574 23.6724 96.8584 23.7528 96.8928C23.8333 96.9271 23.8969 96.9919 23.9297 97.073C23.9968 97.2392 24.1271 97.3721 24.2921 97.4422C24.457 97.5124 24.6431 97.5142 24.8094 97.4473L29.2638 95.6544C29.4299 95.5874 29.5626 95.4572 29.6328 95.2924C29.703 95.1276 29.705 94.9417 29.6383 94.7755C29.6058 94.6942 29.6069 94.6034 29.6412 94.523C29.6755 94.4425 29.7403 94.3789 29.8214 94.3461L30.6246 94.0229C30.9968 93.8736 31.413 93.8781 31.782 94.0352C32.1509 94.1924 32.4425 94.4895 32.5927 94.8613L40.8698 115.425C41.0191 115.797 41.0146 116.213 40.8575 116.582C40.7003 116.951 40.4032 117.242 40.0314 117.393L31.9966 120.627C31.6244 120.776 31.2082 120.772 30.8392 120.614C30.4703 120.457 30.1787 120.16 30.0285 119.788L21.7514 99.225C21.6021 98.8528 21.6066 98.4366 21.7638 98.0677C21.9209 97.6987 22.218 97.4071 22.5898 97.2569L22.5896 97.2564Z" fill="#E6E6E6"/>
<path d="M23.6314 105.659C23.674 105.641 23.7079 105.608 23.7258 105.565C23.7437 105.523 23.744 105.475 23.7268 105.432L22.4563 102.273C22.4482 102.251 22.4358 102.232 22.4198 102.215C22.4039 102.198 22.3847 102.184 22.3635 102.175C22.3422 102.166 22.3193 102.161 22.2961 102.16C22.2729 102.16 22.2498 102.164 22.2283 102.173C22.2067 102.181 22.1871 102.194 22.1706 102.211C22.1542 102.227 22.1411 102.247 22.1323 102.268C22.1234 102.289 22.119 102.312 22.1191 102.336C22.1193 102.359 22.1242 102.382 22.1334 102.403L23.405 105.562C23.4223 105.605 23.4559 105.639 23.4983 105.657C23.5407 105.675 23.5885 105.676 23.6314 105.659Z" fill="#3F3D56"/>
<path d="M34.6461 98.5127C34.6887 98.4952 34.7227 98.4616 34.7406 98.4191C34.7585 98.3766 34.7588 98.3288 34.7415 98.2861L34.4524 97.5681C34.4443 97.5464 34.4319 97.5265 34.4159 97.5096C34.4 97.4927 34.3808 97.4792 34.3596 97.4698C34.3383 97.4605 34.3154 97.4555 34.2922 97.4551C34.269 97.4547 34.2459 97.459 34.2243 97.4677C34.2028 97.4763 34.1832 97.4892 34.1667 97.5056C34.1502 97.522 34.1372 97.5414 34.1284 97.5629C34.1195 97.5844 34.115 97.6074 34.1152 97.6306C34.1154 97.6539 34.1203 97.6768 34.1295 97.6981L34.4186 98.4161C34.4271 98.4374 34.4398 98.4569 34.4559 98.4733C34.472 98.4897 34.4911 98.5027 34.5123 98.5117C34.5334 98.5207 34.5561 98.5254 34.5791 98.5256C34.6021 98.5258 34.6249 98.5214 34.6461 98.5127Z" fill="#3F3D56"/>
<path d="M35.1813 99.8418C35.2239 99.8243 35.2578 99.7907 35.2757 99.7482C35.2936 99.7057 35.2939 99.6579 35.2767 99.6152L34.9876 98.8972C34.9794 98.8755 34.967 98.8556 34.9511 98.8387C34.9351 98.8218 34.916 98.8083 34.8947 98.799C34.8735 98.7896 34.8505 98.7846 34.8273 98.7842C34.8041 98.7838 34.781 98.7881 34.7595 98.7968C34.738 98.8054 34.7184 98.8183 34.7019 98.8347C34.6854 98.8511 34.6723 98.8705 34.6635 98.892C34.6547 98.9135 34.6502 98.9365 34.6504 98.9597C34.6506 98.983 34.6554 99.0059 34.6646 99.0272L34.9537 99.7452C34.9623 99.7665 34.975 99.786 34.991 99.8024C35.0071 99.8188 35.0263 99.8318 35.0474 99.8408C35.0686 99.8498 35.0913 99.8545 35.1142 99.8547C35.1372 99.8549 35.16 99.8505 35.1813 99.8418Z" fill="#3F3D56"/>
<path d="M43.7682 103.417C42.7732 104.01 41.6318 104.312 40.4735 104.29L40.7836 105.037C41.461 104.441 41.9772 103.684 42.2842 102.835C42.313 102.723 42.2971 102.605 42.2398 102.504C42.1826 102.404 42.0885 102.329 41.9775 102.297C40.7979 101.875 40.1114 100.465 40.3288 99.2614C40.5806 97.8674 41.7223 96.7663 43.0564 96.3737C43.7943 96.1455 44.5813 96.1278 45.3288 96.3225C46.0763 96.5172 46.7547 96.9167 47.2875 97.476C47.7728 97.9936 48.098 98.6406 48.2239 99.339C48.3498 100.037 48.2709 100.757 47.9969 101.412C47.6754 102.163 47.093 102.772 46.3572 103.126C45.6516 103.445 44.8632 103.531 44.1054 103.372C43.9937 103.345 43.8756 103.361 43.7755 103.418C43.6754 103.475 43.6009 103.568 43.5671 103.678C43.5371 103.79 43.5524 103.909 43.6095 104.01C43.6667 104.111 43.7612 104.185 43.8726 104.216C44.2734 104.298 44.6819 104.335 45.0908 104.326C45.5541 104.303 46.0106 104.205 46.4428 104.037C47.291 103.707 48.01 103.113 48.493 102.342C48.9544 101.587 49.1842 100.714 49.1539 99.8309C49.1236 98.9474 48.8345 98.0922 48.3225 97.3715C47.7712 96.6129 47.0171 96.0251 46.1469 95.6756C45.2767 95.3262 44.3256 95.2291 43.4027 95.3957C41.6831 95.6793 40.1212 96.9171 39.5922 98.5985C39.0264 100.394 39.9428 102.495 41.7459 103.141L41.4396 102.603C41.1743 103.306 40.7358 103.93 40.1646 104.418C39.8667 104.686 40.1169 105.148 40.4747 105.165C41.8012 105.23 43.0611 104.804 44.2114 104.172C44.7051 103.901 44.2641 103.145 43.7696 103.417H43.7682Z" fill="black"/>
<path d="M42.4817 99.2259L42.6663 98.7321L41.935 98.9253C42.3145 99.3254 42.7446 99.7526 43.3011 99.8812C43.565 99.9549 43.8446 99.9503 44.106 99.868C44.3674 99.7858 44.5992 99.6293 44.7733 99.4177C44.7988 99.3836 44.9207 99.2044 44.9217 99.2054L44.7351 99.2519C44.6764 99.2129 44.6759 99.2185 44.7335 99.2686C44.7549 99.3034 44.7781 99.3371 44.8031 99.3695C44.8816 99.5002 44.9914 99.6092 45.1225 99.6869C45.2537 99.7645 45.4022 99.8082 45.5545 99.8141C46.2116 99.8141 46.5279 99.2245 46.692 98.677C46.854 98.1363 46.0096 97.9054 45.8481 98.4445C45.8045 98.5904 45.7606 98.8302 45.6201 98.9191C45.5395 98.9702 45.5485 98.9106 45.4925 98.8314C45.3633 98.6171 45.1553 98.4619 44.9131 98.3991C44.7766 98.376 44.6363 98.3933 44.5096 98.4491C44.3829 98.5048 44.2753 98.5964 44.2001 98.7126C44.1066 98.838 44.0598 98.959 43.9158 99.0177C43.802 99.0563 43.6802 99.0651 43.562 99.0434C43.1453 98.9697 42.8297 98.5976 42.554 98.3068C42.4992 98.2542 42.4318 98.2166 42.3582 98.1975C42.2847 98.1785 42.2075 98.1787 42.1341 98.1981C42.0606 98.2175 41.9934 98.2555 41.9389 98.3083C41.8843 98.3612 41.8443 98.4272 41.8226 98.5L41.638 98.9938C41.6081 99.1057 41.6234 99.2248 41.6806 99.3256C41.7377 99.4263 41.8322 99.5005 41.9436 99.5322C42.0554 99.5605 42.1738 99.5445 42.2742 99.4876C42.3745 99.4306 42.4489 99.3371 42.4819 99.2266L42.4817 99.2259Z" fill="black"/>
<path d="M43.2607 100.676C43.2959 100.739 43.3063 100.813 43.2899 100.884C43.2734 100.954 43.2313 101.016 43.1717 101.057C43.135 101.078 43.0938 101.089 43.0518 101.089C43.0098 101.09 42.9683 101.08 42.931 101.061C43.0102 101.102 42.8919 101.006 42.9515 101.077C42.9674 101.094 42.9833 101.111 42.9992 101.13C42.9712 101.093 42.9662 101.086 42.9842 101.11C43.0255 101.126 43.0679 101.221 43.1035 101.262C43.1242 101.287 43.1463 101.311 43.1698 101.334C43.2611 101.423 43.3726 101.49 43.4949 101.528C43.6524 101.56 43.8156 101.548 43.9669 101.494C44.1182 101.44 44.2519 101.346 44.3536 101.221C44.3916 101.184 44.4285 101.147 44.4679 101.111C44.4766 101.103 44.4855 101.095 44.4946 101.087C44.5296 101.058 44.5181 101.066 44.4603 101.111C44.4781 101.098 44.4968 101.086 44.5161 101.075C44.574 101.026 44.4207 101.105 44.4894 101.086C44.5342 101.076 44.5159 101.078 44.4345 101.092C44.4801 101.092 44.4629 101.088 44.3827 101.081L44.4118 101.088C44.376 101.08 44.3436 101.061 44.3198 101.033C44.3312 101.042 44.342 101.053 44.352 101.064C44.3734 101.087 44.3667 101.077 44.3319 101.034C44.3772 101.062 44.4164 101.179 44.44 101.225C44.4685 101.281 44.5014 101.335 44.5385 101.386C44.6069 101.491 44.6993 101.579 44.8082 101.641C44.917 101.704 45.0392 101.74 45.1646 101.746C45.2805 101.745 45.3913 101.699 45.4732 101.617C45.5552 101.535 45.6015 101.424 45.6023 101.308C45.5993 101.193 45.552 101.084 45.4704 101.003C45.3887 100.922 45.2789 100.875 45.1639 100.873C45.2025 100.874 45.2401 100.885 45.272 100.907C45.2322 100.883 45.2376 100.889 45.288 100.926C45.2727 100.912 45.2584 100.898 45.245 100.882C45.2803 100.93 45.2842 100.934 45.2567 100.895C45.2159 100.822 45.1787 100.747 45.1374 100.674C45.0844 100.57 45.0106 100.477 44.9206 100.402C44.8305 100.327 44.7262 100.271 44.6139 100.238C44.2305 100.141 43.9529 100.395 43.6981 100.636C43.6729 100.656 43.649 100.677 43.6266 100.7C43.6853 100.656 43.6965 100.647 43.6604 100.673C43.6484 100.681 43.6359 100.689 43.623 100.697C43.5684 100.743 43.7218 100.666 43.6497 100.686C43.6049 100.696 43.6232 100.694 43.7046 100.681C43.6589 100.681 43.6761 100.684 43.7561 100.692C43.7093 100.679 43.7152 100.682 43.7735 100.703C43.7339 100.677 43.7384 100.681 43.7869 100.715C43.7692 100.715 43.7089 100.634 43.7 100.62C43.7363 100.666 43.7388 100.669 43.7077 100.629L43.6392 100.541C43.6101 100.503 43.5782 100.468 43.5438 100.436C43.4404 100.329 43.3051 100.258 43.1582 100.234C43.0113 100.21 42.8606 100.235 42.7287 100.304C42.6596 100.342 42.5988 100.393 42.55 100.455C42.5011 100.517 42.4651 100.588 42.4441 100.664C42.4231 100.74 42.4176 100.819 42.4279 100.897C42.4381 100.976 42.4639 101.051 42.5038 101.119C42.5633 101.217 42.6591 101.288 42.7705 101.317C42.882 101.345 43.0001 101.329 43.0994 101.271C43.1987 101.212 43.2711 101.118 43.3011 101.007C43.331 100.896 43.3161 100.777 43.2595 100.677L43.2607 100.676Z" fill="black"/>
<path d="M17.627 119.2C18.7564 119.457 19.9352 119.392 21.0295 119.013L20.9655 119.819C20.1371 119.462 19.4123 118.901 18.8581 118.189C18.7961 118.091 18.7747 117.973 18.7983 117.86C18.8219 117.747 18.8887 117.647 18.9846 117.582C19.9759 116.816 20.1933 115.264 19.6146 114.186C18.9436 112.938 17.5179 112.244 16.1278 112.283C15.3555 112.294 14.6015 112.52 13.9508 112.936C13.3 113.352 12.7784 113.942 12.4444 114.638C12.1428 115.281 12.0335 115.996 12.1296 116.699C12.2257 117.402 12.5231 118.063 12.986 118.6C13.5237 119.215 14.2658 119.614 15.0751 119.724C15.8445 119.809 16.6209 119.647 17.2926 119.263C17.3904 119.202 17.5077 119.181 17.6205 119.204C17.7332 119.227 17.8329 119.293 17.899 119.387C17.9621 119.484 17.9844 119.602 17.9611 119.716C17.9379 119.829 17.8709 119.929 17.7748 119.993C17.4189 120.195 17.0418 120.356 16.6502 120.474C16.2024 120.595 15.7381 120.643 15.275 120.617C14.3666 120.565 13.499 120.222 12.8014 119.638C12.1297 119.063 11.6415 118.304 11.3975 117.454C11.1534 116.605 11.1642 115.702 11.4286 114.859C11.7184 113.967 12.2538 113.175 12.9733 112.574C13.6928 111.973 14.5673 111.586 15.4963 111.46C17.219 111.198 19.0871 111.892 20.1102 113.328C21.2032 114.861 20.9809 117.142 19.4656 118.313L19.5899 117.707C20.0595 118.293 20.6698 118.752 21.3641 119.039C21.7301 119.202 21.6349 119.718 21.3 119.846C20.0585 120.317 18.7288 120.301 17.4397 120.056C16.8863 119.95 17.0721 119.095 17.6263 119.201L17.627 119.2Z" fill="#6C63FF"/>
<path d="M17.5563 114.817L17.2281 114.404L17.9833 114.362C17.7459 114.86 17.4692 115.399 16.979 115.693C16.7508 115.845 16.4835 115.927 16.2096 115.929C15.9357 115.932 15.667 115.855 15.4361 115.707C15.4013 115.683 15.2301 115.55 15.2294 115.551L15.4212 115.538C15.465 115.482 15.4672 115.488 15.428 115.553C15.4183 115.593 15.4066 115.632 15.3929 115.671C15.3586 115.819 15.2879 115.957 15.1872 116.071C15.0864 116.185 14.9588 116.273 14.8157 116.326C14.191 116.529 13.7078 116.066 13.3825 115.595C13.0614 115.131 13.793 114.651 14.1132 115.113C14.1998 115.239 14.3156 115.453 14.4767 115.494C14.5692 115.518 14.5421 115.464 14.571 115.372C14.6279 115.128 14.778 114.917 14.9889 114.782C15.1116 114.718 15.2503 114.691 15.388 114.705C15.5257 114.719 15.6564 114.773 15.7638 114.86C15.8915 114.95 15.9733 115.051 16.1285 115.062C16.2486 115.064 16.3672 115.035 16.4729 114.978C16.8464 114.779 17.0315 114.327 17.2039 113.966C17.2398 113.899 17.2922 113.842 17.3563 113.801C17.4203 113.76 17.4938 113.737 17.5697 113.732C17.6455 113.728 17.7211 113.743 17.7894 113.777C17.8576 113.81 17.916 113.861 17.9591 113.923L18.2873 114.336C18.3503 114.433 18.3726 114.551 18.3493 114.664C18.3261 114.778 18.2592 114.878 18.163 114.942C18.0654 115.004 17.9479 115.025 17.8349 115.002C17.7219 114.979 17.6222 114.913 17.5566 114.818L17.5563 114.817Z" fill="#6C63FF"/>
<path d="M17.2629 116.437C17.2489 116.508 17.262 116.582 17.2994 116.644C17.3368 116.706 17.396 116.752 17.4655 116.772C17.5067 116.78 17.5492 116.778 17.5894 116.766C17.6295 116.753 17.6659 116.731 17.6954 116.701C17.6327 116.764 17.7157 116.637 17.6808 116.723C17.6709 116.744 17.6613 116.766 17.6519 116.788C17.6669 116.744 17.6696 116.736 17.6599 116.764C17.6257 116.792 17.6145 116.895 17.5936 116.946C17.5816 116.976 17.568 117.006 17.5526 117.034C17.4939 117.148 17.4089 117.246 17.3046 117.32C17.1647 117.399 17.0059 117.438 16.8453 117.434C16.6847 117.429 16.5284 117.381 16.3933 117.294C16.3458 117.271 16.299 117.246 16.2506 117.225C16.2391 117.219 16.2281 117.214 16.2175 117.209C16.1753 117.192 16.1886 117.197 16.2575 117.221C16.2364 117.214 16.2149 117.209 16.1932 117.205C16.1229 117.176 16.2932 117.204 16.222 117.207C16.1762 117.211 16.1942 117.207 16.2759 117.195C16.2325 117.209 16.2478 117.201 16.3217 117.169L16.2963 117.185C16.328 117.166 16.3527 117.138 16.3668 117.104C16.3588 117.116 16.3518 117.129 16.3457 117.143C16.3326 117.172 16.3359 117.161 16.3556 117.109C16.3213 117.15 16.32 117.272 16.3118 117.324C16.3021 117.386 16.2874 117.447 16.268 117.507C16.2357 117.629 16.1749 117.741 16.0908 117.834C16.0066 117.927 15.9015 117.999 15.784 118.044C15.6736 118.079 15.5538 118.069 15.4506 118.017C15.3474 117.964 15.269 117.873 15.2323 117.763C15.1989 117.653 15.2096 117.534 15.262 117.431C15.3144 117.328 15.4046 117.25 15.5136 117.212C15.4771 117.224 15.445 117.247 15.4214 117.278C15.4517 117.242 15.4486 117.25 15.412 117.3C15.4223 117.283 15.4314 117.264 15.4393 117.246C15.4205 117.302 15.4181 117.307 15.4321 117.261C15.4483 117.179 15.4605 117.096 15.4773 117.014C15.4955 116.899 15.5371 116.788 15.5995 116.689C15.6618 116.59 15.7437 116.505 15.84 116.439C16.1745 116.228 16.5172 116.384 16.834 116.535C16.864 116.546 16.8933 116.558 16.9217 116.573C16.8523 116.55 16.8388 116.544 16.8812 116.558C16.8952 116.562 16.9095 116.566 16.9241 116.569C16.9902 116.596 16.8209 116.571 16.8953 116.567C16.9412 116.563 16.9233 116.567 16.8415 116.579C16.8849 116.565 16.8698 116.574 16.796 116.605C16.8364 116.578 16.8321 116.584 16.783 116.622C16.8126 116.585 16.8096 116.59 16.774 116.637C16.7908 116.632 16.8231 116.536 16.8271 116.52C16.807 116.575 16.8055 116.579 16.8227 116.531L16.8605 116.426C16.8767 116.381 16.8961 116.338 16.9187 116.296C16.9838 116.162 17.0903 116.053 17.2225 115.985C17.3547 115.917 17.5055 115.893 17.6522 115.918C17.7297 115.932 17.8034 115.963 17.869 116.006C17.9346 116.05 17.9907 116.106 18.0342 116.172C18.0776 116.238 18.1074 116.312 18.1218 116.389C18.1362 116.467 18.1349 116.546 18.118 116.623C18.0911 116.735 18.0219 116.833 17.9248 116.895C17.8277 116.958 17.7103 116.98 17.5971 116.958C17.4844 116.932 17.3864 116.862 17.324 116.765C17.2615 116.668 17.2397 116.55 17.2629 116.437Z" fill="#6C63FF"/>
<path d="M48.0958 139.92L21.7559 144.092C21.2354 144.174 20.8803 144.663 20.9627 145.184L23.0385 158.289C23.1209 158.81 23.6097 159.165 24.1301 159.082L50.47 154.911C50.9905 154.828 51.3456 154.339 51.2632 153.819L49.1874 140.713C49.105 140.193 48.6162 139.838 48.0958 139.92Z" fill="#F2F2F2"/>
<path d="M21.8118 144.445C21.6556 144.47 21.5156 144.556 21.4227 144.684C21.3297 144.812 21.2914 144.971 21.3161 145.128L23.3919 158.233C23.4166 158.39 23.5024 158.53 23.6304 158.623C23.7583 158.715 23.9179 158.754 24.0742 158.729L50.4138 154.557C50.57 154.533 50.71 154.447 50.803 154.319C50.8959 154.191 50.9343 154.031 50.9095 153.875L48.8338 140.769C48.809 140.613 48.7233 140.473 48.5953 140.38C48.4673 140.287 48.3077 140.249 48.1515 140.274L21.8118 144.445ZM21.7559 144.092L48.0955 139.92C48.3455 139.881 48.6009 139.942 48.8056 140.091C49.0103 140.239 49.1476 140.463 49.1872 140.713L51.2629 153.819C51.3025 154.069 51.2412 154.324 51.0924 154.529C50.9437 154.734 50.7197 154.871 50.4698 154.911L24.1301 159.082C23.8802 159.122 23.6248 159.061 23.42 158.912C23.2153 158.763 23.0781 158.539 23.0385 158.289L20.9627 145.184C20.9231 144.934 20.9845 144.678 21.1332 144.474C21.282 144.269 21.5059 144.132 21.7559 144.092Z" fill="#090814"/>
<path d="M23.8133 149.052L28.0305 148.384C28.0926 148.374 28.156 148.389 28.2069 148.426C28.2578 148.463 28.2919 148.519 28.3017 148.581L28.7469 151.392C28.7567 151.454 28.7415 151.517 28.7045 151.568C28.6676 151.619 28.6119 151.653 28.5498 151.663L24.3326 152.331C24.2706 152.341 24.2071 152.325 24.1563 152.289C24.1054 152.252 24.0713 152.196 24.0614 152.134L23.6162 149.323C23.6064 149.261 23.6216 149.197 23.6586 149.147C23.6955 149.096 23.7512 149.062 23.8133 149.052Z" fill="#D6D6E3"/>
<path d="M30.3719 148.013L34.5891 147.345C34.6512 147.335 34.7146 147.35 34.7655 147.387C34.8164 147.424 34.8505 147.48 34.8603 147.542L35.3055 150.353C35.3153 150.415 35.3001 150.478 35.2631 150.529C35.2262 150.58 35.1705 150.614 35.1084 150.624L30.8912 151.292C30.8292 151.302 30.7657 151.286 30.7149 151.249C30.664 151.213 30.6299 151.157 30.62 151.095L30.1748 148.284C30.1649 148.222 30.1802 148.158 30.2171 148.108C30.2541 148.057 30.3098 148.023 30.3719 148.013Z" fill="#D6D6E3"/>
<path d="M43.2344 143.693C43.8652 143.593 44.2956 143.001 44.1957 142.37C44.0958 141.739 43.5034 141.309 42.8726 141.409C42.2418 141.509 41.8115 142.101 41.9114 142.732C42.0113 143.363 42.6036 143.793 43.2344 143.693Z" fill="white"/>
<path d="M43.216 143.576C43.7818 143.486 44.1678 142.955 44.0782 142.389C43.9886 141.824 43.4573 141.438 42.8916 141.527C42.3258 141.617 41.9398 142.148 42.0294 142.714C42.119 143.28 42.6503 143.666 43.216 143.576Z" stroke="#090814"/>
<path d="M36.9305 146.975L41.1476 146.307C41.2098 146.297 41.2732 146.312 41.3241 146.349C41.375 146.386 41.4091 146.442 41.4189 146.504L41.8641 149.314C41.8739 149.377 41.8587 149.44 41.8217 149.491C41.7848 149.542 41.7291 149.576 41.667 149.586L37.4498 150.254C37.3878 150.263 37.3243 150.248 37.2735 150.211C37.2226 150.174 37.1885 150.119 37.1786 150.057L36.7334 147.246C36.7235 147.184 36.7388 147.12 36.7757 147.069C36.8127 147.019 36.8684 146.984 36.9305 146.975Z" fill="#D6D6E3"/>
<path d="M43.4891 145.936L47.7062 145.268C47.7683 145.258 47.8318 145.273 47.8827 145.31C47.9336 145.347 47.9677 145.403 47.9775 145.465L48.4227 148.275C48.4325 148.337 48.4173 148.401 48.3803 148.452C48.3434 148.503 48.2877 148.537 48.2256 148.547L44.0084 149.215C43.9463 149.224 43.8829 149.209 43.8321 149.172C43.7812 149.135 43.7471 149.08 43.7372 149.018L43.292 146.207C43.2821 146.145 43.2974 146.081 43.3343 146.03C43.3713 145.98 43.427 145.945 43.4891 145.936Z" fill="#D6D6E3"/>
<path d="M24.575 153.853L28.7922 153.185C28.8543 153.175 28.9178 153.19 28.9686 153.227C29.0195 153.264 29.0536 153.32 29.0635 153.382L29.5086 156.192C29.5185 156.254 29.5032 156.318 29.4663 156.369C29.4293 156.42 29.3736 156.454 29.3115 156.464L25.0944 157.132C25.0323 157.141 24.9688 157.126 24.918 157.089C24.8671 157.052 24.833 156.997 24.8231 156.935L24.3779 154.124C24.3681 154.062 24.3833 153.998 24.4203 153.947C24.4572 153.897 24.5129 153.862 24.575 153.853Z" fill="#D6D6E3"/>
<path d="M31.1336 152.814L35.3508 152.147C35.4129 152.137 35.4764 152.152 35.5272 152.189C35.5781 152.226 35.6122 152.282 35.622 152.344L36.0672 155.154C36.077 155.216 36.0618 155.28 36.0248 155.331C35.9879 155.382 35.9322 155.416 35.8701 155.426L31.6529 156.094C31.5909 156.103 31.5274 156.088 31.4766 156.051C31.4257 156.014 31.3916 155.959 31.3817 155.897L30.9365 153.086C30.9267 153.024 30.9419 152.96 30.9789 152.909C31.0158 152.858 31.0715 152.824 31.1336 152.814Z" fill="#D6D6E3"/>
<path d="M37.6912 151.775L41.9084 151.107C41.9705 151.098 42.034 151.113 42.0848 151.15C42.1357 151.187 42.1698 151.242 42.1797 151.305L42.6248 154.115C42.6347 154.177 42.6194 154.241 42.5825 154.292C42.5455 154.343 42.4898 154.377 42.4277 154.387L38.2106 155.054C38.1485 155.064 38.0851 155.049 38.0342 155.012C37.9833 154.975 37.9492 154.92 37.9393 154.858L37.4941 152.047C37.4843 151.985 37.4995 151.921 37.5365 151.87C37.5734 151.819 37.6291 151.785 37.6912 151.775Z" fill="#D6D6E3"/>
<path d="M44.2498 150.737L48.467 150.069C48.5291 150.06 48.5926 150.075 48.6434 150.112C48.6943 150.149 48.7284 150.204 48.7383 150.266L49.1834 153.077C49.1933 153.139 49.178 153.203 49.1411 153.254C49.1041 153.304 49.0484 153.339 48.9863 153.348L44.7692 154.016C44.7071 154.026 44.6437 154.011 44.5928 153.974C44.5419 153.937 44.5078 153.882 44.4979 153.819L44.0527 151.009C44.0429 150.946 44.0581 150.883 44.0951 150.832C44.132 150.781 44.1877 150.747 44.2498 150.737Z" fill="#D6D6E3"/>
<path d="M32.9752 155.865L31.6274 154.513L31.8942 154.247L32.9259 155.282L35.638 151.441L35.9455 151.658L32.9752 155.865Z" fill="#6C63FF"/>
<path d="M38.8327 150.014L37.4849 148.662L37.7516 148.396L38.7833 149.431L41.4954 145.59L41.8029 145.807L38.8327 150.014Z" fill="#6C63FF"/>
<path d="M42.3564 137.069C42.3418 136.977 42.2552 136.914 42.163 136.929C42.0708 136.943 42.0079 137.03 42.0225 137.122L42.8599 142.409C42.8745 142.501 42.9611 142.564 43.0533 142.549C43.1455 142.535 43.2083 142.448 43.1937 142.356L42.3564 137.069Z" fill="#2F2E41"/>
<path d="M25.7155 152.092L24.3677 150.74L24.6345 150.474L25.6661 151.509L28.3782 147.668L28.6858 147.885L25.7155 152.092Z" fill="#6C63FF"/>
<path d="M28.4737 145.77C29.1045 145.671 29.5349 145.078 29.435 144.447C29.3351 143.817 28.7427 143.386 28.1119 143.486C27.4811 143.586 27.0507 144.178 27.1506 144.809C27.2505 145.44 27.8429 145.87 28.4737 145.77Z" fill="white"/>
<path d="M28.4553 145.652C29.0211 145.563 29.407 145.031 29.3174 144.466C29.2278 143.9 28.6966 143.514 28.1308 143.603C27.5651 143.693 27.1791 144.224 27.2687 144.79C27.3583 145.356 27.8896 145.742 28.4553 145.652Z" stroke="#090814"/>
<path d="M27.5947 139.147C27.5801 139.055 27.4935 138.992 27.4013 139.007C27.3091 139.021 27.2462 139.108 27.2608 139.2L28.0982 144.487C28.1128 144.579 28.1994 144.642 28.2916 144.628C28.3837 144.613 28.4466 144.526 28.432 144.434L27.5947 139.147Z" fill="#2F2E41"/>
</g>
</g>
<defs>
<filter id="filter0_d_2710_3608" x="0" y="0" width="241" height="240" filterUnits="userSpaceOnUse" color-interpolation-filters="sRGB">
<feFlood flood-opacity="0" result="BackgroundImageFix"/>
<feColorMatrix in="SourceAlpha" type="matrix" values="0 0 0 0 0 0 0 0 0 0 0 0 0 0 0 0 0 0 127 0" result="hardAlpha"/>
<feOffset/>
<feGaussianBlur stdDeviation="5"/>
<feComposite in2="hardAlpha" operator="out"/>
<feColorMatrix type="matrix" values="0 0 0 0 0 0 0 0 0 0 0 0 0 0 0 0 0 0 0.1 0"/>
<feBlend mode="normal" in2="BackgroundImageFix" result="effect1_dropShadow_2710_3608"/>
<feBlend mode="normal" in="SourceGraphic" in2="effect1_dropShadow_2710_3608" result="shape"/>
</filter>
<clipPath id="clip0_2710_3608">
<rect x="10" y="10" width="221" height="220" rx="20" fill="white"/>
</clipPath>
</defs>
</svg>
