<svg width="118" height="119" viewBox="0 0 118 119" fill="none" xmlns="http://www.w3.org/2000/svg">
<path d="M110.627 0.501333C113.962 0.431163 116.644 3.14133 116.644 6.4486V107.307C116.644 108.358 116.374 109.342 115.903 110.2C109.984 109.108 103.881 108.536 97.646 108.536H90.646C75.4779 108.536 61.099 111.913 48.2193 117.956L1.26225 33.8705C-0.355375 30.9738 0.673667 27.2758 3.66655 25.7464C34.0694 10.2172 74.3605 1.26423 110.627 0.501333Z" fill="#436181"/>
<path d="M110.627 0.501333L110.616 0.0014432L110.627 0.501333ZM116.644 107.307L117.144 107.307V107.307H116.644ZM115.903 110.2L115.812 110.691L116.167 110.757L116.341 110.44L115.903 110.2ZM90.646 108.536V108.036V108.536ZM48.2193 117.956L47.7827 118.2L48.0099 118.607L48.4317 118.409L48.2193 117.956ZM1.26225 33.8705L1.6988 33.6267L1.69879 33.6267L1.26225 33.8705ZM3.66655 25.7464L3.43911 25.3012L3.43904 25.3012L3.66655 25.7464ZM110.627 0.501333L110.637 1.00122C113.685 0.937109 116.144 3.41384 116.144 6.4486H116.644H117.144C117.144 2.86882 114.24 -0.0747818 110.616 0.0014432L110.627 0.501333ZM116.644 6.4486H116.144V107.307H116.644H117.144V6.4486H116.644ZM116.644 107.307L116.144 107.307C116.144 108.271 115.897 109.172 115.465 109.959L115.903 110.2L116.341 110.44C116.852 109.511 117.144 108.445 117.144 107.307L116.644 107.307ZM115.903 110.2L115.994 109.708C110.045 108.61 103.912 108.036 97.646 108.036V108.536V109.036C103.851 109.036 109.923 109.605 115.812 110.691L115.903 110.2ZM97.646 108.536V108.036H90.646V108.536V109.036H97.646V108.536ZM90.646 108.536V108.036C75.403 108.036 60.9517 111.43 48.0069 117.504L48.2193 117.956L48.4317 118.409C61.2463 112.396 75.5529 109.036 90.646 109.036V108.536ZM48.2193 117.956L48.6558 117.713L1.6988 33.6267L1.26225 33.8705L0.82571 34.1143L47.7827 118.2L48.2193 117.956ZM1.26225 33.8705L1.69879 33.6267C0.213727 30.9674 1.16364 27.5869 3.89406 26.1917L3.66655 25.7464L3.43904 25.3012C0.183692 26.9647 -0.924476 30.9802 0.825711 34.1143L1.26225 33.8705ZM3.66655 25.7464L3.89399 26.1917C34.2188 10.7023 74.4334 1.7628 110.637 1.00122L110.627 0.501333L110.616 0.0014432C74.2876 0.765649 33.92 9.73203 3.43911 25.3012L3.66655 25.7464Z" fill="#143A62"/>
</svg>
