<svg width="31" height="32" viewBox="0 0 31 32" fill="none" xmlns="http://www.w3.org/2000/svg">
<path opacity="0.4" d="M25.1179 23.1304L24.0855 23.3502C22.9988 23.5817 22.0536 24.2112 21.4505 25.1131L19.6032 27.8407C18.7603 29.0837 17.0351 29.4511 15.7588 28.6595L12.9604 26.9214C12.0421 26.3435 10.9089 26.1567 9.8357 26.3853L8.81688 26.6023C6.56191 27.0826 4.36736 25.7131 3.90586 23.5463L0.835757 9.13185C0.374257 6.96507 1.82028 4.8202 4.07526 4.33991L20.3763 0.867983C22.6313 0.387699 24.8258 1.75717 25.2873 3.92395L28.3574 18.3384C28.8161 20.4919 27.3729 22.6501 25.1179 23.1304Z" fill="#143A62"/>
<path d="M20.5754 11.2667C20.2413 10.9649 19.7644 10.8594 19.2482 10.9693L16.5993 11.5335C16.4227 11.5711 16.2456 11.5397 16.1088 11.4308C15.972 11.3218 15.8811 11.1616 15.8689 10.9709L15.7559 8.84033C15.7623 8.20364 15.192 7.59308 14.5249 7.52799C13.8958 7.44101 13.2649 7.8792 13.0777 8.33343L11.2527 12.6998L11.1514 12.2242C10.9544 11.2994 10.4653 11.003 9.46008 11.2171L8.79446 11.3589C7.78923 11.573 7.4633 12.0429 7.66028 12.9678L9.00539 19.2832C9.20237 20.2081 9.69152 20.5044 10.6968 20.2903L11.3624 20.1485C12.3133 19.946 12.6448 19.5025 12.5055 18.6482L14.8204 19.7159C15.1483 19.9222 15.7906 19.9374 16.2253 19.8448L18.7383 19.3095C19.6077 19.1244 20.342 18.305 20.3662 17.485L20.9537 12.443C21.0403 11.9826 20.9067 11.5552 20.5754 11.2667Z" fill="#143A62"/>
</svg>
