<svg width="333" height="333" viewBox="0 0 333 333" fill="none" xmlns="http://www.w3.org/2000/svg">
<g clip-path="url(#clip0_5156_11577)">
<path d="M169.479 217.375C199.33 217.375 223.528 193.177 223.528 163.326C223.528 133.476 199.33 109.277 169.479 109.277C139.628 109.277 115.43 133.476 115.43 163.326C115.43 193.177 139.628 217.375 169.479 217.375Z" fill="#C7ABAF"/>
<path d="M124.742 229.478L136.009 200.685L194.222 191.922L200.476 255.659L141.638 256.911L124.742 229.478Z" fill="#C7ABAF"/>
<path d="M224.052 173.299C223.35 176.109 221.932 182.8 219.718 182.833C217.909 182.859 216.177 153.83 217.984 149.029C220.06 143.513 214.605 136.535 210.496 132.953C203.107 126.512 186.706 140.342 170.028 134.077C169.586 133.911 169.674 133.93 164.407 131.829C148.202 125.363 147.35 125.176 146.422 125.084C138.566 124.307 128.979 130.735 125.064 138.573C120.994 146.721 124.394 153.709 120.567 173.42C120.121 175.718 119.421 178.993 118.319 179.041C116.305 179.129 114.338 168.37 113.823 165.552C111.664 153.745 109.584 142.363 113.823 129.58C114.285 128.186 117.135 123.011 122.815 112.719C130.999 97.8914 135.115 90.4497 136.305 89.1126C144.835 79.5193 160.363 70.768 173.4 74.4993C179.989 76.3852 178.808 79.4172 186.889 82.368C201.291 87.6262 213.808 81.1956 216.116 85.7403C217.339 88.1477 213.918 90.1324 213.868 94.7331C213.783 102.627 223.767 104.908 229.605 112.719C232.744 116.918 238.117 116.963 224.052 173.299Z" fill="#4B4344"/>
<path d="M291.013 277.047C288.834 279.495 286.575 281.892 284.234 284.233C252.787 315.68 210.974 333 166.501 333C128.062 333 91.6134 320.062 62.1253 296.245C62.1065 296.233 62.094 296.22 62.0753 296.201C58.1632 293.047 54.3762 289.691 50.7207 286.149C50.7895 285.598 50.8647 285.053 50.946 284.515C51.4593 280.884 52.029 277.423 52.6673 274.237C57.894 248.123 126.666 220.707 128.456 219.993C128.481 219.987 128.494 219.98 128.494 219.98C128.494 219.98 137.345 252.605 175.27 252.185C201.103 251.903 196.095 219.98 196.095 219.98C196.095 219.98 196.408 220.043 196.997 220.168C204.458 221.752 256.261 233.131 276.698 248.661C282.926 253.393 287.395 263.471 290.606 275.489C290.744 276.002 290.875 276.528 291.013 277.047Z" fill="#37338A"/>
<mask id="path-5-inside-1_5156_11577" fill="white">
<path d="M284.233 48.7671C252.786 17.3203 210.973 0 166.5 0C122.027 0 80.2143 17.3203 48.7669 48.7671C17.3199 80.2144 0 122.027 0 166.5C0 207.093 14.4279 245.469 40.8676 275.771C43.3902 278.669 46.0254 281.491 48.7669 284.234C49.4117 284.878 50.0627 285.523 50.7199 286.149C54.3755 289.692 58.1624 293.047 62.0746 296.201C62.0932 296.22 62.1057 296.233 62.1245 296.245C91.6126 320.062 128.061 333 166.5 333C210.973 333 252.786 315.68 284.233 284.234C286.574 281.892 288.834 279.495 291.012 277.047C318.159 246.552 333 207.668 333 166.5C333 122.027 315.68 80.2144 284.233 48.7671ZM290.605 275.489C285.679 281.091 280.383 286.361 274.75 291.25C264.065 300.545 252.172 308.482 239.347 314.804C234.846 317.026 230.233 319.048 225.514 320.857C207.18 327.893 187.281 331.748 166.5 331.748C146.445 331.748 127.216 328.156 109.421 321.583C102.116 318.891 95.0553 315.693 88.2763 312.031C87.281 311.493 86.2921 310.948 85.3094 310.392C80.1391 307.462 75.1378 304.264 70.3369 300.808C63.4579 295.876 56.9731 290.424 50.9452 284.515C47.5652 281.203 44.3354 277.755 41.2495 274.168C16.3308 245.225 1.25188 207.593 1.25188 166.5C1.25188 75.3824 75.3819 1.25188 166.5 1.25188C257.618 1.25188 331.748 75.3824 331.748 166.5C331.748 208.225 316.206 246.383 290.605 275.489Z"/>
</mask>
<path d="M284.233 48.7671C252.786 17.3203 210.973 0 166.5 0C122.027 0 80.2143 17.3203 48.7669 48.7671C17.3199 80.2144 0 122.027 0 166.5C0 207.093 14.4279 245.469 40.8676 275.771C43.3902 278.669 46.0254 281.491 48.7669 284.234C49.4117 284.878 50.0627 285.523 50.7199 286.149C54.3755 289.692 58.1624 293.047 62.0746 296.201C62.0932 296.22 62.1057 296.233 62.1245 296.245C91.6126 320.062 128.061 333 166.5 333C210.973 333 252.786 315.68 284.233 284.234C286.574 281.892 288.834 279.495 291.012 277.047C318.159 246.552 333 207.668 333 166.5C333 122.027 315.68 80.2144 284.233 48.7671ZM290.605 275.489C285.679 281.091 280.383 286.361 274.75 291.25C264.065 300.545 252.172 308.482 239.347 314.804C234.846 317.026 230.233 319.048 225.514 320.857C207.18 327.893 187.281 331.748 166.5 331.748C146.445 331.748 127.216 328.156 109.421 321.583C102.116 318.891 95.0553 315.693 88.2763 312.031C87.281 311.493 86.2921 310.948 85.3094 310.392C80.1391 307.462 75.1378 304.264 70.3369 300.808C63.4579 295.876 56.9731 290.424 50.9452 284.515C47.5652 281.203 44.3354 277.755 41.2495 274.168C16.3308 245.225 1.25188 207.593 1.25188 166.5C1.25188 75.3824 75.3819 1.25188 166.5 1.25188C257.618 1.25188 331.748 75.3824 331.748 166.5C331.748 208.225 316.206 246.383 290.605 275.489Z" fill="#37338A"/>
<path d="M284.233 48.7671L285.647 47.3529V47.3528L284.233 48.7671ZM48.7669 48.7671L47.3527 47.3528L47.3527 47.3529L48.7669 48.7671ZM40.8676 275.771L42.3762 274.457L42.3746 274.456L40.8676 275.771ZM48.7669 284.234L47.3525 285.648L47.3532 285.648L48.7669 284.234ZM50.7199 286.149L52.1118 284.712L52.1055 284.706L52.0992 284.7L50.7199 286.149ZM62.0746 296.201L63.5 294.798L63.4194 294.716L63.3299 294.644L62.0746 296.201ZM62.1245 296.245L63.3812 294.689L63.3012 294.624L63.2149 294.568L62.1245 296.245ZM284.233 284.234L285.647 285.648L285.647 285.648L284.233 284.234ZM291.012 277.047L289.518 275.718L289.518 275.718L291.012 277.047ZM290.605 275.489L289.103 274.168L289.103 274.168L290.605 275.489ZM274.75 291.25L273.439 289.74L273.437 289.741L274.75 291.25ZM239.347 314.804L238.463 313.01L238.462 313.011L239.347 314.804ZM225.514 320.857L224.798 318.99L224.797 318.99L225.514 320.857ZM109.421 321.583L110.113 319.707L110.112 319.707L109.421 321.583ZM88.2763 312.031L87.3254 313.79L87.3257 313.791L88.2763 312.031ZM85.3094 310.392L84.3233 312.132L84.3234 312.132L85.3094 310.392ZM70.3369 300.808L71.5053 299.185L71.5023 299.183L70.3369 300.808ZM50.9452 284.515L52.3453 283.086L52.3448 283.086L50.9452 284.515ZM41.2495 274.168L42.7656 272.864L42.7652 272.863L41.2495 274.168ZM284.233 48.7671L285.647 47.3528C253.825 15.531 211.504 -2 166.5 -2V0V2C210.443 2 251.747 19.1096 282.819 50.1813L284.233 48.7671ZM166.5 0V-2C121.496 -2 79.1751 15.531 47.3527 47.3528L48.7669 48.7671L50.1811 50.1813C81.2534 19.1096 122.557 2 166.5 2V0ZM48.7669 48.7671L47.3527 47.3529C15.5306 79.1753 -2 121.497 -2 166.5H0H2C2 122.558 19.1091 81.2536 50.1811 50.1813L48.7669 48.7671ZM0 166.5H-2C-2 207.575 12.6024 246.418 39.3607 277.085L40.8676 275.771L42.3746 274.456C16.2535 244.519 2 206.61 2 166.5H0ZM40.8676 275.771L39.3591 277.084C41.9122 280.017 44.5789 282.873 47.3525 285.648L48.7669 284.234L50.1813 282.819C47.4719 280.109 44.8682 277.32 42.3762 274.457L40.8676 275.771ZM48.7669 284.234L47.3532 285.648C48.0008 286.295 48.6655 286.954 49.3406 287.597L50.7199 286.149L52.0992 284.7C51.4598 284.091 50.8225 283.46 50.1806 282.819L48.7669 284.234ZM50.7199 286.149L49.328 287.585C53.0261 291.169 56.8586 294.565 60.8192 297.758L62.0746 296.201L63.3299 294.644C59.4663 291.529 55.7248 288.214 52.1118 284.712L50.7199 286.149ZM62.0746 296.201L60.6491 297.604C60.6504 297.605 60.6642 297.619 60.6783 297.633C60.6941 297.649 60.7202 297.674 60.753 297.704C60.8256 297.77 60.9186 297.846 61.0341 297.922L62.1245 296.245L63.2149 294.568C63.4082 294.694 63.5428 294.842 63.5 294.798L62.0746 296.201ZM62.1245 296.245L60.8679 297.801C90.7128 321.906 127.605 335 166.5 335V333V331C128.517 331 92.5125 318.218 63.3812 294.689L62.1245 296.245ZM166.5 333V335C211.503 335 253.825 317.47 285.647 285.648L284.233 284.234L282.819 282.819C251.747 313.891 210.443 331 166.5 331V333ZM284.233 284.234L285.647 285.648C288.016 283.279 290.302 280.853 292.506 278.377L291.012 277.047L289.518 275.718C287.365 278.137 285.132 280.506 282.819 282.819L284.233 284.234ZM291.012 277.047L292.506 278.377C319.979 247.515 335 208.158 335 166.5H333H331C331 207.179 316.339 245.589 289.518 275.718L291.012 277.047ZM333 166.5H335C335 121.497 317.47 79.1753 285.647 47.3529L284.233 48.7671L282.819 50.1813C313.891 81.2536 331 122.558 331 166.5H333ZM290.605 275.489L289.103 274.168C284.236 279.704 279.004 284.911 273.439 289.74L274.75 291.25L276.061 292.761C281.763 287.812 287.122 282.478 292.107 276.809L290.605 275.489ZM274.75 291.25L273.437 289.741C262.882 298.924 251.133 306.765 238.463 313.01L239.347 314.804L240.231 316.598C253.212 310.199 265.249 302.166 276.063 292.759L274.75 291.25ZM239.347 314.804L238.462 313.011C234.016 315.206 229.459 317.203 224.798 318.99L225.514 320.857L226.23 322.725C231.007 320.893 235.677 318.847 240.232 316.598L239.347 314.804ZM225.514 320.857L224.797 318.99C206.688 325.939 187.032 329.748 166.5 329.748V331.748V333.748C187.53 333.748 207.672 329.846 226.23 322.724L225.514 320.857ZM166.5 331.748V329.748C146.685 329.748 127.691 326.199 110.113 319.707L109.421 321.583L108.728 323.459C126.741 330.112 146.204 333.748 166.5 333.748V331.748ZM109.421 321.583L110.112 319.707C102.897 317.048 95.9233 313.889 89.2269 310.271L88.2763 312.031L87.3257 313.791C94.1873 317.497 101.334 320.735 108.729 323.46L109.421 321.583ZM88.2763 312.031L89.2272 310.272C88.2411 309.739 87.2642 309.201 86.2953 308.652L85.3094 310.392L84.3234 312.132C85.3201 312.696 86.3209 313.248 87.3254 313.79L88.2763 312.031ZM85.3094 310.392L86.2954 308.652C81.1869 305.757 76.2466 302.597 71.5053 299.185L70.3369 300.808L69.1686 302.431C74.0291 305.93 79.0913 309.167 84.3233 312.132L85.3094 310.392ZM70.3369 300.808L71.5023 299.183C64.7067 294.31 58.3003 288.924 52.3453 283.086L50.9452 284.515L49.5451 285.943C55.6458 291.923 62.2091 297.441 69.1715 302.433L70.3369 300.808ZM50.9452 284.515L52.3448 283.086C49.0058 279.815 45.8148 276.408 42.7656 272.864L41.2495 274.168L39.7335 275.473C42.8559 279.102 46.1246 282.592 49.5456 285.943L50.9452 284.515ZM41.2495 274.168L42.7652 272.863C18.146 244.268 3.25188 207.095 3.25188 166.5H1.25188H-0.74812C-0.74812 208.092 14.5156 246.182 39.7339 275.473L41.2495 274.168ZM1.25188 166.5H3.25188C3.25188 76.4869 76.4865 3.25188 166.5 3.25188V1.25188V-0.74812C74.2773 -0.74812 -0.74812 74.2778 -0.74812 166.5H1.25188ZM166.5 1.25188V3.25188C256.514 3.25188 329.748 76.4869 329.748 166.5H331.748H333.748C333.748 74.2778 258.723 -0.74812 166.5 -0.74812V1.25188ZM331.748 166.5H329.748C329.748 207.719 314.397 245.412 289.103 274.168L290.605 275.489L292.107 276.81C318.016 247.353 333.748 208.731 333.748 166.5H331.748Z" fill="#37338A" mask="url(#path-5-inside-1_5156_11577)"/>
</g>
<defs>
<clipPath id="clip0_5156_11577">
<rect width="333" height="333" fill="white"/>
</clipPath>
</defs>
</svg>
