<svg width="16" height="16" viewBox="0 0 16 16" fill="none" xmlns="http://www.w3.org/2000/svg">
<path d="M8 16C3.589 16 0 12.411 0 8C0 3.589 3.589 0 8 0C12.411 0 16 3.589 16 8C16 12.411 12.411 16 8 16ZM8 1C4.14 1 1 4.14 1 8C1 11.86 4.14 15 8 15C11.86 15 15 11.86 15 8C15 4.14 11.86 1 8 1ZM11.5 8.5H5.707L6.8535 9.6465C7.049 9.842 7.049 10.158 6.8535 10.3535C6.756 10.451 6.628 10.5 6.5 10.5C6.372 10.5 6.244 10.451 6.1465 10.3535L4.1465 8.3535C4.1005 8.3075 4.064 8.2525 4.0385 8.191C3.988 8.069 3.988 7.931 4.0385 7.809C4.064 7.7475 4.1005 7.6925 4.1465 7.6465L6.1465 5.6465C6.342 5.451 6.658 5.451 6.8535 5.6465C7.049 5.842 7.049 6.158 6.8535 6.3535L5.707 7.5H11.5C11.776 7.5 12 7.724 12 8C12 8.276 11.776 8.5 11.5 8.5Z" fill="white"/>
</svg>
