<svg width="17" height="14" viewBox="0 0 17 14" fill="none" xmlns="http://www.w3.org/2000/svg">
<path d="M13.034 1.90912H6.54016L5.57118 0.286368C5.51985 0.198828 5.45006 0.126883 5.36801 0.0769245C5.28596 0.0269664 5.19419 0.000542265 5.10086 0H3.96754C3.51669 0 3.08429 0.201139 2.76549 0.559168C2.44668 0.917197 2.26758 1.40279 2.26758 1.90912V5.09098C2.26758 5.25976 2.32728 5.42162 2.43355 5.54097C2.53982 5.66031 2.68395 5.72736 2.83423 5.72736H14.1673C14.3176 5.72736 14.4618 5.66031 14.568 5.54097C14.6743 5.42162 14.734 5.25976 14.734 5.09098V3.81824C14.734 3.31191 14.5549 2.82632 14.2361 2.46829C13.9173 2.11026 13.4849 1.90912 13.034 1.90912Z" fill="white"/>
<path d="M15.2992 4.45508H1.69947C1.38651 4.45508 1.13281 4.73999 1.13281 5.09145V7.63694C1.13281 7.9884 1.38651 8.27332 1.69947 8.27332H15.2992C15.6122 8.27332 15.8659 7.9884 15.8659 7.63694V5.09145C15.8659 4.73999 15.6122 4.45508 15.2992 4.45508Z" fill="#00B6FF"/>
<path d="M16.8922 7.26728C16.84 7.18503 16.7712 7.1179 16.6914 7.07142C16.6116 7.02495 16.5231 7.00047 16.4332 7H0.566825C0.476925 7.00047 0.388414 7.02495 0.308604 7.07142C0.228794 7.1179 0.159976 7.18503 0.107834 7.26728C0.0551767 7.34887 0.0205261 7.44334 0.00673395 7.54291C-0.00705815 7.64248 0.000402561 7.74431 0.0285021 7.84001L1.72847 13.5674C1.76648 13.6938 1.83891 13.8035 1.93551 13.8812C2.03211 13.9589 2.148 14.0004 2.26679 14.0001H14.7332C14.852 14.0004 14.9679 13.9589 15.0645 13.8812C15.1611 13.8035 15.2335 13.6938 15.2715 13.5674L16.9715 7.84001C16.9996 7.74431 17.0071 7.64248 16.9933 7.54291C16.9795 7.44334 16.9448 7.34887 16.8922 7.26728Z" fill="white"/>
<path d="M5.10036 12.0901H3.96705C3.81676 12.0901 3.67263 12.0231 3.56636 11.9037C3.46009 11.7844 3.40039 11.6225 3.40039 11.4538C3.40039 11.285 3.46009 11.1231 3.56636 11.0038C3.67263 10.8844 3.81676 10.8174 3.96705 10.8174H5.10036C5.25064 10.8174 5.39477 10.8844 5.50104 11.0038C5.60731 11.1231 5.66701 11.285 5.66701 11.4538C5.66701 11.6225 5.60731 11.7844 5.50104 11.9037C5.39477 12.0231 5.25064 12.0901 5.10036 12.0901Z" fill="#00B6FF"/>
</svg>
