<svg width="30" height="21" viewBox="0 0 30 21" fill="none" xmlns="http://www.w3.org/2000/svg">
<path d="M9.84719 15.945C10.6711 17.7106 11.9024 19.3985 13.5131 20.97C10.1368 20.4588 7.32957 18.3811 5.80501 15.5075L9.84713 15.945H9.84719ZM13.4518 0.115294C10.1626 0.634969 7.42363 2.63891 5.89149 5.41314L9.84815 5.02023C10.6619 3.29023 11.8745 1.64367 13.4518 0.115263L13.4518 0.115294ZM14.6923 5.07276L14.7472 0H14.7361C12.9664 1.55744 11.6198 3.24342 10.7223 5.02781L14.6923 5.07289L14.6923 5.07276ZM6.14694 6.64798L5.41601 6.64143L4.69341 6.63198L4.63669 11.9008L1.71107 6.60008L0.0799397 6.58221L0 14.0798L0.727226 14.0901L1.45072 14.0967L1.5084 8.69191L4.5187 14.1304L6.06805 14.1483L6.14709 6.64786L6.14694 6.64798ZM13.1002 8.05547L13.1067 7.38696L13.1151 6.72309L7.63952 6.66402L7.55959 14.1644L13.2054 14.2244L13.2128 13.5578L13.2193 12.893L9.12838 12.8489L9.14882 10.892L12.7859 10.9313L12.7924 10.2881L12.7989 9.64108L9.16183 9.6026L9.17956 8.01227L13.1002 8.05538V8.05547ZM20.5232 12.2487L19.504 6.79328L17.8495 6.77354L16.7289 12.2524L15.5442 6.7501L13.9288 6.73135L15.9189 14.2543L16.6564 14.2617L17.3957 14.2712L18.626 8.37702L19.7578 14.2956L20.4999 14.3059L21.2364 14.3134L23.3864 6.83543L21.8157 6.81852L20.5231 12.2486L20.5232 12.2487ZM15.5461 0.00929471H15.5349L15.481 5.08115L19.4538 5.1234C18.5927 3.3193 17.2833 1.60522 15.5461 0.00929471H15.5461ZM24.0309 5.17214C22.3775 2.38946 19.5561 0.45962 16.2673 0.0679515C18.374 1.71302 19.5504 3.38492 20.3288 5.13269L24.0309 5.17205L24.0309 5.17214ZM16.3235 21C19.6979 20.5639 22.532 18.5615 24.121 15.7505L20.0963 16.0566C19.2343 17.8034 17.9658 19.4631 16.3235 21L16.3235 21ZM19.2156 16.0472L15.3647 16.005L15.3126 20.849C17.007 19.3609 18.3172 17.7453 19.2156 16.0472L19.2156 16.0472ZM29.4712 10.7831C29.1085 10.4596 28.3905 10.169 27.3108 9.91671C26.5669 9.7367 26.0806 9.58945 25.8537 9.46197C25.622 9.33909 25.5058 9.16377 25.5086 8.93785C25.5105 8.62939 25.6249 8.37897 25.8509 8.20735C26.0731 8.04136 26.3837 7.95607 26.7771 7.96166C27.2328 7.96542 27.601 8.07611 27.8828 8.28516C28.1627 8.49616 28.3144 8.77838 28.3367 9.1366L29.8497 9.15535C29.8013 8.40055 29.5177 7.80412 28.9988 7.35594C28.4827 6.90773 27.8056 6.67991 26.9724 6.67145C26.0834 6.66116 25.3739 6.86838 24.8466 7.28469C24.3202 7.70577 24.0534 8.28706 24.0459 9.01099C24.0394 9.66082 24.231 10.1409 24.6206 10.4531C25.0158 10.7635 25.8025 11.0598 26.978 11.3364C27.6178 11.4864 28.0336 11.6336 28.2288 11.7649C28.426 11.9 28.5246 12.1062 28.5218 12.3913C28.519 12.6773 28.3767 12.8967 28.0968 13.0561C27.816 13.2137 27.43 13.2905 26.9325 13.2849C26.4517 13.2792 26.075 13.1695 25.8091 12.9511C25.5395 12.7363 25.4018 12.4316 25.3888 12.0294L23.8925 12.0134C23.9195 12.8236 24.1976 13.45 24.7221 13.8944C25.2475 14.3426 25.9813 14.5686 26.9195 14.5779C27.8596 14.5874 28.6027 14.3932 29.157 13.9825C29.7131 13.5737 29.9921 13.0196 29.9995 12.3144C30.0107 11.6149 29.8321 11.1029 29.4713 10.7832L29.4712 10.7831ZM14.5249 20.8359L14.577 15.9975L10.7261 15.9553C11.5909 17.6712 12.864 19.314 14.5249 20.8359L14.5249 20.8359Z" fill="white"/>
</svg>
