<svg width="33" height="35" viewBox="0 0 33 35" fill="none" xmlns="http://www.w3.org/2000/svg">
<path d="M21.2602 28.7C21.2602 31.351 19.129 33.5 16.4999 33.5C13.871 33.5 11.7398 31.351 11.7398 28.7M19.3507 8.2817C20.0415 7.56182 20.4668 6.58099 20.4668 5.5C20.4668 3.29086 18.6909 1.5 16.4999 1.5C14.3091 1.5 12.5332 3.29086 12.5332 5.5C12.5332 6.58099 12.9584 7.56182 13.6494 8.2817M1.50031 11.6167C1.47754 9.29458 2.71913 7.1261 4.72489 5.9849M31.4997 11.6167C31.5225 9.29458 30.2809 7.1261 28.2751 5.9849M26.0204 16.22C26.0204 14.0134 25.0174 11.8972 23.232 10.3369C21.4466 8.77658 19.0249 7.9 16.4999 7.9C13.975 7.9 11.5535 8.77658 9.76807 10.3369C7.98264 11.8972 6.9796 14.0134 6.9796 16.22C6.9796 19.8709 6.08171 22.541 4.96136 24.4515C3.68448 26.629 3.04603 27.7178 3.07124 27.9778C3.10009 28.2754 3.1532 28.3693 3.39252 28.5458C3.6017 28.7 4.65266 28.7 6.75458 28.7H26.2455C28.3473 28.7 29.3984 28.7 29.6075 28.5458C29.8468 28.3693 29.8999 28.2754 29.9288 27.9778C29.954 27.7178 29.3155 26.629 28.0387 24.4515C26.9183 22.541 26.0204 19.8709 26.0204 16.22Z" stroke="#143A62" stroke-width="3" stroke-linecap="round" stroke-linejoin="round"/>
</svg>
