<svg width="25" height="26" viewBox="0 0 25 26" fill="none" xmlns="http://www.w3.org/2000/svg">
<path d="M15.7408 20.8C15.7408 22.7054 14.1779 24.25 12.25 24.25C10.3221 24.25 8.75919 22.7054 8.75919 20.8M14.3405 6.12434C14.8471 5.60694 15.159 4.90196 15.159 4.125C15.159 2.53718 13.8567 1.25 12.25 1.25C10.6434 1.25 9.341 2.53718 9.341 4.125C9.341 4.90196 9.65284 5.60694 10.1595 6.12434M1.25023 8.5214C1.23353 6.85235 2.14403 5.29376 3.61492 4.47352M23.2498 8.5214C23.2665 6.85235 22.356 5.29376 20.8851 4.47352M19.2316 11.83C19.2316 10.244 18.4961 8.72296 17.1868 7.6015C15.8775 6.48004 14.1016 5.85 12.25 5.85C10.3983 5.85 8.62256 6.48004 7.31325 7.6015C6.00393 8.72296 5.26837 10.244 5.26837 11.83C5.26837 14.4541 4.60992 16.3732 3.78833 17.7464C2.85195 19.3114 2.38375 20.094 2.40224 20.2809C2.4234 20.4948 2.46234 20.5623 2.63785 20.6891C2.79125 20.8 3.56195 20.8 5.10336 20.8H19.3967C20.938 20.8 21.7088 20.8 21.8622 20.6891C22.0376 20.5623 22.0766 20.4948 22.0978 20.2809C22.1163 20.094 21.6481 19.3114 20.7117 17.7464C19.8901 16.3732 19.2316 14.4541 19.2316 11.83Z" stroke="white" stroke-width="2.5" stroke-linecap="round" stroke-linejoin="round"/>
</svg>
