<svg width="32" height="32" viewBox="0 0 32 32" fill="none" xmlns="http://www.w3.org/2000/svg">
<path d="M16 32C24.8366 32 32 24.8366 32 16C32 7.16344 24.8366 0 16 0C7.16344 0 0 7.16344 0 16C0 24.8366 7.16344 32 16 32Z" fill="#00B6FF"/>
<g opacity="0.2">
<path d="M16 6.99951C11.3 6.99951 7.5 10.7495 7.5 15.3995C7.5 22.7495 16 27.9995 16 27.9995C16 27.9995 24.5 22.8995 24.5 15.3995C24.5 10.7495 20.7 6.99951 16 6.99951ZM16 18.9995C13.8 18.9995 12 17.1995 12 14.9995C12 12.7995 13.8 10.9995 16 10.9995C18.2 10.9995 20 12.7995 20 14.9995C20 17.1995 18.2 18.9995 16 18.9995Z" fill="#231F20"/>
</g>
<path d="M16 5.99951C11.3 5.99951 7.5 9.74951 7.5 14.3995C7.5 21.7495 16 26.9995 16 26.9995C16 26.9995 24.5 21.8995 24.5 14.3995C24.5 9.74951 20.7 5.99951 16 5.99951ZM16 17.9995C13.8 17.9995 12 16.1995 12 13.9995C12 11.7995 13.8 9.99951 16 9.99951C18.2 9.99951 20 11.7995 20 13.9995C20 16.1995 18.2 17.9995 16 17.9995Z" fill="white"/>
</svg>
