<svg width="34" height="43" viewBox="0 0 34 43" fill="none" xmlns="http://www.w3.org/2000/svg">
<path d="M29.75 19.4382H4.25C3.12384 19.4415 2.04475 19.8858 1.24844 20.6742C0.452121 21.4625 0.00329638 22.5308 0 23.6457V38.7926C0.00329638 39.9075 0.452121 40.9758 1.24844 41.7641C2.04475 42.5525 3.12384 42.9968 4.25 43.0001H29.75C30.8762 42.9968 31.9552 42.5525 32.7516 41.7641C33.5479 40.9758 33.9967 39.9075 34 38.7926V23.6457C33.9967 22.5308 33.5479 21.4625 32.7516 20.6742C31.9552 19.8858 30.8762 19.4415 29.75 19.4382ZM10.2116 32.101C10.3182 32.1616 10.4116 32.2424 10.4866 32.3388C10.5616 32.4352 10.6166 32.5454 10.6486 32.6628C10.6805 32.7803 10.6887 32.9029 10.6727 33.0236C10.6568 33.1442 10.6169 33.2606 10.5554 33.3659C10.494 33.4713 10.4121 33.5636 10.3146 33.6376C10.217 33.7116 10.1057 33.7659 9.98692 33.7972C9.86817 33.8286 9.74433 33.8364 9.62251 33.8204C9.50068 33.8043 9.38325 33.7645 9.27696 33.7035L7.73468 32.8219V34.5852C7.73468 34.8306 7.63621 35.066 7.46092 35.2395C7.28564 35.413 7.0479 35.5105 6.80001 35.5105C6.55212 35.5105 6.31438 35.413 6.1391 35.2395C5.96381 35.066 5.86534 34.8306 5.86534 34.5852V32.8219L4.32306 33.7035C4.10845 33.8255 3.85371 33.8583 3.61471 33.7946C3.37572 33.7309 3.17199 33.576 3.04823 33.3638C2.92447 33.1516 2.89078 32.8995 2.95455 32.6628C3.01832 32.426 3.17435 32.224 3.3884 32.101L4.9311 31.2192L3.3884 30.3375C3.17435 30.2145 3.01832 30.0124 2.95455 29.7757C2.89078 29.5389 2.92447 29.2868 3.04823 29.0746C3.17199 28.8624 3.37572 28.7075 3.61471 28.6439C3.85371 28.5802 4.10845 28.613 4.32306 28.735L5.86534 29.6165V27.8533C5.86534 27.6078 5.96381 27.3725 6.1391 27.199C6.31438 27.0254 6.55212 26.9279 6.80001 26.9279C7.0479 26.9279 7.28564 27.0254 7.46092 27.199C7.63621 27.3725 7.73468 27.6078 7.73468 27.8533V29.6165L9.27696 28.735C9.49157 28.613 9.74631 28.5802 9.98531 28.6439C10.2243 28.7075 10.428 28.8624 10.5518 29.0746C10.6756 29.2868 10.7092 29.5389 10.6455 29.7757C10.5817 30.0124 10.4257 30.2145 10.2116 30.3375L8.66892 31.2192L10.2116 32.101ZM20.4116 32.101C20.5182 32.1616 20.6116 32.2424 20.6866 32.3388C20.7616 32.4352 20.8166 32.5454 20.8486 32.6628C20.8805 32.7803 20.8887 32.9029 20.8727 33.0236C20.8568 33.1442 20.8169 33.2606 20.7554 33.3659C20.694 33.4713 20.6121 33.5636 20.5146 33.6376C20.417 33.7116 20.3057 33.7659 20.1869 33.7972C20.0682 33.8286 19.9443 33.8364 19.8225 33.8204C19.7007 33.8043 19.5833 33.7645 19.477 33.7035L17.9347 32.8219V34.5852C17.9347 34.8306 17.8362 35.066 17.6609 35.2395C17.4856 35.413 17.2479 35.5105 17 35.5105C16.7521 35.5105 16.5144 35.413 16.3391 35.2395C16.1638 35.066 16.0653 34.8306 16.0653 34.5852V32.8219L14.5231 33.7035C14.3085 33.8255 14.0537 33.8583 13.8147 33.7946C13.5757 33.7309 13.372 33.576 13.2482 33.3638C13.1245 33.1516 13.0908 32.8995 13.1546 32.6628C13.2183 32.426 13.3744 32.224 13.5884 32.101L15.1311 31.2192L13.5884 30.3375C13.3744 30.2145 13.2183 30.0124 13.1546 29.7757C13.0908 29.5389 13.1245 29.2868 13.2482 29.0746C13.372 28.8624 13.5757 28.7075 13.8147 28.6439C14.0537 28.5802 14.3085 28.613 14.5231 28.735L16.0653 29.6165V27.8533C16.0653 27.6078 16.1638 27.3725 16.3391 27.199C16.5144 27.0254 16.7521 26.9279 17 26.9279C17.2479 26.9279 17.4856 27.0254 17.6609 27.199C17.8362 27.3725 17.9347 27.6078 17.9347 27.8533V29.6165L19.477 28.735C19.6916 28.613 19.9463 28.5802 20.1853 28.6439C20.4243 28.7075 20.628 28.8624 20.7518 29.0746C20.8756 29.2868 20.9092 29.5389 20.8455 29.7757C20.7817 30.0124 20.6257 30.2145 20.4116 30.3375L18.8689 31.2192L20.4116 32.101ZM30.6116 32.101C30.7182 32.1616 30.8116 32.2424 30.8866 32.3388C30.9616 32.4352 31.0166 32.5454 31.0486 32.6628C31.0805 32.7803 31.0887 32.9029 31.0727 33.0236C31.0568 33.1442 31.0169 33.2606 30.9554 33.3659C30.894 33.4713 30.8121 33.5636 30.7146 33.6376C30.617 33.7116 30.5057 33.7659 30.3869 33.7972C30.2682 33.8286 30.1443 33.8364 30.0225 33.8204C29.9007 33.8043 29.7833 33.7645 29.677 33.7035L28.1347 32.8219V34.5852C28.1347 34.8306 28.0362 35.066 27.8609 35.2395C27.6856 35.413 27.4479 35.5105 27.2 35.5105C26.9521 35.5105 26.7144 35.413 26.5391 35.2395C26.3638 35.066 26.2653 34.8306 26.2653 34.5852V32.8219L24.7231 33.7035C24.5085 33.8255 24.2537 33.8583 24.0147 33.7946C23.7757 33.7309 23.572 33.576 23.4482 33.3638C23.3245 33.1516 23.2908 32.8995 23.3546 32.6628C23.4183 32.426 23.5744 32.224 23.7884 32.101L25.3311 31.2192L23.7884 30.3375C23.5744 30.2145 23.4183 30.0124 23.3546 29.7757C23.2908 29.5389 23.3245 29.2868 23.4482 29.0746C23.572 28.8624 23.7757 28.7075 24.0147 28.6439C24.2537 28.5802 24.5085 28.613 24.7231 28.735L26.2653 29.6165V27.8533C26.2653 27.6078 26.3638 27.3725 26.5391 27.199C26.7144 27.0254 26.9521 26.9279 27.2 26.9279C27.4479 26.9279 27.6856 27.0254 27.8609 27.199C28.0362 27.3725 28.1347 27.6078 28.1347 27.8533V29.6165L29.677 28.735C29.8916 28.613 30.1463 28.5802 30.3853 28.6439C30.6243 28.7075 30.828 28.8624 30.9518 29.0746C31.0756 29.2868 31.1092 29.5389 31.0455 29.7757C30.9817 30.0124 30.8257 30.2145 30.6116 30.3375L29.0689 31.2192L30.6116 32.101Z" fill="#143A62"/>
<path d="M7.73457 11.0232C7.73457 8.59051 8.71074 6.25742 10.4483 4.53723C12.1859 2.81703 14.5426 1.85063 16.9999 1.85063C19.4572 1.85063 21.8139 2.81703 23.5515 4.53723C25.2891 6.25742 26.2652 8.59051 26.2652 11.0232V17.5867H28.1346V11.0232C28.1346 8.0997 26.9615 5.29589 24.8733 3.22863C22.7852 1.16137 19.953 0 16.9999 0C14.0468 0 11.2147 1.16137 9.1265 3.22863C7.03835 5.29589 5.86523 8.0997 5.86523 11.0232V17.5867H7.73457V11.0232Z" fill="#143A62"/>
</svg>
