<svg width="558" height="329" viewBox="0 0 558 329" fill="none" xmlns="http://www.w3.org/2000/svg">
<path d="M186.853 53.4836C186.853 53.4836 237.027 91.5504 313.303 20.3723C381.044 -42.8391 436.356 56.8944 436.743 104.655C437.245 166.524 369.002 216.028 402.12 256.664C435.238 297.301 336.442 364.405 283.196 306.331C216.96 234.088 199.016 292.785 161.262 292.785C134.165 292.785 78.5329 225.472 116.101 175.392C147.713 133.251 130.472 119.265 122.123 104.655C110.079 83.5844 138.681 26.3929 186.853 53.4836Z" fill="#DEE9FF"/>
<path d="M443.44 137.604C446.137 138.606 449.084 138.673 451.888 138.029C463.637 135.333 504.033 128.195 497.013 159.491C495.484 165.7 471.825 200.474 505.518 213.168C507.987 214.11 510.599 214.624 513.24 214.689C523.614 214.902 544.171 212.454 552.775 203.697C563.168 193.12 551.813 198.136 551.813 198.136C551.813 198.136 512.301 215.375 498.344 197.085C496.791 195.05 495.802 192.095 495.519 189.55C495.027 185.139 496.987 179.309 499.561 174.234C503.044 167.366 519.768 136.469 483.458 127.468C475.094 125.477 462.945 123.688 447.28 130.281C438.143 134.127 440.167 136.388 443.44 137.604Z" fill="#BDD6F9"/>
<path d="M451.526 126.07L441.009 130.005C437.379 131.364 435.537 135.407 436.896 139.037L437.417 140.429C438.776 144.059 442.82 145.9 446.451 144.542L456.967 140.607C460.598 139.248 462.439 135.205 461.081 131.575L460.559 130.182C459.201 126.553 455.156 124.712 451.526 126.07Z" fill="#0E84E5"/>
<path d="M386.971 137.457L352.287 150.435C350.472 151.114 349.551 153.136 350.23 154.951L350.367 155.316C351.046 157.131 353.068 158.051 354.884 157.372L389.568 144.394C391.383 143.715 392.304 141.693 391.624 139.878L391.488 139.513C390.808 137.698 388.786 136.778 386.971 137.457Z" fill="white"/>
<path d="M396.653 163.316L361.968 176.295C360.153 176.974 359.232 178.996 359.912 180.81L360.048 181.175C360.728 182.99 362.75 183.911 364.565 183.232L399.249 170.253C401.065 169.574 401.985 167.552 401.306 165.738L401.169 165.373C400.49 163.558 398.468 162.637 396.653 163.316Z" fill="white"/>
<path d="M428.673 119.81L400.563 130.328C396.932 131.687 395.091 135.73 396.449 139.36L406.047 164.998C407.406 168.628 411.45 170.469 415.081 169.111L443.191 158.592C446.822 157.234 448.663 153.19 447.305 149.56L437.707 123.922C436.348 120.293 432.304 118.451 428.673 119.81Z" fill="#5895F9"/>
<path d="M403.465 126.535L375.355 137.054C371.724 138.412 369.883 142.456 371.241 146.086L382.692 176.673C384.05 180.303 388.095 182.144 391.725 180.785L419.836 170.267C423.466 168.908 425.308 164.865 423.949 161.235L412.499 130.648C411.14 127.018 407.096 125.177 403.465 126.535Z" fill="#699CFF"/>
<path d="M407.867 120.33L407.647 120.412C405.227 121.318 403.999 124.013 404.905 126.433L420.945 169.283C421.851 171.702 424.547 172.93 426.968 172.024L427.188 171.942C429.608 171.036 430.836 168.34 429.93 165.921L413.89 123.071C412.984 120.651 410.288 119.424 407.867 120.33Z" fill="#208AF2"/>
<path d="M8.07285 147.726C8.07285 147.726 64.5287 131.864 56.3323 168.409C54.9089 174.192 34.4191 203.966 58.8255 218.261C64.0662 221.33 70.114 222.69 76.1873 222.658C87.0764 222.602 104.339 220.506 112.094 212.615C122.487 202.037 111.133 207.053 111.133 207.053C111.133 207.053 78.7094 220.387 62.0287 209.758C56.333 206.129 53.7512 199.102 55.2979 192.528C56.0885 189.263 57.2923 186.112 58.8803 183.151C62.508 176.358 79.0877 145.386 42.7774 136.385C34.413 134.394 22.2643 132.605 6.59962 139.198C-9.06502 145.792 8.07285 147.726 8.07285 147.726Z" fill="#BDD6F9"/>
<path d="M119.685 198.876L109.168 202.811C105.538 204.169 103.696 208.213 105.055 211.843L105.576 213.235C106.935 216.865 110.979 218.706 114.61 217.348L125.127 213.412C128.757 212.054 130.599 208.01 129.24 204.381L128.719 202.988C127.36 199.358 123.315 197.517 119.685 198.876Z" fill="#0E84E5"/>
<path d="M137.454 181.575L121.867 187.408C118.237 188.766 116.395 192.81 117.754 196.439L125.27 216.516C126.629 220.146 130.673 221.987 134.303 220.629L149.89 214.797C153.52 213.438 155.362 209.394 154.003 205.765L146.487 185.688C145.129 182.058 141.084 180.217 137.454 181.575Z" fill="#5895F9"/>
<path d="M163.401 166.117L140.157 174.815C136.527 176.173 134.685 180.217 136.044 183.846L147.494 214.434C148.853 218.063 152.898 219.905 156.528 218.546L179.772 209.849C183.402 208.49 185.244 204.447 183.885 200.817L172.435 170.23C171.076 166.6 167.032 164.759 163.401 166.117Z" fill="#699CFF"/>
<path d="M168.325 159.784L168.105 159.866C165.685 160.772 164.457 163.467 165.363 165.887L181.403 208.737C182.309 211.156 185.005 212.384 187.426 211.478L187.646 211.396C190.066 210.49 191.294 207.794 190.388 205.375L174.348 162.525C173.442 160.105 170.746 158.878 168.325 159.784Z" fill="#208AF2"/>
<path d="M285.679 102.32C284.842 102.227 284.074 101.813 283.536 101.165C282.998 100.517 282.732 99.686 282.795 98.8463L284.529 67.1752C284.633 65.2834 286.231 63.846 288.044 64.0132L290.571 64.2471C292.384 64.4144 293.683 66.1184 293.429 67.9969L289.167 99.4341C289.069 100.272 288.652 101.039 288.002 101.576C287.353 102.114 286.521 102.38 285.679 102.32Z" fill="#418DF9"/>
<path d="M270.705 105.051C270.444 105.127 270.171 105.152 269.902 105.123C269.632 105.094 269.37 105.012 269.132 104.882C268.894 104.752 268.684 104.576 268.513 104.365C268.343 104.154 268.216 103.911 268.14 103.651L261.946 83.9496C261.766 83.3894 261.816 82.7805 262.084 82.2567C262.353 81.7329 262.818 81.3369 263.378 81.1556L264.981 80.6719C265.256 80.5916 265.545 80.5692 265.829 80.6062C266.114 80.6431 266.387 80.7385 266.633 80.8864C266.878 81.0344 267.09 81.2316 267.256 81.4656C267.421 81.6996 267.536 81.9654 267.593 82.2461L272.184 102.431C272.312 102.974 272.231 103.545 271.956 104.03C271.682 104.515 271.235 104.88 270.705 105.051Z" fill="#418DF9"/>
<path d="M262.347 116.413C261.237 117.787 259.005 117.771 257.288 116.375L226.786 91.5995C224.965 90.1195 224.427 87.6698 225.604 86.2126L227.245 84.1804C228.422 82.7225 230.84 82.842 232.564 84.4433L261.425 111.252C263.05 112.761 263.457 115.038 262.347 116.413Z" fill="#418DF9"/>
<path d="M276.446 238.184C277.232 238.488 277.869 239.084 278.223 239.848C278.578 240.612 278.623 241.483 278.347 242.279L268.58 272.456C267.997 274.259 266.085 275.239 264.374 274.616L261.99 273.745C260.28 273.12 259.459 271.14 260.185 269.39L272.336 240.083C272.644 239.298 273.244 238.663 274.01 238.309C274.775 237.955 275.648 237.91 276.446 238.184Z" fill="#418DF9"/>
<path d="M291.622 239.368C291.894 239.36 292.164 239.407 292.417 239.503C292.671 239.6 292.903 239.746 293.1 239.933C293.297 240.119 293.455 240.343 293.566 240.59C293.677 240.838 293.738 241.105 293.745 241.376L294.7 262.006C294.731 262.593 294.528 263.169 294.135 263.607C293.741 264.045 293.19 264.309 292.603 264.342L290.928 264.4C290.642 264.407 290.357 264.355 290.092 264.247C289.826 264.139 289.586 263.976 289.387 263.771C289.187 263.565 289.033 263.32 288.932 263.052C288.832 262.783 288.789 262.497 288.805 262.211L289.524 241.523C289.539 240.966 289.763 240.435 290.152 240.036C290.541 239.636 291.066 239.398 291.622 239.368Z" fill="#418DF9"/>
<path d="M302.604 230.518C304.029 229.472 306.182 230.058 307.486 231.846L330.647 263.587C332.031 265.483 331.925 267.988 330.413 269.097L328.308 270.643C326.797 271.752 324.49 271.019 323.232 269.03L302.176 235.742C300.992 233.868 301.18 231.563 302.604 230.518Z" fill="#418DF9"/>
</svg>
