<svg width="440" height="603" viewBox="0 0 440 603" fill="none" xmlns="http://www.w3.org/2000/svg">
<g clip-path="url(#clip0_3010_848)">
<rect width="440" height="603" rx="20" fill="#143A62" fill-opacity="0.02"/>
<g opacity="0.15">
<path d="M210.166 -98.626L213.223 -83.7538L31.0663 -46.029L80.4533 194.861L65.6409 197.918L62.5843 183.032L13.2114 -57.8387L195.354 -95.5635L210.166 -98.626Z" fill="#7D75FF"/>
<path d="M195.351 -95.5648L13.2087 -57.84L62.5815 183.031L47.7692 186.107L-4.66504 -69.6686L192.308 -110.451L195.351 -95.5648Z" fill="#313553"/>
<path d="M58.5658 294.312L58.3869 294.459C58.2117 294.224 57.987 294.03 57.7289 293.892C57.4703 293.754 57.1849 293.675 56.8929 293.661C56.6009 293.647 56.3094 293.698 56.039 293.811C55.7687 293.923 55.5266 294.094 55.3302 294.312C54.0864 296.871 53.3276 299.64 53.0931 302.477C46.7019 348.978 43.3018 395.838 42.9152 442.778C43.1224 453.594 43.9796 460.723 45.7128 461.683C46.7937 462.436 48.1261 462.725 49.4194 462.493L49.4853 462.706C44.6625 465.929 31.7906 467.553 28.2912 457.324C27.427 449.031 27.3625 440.672 28.0981 432.365C29.7654 392.132 36.2885 316.398 39.8726 295.647C40.0643 293.841 40.5113 292.072 41.2008 290.393C45.0676 285.3 58.1137 288.23 58.5658 294.312Z" fill="#7D75FF"/>
<path d="M417.342 655.419C367.399 688.567 309.68 707.978 249.946 711.722C190.211 715.461 130.543 703.401 76.8908 676.743C23.2391 650.084 -22.5223 609.756 -55.8309 559.782C-89.1396 509.802 -108.832 451.927 -112.944 391.918" stroke="#313553" stroke-linecap="round" stroke-linejoin="round"/>
<path d="M379.146 600.61C341.868 625.356 299.117 640.531 254.642 644.801C210.168 649.075 165.331 642.311 124.063 625.11C82.7959 607.904 46.359 580.791 17.9495 546.139C-10.4601 511.486 -29.9747 470.353 -38.8818 426.356" stroke="#313553" stroke-linecap="round" stroke-linejoin="round"/>
<path d="M496.861 422.804C484.95 485.984 451.322 542.95 401.854 583.738" stroke="#313553" stroke-linecap="round" stroke-linejoin="round"/>
<path d="M412.147 169.708C428.307 184.362 442.667 200.898 454.931 218.968" stroke="#313553" stroke-linecap="round" stroke-linejoin="round"/>
<path d="M-15.1982 249.787C-2.6047 224.365 13.8259 201.053 33.5105 180.68" stroke="#313553" stroke-linecap="round" stroke-linejoin="round"/>
<path d="M396.028 68.2432C439.109 92.6015 476.467 125.998 505.555 166.162" stroke="#313553" stroke-linecap="round" stroke-linejoin="round"/>
<path d="M-73.9595 207.288C-52.0622 165.88 -22.0085 129.385 14.3728 100.025" stroke="#313553" stroke-linecap="round" stroke-linejoin="round"/>
<path d="M349.718 305.635C349.718 305.635 462.527 227.923 492.02 206.641C521.512 185.36 582.043 142.154 582.043 142.154" stroke="#313553" stroke-linecap="round" stroke-linejoin="round"/>
<path d="M431.462 449.688C431.462 449.688 475.522 427.139 495.562 409.422C515.603 391.705 650.986 301.757 650.986 301.757" stroke="#313553" stroke-linecap="round" stroke-linejoin="round"/>
<path d="M-243.881 318.136C-243.881 318.136 -35.011 415.643 -14.4527 418.057C-0.271529 419.751 27.634 432.342 27.634 432.342" stroke="#313553" stroke-linecap="round" stroke-linejoin="round"/>
<path d="M39.0093 295.479L26.0103 288.989L-163.95 161.724" stroke="#313553" stroke-linecap="round" stroke-linejoin="round"/>
<path d="M61.5631 305.291C61.2862 301.494 60.2039 297.799 58.3887 294.456C58.2135 294.221 57.9888 294.027 57.7307 293.889C57.4722 293.752 57.1868 293.673 56.8948 293.658C56.6028 293.645 56.3112 293.696 56.0408 293.808C55.7705 293.921 55.5284 294.092 55.332 294.31C54.0882 296.868 53.3294 299.637 53.0949 302.475C46.7037 348.975 43.3037 395.835 42.917 442.776C43.1242 453.592 43.9814 460.72 45.7146 461.681C46.7955 462.434 48.1279 462.722 49.4212 462.49C53.66 461.388 52.2895 450.894 52.2895 450.894" stroke="#313553" stroke-linecap="round" stroke-linejoin="round"/>
<path d="M58.5688 294.315C58.0978 288.233 45.0705 285.322 41.232 290.396C40.5425 292.075 40.0956 293.844 39.9039 295.65C36.3103 316.425 29.7872 392.154 28.1294 432.368C27.3937 440.675 27.4582 449.034 28.3225 457.327C31.803 467.556 44.6749 465.933 49.5166 462.709" stroke="#313553" stroke-linecap="round" stroke-linejoin="round"/>
<path d="M53.0996 302.477L61.4077 305.715C74.873 310.969 100.32 320.862 103.575 322.017C105.132 322.84 106.865 323.271 108.626 323.271C110.386 323.271 112.12 322.84 113.677 322.017C118.288 320.261 172.517 291.562 183.476 288.945C194.436 286.327 216.191 289.934 216.191 289.934" stroke="#313553" stroke-linecap="round" stroke-linejoin="round"/>
<path d="M42.917 442.772C42.917 442.772 47.0286 445.636 52.7558 449.508C57.9365 453.02 64.4596 457.346 70.4505 461.105C75.0214 464.12 79.7731 466.846 84.6788 469.274" stroke="#313553" stroke-linecap="round" stroke-linejoin="round"/>
<path d="M429.845 418.661C429.845 425.529 433.938 436.591 431.108 449.603C428.418 461.986 419.47 476.11 394.8 490.116" stroke="#313553" stroke-linecap="round" stroke-linejoin="round"/>
<path d="M371.876 316.639C365 312.029 357.497 308.432 349.603 305.966C343.985 304.096 338.225 302.69 332.38 301.753C307.644 297.782 256.552 276.131 236.224 282.152C229.357 284.232 222.655 286.837 216.184 289.943C205.305 295.036 195.758 300.565 185.57 304.143C169.609 309.757 155.122 307.102 150.751 330.546C146.38 353.99 147.03 382.783 142.641 402.308C142.077 404.684 142.061 407.16 142.594 409.545C145.89 424.219 170.339 429.979 186.366 409.645C196.528 397.21 202.028 381.586 201.909 365.492C201.876 360.953 201.366 356.433 200.387 352.002" stroke="#313553" stroke-linecap="round" stroke-linejoin="round"/>
<path d="M202.539 365.503C202.539 365.503 209.905 362.525 211.667 357.205C211.667 357.205 235.607 354.034 244.301 352.585C252.995 351.137 353.323 418.54 377.927 464.027" stroke="#313553" stroke-linecap="round" stroke-linejoin="round"/>
<path d="M377.927 464.017C384.064 472.258 389.226 481.185 393.309 490.628C395.98 497.562 396.997 504.165 393.78 507.99C382.688 521.243 369.124 517.343 359.606 506.329C359.135 505.794 358.664 505.221 358.193 504.639C348.622 492.356 324.066 462.37 324.066 462.37L303.573 449.59" stroke="#313553" stroke-linecap="round" stroke-linejoin="round"/>
<path d="M267.759 405.94C268.178 410.324 269.271 414.612 271 418.659C272.342 420.221 290.244 436.442 303.615 449.601C308.395 454.098 312.884 458.892 317.052 463.967C322.539 471.483 344.119 493.626 353.812 508.806C356.304 512.091 357.943 515.948 358.574 520.028C358.371 523.01 357.462 525.907 355.922 528.468C354.387 531.029 352.263 533.182 349.733 534.759C347.2 536.33 344.331 537.272 341.364 537.509C338.397 537.75 335.416 537.272 332.67 536.122C332.331 535.98 332.001 535.805 331.695 535.601C323.49 530.494 283.104 494.085 276.835 488.149L276.807 488.116" stroke="#313553" stroke-linecap="round" stroke-linejoin="round"/>
<path d="M330.585 537.247C330.166 539.458 329.238 541.535 327.882 543.32C326.521 545.109 324.764 546.548 322.753 547.533C319.894 549.336 316.696 550.524 313.357 551.026C310.017 551.523 306.612 551.319 303.358 550.425C300.438 549.005 297.621 547.376 294.927 545.564" stroke="#313553" stroke-linecap="round" stroke-linejoin="round"/>
<path d="M303.355 550.423C297.623 557.561 289.786 562.687 280.969 565.068C279.114 565.74 277.135 565.996 275.171 565.825C273.203 565.65 271.3 565.049 269.59 564.06" stroke="#313553" stroke-linecap="round" stroke-linejoin="round"/>
<path d="M244.296 352.584C244.296 352.584 251.615 345.295 251.615 341.148" stroke="#313553" stroke-linecap="round" stroke-linejoin="round"/>
<path d="M211.672 357.203C212.322 353.785 212.322 350.273 211.672 346.855" stroke="#313553" stroke-linecap="round" stroke-linejoin="round"/>
<path d="M142.212 408.044C142.209 408.578 142.337 409.099 142.584 409.572C145.514 415.527 166.058 413.605 172.647 403.684C179.749 392.963 171.074 378.711 171.074 378.711" stroke="#313553" stroke-linecap="round" stroke-linejoin="round"/>
<path d="M146.581 374.833C146.581 374.833 151.856 374.426 158.826 373.612" stroke="#313553" stroke-linecap="round" stroke-linejoin="round"/>
<path d="M375.583 508.804C380.402 507.374 384.829 504.847 388.517 501.415" stroke="#313553" stroke-linecap="round" stroke-linejoin="round"/>
<path d="M359.623 506.33C359.623 506.33 353.924 508.981 353.811 508.806" stroke="#313553" stroke-linecap="round" stroke-linejoin="round"/>
<path d="M73.5309 475.822C76.9314 473.237 80.7242 471.221 84.7638 469.853C85.7604 469.555 86.7871 469.37 87.8252 469.299C94.1551 468.939 106.146 467.671 114.177 479.807C117.674 485.454 119.095 492.152 118.194 498.741C117.819 501.297 116.809 503.711 115.258 505.77C113.707 507.829 111.665 509.462 109.321 510.517C104.734 512.619 99.8884 514.096 94.9134 514.91C83.8595 516.779 72.3629 515.771 67.314 510.777C58.8364 502.366 49.7182 483.04 69.5182 462.625" stroke="#313553" stroke-linecap="round" stroke-linejoin="round"/>
<path d="M155.331 495.235C151.591 497.971 148.482 500.295 146.556 501.73" stroke="#313553" stroke-linecap="round" stroke-linejoin="round"/>
<path d="M94.9121 514.894C94.9121 514.894 101.115 539.328 114.109 542.712C126.026 546.575 138.519 548.335 151.034 547.919C157.617 547.422 164.043 545.656 169.958 542.712C169.958 542.712 213.147 519.519 219.637 508.826C223.019 503.908 224.695 498.006 224.413 492.037C224.003 488.094 222.326 484.397 219.637 481.496C209.714 470.301 196.262 469.748 183.602 476.597C173.831 482.239 164.404 488.468 155.372 495.241" stroke="#313553" stroke-linecap="round" stroke-linejoin="round"/>
<path d="M155.363 495.247H155.349L118.504 498.792" stroke="#313553" stroke-linecap="round" stroke-linejoin="round"/>
<path d="M184.469 493.283C181.401 496.928 179.731 501.552 179.76 506.328C179.988 508.335 180.704 510.257 181.845 511.923C182.985 513.589 184.516 514.948 186.302 515.88C188.087 516.813 190.073 517.291 192.085 517.272C194.097 517.253 196.074 516.732 197.841 515.767C206.21 511.114 219.614 501.694 215.926 493.283" stroke="#313553" stroke-linecap="round" stroke-linejoin="round"/>
<path d="M190.225 488.129C193.149 485.521 196.716 483.75 200.553 483.002C203.252 482.884 205.894 483.798 207.952 485.558" stroke="#313553" stroke-linecap="round" stroke-linejoin="round"/>
<path d="M267.691 479.345C257.07 473.277 245.447 475.559 235.41 483.444C224.337 492.182 229.193 487.023 224.403 492.035C224.304 492.135 224.21 492.248 224.097 492.362" stroke="#313553" stroke-linecap="round" stroke-linejoin="round"/>
<path d="M151.049 548.146C153.614 556.358 159.303 563.226 166.878 567.245C174.829 571.003 180.005 576.47 202.117 567.212C212.813 562.502 223.179 557.064 233.136 550.929C233.136 550.929 267.988 523.679 275.43 510.975C275.793 510.369 276.108 509.735 276.372 509.082C277.983 505.844 278.863 502.294 278.943 498.673C279.024 495.057 278.308 491.464 276.843 488.16C275.59 485.822 273.866 483.768 271.78 482.139C270.518 481.117 269.175 480.203 267.762 479.408" stroke="#313553" stroke-linecap="round" stroke-linejoin="round"/>
<path d="M239.088 499.744C236.695 503.866 235.838 508.709 236.676 513.409C237.241 515.349 238.273 517.12 239.676 518.563C241.085 520.012 242.822 521.086 244.739 521.702C246.651 522.312 248.691 522.445 250.669 522.085C252.647 521.72 254.507 520.878 256.085 519.624C263.564 513.608 275.169 502.039 270.12 494.376" stroke="#313553" stroke-linecap="round" stroke-linejoin="round"/>
<path d="M243.879 493.661C246.319 490.598 249.535 488.251 253.185 486.859C255.828 486.281 258.592 486.731 260.924 488.113" stroke="#313553" stroke-linecap="round" stroke-linejoin="round"/>
<path d="M202.577 568.279C203.481 571.341 205.068 574.162 207.211 576.519C209.359 578.881 212.006 580.723 214.959 581.911C224.491 586.417 236.308 582.919 262.956 567.19C262.956 567.19 264.685 565.988 267.388 564.019C275.527 558.215 283.289 551.892 290.617 545.085C292.793 543.064 294.719 540.783 296.349 538.298C302.472 527.922 302.26 521.494 295.506 516.093C292.967 513.679 289.845 511.98 286.449 511.161C283.048 510.342 279.497 510.432 276.148 511.426" stroke="#313553" stroke-linecap="round" stroke-linejoin="round"/>
<path d="M268.893 527.218C267.042 530.404 266.382 534.148 267.032 537.778C267.466 539.279 268.266 540.651 269.35 541.773C270.438 542.895 271.785 543.728 273.268 544.206C274.752 544.679 276.33 544.784 277.86 544.5C279.391 544.22 280.832 543.562 282.052 542.592C287.831 537.939 296.817 528.993 292.884 523.053" stroke="#313553" stroke-linecap="round" stroke-linejoin="round"/>
<path d="M272.607 522.508C274.501 520.136 276.997 518.319 279.828 517.249C281.872 516.799 284.005 517.149 285.8 518.229" stroke="#313553" stroke-linecap="round" stroke-linejoin="round"/>
<path d="M251.622 458.74L257.043 469.135L267.696 479.349L267.757 479.401" stroke="#313553" stroke-linecap="round" stroke-linejoin="round"/>
<path d="M109.314 510.489C104.611 508.321 100.321 505.343 96.6396 501.689C94.1378 498.414 92.4055 494.618 91.5719 490.575C91.3948 489.662 90.9846 488.81 90.3813 488.105C89.7779 487.399 89.0022 486.864 88.1305 486.552C87.2587 486.235 86.3205 486.159 85.4087 486.32C84.4968 486.481 83.6425 486.879 82.9294 487.47C80.6631 489.155 79.0763 491.603 78.4598 494.367C77.7458 497.543 78.1146 500.866 79.5059 503.8C80.8972 506.74 83.2309 509.125 86.1321 510.569" stroke="#313553" stroke-linecap="round" stroke-linejoin="round"/>
<path d="M247.652 175.736L83.492 209.721L80.4495 194.854L31.0625 -46.0358L213.219 -83.7606L228.017 -86.8184L273.858 136.709" stroke="#313553" stroke-width="0.258738" stroke-linecap="round" stroke-linejoin="round"/>
<path d="M80.4533 194.861L65.6409 197.918L62.5843 183.032L13.2114 -57.8387L195.354 -95.5635L210.166 -98.626L213.223 -83.7538V-83.7396" stroke="#313553" stroke-width="0.258738" stroke-linecap="round" stroke-linejoin="round"/>
<path d="M62.5815 183.031L47.7692 186.107L-4.66504 -69.6686L192.308 -110.451L195.351 -95.5648" stroke="#313553" stroke-width="0.258738" stroke-linecap="round" stroke-linejoin="round"/>
<path d="M82.8799 9.75331L217.175 -18.0693" stroke="#313553" stroke-width="0.258738" stroke-linecap="round" stroke-linejoin="round"/>
<path d="M71.1235 27.7046L220.226 -3.17578" stroke="#313553" stroke-width="0.258738" stroke-linecap="round" stroke-linejoin="round"/>
<path d="M74.1655 42.5817L223.268 11.7061" stroke="#313553" stroke-width="0.258738" stroke-linecap="round" stroke-linejoin="round"/>
<path d="M77.2324 57.4765L181.903 35.793" stroke="#313553" stroke-width="0.258738" stroke-linecap="round" stroke-linejoin="round"/>
<path d="M95.0835 69.2793L229.374 41.4756" stroke="#313553" stroke-width="0.258738" stroke-linecap="round" stroke-linejoin="round"/>
<path d="M83.3345 87.2306L232.437 56.3691" stroke="#313553" stroke-width="0.258738" stroke-linecap="round" stroke-linejoin="round"/>
<path d="M86.376 102.108L235.479 71.2324" stroke="#313553" stroke-width="0.258738" stroke-linecap="round" stroke-linejoin="round"/>
<path d="M104.234 113.944L238.544 86.126" stroke="#313553" stroke-width="0.258738" stroke-linecap="round" stroke-linejoin="round"/>
<path d="M92.4785 131.882L241.581 101.007" stroke="#313553" stroke-width="0.258738" stroke-linecap="round" stroke-linejoin="round"/>
<path d="M95.5322 146.77L244.635 115.895" stroke="#313553" stroke-width="0.258738" stroke-linecap="round" stroke-linejoin="round"/>
<path d="M143.14 175.696L158.343 172.557L176.405 168.813L213.928 161.036L221.054 159.555L233.017 157.084" stroke="#313553" stroke-width="0.258738" stroke-linecap="round" stroke-linejoin="round"/>
<path d="M187.361 152.74C186.89 154.467 183.975 165.335 187.992 165.449C192.33 165.577 202.22 140.509 202.22 140.509C202.22 140.509 197.379 160.862 203.238 161.283C209.097 161.705 208.244 146.804 213.326 145.422C216.901 144.442 213.938 155.083 213.938 161.042C213.938 163.598 214.489 165.302 216.321 164.829C218.601 164.261 219.976 162.098 221.064 159.556C222.844 155.296 223.862 149.99 227.036 149.194" stroke="#313553" stroke-width="0.258738" stroke-linecap="round" stroke-linejoin="round"/>
<path d="M168.52 160.056C170.592 165.116 173.7 169.05 176.319 168.434C182.277 166.986 186.714 154.574 187.345 152.733C187.356 152.679 187.372 152.625 187.392 152.572V152.525" stroke="#313553" stroke-width="0.258738" stroke-linecap="round" stroke-linejoin="round"/>
<path d="M168.522 160.058C173.326 150.946 175.983 140.259 170.237 141.74C164.66 143.189 165.551 152.769 168.522 160.058Z" stroke="#313553" stroke-width="0.258738" stroke-linecap="round" stroke-linejoin="round"/>
<path d="M158.232 172.011C161.453 171.135 165.433 165.929 168.528 160.055" stroke="#313553" stroke-width="0.258738" stroke-linecap="round" stroke-linejoin="round"/>
<path d="M133.863 157.975L126.416 169.344L118.97 180.699" stroke="#313553" stroke-width="0.258738" stroke-linecap="round" stroke-linejoin="round"/>
<path d="M115.093 161.865L126.41 169.349L137.709 176.818" stroke="#313553" stroke-width="0.258738" stroke-linecap="round" stroke-linejoin="round"/>
<path opacity="0.2" d="M386 50.1057C386 37.582 369.45 28.1396 347.5 28.1396C325.55 28.1396 309 37.582 309 50.1057C309 50.2169 309.024 50.3221 309.027 50.4318H309V67.1509H320V65.7703C326.883 69.7035 336.514 72.0687 347.5 72.0687C357.635 72.0687 366.589 70.0373 373.324 66.6374C374.367 67.7316 375 68.8197 375 69.7736C375 74.0788 364.032 80.5906 347.5 80.5906H336.503V91.7366H347.5C357.636 91.7366 366.594 89.7052 373.328 86.3038C374.373 87.3965 374.999 88.4846 374.999 89.4431C374.999 93.7513 364.031 100.263 347.498 100.263L343.605 100.281C341.212 100.303 338.895 100.326 336.636 100.265L336.367 111.406C337.576 111.437 338.8 111.447 340.048 111.447C341.241 111.447 342.454 111.44 343.688 111.429L347.498 111.411C357.641 111.411 366.601 109.376 373.337 105.972C374.385 107.074 374.997 108.168 374.997 109.114C374.997 113.422 364.029 119.934 347.497 119.934H336.5V131.08H347.497C357.639 131.08 366.598 129.046 373.336 125.641C374.385 126.742 374.997 127.836 374.997 128.784C374.997 133.092 364.029 139.604 347.497 139.604H336.5V150.75H347.497C369.447 150.75 385.997 141.307 385.997 128.784C385.997 128.68 385.983 128.563 385.98 128.457H385.997V50.4318H385.97C385.974 50.3221 386 50.2154 386 50.1057ZM320 50.1057C320 45.7975 330.968 39.2857 347.5 39.2857C364.032 39.2857 375 45.7975 375 50.1057C375 54.4108 364.032 60.9226 347.5 60.9226C330.968 60.9226 320 54.4108 320 50.1057Z" fill="#0F1F3C"/>
<path opacity="0.2" d="M292 67.335C269.765 67.335 253 76.7936 253 89.339C253 89.4504 253.024 89.5558 253.027 89.6657H253V128.746C253 141.291 269.765 150.75 292 150.75C314.235 150.75 331 141.291 331 128.746V89.6672H330.973C330.976 89.5573 331 89.4504 331 89.3405C331 76.7951 314.235 67.335 292 67.335ZM264.142 109.044C264.142 108.079 264.772 106.991 265.83 105.896C272.654 109.305 281.729 111.341 292 111.341C302.266 111.341 311.337 109.307 318.159 105.901C319.216 106.997 319.858 108.087 319.858 109.042C319.858 113.355 308.747 119.878 292 119.878C275.253 119.878 264.142 113.357 264.142 109.044ZM292 78.5018C308.747 78.5018 319.858 85.0249 319.858 89.3405C319.858 93.6531 308.747 100.176 292 100.176C275.253 100.176 264.142 93.6531 264.142 89.3405C264.142 85.0249 275.253 78.5018 292 78.5018ZM292 139.586C275.253 139.586 264.142 133.063 264.142 128.747C264.142 127.787 264.778 126.697 265.835 125.603C272.658 129.01 281.731 131.046 292 131.046C302.268 131.046 311.342 129.012 318.164 125.604C319.222 126.699 319.856 127.789 319.856 128.749C319.858 133.063 308.747 139.586 292 139.586Z" fill="#0F1F3C"/>
</g>
</g>
<defs>
<clipPath id="clip0_3010_848">
<rect width="440" height="603" rx="20" fill="white"/>
</clipPath>
</defs>
</svg>
