<svg width="1370" height="600" viewBox="0 0 1370 600" fill="none" xmlns="http://www.w3.org/2000/svg">
<g clip-path="url(#clip0_4095_13563)">
<rect width="1370" height="600" rx="20" fill="white"/>
<g opacity="0.2">
<circle cx="187.5" cy="176.5" r="102.5" fill="#143A62"/>
<circle cx="255.5" cy="299.5" r="134.5" fill="#FF8832"/>
<circle cx="381.5" cy="391.5" r="155.5" fill="#00B6FF"/>
<circle cx="497.5" cy="345.5" r="137.5" fill="#143A62"/>
<circle cx="611.5" cy="278.5" r="113.5" fill="#FF8832"/>
<circle cx="748.5" cy="267.5" r="155.5" fill="#143A62"/>
<circle cx="904.5" cy="267.5" r="133.5" fill="#00B6FF"/>
<circle cx="1089.5" cy="324.5" r="159.5" fill="#FF8832"/>
</g>
<rect width="1370" height="600" fill="white" fill-opacity="0.1"/>
<g opacity="0.15">
<path d="M34.9011 54.5066L46.1123 61.0392L-34.3564 198.991L147.165 304.881L140.615 316.093L129.395 309.552L-52.1063 203.664L28.3544 65.7214L34.9011 54.5066Z" fill="#7D75FF"/>
<path d="M28.3525 65.723L-52.1081 203.666L129.393 309.554L122.855 320.776L-69.8808 208.34L17.1404 59.1732L28.3525 65.723Z" fill="#313553"/>
<path d="M197.862 375.62L197.853 375.818C197.603 375.795 197.35 375.828 197.115 375.915C196.879 376.001 196.665 376.139 196.488 376.317C196.312 376.496 196.178 376.711 196.094 376.949C196.011 377.185 195.981 377.438 196.007 377.688C196.92 379.942 198.246 382.007 199.916 383.777C225.824 414.395 253.676 443.308 283.307 470.34C290.305 476.379 295.33 479.899 296.935 479.339C298.033 479.078 298.981 478.391 299.575 477.432L299.749 477.511C299.033 482.433 292.684 491.587 284.172 487.987C278.402 483.807 273.049 479.078 268.188 473.868C243.556 449.845 199.133 402.461 187.991 388.329C186.952 387.176 186.084 385.881 185.411 384.482C184.39 379.104 193.735 372.438 197.862 375.62Z" fill="#7D75FF"/>
<path d="M633.262 352.359C625.703 403.195 604.948 451.162 573.074 491.478C541.195 531.792 499.308 563.047 451.586 582.127C403.865 601.207 351.974 607.444 301.09 600.217C250.203 592.987 202.104 572.549 161.581 540.936" stroke="#313553" stroke-linecap="round" stroke-linejoin="round"/>
<path d="M545.25 96.4239C575.662 125.347 599.514 160.461 615.195 199.39C630.877 238.324 638.02 280.166 636.145 322.094" stroke="#313553" stroke-linecap="round" stroke-linejoin="round"/>
<path d="M576.502 345.498C570.862 383.445 555.997 419.428 533.207 450.29C510.421 481.156 480.407 505.953 445.802 522.515C411.194 539.073 373.055 546.891 334.725 545.276C296.395 543.66 259.045 532.662 225.956 513.25" stroke="#313553" stroke-linecap="round" stroke-linejoin="round"/>
<path d="M530.927 168.801C564.278 212.466 581.222 266.465 578.794 321.356" stroke="#313553" stroke-linecap="round" stroke-linejoin="round"/>
<path d="M321.384 78.5254C339.97 76.5586 358.722 76.8162 377.247 79.2884" stroke="#313553" stroke-linecap="round" stroke-linejoin="round"/>
<path d="M127.244 397.359C118.298 374.804 112.896 351 111.227 326.793" stroke="#313553" stroke-linecap="round" stroke-linejoin="round"/>
<path d="M247.612 30.9316C287.809 17.2958 330.472 12.4748 372.696 16.8014" stroke="#313553" stroke-linecap="round" stroke-linejoin="round"/>
<path d="M66.5178 410.666C52.7412 373.043 46.7661 333.01 48.9575 293.003" stroke="#313553" stroke-linecap="round" stroke-linejoin="round"/>
<path d="M372.029 195.989C372.029 195.989 387.298 79.5434 390.677 48.5497C394.056 17.556 401.29 -45.7862 401.29 -45.7862" stroke="#313553" stroke-linecap="round" stroke-linejoin="round"/>
<path d="M510.521 225.941C510.521 225.941 521.447 184.913 521.672 161.994C521.897 139.076 542.33 1.21996 542.33 1.21996" stroke="#313553" stroke-linecap="round" stroke-linejoin="round"/>
<path d="M39.5703 582.524C39.5703 582.524 221.362 504.663 234.687 492.901C243.897 484.804 267.908 474.152 267.908 474.152" stroke="#313553" stroke-linecap="round" stroke-linejoin="round"/>
<path d="M187.389 388.785L175.807 393.39L-14.0664 442.185" stroke="#313553" stroke-linecap="round" stroke-linejoin="round"/>
<path d="M206.564 379.969C203.99 377.979 201.02 376.563 197.853 375.816C197.603 375.793 197.351 375.826 197.115 375.913C196.879 376 196.665 376.137 196.489 376.315C196.313 376.494 196.178 376.71 196.094 376.946C196.011 377.184 195.981 377.436 196.007 377.686C196.921 379.941 198.247 382.006 199.917 383.775C225.825 414.394 253.677 443.306 283.308 470.338C290.305 476.377 295.33 479.897 296.935 479.337C298.034 479.076 298.981 478.389 299.576 477.43C301.305 474.092 293.845 468.98 293.845 468.98" stroke="#313553" stroke-linecap="round" stroke-linejoin="round"/>
<path d="M197.866 375.619C193.728 372.45 184.406 379.115 185.431 384.464C186.104 385.862 186.973 387.158 188.011 388.311C199.162 402.462 243.583 449.843 268.208 473.85C273.069 479.06 278.422 483.788 284.192 487.968C292.693 491.58 299.042 482.427 299.769 477.493" stroke="#313553" stroke-linecap="round" stroke-linejoin="round"/>
<path d="M199.92 383.772L206.744 380.31C217.807 374.701 238.692 364.082 241.292 362.661C242.709 362.135 243.977 361.273 244.987 360.148C245.997 359.023 246.717 357.669 247.086 356.203C248.613 352.254 261.46 301.218 266.081 292.72C270.701 284.221 285.47 272.375 285.47 272.375" stroke="#313553" stroke-linecap="round" stroke-linejoin="round"/>
<path d="M283.305 470.336C283.305 470.336 287.484 469.342 293.231 467.891C298.435 466.584 304.927 464.883 310.753 463.198C315.292 461.997 319.751 460.516 324.108 458.766" stroke="#313553" stroke-linecap="round" stroke-linejoin="round"/>
<path d="M489.861 209.27C494.229 213.189 503.611 216.886 510.263 226.12C516.596 234.904 520.447 248.683 515.207 272.443" stroke="#313553" stroke-linecap="round" stroke-linejoin="round"/>
<path d="M391.734 188.106C384.859 189.87 378.269 192.613 372.174 196.251C367.762 198.775 363.565 201.655 359.617 204.856C342.906 218.4 299.838 238.701 292.01 255.129C289.394 260.705 287.208 266.475 285.472 272.384C282.472 282.244 280.513 291.5 276.947 300.053C271.364 313.458 261.367 321.203 273.771 337.374C286.174 353.545 304.858 369.559 314.758 383.506C315.946 385.222 317.511 386.645 319.334 387.666C330.557 393.932 348.241 381.592 344.5 359.745C342.419 346.155 335.636 333.724 325.333 324.617C322.427 322.048 319.26 319.794 315.881 317.892" stroke="#313553" stroke-linecap="round" stroke-linejoin="round"/>
<path d="M325.702 324.221C325.702 324.221 328.033 317.814 325.66 313.652C325.66 313.652 337.372 296.541 341.436 290.158C345.501 283.774 445.902 258.11 488.941 268.34" stroke="#313553" stroke-linecap="round" stroke-linejoin="round"/>
<path d="M488.933 268.335C497.693 269.115 506.331 270.91 514.678 273.688C520.619 275.938 525.402 279.056 525.99 283.294C528.058 297.946 517.799 304.39 505.335 304.189C504.725 304.184 504.091 304.159 503.45 304.127C490.15 303.235 456.998 301.821 456.998 301.821L437.118 307.626" stroke="#313553" stroke-linecap="round" stroke-linejoin="round"/>
<path d="M388.82 305.609C391.848 307.843 395.202 309.591 398.767 310.796C400.53 310.829 421.113 308.643 437.149 307.605C442.75 307.116 448.374 306.983 453.991 307.214C461.918 307.996 488.376 306.838 503.588 309.305C507.106 309.587 510.499 310.741 513.456 312.665C515.237 314.496 516.558 316.73 517.303 319.176C518.051 321.618 518.203 324.205 517.755 326.721C517.301 329.237 516.255 331.608 514.704 333.639C513.156 335.674 511.142 337.306 508.836 338.405C508.551 338.541 508.251 338.651 507.946 338.731C499.993 341.061 453.677 346.098 446.308 346.718L446.27 346.717" stroke="#313553" stroke-linecap="round" stroke-linejoin="round"/>
<path d="M508.356 340.379C509.521 341.908 510.311 343.687 510.668 345.572C511.025 347.463 510.933 349.407 510.406 351.254C509.913 354.111 508.835 356.832 507.239 359.253C505.64 361.671 503.558 363.731 501.122 365.301C498.545 366.357 495.894 367.228 493.196 367.915" stroke="#313553" stroke-linecap="round" stroke-linejoin="round"/>
<path d="M501.121 365.303C502.373 373.04 501.139 380.974 497.597 387.968C496.96 389.537 495.989 390.947 494.754 392.105C493.514 393.264 492.04 394.137 490.43 394.665" stroke="#313553" stroke-linecap="round" stroke-linejoin="round"/>
<path d="M341.432 290.16C341.432 290.16 340.993 281.323 338.356 278.957" stroke="#313553" stroke-linecap="round" stroke-linejoin="round"/>
<path d="M325.661 313.647C323.86 311.282 321.626 309.278 319.08 307.743" stroke="#313553" stroke-linecap="round" stroke-linejoin="round"/>
<path d="M318.161 387.053C318.499 387.36 318.904 387.575 319.346 387.688C324.813 389.213 335.372 374.986 332.841 365.113C330.096 354.456 316.057 351.868 316.057 351.868" stroke="#313553" stroke-linecap="round" stroke-linejoin="round"/>
<path d="M299.544 365.31C299.544 365.31 302.31 361.706 305.79 356.787" stroke="#313553" stroke-linecap="round" stroke-linejoin="round"/>
<path d="M516.072 295.389C517.926 291.494 518.857 287.222 518.79 282.907" stroke="#313553" stroke-linecap="round" stroke-linejoin="round"/>
<path d="M505.347 304.179C505.347 304.179 503.764 309.334 503.588 309.306" stroke="#313553" stroke-linecap="round" stroke-linejoin="round"/>
<path d="M321.879 469.626C322.186 465.978 323.078 462.403 324.525 459.041C324.907 458.234 325.378 457.472 325.928 456.768C329.329 452.517 335.399 444.129 347.723 445.922C353.32 446.908 358.394 449.822 362.068 454.158C363.478 455.856 364.434 457.879 364.854 460.045C365.274 462.211 365.142 464.448 364.469 466.549C363.175 470.68 361.335 474.619 359 478.264C353.85 486.396 346.616 493.169 340.545 493.546C330.334 494.165 312.814 488.965 311.185 464.661" stroke="#313553" stroke-linecap="round" stroke-linejoin="round"/>
<path d="M381.135 428.421C380.731 432.372 380.426 435.685 380.234 437.735" stroke="#313553" stroke-linecap="round" stroke-linejoin="round"/>
<path d="M358.989 478.256C358.989 478.256 378.085 488.234 387.689 481.859C396.98 476.446 405.264 469.466 412.176 461.23C415.635 456.739 418.197 451.624 419.717 446.163C419.717 446.163 429.734 405.325 426.655 395.075C425.467 390.107 422.675 385.668 418.717 382.442C415.974 380.454 412.662 379.417 409.274 379.48C396.464 379.435 388.398 387.716 385.494 399.716C383.479 409.181 382.034 418.761 381.162 428.399" stroke="#313553" stroke-linecap="round" stroke-linejoin="round"/>
<path d="M381.162 428.408L381.154 428.417L362.279 453.99" stroke="#313553" stroke-linecap="round" stroke-linejoin="round"/>
<path d="M396.604 408.684C397.163 412.724 399.146 416.431 402.2 419.138C403.607 420.137 405.24 420.776 406.954 420.998C408.668 421.219 410.409 421.016 412.026 420.407C413.643 419.798 415.086 418.801 416.228 417.504C417.37 416.208 418.172 414.647 418.571 412.967C420.412 404.963 422.108 391.021 414.644 388.578" stroke="#313553" stroke-linecap="round" stroke-linejoin="round"/>
<path d="M396.626 402.064C396.645 398.706 397.564 395.416 399.289 392.537C400.761 390.745 402.858 389.577 405.158 389.266" stroke="#313553" stroke-linecap="round" stroke-linejoin="round"/>
<path d="M435.465 347.54C425.515 350.865 420.3 359.596 419.56 370.511C418.767 382.574 418.27 376.527 418.711 382.448C418.718 382.568 418.736 382.693 418.744 382.83" stroke="#313553" stroke-linecap="round" stroke-linejoin="round"/>
<path d="M412.33 461.35C419.024 464.396 426.654 464.679 433.554 462.13C440.503 459.194 446.948 459.005 453.741 439.588C456.88 430.065 459.366 420.336 461.174 410.472C461.174 410.472 463.831 372.646 460.018 360.641C459.841 360.063 459.619 359.5 459.354 358.958C458.219 356.081 456.466 353.493 454.21 351.375C451.956 349.261 449.26 347.668 446.319 346.719C444.114 346.186 441.819 346.115 439.587 346.52C438.212 346.743 436.862 347.08 435.546 347.529" stroke="#313553" stroke-linecap="round" stroke-linejoin="round"/>
<path d="M432.034 377.461C433.284 381.343 435.872 384.654 439.342 386.8C440.9 387.546 442.617 387.897 444.34 387.824C446.069 387.75 447.749 387.252 449.24 386.378C450.725 385.504 451.978 384.277 452.884 382.807C453.787 381.335 454.318 379.665 454.425 377.941C454.888 369.727 454.186 355.709 446.417 354.563" stroke="#313553" stroke-linecap="round" stroke-linejoin="round"/>
<path d="M430.914 370.927C430.365 367.62 430.717 364.224 431.925 361.097C433.073 359.079 434.944 357.568 437.16 356.867" stroke="#313553" stroke-linecap="round" stroke-linejoin="round"/>
<path d="M454.684 439.904C457.15 441.074 459.855 441.669 462.583 441.644C465.317 441.619 468.005 440.978 470.454 439.769C478.787 436.247 483.339 426.698 488.618 400.691C488.618 400.691 488.844 398.9 489.142 396.049C490.119 387.536 490.548 378.966 490.422 370.398C490.384 367.854 490.038 365.321 489.392 362.862C486.305 353.028 482.095 349.496 474.788 350.731C471.796 350.976 468.925 352.002 466.457 353.705C463.986 355.411 462.007 357.732 460.719 360.44" stroke="#313553" stroke-linecap="round" stroke-linejoin="round"/>
<path d="M466.6 374.089C467.564 377.089 469.567 379.647 472.249 381.303C473.452 381.883 474.784 382.154 476.118 382.102C477.456 382.047 478.758 381.661 479.913 380.986C481.065 380.307 482.036 379.358 482.733 378.218C483.433 377.08 483.841 375.784 483.924 374.45C484.279 368.102 483.742 357.253 477.709 356.377" stroke="#313553" stroke-linecap="round" stroke-linejoin="round"/>
<path d="M465.735 369.026C465.312 366.463 465.588 363.83 466.531 361.41C467.417 359.847 468.863 358.683 470.579 358.152" stroke="#313553" stroke-linecap="round" stroke-linejoin="round"/>
<path d="M413.145 346.053L422.864 348.519L435.469 347.538L435.538 347.529" stroke="#313553" stroke-linecap="round" stroke-linejoin="round"/>
<path d="M364.447 466.538C360.371 468.307 356.018 469.35 351.583 469.617C348.065 469.347 344.657 468.288 341.608 466.515C340.926 466.106 340.149 465.883 339.354 465.866C338.56 465.849 337.775 466.039 337.076 466.418C336.374 466.795 335.788 467.351 335.368 468.026C334.947 468.7 334.71 469.473 334.677 470.267C334.449 472.677 335.096 475.087 336.5 477.059C338.111 479.327 340.435 480.988 343.1 481.773C345.767 482.561 348.622 482.431 351.204 481.4" stroke="#313553" stroke-linecap="round" stroke-linejoin="round"/>
<path d="M230.885 187.102L158.358 311.418L147.158 304.879L-34.3632 198.99L46.1056 61.0378L52.6472 49.8347L221.093 148.084" stroke="#313553" stroke-width="0.258738" stroke-linecap="round" stroke-linejoin="round"/>
<path d="M147.165 304.88L140.615 316.093L129.395 309.552L-52.1063 203.664L28.3544 65.7214L34.9011 54.5066L46.1123 61.0392L46.1213 61.0473" stroke="#313553" stroke-width="0.258738" stroke-linecap="round" stroke-linejoin="round"/>
<path d="M129.393 309.554L122.855 320.776L-69.8808 208.34L17.1404 59.1733L28.3525 65.723" stroke="#313553" stroke-width="0.258738" stroke-linecap="round" stroke-linejoin="round"/>
<path d="M5.12967 190.22L64.4585 88.5223" stroke="#313553" stroke-width="0.258738" stroke-linecap="round" stroke-linejoin="round"/>
<path d="M30.8331 197.705L90.1526 95.9939" stroke="#313553" stroke-width="0.258738" stroke-linecap="round" stroke-linejoin="round"/>
<path d="M35.5082 215.463L101.375 102.542" stroke="#313553" stroke-width="0.258738" stroke-linecap="round" stroke-linejoin="round"/>
<path d="M46.7142 222.008L112.584 109.09" stroke="#313553" stroke-width="0.258738" stroke-linecap="round" stroke-linejoin="round"/>
<path d="M57.9454 228.547L104.18 149.273" stroke="#313553" stroke-width="0.258738" stroke-linecap="round" stroke-linejoin="round"/>
<path d="M75.6883 223.871L135.017 122.174" stroke="#313553" stroke-width="0.258738" stroke-linecap="round" stroke-linejoin="round"/>
<path d="M80.3673 241.625L146.246 128.715" stroke="#313553" stroke-width="0.258738" stroke-linecap="round" stroke-linejoin="round"/>
<path d="M91.5736 248.17L157.443 135.252" stroke="#313553" stroke-width="0.258738" stroke-linecap="round" stroke-linejoin="round"/>
<path d="M109.342 243.508L168.672 141.79" stroke="#313553" stroke-width="0.258738" stroke-linecap="round" stroke-linejoin="round"/>
<path d="M114.009 261.26L179.879 148.342" stroke="#313553" stroke-width="0.258738" stroke-linecap="round" stroke-linejoin="round"/>
<path d="M125.228 267.803L191.097 154.885" stroke="#313553" stroke-width="0.258738" stroke-linecap="round" stroke-linejoin="round"/>
<path d="M170.926 253.881L177.649 242.373L185.626 228.692L202.198 200.271L205.342 194.871L210.631 185.815" stroke="#313553" stroke-width="0.258738" stroke-linecap="round" stroke-linejoin="round"/>
<path d="M181.686 212.516C182.514 213.803 187.754 221.868 190.13 219.365C192.699 216.665 182.428 196.04 182.428 196.04C182.428 196.04 192.596 210.748 196.224 207.244C199.852 203.739 189.887 195.782 191.922 191.745C193.349 188.901 198.417 196.866 202.207 200.267C203.832 201.725 205.232 202.345 205.982 200.904C206.928 199.123 206.341 197.01 205.348 194.864C203.66 191.295 200.869 187.617 202.183 185.135" stroke="#313553" stroke-width="0.258738" stroke-linecap="round" stroke-linejoin="round"/>
<path d="M175.533 228.733C179.94 230.296 184.224 230.554 185.334 228.529C187.83 223.895 182.481 213.977 181.672 212.523C181.644 212.484 181.619 212.444 181.597 212.401L181.567 212.374" stroke="#313553" stroke-width="0.258738" stroke-linecap="round" stroke-linejoin="round"/>
<path d="M175.536 228.733C172.496 220.463 167.222 212.667 164.87 217.185C162.593 221.575 169.196 226.473 175.536 228.733Z" stroke="#313553" stroke-width="0.258738" stroke-linecap="round" stroke-linejoin="round"/>
<path d="M177.238 242.131C178.528 239.572 177.499 234.058 175.538 228.728" stroke="#313553" stroke-width="0.258738" stroke-linecap="round" stroke-linejoin="round"/>
<path d="M154.334 249.697L157.295 260.944L160.246 272.183" stroke="#313553" stroke-width="0.258738" stroke-linecap="round" stroke-linejoin="round"/>
<path d="M146.045 263.913L157.294 260.95L168.524 257.99" stroke="#313553" stroke-width="0.258738" stroke-linecap="round" stroke-linejoin="round"/>
<path opacity="0.2" d="M230.326 26.9912C222.361 19.845 206.865 25.0354 194.278 39.0645C181.69 53.0936 178.204 69.0598 186.169 76.206C186.24 76.2695 186.32 76.3141 186.392 76.3748L186.376 76.3921L197.009 85.9323L203.317 78.9019L202.439 78.114C208.888 75.9589 215.915 71.1528 222.215 64.131C228.027 57.6533 231.87 50.771 233.57 44.5266C234.865 44.4839 235.92 44.7001 236.526 45.2445C239.264 47.701 237.116 58.427 227.635 68.9937L221.329 76.0222L228.418 82.3823L234.724 75.3538C240.537 68.8752 244.381 61.991 246.08 55.7457C247.374 55.7011 248.425 55.9221 249.035 56.4691C251.775 58.9274 249.626 69.6534 240.145 80.2201L237.924 82.7192C236.566 84.2606 235.251 85.7549 233.917 87.1639L240.848 93.6935C241.561 92.938 242.27 92.1617 242.986 91.3639C243.67 90.6016 244.361 89.8216 245.061 89.0273L247.235 86.5811C253.051 80.0986 256.896 73.2107 258.594 66.9627C259.895 66.9215 260.942 67.1546 261.544 67.6946C264.284 70.1529 262.136 80.8789 252.655 91.4456L246.349 98.4741L253.437 104.834L259.743 97.8057C265.56 91.3232 269.403 84.4363 271.102 78.1874C272.404 78.1443 273.451 78.3774 274.053 78.9183C276.793 81.3766 274.645 92.1026 265.164 102.669L258.858 109.698L265.946 116.058L272.253 109.029C284.84 95.0003 288.326 79.0341 280.361 71.8879C280.295 71.8288 280.213 71.7705 280.144 71.7124L280.154 71.7018L230.532 27.1793L230.516 27.1966C230.449 27.1311 230.396 27.0539 230.326 26.9912ZM192.477 69.1756C189.737 66.7173 191.886 55.9914 201.366 45.4246C210.847 34.8578 221.278 31.5633 224.018 34.0217C226.756 36.4782 224.608 47.2042 215.127 57.7709C205.646 68.3377 195.215 71.6322 192.477 69.1756Z" fill="#0F1F3C"/>
<path opacity="0.2" d="M187.377 96.9021C174.626 111.113 171.027 127.226 179.006 134.385C179.077 134.449 179.158 134.493 179.229 134.554L179.213 134.571L204.067 156.871C212.046 164.03 227.676 158.711 240.427 144.5C253.177 130.289 256.776 114.176 248.798 107.017L223.945 84.7183L223.929 84.7358C223.861 84.6711 223.807 84.5946 223.737 84.5319C215.759 77.3733 200.128 82.6908 187.377 96.9021ZM197.927 138.507C197.314 137.957 196.982 136.933 196.893 135.632C202.974 133.216 209.474 128.578 215.364 122.013C221.251 115.451 225.159 108.492 226.905 102.189C228.208 102.138 229.269 102.35 229.877 102.896C232.62 105.357 230.397 116.18 220.793 126.884C211.189 137.588 200.67 140.968 197.927 138.507ZM194.479 103.274C204.083 92.5701 214.603 89.191 217.347 91.6536C220.09 94.1144 217.867 104.938 208.263 115.642C198.659 126.346 188.139 129.725 185.396 127.264C182.652 124.802 184.875 113.978 194.479 103.274ZM233.327 138.13C223.723 148.834 213.203 152.213 210.458 149.75C209.848 149.202 209.519 148.174 209.429 146.874C215.509 144.457 222.007 139.821 227.896 133.257C233.784 126.694 237.693 119.733 239.439 113.429C240.742 113.377 241.798 113.594 242.409 114.142C245.154 116.602 242.931 127.426 233.327 138.13Z" fill="#0F1F3C"/>
</g>
</g>
<defs>
<clipPath id="clip0_4095_13563">
<rect width="1370" height="600" rx="20" fill="white"/>
</clipPath>
</defs>
</svg>
