<svg width="129" height="98" viewBox="0 0 129 98" fill="none" xmlns="http://www.w3.org/2000/svg">
<path d="M8.5603 89.625C5.88799 90.0034 3.35213 90.4367 1.0125 90.9319C0.736846 90.9903 0.467307 91.105 0.207951 91.2232C0.0348207 91.3019 -0.0201738 91.4426 0.0063049 91.5805C0.0911726 92.0293 3.7276 91.4039 9.32004 90.6576C9.05186 90.3495 8.79726 90.0041 8.5603 89.625Z" fill="#143A62"/>
<path d="M128.436 89.5815C128.096 89.5499 117.601 88.7846 102.503 88.1016C102.47 88.5187 102.432 88.9147 102.385 89.2917C113.5 89.7771 122.696 90.2603 128.496 90.3919C129.225 90.408 129.128 89.6463 128.436 89.5815Z" fill="#143A62"/>
<path d="M55.4656 13.7601C55.9416 13.7812 61.3724 7.13322 63.0168 4.78735C63.6272 3.91582 63.5844 3.52824 62.6448 4.42017C60.5013 6.45443 54.2334 13.7052 55.4656 13.7601Z" fill="#143A62"/>
<path d="M17.6206 9.6571C17.3911 9.59028 17.1392 9.82451 17.3565 10.0482C17.3707 10.063 26.2601 18.1916 26.8725 18.1705C28.629 18.1107 17.8046 9.71056 17.6206 9.6571Z" fill="#143A62"/>
<path d="M37.5557 0.563528C37.5591 2.29251 38.166 8.6415 38.7255 11.5269C38.9217 12.5398 39.5069 12.4652 39.5069 11.7154C39.5816 11.7098 38.6956 3.75139 38.1192 0.961659C37.8578 -0.302372 37.5543 -0.195453 37.5557 0.563528Z" fill="#143A62"/>
<path d="M21.9654 33.0277C18.1789 32.2863 15.7327 31.9423 14.5303 31.8755C13.3089 31.8073 13.3265 32.3039 14.5724 32.6788C15.842 33.0607 18.386 33.3259 22.0082 33.8999C23.5609 34.1461 23.8311 33.3934 21.9654 33.0277Z" fill="#143A62"/>
<path d="M108.793 56.0273C109.158 53.2384 112.337 52.6648 113.58 54.6758C113.803 55.0364 113.914 54.3936 115.001 54.4014C116.088 54.4092 117.04 55.2104 117.482 56.1592C117.606 56.424 117.626 56.5892 117.804 56.4814C119.115 55.688 120.893 56.3656 121.523 58.4053C121.668 58.873 121.749 58.05 123.279 59.498C123.81 60.0002 123.478 60.6184 123.044 61.3252C121.696 63.521 121.476 63.4659 121.227 64.1191C121.087 64.482 121.873 64.1927 121.938 65.2578C121.988 66.0977 121.39 66.2131 121.677 66.6689C122.2 67.501 121.465 68.096 122.007 68.6396C122.379 69.0135 123.922 71.4966 124.082 71.7568C124.807 72.9357 126.527 76.9051 126.558 80.2275C126.573 81.929 126.694 80.9852 126.495 82.8896C126.27 85.0393 125.67 87.4508 124.323 89.0645C120.986 93.0612 118.412 93.6757 113.669 93.668C110.168 93.6623 106.245 92.9708 103.167 91.2412C102.832 91.0527 102.495 90.8407 102.16 90.6064C102.555 88.8803 102.555 86.6495 102.811 83.7803C103.226 79.1167 103.527 73.0051 103.656 66.1104C105.159 65.1536 106.21 64.6237 106.223 64.6182C106.486 64.5106 106.111 63.874 107.07 63.5068C107.453 63.3605 106.785 63.0677 107.282 62.2666C107.526 61.8735 107.861 61.9373 107.71 61.666C107.041 60.464 106.548 58.9863 106.104 57.5908C105.842 56.7658 106.616 56.7499 107.757 56.4834C108.678 56.2675 108.75 56.3558 108.793 56.0273ZM113.649 87.708C113.6 87.8552 113.53 88.0219 113.424 88.208C113.53 88.0219 113.6 87.8552 113.649 87.708ZM112.184 87.2344C112.204 87.1704 112.219 87.1136 112.229 87.0635C112.219 87.1136 112.204 87.1704 112.184 87.2344ZM112.244 86.9502C112.244 86.9432 112.245 86.9364 112.245 86.9297C112.245 86.9364 112.244 86.9432 112.244 86.9502ZM113.809 86.8887C113.802 86.9028 113.796 86.9187 113.791 86.9365C113.796 86.9187 113.802 86.9028 113.809 86.8887ZM113.826 86.8633C113.82 86.8712 113.813 86.8791 113.809 86.8887C113.813 86.8791 113.82 86.8712 113.826 86.8633ZM112.236 86.8506C112.234 86.8417 112.231 86.8334 112.229 86.8252C112.231 86.8334 112.234 86.8417 112.236 86.8506ZM113.872 86.8252L113.869 86.8271C113.878 86.8226 113.888 86.8195 113.899 86.8164C113.89 86.8192 113.88 86.8213 113.872 86.8252ZM112.22 86.8047C112.216 86.7966 112.212 86.7887 112.207 86.7812C112.212 86.7887 112.216 86.7966 112.22 86.8047ZM112.201 86.7715C112.197 86.7651 112.191 86.7598 112.186 86.7539C112.191 86.7598 112.197 86.7651 112.201 86.7715ZM112.151 86.7236C112.137 86.7124 112.123 86.7013 112.105 86.6914C112.123 86.7013 112.137 86.7124 112.151 86.7236ZM112.061 86.668C112.043 86.6597 112.024 86.6514 112.004 86.6436C112.024 86.6514 112.043 86.6597 112.061 86.668ZM111.844 86.5898C111.822 86.5832 111.8 86.5744 111.777 86.5674L111.653 86.5293C111.723 86.5512 111.786 86.5719 111.844 86.5898ZM111.749 84.9473C111.784 84.9645 111.82 84.9819 111.856 84.999C111.82 84.9819 111.784 84.9645 111.749 84.9473ZM111.516 84.8262C111.544 84.8418 111.573 84.8574 111.603 84.873C111.573 84.8574 111.544 84.8418 111.516 84.8262ZM111.3 84.7012C111.322 84.7147 111.344 84.7277 111.367 84.7412C111.344 84.7277 111.322 84.7147 111.3 84.7012ZM110.979 84.4854C111.064 84.547 111.156 84.6096 111.256 84.6729C111.156 84.6096 111.064 84.547 110.979 84.4854ZM110.476 84.082C110.49 84.0948 110.506 84.107 110.521 84.1201C110.421 84.0339 110.328 83.9573 110.242 83.8896C110.315 83.947 110.393 84.0109 110.476 84.082ZM103.591 75.7891L106.451 83.7666H108.269L110.432 75.7891H109.515L107.403 82.0684H107.32L105.545 75.7891H103.591ZM112.203 75.7891L111.133 83.7666H113.676V75.7891H112.203ZM116.289 75.832L115.756 79.9805V79.9814L115.573 81.4004C115.209 81.2036 114.809 81.0805 114.391 80.9756C114.809 81.0806 115.209 81.2045 115.573 81.4014L115.27 83.7666H116.741V81.0713H117.369H117.371H118.297C118.924 81.0713 119.451 80.9582 119.88 80.7324C120.308 80.5039 120.633 80.1903 120.853 79.793C121.072 79.3957 121.182 78.9411 121.182 78.4297C121.182 77.9234 121.072 77.4715 120.853 77.0742C120.636 76.6743 120.314 76.3604 119.888 76.1318C119.464 75.9033 118.941 75.7891 118.316 75.7891H116.295L116.289 75.832C116.247 75.8003 116.202 75.7691 116.156 75.7383C116.202 75.7691 116.247 75.8003 116.289 75.832ZM113.716 80.8154C113.82 80.8394 113.923 80.864 114.026 80.8877C113.975 80.8758 113.922 80.8635 113.87 80.8516C113.819 80.8399 113.767 80.8273 113.716 80.8154ZM115.435 79.8662C115.512 79.8921 115.59 79.9187 115.667 79.9473C115.59 79.9187 115.512 79.8921 115.435 79.8662ZM117.33 76.9961H117.333H118.091C118.458 76.9961 118.758 77.0577 118.991 77.1797C119.226 77.2991 119.4 77.4663 119.511 77.6816C119.624 77.8972 119.682 78.1467 119.682 78.4297C119.682 78.7128 119.624 78.9635 119.511 79.1816C119.4 79.3997 119.228 79.5707 118.995 79.6953C118.762 79.82 118.464 79.8828 118.099 79.8828H116.741V76.9961H117.33ZM110.954 79.5039C111.046 79.5949 111.14 79.6779 111.234 79.7559C111.14 79.6779 111.046 79.5949 110.954 79.5039ZM111.709 78.2676C111.752 78.32 111.798 78.3691 111.845 78.417C111.798 78.3691 111.752 78.32 111.709 78.2676ZM116.103 75.7021C116.057 75.6729 116.009 75.6452 115.96 75.6172C116.009 75.6452 116.057 75.6729 116.103 75.7021ZM115.846 75.5547C115.789 75.5253 115.731 75.4962 115.67 75.4688C115.731 75.4962 115.789 75.5253 115.846 75.5547ZM115.624 75.4492C115.563 75.4228 115.5 75.3971 115.435 75.373C115.5 75.3971 115.563 75.4228 115.624 75.4492ZM115.333 75.3379C115.274 75.3181 115.213 75.2989 115.15 75.2812C115.213 75.2989 115.274 75.3181 115.333 75.3379ZM115.061 75.2568C114.963 75.2319 114.862 75.2087 114.756 75.1895C114.862 75.2087 114.963 75.2319 115.061 75.2568ZM113.738 73.7529C113.771 73.7485 113.799 73.7411 113.821 73.7324C113.799 73.7411 113.771 73.7485 113.738 73.7529ZM113.842 73.7236C113.846 73.7217 113.849 73.7199 113.853 73.7178C113.849 73.7199 113.846 73.7217 113.842 73.7236ZM113.874 73.7002C113.878 73.696 113.883 73.6923 113.887 73.6875C113.883 73.6923 113.878 73.696 113.874 73.7002ZM113.896 73.6709C113.901 73.6637 113.906 73.6568 113.909 73.6484C113.906 73.6568 113.901 73.6637 113.896 73.6709ZM113.916 73.627C113.918 73.6198 113.921 73.6125 113.923 73.6045C113.921 73.6125 113.918 73.6198 113.916 73.627ZM113.926 73.585C113.929 73.5651 113.933 73.5432 113.936 73.5186C113.933 73.5432 113.929 73.5651 113.926 73.585ZM107.512 63.918C107.176 64.297 107.335 64.1075 107.149 64.4609C106.908 64.9181 107.503 65.6132 107.896 65.9375C111.824 69.171 122.033 69.8903 121.142 66.9727C121.026 66.5963 120.403 67.7016 116.988 67.4688C114.12 67.2739 111.507 66.8502 109.05 65.3057C107.876 64.568 107.999 64.4389 107.512 63.918ZM108.329 62.4434C108.265 62.3836 108.215 62.3783 108.145 62.4395C105.852 64.4308 115.906 67.7861 120.391 66.2646C121.138 66.0105 121.511 65.1566 121.139 64.8057C120.877 64.5574 120.997 64.863 120.25 65.0508C115.884 66.1479 110.53 64.4887 108.329 62.4434ZM120.228 57.5352C119.139 56.3161 117.425 57.2705 116.985 59.0156C116.917 59.2842 116.972 59.3384 117.14 59.4453C118.247 60.1556 118.811 60.4721 119.984 60.5615C120.829 60.4047 121.098 60.4349 121.062 60.1006C120.994 59.4472 121.062 58.4706 120.228 57.5352ZM117.03 56.8818C116.825 56.5665 115.941 54.6814 114.52 55.3896C113.974 55.6619 113.615 56.1019 113.479 56.7236C113.365 57.2477 113.822 56.9183 115.72 58.3701C116.106 58.6661 116.25 58.7338 116.304 58.5488C116.681 57.2513 117.214 57.1639 117.03 56.8818ZM113.103 55.4912C113.433 55.0378 110.854 52.9688 109.733 55.6963C109.332 56.6751 110.258 55.8944 112.407 56.6182C112.775 56.7419 112.655 56.1025 113.103 55.4912Z" fill="#143A62"/>
<path d="M29.5528 67.275C27.63 65.9822 27.0733 66.0792 27.0536 65.6938C27.0292 65.1978 26.7725 64.9629 26.3197 64.8032C25.9028 64.6569 26.6021 64.543 26.135 63.5631C25.9646 63.2065 25.5233 63.2283 25.6604 63.0074C26.0562 62.3694 26.6381 60.8979 26.8832 60.1706C27.5974 58.0519 27.8473 58.2045 24.7934 57.5996C24.6508 57.5708 24.6637 57.5278 24.5904 57.1761C24.0506 54.6066 21.6132 54.1859 20.2961 55.4436C19.8059 55.9114 19.793 56.1879 19.6171 56.0648C19.0869 55.6955 18.188 55.5513 17.3692 55.9466C16.3915 56.4193 16.0629 57.1719 15.7485 57.8071C14.9352 57.4427 15.13 57.5665 14.9121 57.5117C13.8706 57.2465 12.5113 57.85 11.9383 59.5333C11.8168 59.8906 11.8188 59.7753 11.4407 59.8948C10.6477 60.1467 9.55455 60.9795 9.93069 61.7518C11.4352 64.8398 12.6872 65.2443 11.9668 65.6663C11.3055 66.0539 11.3524 66.8888 11.7652 67.5501C11.9662 67.8722 11.5921 67.837 11.5486 68.4687C11.478 69.5098 11.8025 69.3951 11.5296 69.7475C4.78567 78.467 6.21824 87.4278 9.5369 90.8998C12.4122 93.9083 14.1829 94.9472 19.3632 94.9472C19.3659 95.0098 25.5667 94.9092 29.0123 93.1528C29.8155 92.7434 30.4775 92.3657 31.0403 92.0034C29.9099 88.6482 29.5956 81.7301 29.5528 67.275ZM20.2981 56.5719C21.1427 55.2052 22.8428 55.3796 23.4566 56.5255C23.6093 56.8111 23.9556 57.4758 23.6426 57.5117C23.4362 57.5356 23.5401 57.4561 21.7633 57.7255C20.8997 57.8563 20.842 58.0674 20.734 57.748C20.3545 56.6317 20.1895 56.7464 20.2981 56.5719ZM16.3596 58.2179C17.4887 55.6554 19.6755 56.4101 19.9403 58.0406C19.9994 58.405 20.0218 58.1602 18.7664 58.9417C18.3788 59.183 17.3026 59.9096 17.2884 59.9216C17.0759 60.0925 17.0983 59.7021 16.8023 59.1042C16.4798 58.4542 16.2761 58.4078 16.3596 58.2179ZM16.3915 60.2557C16.4275 60.4273 16.5687 60.478 16.3929 60.6081C15.477 61.2855 14.6683 61.8151 13.375 61.799C13.0144 61.7947 12.3253 61.7765 12.3355 61.4001C12.4441 57.3154 15.8273 57.5581 16.3915 60.2557ZM12.5487 66.0722C13.2785 66.5625 15.5367 66.7735 16.4051 66.713C17.6251 66.6286 19.2661 66.5582 21.9581 65.5699C22.796 65.2626 24.3691 64.4987 25.0487 63.7411C25.1858 63.5884 25.2415 63.7024 25.3807 63.8529C27.0366 65.6544 18.2701 68.9857 13.1373 67.5972C11.8005 67.2356 11.9953 65.7001 12.5487 66.0722ZM24.5449 87.6458C24.1111 88.001 24.6203 88.9992 24.8246 89.6147C25.1566 90.6142 23.6609 91.1608 23.299 90.1929C22.5495 88.1881 23.7227 88.6974 21.5711 89.2222C20.4998 89.4831 18.3584 89.18 17.9225 88.1509C17.3834 86.8763 20.3103 87.4946 21.2439 87.3173C24.6019 86.6779 25.3318 83.8031 23.2644 83.2418C21.5324 82.7712 18.5247 83.694 17.1444 81.5163C16.7493 80.8931 16.4784 79.6326 16.8471 78.4325C17.3264 76.8745 18.5139 76.2358 18.9436 75.9418C19.203 75.7645 19.1405 75.8981 18.5689 74.1101C18.2966 73.2589 19.5445 72.7018 19.9172 73.4868C20.1705 74.0221 20.106 74.0517 20.5242 75.1434C20.7204 75.1019 20.9153 75.0555 21.1108 75.0182C25.0324 74.2676 25.0147 77.7777 23.6562 77.2431C23.2583 77.0862 22.6018 76.2569 21.1645 76.6768C19.4671 77.1727 17.8845 78.2933 18.188 80.1024C18.539 82.1944 22.5067 80.3655 24.8559 82.0284C26.8703 83.4542 26.3747 86.1482 24.5449 87.6458ZM26.2884 66.1123C26.1112 66.8234 25.2877 67.4572 24.6658 67.8216C21.9262 69.4282 19.9804 69.6962 16.8511 70.0612C16.697 70.0788 16.5381 70.0641 16.3827 70.0641C13.8692 69.9487 13.504 70.0183 12.4312 69.2558C12.066 68.9963 12.1603 68.0256 12.4238 68.1888C14.3907 69.4028 19.1582 68.4202 19.9974 68.2886C20.8365 68.1571 21.9771 67.8687 23.8205 66.8818C25.7806 65.8316 25.7962 64.9643 25.9795 65.2801C26.3733 65.9582 26.3326 65.9343 26.2884 66.1123Z" fill="#143A62"/>
<path fill-rule="evenodd" clip-rule="evenodd" d="M24.6872 89.2386C24.4636 88.6505 24.1917 87.9351 24.5449 87.6458C26.3747 86.1482 26.8703 83.4542 24.8559 82.0284C23.7511 81.2463 22.2883 81.2366 21.012 81.2281C19.5746 81.2185 18.3739 81.2105 18.188 80.1024C17.8845 78.2933 19.4671 77.1727 21.1645 76.6768C22.2859 76.3492 22.9321 76.782 23.3509 77.0626C23.4688 77.1417 23.5687 77.2086 23.6562 77.2431C25.0147 77.7777 25.0324 74.2676 21.1108 75.0182C20.9856 75.042 20.8607 75.0697 20.7355 75.0973C20.6652 75.1129 20.5948 75.1284 20.5242 75.1434C20.3248 74.623 20.2352 74.3439 20.1685 74.1364C20.0953 73.9086 20.0498 73.767 19.9172 73.4868C19.5445 72.7018 18.2966 73.2589 18.5689 74.1101C19.0028 75.4672 19.1433 75.7173 19.0725 75.8365C19.05 75.8744 19.0061 75.899 18.9436 75.9418C18.9019 75.9703 18.8531 76.0021 18.7985 76.0376C18.2901 76.3684 17.2799 77.0257 16.8471 78.4325C16.4784 79.6326 16.7493 80.8931 17.1444 81.5163C18.0948 83.0157 19.8166 83.0453 21.3624 83.0718C22.0617 83.0838 22.7249 83.0952 23.2644 83.2418C25.3318 83.8031 24.6019 86.6779 21.2439 87.3173C20.9727 87.3688 20.5332 87.3532 20.0594 87.3363C18.9022 87.2951 17.54 87.2466 17.9225 88.1509C18.3584 89.18 20.4998 89.4831 21.5711 89.2222C22.6287 88.9642 22.883 88.71 22.9572 88.7563C23.0339 88.8042 22.9179 89.1736 23.299 90.1929C23.6609 91.1608 25.1566 90.6142 24.8246 89.6147C24.7867 89.5003 24.7382 89.3728 24.6872 89.2386Z" fill="#143A62"/>
<path d="M102.812 83.7826C102.343 89.0356 102.734 92.1468 99.9854 93.9447C99.5149 94.2521 98.4883 94.5082 98.4367 94.6517C98.2711 95.1089 97.3525 96.3448 97.2371 96.4953C96.7924 97.0756 96.5364 96.9645 94.6401 97.1066C94.6231 97.1066 91.2339 97.2845 89.5827 97.0426C88.442 96.8752 88.7001 95.2461 88.1331 95.2496C87.5968 95.2531 76.9964 95.4613 76.9774 95.462C76.6529 95.4648 76.3657 96.4404 75.2516 97.1875C74.3126 97.8163 74.2406 97.7354 68.5918 97.7073C65.5434 97.6918 65.7009 97.5209 65.0328 95.8489C64.9059 95.5309 65.0484 95.6505 62.7787 95.6336C62.3951 95.6308 61.4752 97.2831 60.4683 97.3415C54.4664 97.6883 54.0523 97.4435 53.6979 96.7696C53.2444 95.908 53.317 95.7673 52.9857 95.7701C48.5081 95.8088 48.5956 95.6294 48.3492 96.0494C47.8488 96.9026 47.0531 97.753 46.0897 97.7164C40.4137 97.5012 37.9505 98.0273 37.5588 96.6888C37.1371 95.2489 37.1765 95.3396 36.962 95.3277C29.7462 94.9337 29.4115 95.6758 29.5785 51.1253C29.624 38.9162 30.7537 27.7917 30.7911 27.5512C31.5372 22.7701 32.9019 22.4282 35.8064 22.0456C50.0221 20.1745 80.0802 21.186 94.397 21.8331C99.555 22.0667 102.182 22.5323 102.611 28.0182C104.209 48.4882 103.923 71.3125 102.811 83.7833L102.812 83.7826ZM56.5685 21.8866C56.5685 21.9267 39.8366 22.0737 34.6393 23.0986C31.9337 23.6318 31.5101 24.715 31.0185 37.2273C30.032 62.3299 30.7408 83.4287 31.3071 88.2563C32.0967 94.9886 32.2169 94.2353 41.2169 94.5715C51.2381 94.9464 80.1237 95.0568 82.9718 93.899C85.879 92.7173 85.7534 91.3323 85.9626 89.3198C87.1779 77.6172 87.736 50.8052 86.6564 33.4985C85.9571 22.2903 88.7306 21.8866 56.5685 21.8866ZM101.591 88.1465C103.984 61.8755 101.875 29.845 102.087 32.1276C101.532 26.15 102.161 23.4137 96.9899 22.8524C92.8443 22.4022 82.7552 22.1947 82.6486 22.3565C87.2906 23.9159 87.1113 25.4458 87.5859 31.2469C89.5569 55.3408 87.4583 86.9388 86.6707 90.6887C85.8471 94.6088 82.9861 94.5103 83.9855 94.5152C100.092 94.5834 101.038 94.2254 101.592 88.1458L101.591 88.1465Z" fill="#143A62"/>
<path d="M79.2533 27.5175C82.1103 28.4334 80.7837 31.7176 81.4871 42.5951C81.6989 45.8674 81.8211 69.4978 80.7518 85.3274C80.4055 90.4503 77.8921 88.715 71.4693 89.4346C71.1624 89.4691 50.3087 89.8974 42.23 89.4149C35.6775 89.0238 35.1975 89.6315 34.9748 83.4837C34.6767 75.2489 33.9625 31.7647 35.9138 28.4932C36.9722 26.7185 39.7484 27.571 46.1454 26.8092C48.2006 26.5644 76.1071 26.5088 79.2533 27.5175ZM80.0606 29.0397C79.6342 27.2305 72.3858 28.0015 65.2997 27.5893C61.7638 27.3832 40.6365 27.4085 37.2024 28.3068C36.1629 28.579 36.3721 29.5096 36.1874 31.0599C35.8635 33.7793 34.2592 87.4531 36.8955 88.153C40.942 89.2271 77.6972 88.8339 79.1345 87.9455C81.172 86.6857 80.8638 32.4491 80.0606 29.0397Z" fill="#143A62"/>
<path d="M66.3376 60.3282C66.5481 66.6476 61.6108 73.8294 52.9713 74.0327C46.4446 74.1861 39.4359 68.454 39.8901 59.3926C40.2262 52.6877 46.0766 46.7087 53.3318 46.7769C60.9373 46.8487 66.5671 53.6669 66.3376 60.3282ZM65.4971 60.2726C64.0523 42.0739 39.662 45.1169 40.7917 61.3333C41.305 68.7037 48.051 73.8794 54.7997 72.7807C61.1532 71.7459 65.364 66.4851 65.4971 60.2726Z" fill="#143A62"/>
<path d="M70.4481 34.5877C73.7417 34.5117 77.4012 37.4457 77.0685 41.7161C76.8173 44.9405 73.9521 47.508 70.7217 47.2885C67.7385 47.0859 64.1197 44.1766 64.4789 40.2994C64.8102 36.724 67.8308 34.4097 70.4481 34.5877ZM75.5714 40.355C75.5714 39.188 75.3345 39.7817 74.8993 39.8155C74.4179 39.8534 74.3323 39.2999 74.6569 39.0699C75.0405 38.7976 75.3195 38.8806 75.1803 38.5901C74.6453 37.4766 74.591 37.4921 74.4002 37.7116C73.9494 38.2307 73.2501 37.8909 73.5434 37.3796C73.7396 37.0377 74.1259 37.0166 73.8849 36.7838C73.5679 36.4771 73.2114 36.233 72.8163 36.0473C72.5651 35.9291 72.6289 37.0363 71.9941 36.8182C71.6465 36.6987 71.6953 36.2084 71.8746 35.8876C71.9554 35.7427 71.9282 35.6351 71.7924 35.6006C70.3232 35.2285 70.7115 35.3945 70.5751 36.0192C70.4868 36.4257 70.1351 36.3751 69.9864 36.1148C69.7434 35.6879 69.9993 35.3629 69.6863 35.4234C68.6795 35.6175 68.7664 35.595 68.8383 35.9151C68.9599 36.4546 68.9931 36.9828 68.4663 36.7577C68.0005 36.5587 68.0379 35.9136 67.7514 36.1141C66.8545 36.7387 66.9068 36.7669 67.0724 36.9554C67.5579 37.509 67.2211 38.2659 66.4464 37.5041C66.3656 37.4246 66.2991 37.4295 66.2387 37.5174C65.1361 39.1296 65.7546 38.7343 66.1334 39.2C66.2672 39.3646 66.2346 39.6853 65.9433 39.6839C65.2943 39.6811 65.2474 39.4434 65.2624 40.9775C65.2644 41.1555 65.3357 41.2138 65.5278 41.2462C65.832 41.2983 66.2034 41.5845 65.9257 41.7857C65.5584 42.0523 65.1931 41.7857 65.9243 43.1602C66.1015 43.4936 66.2312 43.1433 66.6569 43.0512C67.1756 42.9386 67.2537 43.2509 66.9814 43.5963C66.7071 43.9445 66.4865 44.0043 66.6094 44.1189C67.4981 44.9511 67.4988 45.0284 67.6292 44.778C67.7025 44.6359 67.9014 43.9804 68.4093 44.2716C68.7297 44.4552 68.4982 44.854 68.3556 45.205C68.2585 45.4442 68.3482 45.4498 69.0176 45.6622C69.4087 45.786 69.2063 45.5483 69.3652 45.0629C69.446 44.816 69.8676 44.6964 70.0285 45.1389C70.182 45.5602 69.8235 45.8535 70.1827 45.8662C71.14 45.9014 71.1033 45.8226 71.0035 45.5363C70.6185 44.4305 71.6261 44.1232 71.7388 45.5152C71.7571 45.7452 71.9004 45.6573 72.5393 45.3914C73.0906 45.1614 72.358 45.0896 72.3892 44.5487C72.413 44.1407 72.9242 44.1407 73.0831 44.401C73.2555 44.6838 73.2949 45.0179 73.4667 44.8624C74.4009 44.0169 74.4715 43.9916 74.2081 43.8376C73.6093 43.488 73.7729 42.8633 74.2685 42.8901C74.8327 42.921 74.8456 43.521 75.1539 42.6931C75.4689 41.8476 75.5171 41.8469 75.2401 41.7625C74.1748 41.4361 74.6576 40.7151 75.1668 40.8016C75.4825 40.8551 75.5714 41.0901 75.5714 40.355Z" fill="#143A62"/>
<path d="M58.947 52.516C63.2719 56.0781 64.0126 62.916 59.2383 67.6732C54.3988 72.4957 44.8821 70.107 43.3524 62.1436C41.653 53.2975 51.8242 46.6503 58.947 52.516ZM53.7137 57.0805C53.7022 57.4617 53.6275 57.4554 53.855 57.563C54.6323 57.9302 55.3486 58.7954 55.4457 59.7949C55.5835 61.2158 55.0173 61.2841 55.3561 61.576C60.0272 65.5946 59.4807 65.7564 59.848 65.2485C63.5441 60.1424 60.6525 52.4823 54.0281 51.5524C53.5908 51.4912 53.8943 51.2133 53.7137 57.0805ZM44.2622 60.3943C44.3647 61.6491 44.8189 64.0393 45.1536 63.905C45.3336 63.8332 46.517 62.8555 48.9292 61.5711C50.0006 61.0006 49.9694 61.0526 49.9504 60.836C49.8315 59.4707 50.1153 58.3283 51.4542 57.6594C51.9709 57.4012 51.5269 52.834 51.7645 51.7177C51.922 50.9784 44.3382 52.7918 44.2629 60.3936L44.2622 60.3943ZM57.8763 67.2504C58.1214 67.0527 58.1282 67.3974 55.7424 64.4508C54.2338 62.5882 54.2915 62.5354 54.1001 62.6726C53.6716 62.98 52.8976 63.1777 51.9933 62.9969C51.0733 62.8133 51.0109 62.2885 50.7115 62.5397C46.3635 66.1854 46.1605 65.7627 46.5523 66.203C49.4832 69.495 54.7125 69.7996 57.877 67.2504H57.8763ZM50.8995 60.1178C50.725 62.5129 54.5543 62.7127 54.5563 60.1459C54.5583 57.6017 50.666 57.7987 50.8995 60.1178Z" fill="#143A62"/>
<path d="M67.4828 40.6708C67.3673 38.3446 70.2787 36.5284 72.2591 38.5211C73.8492 40.1214 72.9197 43.0511 70.7261 43.3901C68.5324 43.7292 67.3171 41.8694 67.4828 40.6708ZM69.4904 38.519C66.8371 39.4335 68.4265 43.6019 70.9956 42.6171C73.6156 41.6133 72.3019 37.5497 69.4904 38.519Z" fill="#143A62"/>
<path d="M52.7064 61.0447C51.5006 61.0489 51.4951 59.2327 52.6819 59.2531C53.906 59.2742 53.7736 61.0412 52.7064 61.0447Z" fill="#143A62"/>
</svg>
