<svg width="440" height="603" viewBox="0 0 440 603" fill="none" xmlns="http://www.w3.org/2000/svg">
<g clip-path="url(#clip0_3010_849)">
<rect width="440" height="603" rx="20" fill="#143A62" fill-opacity="0.02"/>
<g opacity="0.15">
<path d="M130.617 378.711C129.199 427.81 117.312 476.033 95.7643 520.12C74.2122 564.211 43.4996 603.138 5.69873 634.274" stroke="#313553" stroke-linecap="round" stroke-linejoin="round"/>
<path d="M56.742 422.804C44.8309 485.984 11.2029 542.95 -38.2642 583.738" stroke="#313553" stroke-linecap="round" stroke-linejoin="round"/>
<path d="M-27.9712 169.708C-11.8119 184.362 2.54832 200.898 14.8126 218.968" stroke="#313553" stroke-linecap="round" stroke-linejoin="round"/>
<path d="M-44.0903 68.2432C-1.00977 92.6015 36.3484 125.998 65.4361 166.162" stroke="#313553" stroke-linecap="round" stroke-linejoin="round"/>
<path d="M-90.4009 305.635C-90.4009 305.635 22.4083 227.923 51.901 206.641C81.3938 185.36 141.924 142.154 141.924 142.154" stroke="#313553" stroke-linecap="round" stroke-linejoin="round"/>
<path d="M-8.65674 449.688C-8.65674 449.688 35.4035 427.139 55.4437 409.422C75.4839 391.705 210.867 301.757 210.867 301.757" stroke="#313553" stroke-linecap="round" stroke-linejoin="round"/>
</g>
</g>
<defs>
<clipPath id="clip0_3010_849">
<rect width="440" height="603" rx="20" fill="white"/>
</clipPath>
</defs>
</svg>
