<svg width="412" height="631" viewBox="0 0 412 631" fill="none" xmlns="http://www.w3.org/2000/svg">
<g clip-path="url(#clip0_4001_2106)">
<rect width="412" height="631" rx="20" fill="#143A62" fill-opacity="0.02"/>
<g opacity="0.88">
<path d="M271.583 71.6649C271.18 71.3855 270.776 71.1204 270.372 70.8502C258.742 63.0973 246.277 56.799 233.233 52.0853L230.209 95.5729H211.036V45.7373C209.829 45.4772 208.613 45.2323 207.397 45V95.5729H184.612C172.069 95.5729 160.039 90.3792 151.17 81.1344C142.301 71.8896 137.318 59.351 137.318 46.2768C136.097 46.5516 134.885 46.8458 133.674 47.1606V95.5729H115.116L112.235 54.1049C98.8309 59.4632 86.1057 66.5096 74.3425 75.0872C74.1407 75.232 73.9355 75.3818 73.7369 75.5257C72.715 76.2727 71.7068 77.0344 70.7031 77.8058V243.712H125.396L124.43 229.757L119.111 153.141H226.208L220.89 229.757L219.924 243.712H274.011V73.3424C273.206 72.7737 272.397 72.2145 271.583 71.6649ZM133.674 140.488H118.233L115.38 99.3714H133.674V140.488ZM207.397 140.488H181.463V139.673C181.463 139.281 181.388 138.894 181.245 138.532C181.101 138.17 180.89 137.841 180.624 137.565C180.358 137.288 180.042 137.069 179.695 136.919C179.348 136.77 178.976 136.693 178.6 136.694H167.326C166.95 136.694 166.579 136.771 166.232 136.921C165.885 137.07 165.57 137.29 165.305 137.566C165.039 137.843 164.829 138.171 164.685 138.533C164.542 138.894 164.468 139.282 164.468 139.673V140.488H137.318V99.3714H207.397V140.488ZM211.036 140.488V99.3714H229.945L227.092 140.488H211.036Z" fill="#E6E6E6"/>
<path d="M15 254.336C18.5346 259.259 22.3916 263.922 26.5436 268.29L326.456 268.772C330.608 264.404 334.465 259.741 338 254.818L15 254.336Z" fill="#F2F2F2"/>
<path d="M219.329 209.655V250.966C219.329 251.493 219.53 251.998 219.887 252.37C220.245 252.742 220.729 252.952 221.234 252.952H279.964C280.469 252.951 280.954 252.742 281.311 252.37C281.668 251.998 281.869 251.493 281.869 250.966V209.655C281.868 209.129 281.667 208.625 281.31 208.253C280.953 207.882 280.469 207.673 279.964 207.672H221.234C220.729 207.673 220.245 207.882 219.888 208.253C219.531 208.625 219.33 209.129 219.329 209.655Z" fill="#3F3D56"/>
<path d="M220.707 210.167V250.454C220.708 250.735 220.815 251.005 221.006 251.204C221.197 251.403 221.455 251.514 221.725 251.515H279.477C279.747 251.514 280.006 251.403 280.196 251.204C280.387 251.005 280.495 250.735 280.495 250.454V210.167C280.495 209.885 280.388 209.615 280.197 209.416C280.006 209.217 279.747 209.104 279.477 209.104H221.725C221.455 209.104 221.196 209.217 221.005 209.416C220.814 209.615 220.707 209.885 220.707 210.167Z" fill="#6C63FF"/>
<path d="M218.1 259.022C218.208 259.163 218.344 259.277 218.5 259.355C218.656 259.433 218.826 259.473 218.999 259.472H281.888C282.059 259.472 282.229 259.432 282.384 259.355C282.539 259.277 282.676 259.165 282.784 259.026C282.893 258.887 282.97 258.724 283.01 258.55C283.051 258.376 283.053 258.194 283.018 258.019L282.042 253.186C282.001 252.988 281.914 252.805 281.788 252.652C281.662 252.499 281.502 252.381 281.321 252.309C281.19 252.256 281.051 252.228 280.91 252.229H219.971C219.831 252.228 219.692 252.256 219.561 252.309C219.38 252.381 219.219 252.499 219.093 252.652C218.968 252.805 218.88 252.988 218.84 253.186L217.864 258.019C217.829 258.194 217.832 258.375 217.873 258.549C217.914 258.723 217.991 258.885 218.1 259.024L218.1 259.022Z" fill="#2F2E41"/>
<path d="M220.617 254.307H222.159C222.268 254.307 222.356 254.215 222.356 254.101V253.301C222.356 253.187 222.268 253.095 222.159 253.095H220.617C220.508 253.095 220.42 253.187 220.42 253.301V254.101C220.42 254.215 220.508 254.307 220.617 254.307Z" fill="#3F3D56"/>
<path d="M220.663 256.326H222.205C222.314 256.326 222.402 256.234 222.402 256.121V255.32C222.402 255.207 222.314 255.115 222.205 255.115H220.663C220.554 255.115 220.466 255.207 220.466 255.32V256.121C220.466 256.234 220.554 256.326 220.663 256.326Z" fill="#3F3D56"/>
<path d="M261.69 258.748H246.646C246.586 258.748 246.529 258.723 246.487 258.679C246.444 258.635 246.421 258.575 246.421 258.513V257.772C246.421 257.71 246.444 257.65 246.487 257.606C246.529 257.562 246.586 257.537 246.646 257.537H261.69C261.75 257.537 261.808 257.562 261.85 257.606C261.892 257.65 261.916 257.71 261.916 257.772V258.513C261.916 258.575 261.892 258.635 261.85 258.679C261.808 258.723 261.75 258.748 261.69 258.748Z" fill="#3F3D56"/>
<path d="M230.798 217.918H229.3C228.952 217.918 228.67 218.212 228.67 218.575V218.766C228.67 219.129 228.952 219.423 229.3 219.423H230.798C231.147 219.423 231.429 219.129 231.429 218.766V218.575C231.429 218.212 231.147 217.918 230.798 217.918Z" fill="white"/>
<path d="M245.84 217.918H244.341C243.993 217.918 243.711 218.212 243.711 218.575V218.766C243.711 219.129 243.993 219.423 244.341 219.423H245.84C246.188 219.423 246.47 219.129 246.47 218.766V218.575C246.47 218.212 246.188 217.918 245.84 217.918Z" fill="white"/>
<path d="M250.1 217.918H248.602C248.254 217.918 247.972 218.212 247.972 218.575V218.766C247.972 219.129 248.254 219.423 248.602 219.423H250.1C250.448 219.423 250.731 219.129 250.731 218.766V218.575C250.731 218.212 250.448 217.918 250.1 217.918Z" fill="white"/>
<path d="M241.748 217.793H233.392C233.044 217.793 232.762 218.087 232.762 218.45V218.641C232.762 219.004 233.044 219.298 233.392 219.298H241.748C242.096 219.298 242.379 219.004 242.379 218.641V218.45C242.379 218.087 242.096 217.793 241.748 217.793Z" fill="white"/>
<path d="M261.802 217.793H253.446C253.098 217.793 252.815 218.087 252.815 218.45V218.641C252.815 219.004 253.098 219.298 253.446 219.298H261.802C262.15 219.298 262.432 219.004 262.432 218.641V218.45C262.432 218.087 262.15 217.793 261.802 217.793Z" fill="white"/>
<path d="M234.81 221.314H233.312C232.964 221.314 232.682 221.609 232.682 221.971V222.162C232.682 222.525 232.964 222.819 233.312 222.819H234.81C235.158 222.819 235.44 222.525 235.44 222.162V221.971C235.44 221.609 235.158 221.314 234.81 221.314Z" fill="white"/>
<path d="M249.849 221.314H248.351C248.003 221.314 247.721 221.609 247.721 221.971V222.162C247.721 222.525 248.003 222.819 248.351 222.819H249.849C250.197 222.819 250.48 222.525 250.48 222.162V221.971C250.48 221.609 250.197 221.314 249.849 221.314Z" fill="white"/>
<path d="M254.111 221.314H252.613C252.265 221.314 251.982 221.609 251.982 221.971V222.162C251.982 222.525 252.265 222.819 252.613 222.819H254.111C254.459 222.819 254.741 222.525 254.741 222.162V221.971C254.741 221.609 254.459 221.314 254.111 221.314Z" fill="white"/>
<path d="M245.759 221.189H237.403C237.055 221.189 236.772 221.484 236.772 221.846V222.037C236.772 222.4 237.055 222.694 237.403 222.694H245.759C246.107 222.694 246.389 222.4 246.389 222.037V221.846C246.389 221.484 246.107 221.189 245.759 221.189Z" fill="white"/>
<path d="M265.812 221.189H257.455C257.107 221.189 256.825 221.484 256.825 221.846V222.037C256.825 222.4 257.107 222.694 257.455 222.694H265.812C266.16 222.694 266.442 222.4 266.442 222.037V221.846C266.442 221.484 266.16 221.189 265.812 221.189Z" fill="white"/>
<path d="M238.82 224.713H237.322C236.974 224.713 236.691 225.007 236.691 225.37V225.561C236.691 225.924 236.974 226.218 237.322 226.218H238.82C239.168 226.218 239.45 225.924 239.45 225.561V225.37C239.45 225.007 239.168 224.713 238.82 224.713Z" fill="white"/>
<path d="M253.86 224.713H252.362C252.014 224.713 251.731 225.007 251.731 225.37V225.561C251.731 225.924 252.014 226.218 252.362 226.218H253.86C254.208 226.218 254.49 225.924 254.49 225.561V225.37C254.49 225.007 254.208 224.713 253.86 224.713Z" fill="white"/>
<path d="M258.122 224.713H256.623C256.275 224.713 255.993 225.007 255.993 225.37V225.561C255.993 225.924 256.275 226.218 256.623 226.218H258.122C258.47 226.218 258.752 225.924 258.752 225.561V225.37C258.752 225.007 258.47 224.713 258.122 224.713Z" fill="white"/>
<path d="M249.77 224.586H241.413C241.065 224.586 240.783 224.88 240.783 225.243V225.434C240.783 225.797 241.065 226.091 241.413 226.091H249.77C250.118 226.091 250.4 225.797 250.4 225.434V225.243C250.4 224.88 250.118 224.586 249.77 224.586Z" fill="white"/>
<path d="M269.824 224.586H261.467C261.119 224.586 260.837 224.88 260.837 225.243V225.434C260.837 225.797 261.119 226.091 261.467 226.091H269.824C270.172 226.091 270.454 225.797 270.454 225.434V225.243C270.454 224.88 270.172 224.586 269.824 224.586Z" fill="white"/>
<path d="M242.831 228.107H241.332C240.984 228.107 240.702 228.402 240.702 228.764V228.955C240.702 229.318 240.984 229.612 241.332 229.612H242.831C243.179 229.612 243.461 229.318 243.461 228.955V228.764C243.461 228.402 243.179 228.107 242.831 228.107Z" fill="white"/>
<path d="M257.871 228.107H256.372C256.024 228.107 255.742 228.402 255.742 228.764V228.955C255.742 229.318 256.024 229.612 256.372 229.612H257.871C258.219 229.612 258.501 229.318 258.501 228.955V228.764C258.501 228.402 258.219 228.107 257.871 228.107Z" fill="white"/>
<path d="M262.131 228.107H260.633C260.285 228.107 260.003 228.402 260.003 228.764V228.955C260.003 229.318 260.285 229.612 260.633 229.612H262.131C262.48 229.612 262.762 229.318 262.762 228.955V228.764C262.762 228.402 262.48 228.107 262.131 228.107Z" fill="white"/>
<path d="M253.781 227.982H245.424C245.076 227.982 244.794 228.277 244.794 228.639V228.83C244.794 229.193 245.076 229.487 245.424 229.487H253.781C254.129 229.487 254.411 229.193 254.411 228.83V228.639C254.411 228.277 254.129 227.982 253.781 227.982Z" fill="white"/>
<path d="M245.84 241.615H244.341C243.993 241.615 243.711 241.909 243.711 242.272V242.463C243.711 242.826 243.993 243.12 244.341 243.12H245.84C246.188 243.12 246.47 242.826 246.47 242.463V242.272C246.47 241.909 246.188 241.615 245.84 241.615Z" fill="white"/>
<path d="M250.1 241.615H248.602C248.254 241.615 247.972 241.909 247.972 242.272V242.463C247.972 242.826 248.254 243.12 248.602 243.12H250.1C250.448 243.12 250.731 242.826 250.731 242.463V242.272C250.731 241.909 250.448 241.615 250.1 241.615Z" fill="white"/>
<path d="M261.802 241.74H253.446C253.098 241.74 252.815 242.034 252.815 242.397V242.588C252.815 242.951 253.098 243.245 253.446 243.245H261.802C262.15 243.245 262.432 242.951 262.432 242.588V242.397C262.432 242.034 262.15 241.74 261.802 241.74Z" fill="white"/>
<path d="M230.798 241.615H229.3C228.952 241.615 228.67 241.909 228.67 242.272V242.463C228.67 242.826 228.952 243.12 229.3 243.12H230.798C231.147 243.12 231.429 242.826 231.429 242.463V242.272C231.429 241.909 231.147 241.615 230.798 241.615Z" fill="white"/>
<path d="M241.748 241.74H233.392C233.044 241.74 232.762 242.034 232.762 242.397V242.588C232.762 242.951 233.044 243.245 233.392 243.245H241.748C242.096 243.245 242.379 242.951 242.379 242.588V242.397C242.379 242.034 242.096 241.74 241.748 241.74Z" fill="white"/>
<path d="M234.81 238.217H233.312C232.964 238.217 232.682 238.511 232.682 238.874V239.065C232.682 239.428 232.964 239.722 233.312 239.722H234.81C235.158 239.722 235.44 239.428 235.44 239.065V238.874C235.44 238.511 235.158 238.217 234.81 238.217Z" fill="white"/>
<path d="M249.849 238.217H248.351C248.003 238.217 247.721 238.511 247.721 238.874V239.065C247.721 239.428 248.003 239.722 248.351 239.722H249.849C250.197 239.722 250.48 239.428 250.48 239.065V238.874C250.48 238.511 250.197 238.217 249.849 238.217Z" fill="white"/>
<path d="M254.111 238.217H252.613C252.265 238.217 251.982 238.511 251.982 238.874V239.065C251.982 239.428 252.265 239.722 252.613 239.722H254.111C254.459 239.722 254.741 239.428 254.741 239.065V238.874C254.741 238.511 254.459 238.217 254.111 238.217Z" fill="white"/>
<path d="M245.759 238.344H237.403C237.055 238.344 236.772 238.638 236.772 239.001V239.192C236.772 239.555 237.055 239.849 237.403 239.849H245.759C246.107 239.849 246.389 239.555 246.389 239.192V239.001C246.389 238.638 246.107 238.344 245.759 238.344Z" fill="white"/>
<path d="M238.82 234.822H237.322C236.974 234.822 236.691 235.116 236.691 235.479V235.67C236.691 236.033 236.974 236.327 237.322 236.327H238.82C239.168 236.327 239.45 236.033 239.45 235.67V235.479C239.45 235.116 239.168 234.822 238.82 234.822Z" fill="white"/>
<path d="M253.86 234.822H252.362C252.014 234.822 251.731 235.116 251.731 235.479V235.67C251.731 236.033 252.014 236.327 252.362 236.327H253.86C254.208 236.327 254.49 236.033 254.49 235.67V235.479C254.49 235.116 254.208 234.822 253.86 234.822Z" fill="white"/>
<path d="M258.122 234.822H256.623C256.275 234.822 255.993 235.116 255.993 235.479V235.67C255.993 236.033 256.275 236.327 256.623 236.327H258.122C258.47 236.327 258.752 236.033 258.752 235.67V235.479C258.752 235.116 258.47 234.822 258.122 234.822Z" fill="white"/>
<path d="M249.77 234.947H241.413C241.065 234.947 240.783 235.241 240.783 235.604V235.795C240.783 236.158 241.065 236.452 241.413 236.452H249.77C250.118 236.452 250.4 236.158 250.4 235.795V235.604C250.4 235.241 250.118 234.947 249.77 234.947Z" fill="white"/>
<path d="M242.831 231.424H241.332C240.984 231.424 240.702 231.718 240.702 232.081V232.272C240.702 232.635 240.984 232.929 241.332 232.929H242.831C243.179 232.929 243.461 232.635 243.461 232.272V232.081C243.461 231.718 243.179 231.424 242.831 231.424Z" fill="white"/>
<path d="M257.871 231.424H256.372C256.024 231.424 255.742 231.718 255.742 232.081V232.272C255.742 232.635 256.024 232.929 256.372 232.929H257.871C258.219 232.929 258.501 232.635 258.501 232.272V232.081C258.501 231.718 258.219 231.424 257.871 231.424Z" fill="white"/>
<path d="M262.131 231.424H260.633C260.285 231.424 260.003 231.718 260.003 232.081V232.272C260.003 232.635 260.285 232.929 260.633 232.929H262.131C262.48 232.929 262.762 232.635 262.762 232.272V232.081C262.762 231.718 262.48 231.424 262.131 231.424Z" fill="white"/>
<path d="M253.781 231.551H245.424C245.076 231.551 244.794 231.845 244.794 232.208V232.399C244.794 232.762 245.076 233.056 245.424 233.056H253.781C254.129 233.056 254.411 232.762 254.411 232.399V232.208C254.411 231.845 254.129 231.551 253.781 231.551Z" fill="white"/>
<path d="M78.8662 207.674V257.11H112.093V207.674C112.093 207.318 111.985 206.972 111.782 206.685C111.58 206.399 111.295 206.188 110.969 206.083C110.815 206.03 110.655 206.004 110.493 206.006H80.4707C80.2603 206.006 80.0518 206.048 79.8573 206.132C79.6627 206.216 79.4859 206.338 79.3369 206.493C79.1879 206.648 79.0696 206.832 78.9889 207.035C78.9081 207.237 78.8664 207.454 78.8662 207.674ZM91.8346 224.66C91.8346 223.68 92.2083 222.739 92.8735 222.046C93.5387 221.353 94.4409 220.963 95.3816 220.963C96.3223 220.963 97.2245 221.353 97.8897 222.046C98.5548 222.739 98.9285 223.68 98.9285 224.66V230.396C98.9285 231.377 98.5548 232.317 97.8897 233.01C97.2245 233.704 96.3223 234.093 95.3816 234.093C94.4409 234.093 93.5387 233.704 92.8735 233.01C92.2083 232.317 91.8346 231.377 91.8346 230.396V224.66Z" fill="#2F2E41"/>
<path d="M78.7646 255.527V260.295C78.7654 260.542 78.8595 260.778 79.0267 260.953C79.1938 261.128 79.4204 261.228 79.6573 261.23H111.302C111.54 261.229 111.767 261.129 111.934 260.954C112.101 260.779 112.195 260.542 112.195 260.295V255.527H78.7646Z" fill="#3F3D56"/>
<path d="M26.5967 133.192V223.455C26.5975 224.605 27.0363 225.708 27.8166 226.521C28.5969 227.335 29.655 227.792 30.7585 227.793H159.087C160.191 227.792 161.249 227.335 162.029 226.521C162.809 225.708 163.248 224.605 163.249 223.455V133.192C163.247 132.043 162.807 130.941 162.027 130.129C161.247 129.316 160.19 128.859 159.087 128.857H30.7585C29.6557 128.859 28.5984 129.316 27.8183 130.128C27.0382 130.941 26.5989 132.043 26.5967 133.192Z" fill="#3F3D56"/>
<path d="M29.6074 134.316V222.342C29.6085 222.956 29.8432 223.545 30.2601 223.98C30.677 224.414 31.2421 224.659 31.8317 224.66H158.018C158.608 224.659 159.173 224.414 159.59 223.98C160.007 223.545 160.242 222.956 160.243 222.342V134.316C160.243 133.7 160.008 133.11 159.591 132.674C159.174 132.239 158.609 131.994 158.018 131.992H31.8317C31.2413 131.994 30.6756 132.239 30.2586 132.674C29.8416 133.11 29.6074 133.7 29.6074 134.316Z" fill="white"/>
<path d="M53.0259 260.907C53.1543 261.075 53.3176 261.21 53.5034 261.303C53.6892 261.395 53.8927 261.443 54.0986 261.442H129.171C129.376 261.442 129.578 261.394 129.764 261.301C129.949 261.209 130.112 261.075 130.241 260.909C130.371 260.743 130.463 260.549 130.511 260.341C130.56 260.133 130.563 259.916 130.521 259.707L129.356 253.937C129.307 253.702 129.203 253.483 129.053 253.3C128.903 253.118 128.711 252.977 128.496 252.891C128.339 252.827 128.173 252.795 128.005 252.795H55.2586C55.0909 252.795 54.9246 252.827 54.7685 252.891C54.5528 252.977 54.3612 253.118 54.211 253.3C54.0607 253.483 53.9568 253.702 53.9085 253.937L52.7432 259.707C52.7019 259.916 52.7058 260.133 52.7546 260.34C52.8035 260.548 52.8962 260.741 53.0259 260.907Z" fill="#2F2E41"/>
<path d="M153.923 144.118H35.8504C35.7259 144.118 35.6065 144.066 35.5184 143.974C35.4303 143.882 35.3809 143.758 35.3809 143.628C35.3809 143.498 35.4303 143.374 35.5184 143.282C35.6065 143.19 35.7259 143.139 35.8504 143.139H153.923C154.047 143.139 154.167 143.19 154.255 143.282C154.343 143.374 154.393 143.498 154.393 143.628C154.393 143.758 154.343 143.882 154.255 143.974C154.167 144.066 154.047 144.118 153.923 144.118Z" fill="#3F3D56"/>
<path d="M43.8883 140.639C45.4079 140.639 46.6398 139.327 46.6398 137.707C46.6398 136.088 45.4079 134.775 43.8883 134.775C42.3686 134.775 41.1367 136.088 41.1367 137.707C41.1367 139.327 42.3686 140.639 43.8883 140.639Z" fill="#3F3D56"/>
<path d="M53.3932 140.639C54.9128 140.639 56.1447 139.327 56.1447 137.707C56.1447 136.088 54.9128 134.775 53.3932 134.775C51.8735 134.775 50.6416 136.088 50.6416 137.707C50.6416 139.327 51.8735 140.639 53.3932 140.639Z" fill="#3F3D56"/>
<path d="M62.899 140.639C64.4187 140.639 65.6506 139.327 65.6506 137.707C65.6506 136.088 64.4187 134.775 62.899 134.775C61.3794 134.775 60.1475 136.088 60.1475 137.707C60.1475 139.327 61.3794 140.639 62.899 140.639Z" fill="#3F3D56"/>
<path d="M223.292 252.75H279.244L280.346 256.606H223.292V252.75Z" fill="#3F3D56"/>
<path d="M148.199 135.5H141.447C141.314 135.504 141.188 135.562 141.095 135.661C141.002 135.761 140.95 135.894 140.95 136.033C140.95 136.171 141.002 136.305 141.095 136.404C141.188 136.504 141.314 136.561 141.447 136.565H148.198C148.267 136.567 148.335 136.555 148.398 136.529C148.462 136.503 148.52 136.464 148.569 136.415C148.618 136.365 148.657 136.306 148.684 136.24C148.71 136.175 148.724 136.104 148.724 136.033C148.724 135.962 148.71 135.891 148.684 135.825C148.657 135.76 148.618 135.7 148.569 135.651C148.52 135.601 148.462 135.562 148.398 135.536C148.335 135.51 148.267 135.498 148.198 135.5H148.199Z" fill="#3F3D56"/>
<path d="M148.199 137.5H141.448C141.312 137.5 141.182 137.556 141.086 137.656C140.99 137.756 140.937 137.891 140.937 138.033C140.937 138.174 140.99 138.31 141.086 138.41C141.182 138.509 141.312 138.566 141.448 138.566H148.199C148.267 138.568 148.335 138.555 148.399 138.529C148.463 138.504 148.521 138.465 148.57 138.415C148.619 138.365 148.658 138.306 148.684 138.24C148.711 138.175 148.725 138.104 148.725 138.033C148.725 137.962 148.711 137.891 148.684 137.826C148.658 137.76 148.619 137.701 148.57 137.651C148.521 137.601 148.463 137.562 148.399 137.537C148.335 137.511 148.267 137.498 148.199 137.5V137.5Z" fill="#3F3D56"/>
<path d="M148.199 139.5H141.447C141.314 139.504 141.188 139.562 141.095 139.661C141.002 139.761 140.95 139.894 140.95 140.033C140.95 140.171 141.002 140.305 141.095 140.404C141.188 140.504 141.314 140.561 141.447 140.565H148.198C148.267 140.567 148.335 140.555 148.398 140.529C148.462 140.503 148.52 140.464 148.569 140.415C148.618 140.365 148.657 140.306 148.684 140.24C148.71 140.175 148.724 140.104 148.724 140.033C148.724 139.962 148.71 139.891 148.684 139.825C148.657 139.76 148.618 139.7 148.569 139.651C148.52 139.601 148.462 139.562 148.398 139.536C148.335 139.51 148.267 139.498 148.198 139.5H148.199Z" fill="#3F3D56"/>
<path d="M302.697 257.632C302.877 258.176 303.217 258.647 303.669 258.977C304.121 259.307 304.662 259.479 305.214 259.469L315.997 259.18C316.553 259.169 317.09 258.97 317.529 258.614C317.968 258.258 318.284 257.763 318.431 257.204L319.956 240.198C320.498 240.453 321.087 240.579 321.681 240.567C322.724 240.54 323.713 240.082 324.432 239.294C325.151 238.506 325.54 237.453 325.513 236.367C325.487 235.28 325.048 234.249 324.292 233.5C323.537 232.751 322.526 232.345 321.484 232.372C321.246 232.372 321.01 232.397 320.777 232.449C320.525 232.164 320.218 231.938 319.876 231.784C319.534 231.63 319.166 231.553 318.794 231.557L302.208 232.003C302.071 232.009 301.934 232.026 301.799 232.056C301.435 232.127 301.09 232.278 300.787 232.499C300.484 232.721 300.23 233.007 300.043 233.339C299.855 233.671 299.737 234.042 299.698 234.425C299.659 234.809 299.699 235.196 299.816 235.562L302.697 257.632ZM320.269 239.043L321.355 234.99C321.479 234.523 321.481 234.029 321.364 233.56C321.416 233.56 321.463 233.533 321.515 233.533C322.261 233.515 322.983 233.807 323.523 234.343C324.063 234.88 324.376 235.619 324.393 236.396C324.411 237.173 324.131 237.926 323.616 238.488C323.101 239.051 322.393 239.377 321.647 239.395C321.166 239.411 320.689 239.29 320.269 239.044V239.043Z" fill="#E6E6E6"/>
<path d="M301.799 232.056C302.152 234.161 306.125 235.643 310.902 235.386C315.295 235.175 318.886 233.567 319.544 231.662C319.301 231.587 319.048 231.551 318.794 231.557L302.208 232.004C302.071 232.009 301.934 232.027 301.799 232.057L301.799 232.056Z" fill="#D6D6E3"/>
<path d="M189.038 220.046C189.038 220.046 153.156 224.557 156.582 220.046C157.823 218.415 158.165 213.581 158.097 208.074C158.075 206.401 158.016 204.669 157.935 202.943C157.538 194.674 156.583 186.592 156.583 186.592C156.583 186.592 187.958 171.18 184.351 183.397C182.909 188.332 183.382 195.265 184.478 201.77C184.799 203.669 185.17 205.529 185.56 207.296C186.51 211.605 187.671 215.861 189.038 220.046Z" fill="#ED9DA0"/>
<path d="M120.93 285.966V285.65L184.263 284.932L222.85 284.557H222.958L222.918 285.113L222.972 284.557H223.041V284.493L223.535 279.437L223.722 277.524L223.78 276.926L223.83 276.426L226.059 268.679L228.288 260.943L230.163 254.429L233.027 244.475C233.027 244.475 231.404 240.528 230.502 239.401C229.601 238.273 226.061 230.203 226.061 230.203C226.061 230.203 221.005 222.926 217.641 222.046C216.231 221.67 213.446 221.17 210.489 220.542C209.382 220.309 200.897 217.755 200.392 217.4C197.741 215.374 191.098 215.145 190.842 215.145C190.842 215.136 190.842 215.127 190.842 215.118V215.085C190.852 214.927 190.852 214.769 190.842 214.611C190.846 214.435 190.836 214.259 190.81 214.085C190.814 214.021 190.805 213.957 190.785 213.897C190.767 213.761 190.744 213.619 190.712 213.469C190.701 213.401 190.687 213.335 190.669 213.269C190.565 212.817 190.413 212.377 190.218 211.958C190.193 211.898 190.161 211.834 190.132 211.773C189.955 211.426 189.75 211.095 189.519 210.785C189.472 210.721 189.422 210.653 189.368 210.59C189.072 210.226 188.743 209.894 188.386 209.597C188.289 209.518 188.188 209.436 188.084 209.36C188.025 209.311 187.964 209.266 187.899 209.225L187.579 209.007L187.279 208.826C187.016 208.676 186.738 208.529 186.436 208.39C186.342 208.345 186.241 208.304 186.14 208.264C186.039 208.224 185.88 208.159 185.747 208.106H185.725L185.454 207.993C185.249 207.922 185.04 207.858 184.82 207.794L184.484 207.704L184.124 207.618L183.763 207.539C183.403 207.464 183.017 207.396 182.613 207.344L182.202 207.291L181.78 207.246L181.343 207.208L180.723 207.171L180.002 207.145C176.82 207.144 173.646 207.496 170.535 208.194C168.376 207.693 166.164 207.481 163.954 207.563H163.64L163.28 207.586H163.048L162.583 207.631C162.425 207.638 162.269 207.657 162.114 207.687C161.959 207.71 161.797 207.729 161.642 207.755L161.404 207.797C161.169 207.839 160.931 207.883 160.683 207.936C160.603 207.951 160.524 207.97 160.445 207.992C160.131 208.064 159.818 208.15 159.507 208.248C159.352 208.293 159.197 208.345 159.042 208.402C158.962 208.424 158.887 208.454 158.811 208.486L158.58 208.572L158.353 208.666L158.083 208.779C157.946 208.839 157.812 208.903 157.679 208.971C157.603 209.004 157.527 209.042 157.455 209.083C157.383 209.125 157.307 209.159 157.239 209.2C156.423 209.639 155.67 210.193 154.999 210.846L154.815 211.031L154.635 211.222C154.573 211.286 154.515 211.354 154.458 211.422C154.223 211.689 154.003 211.972 153.801 212.267C153.744 212.347 153.689 212.425 153.635 212.508C153.406 212.86 153.199 213.227 153.015 213.606C152.968 213.696 152.925 213.79 152.882 213.88C152.588 214.515 152.346 215.175 152.161 215.853C152.094 216.104 152.032 216.354 151.977 216.605C151.977 216.605 144.342 220.116 138.01 222.657C136.326 223.334 134.739 223.947 133.412 224.409C133.026 224.544 132.665 224.668 132.33 224.785C131.602 225.059 130.845 225.24 130.076 225.326C129.713 225.332 129.352 225.367 128.994 225.431C126.084 225.923 121.096 228.062 120.552 230.209C120.508 230.38 120.495 230.559 120.516 230.735C120.516 230.735 108.655 269.012 108.524 269.715C107.999 272.579 106.829 278.033 106.252 280.24C105.823 281.886 105.199 284.141 104.77 285.69C104.764 285.735 104.752 285.78 104.734 285.822L120.901 285.656V285.972H120.952L120.93 285.966Z" fill="#6C63FF"/>
<path d="M190.862 214.626C180.405 216.633 160.714 216.201 152.203 215.897C155.322 204.244 170.533 208.206 170.533 208.206C189.362 204.289 190.804 212.416 190.862 214.626Z" fill="#6C63FF"/>
<path d="M246.378 266.001C246.378 266.001 258.697 264.027 258.939 269.666C259.18 275.304 252.657 279.243 252.657 279.243L246.378 266.001Z" fill="#ED9DA0"/>
<path d="M255.511 277.275C255.511 277.275 255.19 278.072 254.599 279.226C253.704 281.001 252.615 282.663 251.353 284.176L251.256 284.285H250.672L229.849 284.484H229.351L229.29 284.409L225.252 279.414L223.731 277.53L223.669 277.451L223.54 277.293L223.467 277.203L223.374 277.087L220.413 273.426L221.495 268.727L223.338 260.81L223.385 260.618L223.745 259.115L224.001 257.987L224.86 254.311L227.802 241.662L233.031 244.482L238.544 254.634L241.505 260.084H243.127C243.433 260.084 244.136 260.701 244.844 261.411C245.096 261.663 245.348 261.93 245.565 262.163C246.207 262.854 246.715 263.448 246.715 263.448C246.715 263.448 249.344 263.508 250.051 265.666C250.087 265.77 250.117 265.877 250.141 265.985C250.375 266.834 250.681 267.659 251.053 268.451C251.518 269.507 252.103 270.706 252.694 271.905C253.794 274.104 254.912 276.198 255.323 276.956L255.373 277.049L255.511 277.275Z" fill="#6C63FF"/>
<path d="M120.931 285.968V285.652L184.264 284.934L222.851 284.558H222.959V284.494L223.32 279.444L223.475 277.189L224.066 268.688L224.531 261.959V261.794C224.552 261.484 224.539 261.172 224.491 260.866C224.493 260.853 224.493 260.841 224.491 260.828C224.392 260.194 224.144 259.595 223.77 259.084C223.373 258.553 222.852 258.137 222.258 257.874C221.664 257.611 221.015 257.51 220.373 257.581C216.005 258.047 211.595 258.419 207.181 258.708C206.578 258.753 205.976 258.793 205.378 258.825C176.91 260.588 148.698 259.16 133.433 258.073L132.351 257.989C129.707 257.794 127.497 257.613 125.795 257.459C124.858 257.377 123.926 257.659 123.177 258.251C122.429 258.843 121.917 259.704 121.741 260.666C121.705 260.869 121.683 261.075 121.676 261.282L121.431 269.612L121.096 280.163L120.937 285.561V285.982L120.931 285.968Z" fill="#090814"/>
<path d="M168.102 203.95C179.638 203.95 188.99 194.202 188.99 182.177C188.99 170.152 179.638 160.404 168.102 160.404C156.565 160.404 147.213 170.152 147.213 182.177C147.213 194.202 156.565 203.95 168.102 203.95Z" fill="#ED9DA0"/>
<path d="M196.336 166.969C196.174 166.789 195.979 166.644 195.762 166.544C195.545 166.445 195.312 166.391 195.075 166.388L195.389 165.478C195.491 165.192 195.518 164.883 195.468 164.582C195.418 164.281 195.292 163.999 195.103 163.766C194.914 163.532 194.669 163.355 194.393 163.253C194.117 163.15 193.82 163.126 193.532 163.182L192.388 163.412L192.496 162.615C192.537 162.318 192.504 162.015 192.399 161.736C192.294 161.457 192.121 161.211 191.898 161.023C191.674 160.834 191.407 160.71 191.123 160.662C190.839 160.614 190.548 160.644 190.278 160.749C190.033 160.849 189.769 160.891 189.506 160.872C189.244 160.852 188.988 160.772 188.759 160.636C188.529 160.505 188.33 160.322 188.174 160.102C188.019 159.882 187.911 159.629 187.859 159.361L187.461 157.358L187.42 157.25C185.48 153.878 181.748 151.426 177.182 150.526C173.117 149.72 168.95 150.131 164.932 150.517C163.338 150.673 161.538 150.849 160.038 151.807C158.763 152.628 157.684 154.269 157.905 155.926C153.943 154.66 149.696 157.188 147.591 160.372C145.097 164.164 144.69 168.916 144.624 172.627C144.446 181.413 146.185 188.601 149.78 193.996C150.043 194.387 150.109 195.203 150.628 195.476L150.52 195.295C151.102 195.598 151.691 196.087 151.472 196.609C150.839 198.114 155.045 201.442 158.007 202.543C163.413 204.552 170.599 204.381 175.651 203.657L175.829 202.411C177.653 202.152 178.938 201.659 179.298 200.886C179.936 200.32 180.48 199.812 180.954 199.342L180.958 199.337C180.968 199.328 180.987 199.313 180.996 199.303C183.279 197.021 183.809 195.721 184.048 193.743C184.278 191.803 183.87 189.833 183.452 188.061C192.238 189.478 179.993 178.308 188.176 176.148C188.27 176.118 188.365 176.093 188.462 176.075C188.701 176.016 188.94 175.957 189.17 175.889C190.277 175.576 191.337 175.104 192.319 174.487C194.607 173.036 195.362 171.111 196.543 168.941C196.714 168.632 196.785 168.275 196.747 167.921C196.709 167.566 196.564 167.234 196.332 166.972L196.336 166.969Z" fill="#090814"/>
<path d="M77.1603 162.131H112.306C113.042 162.131 113.747 162.436 114.268 162.978C114.788 163.52 115.08 164.256 115.08 165.023C115.08 165.79 114.788 166.525 114.268 167.068C113.747 167.61 113.042 167.915 112.306 167.915H77.1603C76.4244 167.915 75.7187 167.61 75.1984 167.068C74.6781 166.525 74.3857 165.79 74.3857 165.023C74.3857 164.256 74.6781 163.52 75.1984 162.978C75.7187 162.436 76.4244 162.131 77.1603 162.131Z" fill="#6C63FF"/>
<path d="M67.9113 175.629H121.555C122.291 175.629 122.996 175.934 123.517 176.476C124.037 177.018 124.329 177.754 124.329 178.521C124.329 179.288 124.037 180.024 123.517 180.566C122.996 181.108 122.291 181.413 121.555 181.413H67.9113C67.1754 181.413 66.4697 181.108 65.9494 180.566C65.429 180.024 65.1367 179.288 65.1367 178.521C65.1367 177.754 65.429 177.018 65.9494 176.476C66.4697 175.934 67.1754 175.629 67.9113 175.629Z" fill="#E6E6E6"/>
<path d="M67.9113 189.123H121.555C122.291 189.123 122.996 189.428 123.517 189.97C124.037 190.512 124.329 191.248 124.329 192.015C124.329 192.782 124.037 193.518 123.517 194.06C122.996 194.602 122.291 194.907 121.555 194.907H67.9113C67.1754 194.907 66.4697 194.602 65.9494 194.06C65.429 193.518 65.1367 192.782 65.1367 192.015C65.1367 191.248 65.429 190.512 65.9494 189.97C66.4697 189.428 67.1754 189.123 67.9113 189.123Z" fill="#E6E6E6"/>
</g>
<path d="M15 286L397 286" stroke="url(#paint0_linear_4001_2106)" stroke-width="5"/>
<g opacity="0.88">
<rect x="94" y="426.365" width="195.839" height="195.839" rx="20" fill="#E8E9E9"/>
<g clip-path="url(#clip1_4001_2106)">
<path d="M346.942 563.525C346.76 563.722 346.578 563.925 346.401 564.128C343.936 566.869 341.709 569.799 339.742 572.888C339.583 573.125 339.43 573.368 339.289 573.604C334.632 581.068 331.463 589.296 329.941 597.868C329.6 599.808 329.343 601.758 329.17 603.72C329.047 605.231 328.972 606.744 328.947 608.258C328.852 614.617 329.441 621.693 325.164 626.552C324.021 627.831 322.625 628.881 321.058 629.642C319.877 630.227 318.629 630.679 317.339 630.989H304.003C303.332 630.893 302.662 630.792 301.991 630.69C301.973 630.69 301.956 630.684 301.938 630.684L301.803 630.73L300.997 630.989L300.961 631V630.989C300.962 630.966 300.96 630.943 300.956 630.921C300.957 630.88 300.955 630.838 300.95 630.797V630.792C300.944 630.679 300.938 630.572 300.938 630.459L300.92 630.16C300.92 630.16 300.914 630.155 300.92 630.155C300.914 629.985 300.903 629.816 300.897 629.642C300.279 614.928 301.785 599.723 309.033 586.768C311.518 582.329 314.719 578.294 318.516 574.811C318.538 574.789 318.562 574.768 318.587 574.749C326.123 567.86 335.865 563.355 346.148 563.508C346.413 563.508 346.678 563.513 346.942 563.525Z" fill="#F0F0F0"/>
<path d="M346.972 563.843C335.325 569.571 325.858 578.669 319.915 589.847C318.591 592.231 317.667 594.801 317.178 597.461C316.789 600.067 317.136 602.725 318.181 605.159C319.108 607.448 320.334 609.686 320.664 612.151C320.814 613.415 320.683 614.695 320.28 615.907C319.878 617.119 319.212 618.236 318.327 619.184C316.187 621.603 313.267 623.139 310.358 624.547C307.127 626.11 303.746 627.685 301.503 630.511C301.231 630.853 300.693 630.429 300.964 630.087C304.866 625.171 311.739 624.098 316.42 620.1C318.604 618.235 320.214 615.727 320.032 612.839C319.874 610.314 318.612 608.005 317.652 605.695C316.596 603.335 316.159 600.763 316.379 598.203C316.725 595.528 317.544 592.928 318.8 590.516C321.538 585.043 325.157 580.016 329.524 575.619C334.479 570.575 340.298 566.381 346.73 563.217C347.128 563.021 347.368 563.649 346.972 563.843Z" fill="white"/>
<path d="M321.607 586.139C319.786 584.929 318.473 583.137 317.902 581.085C317.331 579.033 317.541 576.853 318.492 574.934C318.686 574.547 319.324 574.818 319.13 575.206C318.24 576.99 318.045 579.021 318.581 580.931C319.116 582.841 320.346 584.505 322.049 585.622C322.419 585.865 321.975 586.381 321.607 586.139Z" fill="white"/>
<path d="M317.552 604.057C322.017 603.322 326.029 601 328.788 597.556C329.061 597.214 329.6 597.638 329.327 597.979C326.449 601.559 322.269 603.966 317.621 604.722C317.177 604.794 317.111 604.129 317.552 604.057Z" fill="white"/>
<path d="M334.845 571.388C335.448 571.997 336.2 572.452 337.032 572.714C337.864 572.976 338.751 573.036 339.614 572.888C340.056 572.811 340.121 573.476 339.682 573.553C338.729 573.712 337.749 573.645 336.829 573.357C335.909 573.07 335.076 572.571 334.403 571.904C334.334 571.846 334.291 571.766 334.282 571.678C334.273 571.591 334.299 571.504 334.355 571.434C334.414 571.366 334.498 571.323 334.59 571.314C334.682 571.305 334.774 571.332 334.845 571.388Z" fill="white"/>
<path d="M379.422 604.317C379.151 604.374 378.881 604.43 378.604 604.492H378.598C374.912 605.26 371.296 606.312 367.786 607.638C367.515 607.739 367.244 607.841 366.974 607.948H366.968C358.601 611.213 350.934 615.929 344.354 621.861C344.33 621.884 344.307 621.901 344.283 621.923C344.269 621.94 344.253 621.955 344.236 621.968L344.207 621.997C341.596 624.367 339.175 626.922 336.965 629.641C336.965 629.647 336.959 629.652 336.953 629.658C336.6 630.098 336.241 630.537 335.888 630.988H300.997L300.962 631V630.988H300.814C300.814 630.983 300.82 630.977 300.826 630.972C300.826 630.966 300.832 630.966 300.832 630.96C300.873 630.904 300.914 630.848 300.95 630.797V630.791C300.959 630.774 300.971 630.759 300.985 630.746C301.02 630.69 301.062 630.645 301.091 630.594C301.326 630.278 301.556 629.957 301.791 629.641C302.173 629.117 302.562 628.593 302.956 628.074L302.956 628.072L302.958 628.07L302.959 628.069L302.962 628.068V628.063C302.968 628.057 302.968 628.051 302.973 628.046L302.985 628.034C307.839 621.596 313.298 615.485 319.552 610.366C319.74 610.209 319.928 610.051 320.128 609.904C322.96 607.608 325.984 605.54 329.17 603.72C330.911 602.733 332.706 601.827 334.553 601.002C339.318 598.898 344.398 597.525 349.607 596.932H349.619C349.631 596.932 349.643 596.927 349.66 596.927C349.678 596.927 349.69 596.921 349.701 596.921C360.061 595.771 370.68 597.795 378.804 603.849C379.016 604.007 379.216 604.159 379.422 604.317Z" fill="#F0F0F0"/>
<path d="M300.815 630.989H300.962V631L300.997 630.989H310.333C307.55 630.532 304.774 630.177 301.991 630.69C301.926 630.701 301.868 630.713 301.803 630.729C301.521 630.78 301.238 630.848 300.956 630.921C300.938 630.927 300.915 630.932 300.897 630.938C300.871 630.945 300.847 630.956 300.826 630.972C300.811 630.974 300.797 630.98 300.785 630.989H300.815Z" fill="white"/>
<path d="M379.252 604.593C379.034 604.559 378.822 604.52 378.605 604.492H378.599C374.06 603.783 369.453 603.559 364.862 603.827C364.633 603.838 364.398 603.855 364.162 603.866C357.79 604.292 351.526 605.659 345.59 607.919C345.584 607.919 345.584 607.919 345.584 607.925C345.519 607.948 345.455 607.97 345.396 607.993C344.013 608.528 342.648 609.115 341.313 609.746C338.757 610.886 336.405 612.404 334.342 614.245C332.69 615.807 331.439 617.716 330.688 619.82C330.612 620.034 330.535 620.243 330.465 620.457C330.412 620.626 330.359 620.801 330.306 620.97C329.612 623.332 329.182 625.824 327.9 627.983C327.543 628.586 327.108 629.143 326.606 629.641C326.087 630.158 325.502 630.611 324.864 630.988H323.382C324.193 630.652 324.945 630.198 325.611 629.641C326.13 629.213 326.583 628.717 326.959 628.169C328.418 626.061 328.865 623.49 329.547 621.094C329.659 620.705 329.777 620.328 329.906 619.95C330.585 617.883 331.723 615.981 333.242 614.374C335.198 612.438 337.484 610.835 340.001 609.633C341.589 608.833 343.221 608.107 344.896 607.457C345.113 607.367 345.331 607.288 345.549 607.209C356.123 603.266 367.605 602.105 378.805 603.849C379.022 603.877 379.234 603.917 379.452 603.951C379.893 604.024 379.693 604.667 379.252 604.593Z" fill="white"/>
<path d="M344.992 607.76C344.298 605.743 344.375 603.555 345.209 601.587C346.043 599.619 347.58 597.999 349.545 597.017C349.943 596.819 350.282 597.403 349.883 597.601C348.051 598.513 346.62 600.022 345.848 601.856C345.075 603.69 345.012 605.728 345.67 607.603C345.812 608.01 345.134 608.165 344.992 607.76Z" fill="white"/>
<path d="M330.496 619.726C334.524 621.715 339.186 622.177 343.553 621.018C343.985 620.903 344.149 621.552 343.717 621.667C339.17 622.865 334.32 622.375 330.133 620.297C329.735 620.098 330.1 619.529 330.496 619.726Z" fill="white"/>
<path d="M364.83 603.62C364.928 604.454 365.242 605.252 365.742 605.941C366.242 606.631 366.913 607.19 367.694 607.57C368.095 607.763 367.73 608.332 367.331 608.14C366.47 607.717 365.73 607.098 365.176 606.337C364.622 605.577 364.27 604.698 364.152 603.778C364.133 603.692 364.15 603.602 364.197 603.527C364.245 603.452 364.321 603.398 364.409 603.374C364.499 603.354 364.593 603.368 364.672 603.414C364.751 603.46 364.807 603.534 364.83 603.62Z" fill="white"/>
<path d="M372.017 394.159C372.176 375.493 372.968 356.646 374.393 337.62C374.417 337.242 374.446 336.87 374.476 336.492C375.229 326.587 376.151 316.646 377.241 306.67V306.613C377.24 304.969 376.558 303.392 375.344 302.23C374.131 301.067 372.486 300.413 370.77 300.412H197.224C195.513 300.415 193.874 301.066 192.662 302.222C191.45 303.378 190.764 304.946 190.752 306.585C189.246 320.324 188.066 333.995 187.211 347.598C187.176 348.044 187.152 348.483 187.129 348.929C186.705 355.654 186.368 362.363 186.117 369.055C186.099 369.449 186.081 369.844 186.076 370.239C184.469 411.297 186.033 452.412 190.752 493.249C190.765 494.887 191.452 496.454 192.664 497.609C193.876 498.764 195.514 499.414 197.224 499.417H370.77C372.486 499.416 374.131 498.762 375.344 497.6C376.558 496.437 377.24 494.86 377.241 493.216V493.154C376.388 485.898 375.639 478.596 374.994 471.246C374.899 470.169 374.807 469.093 374.717 468.016C374.27 462.722 373.88 457.408 373.546 452.073C373.476 450.996 373.411 449.919 373.352 448.843C372.723 438.165 372.311 427.405 372.117 416.562C372.093 415.485 372.076 414.414 372.058 413.332C371.987 408.038 371.966 402.724 371.993 397.389C371.993 396.312 371.999 395.235 372.017 394.159Z" fill="#F0F0F0"/>
<path d="M397 328.281C396.999 326.637 396.317 325.06 395.104 323.897C393.89 322.735 392.245 322.081 390.529 322.08H216.983C215.273 322.083 213.633 322.734 212.421 323.89C211.209 325.046 210.523 326.614 210.512 328.253C204.653 381.793 203.682 434.385 207.606 485.005C208.082 491.268 208.639 497.499 209.277 503.699C209.618 507.019 209.981 510.33 210.365 513.632C210.412 514.061 210.459 514.489 210.512 514.917C210.524 516.555 211.211 518.122 212.423 519.277C213.635 520.432 215.274 521.082 216.983 521.085H390.529C392.245 521.084 393.89 520.43 395.104 519.268C396.317 518.105 396.999 516.528 397 514.884V514.822C389.982 455.193 389.982 392.453 397 328.338V328.281Z" fill="white"/>
<path d="M397 328.281C396.999 326.637 396.317 325.06 395.104 323.897C393.89 322.735 392.245 322.081 390.529 322.08H216.983C215.273 322.083 213.633 322.734 212.421 323.89C211.209 325.046 210.523 326.614 210.512 328.253C204.653 381.793 203.682 434.385 207.606 485.005C208.082 491.268 208.639 497.499 209.277 503.699C209.618 507.019 209.981 510.33 210.365 513.632C210.412 514.061 210.459 514.489 210.512 514.917C210.524 516.555 211.211 518.122 212.423 519.277C213.635 520.432 215.274 521.082 216.983 521.085H390.529C392.245 521.084 393.89 520.43 395.104 519.268C396.317 518.105 396.999 516.528 397 514.884V514.822C389.982 455.193 389.982 392.453 397 328.338V328.281ZM395.824 514.917C395.813 516.257 395.251 517.538 394.259 518.482C393.268 519.426 391.927 519.956 390.529 519.957H216.983C215.58 519.955 214.234 519.42 213.242 518.469C212.249 517.518 211.691 516.229 211.689 514.884V514.822C211.647 514.461 211.606 514.094 211.565 513.734C211.159 510.283 210.781 506.824 210.43 503.355C209.812 497.272 209.265 491.155 208.788 485.005C204.864 434.414 205.829 381.855 211.689 328.338V328.281C211.691 326.936 212.249 325.647 213.242 324.696C214.234 323.745 215.58 323.21 216.983 323.208H390.529C391.928 323.208 393.27 323.739 394.262 324.684C395.254 325.63 395.815 326.913 395.824 328.253C388.805 392.42 388.805 455.227 395.824 514.917Z" fill="#E4E4E4"/>
<path d="M228.946 389.443C228.499 389.444 228.071 389.615 227.755 389.918C227.44 390.221 227.263 390.631 227.263 391.059C227.263 391.487 227.44 391.898 227.755 392.201C228.071 392.504 228.499 392.674 228.946 392.675H324.687C325.134 392.674 325.562 392.504 325.877 392.201C326.193 391.898 326.37 391.487 326.37 391.059C326.37 390.631 326.193 390.221 325.877 389.918C325.562 389.615 325.134 389.444 324.687 389.443H228.946Z" fill="#E6E6E6"/>
<path d="M228.946 398.92C228.499 398.921 228.071 399.091 227.755 399.394C227.44 399.697 227.263 400.108 227.263 400.536C227.263 400.964 227.44 401.374 227.755 401.677C228.071 401.98 228.499 402.151 228.946 402.152H369.978C370.424 402.151 370.852 401.98 371.168 401.677C371.483 401.374 371.661 400.964 371.661 400.536C371.661 400.108 371.483 399.697 371.168 399.394C370.852 399.091 370.424 398.921 369.978 398.92H228.946Z" fill="#E6E6E6"/>
<path d="M228.945 408.617C228.499 408.618 228.071 408.789 227.756 409.092C227.441 409.395 227.264 409.805 227.264 410.233C227.264 410.661 227.441 411.071 227.756 411.374C228.071 411.677 228.499 411.848 228.945 411.849H324.687C325.133 411.848 325.561 411.677 325.876 411.374C326.192 411.071 326.369 410.661 326.369 410.233C326.369 409.805 326.192 409.395 325.876 409.092C325.561 408.789 325.133 408.618 324.687 408.617H228.945Z" fill="#E6E6E6"/>
<path d="M228.945 434.432C228.499 434.433 228.071 434.604 227.756 434.906C227.441 435.209 227.264 435.62 227.264 436.048C227.264 436.475 227.441 436.886 227.756 437.189C228.071 437.492 228.499 437.662 228.945 437.663H369.977C370.424 437.662 370.851 437.492 371.167 437.189C371.482 436.886 371.659 436.475 371.659 436.048C371.659 435.62 371.482 435.209 371.167 434.906C370.851 434.604 370.424 434.433 369.977 434.432H228.945Z" fill="#E6E6E6"/>
<path d="M228.946 444.127C228.499 444.128 228.071 444.298 227.755 444.601C227.44 444.904 227.263 445.315 227.263 445.743C227.263 446.171 227.44 446.581 227.755 446.884C228.071 447.187 228.499 447.358 228.946 447.359H324.687C325.134 447.358 325.562 447.187 325.877 446.884C326.193 446.581 326.37 446.171 326.37 445.743C326.37 445.315 326.193 444.904 325.877 444.601C325.562 444.298 325.134 444.128 324.687 444.127H228.946Z" fill="#E6E6E6"/>
<path d="M228.946 453.604C228.499 453.604 228.071 453.775 227.755 454.078C227.44 454.381 227.263 454.791 227.263 455.219C227.263 455.647 227.44 456.058 227.755 456.361C228.071 456.664 228.499 456.835 228.946 456.835H369.978C370.424 456.835 370.852 456.664 371.168 456.361C371.483 456.058 371.661 455.647 371.661 455.219C371.661 454.791 371.483 454.381 371.168 454.078C370.852 453.775 370.424 453.604 369.978 453.604H228.946Z" fill="#E6E6E6"/>
<path d="M228.945 463.301C228.499 463.302 228.071 463.473 227.756 463.776C227.441 464.078 227.264 464.489 227.264 464.917C227.264 465.345 227.441 465.755 227.756 466.058C228.071 466.361 228.499 466.531 228.945 466.533H324.687C325.133 466.531 325.561 466.361 325.876 466.058C326.192 465.755 326.369 465.345 326.369 464.917C326.369 464.489 326.192 464.078 325.876 463.776C325.561 463.473 325.133 463.302 324.687 463.301H228.945Z" fill="#E6E6E6"/>
<path d="M350.429 492.715L342.178 495.328C340.803 495.763 339.428 496.199 338.053 496.634C336.779 497.036 335.401 497.514 334.037 497.341C333.095 497.222 332.021 496.702 331.727 495.773C331.45 494.894 332.039 493.974 332.752 493.454C334.721 492.019 337.21 493.48 338.605 494.966C340.312 496.785 341.278 499.132 342.878 501.035C344.303 502.742 346.109 504.12 348.164 505.069C352.247 506.917 357.228 506.72 360.87 504.028C365.219 500.813 365.663 495.241 365.686 490.379C365.678 490.16 365.582 489.952 365.417 489.8C365.252 489.648 365.032 489.562 364.804 489.562C364.575 489.562 364.355 489.648 364.19 489.8C364.025 489.952 363.929 490.16 363.921 490.379C363.9 494.785 363.639 500.186 359.447 502.943C355.431 505.584 350.153 504.883 346.456 502.07C344.396 500.502 343.129 498.457 341.776 496.34C340.456 494.273 338.816 492.269 336.331 491.466C335.266 491.095 334.099 491.088 333.028 491.446C331.958 491.804 331.049 492.505 330.456 493.431C330.186 493.868 330.015 494.356 329.956 494.861C329.897 495.366 329.951 495.877 330.114 496.361C330.277 496.844 330.546 497.289 330.903 497.665C331.26 498.041 331.696 498.34 332.183 498.542C335.064 499.858 338.36 498.316 341.135 497.438L350.898 494.346C351.971 494.006 351.512 492.372 350.429 492.715Z" fill="#37338A"/>
<path d="M325.978 617.023L320.193 618.85L310.087 598.335L318.626 595.639L325.978 617.023Z" fill="#9F616A"/>
<path d="M330.105 621.681L329.711 620.537L328.676 617.521L327.97 615.469L326.04 616.078L325.64 616.049L320.34 615.706L319.634 615.66L318.586 615.593L317.504 615.519L314.48 619.731H314.474C313.344 620.083 312.298 620.648 311.397 621.391C310.496 622.134 309.759 623.042 309.227 624.06C309.162 624.184 309.103 624.308 309.044 624.432C308.898 624.736 308.775 625.048 308.674 625.368C308.216 626.75 308.131 628.22 308.427 629.641C308.503 629.994 308.599 630.342 308.715 630.684L308.733 630.741L308.803 630.949L309.227 630.814L312.945 629.641L325.97 625.532L328.552 624.714L329.346 624.461H329.352L330.894 623.976L330.105 621.681Z" fill="#2F2E41"/>
<path d="M271.138 621.846L265.046 621.845L262.148 599.33L271.139 599.331L271.138 621.846Z" fill="#9F616A"/>
<path d="M261.39 523.145L258.689 527.621C258.689 527.621 255.722 528.398 256.692 537.666C257.377 544.211 257.599 573.515 259.323 592.553C260.04 600.476 261.018 606.621 262.397 608.607L263.246 609.336L272.11 610.147L272.334 610.072L275.588 588.043C276.173 584.089 276.085 580.069 275.329 576.142L274.741 569.941L282.902 538.541C282.902 538.541 291.213 558.665 296.508 577.833C297.782 582.447 302.624 585.382 304.459 589.341C305.074 590.667 305.678 591.953 306.268 593.186C310.15 601.308 312.096 607.221 313.568 607.712H314.745L321.804 605.457L323.193 602.111L312.392 571.632L304.303 522.419C288.892 514.478 274.435 513.595 261.39 523.145Z" fill="#2F2E41"/>
<path d="M305.539 456.835C305.007 455.712 304.381 454.631 303.668 453.604C302.038 451.17 299.773 449.186 297.097 447.849L294.779 447.358L290.626 446.479L288.437 444.128L284.849 440.277H272.494L270.841 444.128L269.453 447.358L268.859 448.734L258.281 453.802C258.275 453.802 258.275 453.802 258.27 453.807C258.411 454.822 258.55 455.831 258.687 456.835C258.987 459.016 259.27 461.172 259.534 463.301C259.67 464.383 259.799 465.46 259.923 466.531C260.317 469.891 260.656 473.193 260.94 476.436C261.193 479.334 261.395 482.19 261.546 485.006C261.914 491.399 261.942 497.806 261.629 504.201C261.546 505.707 263.105 507.42 262.982 508.892C262.776 511.293 260.84 513.424 260.499 515.719C260.287 517.128 260.382 518.628 260.011 519.958C259.908 520.347 259.754 520.723 259.552 521.074C259.552 521.08 259.546 521.08 259.546 521.086C255.31 528.336 258.634 524.874 258.24 526.503L258.428 526.548C258.517 526.571 258.787 526.639 259.223 526.735C261.711 527.304 271.971 518.075 278.86 518.075C282.995 518.075 293.944 524.592 297.609 525.066C300.509 525.438 303.097 525.776 304.639 524.474C305.086 524.094 305.428 523.614 305.633 523.076L305.651 523.025L305.645 522.974L305.498 521.086L305.409 519.958L304.15 503.778C303.447 502.943 303.003 501.935 302.868 500.87C302.733 499.805 302.912 498.724 303.386 497.752L303.644 497.228L302.691 485.005L302.515 482.722L302.45 481.95V481.944L301.991 476.042L303.097 472.817V472.812L305.251 466.531L306.357 463.301L307.051 461.272L307.098 461.136C306.727 459.657 306.205 458.216 305.539 456.835Z" fill="#37338A"/>
<path d="M316.271 515.131L304.412 485.759L298.903 475.033L309.496 469.426L318.026 483.829L323.745 513.923C324.645 514.512 325.341 515.345 325.743 516.316C326.145 517.287 326.235 518.351 326.002 519.371C325.768 520.391 325.222 521.321 324.432 522.041C323.643 522.762 322.647 523.239 321.572 523.413C320.498 523.587 319.393 523.449 318.401 523.016C317.409 522.584 316.574 521.877 316.004 520.987C315.435 520.097 315.156 519.063 315.203 518.02C315.251 516.977 315.623 515.971 316.271 515.131Z" fill="#9F616A"/>
<path d="M316.51 474.666L313.475 472.783L309.986 466.531L308.186 463.301L307.05 461.271L306.568 460.403L301.115 456.835L297.432 454.422L294.431 456.835L293.002 457.985L294.402 463.301L295.249 466.531L297.096 473.539L302.515 482.722L303.862 485.005L304.632 486.319L304.638 486.33L304.744 486.505L318.434 485.958L318.863 485.941L318.887 485.005L318.899 484.667C318.904 484.498 318.904 484.329 318.904 484.16C318.903 480.858 318.082 477.604 316.51 474.666Z" fill="#37338A"/>
<path d="M212.897 503.451L237.159 482.206L245.591 473.396L254.886 480.822L243.973 493.664L216.783 509.687C216.536 510.704 215.978 511.628 215.18 512.339C214.382 513.051 213.38 513.517 212.304 513.678C211.227 513.84 210.124 513.689 209.137 513.246C208.151 512.802 207.325 512.086 206.766 511.189C206.207 510.292 205.941 509.256 206.002 508.213C206.062 507.17 206.447 506.169 207.106 505.337C207.765 504.505 208.668 503.881 209.7 503.545C210.732 503.209 211.845 503.176 212.897 503.451Z" fill="#9F616A"/>
<path d="M262.981 466.53L262.934 463.3L262.846 456.833L262.811 454.325L262.711 454.257C262.163 453.913 261.542 453.689 260.893 453.603C260.322 453.512 259.74 453.512 259.169 453.603C258.869 453.648 258.572 453.714 258.281 453.8C258.275 453.8 258.275 453.8 258.269 453.806C256.525 454.406 254.986 455.451 253.816 456.828L253.81 456.833C252.046 458.844 250.482 461.009 249.139 463.3C248.474 464.382 247.839 465.476 247.245 466.53C244.997 470.538 243.38 474.011 243.35 474.073L236.632 482.433L236.726 482.586L238.203 485.004L243.615 493.872L244.474 495.281L246.668 494.16C249.226 492.852 251.243 490.748 252.386 488.195L253.169 485.331L253.457 485.004L260.94 476.435L263.081 473.977L262.981 466.53Z" fill="#37338A"/>
<path d="M288.622 429.245C289.624 423.328 285.431 417.754 279.257 416.794C273.083 415.834 267.266 419.852 266.264 425.768C265.262 431.684 269.455 437.259 275.629 438.219C281.803 439.179 287.62 435.161 288.622 429.245Z" fill="#9F616A"/>
<path d="M266.495 420.391C265.992 418.703 264.985 417.256 265.489 417.256C265.992 417.256 266.244 416.05 266.244 416.05C266.244 416.05 266.747 415.809 266.999 416.05C267.25 416.291 267.502 414.362 267.502 414.362C267.502 414.362 267.754 413.638 268.005 414.12C268.257 414.603 268.257 414.362 268.509 413.638C268.76 412.915 270.019 412.432 270.019 412.432C270.019 412.432 274.8 412.673 275.555 411.709C276.31 410.744 284.867 411.468 286.629 412.673C288.391 413.879 295.331 416.035 291.213 422.8C293.566 426.746 290.053 433.785 289.146 434.62C287.71 435.94 286.716 436.417 279.925 437.712C278.595 437.965 275.329 427.31 275.329 427.31C275.329 427.31 266.999 422.079 266.495 420.391Z" fill="#2F2E41"/>
<path d="M271.506 620.964L271.141 620.823L264.588 618.264L263.582 617.875L259.334 620.964H259.328C256.928 620.967 254.628 621.882 252.931 623.509C251.235 625.136 250.282 627.341 250.28 629.641V629.922H273.535V620.964H271.506Z" fill="#2F2E41"/>
<path d="M339.859 630.311C339.86 630.4 339.842 630.488 339.807 630.569C339.772 630.651 339.72 630.726 339.655 630.789C339.59 630.851 339.513 630.901 339.428 630.936C339.343 630.97 339.251 630.988 339.159 630.988H219.559C219.373 630.988 219.194 630.917 219.062 630.791C218.931 630.664 218.856 630.493 218.856 630.314C218.856 630.136 218.931 629.964 219.062 629.838C219.194 629.712 219.373 629.641 219.559 629.641H339.159C339.345 629.641 339.522 629.712 339.654 629.838C339.785 629.963 339.859 630.134 339.859 630.311Z" fill="#CCCCCC"/>
<path d="M243.687 300.412C242.761 316.179 236.713 331.273 226.39 343.582C216.067 355.89 201.985 364.797 186.116 369.055C186.099 369.449 186.081 369.844 186.075 370.239C202.272 365.969 216.661 356.931 227.209 344.402C237.758 331.873 243.933 316.486 244.863 300.412H243.687Z" fill="white"/>
<path d="M225.667 300.412C222.933 310.366 218.114 319.683 211.502 327.795C204.891 335.907 196.626 342.645 187.21 347.598C187.175 348.044 187.151 348.483 187.128 348.929C196.886 343.904 205.455 337 212.296 328.651C219.138 320.302 224.105 310.688 226.885 300.412H225.667Z" fill="white"/>
</g>
</g>
</g>
<defs>
<linearGradient id="paint0_linear_4001_2106" x1="15" y1="286.5" x2="397" y2="286.5" gradientUnits="userSpaceOnUse">
<stop stop-color="#143A62" stop-opacity="0"/>
<stop offset="0.533654" stop-color="#143A62"/>
<stop offset="1" stop-color="#143A62" stop-opacity="0"/>
</linearGradient>
<clipPath id="clip0_4001_2106">
<rect width="412" height="631" fill="white"/>
</clipPath>
<clipPath id="clip1_4001_2106">
<rect width="238.817" height="345" fill="white" transform="translate(158.184 286)"/>
</clipPath>
</defs>
</svg>
