<svg width="24" height="32" viewBox="0 0 24 32" fill="none" xmlns="http://www.w3.org/2000/svg">
<path d="M12 0C5.373 0 0 5.373 0 12C0 14.6095 0.8555 17.004 2.2775 18.965C2.303 19.012 2.307 19.0645 2.336 19.1095L10.336 31.1095C10.707 31.666 11.332 32 12 32C12.668 32 13.293 31.666 13.664 31.1095L21.664 19.1095C21.6935 19.0645 21.697 19.012 21.7225 18.965C23.1445 17.004 24 14.6095 24 12C24 5.373 18.627 0 12 0ZM12 16C9.791 16 8 14.209 8 12C8 9.791 9.791 8 12 8C14.209 8 16 9.791 16 12C16 14.209 14.209 16 12 16Z" fill="#143A62"/>
</svg>
