<svg width="30" height="30" viewBox="0 0 30 30" fill="none" xmlns="http://www.w3.org/2000/svg">
<circle cx="15" cy="15" r="15" fill="#143A62"/>
<path fill-rule="evenodd" clip-rule="evenodd" d="M9.17591 10.1684C12.0954 7.25302 16.8413 7.28402 19.7786 10.2214C22.7172 13.16 22.747 17.9087 19.8279 20.8279C16.9086 23.747 12.1599 23.7172 9.22134 20.7786C7.47992 19.0372 6.7608 16.6615 7.06959 14.4086C7.11286 14.0929 7.40385 13.8721 7.71952 13.9154C8.03519 13.9587 8.25602 14.2496 8.21275 14.5653C7.95123 16.4732 8.55986 18.4854 10.0372 19.9628C12.533 22.4585 16.5511 22.4728 19.0119 20.0119C21.4728 17.5511 21.4585 13.533 18.9627 11.0373C16.4682 8.54278 12.453 8.52722 9.99181 10.9843L10.567 10.9872C10.8856 10.9888 11.1426 11.2484 11.141 11.567C11.1394 11.8856 10.8798 12.1426 10.5612 12.141L8.60305 12.1312C8.28668 12.1296 8.03062 11.8735 8.02903 11.5572L8.01919 9.59903C8.01758 9.28042 8.27458 9.02082 8.59321 9.01922C8.91183 9.01762 9.17142 9.27462 9.17302 9.59324L9.17591 10.1684Z" fill="white"/>
<path opacity="0.5" d="M14.4988 11.8457C14.8174 11.8457 15.0757 12.104 15.0757 12.4226V15.2606L16.8298 17.0147C17.0551 17.24 17.0551 17.6052 16.8298 17.8306C16.6045 18.0559 16.2393 18.0559 16.014 17.8306L14.1472 15.9639C14.003 15.8196 13.9219 15.6239 13.9219 15.4199V12.4226C13.9219 12.104 14.1802 11.8457 14.4988 11.8457Z" fill="white"/>
</svg>
