<svg width="26" height="24" viewBox="0 0 26 24" fill="none" xmlns="http://www.w3.org/2000/svg">
<path d="M4.70313 23.8981C5.74278 23.8942 6.75183 23.5404 7.57255 22.892C8.39327 22.2436 8.9794 21.3372 9.2393 20.3145H16.6279C16.8529 21.2518 17.349 22.0991 18.0523 22.7473C18.7555 23.3956 19.6338 23.815 20.5738 23.9514C21.5139 24.0879 22.4726 23.9352 23.3265 23.5131C24.1803 23.0909 24.8901 22.4186 25.3645 21.5828C25.8388 20.7471 26.0559 19.7861 25.9877 18.8238C25.9196 17.8616 25.5694 16.9421 24.9822 16.1839C24.395 15.4257 23.5977 14.8636 22.6932 14.5699C21.7887 14.2763 20.8183 14.2646 19.9072 14.5364L16.2446 8.17294C16.9068 7.5065 17.3592 6.65519 17.5443 5.72707C17.7293 4.79896 17.6388 3.83589 17.2842 2.96015C16.9295 2.0844 16.3267 1.33547 15.5523 0.808425C14.7779 0.281382 13.8669 0 12.9348 0C12.0027 0 11.0916 0.281382 10.3172 0.808425C9.54285 1.33547 8.94007 2.0844 8.58541 2.96015C8.23076 3.83589 8.14023 4.79896 8.32531 5.72707C8.5104 6.65519 8.96276 7.5065 9.62496 8.17294L5.97063 14.5399C5.55915 14.4148 5.13261 14.3481 4.70313 14.3417C3.45578 14.3417 2.25952 14.8451 1.37752 15.7412C0.495507 16.6373 0 17.8526 0 19.1199C0 20.3872 0.495507 21.6025 1.37752 22.4986C2.25952 23.3947 3.45578 23.8981 4.70313 23.8981ZM21.1641 16.7308C21.6292 16.7308 22.0838 16.8709 22.4706 17.1334C22.8573 17.3959 23.1587 17.7691 23.3367 18.2056C23.5146 18.6422 23.5612 19.1225 23.4705 19.586C23.3797 20.0494 23.1558 20.4751 22.8269 20.8093C22.498 21.1434 22.079 21.3709 21.6229 21.4631C21.1667 21.5553 20.6939 21.508 20.2642 21.3272C19.8345 21.1463 19.4672 20.8401 19.2088 20.4472C18.9504 20.0543 18.8125 19.5924 18.8125 19.1199C18.8125 18.4863 19.0603 17.8786 19.5013 17.4305C19.9423 16.9825 20.5404 16.7308 21.1641 16.7308ZM12.9336 2.39604C13.3987 2.39604 13.8534 2.53616 14.2401 2.79868C14.6268 3.0612 14.9282 3.43433 15.1062 3.87088C15.2842 4.30744 15.3307 4.78781 15.24 5.25126C15.1493 5.7147 14.9253 6.1404 14.5964 6.47453C14.2675 6.80865 13.8485 7.03619 13.3924 7.12838C12.9362 7.22056 12.4634 7.17325 12.0337 6.99242C11.604 6.8116 11.2367 6.50538 10.9784 6.11249C10.72 5.7196 10.582 5.25769 10.582 4.78516C10.582 4.15153 10.8298 3.54384 11.2708 3.0958C11.7118 2.64775 12.3099 2.39604 12.9336 2.39604ZM11.6661 9.36511C12.0776 9.49027 12.5041 9.557 12.9336 9.56341C13.3648 9.55748 13.7931 9.48992 14.2058 9.36272L17.8648 15.7214C17.2646 16.3294 16.8372 17.0909 16.6279 17.9253H9.2393C9.03164 17.0947 8.60762 16.3363 8.01178 15.7297L11.6661 9.36511ZM4.70313 16.7308C5.16823 16.7308 5.62288 16.8709 6.00959 17.1334C6.3963 17.3959 6.69771 17.7691 6.8757 18.2056C7.05368 18.6422 7.10025 19.1225 7.00951 19.586C6.91878 20.0494 6.69481 20.4751 6.36594 20.8093C6.03707 21.1434 5.61806 21.3709 5.1619 21.4631C4.70574 21.5553 4.23292 21.508 3.80323 21.3272C3.37353 21.1463 3.00627 20.8401 2.74788 20.4472C2.48948 20.0543 2.35157 19.5924 2.35157 19.1199C2.35157 18.4863 2.59932 17.8786 3.04032 17.4305C3.48133 16.9825 4.07946 16.7308 4.70313 16.7308Z" fill="white"/>
</svg>
