<svg width="21" height="20" viewBox="0 0 21 20" fill="none" xmlns="http://www.w3.org/2000/svg">
<path fill-rule="evenodd" clip-rule="evenodd" d="M1.75 1.50004C1.6837 1.50004 1.62011 1.52638 1.57322 1.57326C1.52634 1.62015 1.5 1.68374 1.5 1.75004V14.2504C1.5 14.3884 1.612 14.5004 1.75 14.5004H4.25C4.44891 14.5004 4.63968 14.5794 4.78033 14.72C4.92098 14.8607 5 15.0515 5 15.2504V18.4405L8.427 15.0134C8.75501 14.6851 9.19996 14.5006 9.664 14.5004H19.25C19.3163 14.5004 19.3799 14.474 19.4268 14.4271C19.4737 14.3803 19.5 14.3167 19.5 14.2504V1.75004C19.5 1.68374 19.4737 1.62015 19.4268 1.57326C19.3799 1.52638 19.3163 1.50004 19.25 1.50004H1.75ZM0 1.75004C0 0.78402 0.784 0 1.75 0H19.25C20.216 0 21 0.78402 21 1.75004V14.2504C21 14.7145 20.8156 15.1596 20.4874 15.4878C20.1592 15.816 19.7141 16.0004 19.25 16.0004H9.664C9.63115 16.0003 9.59861 16.0068 9.56823 16.0193C9.53786 16.0318 9.51026 16.0502 9.487 16.0734L5.987 19.5735C5.78324 19.7772 5.52367 19.9159 5.24111 19.972C4.95854 20.0282 4.66567 19.9994 4.3995 19.8891C4.13333 19.7789 3.90581 19.5922 3.74571 19.3527C3.58561 19.1132 3.5001 18.8316 3.5 18.5435V16.0004H1.75C1.28587 16.0004 0.840752 15.816 0.512563 15.4878C0.184375 15.1596 0 14.7145 0 14.2504V1.75004ZM10.5 3.50009C10.6989 3.50009 10.8897 3.57911 11.0303 3.71976C11.171 3.86042 11.25 4.05119 11.25 4.25011V8.25021C11.25 8.44913 11.171 8.6399 11.0303 8.78055C10.8897 8.92121 10.6989 9.00023 10.5 9.00023C10.3011 9.00023 10.1103 8.92121 9.96967 8.78055C9.82902 8.6399 9.75 8.44913 9.75 8.25021V4.25011C9.75 4.05119 9.82902 3.86042 9.96967 3.71976C10.1103 3.57911 10.3011 3.50009 10.5 3.50009ZM10.5 12.5003C10.7652 12.5003 11.0196 12.395 11.2071 12.2074C11.3946 12.0199 11.5 11.7655 11.5 11.5003C11.5 11.2351 11.3946 10.9807 11.2071 10.7932C11.0196 10.6056 10.7652 10.5003 10.5 10.5003C10.2348 10.5003 9.98043 10.6056 9.79289 10.7932C9.60536 10.9807 9.5 11.2351 9.5 11.5003C9.5 11.7655 9.60536 12.0199 9.79289 12.2074C9.98043 12.395 10.2348 12.5003 10.5 12.5003Z" fill="#143A62"/>
</svg>
