<svg width="6" height="24" viewBox="0 0 6 24" fill="none" xmlns="http://www.w3.org/2000/svg">
<path d="M6 3.04348C6 4.72435 4.65685 6.08696 3 6.08696C1.34315 6.08696 0 4.72435 0 3.04348C0 1.36261 1.34315 0 3 0C4.65685 0 6 1.36261 6 3.04348Z" fill="white"/>
<path d="M6 12C6 13.6809 4.65685 15.0435 3 15.0435C1.34315 15.0435 0 13.6809 0 12C0 10.3191 1.34315 8.95652 3 8.95652C4.65685 8.95652 6 10.3191 6 12Z" fill="white"/>
<path d="M6 20.9565C6 22.6374 4.65685 24 3 24C1.34315 24 0 22.6374 0 20.9565C0 19.2757 1.34315 17.913 3 17.913C4.65685 17.913 6 19.2757 6 20.9565Z" fill="white"/>
</svg>
