<svg width="30" height="30" viewBox="0 0 30 30" fill="none" xmlns="http://www.w3.org/2000/svg">
<path d="M5.44218 18.2584V0.749764C5.44218 0.33565 5.79725 0 6.23533 0H23.8646C27.2409 0 30 2.60819 30 5.79977V24.1054C30 24.5199 29.6449 24.8555 29.2068 24.8555H12.4211C12.0268 27.7925 9.3726 30 6.23533 30C2.7918 30 0 27.3609 0 24.1054C0 21.1401 2.33566 18.6311 5.44218 18.2584ZM3.17031 25.3143C2.43249 24.6169 3.55459 23.5565 4.29241 24.254L5.37185 25.2744L8.07642 21.3468C8.64208 20.5233 9.96862 21.3378 9.40296 22.1613L6.19883 26.8135C5.94866 27.2512 5.31767 27.3442 4.93992 26.9871L3.17031 25.3143ZM12.4211 23.3557H28.4133V5.79977C28.4133 3.43642 26.3647 1.49989 23.8646 1.49989H7.02887V18.2584C9.83796 18.5955 12.0645 20.6999 12.4211 23.3557ZM6.23533 19.7111C3.66796 19.7111 1.58669 21.6785 1.58669 24.1054C1.58669 26.5327 3.66796 28.5001 6.23533 28.5001C8.80309 28.5001 10.8844 26.5327 10.8844 24.1054C10.8844 21.6785 8.80309 19.7111 6.23533 19.7111ZM22.6956 10.4782H26.2348C26.6729 10.4782 27.028 10.8142 27.028 11.2283V19.1186C27.028 19.5327 26.6729 19.8687 26.2348 19.8687H22.6956C22.2575 19.8687 21.9021 19.5327 21.9021 19.1186V11.2283C21.9021 10.8142 22.2575 10.4782 22.6956 10.4782ZM25.4413 11.9781H23.4888V18.3685H25.4413V11.9781ZM18.8897 6.04461C17.846 6.04461 17.846 4.54472 18.8897 4.54472H24.8994C25.9432 4.54472 25.9432 6.04461 24.8994 6.04461H18.8897ZM18.8897 8.56961C17.846 8.56961 17.846 7.06972 18.8897 7.06972H24.8994C25.9432 7.06972 25.9432 8.56961 24.8994 8.56961H18.8897ZM9.07363 16.5231C8.02992 16.5231 8.02992 15.0232 9.07363 15.0232H20.0249C21.0682 15.0232 21.0682 16.5231 20.0249 16.5231H9.07363ZM9.07363 14.377C8.02992 14.377 8.02992 12.8771 9.07363 12.8771H20.0249C21.0682 12.8771 21.0682 14.377 20.0249 14.377H9.07363ZM9.07363 12.2309C8.02992 12.2309 8.02992 10.7306 9.07363 10.7306H16.9529C17.9966 10.7306 17.9966 12.2309 16.9529 12.2309H9.07363ZM9.24041 3.02993H15.1168C15.5549 3.02993 15.91 3.36558 15.91 3.7797V9.33463C15.91 9.74875 15.5549 10.0848 15.1168 10.0848H9.24041C8.80233 10.0848 8.44725 9.74875 8.44725 9.33463V3.7797C8.44725 3.36558 8.80233 3.02993 9.24041 3.02993ZM14.3233 4.52982H10.0339V8.58487H14.3233V4.52982Z" fill="white"/>
</svg>
