<svg width="30" height="34" viewBox="0 0 30 34" fill="none" xmlns="http://www.w3.org/2000/svg">
<path d="M27.9503 0H26.087H3.72671H1.86335C0.745342 0 0 0.745342 0 1.86335C0 2.98137 0.745342 3.72671 1.86335 3.72671V30C1.86335 31.3043 2.6087 32.6087 3.91304 33.354C4.47205 33.7267 5.03106 33.7267 5.59006 33.7267C6.3354 33.7267 7.08075 33.5404 7.63975 33.1677L14.9068 28.323L22.1739 33.1677C23.2919 33.913 24.7826 34.0994 26.087 33.354C27.3913 32.795 28.1366 31.4907 28.1366 30V3.72671C29.2547 3.72671 30 2.98137 30 1.86335C30 0.745342 29.0683 0 27.9503 0ZM24.2236 30L16.9565 25.1553C16.3975 24.7826 15.6522 24.5963 14.9068 24.5963C14.1615 24.5963 13.4161 24.7826 12.8571 25.1553L5.59006 30V3.72671H24.2236V30Z" fill="white"/>
</svg>
