<svg width="14" height="14" viewBox="0 0 14 14" fill="none" xmlns="http://www.w3.org/2000/svg">
<path fill-rule="evenodd" clip-rule="evenodd" d="M10.2068 9.30643C10.9909 8.32617 11.4598 7.08278 11.4598 5.72988C11.4598 2.56535 8.89438 0 5.72988 0C2.56535 0 0 2.56535 0 5.72988C0 8.89438 2.56535 11.4598 5.72988 11.4598C7.08278 11.4598 8.32617 10.9909 9.30643 10.2068L12.9131 13.8135C13.1618 14.0622 13.5649 14.0622 13.8135 13.8135C14.0622 13.5649 14.0622 13.1618 13.8135 12.9131L10.2068 9.30643ZM5.72988 10.1928C3.26505 10.1928 1.26692 8.1947 1.26692 5.72988C1.26692 3.26505 3.26505 1.26692 5.72988 1.26692C8.1947 1.26692 10.1928 3.26505 10.1928 5.72988C10.1928 8.1947 8.1947 10.1928 5.72988 10.1928Z" fill="#143A62"/>
</svg>
