<svg width="23" height="23" viewBox="0 0 23 23" fill="none" xmlns="http://www.w3.org/2000/svg">
<path fill-rule="evenodd" clip-rule="evenodd" d="M16.7682 15.2891C18.0564 13.6787 18.8267 11.636 18.8267 9.41337C18.8267 4.2145 14.6122 0 9.41337 0C4.2145 0 0 4.2145 0 9.41337C0 14.6122 4.2145 18.8267 9.41337 18.8267C11.636 18.8267 13.6787 18.0564 15.2891 16.7682L21.2144 22.6937C21.6229 23.1021 22.2852 23.1021 22.6937 22.6937C23.1021 22.2852 23.1021 21.6229 22.6937 21.2144L16.7682 15.2891ZM9.41337 16.7453C5.36401 16.7453 2.08136 13.4627 2.08136 9.41337C2.08136 5.36401 5.36401 2.08136 9.41337 2.08136C13.4627 2.08136 16.7453 5.36401 16.7453 9.41337C16.7453 13.4627 13.4627 16.7453 9.41337 16.7453Z" fill="white"/>
</svg>
