<svg width="241" height="240" viewBox="0 0 241 240" fill="none" xmlns="http://www.w3.org/2000/svg">
<g filter="url(#filter0_d_2710_3790)">
<g clip-path="url(#clip0_2710_3790)">
<rect x="10" y="10" width="221" height="220" rx="20" fill="white"/>
<path d="M100.413 47.672L101.245 43.192C103.314 43.192 105.117 43.1387 106.653 43.032C108.189 42.904 109.458 42.7227 110.461 42.488C111.485 42.232 112.242 41.9013 112.733 41.496C113.245 41.0907 113.501 40.6 113.501 40.024C113.501 39.256 113.373 38.3387 113.117 37.272C112.861 36.184 112.53 35.0853 112.125 33.976L116.317 32.76C116.594 33.4853 116.861 34.2853 117.117 35.16C117.373 36.0133 117.575 36.8773 117.725 37.752C117.895 38.6053 117.981 39.4053 117.981 40.152C117.981 41.4747 117.693 42.616 117.117 43.576C116.541 44.5147 115.581 45.2933 114.237 45.912C112.914 46.5093 111.122 46.9467 108.861 47.224C106.599 47.5227 103.783 47.672 100.413 47.672ZM100.381 47.672C98.0765 47.672 96.1245 47.4907 94.5245 47.128C92.9458 46.7867 91.6552 46.296 90.6525 45.656C89.6712 44.9947 88.9565 44.2267 88.5085 43.352C88.0605 42.4773 87.8365 41.5173 87.8365 40.472C87.8365 39.7893 87.8898 39.1067 87.9965 38.424C88.1245 37.72 88.2738 37.0373 88.4445 36.376C88.6365 35.7147 88.8072 35.1173 88.9565 34.584L92.9565 35.512C92.8712 35.896 92.7752 36.312 92.6685 36.76C92.5618 37.208 92.4765 37.6453 92.4125 38.072C92.3485 38.4773 92.3165 38.8507 92.3165 39.192C92.3165 39.9813 92.5938 40.6853 93.1485 41.304C93.7245 41.9013 94.6632 42.3707 95.9645 42.712C97.2658 43.032 99.0152 43.192 101.213 43.192L101.853 46.648L100.381 47.672ZM105.661 33.048C105.042 33.048 104.509 32.8347 104.061 32.408C103.634 31.96 103.421 31.4373 103.421 30.84C103.421 30.2213 103.634 29.688 104.061 29.24C104.509 28.792 105.042 28.568 105.661 28.568C106.258 28.568 106.77 28.792 107.197 29.24C107.623 29.688 107.837 30.2213 107.837 30.84C107.837 31.4373 107.623 31.96 107.197 32.408C106.77 32.8347 106.258 33.048 105.661 33.048ZM100.125 33.016C99.5058 33.016 98.9725 32.8027 98.5245 32.376C98.0978 31.928 97.8845 31.4053 97.8845 30.808C97.8845 30.1893 98.0978 29.656 98.5245 29.208C98.9725 28.76 99.5058 28.536 100.125 28.536C100.722 28.536 101.234 28.76 101.661 29.208C102.087 29.656 102.301 30.1893 102.301 30.808C102.301 31.4053 102.087 31.928 101.661 32.376C101.234 32.8027 100.722 33.016 100.125 33.016ZM129.738 47.16C127.754 47.16 126.218 46.9573 125.13 46.552C124.063 46.1467 123.316 45.5173 122.89 44.664C122.463 43.7893 122.218 42.6907 122.154 41.368L121.482 23.576H125.962L126.634 39.224C126.676 40.2053 126.783 40.9413 126.954 41.432C127.124 41.9227 127.444 42.2533 127.914 42.424C128.404 42.5947 129.119 42.68 130.058 42.68C130.868 42.68 131.444 42.8933 131.786 43.32C132.148 43.7253 132.33 44.2373 132.33 44.856C132.33 45.5173 132.106 46.072 131.658 46.52C131.21 46.9467 130.57 47.16 129.738 47.16ZM129.781 47.16L130.101 42.68C130.635 42.68 131.04 42.5733 131.317 42.36C131.595 42.1467 131.872 41.7733 132.149 41.24C132.427 40.7067 132.811 39.9813 133.301 39.064C133.835 38.04 134.389 37.1867 134.965 36.504C135.541 35.8 136.117 35.2453 136.693 34.84C137.291 34.4133 137.877 34.1147 138.453 33.944C139.051 33.752 139.637 33.656 140.213 33.656C141.003 33.656 141.739 33.8267 142.421 34.168C143.125 34.488 143.797 35.0533 144.437 35.864C145.077 36.6533 145.685 37.7413 146.261 39.128C146.667 40.088 147.072 40.824 147.477 41.336C147.883 41.848 148.299 42.2 148.725 42.392C149.173 42.584 149.621 42.68 150.069 42.68C150.88 42.68 151.456 42.8933 151.797 43.32C152.139 43.7253 152.309 44.2373 152.309 44.856C152.309 45.5173 152.085 46.072 151.637 46.52C151.189 46.9467 150.56 47.16 149.749 47.16C148.704 47.16 147.755 46.9893 146.901 46.648C146.048 46.3067 145.376 45.7947 144.885 45.112L145.813 44.408C145.621 44.856 145.333 45.3253 144.949 45.816C144.587 46.3067 144.107 46.7227 143.509 47.064C142.933 47.4053 142.24 47.576 141.429 47.576C140.896 47.576 140.267 47.4693 139.541 47.256C138.837 47.064 138.101 46.7333 137.333 46.264C136.587 45.7733 135.893 45.112 135.253 44.28C134.848 45.0267 134.4 45.6133 133.909 46.04C133.419 46.4453 132.843 46.7333 132.181 46.904C131.52 47.0747 130.72 47.16 129.781 47.16ZM137.109 40.504C137.323 40.824 137.579 41.144 137.877 41.464C138.176 41.784 138.507 42.072 138.869 42.328C139.232 42.5627 139.616 42.7547 140.021 42.904C140.448 43.0533 140.864 43.128 141.269 43.128C141.696 43.128 142.048 42.968 142.325 42.648C142.603 42.3067 142.613 41.8053 142.357 41.144C142.251 40.8667 142.101 40.5573 141.909 40.216C141.739 39.8533 141.536 39.512 141.301 39.192C141.088 38.872 140.843 38.6053 140.565 38.392C140.309 38.1787 140.043 38.072 139.765 38.072C139.488 38.072 139.2 38.1573 138.901 38.328C138.603 38.4987 138.304 38.7653 138.005 39.128C137.707 39.4693 137.408 39.928 137.109 40.504ZM149.75 47.16L150.07 42.68C150.838 42.68 151.499 42.6053 152.054 42.456C152.609 42.3067 153.078 42.008 153.462 41.56C153.846 41.0907 154.166 40.408 154.422 39.512C154.699 38.616 154.945 37.4213 155.158 35.928L159.35 36.632C159.307 36.952 159.243 37.3253 159.158 37.752C159.094 38.1787 159.03 38.616 158.966 39.064C158.923 39.4907 158.902 39.896 158.902 40.28C158.902 40.664 158.977 41.0053 159.126 41.304C159.275 41.6027 159.51 41.8587 159.83 42.072C160.171 42.264 160.609 42.4133 161.142 42.52C161.697 42.6267 162.369 42.68 163.158 42.68C163.969 42.68 164.545 42.8933 164.886 43.32C165.227 43.7253 165.398 44.2373 165.398 44.856C165.398 45.5173 165.174 46.072 164.726 46.52C164.299 46.9467 163.67 47.16 162.838 47.16C161.878 47.16 161.003 47.0853 160.214 46.936C159.446 46.7867 158.774 46.5413 158.198 46.2C157.643 45.8373 157.185 45.368 156.822 44.792C156.481 44.1947 156.267 43.4693 156.182 42.616H157.718C157.334 43.64 156.843 44.4613 156.246 45.08C155.67 45.6773 155.019 46.1253 154.294 46.424C153.569 46.7227 152.811 46.9147 152.022 47C151.254 47.1067 150.497 47.16 149.75 47.16ZM158.678 54.584C158.059 54.584 157.526 54.36 157.078 53.912C156.651 53.4853 156.438 52.9733 156.438 52.376C156.438 51.7573 156.651 51.224 157.078 50.776C157.526 50.328 158.059 50.104 158.678 50.104C159.275 50.104 159.787 50.328 160.214 50.776C160.641 51.224 160.854 51.7573 160.854 52.376C160.854 52.9733 160.641 53.4853 160.214 53.912C159.787 54.36 159.275 54.584 158.678 54.584ZM153.142 54.584C152.523 54.584 151.99 54.36 151.542 53.912C151.115 53.4853 150.902 52.9733 150.902 52.376C150.902 51.7573 151.115 51.224 151.542 50.776C151.99 50.328 152.523 50.104 153.142 50.104C153.739 50.104 154.251 50.328 154.678 50.776C155.105 51.224 155.318 51.7573 155.318 52.376C155.318 52.9733 155.105 53.4853 154.678 53.912C154.251 54.36 153.739 54.584 153.142 54.584ZM187.196 47.16C186.108 47.16 185.062 47.064 184.06 46.872C183.057 46.6587 182.15 46.3813 181.34 46.04C180.55 45.6987 179.9 45.3147 179.388 44.888L182.268 41.784C183.036 42.104 183.825 42.3387 184.636 42.488C185.446 42.616 186.406 42.68 187.516 42.68C188.326 42.68 188.902 42.8933 189.244 43.32C189.606 43.7253 189.788 44.2373 189.788 44.856C189.788 45.5173 189.564 46.072 189.116 46.52C188.668 46.9467 188.028 47.16 187.196 47.16ZM162.844 47.16L163.164 42.68H170.332C172.337 42.68 174.001 42.6053 175.324 42.456C176.668 42.3067 177.734 42.0933 178.524 41.816C179.313 41.5173 179.868 41.176 180.188 40.792C180.529 40.408 180.7 39.992 180.7 39.544C180.7 39.1387 180.604 38.7547 180.412 38.392C180.22 38.008 179.932 37.6987 179.548 37.464C179.164 37.2293 178.662 37.112 178.044 37.112C177.254 37.112 176.465 37.304 175.676 37.688C174.886 38.0507 174.118 38.552 173.372 39.192C172.625 39.8107 171.91 40.504 171.228 41.272C170.566 42.04 169.958 42.8187 169.404 43.608L164.572 42.936C165.468 41.5493 166.438 40.2373 167.484 39C168.55 37.7413 169.67 36.6427 170.844 35.704C172.038 34.744 173.265 33.9973 174.524 33.464C175.804 32.9093 177.105 32.632 178.428 32.632C179.836 32.632 181.041 32.92 182.044 33.496C183.046 34.072 183.814 34.8613 184.348 35.864C184.902 36.8667 185.18 38.0293 185.18 39.352C185.18 40.7387 184.785 41.9867 183.996 43.096C183.228 44.2053 181.916 45.1227 180.06 45.848C179.27 46.1467 178.417 46.392 177.5 46.584C176.582 46.776 175.505 46.9147 174.268 47C173.03 47.1067 171.548 47.16 169.82 47.16H162.844ZM166.172 43.896L165.5 23.576H169.98L170.556 38.936L166.172 43.896ZM177.5 29.656C176.838 29.656 176.273 29.432 175.804 28.984C175.356 28.536 175.132 27.9813 175.132 27.32C175.132 26.6587 175.356 26.0933 175.804 25.624C176.273 25.1547 176.838 24.92 177.5 24.92C178.14 24.92 178.684 25.1547 179.132 25.624C179.601 26.0933 179.836 26.6587 179.836 27.32C179.836 27.9813 179.601 28.536 179.132 28.984C178.684 29.432 178.14 29.656 177.5 29.656ZM187.219 47.16L187.539 42.68C188.349 42.68 188.989 42.6053 189.459 42.456C189.949 42.3067 190.333 42.008 190.611 41.56C190.909 41.0907 191.155 40.408 191.347 39.512C191.56 38.616 191.773 37.4213 191.987 35.928L196.179 36.632C196.136 36.952 196.072 37.3253 195.987 37.752C195.923 38.1787 195.859 38.616 195.795 39.064C195.752 39.4907 195.731 39.896 195.731 40.28C195.731 40.792 195.837 41.2293 196.051 41.592C196.285 41.9333 196.691 42.2 197.267 42.392C197.864 42.584 198.717 42.68 199.827 42.68C200.637 42.68 201.213 42.8933 201.555 43.32C201.896 43.7253 202.067 44.2373 202.067 44.856C202.067 45.5173 201.843 46.072 201.395 46.52C200.968 46.9467 200.339 47.16 199.507 47.16C198.035 47.16 196.84 47.0213 195.923 46.744C195.005 46.4667 194.323 45.9973 193.875 45.336C193.427 44.6747 193.139 43.768 193.011 42.616H194.547C194.163 43.64 193.715 44.4613 193.203 45.08C192.691 45.6773 192.115 46.1253 191.475 46.424C190.835 46.7227 190.152 46.9147 189.427 47C188.723 47.1067 187.987 47.16 187.219 47.16ZM193.747 32.664C193.085 32.664 192.52 32.44 192.051 31.992C191.603 31.544 191.379 30.9893 191.379 30.328C191.379 29.6667 191.603 29.1013 192.051 28.632C192.52 28.1627 193.085 27.928 193.747 27.928C194.387 27.928 194.931 28.1627 195.379 28.632C195.848 29.1013 196.083 29.6667 196.083 30.328C196.083 30.9893 195.848 31.544 195.379 31.992C194.931 32.44 194.387 32.664 193.747 32.664ZM199.5 47.16L199.82 42.68C201.1 42.68 202.081 42.616 202.764 42.488C203.447 42.36 203.916 42.1253 204.172 41.784C204.449 41.4213 204.588 40.9093 204.588 40.248C204.588 39.6507 204.503 38.936 204.332 38.104C204.183 37.272 203.98 36.408 203.724 35.512C203.489 34.616 203.233 33.7947 202.956 33.048L207.372 31.832C207.649 32.5573 207.916 33.4 208.172 34.36C208.428 35.32 208.641 36.312 208.812 37.336C208.983 38.3387 209.068 39.3093 209.068 40.248C209.068 41.6987 208.833 42.8827 208.364 43.8C207.895 44.696 207.233 45.3893 206.38 45.88C205.548 46.3707 204.545 46.712 203.372 46.904C202.199 47.0747 200.908 47.16 199.5 47.16ZM208.172 29.24C207.553 29.24 207.02 29.0267 206.572 28.6C206.145 28.152 205.932 27.6293 205.932 27.032C205.932 26.4133 206.145 25.88 206.572 25.432C207.02 24.984 207.553 24.76 208.172 24.76C208.769 24.76 209.281 24.984 209.708 25.432C210.135 25.88 210.348 26.4133 210.348 27.032C210.348 27.6293 210.135 28.152 209.708 28.6C209.281 29.0267 208.769 29.24 208.172 29.24ZM202.636 29.208C202.017 29.208 201.484 28.9947 201.036 28.568C200.609 28.12 200.396 27.5973 200.396 27C200.396 26.3813 200.609 25.848 201.036 25.4C201.484 24.952 202.017 24.728 202.636 24.728C203.233 24.728 203.745 24.952 204.172 25.4C204.599 25.848 204.812 26.3813 204.812 27C204.812 27.5973 204.599 28.12 204.172 28.568C203.745 28.9947 203.233 29.208 202.636 29.208Z" fill="#143A62"/>
<path fill-rule="evenodd" clip-rule="evenodd" d="M61.3 290.872C56.2205 290.872 51.8871 287.101 51.0599 281.961C50.2981 277.802 47.3789 274.404 43.4521 273.106C40.2525 271.979 37.1239 270.65 34.0847 269.127C30.4682 267.229 26.1297 267.514 22.7773 269.866C18.7203 272.858 13.1472 272.394 9.613 268.771L-4.1333 254.673C-7.8328 250.878 -8.31346 244.896 -5.26958 240.531C-2.92211 237.014 -2.584 232.479 -4.38272 228.635C-5.5679 225.966 -6.61337 223.233 -7.51443 220.449C-8.80507 216.062 -12.3674 212.776 -16.7572 211.922C-22.0508 211.055 -25.9588 206.392 -25.9999 200.893V183.255C-26.028 176.918 -21.565 171.497 -15.4684 170.464C-10.8434 169.561 -6.98147 166.312 -5.21415 161.837C-4.68758 160.577 -4.13329 159.326 -3.55129 158.085C-1.20083 153.444 -1.52545 147.853 -4.39665 143.531C-7.98714 138.413 -7.43584 131.381 -3.09408 126.917L7.00785 116.556C11.9902 111.444 19.8479 110.783 25.5764 114.993L25.8951 115.22C30.1726 118.173 35.6157 118.708 40.3619 116.641C45.4396 114.767 49.1825 110.292 50.2143 104.859L50.3536 104.376C51.4934 97.1841 57.5493 91.9004 64.6541 91.8975H76.8484C84.1437 91.8941 90.3702 97.3063 91.564 104.689L91.7857 105.684C92.765 110.888 96.3138 115.195 101.153 117.054C105.818 119.107 111.181 118.571 115.371 115.632L116.063 115.121C121.94 110.776 130.021 111.445 135.145 116.698L144.443 126.249C149.103 131.055 149.689 138.613 145.829 144.114C142.804 148.712 142.419 154.621 144.817 159.591L145.414 161.013C147.355 165.866 151.558 169.384 156.582 170.364C163.149 171.463 167.979 177.27 168 184.094V199.912C167.999 205.93 163.755 211.063 157.967 212.05C153.208 212.986 149.331 216.521 147.865 221.259C147.219 223.154 146.498 225.05 145.704 226.944C143.854 231.108 144.265 235.961 146.785 239.735C150.109 244.48 149.593 250.996 145.566 255.128L132.665 268.374C128.975 272.157 123.157 272.644 118.919 269.525C115.38 267.045 110.796 266.772 107.002 268.814C104.297 270.188 101.521 271.408 98.6873 272.467C94.7234 273.869 91.8014 277.349 91.0381 281.577C90.2295 286.897 85.7824 290.832 80.5337 290.872H61.3Z" fill="#F2F2F2" stroke="white" stroke-linecap="round" stroke-linejoin="round"/>
<path fill-rule="evenodd" clip-rule="evenodd" d="M103.33 191.391C103.33 209.704 88.8556 224.549 71.0005 224.549C53.1454 224.549 38.6719 209.704 38.6719 191.391C38.6719 173.078 53.1454 158.233 71.0005 158.233C88.8556 158.233 103.33 173.078 103.33 191.391Z" fill="#F2F2F2" stroke="white" stroke-linecap="round" stroke-linejoin="round"/>
<path d="M102.791 151.027C104.677 152.804 107.122 153.271 108.253 152.071C109.384 150.871 108.771 148.458 106.886 146.681C106.06 145.903 105.127 145.376 104.245 145.13L96.1594 137.702L92.7543 141.571L101.086 148.483C101.384 149.349 101.966 150.249 102.791 151.027Z" fill="#FFB6B6"/>
<path d="M60.2551 227.47L64.1527 227.47L66.0068 212.436L60.2543 212.436L60.2551 227.47Z" fill="#FFB6B6"/>
<path d="M73.6086 227.382C73.7299 227.586 73.7939 228.246 73.7939 228.484C73.7939 229.214 73.2017 229.806 72.4711 229.806H60.4005C59.9021 229.806 59.498 229.402 59.498 228.904V228.401C59.498 228.401 58.9009 226.891 60.1303 225.029C60.1303 225.029 61.6582 226.487 63.9414 224.204L64.6146 222.984L69.4882 226.549L72.1896 226.881C72.7806 226.954 73.3045 226.87 73.6086 227.382Z" fill="#2F2E41"/>
<path d="M32.9102 225.256L36.7424 225.967L41.3105 211.525L35.6546 210.475L32.9102 225.256Z" fill="#FFB6B6"/>
<path d="M46.0562 227.607C46.1381 227.831 46.0807 228.491 46.0373 228.725C45.9038 229.443 45.2134 229.917 44.4951 229.784L32.6274 227.58C32.1374 227.489 31.8139 227.017 31.9049 226.527L31.9967 226.033C31.9967 226.033 31.6854 224.439 33.2341 222.833C33.2341 222.833 34.4701 224.546 37.1318 222.718L38.0165 221.642L42.1572 226.036L44.7525 226.856C45.3202 227.036 45.8508 227.049 46.0562 227.607Z" fill="#2F2E41"/>
<path d="M42.4613 153.172L32.8607 217.452L41.798 218.617L57.341 167.714L59.2839 220.172H67.6138C67.6138 220.172 74.8086 162.274 72.6806 155.279C70.5527 148.285 42.4613 153.172 42.4613 153.172Z" fill="#2F2E41"/>
<path d="M63.1693 101.655H53.8434L52.4834 104.958C52.4834 104.958 47.0433 108.067 47.0433 109.233C47.0433 110.398 43.7404 139.736 43.7404 139.736L41.9918 155.862C41.9918 155.862 62.3921 166.159 72.4951 155.667L70.5522 137.793C70.5522 137.793 72.1065 109.815 71.3294 108.65C70.5522 107.484 64.7236 104.764 64.7236 104.764L63.1693 101.655Z" fill="#37338A"/>
<path d="M66.0867 106.668C66.0867 106.668 63.2445 110.963 64.1413 112.729C65.038 114.496 79.0331 131.452 79.0331 131.452L95.9188 145.358L100.868 140.966L84.9632 125.793L74.6866 110.638C73.0512 107.518 69.5218 105.889 66.0867 106.668Z" fill="#37338A"/>
<path d="M34.019 162.493C33.613 165.052 34.604 167.335 36.2325 167.594C37.8609 167.852 39.5101 165.987 39.9161 163.428C40.0938 162.308 40.0037 161.241 39.7098 160.373L41.2939 149.508L36.1796 148.873L35.1608 159.651C34.6126 160.385 34.1967 161.372 34.019 162.493Z" fill="#FFB6B6"/>
<path d="M53.9101 107.093C53.9101 107.093 45.8686 105.294 44.4077 109.753C42.9467 114.213 34.1678 156.513 34.1678 156.513L40.8555 157.253L45.8778 128.273L53.9101 107.093Z" fill="#37338A"/>
<path d="M58.1871 99.4919C53.759 99.4919 50.1692 95.9022 50.1692 91.474C50.1692 87.0458 53.759 83.4561 58.1871 83.4561C62.6153 83.4561 66.2051 87.0458 66.2051 91.474C66.2051 95.9022 62.6153 99.4919 58.1871 99.4919Z" fill="#FFB6B6"/>
<path d="M53.4958 98.2825C54.0099 98.3075 54.6885 98.2096 54.7747 97.7021C54.8355 97.3442 54.5336 97.0356 54.2494 96.8095C53.8533 96.4943 53.4354 96.2005 53.0949 95.8258C52.7545 95.4511 52.4923 94.9772 52.4859 94.471C52.4794 93.9648 52.781 93.4366 53.2653 93.2893C53.7496 93.142 54.3538 93.5021 54.3611 94.0083C54.828 93.2992 54.89 92.4057 54.9145 91.5571C54.9288 91.0605 54.9352 90.5636 54.9335 90.0668C54.9312 89.3881 54.9141 88.7095 54.8969 88.031C55.2307 88.0134 57.9238 89.0268 58.3124 89.0268C58.6467 89.0268 61.3315 88.4939 61.1529 87.729C61.2054 88.2179 63.7666 89.0984 63.8189 88.8425C63.8713 88.5866 64.0622 88.3166 64.3229 88.3319C64.5978 88.348 64.7471 88.6526 64.8396 88.9119C65.0459 89.4909 65.547 90.4916 66.084 90.1926C70.1482 87.9291 66.8712 87.2241 66.3897 86.3036C65.798 85.172 65.1666 83.9948 64.1132 83.2729C63.0599 82.551 62.2285 81.6891 61.3988 82.6598C59.3174 81.1425 57.2522 81.5085 54.8261 82.3737C52.4001 83.2389 50.4593 85.3558 49.8076 87.8477C49.5089 88.9899 48.7087 89.4911 49.305 90.5101C48.6478 91.3915 49.0039 90.8928 48.874 91.9845C48.7716 92.8458 48.8574 93.7549 49.2845 94.5099C49.7407 95.3163 50.5482 95.8774 51.4117 96.2137C52.2751 96.55 52.4244 98.2389 53.3415 98.3712" fill="#2F2E41"/>
<path d="M13.6629 223.687C12.8601 223.737 12.4165 222.74 13.0238 222.159L13.0843 221.919C13.0763 221.899 13.0683 221.88 13.0603 221.861C12.2484 219.925 9.49704 219.938 8.69212 221.877C7.97768 223.598 7.06809 225.321 6.84413 227.141C6.74373 227.944 6.78889 228.762 6.9671 229.55C5.29308 225.893 4.41215 221.9 4.41215 217.885C4.41215 216.876 4.46738 215.867 4.58031 214.86C4.67318 214.037 4.80117 213.219 4.96683 212.408C5.86279 208.026 7.80287 203.853 10.6012 200.367C11.9465 199.631 13.0683 198.482 13.746 197.104C13.9894 196.607 14.1802 196.072 14.2705 195.528C14.1174 195.548 13.6933 193.216 13.8087 193.073C13.5954 192.749 13.2135 192.588 12.9805 192.273C11.8216 190.701 10.225 190.976 9.39153 193.111C7.61098 194.009 7.59373 195.5 8.68627 196.933C9.38135 197.845 9.47686 199.079 10.0867 200.055C10.024 200.136 9.95872 200.213 9.89598 200.294C8.74539 201.77 7.75024 203.356 6.91132 205.022C7.14841 203.17 6.79837 200.939 6.20161 199.501C5.52231 197.862 4.24905 196.482 3.12779 195.065C1.78098 193.363 -0.980764 194.106 -1.21805 196.263C-1.22034 196.284 -1.22259 196.305 -1.22478 196.326C-1.05824 196.42 -0.895079 196.52 -0.735704 196.625C0.173368 197.226 -0.140804 198.635 -1.21795 198.802L-1.24234 198.805C-1.1821 199.405 -1.0792 200 -0.928629 200.585C-2.36706 206.148 0.738411 208.174 5.1726 208.265C5.27048 208.315 5.36587 208.365 5.46376 208.413C5.0145 209.678 4.65558 210.975 4.38956 212.29C4.15114 213.452 3.98548 214.627 3.89264 215.807C3.77717 217.295 3.78723 218.791 3.91272 220.276L3.90518 220.224C3.58646 218.587 2.69799 217.059 1.40795 216C-0.513795 214.421 -3.22886 213.84 -5.30208 212.571C-6.30008 211.96 -7.57894 212.749 -7.40476 213.907L-7.39628 213.962C-7.08758 214.087 -6.78642 214.233 -6.49528 214.396C-6.32874 214.49 -6.16558 214.59 -6.0062 214.695C-5.09713 215.297 -5.4113 216.706 -6.48845 216.872L-6.51287 216.876C-6.53043 216.878 -6.54548 216.881 -6.56303 216.883C-6.03347 218.141 -5.29562 219.308 -4.37203 220.314C-3.47262 225.17 0.390382 225.631 4.52258 224.217H4.52509C4.97685 226.184 5.63692 228.107 6.48523 229.939H13.4875C13.5126 229.861 13.5351 229.781 13.5577 229.703C12.9102 229.743 12.2577 229.706 11.6202 229.588C12.1397 228.95 12.6592 228.308 13.1788 227.67C13.1913 227.658 13.2014 227.645 13.2114 227.633C13.4749 227.306 13.741 226.983 14.0045 226.656L14.0046 226.656C14.0211 225.654 13.9008 224.656 13.6629 223.687Z" fill="#F2F2F2"/>
<path d="M177 230.078C177 230.334 176.794 230.54 176.538 230.54H-8.5376C-8.79405 230.54 -9 230.334 -9 230.078C-9 229.821 -8.79405 229.615 -8.5376 229.615H176.538C176.794 229.615 177 229.821 177 230.078Z" fill="#CCCCCC"/>
<path d="M135.232 188.034L135.285 187.258C133.769 187.155 132.249 186.947 130.767 186.64L130.61 187.402C132.126 187.716 133.681 187.928 135.232 188.034ZM139.903 187.964C141.471 187.823 143.021 187.599 144.51 187.297L144.355 186.535C142.894 186.831 141.373 187.052 139.833 187.19L139.903 187.964ZM126.116 186.143L126.377 185.411C124.949 184.903 123.542 184.29 122.196 183.591L121.838 184.281C123.215 184.997 124.655 185.623 126.116 186.143ZM149.012 186.094C150.501 185.595 151.952 184.999 153.325 184.322L152.982 183.625C151.639 184.286 150.221 184.869 148.765 185.357L149.012 186.094ZM157.354 181.967C158.637 181.087 159.864 180.107 161.001 179.052L160.473 178.482C159.364 179.511 158.167 180.468 156.915 181.326L157.354 181.967ZM117.856 181.853L118.305 181.219C117.067 180.343 115.878 179.374 114.77 178.338L114.239 178.906C115.372 179.965 116.589 180.957 117.856 181.853ZM164.183 175.629C165.15 174.423 166.041 173.128 166.832 171.783L166.162 171.389C165.39 172.703 164.52 173.966 163.576 175.144L164.183 175.629ZM111.054 175.497L111.657 175.006C110.698 173.828 109.812 172.575 109.024 171.281L108.36 171.686C109.167 173.01 110.073 174.292 111.054 175.497ZM168.91 167.604C169.5 166.178 170.002 164.691 170.401 163.182L169.649 162.983C169.259 164.459 168.769 165.913 168.192 167.306L168.91 167.604ZM106.21 167.543L106.922 167.233C106.317 165.842 105.803 164.396 105.395 162.933L104.646 163.143C105.064 164.639 105.59 166.12 106.21 167.543ZM171.297 158.604C171.496 157.068 171.597 155.502 171.599 153.95L170.821 153.949C170.82 155.469 170.721 157.001 170.526 158.504L171.297 158.604ZM103.702 158.573L104.472 158.468C104.268 156.971 104.165 155.44 104.165 153.918L104.165 153.848H103.388L103.387 153.915C103.387 155.475 103.493 157.041 103.702 158.573ZM170.534 149.393L171.305 149.294C171.108 147.75 170.809 146.209 170.417 144.715L169.665 144.912C170.049 146.374 170.341 147.882 170.534 149.393ZM104.481 149.3C104.689 147.796 105.003 146.295 105.413 144.837L104.665 144.626C104.245 146.118 103.924 147.655 103.711 149.194L104.481 149.3ZM168.216 140.587L168.935 140.291C168.341 138.848 167.644 137.441 166.866 136.11L166.195 136.503C166.955 137.803 167.636 139.177 168.216 140.587ZM106.949 140.543C107.555 139.157 108.264 137.797 109.056 136.503L108.393 136.097C107.582 137.422 106.857 138.813 106.237 140.232L106.949 140.543ZM111.694 132.785C112.653 131.612 113.703 130.492 114.813 129.458L114.283 128.89C113.147 129.948 112.074 131.093 111.092 132.294L111.694 132.785ZM163.618 132.745L164.225 132.26C163.254 131.043 162.187 129.89 161.054 128.833L160.524 129.402C161.63 130.433 162.671 131.557 163.618 132.745ZM118.354 126.584C119.595 125.709 120.907 124.912 122.253 124.216L121.896 123.526C120.519 124.238 119.176 125.053 117.906 125.949L118.354 126.584ZM156.973 126.551L157.414 125.91C156.145 125.036 154.791 124.241 153.39 123.547L153.045 124.243C154.413 124.921 155.734 125.697 156.973 126.551ZM148.832 122.501L149.08 121.765C147.637 121.278 146.123 120.87 144.58 120.554L144.424 121.316C145.936 121.625 147.419 122.024 148.832 122.501ZM126.439 122.404C127.869 121.898 129.348 121.487 130.836 121.182L130.68 120.421C129.157 120.733 127.644 121.153 126.18 121.671L126.439 122.404ZM139.903 120.653L139.974 119.879C139.196 119.808 138.397 119.756 137.597 119.724C136.841 119.715 136.057 119.749 135.304 119.798L135.355 120.574C136.091 120.525 136.841 120.501 137.582 120.501C138.353 120.532 139.139 120.583 139.903 120.653Z" fill="#3F3D56"/>
<path d="M163.448 185.714C157.654 185.714 152.956 181.016 152.956 175.222C152.956 169.428 157.654 164.73 163.448 164.73C169.242 164.73 173.939 169.428 173.939 175.222C173.939 181.016 169.242 185.714 163.448 185.714Z" fill="#37338A"/>
<path d="M169.54 172.325H165.884C165.629 172.325 165.426 172.122 165.426 171.867C165.426 171.611 165.629 171.408 165.884 171.408H169.54C169.796 171.408 169.999 171.611 169.999 171.867C169.999 172.122 169.796 172.325 169.54 172.325Z" fill="white"/>
<path d="M159.792 172.325H157.355C157.1 172.325 156.896 172.122 156.896 171.867C156.896 171.611 157.1 171.408 157.355 171.408H159.792C160.048 171.408 160.251 171.611 160.251 171.867C160.251 172.122 160.041 172.325 159.792 172.325Z" fill="white"/>
<path d="M162.229 174.455C163.659 174.455 164.817 173.296 164.817 171.867C164.817 170.438 163.659 169.279 162.229 169.279C160.8 169.279 159.642 170.438 159.642 171.867C159.642 173.296 160.8 174.455 162.229 174.455Z" fill="white"/>
<path d="M169.541 179.028H167.104C166.849 179.028 166.646 178.824 166.646 178.569C166.646 178.313 166.849 178.11 167.104 178.11H169.541C169.797 178.11 170 178.313 170 178.569C170 178.824 169.797 179.028 169.541 179.028Z" fill="white"/>
<path d="M161.011 179.028H157.355C157.1 179.028 156.896 178.824 156.896 178.569C156.896 178.313 157.1 178.11 157.355 178.11H161.011C161.266 178.11 161.469 178.313 161.469 178.569C161.469 178.824 161.26 179.028 161.011 179.028Z" fill="white"/>
<path d="M164.667 181.165C166.096 181.165 167.255 180.006 167.255 178.577C167.255 177.148 166.096 175.989 164.667 175.989C163.238 175.989 162.079 177.148 162.079 178.577C162.079 180.006 163.238 181.165 164.667 181.165Z" fill="white"/>
<path d="M132.466 130.783C126.672 130.783 121.975 126.086 121.975 120.291C121.975 114.497 126.672 109.8 132.466 109.8C138.261 109.8 142.958 114.497 142.958 120.291C142.958 126.086 138.261 130.783 132.466 130.783Z" fill="#37338A"/>
<path d="M128 121V116" stroke="white" stroke-width="1.5" stroke-linecap="round"/>
<path d="M133 118V116" stroke="white" stroke-width="1.5" stroke-linecap="round"/>
<path d="M128 125V123" stroke="white" stroke-width="1.5" stroke-linecap="round"/>
<path d="M137 125V124" stroke="white" stroke-width="1.5" stroke-linecap="round"/>
<path d="M133 125V121" stroke="white" stroke-width="1.5" stroke-linecap="round"/>
<path d="M131 118H134" stroke="white" stroke-width="1.5" stroke-linecap="round"/>
<path d="M127 123H130" stroke="white" stroke-width="1.5" stroke-linecap="round"/>
<path d="M135 124H138" stroke="white" stroke-width="1.5" stroke-linecap="round"/>
<path d="M137 121V116" stroke="white" stroke-width="1.5" stroke-linecap="round"/>
<path d="M166.229 147.379C160.435 147.379 155.738 142.681 155.738 136.887C155.738 131.093 160.435 126.396 166.229 126.396C172.023 126.396 176.721 131.093 176.721 136.887C176.721 142.681 172.023 147.379 166.229 147.379Z" fill="#37338A"/>
<path fill-rule="evenodd" clip-rule="evenodd" d="M167.893 136.887C167.893 137.828 167.149 138.591 166.232 138.591C165.314 138.591 164.57 137.828 164.57 136.887C164.57 135.946 165.314 135.184 166.232 135.184C167.149 135.184 167.893 135.946 167.893 136.887Z" stroke="white" stroke-width="1.5" stroke-linecap="round" stroke-linejoin="round"/>
<path fill-rule="evenodd" clip-rule="evenodd" d="M162.299 142.084L160.21 137.58C159.93 137.135 159.93 136.563 160.21 136.117L162.286 131.684C162.604 131.2 163.138 130.914 163.707 130.924H166.231H168.756C169.324 130.914 169.859 131.2 170.177 131.684L172.248 136.114C172.529 136.559 172.529 137.132 172.248 137.577L170.164 142.084C169.846 142.573 169.307 142.862 168.735 142.851H163.727C163.155 142.862 162.617 142.573 162.299 142.084Z" stroke="white" stroke-width="1.5" stroke-linecap="round" stroke-linejoin="round"/>
<path d="M128.457 197.238C122.662 197.238 117.965 192.541 117.965 186.746C117.965 180.952 122.662 176.255 128.457 176.255C134.251 176.255 138.948 180.952 138.948 186.746C138.948 192.541 134.251 197.238 128.457 197.238Z" fill="#37338A"/>
<path fill-rule="evenodd" clip-rule="evenodd" d="M127.803 193.457C127.46 193.457 127.168 193.202 127.112 192.856C127.061 192.575 126.864 192.346 126.599 192.258C126.383 192.182 126.172 192.093 125.967 191.99C125.723 191.862 125.43 191.881 125.204 192.04C124.931 192.242 124.555 192.21 124.316 191.966L123.389 191.015C123.139 190.759 123.107 190.355 123.312 190.061C123.471 189.824 123.494 189.518 123.372 189.259C123.292 189.079 123.222 188.894 123.161 188.706C123.074 188.41 122.834 188.189 122.538 188.131C122.18 188.073 121.917 187.758 121.914 187.387V186.198C121.912 185.77 122.213 185.404 122.624 185.335C122.936 185.274 123.197 185.055 123.316 184.753C123.352 184.668 123.389 184.583 123.428 184.5C123.587 184.187 123.565 183.81 123.371 183.518C123.129 183.173 123.166 182.698 123.459 182.397L124.141 181.698C124.477 181.354 125.007 181.309 125.393 181.593L125.415 181.608C125.703 181.808 126.07 181.844 126.39 181.704C126.733 181.578 126.985 181.276 127.055 180.909L127.064 180.877C127.141 180.392 127.55 180.035 128.029 180.035H128.852C129.344 180.035 129.764 180.4 129.844 180.898L129.859 180.965C129.925 181.316 130.165 181.607 130.491 181.732C130.806 181.871 131.167 181.834 131.45 181.636L131.497 181.602C131.893 181.309 132.438 181.354 132.784 181.708L133.411 182.352C133.725 182.676 133.765 183.186 133.504 183.557C133.3 183.867 133.274 184.266 133.436 184.601L133.476 184.697C133.607 185.025 133.891 185.262 134.23 185.328C134.673 185.402 134.999 185.794 135 186.254V187.321C135 187.727 134.714 188.073 134.323 188.14C134.002 188.203 133.741 188.441 133.642 188.761C133.598 188.889 133.55 189.017 133.496 189.145C133.371 189.425 133.399 189.753 133.569 190.007C133.793 190.327 133.758 190.767 133.487 191.046L132.617 191.939C132.368 192.194 131.975 192.227 131.689 192.017C131.451 191.849 131.141 191.831 130.885 191.969C130.703 192.061 130.516 192.144 130.325 192.215C130.057 192.31 129.86 192.544 129.809 192.83C129.754 193.188 129.454 193.454 129.1 193.457H127.803Z" stroke="white" stroke-linecap="round" stroke-linejoin="round"/>
<path fill-rule="evenodd" clip-rule="evenodd" d="M130.638 186.746C130.638 187.982 129.661 188.983 128.457 188.983C127.253 188.983 126.276 187.982 126.276 186.746C126.276 185.511 127.253 184.51 128.457 184.51C129.661 184.51 130.638 185.511 130.638 186.746Z" stroke="white" stroke-linecap="round" stroke-linejoin="round"/>
</g>
</g>
<defs>
<filter id="filter0_d_2710_3790" x="0" y="0" width="241" height="240" filterUnits="userSpaceOnUse" color-interpolation-filters="sRGB">
<feFlood flood-opacity="0" result="BackgroundImageFix"/>
<feColorMatrix in="SourceAlpha" type="matrix" values="0 0 0 0 0 0 0 0 0 0 0 0 0 0 0 0 0 0 127 0" result="hardAlpha"/>
<feOffset/>
<feGaussianBlur stdDeviation="5"/>
<feComposite in2="hardAlpha" operator="out"/>
<feColorMatrix type="matrix" values="0 0 0 0 0 0 0 0 0 0 0 0 0 0 0 0 0 0 0.1 0"/>
<feBlend mode="normal" in2="BackgroundImageFix" result="effect1_dropShadow_2710_3790"/>
<feBlend mode="normal" in="SourceGraphic" in2="effect1_dropShadow_2710_3790" result="shape"/>
</filter>
<clipPath id="clip0_2710_3790">
<rect x="10" y="10" width="221" height="220" rx="20" fill="white"/>
</clipPath>
</defs>
</svg>
