<svg width="17" height="15" viewBox="0 0 17 15" fill="none" xmlns="http://www.w3.org/2000/svg">
<path fill-rule="evenodd" clip-rule="evenodd" d="M12.7842 0C13.3079 0 13.7945 0.260113 14.0877 0.689191L14.1569 0.799928L16.7916 5.43015C17.1233 6.01292 17.0523 6.73704 16.6267 7.24238L16.5369 7.34043L9.19869 14.7093C8.83858 15.071 8.26954 15.0952 7.88151 14.7817L7.80127 14.7093L0.463093 7.34043C-0.00952446 6.86578 -0.130772 6.14849 0.147374 5.54848L0.208343 5.43015L2.84314 0.799928C3.10297 0.343322 3.56931 0.0480856 4.08575 0.00536637L4.21581 0H12.7842ZM4.7791 4.9953C4.4704 5.3053 4.4704 5.80792 4.7791 6.1179L7.80135 9.15275C8.18719 9.54028 8.81286 9.54028 9.19869 9.15275L12.2209 6.1179C12.5296 5.80792 12.5296 5.3053 12.2209 4.9953C11.9122 4.6853 11.4117 4.6853 11.103 4.9953L8.49998 7.60921L5.89702 4.9953C5.58831 4.6853 5.08781 4.6853 4.7791 4.9953Z" fill="white"/>
</svg>
