<svg width="18" height="21" viewBox="0 0 18 21" fill="none" xmlns="http://www.w3.org/2000/svg">
<path d="M5.93294 10.0989C5.93294 11.5564 4.73903 12.7379 3.26628 12.7379C1.79352 12.7379 0.599609 11.5564 0.599609 10.0989C0.599609 8.64147 1.79352 7.45996 3.26628 7.45996C4.73903 7.45996 5.93294 8.64147 5.93294 10.0989Z" stroke="#1C274C" stroke-width="1.2"/>
<path d="M11.2669 4.29395L5.93359 7.98848" stroke="#1C274C" stroke-width="1.2" stroke-linecap="round"/>
<path d="M11.2669 15.9055L5.93359 12.2109" stroke="#1C274C" stroke-width="1.2" stroke-linecap="round"/>
<path d="M16.599 16.9602C16.599 18.4177 15.405 19.5992 13.9323 19.5992C12.4595 19.5992 11.2656 18.4177 11.2656 16.9602C11.2656 15.5028 12.4595 14.3213 13.9323 14.3213C15.405 14.3213 16.599 15.5028 16.599 16.9602Z" stroke="#1C274C" stroke-width="1.2"/>
<path d="M16.599 3.23856C16.599 4.69601 15.405 5.87751 13.9323 5.87751C12.4595 5.87751 11.2656 4.69601 11.2656 3.23856C11.2656 1.78111 12.4595 0.599609 13.9323 0.599609C15.405 0.599609 16.599 1.78111 16.599 3.23856Z" stroke="#1C274C" stroke-width="1.2"/>
</svg>
