<svg width="88" height="112" viewBox="0 0 88 112" fill="none" xmlns="http://www.w3.org/2000/svg">
<g filter="url(#filter0_d_2023_173)">
<path d="M34.4312 61.8867L44.4723 67.6839L24.0821 103L18.2297 89.9483L34.4312 61.8867Z" fill="#143A62"/>
<path d="M34.4311 61.8861L24.3901 56.0889L4 91.4054L18.2297 89.9476L34.4311 61.8861Z" fill="#00B6FF"/>
<path d="M48.7563 61.8867L38.7151 67.6839L59.1054 103L64.9576 89.9483L48.7563 61.8867Z" fill="#00B6FF"/>
<path d="M48.7563 61.8861L58.7973 56.0889L79.1873 91.4054L64.9576 89.9476L48.7563 61.8861Z" fill="#143A62"/>
<path d="M75.8549 37.5694C75.8549 56.6612 60.3777 72.1384 41.2855 72.1384C22.1935 72.1384 6.71631 56.6612 6.71631 37.5694C6.71631 18.4772 22.1935 3 41.2855 3C60.3777 3 75.8549 18.4772 75.8549 37.5694Z" fill="url(#paint0_linear_2023_173)"/>
<path d="M68.2702 37.5692C68.2702 52.4724 56.1886 64.5539 41.2858 64.5539C26.3826 64.5539 14.3013 52.4724 14.3013 37.5692C14.3013 22.6663 26.3826 10.585 41.2858 10.585C56.1886 10.585 68.2702 22.6663 68.2702 37.5692Z" fill="#A88300"/>
<path d="M69.7741 40.4496C69.7741 55.3874 57.6647 67.4968 42.7269 67.4968C27.7892 67.4968 15.6797 55.3874 15.6797 40.4496C15.6797 25.5118 27.7892 13.4023 42.7269 13.4023C57.6647 13.4023 69.7741 25.5118 69.7741 40.4496Z" fill="#D3D3D3"/>
<path d="M68.3338 37.5686C68.3338 52.5064 56.2244 64.6158 41.2866 64.6158C26.3487 64.6158 14.2393 52.5064 14.2393 37.5686C14.2393 22.631 26.3487 10.5215 41.2866 10.5215C56.2244 10.5215 68.3338 22.631 68.3338 37.5686Z" fill="#BCBCBC"/>
<path d="M41.4316 18.7529L47.266 30.4219L58.9351 31.8805L50.9223 40.8656L53.1007 53.7596L41.4316 47.9252L29.7627 53.7596L31.9603 40.8656L23.9282 31.8805L35.5973 30.4219L41.4316 18.7529Z" fill="url(#paint1_linear_2023_173)"/>
</g>
<defs>
<filter id="filter0_d_2023_173" x="0" y="0" width="87.1873" height="112" filterUnits="userSpaceOnUse" color-interpolation-filters="sRGB">
<feFlood flood-opacity="0" result="BackgroundImageFix"/>
<feColorMatrix in="SourceAlpha" type="matrix" values="0 0 0 0 0 0 0 0 0 0 0 0 0 0 0 0 0 0 127 0" result="hardAlpha"/>
<feOffset dx="2" dy="3"/>
<feGaussianBlur stdDeviation="3"/>
<feComposite in2="hardAlpha" operator="out"/>
<feColorMatrix type="matrix" values="0 0 0 0 0 0 0 0 0 0 0 0 0 0 0 0 0 0 0.25 0"/>
<feBlend mode="normal" in2="BackgroundImageFix" result="effect1_dropShadow_2023_173"/>
<feBlend mode="normal" in="SourceGraphic" in2="effect1_dropShadow_2023_173" result="shape"/>
</filter>
<linearGradient id="paint0_linear_2023_173" x1="38.9387" y1="15.5997" x2="43.629" y2="102.891" gradientUnits="userSpaceOnUse">
<stop stop-color="#D3D3D3"/>
<stop offset="1" stop-color="#ACACAC"/>
</linearGradient>
<linearGradient id="paint1_linear_2023_173" x1="41.4323" y1="18.7529" x2="41.4323" y2="53.7596" gradientUnits="userSpaceOnUse">
<stop stop-color="#D3D3D3"/>
<stop offset="1" stop-color="#E8E8E8"/>
</linearGradient>
</defs>
</svg>
