<svg width="277" height="422" viewBox="0 0 277 422" fill="none" xmlns="http://www.w3.org/2000/svg">
<path d="M277 401.904V21.9043C277 10.8586 268.046 1.9043 257 1.9043H70.296C64.1693 1.9043 58.3805 4.71249 54.5881 9.52441L4.29209 73.3412C1.51187 76.8688 0 81.2296 0 85.7211V401.904C0 412.95 8.9543 421.904 20 421.904H257C268.046 421.904 277 412.95 277 401.904Z" fill="white"/>
<path d="M70.2959 2.9043H257C267.493 2.9043 276 11.4109 276 21.9043V401.904C276 412.398 267.493 420.904 257 420.904H20C9.50659 420.904 1 412.398 1 401.904V85.7207C1.0001 81.4539 2.43603 77.3111 5.07715 73.96L55.373 10.1436C58.9758 5.57226 64.4755 2.90433 70.2959 2.9043Z" stroke="#143A62" stroke-opacity="0.2" stroke-width="2"/>
<path d="M277 401.904V21.9043C277 10.8586 268.046 1.9043 257 1.9043H70.296C64.1693 1.9043 58.3805 4.71249 54.5881 9.52441L4.29209 73.3412C1.51187 76.8688 0 81.2296 0 85.7211V401.904C0 412.95 8.9543 421.904 20 421.904H257C268.046 421.904 277 412.95 277 401.904Z" fill="white"/>
<path d="M70.2959 2.9043H257C267.493 2.9043 276 11.4109 276 21.9043V401.904C276 412.398 267.493 420.904 257 420.904H20C9.50659 420.904 1 412.398 1 401.904V85.7207C1.0001 81.4539 2.43603 77.3111 5.07715 73.96L55.373 10.1436C58.9758 5.57226 64.4755 2.90433 70.2959 2.9043Z" stroke="#143A62" stroke-opacity="0.2" stroke-width="2"/>
<path d="M277 401.904V21.9043C277 10.8586 268.046 1.9043 257 1.9043H70.296C64.1693 1.9043 58.3805 4.71249 54.5881 9.52441L4.29209 73.3412C1.51187 76.8688 0 81.2296 0 85.7211V401.904C0 412.95 8.9543 421.904 20 421.904H257C268.046 421.904 277 412.95 277 401.904Z" fill="white"/>
<path d="M70.2959 2.9043H257C267.493 2.9043 276 11.4109 276 21.9043V401.904C276 412.398 267.493 420.904 257 420.904H20C9.50659 420.904 1 412.398 1 401.904V85.7207C1.0001 81.4539 2.43603 77.3111 5.07715 73.96L55.373 10.1436C58.9758 5.57226 64.4755 2.90433 70.2959 2.9043Z" stroke="#143A62" stroke-opacity="0.2" stroke-width="2"/>
<path d="M62.2848 8.14513L66.3291 54.4203C67.1541 63.8603 60.1703 72.1818 50.7303 73.0068L3.77295 77.1107L59.2316 7.22793C60.1959 6.01273 62.1498 6.59965 62.2848 8.14513Z" fill="#143A62"/>
</svg>
