<svg width="289" height="518" viewBox="0 0 289 518" fill="none" xmlns="http://www.w3.org/2000/svg">
<path d="M289 498V20C289 8.95431 280.046 0 269 0H83.5481C76.7235 0 70.37 3.4799 66.6952 9.23059L15.1471 89.8973C13.092 93.1133 12 96.8502 12 100.667V498C12 509.046 20.9543 518 32 518H269C280.046 518 289 509.046 289 498Z" fill="white"/>
<path d="M83.5479 1H269C279.493 1 288 9.50659 288 20V498C288 508.493 279.493 517 269 517H32C21.5066 517 13 508.493 13 498V100.667C13 97.0413 14.0379 93.4907 15.9902 90.4355L67.5381 9.76953C71.0291 4.30644 77.0646 1.00007 83.5479 1Z" stroke="#143A62" stroke-opacity="0.2" stroke-width="2"/>
<path d="M74.9668 5.9313L85.2225 59.0974C87.3146 69.9431 80.2184 80.4313 69.3727 82.5235L15.4229 92.9304L71.3164 5.23517C72.2884 3.71022 74.6243 4.15568 74.9668 5.9313Z" fill="#143A62"/>
</svg>
