<svg width="14" height="14" viewBox="0 0 14 14" fill="none" xmlns="http://www.w3.org/2000/svg">
<path d="M7 0.5C7.09164 0.500002 7.2389 0.539034 7.51562 0.900391C7.79255 1.26202 8.10436 1.81927 8.55566 2.62891L8.78516 3.04102C9.0153 3.45381 9.19465 3.79506 9.49414 4.02246C9.79676 4.2522 10.17 4.32677 10.6162 4.42773L11.0615 4.52832C11.9392 4.7269 12.5395 4.86418 12.9512 5.02637C13.3532 5.18479 13.4469 5.31755 13.4824 5.43164C13.5196 5.55122 13.5156 5.72675 13.2754 6.1084C13.0317 6.49538 12.6209 6.97718 12.0234 7.67578L11.7207 8.03125C11.4142 8.38969 11.1605 8.67194 11.0479 9.03418C10.936 9.3942 10.981 9.77415 11.0273 10.2529L11.0742 10.7266C11.1645 11.6579 11.2247 12.3019 11.2041 12.7666C11.1835 13.2303 11.0856 13.3678 10.999 13.4336C10.9206 13.4932 10.7831 13.5494 10.3652 13.4297C9.94102 13.3081 9.37835 13.0502 8.55664 12.6719L8.13867 12.4795C7.72273 12.288 7.37801 12.1172 7 12.1172C6.62199 12.1172 6.27727 12.288 5.86133 12.4795L5.44336 12.6719C4.62165 13.0502 4.05897 13.3081 3.63477 13.4297C3.21689 13.5494 3.07942 13.4931 3.00098 13.4336C2.91441 13.3678 2.81655 13.2303 2.7959 12.7666C2.77525 12.3019 2.83553 11.6579 2.92578 10.7266L2.97168 10.2529C3.01807 9.77422 3.06408 9.39425 2.95215 9.03418C2.83951 8.67193 2.58586 8.38972 2.2793 8.03125L1.97559 7.67578C1.37831 6.97736 0.968249 6.49532 0.724609 6.1084C0.484355 5.72675 0.480393 5.55121 0.517578 5.43164C0.553122 5.31755 0.646826 5.18479 1.04883 5.02637C1.46049 4.86419 2.06083 4.7269 2.93848 4.52832L3.38379 4.42773C3.82998 4.32678 4.20324 4.25219 4.50586 4.02246C4.80528 3.79508 4.98466 3.45395 5.21484 3.04102L5.44434 2.62891C5.89565 1.81928 6.20745 1.26202 6.48438 0.900391C6.76111 0.53902 6.90836 0.5 7 0.5Z" stroke="#143A62"/>
</svg>
