<svg width="24" height="23" viewBox="0 0 24 23" fill="none" xmlns="http://www.w3.org/2000/svg">
<path d="M8.89449 2.07314C9.79254 -0.690792 13.7028 -0.69079 14.6008 2.07314L15.3174 4.27862C15.7191 5.51469 16.8709 6.35157 18.1706 6.35157H20.4896C23.3957 6.35157 24.6041 10.0704 22.2529 11.7786L20.3768 13.1417C19.3254 13.9056 18.8854 15.2597 19.287 16.4958L20.0036 18.7013C20.9017 21.4652 17.7382 23.7636 15.3871 22.0554L13.511 20.6923C12.4595 19.9284 11.0358 19.9284 9.9843 20.6923L8.10821 22.0554C5.75707 23.7636 2.59363 21.4652 3.49168 18.7013L4.20829 16.4958C4.60991 15.2597 4.16994 13.9056 3.11847 13.1417L1.24238 11.7786C-1.10876 10.0704 0.0995655 6.35157 3.00574 6.35157H5.32471C6.62439 6.35157 7.77626 5.51469 8.17788 4.27862L8.89449 2.07314Z" fill="#FFEA02"/>
</svg>
