<svg width="568" height="568" viewBox="0 0 568 568" fill="none" xmlns="http://www.w3.org/2000/svg">
<rect width="568" height="568" rx="20" fill="white"/>
<path d="M190.853 123.484C190.853 123.484 241.027 161.55 317.303 90.3723C385.044 27.1609 440.356 126.894 440.743 174.655C441.245 236.524 373.002 286.028 406.12 326.664C439.238 367.301 340.442 434.405 287.196 376.331C220.96 304.088 203.016 362.785 165.262 362.785C138.165 362.785 82.5329 295.472 120.101 245.392C151.713 203.251 134.472 189.265 126.123 174.655C114.079 153.584 142.681 96.3929 190.853 123.484Z" fill="#DEE9FF"/>
<path d="M447.44 207.604C450.137 208.606 453.084 208.673 455.888 208.029C467.637 205.333 508.033 198.195 501.013 229.491C499.484 235.7 475.825 270.474 509.518 283.168C511.987 284.11 514.599 284.624 517.24 284.689C527.614 284.902 548.171 282.454 556.775 273.697C567.168 263.12 555.813 268.136 555.813 268.136C555.813 268.136 516.301 285.375 502.344 267.085C500.791 265.05 499.802 262.095 499.519 259.55C499.027 255.139 500.987 249.309 503.561 244.234C507.044 237.366 523.768 206.469 487.458 197.468C479.094 195.477 466.945 193.688 451.28 200.281C442.143 204.127 444.167 206.388 447.44 207.604Z" fill="#BDD6F9"/>
<path d="M455.526 196.07L445.009 200.005C441.379 201.364 439.537 205.407 440.896 209.037L441.417 210.429C442.776 214.059 446.82 215.9 450.451 214.542L460.967 210.607C464.598 209.248 466.439 205.205 465.081 201.575L464.559 200.182C463.201 196.553 459.156 194.712 455.526 196.07Z" fill="#0E84E5"/>
<path d="M390.971 207.457L356.287 220.435C354.472 221.114 353.551 223.136 354.23 224.951L354.367 225.316C355.046 227.131 357.068 228.051 358.884 227.372L393.568 214.394C395.383 213.715 396.304 211.693 395.624 209.878L395.488 209.513C394.808 207.698 392.786 206.778 390.971 207.457Z" fill="white"/>
<path d="M400.653 233.316L365.968 246.295C364.153 246.974 363.232 248.996 363.912 250.81L364.048 251.175C364.728 252.99 366.75 253.911 368.565 253.232L403.249 240.253C405.065 239.574 405.985 237.552 405.306 235.738L405.169 235.373C404.49 233.558 402.468 232.637 400.653 233.316Z" fill="white"/>
<path d="M432.673 189.81L404.563 200.328C400.932 201.687 399.091 205.73 400.449 209.36L410.047 234.998C411.406 238.628 415.45 240.469 419.081 239.111L447.191 228.592C450.822 227.234 452.663 223.19 451.305 219.56L441.707 193.922C440.348 190.293 436.304 188.451 432.673 189.81Z" fill="#5895F9"/>
<path d="M407.465 196.535L379.355 207.054C375.724 208.412 373.883 212.456 375.241 216.086L386.692 246.673C388.05 250.303 392.095 252.144 395.725 250.785L423.836 240.267C427.466 238.908 429.308 234.865 427.949 231.235L416.499 200.648C415.14 197.018 411.096 195.177 407.465 196.535Z" fill="#699CFF"/>
<path d="M411.867 190.33L411.647 190.412C409.227 191.318 407.999 194.013 408.905 196.433L424.945 239.283C425.851 241.702 428.547 242.93 430.968 242.024L431.188 241.942C433.608 241.036 434.836 238.34 433.93 235.921L417.89 193.071C416.984 190.651 414.288 189.424 411.867 190.33Z" fill="#208AF2"/>
<path d="M12.0729 217.726C12.0729 217.726 68.5287 201.864 60.3323 238.409C58.9089 244.192 38.4191 273.966 62.8255 288.261C68.0662 291.33 74.114 292.69 80.1873 292.658C91.0764 292.602 108.339 290.506 116.094 282.615C126.487 272.037 115.133 277.053 115.133 277.053C115.133 277.053 82.7094 290.387 66.0287 279.758C60.333 276.129 57.7512 269.102 59.2979 262.528C60.0885 259.263 61.2923 256.112 62.8803 253.151C66.508 246.358 83.0877 215.386 46.7774 206.385C38.413 204.394 26.2643 202.605 10.5996 209.198C-5.06502 215.792 12.0729 217.726 12.0729 217.726Z" fill="#BDD6F9"/>
<path d="M123.685 268.876L113.168 272.811C109.538 274.169 107.696 278.213 109.055 281.843L109.576 283.235C110.935 286.865 114.979 288.706 118.61 287.348L129.127 283.412C132.757 282.054 134.599 278.01 133.24 274.381L132.719 272.988C131.36 269.358 127.315 267.517 123.685 268.876Z" fill="#0E84E5"/>
<path d="M141.454 251.575L125.867 257.408C122.237 258.766 120.395 262.81 121.754 266.439L129.27 286.516C130.629 290.146 134.673 291.987 138.303 290.629L153.89 284.797C157.52 283.438 159.362 279.394 158.003 275.765L150.487 255.688C149.129 252.058 145.084 250.217 141.454 251.575Z" fill="#5895F9"/>
<path d="M167.401 236.117L144.157 244.815C140.527 246.173 138.685 250.217 140.044 253.846L151.494 284.434C152.853 288.063 156.898 289.905 160.528 288.546L183.772 279.849C187.402 278.49 189.244 274.447 187.885 270.817L176.435 240.23C175.076 236.6 171.032 234.759 167.401 236.117Z" fill="#699CFF"/>
<path d="M172.325 229.784L172.105 229.866C169.685 230.772 168.457 233.467 169.363 235.887L185.403 278.737C186.309 281.156 189.005 282.384 191.426 281.478L191.646 281.396C194.066 280.49 195.294 277.794 194.388 275.375L178.348 232.525C177.442 230.105 174.746 228.878 172.325 229.784Z" fill="#208AF2"/>
<path d="M289.679 172.32C288.842 172.227 288.074 171.813 287.536 171.165C286.998 170.517 286.732 169.686 286.795 168.846L288.529 137.175C288.633 135.283 290.231 133.846 292.044 134.013L294.571 134.247C296.384 134.414 297.683 136.118 297.429 137.997L293.167 169.434C293.069 170.272 292.652 171.039 292.002 171.576C291.353 172.114 290.521 172.38 289.679 172.32Z" fill="#418DF9"/>
<path d="M274.705 175.051C274.444 175.127 274.171 175.152 273.902 175.123C273.632 175.094 273.37 175.012 273.132 174.882C272.894 174.752 272.684 174.576 272.513 174.365C272.343 174.154 272.216 173.911 272.14 173.651L265.946 153.95C265.766 153.389 265.816 152.781 266.084 152.257C266.353 151.733 266.818 151.337 267.378 151.156L268.981 150.672C269.256 150.592 269.545 150.569 269.829 150.606C270.114 150.643 270.387 150.739 270.633 150.886C270.878 151.034 271.09 151.232 271.256 151.466C271.421 151.7 271.536 151.965 271.593 152.246L276.184 172.431C276.312 172.974 276.231 173.545 275.956 174.03C275.682 174.515 275.235 174.88 274.705 175.051Z" fill="#418DF9"/>
<path d="M266.347 186.413C265.237 187.787 263.005 187.771 261.288 186.375L230.786 161.599C228.965 160.12 228.427 157.67 229.604 156.213L231.245 154.18C232.422 152.722 234.84 152.842 236.564 154.443L265.425 181.252C267.05 182.761 267.457 185.038 266.347 186.413Z" fill="#418DF9"/>
<path d="M280.446 308.184C281.232 308.488 281.869 309.084 282.223 309.848C282.578 310.612 282.623 311.483 282.347 312.279L272.58 342.456C271.997 344.259 270.085 345.239 268.374 344.616L265.99 343.745C264.28 343.12 263.459 341.14 264.185 339.39L276.336 310.083C276.644 309.298 277.244 308.663 278.01 308.309C278.775 307.955 279.648 307.91 280.446 308.184Z" fill="#418DF9"/>
<path d="M295.622 309.368C295.894 309.36 296.164 309.407 296.417 309.503C296.671 309.6 296.903 309.746 297.1 309.933C297.297 310.119 297.455 310.343 297.566 310.59C297.677 310.838 297.738 311.105 297.745 311.376L298.7 332.006C298.731 332.593 298.528 333.169 298.135 333.607C297.741 334.045 297.19 334.309 296.603 334.342L294.928 334.4C294.642 334.407 294.357 334.355 294.092 334.247C293.826 334.139 293.586 333.976 293.387 333.771C293.187 333.565 293.033 333.32 292.932 333.052C292.832 332.783 292.789 332.497 292.805 332.211L293.524 311.523C293.539 310.966 293.763 310.435 294.152 310.036C294.541 309.636 295.066 309.398 295.622 309.368Z" fill="#418DF9"/>
<path d="M306.604 300.518C308.029 299.472 310.182 300.058 311.486 301.846L334.647 333.587C336.031 335.483 335.925 337.988 334.413 339.097L332.308 340.643C330.797 341.752 328.49 341.019 327.232 339.03L306.176 305.742C304.992 303.868 305.18 301.563 306.604 300.518Z" fill="#418DF9"/>
</svg>
