<svg width="40" height="35" viewBox="0 0 40 35" fill="none" xmlns="http://www.w3.org/2000/svg">
<path d="M30.0801 1C30.9264 1 31.7154 1.39099 32.2256 2.04199L32.3242 2.17578L32.4639 2.39941L38.6426 13.168C39.2093 14.1555 39.0903 15.3815 38.3672 16.2412L38.1895 16.4346L20.9385 33.6133C20.4587 34.0912 19.6989 34.1265 19.1787 33.7168L19.04 33.5918L1.79492 16.4189C0.985307 15.6124 0.777042 14.3962 1.24902 13.3779L1.37793 13.1318L7.55664 2.36426C7.99999 1.59165 8.79523 1.08763 9.67871 1.00977L9.93652 1H30.0801ZM29.4609 10.9473C28.3444 9.83532 26.5356 9.83554 25.4189 10.9473L20 16.3428L14.5811 10.9473C13.4645 9.8354 11.6556 9.8354 10.5391 10.9473C9.42053 12.0614 9.42052 13.8693 10.5391 14.9834L17.6504 22.0645C18.9483 23.3573 21.0506 23.3571 22.3486 22.0645L22.3496 22.0654L29.4609 14.9834C30.5796 13.8693 30.5796 12.0614 29.4609 10.9473Z" stroke="white" stroke-width="2"/>
</svg>
