<svg width="30" height="30" viewBox="0 0 30 30" fill="none" xmlns="http://www.w3.org/2000/svg">
<path fill-rule="evenodd" clip-rule="evenodd" d="M27.2446 12.27C26.7701 7.5 23.8926 0 14.9999 0C6.10713 0 3.22962 7.5 2.75514 12.27C1.09064 12.8891 -0.00729255 14.4553 3.6469e-05 16.2V18.3C3.6469e-05 20.6196 1.91883 22.5 4.28573 22.5C6.65263 22.5 8.57138 20.6196 8.57138 18.3V16.2C8.56368 14.4929 7.50608 12.9589 5.89285 12.315C6.19896 9.555 7.69894 3 14.9999 3C22.3008 3 23.7854 9.555 24.0916 12.315C22.4816 12.9603 21.4293 14.4953 21.4283 16.2V18.3C21.435 19.9125 22.3798 21.3799 23.862 22.08C23.2191 23.265 21.5814 24.87 17.5559 25.35C16.7513 24.1525 15.1945 23.6805 13.8404 24.2233C12.4862 24.7662 11.7134 26.1722 11.9957 27.579C12.2781 28.9859 13.5368 30 14.9999 30C16.156 29.9937 17.2099 29.3497 17.7243 28.335C24.2905 27.6 26.3875 24.285 27.0456 22.335C28.8262 21.7698 30.0236 20.1341 29.9996 18.3V16.2C30.007 14.4553 28.9091 12.8891 27.2446 12.27ZM5.5102 18.3C5.5102 18.9627 4.96198 19.5 4.28573 19.5C3.60947 19.5 3.06125 18.9627 3.06125 18.3V16.2C3.06125 15.7713 3.29464 15.3751 3.67349 15.1608C4.05234 14.9464 4.51911 14.9464 4.89796 15.1608C5.27682 15.3751 5.5102 15.7713 5.5102 16.2V18.3ZM24.4895 16.2C24.4895 15.5373 25.0377 15 25.714 15C26.3902 15 26.9385 15.5373 26.9385 16.2V18.3C26.9385 18.9627 26.3902 19.5 25.714 19.5C25.0377 19.5 24.4895 18.9627 24.4895 18.3V16.2Z" fill="white"/>
</svg>
