<svg width="100" height="103" viewBox="0 0 100 103" fill="none" xmlns="http://www.w3.org/2000/svg">
<path d="M10.5238 45.0825C10.5238 45.0825 28.1231 44.3788 31.9264 15.4899C35.3038 -10.1661 64.981 1.5116 73.5595 11.7387C84.6723 24.9871 78.7484 47.777 93.1242 50.6561C107.5 53.5351 98.1123 85.5448 76.2907 82.4809C49.1455 78.6696 55.7131 94.5095 47.5642 101.214C41.716 106.026 17.736 101.394 16.9368 83.9266C16.2642 69.2285 10.0555 69.275 5.65465 67.6084C-0.692342 65.2047 -4.69164 47.7968 10.5238 45.0825Z" fill="#DEE9FF"/>
<path d="M70.3553 77.1651L53.0645 60.1035L49.6406 63.5636L66.9315 80.6252L70.3553 77.1651Z" fill="#699CFF"/>
<path d="M76.961 81.7486L63.5087 68.4746C63.4338 68.4007 63.3131 68.4015 63.239 68.4762L58.1474 73.6217C58.0734 73.6965 58.0741 73.8171 58.149 73.891L71.6014 87.1649C71.6763 87.2388 71.797 87.2381 71.871 87.1633L76.9626 82.0178C77.0366 81.943 77.0359 81.8225 76.961 81.7486Z" fill="#0E84E5"/>
<path d="M37.74 68.6849C49.6356 68.6849 59.2789 59.0553 59.2789 47.1765C59.2789 35.2976 49.6356 25.668 37.74 25.668C25.8445 25.668 16.2012 35.2976 16.2012 47.1765C16.2012 59.0553 25.8445 68.6849 37.74 68.6849Z" fill="#0E84E5"/>
<path d="M37.7393 65.1737C47.6939 65.1737 55.7637 57.1153 55.7637 47.1748C55.7637 37.2342 47.6939 29.1758 37.7393 29.1758C27.7846 29.1758 19.7148 37.2342 19.7148 47.1748C19.7148 57.1153 27.7846 65.1737 37.7393 65.1737Z" fill="#D4E5FF"/>
<path d="M74.1527 27.7309C69.1005 26.0956 63.6405 28.8614 61.9962 33.9273C60.3586 38.9725 63.1283 44.4247 68.2014 46.0666C73.2745 47.7085 78.7203 44.9156 80.3582 39.8702C81.9962 34.8248 79.2053 29.3662 74.1527 27.7309ZM72.6283 32.4277C73.1938 32.6107 73.6921 32.9574 74.0601 33.4236C74.428 33.8899 74.649 34.4548 74.695 35.0467C74.741 35.6385 74.6099 36.2307 74.3184 36.7481C74.0269 37.2654 73.5881 37.6847 73.0576 37.9527C72.5272 38.2207 71.9289 38.3253 71.3388 38.2533C70.7488 38.1812 70.1934 37.9359 69.7431 37.5482C69.2929 37.1606 68.9681 36.6481 68.8099 36.0759C68.6518 35.5036 68.6674 34.8974 68.8547 34.334C69.3607 32.7752 71.0671 31.9225 72.6283 32.4277ZM68.8139 44.1797C67.1353 43.6392 65.6972 42.5328 64.7457 41.0499C66.5262 40.0397 68.3878 39.7583 70.072 40.3034C71.7563 40.8486 73.1258 42.153 73.9471 44.028C72.3054 44.6716 70.4908 44.7253 68.8139 44.1797Z" fill="#418DF9"/>
<path d="M32.0996 73.7051C31.2221 74.1524 30.497 74.8495 30.0162 75.7083C29.5354 76.5671 29.3204 77.549 29.3985 78.5297C29.4765 79.5105 29.844 80.4462 30.4545 81.2184C31.0651 81.9906 31.8912 82.5647 32.8285 82.8681C33.7657 83.1714 34.772 83.1904 35.7201 82.9227C36.6682 82.6549 37.5155 82.1124 38.1548 81.3638C38.7941 80.6152 39.1968 79.6941 39.3119 78.7169C39.427 77.7398 39.2493 76.7505 38.8014 75.8742C38.1997 74.7001 37.1561 73.8124 35.8997 73.4057C34.6433 72.9991 33.2766 73.1067 32.0996 73.7051ZM33.2599 75.975C33.5332 75.8356 33.8418 75.7805 34.1466 75.8166C34.4513 75.8526 34.7385 75.9783 34.9716 76.1775C35.2047 76.3768 35.3734 76.6407 35.4561 76.9358C35.5388 77.2309 35.5318 77.5439 35.4361 77.8351C35.3405 78.1263 35.1603 78.3825 34.9186 78.5713C34.6769 78.7601 34.3844 78.8729 34.0784 78.8955C33.7724 78.918 33.4665 78.8493 33.1996 78.6981C32.9327 78.5468 32.7168 78.3198 32.5794 78.0458C32.3971 77.6806 32.3664 77.2584 32.4938 76.8708C32.6212 76.4831 32.8964 76.1612 33.2599 75.9748V75.975ZM36.1631 81.6547C35.3529 82.0692 34.4236 82.1896 33.5343 81.9951C33.8149 80.9774 34.3916 80.1962 35.2057 79.7813C36.0198 79.3664 36.9963 79.3434 37.9814 79.7284C37.6174 80.5616 36.9746 81.2425 36.1631 81.6545V81.6547Z" fill="#418DF9"/>
</svg>
