<svg width="100" height="103" viewBox="0 0 100 103" fill="none" xmlns="http://www.w3.org/2000/svg">
<path d="M93.9734 33.7459C93.9734 33.7459 79.2024 45.935 96.2104 72.0363C111.316 95.2167 77.3643 105.265 62.7341 102.574C43.7818 99.0887 32.9003 76.5684 18.4069 83.7041C3.9134 90.8399 -10.4448 58.5047 10.6373 46.6061C36.8626 31.805 20.0316 23.2038 22.387 12.3511C24.0775 4.56226 48.134 -7.48009 61.1053 6.25656C72.0207 17.8158 77.3735 13.6804 82.3624 12.1373C89.5578 9.91165 105.264 21.4884 93.9734 33.7459Z" fill="#DEE9FF"/>
<path d="M52.1513 50.2482L47.312 69.9971C47.1323 70.7295 47.0994 71.4899 47.2152 72.2349C47.331 72.9799 47.5933 73.695 47.9869 74.3391C48.3806 74.9833 48.8979 75.5439 49.5095 75.9891C50.121 76.4343 50.8147 76.7552 51.5509 76.9336L75.6193 82.7712C76.2381 89.5312 81.8613 90.0311 84.0798 90.2626C84.1017 90.2638 84.1233 90.2578 84.1413 90.2455C84.1594 90.2332 84.1729 90.2153 84.1796 90.1946C84.1864 90.1739 84.1861 90.1516 84.1787 90.1311C84.1714 90.1106 84.1574 90.0931 84.139 90.0813C82.5459 89.1151 82.0703 86.4666 81.9641 84.3102L83.7508 84.7435C84.487 84.9223 85.2513 84.955 86.0001 84.8397C86.749 84.7245 87.4677 84.4636 88.1151 84.072C88.7626 83.6803 89.3261 83.1656 89.7736 82.5572C90.221 81.9488 90.5436 81.2587 90.7229 80.5262L95.5622 60.7772C95.7419 60.0449 95.7747 59.2845 95.6589 58.5395C95.5431 57.7945 95.2809 57.0794 94.8872 56.4353C94.4936 55.7911 93.9762 55.2305 93.3647 54.7853C92.7532 54.3401 92.0595 54.0192 91.3233 53.8408L59.1234 46.0309C58.3872 45.8521 57.6229 45.8194 56.8741 45.9346C56.1252 46.0498 55.4066 46.3107 54.7591 46.7024C54.1116 47.094 53.5481 47.6087 53.1006 48.2171C52.6532 48.8255 52.3306 49.5157 52.1513 50.2482V50.2482Z" fill="#A2BDFF"/>
<path d="M92.076 59.9898L78.6175 56.7254C78.5289 56.704 78.4395 56.758 78.4179 56.8462L77.7275 59.6638C77.7059 59.752 77.7602 59.8409 77.8488 59.8624L91.3073 63.1267C91.396 63.1482 91.4853 63.0941 91.5069 63.006L92.1974 60.1883C92.219 60.1002 92.1646 60.0113 92.076 59.9898Z" fill="white"/>
<path d="M90.1528 67.8326L53.6878 58.9881C53.5992 58.9666 53.5098 59.0207 53.4882 59.1089L52.7978 61.9265C52.7762 62.0147 52.8305 62.1036 52.9191 62.1251L89.3841 70.9696C89.4727 70.9911 89.5621 70.937 89.5837 70.8488L90.2741 68.0312C90.2958 67.943 90.2414 67.8541 90.1528 67.8326Z" fill="#D4E5FF"/>
<path d="M88.2309 75.6754L51.7659 66.8309C51.6773 66.8094 51.588 66.8635 51.5663 66.9517L50.8759 69.7693C50.8543 69.8575 50.9086 69.9464 50.9973 69.9679L87.4622 78.8123C87.5508 78.8338 87.6402 78.7798 87.6618 78.6916L88.3522 75.874C88.3738 75.7858 88.3195 75.6969 88.2309 75.6754Z" fill="#D4E5FF"/>
<path d="M65.7025 26.5567L73.6162 51.8399C73.9099 52.7775 74.0151 53.7634 73.9257 54.7415C73.8363 55.7195 73.5541 56.6704 73.0952 57.5399C72.6363 58.4094 72.0097 59.1804 71.2512 59.8088C70.4927 60.4373 69.6172 60.9109 68.6746 61.2027L37.862 70.7485C37.6126 79.5876 30.3428 80.6945 27.4775 81.1757C27.4491 81.1794 27.4202 81.1736 27.3955 81.1591C27.3708 81.1447 27.3516 81.1224 27.341 81.0959C27.3305 81.0694 27.3291 81.0401 27.3372 81.0127C27.3453 80.9853 27.3623 80.9614 27.3856 80.9448C29.3774 79.5592 29.7783 76.077 29.7394 73.2647L27.4517 73.9735C26.5093 74.2656 25.5184 74.3702 24.5354 74.2813C23.5524 74.1924 22.5966 73.9116 21.7227 73.4551C20.8488 72.9985 20.0739 72.3752 19.4422 71.6206C18.8105 70.8661 18.3344 69.9951 18.0412 69.0574L10.1275 43.7742C9.83378 42.8366 9.7286 41.8506 9.81798 40.8726C9.90736 39.8946 10.1896 38.9436 10.6484 38.0742C11.1073 37.2047 11.7339 36.4337 12.4924 35.8052C13.2509 35.1767 14.1265 34.703 15.069 34.4113L56.2916 21.6404C57.234 21.3482 58.225 21.2435 59.208 21.3325C60.1911 21.4214 61.1469 21.7021 62.0209 22.1587C62.8948 22.6152 63.6698 23.2386 64.3015 23.9933C64.9332 24.7479 65.4093 25.6189 65.7025 26.5567V26.5567Z" fill="#418DF9"/>
<path d="M36.5889 35.6133L14.5142 42.4434C14.4271 42.4703 14.3784 42.5625 14.4055 42.6491L15.563 46.3522C15.5901 46.4388 15.6827 46.4873 15.7699 46.4603L37.8446 39.6302C37.9317 39.6033 37.9804 39.5112 37.9533 39.4245L36.7957 35.7215C36.7686 35.6348 36.6761 35.5864 36.5889 35.6133Z" fill="white"/>
<path d="M64.4466 37.9604L17.6685 52.4531C17.5814 52.4801 17.5327 52.5722 17.5599 52.6589L18.7187 56.361C18.7458 56.4477 18.8384 56.4961 18.9255 56.4691L65.7037 41.9764C65.7908 41.9494 65.8394 41.8573 65.8123 41.7706L64.6535 38.0685C64.6263 37.9818 64.5337 37.9334 64.4466 37.9604Z" fill="#D4E5FF"/>
<path d="M67.5846 48.0515L20.7954 62.5283C20.7083 62.5553 20.6597 62.6474 20.6868 62.7341L21.8443 66.4371C21.8714 66.5238 21.964 66.5722 22.0511 66.5453L68.8403 52.0684C68.9274 52.0415 68.9761 51.9494 68.949 51.8627L67.7914 48.1597C67.7643 48.073 67.6717 48.0246 67.5846 48.0515Z" fill="#D4E5FF"/>
</svg>
