<svg width="157" height="154" viewBox="0 0 157 154" fill="none" xmlns="http://www.w3.org/2000/svg">
<g filter="url(#filter0_d_3149_2579)">
<path d="M104.018 27.9509C105.008 27.3149 106.159 26.9706 107.337 26.9573C107.541 26.9573 107.74 26.9685 107.936 26.9861C107.853 26.6373 107.748 26.2277 107.615 25.7829C107.193 25.572 106.826 25.2659 106.543 24.8891C106.26 24.5121 106.07 24.0747 105.987 23.6117C105.836 23.6377 105.682 23.6512 105.529 23.6517C104.982 23.6534 104.446 23.4966 103.986 23.2005C103.874 23.1761 103.762 23.1451 103.653 23.1077C103.51 23.1329 103.364 23.1464 103.218 23.1477C102.475 23.1518 101.76 22.8645 101.228 22.3477L99.835 22.8277C99.835 22.8277 103.409 24.6229 104.018 27.9509Z" fill="#00B6FF"/>
<path d="M104.435 132.154C104.434 134.706 103.415 137.153 101.603 138.958C99.7907 140.762 97.3328 141.777 94.7696 141.778H48.7575C46.194 141.777 43.7357 140.763 41.9229 138.958C40.1102 137.153 39.0915 134.706 39.0907 132.154V32.1936C39.0899 30.9291 39.3393 29.6767 39.8246 28.5083C40.31 27.3399 41.022 26.278 41.9197 25.3836C42.8174 24.4891 43.8833 23.7794 45.0566 23.2953C46.2298 22.811 47.4874 22.5617 48.7575 22.5615H54.9064C56.0129 22.5618 57.0741 22.9991 57.8571 23.7775C58.575 24.4876 59.0052 25.4358 59.0656 26.4415C59.0746 26.5249 59.079 26.6087 59.0785 26.6927C59.0785 26.7647 59.0785 26.8351 59.0785 26.9055C59.1084 27.5156 59.2672 28.1126 59.5446 28.6575C59.5526 28.6703 59.5574 28.6879 59.5655 28.7007C59.9015 29.3564 60.4137 29.9063 61.045 30.2897C61.6763 30.6731 62.4019 30.8745 63.1413 30.872H80.2685C80.8173 30.8728 81.361 30.7656 81.8682 30.5566C82.3754 30.3476 82.8362 30.0411 83.224 29.6543C83.5205 29.3595 83.7683 29.0198 83.9584 28.6479C83.9665 28.6411 83.9726 28.6323 83.9761 28.6223C84.2583 28.0892 84.4161 27.4996 84.4374 26.8975C84.4374 26.8447 84.4374 26.7967 84.4374 26.7375C84.4502 24.4479 86.2052 22.5567 88.5082 22.5567H93.7008L99.1651 22.4895C99.276 21.4495 99.7211 20.3551 100.181 19.3887C100.334 19.0542 100.515 18.733 100.722 18.4287H49.1513C47.4863 18.4284 45.8375 18.7548 44.2992 19.389C42.7609 20.0233 41.363 20.953 40.1856 22.1252C39.0084 23.2974 38.0745 24.6889 37.4374 26.2204C36.8002 27.7519 36.4725 29.3934 36.4727 31.0512V134.378C36.4722 136.035 36.7999 137.677 37.4369 139.209C38.0738 140.74 39.0077 142.132 40.1853 143.304C41.3627 144.476 42.7604 145.406 44.2989 146.04C45.8374 146.675 47.4861 147.001 49.1513 147H95.774C97.4392 147 99.0879 146.674 100.626 146.04C102.165 145.406 103.563 144.476 104.74 143.304C105.918 142.132 106.852 140.74 107.489 139.209C108.126 137.677 108.454 136.036 108.454 134.378V127.263L104.436 129.543L104.435 132.154Z" fill="#00B6FF"/>
<path d="M105.836 52.9465C105.354 52.4521 104.888 53.2201 104.435 52.6953V90.7162C104.718 89.678 105.067 88.6588 105.481 87.665C105.574 87.4474 105.667 87.2282 105.764 87.0122C105.968 86.5658 106.182 86.1258 106.407 85.689C106.468 85.5642 106.53 85.4458 106.596 85.3274C106.662 85.209 106.742 85.057 106.818 84.929C106.947 84.6954 107.085 84.4618 107.226 84.233C107.323 84.0602 107.43 83.8938 107.536 83.7258C107.615 83.593 107.697 83.465 107.784 83.3418C107.877 83.1914 107.978 83.0426 108.076 82.897C108.197 82.7162 108.324 82.5354 108.449 82.3578V55.2745C107.967 54.9001 107.485 54.5065 107.032 54.1017C106.619 53.7305 106.22 53.3465 105.836 52.9465Z" fill="#00B6FF"/>
<path d="M108.07 26.5205C107.513 27.2181 106.824 26.6325 105.927 26.6325C105.111 26.6325 104.642 27.9477 104.124 27.4181C104.153 27.4885 103.862 28.5381 103.886 28.6085C103.965 28.8197 104.036 29.0405 104.098 29.2613V29.2693C104.179 29.5525 104.24 29.8341 104.293 30.1253C104.306 30.1909 104.32 30.2629 104.328 30.3333C104.351 30.4821 104.373 30.6373 104.386 30.7909C104.404 30.9333 104.414 31.0764 104.417 31.2197C104.431 31.3797 104.434 31.5541 104.434 31.7269V42.927C104.566 43.0361 104.675 43.169 104.756 43.319C105.398 44.487 106.014 43.6118 106.702 44.759C107.068 45.351 107.827 45.8134 108.216 45.3846C108.359 45.2246 108.447 44.5398 108.447 44.2838V30.7509C108.447 30.1084 108.399 29.4666 108.304 28.8309C108.275 28.5893 108.121 26.7653 108.07 26.5205Z" fill="#00B6FF"/>
<path d="M59.083 26.4736C59.3741 27.0127 59.5336 27.6122 59.5491 28.224C59.2718 27.6797 59.1131 27.0832 59.083 26.4736Z" fill="#00B6FF"/>
<path d="M84.4368 26.4629C84.4155 27.0651 84.2578 27.6547 83.9756 28.1877C84.0066 27.5871 84.1638 26.9995 84.4368 26.4629Z" fill="#00B6FF"/>
<path d="M145.962 75.2812C130.608 80.054 122.67 68.3644 122.67 68.3644C123.25 67.5084 122.373 65.8988 122.373 65.8988L121.839 63.1787C115.056 62.8475 108.918 56.2651 108.918 56.2651C117.694 54.7163 113.911 49.4827 113.911 49.4827L119.962 54.1995L120.618 54.1419C120.698 45.9819 125.859 42.1707 127.475 40.8795C129.092 39.5883 129.369 40.8699 129.369 40.8699C129.369 40.8699 128.658 43.4811 131.689 43.8427C134.72 44.2043 136.94 41.3771 136.94 41.3771C137.98 39.0571 139.177 40.4955 139.177 40.4955C144.373 43.2475 145.313 50.0571 146.428 54.8155C147.198 58.0763 148.664 65.1036 149.643 68.5276C149.985 69.7125 149.916 70.978 149.448 72.1196C149.136 72.869 148.662 73.5407 148.059 74.0871C147.457 74.6335 146.741 75.0412 145.962 75.2812Z" fill="#143A62"/>
<path d="M145.962 75.2812C130.608 80.054 122.67 68.3644 122.67 68.3644C123.25 67.5084 122.373 65.8988 122.373 65.8988L121.839 63.1787C115.056 62.8475 108.918 56.2651 108.918 56.2651C114.733 53.3707 113.911 49.4827 113.911 49.4827L119.962 54.1995L120.618 54.1419C120.698 45.9819 125.859 42.1707 127.475 40.8795C129.092 39.5883 129.369 40.8699 129.369 40.8699C129.369 40.8699 128.658 43.4811 131.689 43.8427C134.72 44.2043 136.94 41.3771 136.94 41.3771C137.98 39.0571 139.177 40.4955 139.177 40.4955C144.373 43.2475 145.313 50.0571 146.428 54.8155C147.198 58.0763 148.664 65.1036 149.643 68.5276C149.985 69.7125 149.916 70.978 149.448 72.1196C149.136 72.869 148.662 73.5407 148.059 74.0871C147.457 74.6335 146.741 75.0412 145.962 75.2812Z" fill="#143A62"/>
<path d="M127.865 34.0744C128.825 34.0744 129.603 33.3 129.603 32.3448C129.603 31.3895 128.825 30.6152 127.865 30.6152C126.906 30.6152 126.128 31.3895 126.128 32.3448C126.128 33.3 126.906 34.0744 127.865 34.0744Z" fill="#D7E8F0"/>
<path d="M130.232 35.8281C130.081 36.9353 129.138 37.6585 128.154 37.4985" stroke="black" stroke-width="2" stroke-miterlimit="10"/>
<path d="M118.587 26.1835C118.752 26.9362 119.15 27.6181 119.726 28.1333C120.301 28.6487 121.024 28.9712 121.793 29.0555C121.864 28.7479 122.008 28.4618 122.214 28.2219C123.092 27.2283 123.424 29.1291 126.201 27.8251C130.059 26.0123 131.478 27.1227 131.478 27.1227C131.603 27.2203 131.571 28.0939 131.585 28.2427C131.669 29.1467 131.746 30.0475 131.841 30.9515C131.896 31.5019 131.949 32.0491 132.002 32.5963C132.055 32.5051 132.114 32.417 132.178 32.3323C132.551 31.1147 133.588 29.6891 134.911 30.3387C135.179 30.4751 135.412 30.673 135.589 30.9163C136.452 32.0939 135.749 33.2012 134.812 34.0124C134.575 34.2652 134.31 34.4916 134.023 34.6876C134.17 35.0076 134.769 36.2652 134.769 36.27C134.83 36.398 137.059 33.9852 137.226 33.7212C137.483 33.0704 137.627 32.3813 137.652 31.6827C137.745 28.8123 136.638 25.4427 134.334 23.7531C133.763 23.3339 133.564 22.9371 133.53 22.3819C133.528 22.352 133.517 22.3234 133.499 22.2997C133.48 22.276 133.455 22.2584 133.426 22.2493C133.398 22.2402 133.367 22.2398 133.338 22.2483C133.309 22.2568 133.284 22.2739 133.265 22.2971C132.516 23.1227 130.705 23.0027 130.705 23.0027C124.437 21.3099 122.274 24.0523 120.998 24.5211C120.478 24.7059 119.91 24.7059 119.39 24.5211C119.357 24.6934 119.276 24.8531 119.157 24.9829C119.038 25.1126 118.886 25.2075 118.717 25.2571L118.744 25.5483C118.767 25.7718 118.712 25.9963 118.587 26.1835Z" fill="#00B6FF"/>
<path d="M132.035 37.9415C131.622 38.2615 130.468 39.1831 130.007 39.4567C129.669 39.6602 129.313 39.8342 128.945 39.9767C126.171 41.0183 123.571 38.6503 122.618 36.2807C121.833 34.3271 121.653 32.1447 121.71 30.0583C121.719 29.8423 121.727 29.6215 121.745 29.4007C121.743 29.3874 121.743 29.3738 121.745 29.3607C121.753 29.26 121.768 29.16 121.79 29.0615C121.86 28.7535 122.004 28.4672 122.211 28.2279C123.087 27.2359 123.42 29.1367 126.197 27.8311C130.054 26.0183 131.474 27.1287 131.474 27.1287C131.598 27.2263 131.566 28.0999 131.581 28.2487C131.664 29.1543 131.741 30.0535 131.838 30.9575C131.891 31.5095 131.944 32.0551 131.998 32.6023C132.011 32.7527 132.026 32.8983 132.039 33.0471C132.058 32.805 132.104 32.5657 132.175 32.3335C132.548 31.1159 133.585 29.6919 134.907 30.3399C135.176 30.4762 135.409 30.6741 135.586 30.9175C136.449 32.0951 135.746 33.2023 134.809 34.0135C134.571 34.2165 134.32 34.4036 134.057 34.5735L133.986 34.6183L134.022 34.6887C134.168 35.0087 134.766 36.2679 134.766 36.2711C134.827 36.3991 137.056 33.9879 137.225 33.7223C137.805 32.8301 138.169 31.8156 138.287 30.7591C138.302 30.6263 138.31 30.4983 138.314 30.3655C138.408 27.4951 137.3 24.1255 134.996 22.4359C134.424 22.0167 134.224 21.6199 134.192 21.0647C134.19 21.0347 134.179 21.0061 134.161 20.9824C134.142 20.9587 134.117 20.9411 134.089 20.932C134.06 20.9227 134.029 20.9224 134 20.9311C133.971 20.9395 133.946 20.9565 133.927 20.9799C133.178 21.8055 131.365 21.6855 131.365 21.6855C125.105 19.9926 122.934 22.7351 121.66 23.2039C120.385 23.6727 119.267 22.8071 119.267 22.8071L119.4 24.2263C119.409 24.3235 119.403 24.4218 119.382 24.5175C119.349 24.6896 119.268 24.8493 119.149 24.9791C119.03 25.1088 118.878 25.2037 118.709 25.2535C118.645 25.2767 118.578 25.2901 118.51 25.2935H118.46C118.472 25.589 118.511 25.8831 118.576 26.1719C118.741 26.9256 119.141 27.6084 119.718 28.1237C120.294 28.6392 121.019 28.961 121.79 29.0439" stroke="black" stroke-width="2" stroke-miterlimit="10"/>
<path d="M122.673 33.9055C123.632 33.9055 124.41 33.1311 124.41 32.1759C124.41 31.2207 123.632 30.4463 122.673 30.4463C121.713 30.4463 120.936 31.2207 120.936 32.1759C120.936 33.1311 121.713 33.9055 122.673 33.9055Z" fill="#D7E8F0"/>
<path d="M128.59 32.9919C128.591 33.1325 128.55 33.2704 128.472 33.3879C128.394 33.5053 128.283 33.5972 128.153 33.6516C128.023 33.7061 127.879 33.7208 127.74 33.694C127.602 33.6671 127.474 33.5999 127.374 33.5007C127.273 33.4015 127.205 33.2749 127.177 33.137C127.149 32.9991 127.163 32.856 127.217 32.7259C127.271 32.5959 127.362 32.4847 127.48 32.4063C127.597 32.328 127.735 32.2863 127.877 32.2863C127.946 32.2848 128.015 32.2951 128.081 32.3167C128.046 32.3491 128.019 32.388 128 32.4312C127.981 32.4743 127.971 32.5208 127.97 32.5679C127.971 32.6586 128.007 32.7451 128.072 32.809C128.137 32.8728 128.224 32.9087 128.315 32.9087C128.361 32.9085 128.407 32.8989 128.449 32.8803C128.491 32.8619 128.528 32.8351 128.56 32.8015C128.581 32.8627 128.591 32.9271 128.59 32.9919Z" fill="black"/>
<path d="M123.539 32.7596C123.539 32.8994 123.497 33.0359 123.418 33.1519C123.34 33.2681 123.229 33.3585 123.1 33.4118C122.97 33.465 122.827 33.479 122.689 33.4516C122.552 33.4242 122.425 33.3569 122.326 33.2582C122.227 33.1593 122.159 33.0335 122.132 32.8964C122.104 32.7594 122.118 32.6174 122.172 32.4882C122.226 32.359 122.316 32.2486 122.433 32.1706C122.549 32.0929 122.687 32.0511 122.827 32.0508C122.919 32.0503 123.011 32.0682 123.097 32.1036C123.049 32.1357 123.008 32.179 122.981 32.2297C122.953 32.2802 122.937 32.337 122.936 32.3948C122.936 32.4398 122.946 32.4841 122.963 32.5255C122.981 32.567 123.006 32.6044 123.038 32.6359C123.07 32.6674 123.108 32.6924 123.15 32.7092C123.192 32.726 123.237 32.7345 123.282 32.734C123.326 32.7346 123.37 32.7263 123.411 32.7095C123.453 32.6927 123.49 32.6679 123.521 32.6364C123.532 32.6767 123.538 32.718 123.539 32.7596Z" fill="black"/>
<path d="M125.302 32.3174C125.302 32.3174 124.857 34.287 124.804 34.4854C124.643 35.1254 125.919 34.927 125.919 34.927" stroke="black" stroke-width="2" stroke-miterlimit="10"/>
<path d="M126.935 28.5995C126.935 28.5995 129.032 27.8171 130.199 29.3851" stroke="black" stroke-width="2" stroke-miterlimit="10"/>
<path d="M119.963 30.1658C119.963 30.1658 121.043 28.2122 122.952 28.6458" stroke="black" stroke-width="2" stroke-miterlimit="10"/>
<path d="M127.865 34.3891C128.998 34.3891 129.917 33.4743 129.917 32.3459C129.917 31.2175 128.998 30.3027 127.865 30.3027C126.731 30.3027 125.812 31.2175 125.812 32.3459C125.812 33.4743 126.731 34.3891 127.865 34.3891Z" stroke="black" stroke-width="2" stroke-miterlimit="10"/>
<path d="M122.672 34.2182C123.806 34.2182 124.725 33.3035 124.725 32.175C124.725 31.0466 123.806 30.1318 122.672 30.1318C121.539 30.1318 120.62 31.0466 120.62 32.175C120.62 33.3035 121.539 34.2182 122.672 34.2182Z" stroke="black" stroke-width="2" stroke-miterlimit="10"/>
<path d="M122.671 30.7865H122.718C123.087 30.7924 123.439 30.9443 123.696 31.2086C123.953 31.4731 124.095 31.8283 124.089 32.1961C124.083 32.5641 123.93 32.9145 123.665 33.1705C123.399 33.4264 123.042 33.5668 122.673 33.5609H122.629C122.26 33.555 121.908 33.4032 121.651 33.1388C121.394 32.8745 121.252 32.5193 121.258 32.1513C121.264 31.7835 121.417 31.4329 121.682 31.1769C121.948 30.9211 122.305 30.7806 122.674 30.7865H122.671ZM122.674 30.4553C122.217 30.4479 121.774 30.6219 121.446 30.9388C121.117 31.2558 120.928 31.69 120.92 32.1457C120.913 32.6014 121.087 33.0416 121.406 33.3691C121.724 33.6966 122.16 33.8848 122.618 33.8921H122.676C123.134 33.8995 123.576 33.7256 123.905 33.4086C124.234 33.0916 124.423 32.6576 124.43 32.2017C124.438 31.746 124.263 31.3059 123.944 30.9783C123.626 30.651 123.19 30.4627 122.732 30.4553H122.674Z" fill="white"/>
<path d="M125.812 32.2785L124.723 32.2432" stroke="black" stroke-width="2" stroke-miterlimit="10"/>
<path d="M127.352 105.478L125.173 118.768L122.812 118.416C122.301 118.336 121.842 118.058 121.534 117.644C121.227 117.23 121.095 116.712 121.168 116.201L121.343 114.776L122.95 103.048C125.567 104.574 127.352 105.478 127.352 105.478Z" fill="#00B6FF"/>
<path d="M116.57 122.655L108.454 127.295L104.436 129.598L103.205 130.303C103.208 130.28 103.208 130.256 103.205 130.233L102.241 130.78L101 128.407C100.71 127.859 100.649 127.22 100.829 126.627C101.009 126.035 101.417 125.537 101.963 125.241L116.025 117.575L116.038 117.703L116.57 122.655Z" fill="#00B6FF"/>
<path d="M104.702 89.8128C104.613 89.6944 104.525 89.5792 104.435 89.4784C103.926 88.8688 103.426 88.4592 103.088 87.7664C102.819 87.2024 102.742 86.5665 102.867 85.9547C102.993 85.3428 103.315 84.7883 103.784 84.3744C103.978 84.2076 104.195 84.0681 104.427 83.96" stroke="black" stroke-width="2" stroke-miterlimit="10"/>
<path d="M121.816 111.13L121.344 114.773L121.162 116.199C121.089 116.709 121.221 117.227 121.528 117.641C121.836 118.056 122.295 118.333 122.806 118.413L125.167 118.765L127.347 105.475C127.347 105.475 125.561 104.571 122.948 103.042C121.079 101.947 118.769 100.531 116.4 98.8994" stroke="black" stroke-width="2" stroke-miterlimit="10"/>
<path d="M121.415 114.277C121.415 114.277 118.866 112.909 115.629 110.939" stroke="black" stroke-width="2" stroke-miterlimit="10"/>
<g opacity="0.68">
<path opacity="0.68" d="M104.435 52.8986V90.7164C103.731 93.3052 103.395 95.9964 103.217 98.7036V52.9946C103.612 53.5066 104.019 52.409 104.435 52.8986Z" fill="#D7E8F0"/>
<path opacity="0.68" d="M104.435 129.543V131.717C104.434 134.269 103.416 136.717 101.603 138.521C99.7909 140.326 97.3329 141.34 94.7697 141.341H48.7577C46.1942 141.341 43.7359 140.326 41.9231 138.522C40.1104 136.717 39.0916 134.27 39.0908 131.717V31.757C39.09 30.4925 39.3394 29.2404 39.8248 28.0719C40.3101 26.9034 41.0221 25.8417 41.9198 24.9471C42.8176 24.0527 43.8834 23.3431 45.0568 22.8588C46.23 22.3746 47.4876 22.1253 48.7577 22.125H54.9066C55.1888 22.1258 55.4702 22.1536 55.7471 22.2082C55.9322 22.2469 56.1148 22.2972 56.2935 22.3586C56.3723 22.389 56.4542 22.4194 56.5282 22.4514C56.6535 22.5032 56.7758 22.562 56.8946 22.6274C57.0375 22.7042 57.1753 22.7896 57.3076 22.8834C57.396 22.9442 57.4796 23.0066 57.5599 23.0722C57.6403 23.1378 57.764 23.2498 57.8572 23.341L58.5001 24.1666C58.5591 24.265 58.6128 24.3666 58.6608 24.4706L58.8954 25.061C58.9276 25.1682 58.9581 25.2738 58.9806 25.381L59.0385 25.7154C59.0465 25.7602 59.0513 25.8082 59.0562 25.853C59.0578 25.8749 59.0578 25.8969 59.0562 25.9186C59.0658 26.0242 59.0738 26.1266 59.0738 26.2386V26.2818C59.0738 26.349 59.0738 26.4098 59.0738 26.4722C59.0697 26.4621 59.0637 26.453 59.0562 26.445C58.8749 26.1028 58.6418 25.7903 58.3651 25.5186C57.6122 24.7684 56.5907 24.3464 55.5253 24.3458H49.6127C48.3897 24.3464 47.1787 24.5871 46.049 25.0538C44.9194 25.5207 43.8932 26.2045 43.0291 27.0665C42.1651 27.9282 41.4801 28.9511 41.0134 30.0767C40.5467 31.2021 40.3073 32.4082 40.309 33.6258V129.857C40.309 132.314 41.2891 134.67 43.0337 136.408C44.7783 138.146 47.1448 139.122 49.6127 139.124H93.9147C96.3036 139.123 98.6006 138.208 100.33 136.567C102.059 134.926 103.088 132.686 103.204 130.311C103.206 130.288 103.206 130.264 103.204 130.241L104.435 129.543Z" fill="#D7E8F0"/>
<path opacity="0.68" d="M83.9762 28.1875C83.9762 28.2483 83.9762 28.3059 83.9762 28.3683C83.9703 29.4253 83.5444 30.4369 82.7915 31.1822C82.0387 31.9275 81.0201 32.3459 79.9584 32.3459H63.4645C61.2418 32.3459 59.5624 30.5379 59.5527 28.3235C59.5527 28.2883 59.5527 28.2579 59.5527 28.2227C59.8846 28.8894 60.3974 29.4504 61.0332 29.8417C61.6688 30.2331 62.402 30.4393 63.1495 30.4371H80.2686C80.8174 30.4379 81.3611 30.3307 81.8683 30.1217C82.3755 29.9128 82.8363 29.6062 83.2241 29.2195C83.5275 28.9168 83.7813 28.5685 83.9762 28.1875Z" fill="#D7E8F0"/>
</g>
<path d="M108.454 69.229C114.171 68.0722 119.72 66.877 122.671 66.917" stroke="black" stroke-width="2" stroke-miterlimit="10"/>
<path d="M121.881 63.4893C122.023 63.9965 122.67 66.9181 122.829 67.4461C123.418 69.3517 115.932 74.3933 114.664 75.5261C112.388 77.5469 110.234 79.8221 108.454 82.3581C107.27 84.0128 106.273 85.7927 105.481 87.6653C105.067 88.6591 104.717 89.6783 104.434 90.7165C103.73 93.3054 103.394 95.9966 103.216 98.7038C103.075 100.755 103.022 102.814 102.964 104.825C102.845 108.685 102.906 112.566 103.16 116.413C103.177 116.656 103.195 116.893 103.216 117.136C103.416 119.42 103.805 121.684 104.378 123.905V123.92" stroke="black" stroke-width="2" stroke-miterlimit="10"/>
<path d="M120.774 54.4746C121.017 46.9818 124.434 42.9818 127.476 40.8746C128.068 40.4707 128.703 40.1331 129.369 39.8682" stroke="black" stroke-width="2" stroke-miterlimit="10"/>
<path d="M137.72 39.8184C137.861 39.8712 137.998 39.9288 138.136 39.9864L138.287 40.052C138.621 40.1968 138.946 40.3603 139.261 40.5416C140.348 41.1587 141.298 41.99 142.053 42.9848C142.082 43.0129 142.106 43.046 142.123 43.0824C142.255 43.268 142.384 43.4568 142.509 43.652C143.621 45.412 144.658 47.788 145.45 50.532C145.859 51.9398 146.185 53.3699 146.429 54.8152" stroke="black" stroke-width="2" stroke-miterlimit="10"/>
<path d="M146.429 54.8145C147.199 58.0753 148.666 65.1041 149.644 68.5265C149.986 69.7121 149.918 70.978 149.449 72.1201C149.137 72.8696 148.663 73.5412 148.06 74.0876C147.458 74.6342 146.742 75.0417 145.963 75.2817L143.056 75.9825C142.752 76.0572 142.483 76.2348 142.296 76.4849C141.636 77.3529 140.904 78.1643 140.108 78.9105C127.531 90.6994 112.397 78.4961 116.026 117.578L116.039 117.706C116.185 119.271 116.363 120.92 116.57 122.655L108.454 127.263L104.437 129.543L103.21 130.24L102.246 130.787L101.005 128.415C100.713 127.867 100.649 127.226 100.829 126.631C101.008 126.037 101.416 125.537 101.963 125.24L103.217 124.547L104.379 123.907L104.435 123.877L108.453 121.663L109.308 121.183" stroke="black" stroke-width="2" stroke-miterlimit="10"/>
<path d="M108.456 127.263V133.939C108.455 137.288 107.119 140.499 104.74 142.867C102.362 145.235 99.1357 146.565 95.7721 146.565H47.7528C46.0873 146.565 44.4379 146.239 42.8991 145.604C41.3603 144.97 39.9621 144.04 38.7844 142.868C37.6065 141.695 36.6723 140.303 36.0349 138.771C35.3974 137.239 35.0693 135.598 35.0693 133.939V29.8991C35.0693 28.2408 35.3974 26.5991 36.0349 25.0671C36.6723 23.5352 37.6065 22.1432 38.7844 20.9709C39.9621 19.7984 41.3603 18.8685 42.8991 18.2341C44.4379 17.5997 46.0873 17.2733 47.7528 17.2734H101.606" stroke="black" stroke-width="2" stroke-miterlimit="10"/>
<path d="M108.454 29.8987C108.455 29.0323 108.367 28.1681 108.192 27.3195C108.192 27.3195 107.957 25.9066 107.732 25.5146" stroke="black" stroke-width="2" stroke-miterlimit="10"/>
<path d="M108.454 82.3534V69.2317V55.5469" stroke="black" stroke-width="2" stroke-miterlimit="10"/>
<path d="M108.454 29.8994V37.3026V46.0947" stroke="black" stroke-width="2" stroke-miterlimit="10"/>
<path d="M121.343 50.0392V50.028C119.97 49.415 118.675 48.641 117.486 47.7224C112.523 43.9214 109.269 38.3236 108.43 32.1463C108.409 31.9939 108.389 31.8403 108.372 31.6855" stroke="black" stroke-width="2" stroke-miterlimit="10"/>
<path d="M104.438 87.0362V52.8857" stroke="black" stroke-width="2" stroke-miterlimit="10"/>
<path d="M104.437 43.2917V31.7589C104.437 29.6581 104.253 27.1685 103.116 25.5829C103.116 25.5829 100.36 22.1221 97.559 22.1221H88.6201" stroke="black" stroke-width="2" stroke-miterlimit="10"/>
<path d="M92.2217 22.1221H88.6202C87.5119 22.1221 86.4491 22.5603 85.6655 23.3405C84.8818 24.1206 84.4416 25.1787 84.4416 26.2821C84.4416 27.3853 84.0015 28.4435 83.2178 29.2235C82.4342 30.0037 81.3714 30.4421 80.2631 30.4421H63.2565C62.1482 30.4421 61.0854 30.0037 60.3018 29.2235C59.5182 28.4435 59.078 27.3853 59.078 26.2821C59.078 25.1787 58.6378 24.1206 57.8541 23.3405C57.0705 22.5603 56.0077 22.1221 54.8994 22.1221H48.757C46.1912 22.1237 43.731 23.1398 41.9177 24.947C40.1042 26.7542 39.0861 29.2045 39.0869 31.7589V131.718C39.0882 134.27 40.1074 136.718 41.9208 138.523C43.7339 140.328 46.1928 141.342 48.757 141.343H94.7674C97.3316 141.342 99.7905 140.328 101.604 138.523C103.417 136.718 104.436 134.27 104.438 131.718V129.545" stroke="black" stroke-width="2" stroke-miterlimit="10"/>
<path d="M107.466 17.8672C109.216 18.6128 110.85 21.0784 111.644 22.728C113.116 25.7888 114.401 28.1312 116.144 31.048C117.637 33.5488 119.007 36.2576 121.355 38.0881C122.597 39.0708 124.111 39.6549 125.694 39.7633" stroke="black" stroke-width="2" stroke-miterlimit="10"/>
<path d="M59.9509 22.1242C59.9494 25.5796 59.0078 28.97 57.2262 31.9355C55.4445 34.9007 52.8892 37.3302 49.8319 38.9657C46.7745 40.6012 43.3293 41.3819 39.8621 41.2243C36.3949 41.0668 33.0354 39.9772 30.1403 38.0715C26.3885 34.9281 23.9861 30.4753 23.4257 25.6254C22.8653 20.7754 24.1891 15.8959 27.126 11.9864C30.0628 8.07698 34.3903 5.43379 39.2215 4.59848C44.0529 3.76318 49.0221 4.79902 53.111 7.49373C55.2557 9.28668 56.9795 11.5258 58.1612 14.0535C59.3429 16.5812 59.9538 19.3361 59.9509 22.1242Z" fill="#00B6FF"/>
<path d="M57.8614 22.1997C57.8606 25.2602 57.027 28.2632 55.4493 30.89C53.8716 33.5167 51.6084 35.6687 48.9007 37.1175C46.1929 38.5665 43.1413 39.2578 40.0704 39.1185C36.9995 38.9791 34.0237 38.0142 31.4595 36.3261C28.145 33.5397 26.0247 29.5983 25.532 25.3072C25.0394 21.0163 26.2116 16.7002 28.8092 13.241C31.4067 9.78191 35.2332 7.44121 39.5066 6.69746C43.7798 5.9537 48.177 6.86308 51.7993 9.23965C53.6994 10.8278 55.2269 12.8112 56.2742 15.0502C57.3214 17.2894 57.8633 19.7298 57.8614 22.1997Z" fill="#00B6FF"/>
<path d="M78.5406 58.529L64.5393 60.6298C64.1997 60.7164 63.8447 60.7245 63.5014 60.6535C63.1581 60.5826 62.8357 60.4346 62.5588 60.2205C62.2817 60.0066 62.0577 59.7324 61.9034 59.4189C61.7491 59.1055 61.6689 58.7612 61.6689 58.4122L63.133 46.4346H84.0144C84.185 46.4346 84.3484 46.5019 84.4689 46.6219C84.5896 46.7419 84.6573 46.9048 84.6573 47.0746L82.6596 54.5786C82.3756 55.5359 81.8467 56.4034 81.1247 57.0959C80.4026 57.7885 79.5121 58.2823 78.5406 58.529Z" fill="#D7E8F0"/>
<path d="M66.5887 67.8194C67.9067 67.8194 68.9753 66.7556 68.9753 65.4434C68.9753 64.1311 67.9067 63.0674 66.5887 63.0674C65.2707 63.0674 64.2021 64.1311 64.2021 65.4434C64.2021 66.7556 65.2707 67.8194 66.5887 67.8194Z" fill="#D7E8F0"/>
<path d="M75.6493 67.8194C76.9673 67.8194 78.0359 66.7556 78.0359 65.4434C78.0359 64.1311 76.9673 63.0674 75.6493 63.0674C74.3313 63.0674 73.2627 64.1311 73.2627 65.4434C73.2627 66.7556 74.3313 67.8194 75.6493 67.8194Z" fill="#D7E8F0"/>
<path d="M65.0282 48.9441L62.8538 48.6545L63.4645 44.1009C63.5032 43.8175 63.4796 43.5289 63.3954 43.2554C63.311 42.9818 63.168 42.7298 62.9761 42.5167C62.7843 42.3037 62.5483 42.1348 62.2842 42.0215C62.0203 41.9082 61.7349 41.8535 61.4475 41.8608L59.5736 41.9088C59.2827 41.9162 59.0008 41.8082 58.79 41.6087C58.579 41.4092 58.4562 41.1344 58.4486 40.8448C58.4448 40.7016 58.4694 40.5589 58.521 40.4252C58.5724 40.2912 58.65 40.1688 58.7492 40.0648C58.8482 39.9608 58.9669 39.8772 59.0984 39.8189C59.23 39.7605 59.3718 39.7287 59.5158 39.7248L61.3913 39.6768C62.0459 39.6564 62.696 39.7906 63.2882 40.0687C63.8806 40.3469 64.3981 40.761 64.7984 41.2768C65.1452 41.7375 65.3964 42.2621 65.5374 42.8204C65.6785 43.3784 65.7064 43.9591 65.6196 44.5281L65.0282 48.9441Z" fill="#D7E8F0"/>
<path d="M85.5036 46.1094H9.62304C5.41288 46.1094 2 50.262 2 55.3847V79.3244C2 84.4472 5.41288 88.5998 9.62304 88.5998H85.5036C89.7138 88.5998 93.1266 84.4472 93.1266 79.3244V55.3847C93.1266 50.262 89.7138 46.1094 85.5036 46.1094Z" fill="#143A62"/>
<path d="M103.049 102.172C94.3833 95.2201 86.5196 86.3033 89.8994 78.5352C91.9324 73.852 97.9495 71.3 104.434 69.916" stroke="black" stroke-width="2" stroke-miterlimit="10"/>
<path d="M40.6893 63.4658L41.1266 61.5106C41.8779 61.5106 42.5787 61.494 43.2291 61.4609C43.8907 61.4167 44.4962 61.3614 45.0456 61.2952C45.595 61.2289 46.066 61.1626 46.4584 61.0963C46.8621 61.0301 47.1705 60.9638 47.3835 60.8975C47.776 60.776 48.118 60.6269 48.4095 60.4501C48.7011 60.2623 48.9309 60.0469 49.0991 59.8039C49.2673 59.5609 49.3514 59.2958 49.3514 59.0086C49.3514 58.8429 49.3178 58.6717 49.2505 58.4949C49.1944 58.3182 49.1103 58.158 48.9982 58.0144C48.8973 57.8598 48.774 57.7383 48.6282 57.6499C48.4824 57.5505 48.3254 57.5008 48.1572 57.5008C47.9442 57.5008 47.7423 57.5781 47.5517 57.7327C47.3611 57.8874 47.2041 58.0862 47.0808 58.3292C46.9574 58.5612 46.8958 58.8208 46.8958 59.108C46.8958 59.351 46.963 59.5885 47.0976 59.8205C47.2434 60.0525 47.4284 60.2623 47.6526 60.4501C47.8881 60.6379 48.1404 60.7981 48.4095 60.9306L46.4248 61.6597C46.2005 61.4609 45.9707 61.2399 45.7352 60.9969C45.5109 60.7539 45.3203 60.4722 45.1633 60.1519C45.0064 59.8315 44.9279 59.467 44.9279 59.0583C44.9279 58.5723 45.0232 58.1249 45.2138 57.7162C45.4044 57.2964 45.6567 56.9264 45.9707 56.606C46.2959 56.2857 46.6491 56.0371 47.0303 55.8604C47.4228 55.6837 47.8152 55.5953 48.2077 55.5953C48.8244 55.5953 49.3626 55.761 49.8224 56.0924C50.2933 56.4127 50.6577 56.8269 50.9157 57.3351C51.1848 57.8432 51.3193 58.3734 51.3193 58.9257C51.3193 59.4228 51.2184 59.8702 51.0166 60.2679C50.8259 60.6655 50.568 61.0135 50.2429 61.3117C49.9177 61.61 49.5477 61.8751 49.1328 62.1071C48.7291 62.328 48.3086 62.5103 47.8713 62.6539C47.591 62.7643 47.1985 62.8693 46.6939 62.9687C46.2005 63.0571 45.6287 63.1399 44.9783 63.2172C44.328 63.2946 43.6327 63.3553 42.8927 63.3995C42.1638 63.4437 41.4294 63.4658 40.6893 63.4658ZM52.4126 63.2007C51.7959 63.2007 51.1848 63.1675 50.5793 63.1012C49.985 63.035 49.4187 62.9411 48.8805 62.8196C48.3535 62.6981 47.8825 62.5434 47.4676 62.3556L48.6282 60.9472C48.9646 61.0135 49.3626 61.0687 49.8224 61.1129C50.2821 61.1571 50.7531 61.1902 51.2352 61.2123C51.7174 61.2344 52.1659 61.2455 52.5808 61.2455C52.9396 61.2455 53.1919 61.3394 53.3377 61.5271C53.4947 61.7039 53.5732 61.9248 53.5732 62.1899C53.5732 62.4661 53.4722 62.7036 53.2704 62.9024C53.0686 63.1012 52.7826 63.2007 52.4126 63.2007ZM40.6893 63.4658C39.5568 63.4658 38.5869 63.3829 37.7795 63.2172C36.9834 63.0626 36.3274 62.8306 35.8116 62.5213C35.2958 62.212 34.9146 61.8364 34.6679 61.3946C34.4212 60.9527 34.2979 60.4446 34.2979 59.8702C34.2979 59.5499 34.3259 59.224 34.3819 58.8926C34.438 58.5502 34.5109 58.2188 34.6006 57.8984C34.6903 57.567 34.7744 57.2633 34.8529 56.9871L36.6358 57.4179C36.5909 57.6057 36.5405 57.8156 36.4844 58.0476C36.4283 58.2685 36.3779 58.4894 36.333 58.7103C36.2994 58.9313 36.2826 59.1356 36.2826 59.3234C36.2826 59.7874 36.4283 60.185 36.7199 60.5164C37.0226 60.8478 37.5272 61.0963 38.2336 61.262C38.9401 61.4277 39.9044 61.5106 41.1266 61.5106L41.463 62.9355L40.6893 63.4658ZM48.1741 54.0046C47.8713 54.0046 47.6134 53.9052 47.4003 53.7064C47.1873 53.4965 47.0808 53.2424 47.0808 52.9442C47.0808 52.6459 47.1873 52.3919 47.4003 52.182C47.6134 51.961 47.8713 51.8506 48.1741 51.8506C48.4656 51.8506 48.7179 51.961 48.9309 52.182C49.144 52.3919 49.2505 52.6459 49.2505 52.9442C49.2505 53.2424 49.144 53.4965 48.9309 53.7064C48.7179 53.9052 48.4656 54.0046 48.1741 54.0046Z" fill="white"/>
<path d="M52.4357 63.2007L52.6039 61.2455C53.0637 61.2455 53.4449 61.2068 53.7477 61.1295C54.0504 61.0411 54.2915 60.8809 54.4709 60.649C54.6615 60.4059 54.8185 60.058 54.9419 59.6051C55.0764 59.1411 55.2054 58.5336 55.3287 57.7824L57.1957 58.0973C57.162 58.274 57.1228 58.4784 57.0779 58.7103C57.0331 58.9423 56.9938 59.1743 56.9602 59.4063C56.9266 59.6382 56.9097 59.8481 56.9097 60.0359C56.9097 60.2237 56.9378 60.3949 56.9938 60.5495C57.0499 60.6931 57.1564 60.8147 57.3134 60.9141C57.4816 61.0135 57.7227 61.0963 58.0367 61.1626C58.3506 61.2178 58.7543 61.2455 59.2477 61.2455C59.6065 61.2455 59.8588 61.3394 60.0046 61.5271C60.1615 61.7039 60.24 61.9248 60.24 62.1899C60.24 62.4661 60.1391 62.7036 59.9373 62.9024C59.7354 63.1012 59.4495 63.2007 59.0795 63.2007C58.5076 63.2007 58.0198 63.162 57.6162 63.0847C57.2125 63.0073 56.8761 62.8858 56.607 62.7201C56.3491 62.5544 56.1473 62.339 56.0015 62.0739C55.8557 61.7978 55.7604 61.4664 55.7156 61.0798L56.4052 61.0963C56.2145 61.5603 55.9791 61.9359 55.6987 62.2231C55.4296 62.4992 55.1269 62.7091 54.7905 62.8527C54.4541 62.9853 54.084 63.0736 53.6804 63.1178C53.2879 63.173 52.873 63.2007 52.4357 63.2007ZM56.9602 66.7797C56.6687 66.7797 56.4164 66.6747 56.2033 66.4648C56.0015 66.266 55.9006 66.0285 55.9006 65.7524C55.9006 65.4762 56.0015 65.2332 56.2033 65.0233C56.4164 64.8134 56.6687 64.7085 56.9602 64.7085C57.2405 64.7085 57.4816 64.8134 57.6835 65.0233C57.8853 65.2332 57.9862 65.4762 57.9862 65.7524C57.9862 66.0285 57.8853 66.266 57.6835 66.4648C57.4816 66.6747 57.2405 66.7797 56.9602 66.7797ZM54.2691 66.7797C53.9775 66.7797 53.7308 66.6747 53.529 66.4648C53.3272 66.266 53.2262 66.0285 53.2262 65.7524C53.2262 65.4762 53.3272 65.2332 53.529 65.0233C53.7308 64.8134 53.9775 64.7085 54.2691 64.7085C54.5494 64.7085 54.7905 64.8134 54.9923 65.0233C55.1941 65.2332 55.2951 65.4762 55.2951 65.7524C55.2951 66.0285 55.1941 66.266 54.9923 66.4648C54.7905 66.6747 54.5494 66.7797 54.2691 66.7797Z" fill="white"/>
<path d="M59.0716 63.2007L59.2398 61.2455C59.621 61.2565 59.9799 61.2565 60.3162 61.2455C60.6639 61.2234 60.9834 61.1958 61.275 61.1626C61.5665 61.1295 61.8356 61.0908 62.0823 61.0466C62.329 60.9914 62.542 60.9417 62.7215 60.8975C63.1027 60.776 63.4391 60.6269 63.7306 60.4501C64.0222 60.2623 64.252 60.0469 64.4202 59.8039C64.5996 59.5499 64.6894 59.2737 64.6894 58.9754C64.6894 58.7545 64.6389 58.5336 64.538 58.3127C64.4371 58.0807 64.2969 57.8874 64.1175 57.7327C63.9381 57.5781 63.7306 57.5008 63.4952 57.5008C63.2709 57.5008 63.0635 57.5726 62.8728 57.7162C62.6822 57.8598 62.5252 58.0476 62.4019 58.2795C62.2898 58.5115 62.2337 58.7656 62.2337 59.0417C62.2337 59.3179 62.301 59.5719 62.4355 59.8039C62.5813 60.0359 62.7663 60.2513 62.9906 60.4501C63.2148 60.6379 63.4671 60.8091 63.7475 60.9638L61.7459 61.6597C61.5329 61.4609 61.3086 61.2344 61.0731 60.9804C60.8489 60.7263 60.6582 60.428 60.5013 60.0856C60.3443 59.7432 60.2658 59.3565 60.2658 58.9257C60.2658 58.4397 60.3555 57.9979 60.5349 57.6002C60.7255 57.1915 60.9778 56.838 61.2918 56.5397C61.6058 56.2415 61.959 56.0095 62.3514 55.8438C62.7439 55.6781 63.1419 55.5953 63.5456 55.5953C64.1736 55.5953 64.7174 55.7499 65.1771 56.0592C65.6481 56.3685 66.0125 56.7662 66.2704 57.2522C66.5283 57.7272 66.6573 58.2409 66.6573 58.7932C66.6573 59.3124 66.5563 59.7763 66.3545 60.185C66.1639 60.5937 65.9004 60.9583 65.564 61.2786C65.2388 61.5879 64.8688 61.8585 64.4539 62.0905C64.0502 62.3225 63.6353 62.5103 63.2092 62.6539C62.985 62.7422 62.7215 62.8196 62.4187 62.8858C62.1159 62.9521 61.7852 63.0129 61.4263 63.0681C61.0675 63.1123 60.6919 63.1454 60.2994 63.1675C59.907 63.1896 59.4977 63.2007 59.0716 63.2007ZM67.7505 63.2007C67.1338 63.2007 66.5115 63.1675 65.8835 63.1012C65.2668 63.035 64.6894 62.9411 64.1511 62.8196C63.6241 62.687 63.1756 62.5324 62.8056 62.3556L63.9661 60.9306C64.3025 61.008 64.695 61.0687 65.1435 61.1129C65.6032 61.1571 66.0742 61.1902 66.5563 61.2123C67.0497 61.2344 67.5038 61.2455 67.9187 61.2455C68.2663 61.2455 68.5186 61.3394 68.6756 61.5271C68.8326 61.7039 68.9111 61.9248 68.9111 62.1899C68.9111 62.4661 68.8046 62.7036 68.5915 62.9024C68.3897 63.1012 68.1093 63.2007 67.7505 63.2007ZM63.4952 54.0046C63.1924 54.0046 62.9345 53.9052 62.7215 53.7064C62.5084 53.4965 62.4019 53.2424 62.4019 52.9442C62.4019 52.6459 62.5084 52.3919 62.7215 52.182C62.9345 51.961 63.1924 51.8506 63.4952 51.8506C63.7867 51.8506 64.039 51.961 64.252 52.182C64.4651 52.3919 64.5716 52.6459 64.5716 52.9442C64.5716 53.2424 64.4651 53.4965 64.252 53.7064C64.039 53.9052 63.7867 54.0046 63.4952 54.0046Z" fill="white"/>
<path d="M78.6433 63.2007C78.1388 63.2007 77.6734 63.1675 77.2473 63.1012C76.8212 63.0239 76.4344 62.8969 76.0868 62.7201C75.7392 62.5324 75.4364 62.2728 75.1785 61.9414C74.9206 61.61 74.7132 61.1847 74.5562 60.6655L75.7504 59.7874C75.9298 60.174 76.1484 60.4722 76.4063 60.6821C76.6754 60.892 77.0006 61.0411 77.3819 61.1295C77.7743 61.2068 78.2509 61.2455 78.8115 61.2455C79.1591 61.2455 79.4058 61.3394 79.5516 61.5271C79.7086 61.7039 79.7871 61.9248 79.7871 62.1899C79.7871 62.4661 79.6862 62.7036 79.4843 62.9024C79.2825 63.1012 79.0022 63.2007 78.6433 63.2007ZM67.7442 63.2007L67.9124 61.2455C68.5067 61.2455 69.0954 61.2068 69.6785 61.1295C70.2616 61.0522 70.8278 60.9417 71.3773 60.7981C71.9267 60.6545 72.4537 60.4722 72.9583 60.2513C73.4629 60.0304 73.9394 59.7708 74.388 59.4725C74.074 59.2516 73.7208 59.0638 73.3283 58.9092C72.9471 58.7435 72.5322 58.622 72.0837 58.5446C71.6352 58.4563 71.1586 58.4121 70.654 58.4121C70.4746 58.4121 70.2952 58.4176 70.1158 58.4287C69.9364 58.4397 69.7514 58.4618 69.5607 58.4949C69.3813 58.517 69.1907 58.5502 68.9889 58.5944L68.6861 56.7054C69.0001 56.6171 69.3253 56.5508 69.6617 56.5066C70.0093 56.4624 70.3232 56.4403 70.6036 56.4403C71.1978 56.4403 71.7417 56.5066 72.2351 56.6392C72.7284 56.7717 73.1826 56.9374 73.5975 57.1362C74.0123 57.3351 74.3992 57.5339 74.758 57.7327C75.128 57.9316 75.4813 58.1028 75.8176 58.2464C76.154 58.3789 76.4904 58.4452 76.8268 58.4452H77.3482L77.5501 60.2679C77.0679 60.2789 76.6194 60.3618 76.2045 60.5164C75.7896 60.66 75.3803 60.8478 74.9767 61.0798C74.5842 61.3007 74.1637 61.5327 73.7152 61.7757C73.2667 62.0187 72.7621 62.2507 72.2014 62.4716C71.6408 62.6815 70.996 62.8582 70.2672 63.0018C69.5383 63.1344 68.6973 63.2007 67.7442 63.2007ZM70.5363 54.7337C70.2335 54.7337 69.9756 54.6343 69.7626 54.4354C69.5495 54.2255 69.443 53.9715 69.443 53.6732C69.443 53.375 69.5495 53.1209 69.7626 52.911C69.9756 52.6901 70.2335 52.5796 70.5363 52.5796C70.8278 52.5796 71.0801 52.6901 71.2932 52.911C71.5062 53.1209 71.6127 53.375 71.6127 53.6732C71.6127 53.9715 71.5062 54.2255 71.2932 54.4354C71.0801 54.6343 70.8278 54.7337 70.5363 54.7337Z" fill="white"/>
<path d="M78.6507 63.2007L78.8189 61.2455C79.4917 61.2455 80.0075 61.2178 80.3663 61.1626C80.7251 61.0963 80.9774 60.9693 81.1232 60.7815C81.2802 60.5827 81.3587 60.2955 81.3587 59.9199C81.3587 59.6217 81.3138 59.2682 81.2241 58.8595C81.1344 58.4507 81.0223 58.0199 80.8877 57.567C80.7532 57.1141 80.6074 56.6889 80.4504 56.2912L82.4183 55.7113C82.5641 56.0758 82.6986 56.5011 82.822 56.9871C82.9565 57.4621 83.0687 57.9481 83.1584 58.4452C83.2481 58.9313 83.2929 59.3897 83.2929 59.8205C83.2929 60.4943 83.1864 61.0522 82.9733 61.494C82.7715 61.9359 82.4688 62.2838 82.0651 62.5379C81.6726 62.7809 81.1849 62.9521 80.6018 63.0515C80.0299 63.1509 79.3796 63.2007 78.6507 63.2007ZM82.8724 54.22C82.5809 54.22 82.3342 54.1206 82.1324 53.9218C81.9305 53.7229 81.8296 53.4799 81.8296 53.1927C81.8296 52.9166 81.9305 52.6791 82.1324 52.4802C82.3342 52.2703 82.5809 52.1654 82.8724 52.1654C83.1528 52.1654 83.3938 52.2703 83.5957 52.4802C83.7975 52.6791 83.8984 52.9166 83.8984 53.1927C83.8984 53.4799 83.7975 53.7229 83.5957 53.9218C83.3938 54.1206 83.1528 54.22 82.8724 54.22ZM80.1981 54.2034C79.9066 54.2034 79.6543 54.104 79.4412 53.9052C79.2394 53.7064 79.1385 53.4689 79.1385 53.1927C79.1385 52.9166 79.2394 52.6735 79.4412 52.4637C79.6431 52.2538 79.8954 52.1488 80.1981 52.1488C80.4784 52.1488 80.7139 52.2538 80.9045 52.4637C81.1064 52.6735 81.2073 52.9166 81.2073 53.1927C81.2073 53.4689 81.1064 53.7064 80.9045 53.9052C80.7027 54.104 80.4672 54.2034 80.1981 54.2034Z" fill="white"/>
<path d="M11.2275 78.4183C11.2275 78.1671 11.2495 77.8776 11.2933 77.5499C11.3372 77.2222 11.414 76.8618 11.5237 76.4686C11.6443 76.0644 11.8088 75.6275 12.0172 75.1578L13.7282 75.764C13.6075 76.0917 13.5033 76.3921 13.4156 76.6652C13.3278 76.9382 13.262 77.1949 13.2182 77.4352C13.1853 77.6755 13.1688 77.9049 13.1688 78.1234C13.1688 78.5275 13.2566 78.8771 13.432 79.172C13.6075 79.4778 13.8543 79.729 14.1724 79.9256C14.5014 80.1332 14.8907 80.2916 15.3404 80.4008C15.8011 80.51 16.3111 80.5646 16.8704 80.5646C17.4846 80.5646 18.0439 80.5264 18.5485 80.4499C19.053 80.3735 19.4862 80.2588 19.8481 80.1059C20.221 79.9639 20.5062 79.7891 20.7036 79.5816C20.912 79.385 21.0162 79.1665 21.0162 78.9262C21.0162 78.8061 20.9723 78.6968 20.8846 78.5985C20.7968 78.5002 20.6597 78.4019 20.4733 78.3036C20.2978 78.1944 20.073 78.0906 19.7988 77.9923C19.5246 77.8831 19.201 77.7629 18.8281 77.6318L19.2723 75.6821C19.7878 75.8897 20.2594 76.0699 20.6872 76.2228C21.1149 76.3648 21.5097 76.4849 21.8717 76.5833C22.2336 76.6706 22.5626 76.7362 22.8588 76.7799C23.1659 76.8236 23.4455 76.8454 23.6978 76.8454C24.0378 76.8454 24.2846 76.9382 24.4381 77.1239C24.5917 77.2987 24.6684 77.5172 24.6684 77.7793C24.6684 78.0524 24.5642 78.2872 24.3558 78.4838C24.1584 78.6804 23.8842 78.7787 23.5333 78.7787C23.4565 78.7787 23.3797 78.7787 23.3029 78.7787C23.2262 78.7787 23.1494 78.7787 23.0726 78.7787C22.9959 78.7787 22.9136 78.7787 22.8259 78.7787C22.8478 78.888 22.8588 78.9754 22.8588 79.0409C22.8697 79.1174 22.8752 79.1993 22.8752 79.2867C22.8752 79.658 22.7436 80.0294 22.4804 80.4008C22.2281 80.7831 21.8388 81.1326 21.3123 81.4494C20.7859 81.7662 20.1333 82.0174 19.3546 82.2031C18.5759 82.3888 17.6601 82.4816 16.6072 82.4816C15.5433 82.4816 14.6056 82.3341 13.794 82.0392C12.9824 81.7552 12.3517 81.3129 11.9021 80.7121C11.4524 80.1113 11.2275 79.3467 11.2275 78.4183Z" fill="white"/>
<path d="M23.5393 78.7787L23.7038 76.8454C24.1425 76.8454 24.488 76.8072 24.7403 76.7307C24.9925 76.6433 25.1899 76.4849 25.3325 76.2556C25.4751 76.0153 25.5958 75.6712 25.6945 75.2234C25.8041 74.7646 25.9193 74.1638 26.0399 73.4211L27.8661 73.7324C27.8332 73.9072 27.7948 74.1092 27.7509 74.3386C27.707 74.568 27.6686 74.7974 27.6357 75.0267C27.6028 75.2561 27.5864 75.4637 27.5864 75.6493C27.5864 75.8897 27.6412 76.1026 27.7509 76.2883C27.8606 76.4631 28.069 76.5996 28.3761 76.6979C28.6941 76.7962 29.1602 76.8454 29.7744 76.8454C30.1144 76.8454 30.3557 76.9382 30.4983 77.1239C30.6518 77.2987 30.7286 77.5172 30.7286 77.7793C30.7286 78.0524 30.6299 78.2872 30.4325 78.4838C30.2351 78.6804 29.9609 78.7787 29.6099 78.7787C28.8641 78.7787 28.2664 78.7132 27.8167 78.5821C27.378 78.4401 27.049 78.2162 26.8296 77.9104C26.6212 77.6045 26.4841 77.1949 26.4183 76.6816L27.0928 76.6979C26.9064 77.1567 26.6925 77.5281 26.4512 77.8121C26.2099 78.0851 25.9412 78.2927 25.6451 78.4347C25.349 78.5658 25.0254 78.6531 24.6745 78.6968C24.3235 78.7514 23.9451 78.7787 23.5393 78.7787ZM26.4183 82.2686C26.1332 82.2686 25.8919 82.1703 25.6945 81.9737C25.497 81.7771 25.3983 81.5422 25.3983 81.2692C25.3983 80.9852 25.497 80.7394 25.6945 80.5319C25.8919 80.3243 26.1332 80.2206 26.4183 80.2206C26.7035 80.2206 26.9448 80.3243 27.1422 80.5319C27.3506 80.7394 27.4548 80.9852 27.4548 81.2692C27.4548 81.5422 27.3506 81.7771 27.1422 81.9737C26.9448 82.1703 26.7035 82.2686 26.4183 82.2686Z" fill="white"/>
<path d="M29.6122 78.7787L29.7767 76.8454C30.1387 76.8454 30.4293 76.8181 30.6487 76.7635C30.879 76.7089 31.0655 76.5778 31.208 76.3703C31.3616 76.1518 31.4987 75.8296 31.6193 75.4036C31.74 74.9667 31.8771 74.3659 32.0306 73.6013L33.8238 73.9782C33.78 74.2294 33.7196 74.5407 33.6429 74.9121C33.5661 75.2834 33.5277 75.6111 33.5277 75.8951C33.5277 76.0917 33.5661 76.261 33.6429 76.403C33.7306 76.545 33.8787 76.6543 34.087 76.7307C34.2954 76.8072 34.5806 76.8454 34.9425 76.8454C35.2387 76.8454 35.4909 76.8181 35.6993 76.7635C35.9077 76.6979 36.0832 76.5614 36.2257 76.3539C36.3683 76.1463 36.4944 75.8132 36.6041 75.3544C36.7138 74.8957 36.829 74.2731 36.9496 73.4866L38.7757 73.7979C38.7319 74.0273 38.688 74.284 38.6441 74.568C38.6002 74.852 38.5619 75.1251 38.529 75.3872C38.4961 75.6384 38.4796 75.846 38.4796 76.0098C38.4796 76.1518 38.518 76.2883 38.5948 76.4194C38.6715 76.5505 38.8196 76.6543 39.039 76.7307C39.2583 76.8072 39.5764 76.8454 39.9931 76.8454C40.5086 76.8454 40.887 76.7362 41.1283 76.5177C41.3696 76.2993 41.4902 75.9661 41.4902 75.5183C41.4902 75.267 41.4847 74.9994 41.4738 74.7154C41.4628 74.4205 41.4409 74.0983 41.408 73.7488C41.386 73.3883 41.3422 72.9787 41.2764 72.5199L43.0531 72.3889C43.1189 73.3064 43.1957 74.0546 43.2834 74.6335C43.3822 75.2124 43.5138 75.6657 43.6783 75.9934C43.8538 76.3102 44.0786 76.5341 44.3528 76.6652C44.6379 76.7853 45.0163 76.8454 45.4879 76.8454C45.8279 76.8454 46.0747 76.9382 46.2283 77.1239C46.3818 77.2987 46.4586 77.5172 46.4586 77.7793C46.4586 78.0524 46.3599 78.2872 46.1625 78.4838C45.965 78.6804 45.6854 78.7787 45.3234 78.7787C44.9944 78.7787 44.6763 78.746 44.3692 78.6804C44.0621 78.604 43.777 78.4893 43.5138 78.3364C43.2505 78.1725 43.0202 77.9595 42.8228 77.6974C42.6254 77.4243 42.4773 77.0966 42.3786 76.7143L42.6747 76.8126C42.5322 77.3369 42.3293 77.7411 42.066 78.0251C41.8028 78.3091 41.4847 78.5057 41.1118 78.6149C40.7389 78.7241 40.3112 78.7787 39.8286 78.7787C39.346 78.7787 38.9238 78.7187 38.5619 78.5985C38.2109 78.4674 37.9312 78.2654 37.7228 77.9923C37.5254 77.7083 37.4103 77.3315 37.3773 76.8618H37.9367C37.7283 77.4189 37.487 77.8339 37.2128 78.107C36.9496 78.3801 36.6261 78.5603 36.2422 78.6477C35.8693 78.7351 35.3867 78.7787 34.7945 78.7787C34.4545 78.7787 34.1145 78.7405 33.7745 78.6641C33.4345 78.5767 33.1274 78.391 32.8532 78.107C32.59 77.823 32.409 77.3806 32.3103 76.7799L33.0506 76.7143C32.8422 77.326 32.5735 77.7793 32.2445 78.0742C31.9154 78.3582 31.5316 78.5494 31.0929 78.6477C30.6542 78.7351 30.1606 78.7787 29.6122 78.7787Z" fill="white"/>
<path d="M45.3247 78.7787L45.4892 76.8454C46.0705 76.8454 46.6463 76.8072 47.2166 76.7307C47.787 76.6543 48.3408 76.545 48.8782 76.403C49.4157 76.261 49.9311 76.0808 50.4247 75.8623C50.9182 75.6439 51.3844 75.3872 51.8231 75.0923C51.516 74.8738 51.1705 74.6881 50.7866 74.5352C50.4137 74.3714 50.0079 74.2512 49.5692 74.1748C49.1305 74.0874 48.6644 74.0437 48.1708 74.0437C47.9953 74.0437 47.8199 74.0491 47.6444 74.0601C47.4689 74.071 47.2879 74.0928 47.1015 74.1256C46.926 74.1475 46.7395 74.1802 46.5421 74.2239L46.246 72.3561C46.5531 72.2687 46.8712 72.2032 47.2002 72.1595C47.5402 72.1158 47.8473 72.094 48.1215 72.094C48.7028 72.094 49.2347 72.1595 49.7173 72.2906C50.1998 72.4216 50.644 72.5855 51.0498 72.7821C51.4556 72.9787 51.834 73.1753 52.185 73.3719C52.5469 73.5685 52.8924 73.7378 53.2214 73.8798C53.5505 74.0109 53.8795 74.0765 54.2085 74.0765H54.7185L54.9159 75.8787C54.4443 75.8897 54.0056 75.9716 53.5998 76.1245C53.194 76.2665 52.7937 76.4522 52.3989 76.6816C52.015 76.9 51.6037 77.1294 51.165 77.3697C50.7263 77.61 50.2327 77.8394 49.6844 78.0578C49.136 78.2654 48.5053 78.4401 47.7924 78.5821C47.0795 78.7132 46.257 78.7787 45.3247 78.7787ZM50.0792 84.0053C49.8269 84.0053 49.6131 83.918 49.4376 83.7432C49.2621 83.5684 49.1744 83.3554 49.1744 83.1042C49.1744 82.853 49.2621 82.6345 49.4376 82.4488C49.6131 82.2741 49.8269 82.1867 50.0792 82.1867C50.3315 82.1867 50.5453 82.2741 50.7208 82.4488C50.8963 82.6345 50.984 82.853 50.984 83.1042C50.984 83.3554 50.8963 83.5684 50.7208 83.7432C50.5453 83.918 50.3315 84.0053 50.0792 84.0053ZM51.2802 82.0065C51.0279 82.0065 50.814 81.9191 50.6386 81.7443C50.474 81.5695 50.3918 81.3565 50.3918 81.1053C50.3918 80.8541 50.474 80.6356 50.6386 80.4499C50.814 80.2752 51.0279 80.1878 51.2802 80.1878C51.5324 80.1878 51.7463 80.2752 51.9218 80.4499C52.0973 80.6356 52.185 80.8541 52.185 81.1053C52.185 81.3565 52.0973 81.5695 51.9218 81.7443C51.7463 81.9191 51.5324 82.0065 51.2802 82.0065ZM48.9111 82.0065C48.6589 82.0065 48.4395 81.9191 48.2531 81.7443C48.0776 81.5695 47.9899 81.3565 47.9899 81.1053C47.9899 80.8541 48.0776 80.6356 48.2531 80.4499C48.4395 80.2752 48.6589 80.1878 48.9111 80.1878C49.1524 80.1878 49.3608 80.2752 49.5363 80.4499C49.7228 80.6356 49.816 80.8541 49.816 81.1053C49.816 81.3565 49.7228 81.5695 49.5363 81.7443C49.3608 81.9191 49.1524 82.0065 48.9111 82.0065Z" fill="white"/>
<path d="M55.6111 82.4816L54.9202 80.7449C55.5782 80.5264 56.1595 80.2697 56.664 79.9748C57.1686 79.6908 57.5908 79.374 57.9308 79.0245C58.2818 78.6859 58.5395 78.3254 58.704 77.9431C58.8795 77.5608 58.9673 77.1622 58.9673 76.7471C58.9673 76.2665 58.8576 75.7531 58.6382 75.207C58.4298 74.6499 58.1776 74.1038 57.8815 73.5685L59.6747 72.7002C59.8721 73.0497 60.0476 73.4156 60.2011 73.7979C60.3547 74.1802 60.4863 74.5298 60.596 74.8465C60.7056 75.1524 60.7879 75.3927 60.8427 75.5674C60.9963 76.0699 61.1992 76.4085 61.4514 76.5833C61.7147 76.758 62.115 76.8454 62.6524 76.8454C63.0034 76.8454 63.2501 76.9382 63.3927 77.1239C63.5463 77.2987 63.623 77.5172 63.623 77.7793C63.623 78.0524 63.5243 78.2872 63.3269 78.4838C63.1295 78.6804 62.8498 78.7787 62.4879 78.7787C62.0272 78.7787 61.6324 78.7078 61.3034 78.5658C60.9853 78.4128 60.7331 78.2053 60.5466 77.9431C60.3602 77.681 60.2395 77.3915 60.1847 77.0748L60.7605 77.3861C60.7166 78.0196 60.5356 78.6094 60.2176 79.1556C59.9105 79.7127 59.5047 80.2096 59.0002 80.6466C58.5066 81.0835 57.9637 81.4549 57.3715 81.7607C56.7792 82.0775 56.1924 82.3178 55.6111 82.4816Z" fill="white"/>
<path d="M62.4992 78.7787L62.6637 76.8454C63.1682 76.8454 63.5685 76.8126 63.8647 76.7471C64.1608 76.6816 64.3692 76.5559 64.4898 76.3703C64.6214 76.1736 64.6872 75.8951 64.6872 75.5347C64.6872 75.2397 64.6434 74.8902 64.5556 74.4861C64.4789 74.0819 64.3692 73.6559 64.2266 73.2081C64.095 72.7603 63.9579 72.3397 63.8153 71.9465L65.7237 71.373C65.8663 71.7335 65.9979 72.154 66.1185 72.6346C66.2501 73.1043 66.3598 73.5849 66.4476 74.0765C66.5463 74.5571 66.5956 75.0104 66.5956 75.4364C66.5956 75.9716 66.5298 76.4303 66.3982 76.8126C66.2666 77.1949 66.0801 77.5172 65.8389 77.7793C65.6085 78.0305 65.3234 78.2326 64.9834 78.3855C64.6434 78.5275 64.265 78.6313 63.8482 78.6968C63.4314 78.7514 62.9818 78.7787 62.4992 78.7787ZM64.424 82.2686C64.1389 82.2686 63.8976 82.1703 63.7002 81.9737C63.5027 81.7771 63.404 81.5422 63.404 81.2692C63.404 80.9852 63.5027 80.7394 63.7002 80.5319C63.8976 80.3243 64.1389 80.2206 64.424 80.2206C64.7092 80.2206 64.9505 80.3243 65.1479 80.5319C65.3563 80.7394 65.4605 80.9852 65.4605 81.2692C65.4605 81.5422 65.3563 81.7771 65.1479 81.9737C64.9505 82.1703 64.7092 82.2686 64.424 82.2686Z" fill="white"/>
<path d="M38.4531 105.021C42.8888 103.741 46.6945 98.9071 41.3685 94.9071C41.174 94.7663 40.9924 94.6383 40.8188 94.5359C41.1108 94.2513 41.4692 94.0431 41.8618 93.93C42.2545 93.8169 42.6691 93.8025 43.0688 93.8879C43.0817 93.8879 43.0993 93.8879 43.1122 93.8975C43.1398 93.9006 43.167 93.9076 43.1925 93.9183C43.7727 94.0511 44.4204 94.3647 45.142 94.9071C50.46 98.9071 43.1058 104.099 38.4531 105.021Z" fill="#00B6FF"/>
<path d="M43.0761 93.8881C42.6766 93.8025 42.2618 93.8171 41.8691 93.9301C41.4765 94.0432 41.1181 94.2513 40.8261 94.5361C38.1197 96.9586 37.996 105.021 37.996 105.021H37.2776C37.2776 105.021 35.5419 95.6354 38.1149 94.0642H38.1245C38.1679 94.0466 38.3511 93.9665 38.6067 93.8785C38.6067 93.8785 38.6195 93.8785 38.6243 93.8785C38.9575 93.7641 39.3016 93.6841 39.6513 93.6401C40.7988 93.5374 41.9556 93.6213 43.0761 93.8881Z" fill="#D7E8F0"/>
<path d="M59.951 22.1252C59.9505 26.4791 58.4578 30.7026 55.7194 34.0974C52.9809 37.4921 49.1609 39.855 44.8908 40.7953C40.6206 41.7355 36.156 41.1969 32.235 39.2686C28.3141 37.3401 25.1715 34.1374 23.3267 30.1897C21.482 26.242 21.0455 21.7858 22.0896 17.5576C23.1338 13.3296 25.5959 9.58286 29.0689 6.93678C32.5419 4.2907 36.818 2.90374 41.1902 3.0052C45.5624 3.10664 49.7689 4.69042 53.1143 7.4947C55.2561 9.28982 56.9778 11.5295 58.1589 14.0567C59.3398 16.584 59.9515 19.3378 59.951 22.1252Z" stroke="black" stroke-width="2" stroke-miterlimit="10"/>
<path d="M33.7916 121.314V129.634H14.9883C14.7674 129.635 14.5487 129.591 14.3449 129.506C14.1412 129.421 13.9565 129.297 13.8018 129.14C13.647 128.983 13.5253 128.797 13.4437 128.592C13.362 128.388 13.3222 128.17 13.3265 127.95L13.4197 122.943C13.4277 122.51 13.6064 122.097 13.9172 121.794C14.228 121.49 14.6461 121.32 15.0815 121.321L33.7916 121.314Z" fill="#D7E8F0"/>
<path d="M63.6219 122.967V127.973C63.6219 128.412 63.4469 128.833 63.1351 129.143C62.8235 129.453 62.4008 129.628 61.9601 129.628H33.792V121.308H61.9601C62.1787 121.308 62.3952 121.35 62.5972 121.434C62.799 121.517 62.9826 121.64 63.1368 121.794C63.2913 121.948 63.4136 122.131 63.4968 122.332C63.5799 122.534 63.6225 122.749 63.6219 122.967Z" fill="#00B6FF"/>
<path d="M36.6234 129.628V146.564H18.6059C17.838 146.562 17.1018 146.259 16.5576 145.719C16.0134 145.18 15.7053 144.448 15.7002 143.684V129.636L36.6234 129.628Z" fill="#D7E8F0"/>
<path d="M60.387 129.628V143.676C60.3819 144.44 60.0738 145.172 59.5296 145.711C58.9854 146.251 58.2492 146.554 57.4813 146.556H36.624V129.628H60.387Z" fill="#00B6FF"/>
<path d="M37.7505 21.022C39.8864 21.022 41.0435 22.5644 41.0435 24.4428C41.0435 26.8348 39.4058 28.1228 37.6444 28.1228C35.756 28.1228 34.3145 26.7404 34.3145 24.6492C34.3145 22.6828 35.5793 21.0156 37.7328 21.0156L37.7505 21.022ZM37.6798 22.7244C36.9501 22.7244 36.6641 23.5388 36.6641 24.5852C36.6641 25.6828 37.0032 26.4284 37.7151 26.4284C38.358 26.4284 38.6939 25.8076 38.6939 24.5852C38.6939 23.5212 38.4271 22.7244 37.6975 22.7244H37.6798ZM37.8935 32.9325L44.4827 21.0588H46.1268L39.5569 32.9325H37.8935ZM46.4386 25.8076C48.5745 25.8076 49.7316 27.3484 49.7316 29.2285C49.7316 31.6205 48.094 32.9085 46.3309 32.9085C44.4442 32.9085 43.0026 31.5261 43.0026 29.4173C43.0026 27.4668 44.2658 25.8012 46.4209 25.8012L46.4386 25.8076ZM46.3663 27.51C45.6367 27.51 45.3522 28.3244 45.3522 29.3709C45.3522 30.4685 45.6913 31.2141 46.4033 31.2141C47.0461 31.2141 47.382 30.5741 47.382 29.3516C47.382 28.2892 47.1152 27.51 46.3856 27.51H46.3663Z" fill="#FF8832"/>
<path d="M30.1743 23.0486V22.8652C30.179 22.014 30.2585 21.3369 30.413 20.8337C30.5721 20.3305 30.7967 19.9261 31.0868 19.6205C31.377 19.3101 31.7303 19.0256 32.1468 18.767C32.4322 18.5883 32.6872 18.3931 32.9119 18.1815C33.1412 17.9652 33.3213 17.7254 33.4524 17.462C33.5834 17.194 33.6489 16.8954 33.6489 16.5662C33.6489 16.1947 33.5623 15.8726 33.3892 15.5998C33.216 15.3271 32.9821 15.1155 32.6872 14.965C32.3971 14.8145 32.0719 14.7393 31.7115 14.7393C31.3793 14.7393 31.0634 14.8122 30.7639 14.9579C30.4691 15.099 30.2234 15.3153 30.0269 15.6069C29.835 15.8937 29.7274 16.2582 29.704 16.7002H27.2051C27.2285 15.8067 27.4437 15.059 27.8509 14.4571C28.2627 13.8552 28.8055 13.4038 29.4794 13.1028C30.1579 12.8018 30.9067 12.6514 31.7256 12.6514C32.6194 12.6514 33.4056 12.8089 34.0841 13.124C34.7673 13.439 35.2985 13.8881 35.6775 14.4712C36.0612 15.0496 36.2531 15.7362 36.2531 16.5309C36.2531 17.067 36.1665 17.5467 35.9934 17.9699C35.8249 18.3931 35.5839 18.7693 35.2704 19.0985C34.9569 19.4277 34.5848 19.7216 34.1543 19.9802C33.7753 20.2153 33.4641 20.4599 33.2207 20.7138C32.9821 20.9677 32.8042 21.2663 32.6872 21.6096C32.5749 21.9482 32.5164 22.3667 32.5118 22.8652V23.0486H30.1743ZM31.3957 27.4501C30.9745 27.4501 30.6118 27.2996 30.3077 26.9987C30.0035 26.6977 29.8514 26.3309 29.8514 25.8983C29.8514 25.4751 30.0035 25.113 30.3077 24.812C30.6118 24.5111 30.9745 24.3606 31.3957 24.3606C31.8122 24.3606 32.1725 24.5111 32.4767 24.812C32.7855 25.113 32.9399 25.4751 32.9399 25.8983C32.9399 26.1852 32.8674 26.4461 32.7223 26.6813C32.582 26.9164 32.3948 27.1045 32.1608 27.2456C31.9315 27.3819 31.6765 27.4501 31.3957 27.4501Z" fill="white"/>
<path d="M48.2904 21.5534V21.4417C48.2931 20.9236 48.3386 20.5114 48.4268 20.2052C48.5177 19.8989 48.6461 19.6527 48.8119 19.4667C48.9777 19.2778 49.1796 19.1046 49.4176 18.9471C49.5807 18.8384 49.7264 18.7196 49.8548 18.5908C49.9858 18.4591 50.0888 18.3131 50.1636 18.1528C50.2385 17.9897 50.2759 17.8079 50.2759 17.6075C50.2759 17.3814 50.2265 17.1853 50.1275 17.0193C50.0286 16.8533 49.8949 16.7245 49.7264 16.6329C49.5606 16.5413 49.3748 16.4955 49.1689 16.4955C48.979 16.4955 48.7985 16.5399 48.6274 16.6286C48.4589 16.7145 48.3185 16.8462 48.2062 17.0236C48.0966 17.1982 48.0351 17.4201 48.0217 17.6891H46.5938C46.6071 17.1453 46.7301 16.6902 46.9628 16.3238C47.1981 15.9574 47.5083 15.6826 47.8933 15.4994C48.2811 15.3162 48.7089 15.2246 49.1769 15.2246C49.6876 15.2246 50.1369 15.3205 50.5246 15.5123C50.915 15.7041 51.2185 15.9774 51.4351 16.3324C51.6544 16.6844 51.7641 17.1023 51.7641 17.5861C51.7641 17.9124 51.7146 18.2044 51.6156 18.462C51.5194 18.7196 51.3817 18.9486 51.2025 19.1489C51.0233 19.3493 50.8108 19.5282 50.5647 19.6856C50.3481 19.8288 50.1703 19.9776 50.0313 20.1322C49.8949 20.2867 49.7933 20.4685 49.7264 20.6775C49.6622 20.8836 49.6288 21.1383 49.6261 21.4417V21.5534H48.2904ZM48.9884 24.2325C48.7477 24.2325 48.5405 24.141 48.3667 23.9578C48.1928 23.7746 48.1059 23.5513 48.1059 23.288C48.1059 23.0303 48.1928 22.8099 48.3667 22.6267C48.5405 22.4436 48.7477 22.352 48.9884 22.352C49.2264 22.352 49.4323 22.4436 49.6061 22.6267C49.7826 22.8099 49.8708 23.0303 49.8708 23.288C49.8708 23.4626 49.8294 23.6214 49.7465 23.7645C49.6663 23.9077 49.5593 24.0222 49.4256 24.108C49.2946 24.191 49.1488 24.2325 48.9884 24.2325Z" fill="white"/>
<path d="M36.2299 104.933C33.358 104.933 28.0336 102.599 30.8509 99.4723C31.1482 99.1169 31.518 98.8284 31.9357 98.6259L31.9582 98.6115H31.9678C32.6417 98.2985 33.3628 98.0985 34.1021 98.0195C34.34 97.9998 34.5794 98.0073 34.8157 98.0419C34.4396 98.0243 34.0009 98.2275 33.4818 98.7219C33.3902 98.8051 33.2921 98.9107 33.1909 99.0211C30.38 102.141 33.3275 104.682 36.2299 104.933Z" fill="#D7E8F0"/>
<path d="M36.9699 104.79L36.5231 104.875C36.5231 104.875 35.4592 99.8958 33.4824 98.7182C34.0015 98.2238 34.4467 98.0206 34.8163 98.0382C34.8237 98.0399 34.8314 98.0399 34.8388 98.0382L34.9996 98.0605L35.0558 98.0734C36.8992 98.6382 36.9699 104.79 36.9699 104.79Z" fill="#00B6FF"/>
<path d="M36.6225 121.312H15.087C14.6512 121.312 14.2329 121.483 13.9221 121.787C13.6113 122.091 13.4328 122.504 13.4252 122.938L13.3352 127.945C13.3312 128.164 13.3712 128.383 13.4529 128.587C13.5346 128.791 13.6563 128.977 13.811 129.134C13.9657 129.291 14.1503 129.416 14.3539 129.501C14.5576 129.586 14.7762 129.629 14.997 129.629H61.9589C62.1773 129.629 62.3934 129.586 62.5951 129.503C62.7968 129.42 62.9802 129.298 63.1345 129.144C63.2888 128.99 63.4112 128.808 63.4946 128.607C63.578 128.406 63.6208 128.191 63.6206 127.973V122.967C63.6206 122.528 63.4456 122.107 63.1338 121.797C62.8222 121.487 62.3995 121.312 61.9589 121.312H30.8722" stroke="black" stroke-width="2" stroke-miterlimit="10"/>
<path d="M57.4807 146.565H18.6043C17.8346 146.562 17.0971 146.257 16.5531 145.715C16.0089 145.173 15.7023 144.438 15.7002 143.672V129.629H60.3783V143.672C60.3758 144.437 60.0699 145.17 59.5273 145.712C58.9846 146.254 58.2492 146.56 57.4807 146.565Z" stroke="black" stroke-width="2" stroke-miterlimit="10"/>
<path d="M54.7554 106.088V109.317C54.7554 109.6 54.6424 109.871 54.4414 110.071C54.2405 110.271 53.9677 110.384 53.6834 110.384H35.5068V105.021H53.6834C53.9677 105.021 54.2405 105.133 54.4414 105.333C54.6424 105.533 54.7554 105.805 54.7554 106.088Z" fill="#00B6FF"/>
<path d="M35.5064 105.021V110.384H23.3807C23.2384 110.384 23.0976 110.355 22.9665 110.3C22.8355 110.246 22.7166 110.165 22.6168 110.065C22.5172 109.964 22.4386 109.844 22.3857 109.713C22.3327 109.581 22.3066 109.441 22.3087 109.299L22.3666 106.065C22.372 105.786 22.4874 105.52 22.688 105.325C22.8884 105.129 23.1579 105.02 23.4385 105.021H35.5064Z" fill="#D7E8F0"/>
<path d="M52.6695 110.384V119.448C52.6678 119.943 52.4691 120.417 52.1172 120.767C51.765 121.116 51.288 121.313 50.7908 121.313H37.3359V110.384H52.6695Z" fill="#00B6FF"/>
<path d="M37.3359 110.384V121.313H25.7196C25.223 121.312 24.7471 121.115 24.396 120.766C24.0448 120.416 23.847 119.942 23.8457 119.448V110.384H37.3359Z" fill="#D7E8F0"/>
<path d="M33.791 121.312V129.629" stroke="black" stroke-width="2" stroke-miterlimit="10"/>
<path d="M36.6221 129.629V146.565" stroke="black" stroke-width="2" stroke-miterlimit="10"/>
<path d="M54.7554 106.088V109.317C54.7554 109.6 54.6424 109.871 54.4414 110.071C54.2405 110.271 53.9677 110.384 53.6834 110.384H35.5068V105.021H53.6834C53.9677 105.021 54.2405 105.133 54.4414 105.333C54.6424 105.533 54.7554 105.805 54.7554 106.088Z" stroke="black" stroke-width="2" stroke-miterlimit="10"/>
<path d="M35.5064 105.021V110.384H23.3807C23.2384 110.384 23.0976 110.355 22.9665 110.3C22.8355 110.246 22.7166 110.165 22.6168 110.065C22.5172 109.964 22.4386 109.844 22.3857 109.713C22.3327 109.581 22.3066 109.441 22.3087 109.299L22.3666 106.065C22.372 105.786 22.4874 105.52 22.688 105.325C22.8884 105.129 23.1579 105.02 23.4385 105.021H35.5064Z" stroke="black" stroke-width="2" stroke-miterlimit="10"/>
<path d="M52.6695 110.384V119.448C52.6678 119.943 52.4691 120.417 52.1172 120.767C51.765 121.116 51.288 121.313 50.7908 121.313H37.3359V110.384H52.6695Z" stroke="black" stroke-width="2" stroke-miterlimit="10"/>
<path d="M37.3359 110.384V121.313H25.7196C25.223 121.312 24.7471 121.115 24.396 120.766C24.0448 120.416 23.847 119.942 23.8457 119.448V110.384H37.3359Z" stroke="black" stroke-width="2" stroke-miterlimit="10"/>
<path d="M39.2295 105.019C43.6732 103.739 50.5115 98.9086 45.1951 94.9086C44.6225 94.4455 43.9583 94.1081 43.2457 93.9182C43.2203 93.907 43.193 93.9005 43.1653 93.8989C42.7599 93.8042 42.3369 93.8132 41.9359 93.9252C41.5349 94.037 41.169 94.2482 40.872 94.5389" stroke="black" stroke-width="2" stroke-miterlimit="10"/>
<path d="M40.871 94.5357C38.163 96.9597 38.0409 105.019 38.0409 105.019H37.3209C37.3209 105.019 34.6418 90.5453 40.871 94.5357Z" stroke="black" stroke-width="2" stroke-miterlimit="10"/>
<path d="M38.5071 105.019H38.041C38.041 105.019 38.1632 96.9601 40.8712 94.5361C41.06 94.651 41.2429 94.7755 41.4192 94.9089C46.7452 98.9089 42.9411 103.747 38.5071 105.019Z" stroke="black" stroke-width="2" stroke-miterlimit="10"/>
<path d="M38.2373 93.9793C38.708 93.8093 39.1964 93.6924 39.6934 93.6305C40.8823 93.5279 42.0803 93.6247 43.2371 93.9169" stroke="black" stroke-width="2" stroke-miterlimit="10"/>
<path d="M35.8442 105.019C32.9337 104.77 28.1026 102.597 30.9103 99.4738C31.2084 99.117 31.5792 98.8274 31.9983 98.6241C32.0125 98.6142 32.0282 98.6067 32.0449 98.6017C32.2845 98.4941 32.5476 98.4481 32.8097 98.4686C33.0719 98.4891 33.3245 98.575 33.5444 98.7185" stroke="black" stroke-width="2" stroke-miterlimit="10"/>
<path d="M33.5361 98.7182C35.5129 99.8926 36.572 104.877 36.572 104.877L37.0188 104.789C37.0188 104.789 36.9111 95.4894 33.5361 98.7182Z" stroke="black" stroke-width="2" stroke-miterlimit="10"/>
<path d="M36.2832 104.932L36.5725 104.876C36.5725 104.876 35.5134 99.8922 33.5367 98.7178C33.4434 98.801 33.3454 98.905 33.2426 99.0154C30.4301 102.14 33.3792 104.679 36.2832 104.932Z" stroke="black" stroke-width="2" stroke-miterlimit="10"/>
<path d="M35.1032 98.0542C34.7902 98.0056 34.4728 97.9921 34.1566 98.0142C33.4053 98.0945 32.6731 98.3001 31.9902 98.6222" stroke="black" stroke-width="2" stroke-miterlimit="10"/>
<path d="M130.343 39.9604L130.971 41.0804C130.971 41.0804 130.052 43.1156 132.516 43.4676C134.98 43.8196 138.223 41.4084 138.311 39.8164C142.096 41.2724 144.097 44.9364 144.132 48.8596C144.196 58.5717 131.645 64.4597 123.257 63.5797C119.042 63.1397 115.061 61.2885 111.737 58.6757C111.294 58.3333 110.868 57.9733 110.452 57.6021C109.609 56.8374 108.82 56.0168 108.089 55.1461C107.711 54.6981 107.342 54.2398 106.983 53.7717" stroke="black" stroke-width="2" stroke-miterlimit="10"/>
<path d="M135.723 35.4023L138.137 39.9864" stroke="black" stroke-width="2" stroke-miterlimit="10"/>
<path d="M10.4014 146.563H150" stroke="black" stroke-width="2" stroke-miterlimit="10"/>
<path d="M106.718 17.5928H106.697C105.919 17.724 104.984 18.4136 104.499 19.3064C103.943 20.316 103.878 21.5464 103.759 22.068C103.747 22.1272 103.734 22.1848 103.727 22.2376C103.713 22.2821 103.703 22.3275 103.695 22.3736L103.674 22.452C103.6 22.7046 103.433 22.9205 103.208 23.0571C102.982 23.1939 102.713 23.2418 102.453 23.1914C102.194 23.1408 101.962 22.9957 101.805 22.7843C101.647 22.573 101.575 22.3107 101.601 22.0488L101.646 21.684C101.661 21.5528 101.68 21.4296 101.706 21.3064C101.758 20.9489 101.837 20.596 101.942 20.2504C101.956 20.1961 101.973 20.1427 101.993 20.0904C102.013 20.0078 102.039 19.927 102.072 19.8488C102.087 19.8067 102.105 19.7656 102.125 19.7256" stroke="black" stroke-width="2" stroke-miterlimit="10"/>
<path d="M108.691 24.8819C108.205 25.3459 107.74 25.5772 107.296 25.5763C107.108 25.5764 106.923 25.5343 106.753 25.4531C106.594 25.3819 106.45 25.2803 106.331 25.1539C105.929 24.7427 105.945 24.0531 106.136 23.5907C106.275 23.2905 106.462 23.0153 106.691 22.7763C106.763 22.6947 106.834 22.6163 106.896 22.5315C107.108 22.2916 107.268 22.0111 107.366 21.7074C107.366 21.6898 107.366 21.6739 107.374 21.6562" stroke="black" stroke-width="2" stroke-miterlimit="10"/>
<path d="M104.877 17.1455C105.177 17.2015 105.467 17.2703 105.762 17.3375C106.058 17.4047 106.386 17.4975 106.695 17.5935C107.402 17.8017 108.064 18.1385 108.647 18.5871C110.232 19.7535 110.565 21.7423 109.422 23.2095" stroke="black" stroke-width="2" stroke-miterlimit="10"/>
<path d="M103.76 22.068C103.76 22.0824 103.76 22.0952 103.752 22.1128C103.748 22.1666 103.741 22.22 103.73 22.2728L103.694 22.6376C103.673 22.8347 103.709 23.0338 103.796 23.2119C103.884 23.3898 104.02 23.5397 104.189 23.6443C104.358 23.7488 104.553 23.8039 104.752 23.8029C104.951 23.8021 105.146 23.7453 105.314 23.6392C105.435 23.5647 105.54 23.4658 105.62 23.349C105.701 23.2323 105.757 23.1002 105.784 22.9608C105.814 22.8248 105.84 22.6776 105.875 22.5384C106.004 21.9976 106.052 21.5144 106.457 21.0984C106.571 20.9808 106.707 20.8862 106.857 20.82C106.895 20.804 106.934 20.7915 106.974 20.7832" stroke="black" stroke-width="2" stroke-miterlimit="10"/>
<path d="M99.4635 21.1113V21.0697C99.5323 20.3777 99.7158 19.7019 100.007 19.0697C100.187 18.6745 100.428 18.31 100.722 17.9897C101.182 17.4727 101.806 17.1273 102.49 17.0105C102.687 16.9817 102.882 16.9625 103.081 16.9529C103.682 16.9444 104.281 17.0089 104.867 17.1449C104.385 17.1817 103.558 17.6953 102.962 18.3417C102.724 18.5867 102.524 18.8667 102.371 19.1721C102.295 19.3321 102.21 19.5081 102.151 19.6777C102.09 19.8153 102.036 19.9545 101.99 20.0905C101.85 20.4841 101.73 20.8729 101.638 21.2313C101.596 21.3913 101.558 21.5513 101.527 21.6953C101.477 21.962 101.331 22.2011 101.115 22.3671C100.9 22.5334 100.63 22.6148 100.359 22.5961C100.082 22.5639 99.8293 22.4244 99.6554 22.2078C99.4815 21.9911 99.4003 21.715 99.4297 21.4393L99.4619 21.1113" stroke="black" stroke-width="2" stroke-miterlimit="10"/>
<path d="M98.2009 49.1291C97.9277 48.5834 97.7509 47.985 98.0144 47.4634C98.6107 46.2794 100.528 46.9066 101.65 46.1834C102.614 45.5674 102.516 44.8362 103.043 43.9242C103.659 42.857 104.768 43.2842 105.615 43.8154C106.696 44.489 109.059 46.8554 112.847 49.1867C114.025 49.9159 115.153 50.7236 116.222 51.6043C119.2 54.0475 126.618 58.2811 133.067 46.8922" stroke="black" stroke-width="2" stroke-miterlimit="10"/>
<path d="M107.139 53.9616C106.611 53.4256 106.035 52.8592 105.293 52.7248C104.501 52.5792 103.71 52.952 102.908 52.9904C100.933 53.08 99.467 51.248 98.4497 49.56C98.3661 49.424 98.289 49.2784 98.207 49.1328" stroke="black" stroke-width="2" stroke-miterlimit="10"/>
<path d="M102.427 51.3481C102.427 51.3481 100.539 52.3577 99.7354 51.3193" stroke="black" stroke-width="2" stroke-miterlimit="10"/>
<path d="M98.6152 49.8428C98.6152 49.8428 100.15 50.8828 101.227 50.0156" stroke="black" stroke-width="2" stroke-miterlimit="10"/>
<path d="M97.9033 48.4688C97.9033 48.4688 99.2388 49.2832 99.8126 48.6992" stroke="black" stroke-width="2" stroke-miterlimit="10"/>
</g>
<defs>
<filter id="filter0_d_3149_2579" x="0" y="0" width="156.859" height="153.565" filterUnits="userSpaceOnUse" color-interpolation-filters="sRGB">
<feFlood flood-opacity="0" result="BackgroundImageFix"/>
<feColorMatrix in="SourceAlpha" type="matrix" values="0 0 0 0 0 0 0 0 0 0 0 0 0 0 0 0 0 0 127 0" result="hardAlpha"/>
<feOffset dx="2" dy="2"/>
<feGaussianBlur stdDeviation="2"/>
<feComposite in2="hardAlpha" operator="out"/>
<feColorMatrix type="matrix" values="0 0 0 0 0 0 0 0 0 0 0 0 0 0 0 0 0 0 0.25 0"/>
<feBlend mode="normal" in2="BackgroundImageFix" result="effect1_dropShadow_3149_2579"/>
<feBlend mode="normal" in="SourceGraphic" in2="effect1_dropShadow_3149_2579" result="shape"/>
</filter>
</defs>
</svg>
