<svg width="31" height="31" viewBox="0 0 31 31" fill="none" xmlns="http://www.w3.org/2000/svg">
<path d="M9.37296 19.8796L10.1572 20.705C10.1572 20.705 12.0212 22.6672 17.109 17.3114C22.1968 11.9557 20.3328 9.99353 20.3328 9.99353L19.839 9.4737C18.6224 8.19311 18.5077 6.13716 19.5691 4.63622L21.7402 1.56591C23.0539 -0.291797 25.5923 -0.537199 27.098 1.04778L29.8005 3.89259C30.5471 4.6785 31.0474 5.69728 30.9867 6.82743C30.8315 9.71876 29.5959 15.9395 22.7008 23.1978C15.389 30.8947 8.52826 31.2006 5.72266 30.9238C4.83527 30.8362 4.06357 30.3577 3.44167 29.7031L0.995745 27.1284C-0.655249 25.3905 -0.189688 22.4111 1.92274 21.1953L5.21216 19.3022C6.59921 18.5039 8.28894 18.7384 9.37296 19.8796Z" fill="#143A62"/>
</svg>
