<svg width="86" height="96" viewBox="0 0 86 96" fill="none" xmlns="http://www.w3.org/2000/svg">
<path d="M81.7304 32.3107C81.7304 32.3107 68.679 43.3053 82.5752 67.868C94.9164 89.6822 65.4252 98.289 52.9148 95.4873C36.7087 91.8574 27.9824 70.7441 15.3126 77.058C2.64282 83.3719 -8.79752 53.0833 9.67458 42.4906C32.6533 29.3137 18.4162 20.9839 20.7486 10.9687C22.4224 3.7808 43.4577 -6.88305 54.2296 6.12831C63.2941 17.0771 68.0156 13.3541 72.3508 12.0276C78.6036 10.1142 91.7888 21.1797 81.7304 32.3107Z" fill="#DEE9FF"/>
<path d="M68.5281 16.1855L40.3668 11.5734C38.3013 11.2352 36.3526 12.6344 36.0141 14.6987L26.2735 74.1092C25.935 76.1735 27.3351 78.1212 29.4005 78.4594L57.5619 83.0715C59.6273 83.4098 61.5761 82.0105 61.9145 79.9462L71.6552 20.5357C71.9936 18.4714 70.5936 16.5238 68.5281 16.1855Z" fill="#0E84E5"/>
<path d="M67.6024 17.8595L40.71 13.4552C39.3331 13.2297 38.0339 14.1625 37.8082 15.5387L28.2422 73.8844C28.0166 75.2606 28.9499 76.5591 30.3269 76.7846L57.2193 81.1888C58.5962 81.4144 59.8954 80.4815 60.1211 79.1053L69.6871 20.7596C69.9127 19.3834 68.9794 18.085 67.6024 17.8595Z" fill="#699CFF"/>
<path d="M83.6294 11.5496C81.5838 10.6954 80.1378 11.5149 79.7959 12.3327C79.5489 12.9235 79.9349 13.4049 80.3441 13.5758C81.1623 13.9174 81.3165 12.612 82.8621 13.2574C83.62 13.5737 84.0866 14.1601 83.7953 14.8568C83.4534 15.6747 82.4085 15.79 81.7312 16.0052C81.1335 16.2004 80.2981 16.581 79.7536 17.8836C79.4243 18.6711 79.5414 18.9869 80.1627 19.2464C80.9051 19.5564 81.1959 19.2864 81.3163 18.9986C81.6455 18.211 81.8507 17.7629 82.9563 17.4597C83.4984 17.3125 85.217 16.8203 85.8121 15.3965C86.4073 13.9728 85.5689 12.3596 83.6294 11.5496Z" fill="#0E84E5"/>
<path d="M79.741 20.2973C79.4323 20.1725 79.0869 20.1744 78.7796 20.3026C78.4724 20.4307 78.2281 20.6748 78.0997 20.9818C77.9714 21.2889 77.9693 21.6341 78.094 21.9426C78.2187 22.2512 78.4601 22.4981 78.7659 22.6299C79.075 22.7569 79.4218 22.7566 79.7306 22.6289C80.0395 22.5011 80.2851 22.2564 80.414 21.9482C80.5428 21.64 80.5444 21.2933 80.4183 20.984C80.2922 20.6746 80.0486 20.4278 79.741 20.2973Z" fill="#0E84E5"/>
<path d="M45.1538 38.704C45.3384 37.5682 45.0103 36.5699 44.4211 36.4742C43.8318 36.3786 43.2044 37.2217 43.0198 38.3575C42.8352 39.4933 43.1632 40.4916 43.7525 40.5873C44.3418 40.683 44.9691 39.8398 45.1538 38.704Z" fill="white"/>
<path d="M57.4403 40.7197C57.6267 39.5726 57.3002 38.5651 56.7109 38.4695C56.1216 38.3738 55.4928 39.2261 55.3063 40.3732C55.1199 41.5203 55.4465 42.5278 56.0357 42.6234C56.625 42.7191 57.2538 41.8668 57.4403 40.7197Z" fill="white"/>
<path d="M45.383 47.9479C45.4259 47.9478 45.4683 47.9565 45.5077 47.9733C45.5471 47.9902 45.5826 48.015 45.612 48.0461L46.0565 48.5137C46.7694 49.2618 47.7085 49.7551 48.7294 49.9176C49.7502 50.0802 50.7962 49.9031 51.7065 49.4135L52.2743 49.1071C52.3108 49.0874 52.3508 49.075 52.3921 49.0708C52.4334 49.0666 52.475 49.0705 52.5148 49.0823C52.5545 49.0942 52.5915 49.1138 52.6237 49.1399C52.6559 49.1661 52.6826 49.1983 52.7023 49.2348C52.722 49.2713 52.7343 49.3113 52.7386 49.3525C52.7428 49.3938 52.7389 49.4354 52.727 49.4752C52.7152 49.5149 52.6956 49.5519 52.6694 49.584C52.6432 49.6162 52.611 49.6429 52.5745 49.6626L52.0066 49.969C50.9742 50.5243 49.7879 50.7252 48.6301 50.5408C47.4723 50.3564 46.4071 49.797 45.5985 48.9485L45.1541 48.4809C45.1116 48.4361 45.0831 48.3799 45.0723 48.3191C45.0614 48.2584 45.0686 48.1958 45.0929 48.1391C45.1173 48.0823 45.1578 48.034 45.2093 48C45.2609 47.9661 45.3213 47.9479 45.383 47.9479V47.9479Z" fill="white"/>
</svg>
