<svg width="86" height="74" viewBox="0 0 86 74" fill="none" xmlns="http://www.w3.org/2000/svg">
<path d="M58.2586 3.0976C58.2586 3.0976 46.4788 18.1189 27.6312 9.1588C8.78364 0.198713 -10.064 24.4437 6.16589 39.2015C22.3958 53.9592 6.51363 62.0686 17.5396 71.1131C30.0713 81.3928 40.9816 60.5475 50.9289 65.2912C72.8832 75.7604 89.1477 71.6159 85.4829 59.4934C79.0498 38.214 70.8237 36.8297 77.1062 25.7613C83.3887 14.693 69.5231 -8.32083 58.2586 3.0976Z" fill="#DEE9FF"/>
<path d="M51.8441 44.6421L50.9135 49.672L46.4808 73.5825L38.4961 72.0816L43.6158 44.4607L43.8593 43.1445L51.8441 44.6421Z" fill="#699CFF"/>
<path d="M71.5111 32.614L68.7578 47.474C68.7498 47.5176 68.7333 47.5591 68.7092 47.5963C68.6852 47.6334 68.6542 47.6654 68.6179 47.6904C68.5816 47.7155 68.5407 47.7331 68.4976 47.7422C68.4546 47.7514 68.4101 47.7519 68.3669 47.7437L29.6855 40.4808L34.2383 15.9062L63.6114 21.4215C68.9353 22.4209 72.4713 27.431 71.5111 32.614Z" fill="#A2BDFF"/>
<path d="M42.4986 27.6261L39.7669 42.3708L19.4629 38.5584L22.1946 23.8137C23.2003 18.3849 28.5611 14.8373 34.1677 15.89C39.7744 16.9428 43.5044 22.1972 42.4986 27.6261Z" fill="#699CFF"/>
<path d="M51.9509 34.5199C50.4546 34.2389 49.4674 32.775 49.7492 31.2547C50.031 29.7345 51.4758 28.7269 52.9721 29.008C53.449 29.0982 53.8937 29.3139 54.261 29.6333C54.6282 29.9527 54.9049 30.3643 55.0629 30.8263L73.9629 34.375L73.4524 37.1311L54.5523 33.5823C54.2396 33.956 53.8341 34.2395 53.3772 34.4042C52.9202 34.5689 52.4281 34.6088 51.9509 34.5199Z" fill="#418DF9"/>
<path d="M41.8257 27.898L39.1642 42.2638L20.0371 38.6724L22.6988 24.3066C23.6787 19.0174 28.755 15.5333 34.0368 16.5251C39.3185 17.5168 42.8056 22.6087 41.8257 27.898Z" fill="#418DF9"/>
<path d="M52.4862 33.1268C53.2552 33.1268 53.8786 32.4992 53.8786 31.725C53.8786 30.9508 53.2552 30.3232 52.4862 30.3232C51.7172 30.3232 51.0938 30.9508 51.0938 31.725C51.0938 32.4992 51.7172 33.1268 52.4862 33.1268Z" fill="white"/>
<path d="M74.1821 34.3648L72.5126 43.3763C72.5054 43.4151 72.4832 43.4495 72.4509 43.4718C72.4185 43.4941 72.3787 43.5026 72.3402 43.4953L67.9515 42.6713C67.9438 42.6699 67.9371 42.6655 67.9327 42.659C67.9284 42.6526 67.9267 42.6447 67.9281 42.637L69.6194 33.5081C69.6208 33.5004 69.6252 33.4937 69.6316 33.4893C69.638 33.4848 69.6459 33.4832 69.6535 33.4846L74.1588 34.3306C74.1664 34.332 74.1732 34.3364 74.1775 34.3428C74.1819 34.3492 74.1836 34.3572 74.1821 34.3648Z" fill="#699CFF"/>
<path d="M26.3663 33.5174C26.5511 34.8861 28.0429 36.5128 28.0429 36.5128C25.7697 36.675 24.5386 35.3808 24.0089 34.5944C23.354 34.785 22.6809 34.9052 22.0008 34.9532C17.334 35.2862 13.3165 32.2189 13.0264 28.0987C12.7362 23.9785 16.2838 20.3714 20.9506 20.0384C25.6175 19.7055 29.6347 22.7726 29.9247 26.8928C30.1135 29.5729 28.677 32.0363 26.3663 33.5174Z" fill="white"/>
<path d="M39.7861 42.3807C39.5748 42.9192 35.7101 58.962 23.2037 56.6138C9.48976 54.2764 19.4094 38.5547 19.4094 38.5547L39.7861 42.3807Z" fill="#A2BDFF"/>
<path d="M21.4748 28.9085C22.1156 28.9085 22.6351 28.3855 22.6351 27.7404C22.6351 27.0953 22.1156 26.5723 21.4748 26.5723C20.834 26.5723 20.3145 27.0953 20.3145 27.7404C20.3145 28.3855 20.834 28.9085 21.4748 28.9085Z" fill="#699CFF"/>
<path d="M16.2806 28.3992C16.9253 28.3992 17.448 27.873 17.448 27.224C17.448 26.575 16.9253 26.0488 16.2806 26.0488C15.6359 26.0488 15.1133 26.575 15.1133 27.224C15.1133 27.873 15.6359 28.3992 16.2806 28.3992Z" fill="#699CFF"/>
<path d="M26.6205 29.406C27.2652 29.406 27.7878 28.8799 27.7878 28.2308C27.7878 27.5818 27.2652 27.0557 26.6205 27.0557C25.9758 27.0557 25.4531 27.5818 25.4531 28.2308C25.4531 28.8799 25.9758 29.406 26.6205 29.406Z" fill="#699CFF"/>
<path d="M51.8454 44.6421L50.9148 49.672L43.6172 44.4607L43.8606 43.1445L51.8454 44.6421Z" fill="#418DF9"/>
</svg>
