<svg width="81" height="81" viewBox="0 0 81 81" fill="none" xmlns="http://www.w3.org/2000/svg">
<path d="M3.68182 81C2.70928 80.9872 1.78018 80.5955 1.09242 79.9077C0.404705 79.22 0.0127145 78.2907 0 77.3182V3.68182C0 2.70535 0.387917 1.76884 1.07838 1.07838C1.76884 0.387917 2.70535 0 3.68182 0C4.65829 0 5.59479 0.387917 6.28526 1.07838C6.97572 1.76884 7.36364 2.70535 7.36364 3.68182V77.3182C7.35092 78.2907 6.95893 79.22 6.27122 79.9077C5.58345 80.5955 4.65436 80.9872 3.68182 81Z" fill="#143A62"/>
<path d="M77.3182 80.9994H3.68182C2.70535 80.9994 1.76884 80.6116 1.07838 79.9209C0.387917 79.2306 0 78.294 0 77.3176C0 76.3411 0.387917 75.4045 1.07838 74.7143C1.76884 74.0236 2.70535 73.6357 3.68182 73.6357H77.3182C78.2946 73.6357 79.2313 74.0236 79.9215 74.7143C80.6122 75.4045 81 76.3411 81 77.3176C81 78.294 80.6122 79.2306 79.9215 79.9209C79.2313 80.6116 78.2946 80.9994 77.3182 80.9994Z" fill="#143A62"/>
<path d="M20.8635 63.8184C19.8909 63.8056 18.9618 63.4139 18.2741 62.7261C17.5863 62.0383 17.1944 61.109 17.1816 60.1365V40.5002C17.1816 39.5238 17.5696 38.5871 18.26 37.8969C18.9505 37.2062 19.887 36.8184 20.8635 36.8184C21.8399 36.8184 22.7764 37.2062 23.4669 37.8969C24.1574 38.5871 24.5453 39.5238 24.5453 40.5002V60.1365C24.5326 61.109 24.1406 62.0383 23.4529 62.7261C22.7651 63.4139 21.836 63.8056 20.8635 63.8184Z" fill="#143A62"/>
<path d="M38.0451 63.818C37.0726 63.8052 36.1433 63.4135 35.4556 62.7257C34.7678 62.038 34.376 61.1087 34.3633 60.1362V20.8635C34.3633 19.887 34.7511 18.9505 35.4418 18.26C36.132 17.5696 37.0687 17.1816 38.0451 17.1816C39.0215 17.1816 39.9582 17.5696 40.6484 18.26C41.3391 18.9505 41.7269 19.887 41.7269 20.8635V60.1362C41.7142 61.1087 41.3224 62.038 40.6346 62.7257C39.9469 63.4135 39.0176 63.8052 38.0451 63.818Z" fill="#143A62"/>
<path d="M55.2267 63.8184C54.2542 63.8056 53.325 63.4139 52.6372 62.7261C51.9494 62.0383 51.5577 61.109 51.5449 60.1365V40.5002C51.5449 39.5238 51.9327 38.5871 52.6234 37.8969C53.3137 37.2062 54.2503 36.8184 55.2267 36.8184C56.2032 36.8184 57.1398 37.2062 57.83 37.8969C58.5207 38.5871 58.9086 39.5238 58.9086 40.5002V60.1365C58.8958 61.109 58.504 62.0383 57.8163 62.7261C57.1285 63.4139 56.1992 63.8056 55.2267 63.8184Z" fill="#143A62"/>
<path d="M72.4094 63.818C71.4369 63.8052 70.5076 63.4135 69.8198 62.7257C69.132 62.038 68.7403 61.1087 68.7275 60.1362V20.8635C68.7275 19.887 69.1154 18.9505 69.8061 18.26C70.4963 17.5696 71.4329 17.1816 72.4094 17.1816C73.3858 17.1816 74.3224 17.5696 75.0126 18.26C75.7034 18.9505 76.0912 19.887 76.0912 20.8635V60.1362C76.0784 61.1087 75.6867 62.038 74.9989 62.7257C74.3111 63.4135 73.3818 63.8052 72.4094 63.818Z" fill="#143A62"/>
</svg>
