<svg width="18" height="22" viewBox="0 0 18 22" fill="none" xmlns="http://www.w3.org/2000/svg">
<path d="M12.7629 15.3154C11.8564 14.7724 11.5311 14.8271 11.5311 13.7423C11.5311 13.3626 11.5311 12.657 11.5311 12.0062C12.0287 11.4639 12.2096 11.5314 12.6304 9.40243C13.4813 9.40243 13.4261 8.31755 13.8275 7.35522C14.1546 6.57156 13.8806 6.25385 13.605 6.124C13.8303 3.26821 13.8303 1.30136 10.5273 0.691199C9.33008 -0.315859 7.52347 0.0260429 6.66735 0.194094C5.81197 0.362144 5.04035 0.194094 5.04035 0.194094L5.18729 1.54718C3.9347 3.02238 4.56108 4.98923 4.35941 6.14123C4.09661 6.28173 3.85956 6.60568 4.17249 7.35522C4.57378 8.31755 4.51865 9.40243 5.36957 9.40243C5.79034 11.5314 5.97126 11.4639 6.46887 12.0062C6.46887 12.657 6.46887 13.3626 6.46887 13.7423C6.46887 14.8271 6.09315 14.8458 5.23708 15.3154C3.17306 16.4476 0.483407 17.1054 0.00151158 20.644C-0.0867585 21.2912 3.69992 21.9978 8.99998 22C14.3 21.9978 18.0865 21.2912 17.9985 20.644C17.5166 17.1054 14.8023 16.5364 12.7629 15.3154Z" fill="#143A62" fill-opacity="0.85"/>
</svg>
