<svg width="89" height="33" viewBox="0 0 89 33" fill="none" xmlns="http://www.w3.org/2000/svg">
<g filter="url(#filter0_d_4856_7542)">
<path d="M46.5891 19.3487L45.8242 17.5626C45.3252 16.3975 43.6748 16.3975 43.1758 17.5626L42.4109 19.3487C40.8167 23.0712 37.3268 25.6325 33.2998 26.0355L31.6461 26.201C27.3437 26.6316 23.9406 30.0371 23.5104 34.3427C23.046 38.9902 19.138 42.5294 14.4707 42.5294H10.2308C6.78961 42.5294 4 45.321 4 48.7647C4 52.2084 6.78962 55 10.2308 55H78.7692C82.2104 55 85 52.2084 85 48.7647C85 45.321 82.2104 42.5294 78.7692 42.5294H74.5293C69.862 42.5294 65.954 38.9902 65.4896 34.3427C65.0594 30.0371 61.6563 26.6316 57.3539 26.201L55.7002 26.0355C51.6732 25.6325 48.1833 23.0712 46.5891 19.3487Z" fill="#143A62"/>
<path d="M38.2692 8.23529C38.2692 4.79163 41.0588 2 44.5 2C47.9412 2 50.7308 4.79163 50.7308 8.23529C50.7308 11.6789 47.9412 14.4706 44.5 14.4706C41.0588 14.4706 38.2692 11.6789 38.2692 8.23529Z" fill="#143A62"/>
</g>
<defs>
<filter id="filter0_d_4856_7542" x="0" y="0" width="89" height="61" filterUnits="userSpaceOnUse" color-interpolation-filters="sRGB">
<feFlood flood-opacity="0" result="BackgroundImageFix"/>
<feColorMatrix in="SourceAlpha" type="matrix" values="0 0 0 0 0 0 0 0 0 0 0 0 0 0 0 0 0 0 127 0" result="hardAlpha"/>
<feOffset dy="2"/>
<feGaussianBlur stdDeviation="2"/>
<feComposite in2="hardAlpha" operator="out"/>
<feColorMatrix type="matrix" values="0 0 0 0 0 0 0 0 0 0 0 0 0 0 0 0 0 0 0.25 0"/>
<feBlend mode="normal" in2="BackgroundImageFix" result="effect1_dropShadow_4856_7542"/>
<feBlend mode="normal" in="SourceGraphic" in2="effect1_dropShadow_4856_7542" result="shape"/>
</filter>
</defs>
</svg>
