<svg width="93" height="90" viewBox="0 0 93 90" fill="none" xmlns="http://www.w3.org/2000/svg">
<path fill-rule="evenodd" clip-rule="evenodd" d="M84.6794 41.3895C84.592 41.3886 84.4775 41.3886 84.2911 41.3886H73.0894C66.9627 41.3886 62.4114 46.0011 62.4114 51.1912C62.4114 56.3814 66.9627 60.9938 73.0894 60.9938H84.2911C84.4775 60.9938 84.592 60.9938 84.6794 60.993C84.762 60.9921 84.7848 60.9904 84.7848 60.9904C85.6715 60.9359 86.0533 60.3299 86.0825 59.9652C86.0825 59.9652 86.0834 59.9382 86.0838 59.8986C86.0847 59.821 86.0847 59.7182 86.0847 59.5417V42.8407C86.0847 42.7431 86.0847 42.6682 86.0847 42.6072C86.0843 42.5584 86.0843 42.5183 86.0838 42.4839C86.0834 42.4447 86.0825 42.4172 86.0825 42.4172C86.0533 42.0526 85.6715 41.4465 84.7844 41.3921C84.7844 41.3921 84.7633 41.3903 84.6794 41.3895ZM84.3626 34.8535C84.6484 34.8535 84.9238 34.8531 85.1769 34.8688C88.9272 35.1001 92.244 37.9633 92.523 41.9628C92.5415 42.2251 92.541 42.5078 92.541 42.7697C92.541 42.7936 92.541 42.8172 92.541 42.8407V59.5417C92.541 59.5653 92.541 59.5888 92.541 59.6128C92.541 59.8746 92.5415 60.1573 92.523 60.4196C92.244 64.4191 88.9272 67.2823 85.1769 67.5137C84.9238 67.5294 84.6484 67.5289 84.3626 67.5289C84.3389 67.5289 84.3152 67.5289 84.2911 67.5289H73.0894C63.8559 67.5289 55.9551 60.4379 55.9551 51.1912C55.9551 41.9445 63.8559 34.8535 73.0894 34.8535H84.2911C84.3152 34.8535 84.3389 34.8535 84.3626 34.8535Z" fill="#143A62"/>
<path d="M76.3995 51.1907C76.3995 53.5969 74.4725 55.5474 72.0952 55.5474C69.718 55.5474 67.791 53.5969 67.791 51.1907C67.791 48.7845 69.718 46.834 72.0952 46.834C74.4725 46.834 76.3995 48.7845 76.3995 51.1907Z" fill="#143A62"/>
<path fill-rule="evenodd" clip-rule="evenodd" d="M84.3625 34.8538C84.6483 34.8538 84.9237 34.8533 85.1768 34.869C86.147 34.9287 87.0883 35.1648 87.9556 35.5513C87.4951 28.5523 86.2271 23.1587 82.2487 19.1314C79.0274 15.871 74.9427 14.4241 69.8964 13.7373L69.7143 13.713C69.6691 13.6791 69.6231 13.6462 69.5757 13.6144L53.4973 2.82342C47.888 -0.941139 40.3487 -0.941139 34.7395 2.82342L18.6612 13.6144C18.6138 13.6462 18.5675 13.6791 18.5223 13.713L18.3402 13.7373C13.2939 14.4241 9.20937 15.871 5.98822 19.1314C2.7671 22.3918 1.33758 26.5262 0.659151 31.6341C-0.000127442 36.5973 -8.41339e-05 42.939 1.95069e-06 50.9457V51.4372C-8.41339e-05 59.444 -0.000127442 65.7856 0.659151 70.7488C1.33758 75.8566 2.7671 79.9911 5.98822 83.2517C9.20937 86.5118 13.2939 87.9587 18.3402 88.6458C23.2437 89.3128 29.5091 89.3128 37.4192 89.3128H50.8175C58.7278 89.3128 64.993 89.3128 69.8964 88.6458C74.9427 87.9587 79.0274 86.5118 82.2487 83.2517C86.2271 79.2243 87.4951 73.8307 87.9556 66.8316C87.0883 67.2181 86.147 67.4542 85.1768 67.5139C84.9237 67.5296 84.6483 67.5292 84.3625 67.5292H84.291H81.427C80.9372 73.3737 79.8288 76.4587 77.6832 78.6305C75.8616 80.4743 73.3665 81.5796 69.0364 82.1686C64.6129 82.7707 58.782 82.7777 50.5747 82.7777H37.662C29.4546 82.7777 23.6238 82.7707 19.2005 82.1686C14.8701 81.5796 12.3751 80.4743 10.5535 78.6305C8.73195 76.7868 7.6401 74.2612 7.05791 69.8783C6.46319 65.4009 6.45635 59.4989 6.45635 51.1915C6.45635 42.8841 6.46319 36.982 7.05791 32.5048C7.6401 28.1216 8.73195 25.5962 10.5535 23.7524C12.3751 21.9086 14.8701 20.8034 19.2005 20.2141C23.6238 19.6122 29.4546 19.6052 37.662 19.6052H50.5747C58.782 19.6052 64.6129 19.6122 69.0364 20.2141C73.3665 20.8034 75.8616 21.9086 77.6832 23.7524C79.8288 25.9244 80.9372 29.0094 81.427 34.8538H84.291H84.3625ZM37.4192 13.0702H50.8175C53.0406 13.0701 55.1337 13.0701 57.1034 13.0849L49.9295 8.26997C46.4827 5.95677 41.754 5.95677 38.3076 8.26997L31.1333 13.0849C33.1028 13.0701 35.196 13.0701 37.4192 13.0702Z" fill="#143A62"/>
<path d="M20.445 30.4961C18.6621 30.4961 17.2168 31.959 17.2168 33.7636C17.2168 35.5682 18.6621 37.0312 20.445 37.0312H37.6619C39.4447 37.0312 40.8901 35.5682 40.8901 33.7636C40.8901 31.959 39.4447 30.4961 37.6619 30.4961H20.445Z" fill="#143A62"/>
<path fill-rule="evenodd" clip-rule="evenodd" d="M76.3995 51.1907C76.3995 53.5969 74.4725 55.5474 72.0952 55.5474C69.718 55.5474 67.791 53.5969 67.791 51.1907C67.791 48.7845 69.718 46.834 72.0952 46.834C74.4725 46.834 76.3995 48.7845 76.3995 51.1907Z" fill="#143A62"/>
</svg>
