<svg width="333" height="333" viewBox="0 0 333 333" fill="none" xmlns="http://www.w3.org/2000/svg">
<g clip-path="url(#clip0_5156_11586)">
<path d="M169.479 217.375C199.33 217.375 223.528 193.177 223.528 163.326C223.528 133.476 199.33 109.277 169.479 109.277C139.628 109.277 115.43 133.476 115.43 163.326C115.43 193.177 139.628 217.375 169.479 217.375Z" fill="#C7ABAF"/>
<path d="M124.742 229.478L136.009 200.685L194.222 191.922L200.476 255.659L141.638 256.911L124.742 229.478Z" fill="#C7ABAF"/>
<path d="M224.052 173.299C223.35 176.109 221.932 182.8 219.718 182.833C217.909 182.859 216.177 153.83 217.984 149.029C220.06 143.512 214.605 136.535 210.495 132.953C203.107 126.512 186.705 140.342 170.028 134.077C169.585 133.911 169.674 133.93 164.407 131.829C148.202 125.363 147.35 125.176 146.421 125.084C138.565 124.307 128.978 130.735 125.063 138.573C120.994 146.721 124.394 153.709 120.567 173.42C120.121 175.718 119.421 178.993 118.319 179.041C116.304 179.129 114.337 168.37 113.822 165.552C111.664 153.745 109.583 144.611 113.822 131.829C98.4986 185.081 108.142 123.011 113.822 112.719C122.006 97.8913 123.874 96.0702 125.063 94.7331C133.594 85.1398 160.363 70.7679 173.4 74.4992C179.989 76.3851 178.808 79.4172 186.889 82.3679C201.291 87.6262 213.807 81.1955 216.116 85.7402C217.339 88.1476 213.917 90.1324 213.868 94.7331C213.782 102.627 219.66 106.689 225.499 114.5C228.638 118.699 235.608 127 224.052 173.299Z" fill="#E678A4"/>
<path d="M291.013 277.047C288.834 279.495 286.575 281.892 284.234 284.233C252.787 315.68 210.974 333 166.501 333C128.062 333 91.6134 320.062 62.1253 296.245C62.1065 296.233 62.094 296.22 62.0753 296.201C58.1632 293.047 54.3762 289.691 50.7207 286.149C50.7895 285.598 50.8647 285.053 50.946 284.515C51.4593 280.884 52.029 277.423 52.6673 274.237C57.894 248.123 126.666 220.707 128.456 219.993C128.481 219.987 128.494 219.98 128.494 219.98C128.494 219.98 137.345 252.605 175.27 252.185C201.103 251.903 196.095 219.98 196.095 219.98C196.095 219.98 196.408 220.043 196.997 220.168C204.458 221.752 256.261 233.131 276.698 248.661C282.926 253.393 287.395 263.471 290.606 275.489C290.744 276.002 290.875 276.528 291.013 277.047Z" fill="#E05D92"/>
<path d="M284.233 48.7671C252.786 17.3203 210.973 0 166.5 0C122.027 0 80.2143 17.3203 48.7669 48.7671C17.3199 80.2144 0 122.027 0 166.5C0 207.093 14.4279 245.469 40.8676 275.771C43.3902 278.669 46.0254 281.491 48.7669 284.234C49.4117 284.878 50.0627 285.523 50.7199 286.149C54.3755 289.692 58.1624 293.047 62.0746 296.201C62.0932 296.22 62.1057 296.233 62.1245 296.245C91.6126 320.062 128.061 333 166.5 333C210.973 333 252.786 315.68 284.233 284.234C286.574 281.892 288.834 279.495 291.012 277.047C318.159 246.552 333 207.668 333 166.5C333 122.027 315.68 80.2144 284.233 48.7671ZM290.605 275.489C285.679 281.091 280.383 286.361 274.75 291.25C264.065 300.545 252.172 308.482 239.347 314.804C234.846 317.026 230.233 319.048 225.514 320.857C207.18 327.893 187.281 331.748 166.5 331.748C146.445 331.748 127.216 328.156 109.421 321.583C102.116 318.891 95.0553 315.693 88.2763 312.031C87.281 311.493 86.2921 310.948 85.3094 310.392C80.1391 307.462 75.1378 304.264 70.3369 300.808C63.4579 295.876 56.9731 290.424 50.9452 284.515C47.5652 281.203 44.3354 277.755 41.2495 274.168C16.3308 245.225 1.25188 207.593 1.25188 166.5C1.25188 75.3824 75.3819 1.25188 166.5 1.25188C257.618 1.25188 331.748 75.3824 331.748 166.5C331.748 208.225 316.206 246.383 290.605 275.489Z" fill="#E05D92"/>
</g>
<defs>
<clipPath id="clip0_5156_11586">
<rect width="333" height="333" fill="white"/>
</clipPath>
</defs>
</svg>
